<svg width="14" height="16" viewBox="0 0 14 16" fill="none" xmlns="http://www.w3.org/2000/svg">
<path fill-rule="evenodd" clip-rule="evenodd" d="M13.2455 5.53515C13.5446 5.53515 13.7871 5.28733 13.7871 4.98162V3.8746C13.7871 2.95751 13.0596 2.21406 12.1621 2.21406H9.45376V1.66054C9.45376 0.743452 8.72623 0 7.82876 0H6.74546C5.84799 0 5.12046 0.743452 5.12046 1.66054V2.21406H2.41211C1.51464 2.21406 0.787109 2.95751 0.787109 3.8746V4.98162C0.787109 5.28733 1.02964 5.53515 1.32876 5.53515H13.2455ZM6.20376 2.21406H8.37041V1.66054C8.37041 1.35485 8.12793 1.10703 7.82876 1.10703H6.74541C6.44629 1.10703 6.20376 1.35485 6.20376 1.66054V2.21406ZM12.1622 3.32109C12.4613 3.32109 12.7038 3.5689 12.7038 3.8746V4.42812H1.87046V3.8746C1.87046 3.5689 2.11299 3.32109 2.41211 3.32109H12.1622ZM12.7038 13.8379V7.19568C12.7038 6.88999 12.4613 6.64217 12.1622 6.64217C11.863 6.64217 11.6205 6.88999 11.6205 7.19568V13.8379C11.6205 14.1436 11.3779 14.3914 11.0788 14.3914H3.49546C3.19629 14.3914 2.95381 14.1436 2.95381 13.8379V7.19568C2.95381 6.88999 2.71128 6.64217 2.41211 6.64217C2.11299 6.64217 1.87046 6.88999 1.87046 7.19568V13.8379C1.87046 14.755 2.59799 15.4984 3.49546 15.4984H11.0788C11.9763 15.4984 12.7038 14.755 12.7038 13.8379ZM5.12046 12.7308C5.12046 13.0365 5.36299 13.2844 5.66211 13.2844C5.96128 13.2844 6.20381 13.0365 6.20381 12.7308V7.19568C6.20381 6.88999 5.96128 6.64217 5.66211 6.64217C5.36299 6.64217 5.12046 6.88999 5.12046 7.19568V12.7308ZM8.91211 13.2844C8.61299 13.2844 8.37046 13.0365 8.37046 12.7308V7.19568C8.37046 6.88999 8.61299 6.64217 8.91211 6.64217C9.21128 6.64217 9.45381 6.88999 9.45381 7.19568V12.7308C9.45381 13.0365 9.21128 13.2844 8.91211 13.2844Z" fill="#FF0000"/>
</svg>
