<svg width="15" height="15" viewBox="0 0 15 15" fill="none" xmlns="http://www.w3.org/2000/svg">
<path fill-rule="evenodd" clip-rule="evenodd" d="M13.3431 9.2432C13.3431 9.05927 13.4902 8.9102 13.6716 8.9102L14 9.24333V12.2C13.999 13.1191 13.2644 13.8639 12.3578 13.865H3.14219C2.23565 13.8639 1.50102 13.1191 1.5 12.2V3.52241C1.50102 2.60328 2.23565 1.85846 3.14219 1.85742H6.05836C6.23978 1.85742 6.3868 2.00649 6.3868 2.19042C6.3868 2.37435 6.23978 2.52341 6.05836 2.52341H3.14219C2.59822 2.52406 2.15753 2.97089 2.15687 3.52241V12.2C2.15753 12.7514 2.59822 13.1983 3.14219 13.199H12.3578C12.9018 13.1983 13.3425 12.7514 13.3431 12.2V9.2432Z" fill="#717171"/>
<path fill-rule="evenodd" clip-rule="evenodd" d="M5.14746 8.0392L10.8879 2.26758L12.7392 4.12892L6.99878 9.90054" fill="#717171"/>
<path fill-rule="evenodd" clip-rule="evenodd" d="M4.21094 10.8421L6.25684 10.2724L4.77762 8.78516" fill="#717171"/>
<path fill-rule="evenodd" clip-rule="evenodd" d="M13.2513 1.28893C12.8672 0.903691 12.2454 0.903691 11.8613 1.28893L11.4443 1.70813L13.2957 3.56947L13.7126 3.15026C14.0959 2.7641 14.0959 2.13893 13.7126 1.75276" fill="#717171"/>
</svg>
