<svg width="15" height="11" viewBox="0 0 15 11" fill="none" xmlns="http://www.w3.org/2000/svg">
<path fill-rule="evenodd" clip-rule="evenodd" d="M0.275391 5.4729L0.418098 5.75881C3.56531 12.0539 11.4346 12.0539 14.5822 5.75881L14.7254 5.4729L14.5822 5.18698C11.4345 -1.03629 3.56619 -1.03629 0.418597 5.18698L0.275391 5.4729ZM4.63907 5.4729C4.63907 7.04663 5.92642 8.33397 7.50015 8.33397C9.07388 8.33397 10.3612 7.04663 10.3612 5.4729C10.3612 3.89917 9.07388 2.61182 7.50015 2.61182C5.92642 2.61182 4.63907 3.89917 4.63907 5.4729ZM6.06961 5.4729C6.06961 7.33264 8.93068 7.33264 8.93068 5.4729C8.93068 3.61316 6.06961 3.61316 6.06961 5.4729Z" fill="#00B7C2"/>
</svg>
