<svg width="19" height="20" viewBox="0 0 19 20" fill="none" xmlns="http://www.w3.org/2000/svg">
<path d="M13.6804 5.82937H17.8185C18.0769 5.82937 18.2874 6.03909 18.2874 6.29827V19.5311C18.2874 19.7895 18.0777 20 17.8185 20H13.6804C13.4221 20 13.2115 19.7903 13.2115 19.5311V6.29827C13.2115 6.0399 13.4213 5.82937 13.6804 5.82937ZM9.37253 5.39237H4.92029C4.66192 5.39237 4.45138 5.18265 4.45138 4.92346V0.967296C3.53909 1.07416 2.72091 1.48963 2.10369 2.10605C1.38281 2.82693 0.937029 3.82297 0.937029 4.92185C0.937029 6.02153 1.38281 7.01763 2.10369 7.73847C2.82457 8.45856 3.81979 8.90434 4.91949 8.90434C5.39877 8.90434 5.85569 8.8214 6.27515 8.66989C6.71295 8.512 7.11567 8.27834 7.46733 7.98567C7.6651 7.8206 7.95937 7.84771 8.12444 8.04548C8.28951 8.24405 8.2624 8.53752 8.06463 8.70259C7.63002 9.06383 7.13321 9.35172 6.59093 9.54788C6.06621 9.73688 5.50322 9.84055 4.92027 9.84055C3.56223 9.84055 2.33169 9.29031 1.44099 8.39955C0.550299 7.5088 0 6.27908 0 4.92027C0 3.56223 0.551034 2.33169 1.44099 1.44099C2.33175 0.550238 3.56229 0 4.92027 0C6.27912 0 7.50886 0.550238 8.39955 1.44099C9.29031 2.33175 9.84055 3.56229 9.84055 4.92027C9.84055 5.17944 9.63083 5.38918 9.37164 5.38918L9.37253 5.39237ZM6.16926 1.14039C6.10706 1.12046 6.04406 1.10052 5.98106 1.08377L5.97229 1.08138L5.938 1.07181L5.89653 1.06145L5.88537 1.05826L5.85746 1.05188L5.84231 1.04789C5.76336 1.02955 5.68361 1.0128 5.60307 0.999245H5.60147C5.5313 0.987283 5.46112 0.976915 5.39014 0.968942V4.45618H8.87656C8.86859 4.38521 8.85822 4.31503 8.84626 4.24485V4.24326C8.83191 4.16271 8.81596 4.08297 8.79762 4.00402L8.79363 3.98886L8.78725 3.96095L8.78486 3.94979L8.77529 3.9147L8.77369 3.90832L8.76412 3.87403L8.76173 3.86526C8.74419 3.80146 8.72585 3.73926 8.70511 3.67706L8.70113 3.66271L8.69076 3.6332L8.68837 3.62682L8.6764 3.59173L8.67561 3.59014L8.66205 3.55186L8.6477 3.51278L8.6461 3.5088L8.63254 3.47371L8.63175 3.47211L8.61979 3.44261L8.615 3.43065L8.60543 3.40593L8.59666 3.38599L8.58709 3.36366L8.58151 3.3509L8.56875 3.3206L8.5528 3.28471L8.5512 3.28312C8.54164 3.26159 8.53127 3.24005 8.5217 3.21932L8.51372 3.20178L8.51133 3.19699L8.49857 3.16988L8.49538 3.1643L8.48342 3.13878L8.47704 3.12602L8.46428 3.1013L8.45551 3.08455L8.44355 3.06143L8.44195 3.05983L8.42361 3.02474L8.42202 3.02315L8.40208 2.98726L8.37975 2.94899L8.34387 2.88918L8.3335 2.87163L8.32074 2.8493L8.31117 2.83336L8.29762 2.81182L8.29602 2.80943L8.27449 2.77594L8.27369 2.77434L8.25136 2.74005L8.23143 2.70975L8.22744 2.70497L8.18916 2.64755L8.17401 2.62522L8.16284 2.61007L8.1445 2.58455L8.13812 2.57498L8.12058 2.55106L8.11101 2.5383L8.11021 2.5375L8.08549 2.5048L8.0815 2.50002L8.07752 2.49603L8.05519 2.46812L8.04323 2.45377L8.00016 2.39874L7.989 2.38519L7.96986 2.36286L7.96189 2.35329L7.9571 2.34771L7.93079 2.3174L7.92999 2.31661L7.90287 2.2863L7.89889 2.28152L7.87656 2.256L7.87337 2.25201L7.85901 2.23606L7.83031 2.20496L7.80957 2.18263L7.8 2.17227L7.77209 2.14276L7.7697 2.14037L7.737 2.10688L7.70351 2.07418L7.70112 2.07179L7.67162 2.04388L7.66125 2.03431L7.63892 2.01437L7.62775 2.004L7.60702 1.98487L7.59107 1.97051L7.58708 1.96732L7.56157 1.9442L7.55678 1.94021L7.52648 1.9131L7.49617 1.88678L7.49059 1.88199L7.48023 1.87322L7.4579 1.85408L7.44434 1.84292L7.38932 1.79986L7.37416 1.78789L7.34625 1.76557L7.33668 1.75759L7.30399 1.73287L7.30319 1.73207L7.29043 1.7225L7.26651 1.70496L7.25694 1.69858L7.23142 1.68024L7.21627 1.66907L7.19394 1.65392L7.15805 1.63L7.13732 1.61564L7.13253 1.61246L7.10223 1.59252L7.06794 1.57019L7.06635 1.56939L7.03285 1.54786L7.03046 1.54627L7.00893 1.53271L6.99298 1.52314L6.97065 1.50958L6.9539 1.49922L6.89409 1.46333L6.88453 1.45775L6.81993 1.42186L6.81834 1.42027L6.78325 1.40193L6.78165 1.40113L6.75853 1.38917L6.74178 1.3804L6.71706 1.36764L6.7043 1.36126L6.67958 1.3485L6.674 1.34611L6.64768 1.33335L6.6429 1.33095L6.62535 1.32298L6.16926 1.14039ZM6.10546 1.11089L6.10307 1.10929L6.0313 1.07739L6.02971 1.0766L5.99861 1.06304L5.98425 1.05746L5.95794 1.04629L5.94598 1.04151L5.91647 1.02955L5.91408 1.02875L5.87899 1.01519L5.875 1.0136L5.83593 0.999244L5.79765 0.985688L5.79605 0.98489L5.76096 0.972929L5.75458 0.970536L5.72508 0.960967L5.71073 0.95698L6.10546 1.11089ZM0.719449 12.7791H4.85751C5.11668 12.7791 5.32642 12.9888 5.32642 13.248V19.5017C5.32642 19.76 5.1167 19.9706 4.85751 19.9706H0.719449C0.460285 19.9706 0.250544 19.7609 0.250544 19.5017V13.248C0.250544 12.9897 0.460264 12.7791 0.719449 12.7791ZM4.3894 13.7169H1.18838V19.0327H4.3894V13.7169ZM7.16846 11.358H11.3065C11.5649 11.358 11.7754 11.5677 11.7754 11.8269V19.5024C11.7754 19.7608 11.5657 19.9714 11.3065 19.9714H7.16846C6.90929 19.9714 6.69955 19.7616 6.69955 19.5024V11.8269C6.69955 11.5686 6.90927 11.358 7.16846 11.358ZM10.8384 12.295H7.63739V19.0335H10.8384V12.295ZM17.2874 6.73833H14.0864V19.0335H17.2874V6.73833Z" fill="#494949"/>
</svg>
