<svg width="82" height="82" viewBox="0 0 82 82" fill="none" xmlns="http://www.w3.org/2000/svg">
<rect x="0.847656" y="0.530273" width="80.657" height="80.657" rx="16.1314" fill="white"/>
<path d="M44.2102 21.9588L53.3549 39.6173C53.3777 39.6613 53.3851 39.7117 53.376 39.7604C53.3669 39.8091 53.3418 39.8534 53.3047 39.8862L34.0115 57.5877L17.217 72.9269C17.0282 73.0989 16.9696 73.0619 17.0413 72.8157L35.9079 6.88495C35.9748 6.64596 36.0668 6.63641 36.1839 6.85627L44.2102 21.9588Z" fill="#FF7A08"/>
<path d="M34.0078 57.5904L53.3009 39.8889C53.3381 39.8561 53.3632 39.8118 53.3723 39.7631C53.3814 39.7144 53.3739 39.664 53.3511 39.62L44.2064 21.9615L47.9059 8.99545C47.9823 8.73018 48.0839 8.72062 48.2106 8.96678L65.3314 41.6848C65.352 41.7235 65.3589 41.7681 65.3511 41.8115C65.3433 41.855 65.3212 41.8949 65.2883 41.925L29.2365 74.9908C29.1218 75.0959 29.0859 75.0732 29.1289 74.9227L34.0078 57.5904Z" fill="#008C3C"/>
</svg>
