<svg width="90" height="90" viewBox="0 0 90 90" fill="none" xmlns="http://www.w3.org/2000/svg">
<rect opacity="0.4" width="89.0642" height="89.0642" rx="7.12514" fill="#B8EAFF"/>
<path d="M38.5421 79.4107C38.3607 78.9764 37.9878 77.4581 37.7135 76.0368C37.1878 73.3128 36.725 71.953 36.0818 71.2423C35.5244 70.6264 33.3244 70.6796 28.1319 71.4346C22.3338 72.2777 19.63 72.0655 17.9284 70.6337C16.5071 69.4377 16.1343 67.2959 16.8704 64.5534C17.4303 62.4673 17.3538 62.0593 16.1482 60.7018C15.0549 59.4709 14.8274 58.7067 15.2944 57.8343C15.4752 57.4963 15.3796 57.299 14.8427 56.9021C13.8255 56.1499 13.7158 55.314 14.4489 53.901C14.7877 53.2479 15.0649 52.5693 15.0649 52.393C15.0649 52.0031 14.1778 51.2905 12.4251 50.2725C10.2875 49.0311 9.52572 47.3973 10.3512 45.8253C10.5389 45.4678 11.5179 44.378 12.5267 43.4036C14.4873 41.5096 15.9407 39.548 16.8835 37.5225C17.4195 36.3713 17.4676 35.9719 17.4697 32.6527C17.4726 28.4994 17.7565 27.1587 19.529 22.9337C20.6958 20.1522 21.6209 18.8712 24.0577 16.663C28.015 13.0768 31.2764 11.5304 39.3993 9.38919C42.2188 8.64593 42.624 8.6012 46.5995 8.59362C50.1501 8.58686 51.2046 8.67349 53.3109 9.14495C59.8052 10.5987 65.7059 13.5643 70.4867 17.7776C74.1167 20.9765 76.1621 24.2055 77.34 28.5964C77.9197 30.7575 77.9787 31.3865 77.9927 35.5462C78.0182 43.1352 77.255 45.2323 72.1886 51.4962C69.1875 55.2065 66.838 59.5173 66.6428 61.671C66.5321 62.8925 66.6925 63.5667 68.1269 67.9076C69.0114 70.5846 70.1625 73.76 70.6848 74.9643C71.2071 76.1685 71.6344 77.3445 71.6344 77.5775C71.6344 78.0995 70.7651 78.411 70.3257 78.0463C69.8265 77.632 68.2021 73.5347 66.446 68.2605C64.9776 63.85 64.8577 63.3354 64.9351 61.7722C65.0093 60.272 65.1798 59.7535 66.3991 57.3187C67.651 54.8188 68.7822 53.1716 72.8374 47.9432C75.3847 44.6591 76.1854 42.0942 76.3699 36.6292C76.4781 33.4238 76.4231 32.5457 75.9797 30.3985C75.0162 25.732 73.6325 23.2504 70.0747 19.8085C65.6366 15.5151 60.1869 12.5745 53.6323 10.936C51.3366 10.3622 50.5883 10.2902 46.8396 10.2826C42.8369 10.2745 42.4802 10.3131 39.684 11.0565C31.4842 13.2363 28.2043 14.9075 23.9989 19.0481C22.357 20.6647 21.264 22.6587 19.9698 26.3983C19.369 28.1341 19.2897 28.7516 19.1661 32.657C19.0472 36.4129 18.9592 37.142 18.5058 38.1304C17.5987 40.1083 16.2279 41.9709 13.9254 44.3547C12.639 45.6864 11.6944 46.8662 11.6944 47.1413C11.6944 47.7462 12.4215 48.412 14.1116 49.3547C16.9018 50.9109 17.4102 52.1458 16.1481 54.2997L15.4976 55.4097L16.4245 55.7775C16.9342 55.9797 17.5951 56.2472 17.893 56.3719C18.6642 56.6947 18.5802 57.4842 17.7277 57.925C16.6394 58.4878 16.6333 58.7159 17.6766 59.8478C18.9166 61.193 19.1017 62.1445 18.5884 64.5334C17.9943 67.2978 18.0564 68.304 18.8711 69.1187C20.2263 70.4738 22.3959 70.5725 29.1469 69.586C30.868 69.3345 33.1661 69.1283 34.2539 69.1277C36.1173 69.1268 36.2799 69.1691 37.0705 69.8633C38.092 70.7601 38.6705 72.2336 39.3546 75.681C39.6364 77.1014 39.9759 78.5499 40.109 78.8997C40.6253 80.2577 39.103 80.7534 38.5417 79.4101L38.5421 79.4107ZM52.1215 63.5755C50.7072 62.1612 49.394 60.0135 48.6354 57.8743C47.4984 54.668 47.1685 54.0522 45.7744 52.5357C45.0234 51.7187 44.3551 50.7418 44.2757 50.3448C44.1535 49.7338 44.0216 49.6281 43.3801 49.627C41.1237 49.623 39.3586 48.517 38.7238 46.7092C38.3848 45.744 38.1105 45.3936 37.415 45.0373C36.2759 44.4537 35.5568 43.5225 35.377 42.3985C35.2433 41.5622 35.166 41.491 34.2607 41.3695C33.6282 41.2847 33.1054 41.3587 32.7659 41.5812C32.1746 41.9686 32.0258 41.9784 28.5415 41.8583C26.4341 41.7856 25.7773 41.6645 24.6225 41.1358C23.5135 40.6281 23.1522 40.317 22.8212 39.5849C22.5936 39.0813 22.176 38.3456 21.8932 37.9501C20.9326 36.6065 20.1199 34.3102 20.1289 32.9655C20.1404 31.2302 20.6697 28.898 21.2909 27.8451C21.5739 27.3654 21.8055 26.6488 21.8055 26.2526C21.8055 25.3693 22.2789 24.4218 23.1066 23.6486C23.4502 23.3276 23.7323 22.9485 23.7336 22.806C23.7385 22.2714 24.9028 20.0931 25.8601 18.8274C27.0574 17.2448 28.6413 16.1163 29.5338 16.21C29.9853 16.2573 30.4477 16.0278 31.1145 15.4254C32.3307 14.3266 34.0781 13.4868 35.2764 13.4252C35.7973 13.3985 36.4188 13.2061 36.6574 12.9977C37.4223 12.3298 38.0415 12.112 40.6519 11.593C42.6179 11.2021 43.4093 11.1396 44.0733 11.3229C44.6544 11.4834 45.1715 11.4796 45.6541 11.3114C46.0485 11.1739 46.7748 11.1306 47.268 11.2152C47.7612 11.2998 49.0313 11.4035 50.0905 11.4458C52.3206 11.5347 54.6027 11.95 55.6038 12.4492C55.9883 12.6409 56.4558 12.7977 56.6427 12.7977C57.1021 12.7977 60.3971 14.3326 61.2664 14.9516C61.7211 15.2754 61.997 15.3529 62.0568 15.1736C62.1195 14.9854 62.5067 15.0566 63.2796 15.3985C64.0598 15.7436 65.4132 16.8944 67.6424 19.1083C71.7966 23.2338 73.1228 25.5185 73.4241 29.07C73.4589 29.48 73.7135 30.0417 73.99 30.3182C74.2664 30.5946 74.6073 31.234 74.7476 31.7391C75.0386 32.787 75.095 35.978 74.8273 36.2457C74.7294 36.3436 74.6826 37.0928 74.7234 37.9107C74.895 41.3482 73.8386 44.5766 71.8022 46.8375C70.9711 47.7603 70.585 48.0141 70.0358 47.9985C69.4191 47.981 69.2459 48.1451 68.6207 49.3391C68.2282 50.0888 67.0966 51.5139 66.1007 52.513C64.1796 54.4398 62.6154 55.3578 60.3474 55.8886C58.5999 56.2977 55.6465 56.0784 54.1827 55.4308C53.5532 55.1524 52.9977 54.9245 52.9484 54.9245C52.899 54.9245 52.8586 55.7173 52.8586 56.6863C52.8586 58.6025 53.3715 60.6933 54.0891 61.7018C54.6359 62.4705 54.669 62.8682 54.186 62.8682C53.6032 62.8682 52.6651 61.1844 52.2413 59.3778C51.9637 58.1944 51.8889 57.166 51.9902 55.9232L52.1344 54.1537L51.0315 52.5099C50.3508 51.4952 49.8783 50.4911 49.7972 49.8862C49.647 48.7659 49.6877 48.7752 46.8919 49.2256C45.9272 49.381 45.1418 49.5894 45.1467 49.6887C45.1515 49.788 45.1555 50.0382 45.1555 50.2447C45.1555 50.4512 45.6779 51.1824 46.3164 51.8696C47.9589 53.6374 48.4238 54.3798 48.8879 55.9761C49.7329 58.8828 51.1122 61.3417 52.8216 62.9885C53.3713 63.5181 53.8212 64.0868 53.8213 64.2523C53.8218 64.8346 53.0889 64.5429 52.1215 63.5755ZM62.2765 54.283C63.1534 53.871 64.3065 53.1403 64.839 52.6593C66.1111 51.51 67.6733 49.4692 68.1447 48.3411L68.5215 47.4391L66.9541 46.7284C66.092 46.3375 65.2439 46.0177 65.0693 46.0177C64.8948 46.0177 64.1682 45.6496 63.4547 45.1997L62.1574 44.3817L61.2993 45.0606C59.328 46.6202 56.7004 47.5637 55.373 47.1884C55.2478 47.1529 54.704 47.355 54.1646 47.6373C53.6253 47.9197 52.5033 48.2277 51.6712 48.3218L50.1585 48.493L50.2877 49.2892C50.5025 50.6125 51.2118 51.8502 52.4953 53.1413C54.1488 54.8045 55.2301 55.1696 58.2747 55.0929C60.3951 55.0394 60.872 54.9429 62.2765 54.283ZM47.2487 48.5102C49.25 48.1985 49.816 48.025 49.9017 47.697C49.9617 47.4676 50.2724 47.1608 50.5922 47.0151C51.3676 46.6618 51.3249 46.2069 50.4194 45.1755C49.6574 44.3076 49.6479 43.7739 50.4028 44.2434C50.9203 44.5652 51.8957 45.9836 51.8957 46.4144C51.8957 46.5934 51.662 46.9736 51.3764 47.2592L50.857 47.7786L51.9823 47.6244C52.6012 47.5395 53.4037 47.3019 53.7655 47.0963C57.0189 45.2476 57.673 44.4726 57.673 42.4675C57.673 41.285 57.5884 41.0704 56.8185 40.3005C56.2488 39.7308 56.0441 39.3657 56.2046 39.2052C56.5916 38.8182 58.0888 40.4878 58.2829 41.5228C58.6019 43.2233 58.2203 44.5202 57.0591 45.6813C55.7461 46.9943 56.1635 47.0664 58.5224 45.9342C60.9217 44.7824 61.7653 44.0117 61.7653 42.9715C61.7653 41.9116 62.1234 41.2382 62.8299 40.9696C63.1345 40.8538 63.596 40.3502 63.8553 39.8505C64.4411 38.7217 66.0033 37.4012 66.3467 37.7446C66.5085 37.9064 66.285 38.2301 65.6705 38.724C65.1656 39.1297 64.554 39.9019 64.3113 40.4401C64.0275 41.0696 63.6887 41.4446 63.3616 41.4915C62.6221 41.5974 62.1614 42.6785 62.5202 43.4659C62.6748 43.8051 63.0285 44.1517 63.3063 44.2361C63.5841 44.3205 63.9739 44.5231 64.1725 44.6862C64.3711 44.8494 65.1293 45.1725 65.8575 45.4041C66.5857 45.6358 67.7773 46.1392 68.5055 46.5228C70.0765 47.3504 70.2266 47.3651 70.7878 46.7449C71.2045 46.2845 71.1996 46.2526 70.6446 45.7991C70.2152 45.4482 70.139 45.2597 70.3427 45.0522C70.5484 44.8426 70.7324 44.8477 71.0932 45.073C71.7597 45.4893 72.2114 45.2461 72.7054 44.205C73.4149 42.7099 73.5792 41.9254 73.1828 41.9254C72.9934 41.9254 72.8385 41.7088 72.8385 41.444C72.8385 41.1792 72.9894 40.9626 73.1738 40.9626C73.6519 40.9626 73.8013 40.4166 73.8013 38.6709C73.8013 37.1959 73.7801 37.1423 73.2126 37.186C72.3899 37.2494 72.3593 36.813 73.1595 36.4295C74.1024 35.9775 74.3072 35.2437 74.0537 33.2252C73.9029 32.0237 73.6897 31.3557 73.3484 31.0144L72.8593 30.5252L72.6141 31.1701C72.4793 31.5248 72.2545 31.815 72.1147 31.815C71.609 31.815 71.5986 31.0879 72.0929 30.2882C72.6842 29.3313 72.7371 28.6195 72.2469 28.2127C72.0184 28.0231 71.9437 27.6829 72.0327 27.2379C72.1359 26.7219 71.9179 26.0926 71.1436 24.6711C69.8118 22.226 69.5521 21.9454 68.621 21.9454C67.5717 21.9454 66.6447 22.7355 66.3321 23.8965C66.1896 24.4258 65.9115 24.9208 65.7141 24.9965C65.2177 25.187 65.0611 24.9642 65.3201 24.4362C65.4401 24.1916 65.7455 23.5615 65.9988 23.036C66.4241 22.1534 67.0061 21.6876 68.0903 21.362C68.8192 21.1431 63.4038 15.9273 62.4476 15.9273C62.3303 15.9273 62.3996 16.2469 62.6016 16.6375C62.8036 17.0281 62.9688 17.5698 62.9688 17.8411C62.9688 18.7333 62.3516 18.3567 61.8437 17.1547C61.2911 15.8467 60.3376 15.0881 58.1973 14.2536C56.9573 13.7702 56.9209 13.7689 57.0622 14.2139C57.2713 14.873 57.2825 16.7889 57.0791 17.1181C56.7209 17.6977 56.4321 17.1926 56.3708 15.8791C56.3358 15.1295 56.1313 14.2501 55.9154 13.9205C55.4614 13.2275 54.0657 12.6951 53.1579 12.8687C52.7495 12.9468 52.2921 12.8123 51.8473 12.4835C51.2191 12.019 51.0557 12.0011 49.8164 12.2611C48.9229 12.4485 48.3213 12.4649 48.0314 12.3098C47.791 12.1811 47.2538 12.0758 46.8378 12.0758H46.0813L46.8343 12.7094C47.4866 13.2582 47.5775 13.4754 47.5147 14.3342C47.4252 15.5583 46.7342 15.7646 46.696 14.5787C46.6631 13.5571 46.5033 13.3607 45.1463 12.673C43.7319 11.9563 43.0459 11.9406 40.2414 12.5606C37.8655 13.0858 37.003 13.522 37.0559 14.1714C37.0919 14.613 37.0018 14.6214 35.4641 14.3181C34.0784 14.0448 30.712 16.3845 30.712 17.6209C30.712 18.2395 30.0664 18.2331 29.8695 17.6125C29.7853 17.3474 29.5053 17.1311 29.2461 17.1311C28.6277 17.1311 26.8349 18.7998 25.9176 20.2291C25.0776 21.5382 24.3669 23.3899 24.7045 23.3899C24.831 23.3899 24.9345 23.5523 24.9345 23.7509C24.9345 23.9495 24.7239 24.112 24.4665 24.112C24.2091 24.112 23.7018 24.3672 23.3392 24.6792C22.7786 25.1614 22.6767 25.4416 22.6586 26.5499C22.6425 27.5389 22.514 27.9769 22.1263 28.3646C21.6487 28.8422 21.3066 29.9706 20.9351 32.2938C20.7625 33.3733 21.6678 36.246 22.529 37.3517L22.9978 37.9535L23.5449 37.3142C24.144 36.614 24.9335 36.1481 25.5205 36.1481C26.2013 36.1481 25.9143 36.7657 25.1241 37.001C24.1037 37.3049 23.3197 38.5914 23.677 39.3755C24.1024 40.3094 25.5386 40.8282 27.8232 40.8736C28.9486 40.8959 30.2846 40.9929 30.7919 41.0892C31.5451 41.2321 31.8489 41.165 32.4461 40.7234C33.1216 40.224 33.2509 40.2068 34.1357 40.4988C34.9887 40.7803 35.1189 40.7703 35.322 40.4073C35.4475 40.1831 35.7073 39.9996 35.8993 39.9996C36.1646 39.9996 36.2484 40.3384 36.2484 41.4115C36.2484 43.0843 36.6877 43.7827 38.1567 44.4452C38.7031 44.6916 39.1394 45.0576 39.1424 45.272C39.1542 46.1344 40.0859 47.6832 40.8216 48.0637C42.488 48.9254 43.9363 49.0261 47.2483 48.5103L47.2487 48.5102ZM48.1136 46.3763C47.7094 46.0931 46.9842 46.0266 44.8363 46.0754C42.0824 46.138 42.0768 46.1369 41.1689 45.4051C40.1229 44.5618 39.6799 43.9507 39.932 43.6987C40.0286 43.6021 40.4581 43.8547 40.8864 44.26C42.1972 45.5006 42.5556 45.5956 45.2401 45.4138C47.5181 45.2596 47.7278 45.2837 48.3451 45.7709C49.376 46.5845 49.1721 47.1176 48.1136 46.3763ZM47.0267 43.1814C46.512 42.5577 44.7072 41.8855 43.7696 41.9682C42.9357 42.0418 42.8816 42.0015 42.679 41.1555C42.4193 40.0713 41.5747 39.1138 40.6803 38.8893C40.0774 38.738 39.7714 38.8049 38.3308 39.4032C37.9791 39.5493 37.9032 39.4941 37.9712 39.1414C38.0901 38.524 39.6259 37.9763 40.6825 38.1745C41.7069 38.3667 42.9117 39.5145 43.1832 40.5569C43.383 41.3243 43.451 41.3576 44.9415 41.4183C45.2871 41.4324 45.9823 41.7238 46.4865 42.0659C47.2514 42.585 47.4978 42.6448 47.9757 42.427C49.4661 41.7479 52.846 42.5799 52.0069 43.4192C51.9355 43.4906 51.4794 43.3461 50.9931 43.0982C49.8811 42.5313 49.3363 42.5317 48.2212 43.1002C47.4254 43.506 47.3014 43.5143 47.0267 43.1814ZM69.6289 41.4038C69.5232 40.511 69.2979 39.9683 68.8306 39.4805C68.1535 38.7738 68.2247 38.2629 68.9384 38.7067C69.1637 38.8468 69.5647 39.2763 69.8295 39.6611C70.2227 40.2323 70.4839 40.3607 71.2538 40.3607C72.5851 40.3607 72.6666 40.9132 71.3493 41.0081C70.372 41.0784 70.3065 41.1288 70.2356 41.8652C70.1213 43.0505 69.7945 42.802 69.6289 41.4038ZM33.3125 37.6525C33.1039 37.2127 32.4733 36.7321 31.4338 36.2208C29.5789 35.3084 29.0611 35.2604 28.2188 35.9229C27.8712 36.1963 27.4722 36.3491 27.3321 36.2626C26.9643 36.0352 27.5369 35.4205 28.4859 35.0238L29.2692 34.6963L28.6184 33.6769C26.9035 30.9907 25.6605 29.8893 24.3443 29.8893C23.9592 29.8893 23.7305 29.7547 23.7305 29.5282C23.7305 28.9997 24.899 29.0741 25.8669 29.6642C26.9863 30.3466 28.1784 31.6569 29.0229 33.1327C29.4136 33.8157 29.9264 34.5474 30.1622 34.7588C30.7901 35.3214 33.3594 36.4056 33.3594 36.108C33.3594 35.7353 35.0102 36.0934 35.9472 36.6693C36.3774 36.9338 36.7295 37.3038 36.7295 37.4916C36.7295 37.9467 36.5693 37.9232 35.7639 37.3497C35.3905 37.0838 34.7385 36.797 34.315 36.7122C33.5928 36.5678 33.5617 36.5893 33.8133 37.0595C34.1413 37.6722 34.1621 38.3145 33.854 38.3145C33.7288 38.3145 33.4853 38.0166 33.3125 37.6525ZM61.3319 38.1377C60.2045 38.0366 59.9966 37.7719 59.7235 36.0898C59.548 35.009 58.8561 34.7299 57.4192 35.1604C56.4368 35.4548 55.1892 35.2931 55.3239 34.8889C55.3677 34.7576 55.8509 34.6285 56.3977 34.602C57.162 34.5649 57.6538 34.3345 58.5249 33.6057C59.1481 33.0842 60.1456 32.2946 60.7415 31.8511C61.3374 31.4075 61.9375 30.7464 62.075 30.382C62.2717 29.8609 62.574 29.6555 63.4894 29.4209C64.5504 29.149 65.4113 28.4585 65.6748 27.668C65.7245 27.5188 65.8938 27.4763 66.051 27.5734C66.2673 27.7071 66.2522 27.9136 65.9889 28.4228C65.5756 29.222 64.6887 29.8461 63.6791 30.048C63.202 30.1434 62.8229 30.4354 62.5892 30.8872C62.3922 31.2683 61.4761 32.1292 60.5535 32.8002C59.631 33.4712 58.8762 34.1081 58.8762 34.2155C58.8762 34.3229 59.1398 34.4769 59.4619 34.5578C60.0652 34.7092 60.1727 34.9178 60.4273 36.4306L60.5762 37.3149L62.1029 37.4784C63.0684 37.5818 63.8121 37.5443 64.1258 37.3764C64.3986 37.2304 64.7373 37.1109 64.8784 37.1109C65.3811 37.1109 65.1235 37.586 64.4248 37.9473C63.7289 38.3071 63.4288 38.3256 61.3319 38.1377ZM40.3982 34.196C39.7784 33.7574 38.8784 33.3922 38.1233 33.2728C36.8553 33.0724 36.8585 33.0749 35.1231 30.9973C34.6855 30.4734 34.3995 30.3707 33.3779 30.3707C32.4523 30.3707 32.156 30.2832 32.156 30.0097C32.156 29.7428 32.4356 29.6486 33.228 29.6486C34.6693 29.6486 35.243 29.9647 36.2995 31.3409C37.0872 32.3669 37.33 32.5242 38.3457 32.6667C38.9795 32.7556 39.9127 33.1083 40.4195 33.4506C41.2606 34.0188 41.4075 34.0459 42.1045 33.7619C43.5014 33.1929 45.737 32.5955 47.442 32.3357C49.264 32.058 50.0304 31.4976 49.7989 30.6123C49.6402 30.0054 49.8967 30.0051 50.8122 30.6115C51.7179 31.2113 52.1568 31.2149 52.9023 30.6285C53.3486 30.2774 53.729 30.1958 54.4603 30.2938C55.7716 30.4697 56.8278 29.9019 57.2233 28.8083C57.5004 28.0419 57.6146 27.9636 58.4542 27.9636C60.3675 27.9636 61.4169 25.6511 59.6647 25.2957C58.5846 25.0766 57.7509 24.48 57.2962 23.6007C56.7178 22.4822 57.2402 22.1825 57.8795 23.266C58.8063 24.8369 60.8925 25.2289 62.3256 24.1015C62.7192 23.7919 62.9909 23.7126 63.0929 23.8777C63.3232 24.2503 62.799 24.7773 61.8609 25.1166C61.2533 25.3363 61.0754 25.5204 61.173 25.8281C61.3329 26.3319 60.7824 27.7218 60.247 28.1658C60.0331 28.3432 59.442 28.5442 58.9333 28.6124C58.2088 28.7096 57.9432 28.8841 57.7067 29.4184C57.3161 30.3007 55.5392 31.1878 54.4752 31.0317C54.0222 30.9652 53.4811 31.0641 53.1652 31.271C52.828 31.492 52.2218 31.5915 51.5422 31.5374C50.8507 31.4824 50.4174 31.5557 50.3469 31.7395C50.1048 32.3704 48.9359 32.8243 46.6811 33.163C44.6453 33.4689 43.6991 33.7817 41.5443 34.8615C41.4781 34.8946 40.9623 34.5951 40.3982 34.196ZM40.6326 29.3475C40.3837 28.7849 39.7641 27.9592 39.2556 27.5128C38.3957 26.7578 38.2433 26.7101 37.075 26.8307C35.8461 26.9575 35.8159 26.9454 35.6812 26.2718C35.6055 25.8931 35.2346 25.2376 34.857 24.815C34.2654 24.1529 33.9616 24.0263 32.6585 23.8987C31.1511 23.7512 31.1454 23.7477 30.8185 22.7878C30.6381 22.2582 30.1977 21.5712 29.8396 21.2611C29.2166 20.7214 28.9846 20.6972 27.5972 21.0275C27.4235 21.0689 27.234 20.9743 27.1761 20.8173C27.0442 20.4594 28.5777 20.014 29.3216 20.1941C30.1072 20.3844 30.8266 21.1064 31.3194 22.1992C31.6918 23.0252 31.8506 23.1489 32.5379 23.1489C32.9725 23.1489 33.6029 23.2534 33.9387 23.381C34.4022 23.5573 34.797 23.5006 35.5792 23.1456C36.8283 22.5787 37.6672 22.5499 38.8261 23.0341C39.8878 23.4777 39.6353 24.0487 38.5585 23.6393C37.6956 23.3112 36.6582 23.3228 35.8984 23.669C35.2002 23.9871 35.1428 24.1754 35.6227 24.5736C35.8083 24.7277 36.027 25.1201 36.1087 25.4456C36.238 25.9605 36.3932 26.0376 37.3004 26.0376C37.9857 26.0376 38.624 26.2255 39.1614 26.5856C40.0938 27.2104 41.544 29.2376 41.544 29.9163C41.544 30.6912 41.1061 30.418 40.6326 29.3475ZM49.7288 28.7288C48.893 28.3501 48.1007 27.6781 47.8555 27.14C47.6979 26.7941 47.3012 26.5 46.8621 26.4035C46.46 26.3152 45.8031 25.9366 45.4023 25.5622C43.8142 24.0787 44.7882 21.5035 47.5684 19.8349C48.7451 19.1287 48.9054 18.9321 49.1387 17.9091C49.461 16.4963 49.7416 15.977 50.6108 15.1843C51.6663 14.2217 53.5235 13.2332 53.7099 13.5347C53.9077 13.8548 53.9925 13.7819 52.2185 14.8179C50.5626 15.785 49.7289 17.0663 49.7289 18.6445C49.7289 19.4707 49.6554 19.5563 48.5308 20.0401C47.1175 20.648 45.5184 22.2842 45.2808 23.3651C45.042 24.4524 45.6091 25.182 47.1338 25.749C48.0608 26.0937 48.4259 26.3619 48.4828 26.7398C48.5257 27.0248 48.9843 27.5382 49.5019 27.8807C50.0196 28.2233 50.3843 28.5986 50.3124 28.7149C50.2406 28.8311 50.1611 28.9186 50.1358 28.9093C50.1105 28.9 49.9274 28.8188 49.7288 28.7288ZM59.0267 19.9879C58.3589 19.6357 57.8632 19.5392 57.2815 19.6484C56.7699 19.7443 56.469 19.7054 56.469 19.5432C56.469 19.1683 57.6514 18.7783 58.246 18.9571C59.3637 19.2931 60.3205 19.8514 60.3205 20.1675C60.3205 20.6028 60.1467 20.5786 59.0267 19.9879ZM46.0019 18.9344C45.0432 18.151 42.2859 17.5286 40.6625 17.7291C39.5582 17.8655 39.4025 17.8289 39.2668 17.4013C39.1828 17.1365 38.7268 16.5799 38.2535 16.1644C37.6218 15.6097 37.4641 15.3375 37.6607 15.141C37.8573 14.9444 38.2161 15.1734 39.0102 16.0021L40.0918 17.131H41.7373C43.7356 17.131 45.5832 17.6458 46.4422 18.4419C47.5824 19.4986 47.2067 19.9188 46.0019 18.9344Z" fill="#25BBA4"/>
</svg>
