<svg width="90" height="90" viewBox="0 0 90 90" fill="none" xmlns="http://www.w3.org/2000/svg">
<rect opacity="0.4" width="89.0642" height="89.0642" rx="7.12514" fill="#B8EAFF"/>
<mask id="mask0_1730_86943" style="mask-type:alpha" maskUnits="userSpaceOnUse" x="8" y="8" width="73" height="73">
<path d="M78.5379 66.6631C77.6428 65.768 72.4959 61.2925 67.2371 57.2645C70.0343 51.7819 69.0273 45.0685 64.5518 40.593C60.0762 36.1174 53.3629 35.3342 48.1041 37.9076C39.3767 42.1594 37.3627 53.9078 44.2999 60.8449C48.8873 65.4324 55.7125 66.1037 60.9713 63.4184C63.9923 67.2226 70.0343 74.2716 70.37 74.7191C72.6078 76.9569 76.1883 76.9569 78.426 74.7191C80.7757 72.4814 80.7757 68.789 78.5379 66.6631ZM62.9853 59.2785L62.8734 59.3903C62.8734 59.3903 62.7616 59.3903 62.7616 59.5022C58.1741 63.9778 50.5656 63.9778 45.9782 59.3903C39.9362 53.3483 41.7264 43.5021 49.1111 39.9216C53.5867 37.6839 59.1811 38.3552 62.9853 42.1594C67.6847 46.8588 67.7966 54.3553 62.9853 59.2785Z" fill="black"/>
<path d="M27.6272 63.0828C27.6272 65.3205 25.8369 66.9989 23.711 66.9989C21.5851 66.9989 19.7949 65.2087 19.7949 63.0828C19.7949 57.824 27.6272 57.824 27.6272 63.0828Z" fill="black"/>
<path d="M39.2639 71.1388C39.2639 73.3766 37.4737 75.0549 35.3478 75.0549C33.2219 75.0549 31.4316 73.2647 31.4316 71.1388C31.4316 69.0129 33.2219 67.2227 35.3478 67.2227C37.5855 67.2227 39.2639 69.0129 39.2639 71.1388Z" fill="black"/>
<path d="M66.342 13.4043C66.342 15.4183 64.9993 17.0966 63.0972 17.6561V20.2295C63.0972 20.9008 62.5377 21.3484 61.9783 21.3484H49.5586V19.1106H60.8594V17.5442C58.9573 17.0966 57.6146 15.3064 57.6146 13.2924C57.6146 10.8308 59.6286 8.92871 61.9783 8.92871C64.4398 9.0406 66.342 10.9427 66.342 13.4043Z" fill="black"/>
<path d="M21.6975 26.4953H29.6416V28.7331H21.6975C21.2499 30.6352 19.4597 31.9778 17.4457 31.9778C15.096 31.9778 13.082 29.9638 13.082 27.6142C13.082 25.2645 15.096 23.2505 17.4457 23.2505C19.4597 23.2505 21.138 24.5932 21.6975 26.4953Z" fill="black"/>
<path d="M29.6416 18.9987V21.2365H16.6625C15.9912 21.2365 15.5436 20.789 15.5436 20.1176V17.5442C13.6415 17.0966 12.2988 15.3064 12.2988 13.2924C12.2988 10.8308 14.3128 8.92871 16.6625 8.92871C19.0122 8.92871 21.0262 10.8308 21.0262 13.2924C21.0262 15.3064 19.6835 16.9847 17.7814 17.5442V18.9987H29.6416Z" fill="black"/>
<path d="M65.5583 27.6142C65.5583 30.0757 63.5443 31.9778 61.1946 31.9778C59.1806 31.9778 57.5023 30.6352 56.9429 28.7331H49.4463V26.4953H56.9429C57.3904 24.5932 59.1806 23.2505 61.1946 23.2505C63.6562 23.2505 65.5583 25.1526 65.5583 27.6142Z" fill="black"/>
<path d="M67.4613 74.6069C66.3424 76.6209 64.4403 77.9635 62.0906 77.9635H16.9993C12.1881 77.9635 9.39086 72.3691 11.6286 67.8935C11.6286 67.7816 11.7405 67.7816 11.7405 67.7816C11.7405 67.6697 21.5868 53.6836 21.6987 53.5717H38.1464C36.8037 45.7395 41.3911 38.3548 47.6569 35.6694L47.2094 35.11V10.8301H48.8877C49.559 10.8301 50.0066 10.2706 50.0066 9.71118C50.0066 9.15173 49.559 8.59229 48.8877 8.59229H30.2022C29.5309 8.59229 29.0833 9.15173 29.0833 9.71118C29.0833 10.2706 29.5309 10.8301 30.2022 10.8301H31.8806V34.9981C31.7687 35.11 10.0622 66.439 9.95031 66.439C9.95031 66.439 9.95031 66.5508 9.83842 66.5508C6.36985 73.488 11.0692 80.2013 16.9993 80.2013H62.0906C64.5522 80.2013 67.2375 78.9705 69.0277 76.3971C68.804 76.1733 67.6851 74.9425 67.4613 74.6069ZM39.6009 21.4595C41.7268 21.4595 43.517 23.2498 43.517 25.3757C43.517 27.5015 41.7268 29.2918 39.6009 29.2918C37.475 29.2918 35.5729 27.6134 35.5729 25.3757C35.5729 23.1379 37.3631 21.4595 39.6009 21.4595ZM34.3421 40.9282C36.468 40.9282 38.2582 42.7185 38.2582 44.8444C38.2582 46.9702 36.468 48.8724 34.3421 48.8724C32.2162 48.8724 30.426 47.0821 30.426 44.9562C30.426 42.8303 32.1043 40.9282 34.3421 40.9282Z" fill="black"/>
</mask>
<g mask="url(#mask0_1730_86943)">
<rect x="-12.6533" y="-8.19043" width="109.651" height="109.651" fill="#25BBA4"/>
</g>
</svg>
