<svg width="50" height="47" viewBox="0 0 50 47" fill="none" xmlns="http://www.w3.org/2000/svg">
<path d="M48.6717 39.1261H29.5805C29.3506 39.1261 29.1293 39.2172 28.9666 39.3799L28.3526 39.9939H22.1285L21.5145 39.3799C21.3518 39.2172 21.1305 39.1261 20.9005 39.1261H1.81163C1.33218 39.1261 0.943848 39.5144 0.943848 39.9939C0.943848 43.3435 3.66864 46.0686 7.01857 46.0686H43.4653C46.8149 46.0686 49.54 43.3438 49.54 39.9939C49.54 39.5144 49.1511 39.1261 48.6717 39.1261Z" fill="#229898"/>
<path d="M7.8855 13.0928H6.14995C4.23217 13.0928 2.67883 14.6461 2.67883 16.5639V37.3906H7.8855V13.0928Z" fill="#229898"/>
<path d="M42.5967 13.0928V37.3906H47.8034V16.5639C47.8034 14.6461 46.25 13.0928 44.3322 13.0928H42.5967Z" fill="#229898"/>
<path d="M33.0508 20.5776V18.5904C31.851 18.278 30.903 17.33 30.5906 16.1302H19.8907C19.5783 17.33 18.6303 18.278 17.4305 18.5904V20.5776C17.4305 25.5782 20.5567 30.0102 25.2403 31.6979C29.9241 30.0101 33.05 25.5777 33.05 20.5776H33.0508ZM24.373 26.5435C24.1517 26.5435 23.9283 26.4589 23.759 26.2897L22.0235 24.5541C21.685 24.2157 21.685 23.6668 22.0235 23.3262C22.3619 22.9878 22.9108 22.9878 23.2514 23.3262L24.3729 24.4478L27.2301 21.5907C27.5685 21.2522 28.1174 21.2522 28.458 21.5907C28.7964 21.9291 28.7964 22.478 28.458 22.8185L24.9869 26.2897C24.8176 26.4589 24.5965 26.5435 24.373 26.5435Z" fill="#229898"/>
<path d="M22.7419 38.1542L22.846 38.2583H27.6362L27.7403 38.1542C28.2349 37.6596 28.8858 37.3906 29.58 37.3906H40.8608V9.62165H17.4306C15.9987 9.62165 14.8272 8.45014 14.8272 7.01832V5.28276C14.8272 4.81416 14.428 4.41498 13.9594 4.41498C12.5276 4.41498 11.3561 3.24347 11.3561 1.81165C10.3061 2.60134 9.62054 3.86827 9.62054 5.28276V37.3903H20.9014C21.5956 37.3903 22.2465 37.6593 22.7411 38.1539L22.7419 38.1542ZM15.6953 20.5776V17.8333C15.6953 17.3538 16.0836 16.9655 16.5631 16.9655C17.5024 16.9655 18.2661 16.2018 18.2661 15.2625C18.2661 14.783 18.6544 14.3947 19.1338 14.3947H31.3477C31.8272 14.3947 32.2155 14.783 32.2155 15.2625C32.2155 16.2018 32.9791 16.9655 33.9185 16.9655C34.398 16.9655 34.7863 17.3538 34.7863 17.8333V20.5776C34.7863 26.4218 31.0614 31.5919 25.5165 33.4402C25.4275 33.4705 25.3342 33.4857 25.241 33.4857C25.1477 33.4857 25.0566 33.4705 24.9654 33.4402C19.4203 31.5918 15.6953 26.4218 15.6953 20.5776Z" fill="#229898"/>
<path d="M13.9606 2.6794C15.3924 2.6794 16.5639 3.85092 16.5639 5.28274V7.0183C16.5639 7.49558 16.9544 7.88608 17.4317 7.88608H43.465C43.9423 7.88608 44.3328 7.49558 44.3328 7.0183V5.28274C44.3328 2.88767 42.389 0.943848 39.9939 0.943848H13.9606C13.4833 0.943848 13.0928 1.33435 13.0928 1.81163C13.0928 2.28891 13.4833 2.6794 13.9606 2.6794Z" fill="#229898"/>
</svg>
