<svg width="20" height="20" viewBox="0 0 20 20" fill="none" xmlns="http://www.w3.org/2000/svg">
<path d="M15.1238 8.04229C14.8834 8.25544 14.6002 8.41475 14.2932 8.50956C14.2574 8.51922 14.2197 8.51938 14.1838 8.51001C14.1479 8.50064 14.1151 8.48208 14.0886 8.45615C14.062 8.43022 14.0428 8.39783 14.0326 8.36217C14.0224 8.3265 14.0217 8.28881 14.0306 8.2528C14.108 7.93944 14.2133 7.07463 13.958 6.58105V15.4036C13.9587 15.623 14.0408 15.8344 14.1883 15.9967C14.3359 16.1591 14.5384 16.2609 14.7568 16.2825C14.8804 16.2949 15.0053 16.2815 15.1236 16.2432C15.2418 16.2048 15.3508 16.1424 15.4437 16.0598C15.5366 15.9772 15.6113 15.8763 15.6632 15.7633C15.7151 15.6504 15.7429 15.5279 15.7451 15.4036V7.13484C15.6111 7.48141 15.3984 7.79207 15.1238 8.04229Z" fill="#494949"/>
<path d="M2.76562 16.2673C2.76562 16.3191 2.78537 16.3704 2.78818 16.4215H5.40392V15.1875H2.76562V16.2673Z" fill="#494949"/>
<path d="M13.4779 6.22559L11.7871 6.62129V14.6635L13.5318 15.0707V6.23712C13.5318 6.23256 13.4945 6.22942 13.4779 6.22559Z" fill="#494949"/>
<path d="M5.83008 13.2664L11.362 14.5639V6.72168L5.83008 8.01921V13.2664Z" fill="#494949"/>
<path d="M5.83008 16.0475C6.34151 16.0427 6.83344 15.8507 7.21286 15.5077C7.59228 15.1648 7.83289 14.6947 7.88918 14.1863L5.83008 13.7031V16.0475Z" fill="#494949"/>
<path d="M5.40392 13.6553H2.76562V14.7617H5.40392V13.6553Z" fill="#494949"/>
<path d="M19.3223 0.931782H12.8299C12.7428 0.930307 12.6563 0.94638 12.5755 0.979043C12.4948 1.01171 12.4214 1.06029 12.3599 1.1219C12.2983 1.18352 12.2498 1.25689 12.2171 1.33766C12.1845 1.41843 12.1685 1.50494 12.17 1.59204V5.09774C12.17 5.47118 12.4564 5.78284 12.8299 5.78284H13.2447C13.6678 5.78284 13.9972 5.92608 14.2238 6.21586C14.6049 6.70339 14.5783 7.47901 14.5163 7.95224C14.9047 7.73097 15.4853 7.21969 15.4401 6.1505C15.4353 6.05717 15.4677 5.96575 15.5301 5.89624C15.5926 5.82672 15.68 5.78476 15.7733 5.77952L19.319 5.78284H19.3232C19.5033 5.78084 19.6753 5.70793 19.802 5.57992C19.9286 5.45191 19.9997 5.27913 19.9998 5.09906V1.59195C19.9993 1.50392 19.9814 1.41686 19.9469 1.33584C19.9125 1.25482 19.8623 1.18146 19.7992 1.12002C19.7362 1.05858 19.6616 1.0103 19.5797 0.977986C19.4978 0.94567 19.4103 0.929964 19.3223 0.931782ZM13.4244 4.80412H13.2887C13.2323 4.80412 13.1782 4.7817 13.1383 4.7418C13.0984 4.7019 13.076 4.64778 13.076 4.59135C13.076 4.53492 13.0984 4.48081 13.1383 4.44091C13.1782 4.401 13.2323 4.37859 13.2887 4.37859H13.4244C13.4808 4.37859 13.5349 4.401 13.5749 4.44091C13.6148 4.48081 13.6372 4.53492 13.6372 4.59135C13.6372 4.64778 13.6148 4.7019 13.5749 4.7418C13.5349 4.7817 13.4808 4.80412 13.4244 4.80412ZM13.4244 3.57008H13.2887C13.2323 3.57008 13.1782 3.54766 13.1383 3.50776C13.0984 3.46786 13.076 3.41374 13.076 3.35731C13.076 3.30088 13.0984 3.24677 13.1383 3.20686C13.1782 3.16696 13.2323 3.14455 13.2887 3.14455H13.4244C13.4808 3.14455 13.5349 3.16696 13.5749 3.20686C13.6148 3.24677 13.6372 3.30088 13.6372 3.35731C13.6372 3.41374 13.6148 3.46786 13.5749 3.50776C13.5349 3.54766 13.4808 3.57008 13.4244 3.57008ZM13.4244 2.29348H13.2887C13.2323 2.29348 13.1782 2.27107 13.1383 2.23117C13.0984 2.19126 13.076 2.13715 13.076 2.08072C13.076 2.02429 13.0984 1.97017 13.1383 1.93027C13.1782 1.89037 13.2323 1.86795 13.2887 1.86795H13.4244C13.4808 1.86795 13.5349 1.89037 13.5749 1.93027C13.6148 1.97017 13.6372 2.02429 13.6372 2.08072C13.6372 2.13715 13.6148 2.19126 13.5749 2.23117C13.5349 2.27107 13.4808 2.29348 13.4244 2.29348ZM15.4289 4.80412H14.5195C14.4631 4.80412 14.409 4.7817 14.3691 4.7418C14.3292 4.7019 14.3067 4.64778 14.3067 4.59135C14.3067 4.53492 14.3292 4.48081 14.3691 4.44091C14.409 4.401 14.4631 4.37859 14.5195 4.37859H15.429C15.4854 4.37859 15.5395 4.401 15.5794 4.44091C15.6193 4.48081 15.6417 4.53492 15.6417 4.59135C15.6417 4.64778 15.6193 4.7019 15.5794 4.7418C15.5395 4.7817 15.4853 4.80412 15.4289 4.80412ZM15.4289 3.57008H14.5195C14.4631 3.57008 14.409 3.54766 14.3691 3.50776C14.3292 3.46786 14.3067 3.41374 14.3067 3.35731C14.3067 3.30088 14.3292 3.24677 14.3691 3.20686C14.409 3.16696 14.4631 3.14455 14.5195 3.14455H15.429C15.4854 3.14455 15.5395 3.16696 15.5794 3.20686C15.6193 3.24677 15.6417 3.30088 15.6417 3.35731C15.6417 3.41374 15.6193 3.46786 15.5794 3.50776C15.5395 3.54766 15.4853 3.57008 15.4289 3.57008ZM15.4289 2.29348H14.5195C14.4631 2.29348 14.409 2.27107 14.3691 2.23117C14.3292 2.19126 14.3067 2.13715 14.3067 2.08072C14.3067 2.02429 14.3292 1.97017 14.3691 1.93027C14.409 1.89037 14.4631 1.86795 14.5195 1.86795H15.429C15.4854 1.86795 15.5395 1.89037 15.5794 1.93027C15.6193 1.97017 15.6417 2.02429 15.6417 2.08072C15.6417 2.13715 15.6193 2.19126 15.5794 2.23117C15.5395 2.27107 15.4853 2.29348 15.4289 2.29348ZM18.8208 4.80412H16.5034C16.447 4.80412 16.3928 4.7817 16.3529 4.7418C16.313 4.7019 16.2906 4.64778 16.2906 4.59135C16.2906 4.53492 16.313 4.48081 16.3529 4.44091C16.3928 4.401 16.447 4.37859 16.5034 4.37859H18.8211C18.8775 4.37859 18.9316 4.401 18.9715 4.44091C19.0114 4.48081 19.0338 4.53492 19.0338 4.59135C19.0338 4.64778 19.0114 4.7019 18.9715 4.7418C18.9316 4.7817 18.8775 4.80412 18.8211 4.80412H18.8208ZM18.8208 3.57008H16.5034C16.447 3.57008 16.3928 3.54766 16.3529 3.50776C16.313 3.46786 16.2906 3.41374 16.2906 3.35731C16.2906 3.30088 16.313 3.24677 16.3529 3.20686C16.3928 3.16696 16.447 3.14455 16.5034 3.14455H18.8211C18.8775 3.14455 18.9316 3.16696 18.9715 3.20686C19.0114 3.24677 19.0338 3.30088 19.0338 3.35731C19.0338 3.41374 19.0114 3.46786 18.9715 3.50776C18.9316 3.54766 18.8775 3.57008 18.8211 3.57008H18.8208ZM18.8208 2.29348H16.5034C16.447 2.29348 16.3928 2.27107 16.3529 2.23117C16.313 2.19126 16.2906 2.13715 16.2906 2.08072C16.2906 2.02429 16.313 1.97017 16.3529 1.93027C16.3928 1.89037 16.447 1.86795 16.5034 1.86795H18.8211C18.8775 1.86795 18.9316 1.89037 18.9715 1.93027C19.0114 1.97017 19.0338 2.02429 19.0338 2.08072C19.0338 2.13715 19.0114 2.19126 18.9715 2.23117C18.9316 2.27107 18.8775 2.29348 18.8211 2.29348H18.8208Z" fill="#494949"/>
<path d="M0 10.6555C0.000958645 11.3389 0.273182 11.9939 0.756847 12.4766C1.24051 12.9594 1.89605 13.2303 2.5794 13.23H5.40425V8.08106H2.5794C1.89605 8.0807 1.24051 8.35167 0.756847 8.83441C0.273182 9.31715 0.000958645 9.97217 0 10.6555ZM4.35106 8.6768H4.57446C4.63089 8.6768 4.68501 8.69922 4.72491 8.73912C4.76481 8.77902 4.78723 8.83314 4.78723 8.88957C4.78723 8.94599 4.76481 9.00011 4.72491 9.04001C4.68501 9.07991 4.63089 9.10233 4.57446 9.10233H4.35106C4.29463 9.10233 4.24051 9.07991 4.20061 9.04001C4.16071 9.00011 4.13829 8.94599 4.13829 8.88957C4.13829 8.83314 4.16071 8.77902 4.20061 8.73912C4.24051 8.69922 4.29463 8.6768 4.35106 8.6768ZM3.78723 8.88957C3.78723 8.94599 3.76481 9.00011 3.72491 9.04001C3.68501 9.07991 3.63089 9.10233 3.57447 9.10233H2.5794C2.23348 9.09851 1.89642 9.21174 1.62298 9.42365C1.58493 9.45064 1.53878 9.4638 1.49221 9.46093C1.46 9.46141 1.4281 9.45447 1.39899 9.44066C1.36988 9.42685 1.34434 9.40653 1.32434 9.38127C1.30716 9.35964 1.29447 9.3348 1.28701 9.30821C1.27956 9.28161 1.27749 9.2538 1.28092 9.22639C1.28435 9.19899 1.29322 9.17254 1.307 9.14861C1.32079 9.12468 1.33921 9.10373 1.36119 9.08701C1.7094 8.81684 2.1387 8.67228 2.5794 8.6768H3.57447C3.63089 8.6768 3.68501 8.69922 3.72491 8.73912C3.76481 8.77902 3.78723 8.83314 3.78723 8.88957Z" fill="#494949"/>
<path d="M5.40442 19.0688V16.8467H2.8457C2.97397 17.4442 3.29281 17.984 3.75425 18.3847C4.2157 18.7854 4.79479 19.0255 5.40442 19.0688Z" fill="#494949"/>
</svg>
