<svg width="21" height="21" viewBox="0 0 21 21" fill="none" xmlns="http://www.w3.org/2000/svg">
<path d="M20.9196 10.2442L19.3196 15.8441C19.2716 16.0161 19.1156 16.136 18.9356 16.136H15.4037L15.7277 13.0641C15.7637 12.7241 15.6557 12.3881 15.4277 12.1361C15.1997 11.8801 14.8757 11.7362 14.5357 11.7362H7.33586C6.99588 11.7362 6.67187 11.8801 6.44388 12.1361C6.21588 12.3881 6.10789 12.7241 6.14388 13.0601L6.46786 16.1361H2.93592C2.75593 16.1361 2.59993 16.0162 2.55193 15.8442L0.951969 10.2443C0.915971 10.1243 0.939969 9.9963 1.01597 9.8963C1.09197 9.7963 1.21196 9.7363 1.33596 9.7363H20.5355C20.6595 9.7363 20.7795 9.7963 20.8555 9.8963C20.9315 9.9963 20.9556 10.1242 20.9196 10.2442ZM14.5356 12.5361H7.33579C7.22379 12.5361 7.11579 12.5841 7.03981 12.6681C6.96382 12.7521 6.92781 12.8641 6.93981 12.9761L7.73979 20.5761C7.75979 20.7801 7.93179 20.936 8.13579 20.936H13.7356C13.9396 20.936 14.1117 20.78 14.1316 20.5761L14.9316 12.9761C14.9436 12.8641 14.9076 12.7521 14.8316 12.6681C14.7556 12.5841 14.6476 12.5361 14.5356 12.5361ZM10.9358 6.53615C12.4798 6.53615 13.7359 5.2802 13.7359 3.73609C13.7359 2.19199 12.4799 0.936035 10.9358 0.936035C9.39172 0.936035 8.13577 2.19199 8.13577 3.73609C8.13577 5.2802 9.39172 6.53615 10.9358 6.53615ZM13.4958 6.26416C12.8438 6.92414 11.9358 7.33613 10.9358 7.33613C9.93586 7.33613 9.02788 6.92414 8.37589 6.26416C7.11192 6.61615 6.11994 7.64811 5.82394 8.93622H16.0478C15.7518 7.64827 14.7598 6.61628 13.4958 6.26416ZM16.2518 5.95215C16.4038 6.10415 16.6038 6.18815 16.8158 6.18815C17.0278 6.18815 17.2318 6.10415 17.3798 5.95215L17.3918 5.94016C17.4078 5.96816 17.4237 6.00015 17.4478 6.02415L18.5317 7.10414V8.9401H19.3317V6.94015C19.3317 6.83215 19.2877 6.73215 19.2157 6.65615L18.0157 5.45618C17.9917 5.43218 17.9597 5.42018 17.9317 5.40018L17.9437 5.38818C18.2558 5.07618 18.2558 4.56821 17.9437 4.2562L16.8118 3.12422C16.5078 2.82023 15.9838 2.82023 15.6798 3.12422L15.1118 3.6882C14.7998 4.00021 14.7998 4.50818 15.1118 4.82018L16.2438 5.95216L16.2518 5.95215Z" fill="#4D4D4D"/>
</svg>
