<svg width="20" height="20" viewBox="0 0 20 20" fill="none" xmlns="http://www.w3.org/2000/svg">
<path d="M4.89295 3.07214L5.36366 1.29143C5.49795 0.783571 5.90295 0.389286 6.41438 0.268571C7.12295 0.0999999 7.82938 0.01 8.53509 0C9.24081 0.01 9.94652 0.1 10.6551 0.267857C11.1665 0.388571 11.5715 0.782857 11.7058 1.29071L12.1765 3.07143C12.2951 3.52071 11.9565 3.96143 11.4915 3.96143H5.57866C5.11366 3.96214 4.77438 3.52143 4.89295 3.07214Z" fill="#475CFF"/>
<path d="M19.2959 16.8273C19.1988 16.688 19.1009 16.5494 19.0038 16.4109C18.8502 16.1923 18.7674 15.9323 18.7674 15.6652V14.1759C18.7674 12.5844 17.6331 11.2587 16.1295 10.9594V10.053C16.1295 9.69801 15.8416 9.41016 15.4866 9.41016C15.1316 9.41016 14.8438 9.69801 14.8438 10.053V10.9594C13.3395 11.2587 12.2052 12.5837 12.2052 14.1759V15.6652C12.2052 15.9323 12.1231 16.1937 11.9695 16.4123L11.6774 16.8287C11.4109 17.208 11.6152 17.7337 12.0666 17.8373C12.9988 18.0516 14.1566 18.2259 15.4866 18.2259C16.3702 18.2259 17.5509 18.1502 18.9031 17.8387C19.3559 17.7344 19.5624 17.2066 19.2959 16.8273Z" fill="#475CFF"/>
<path d="M15.4868 19.51C15.1247 19.51 14.7618 19.4943 14.4004 19.4707C14.6575 19.7907 15.0468 20 15.4875 20C15.9282 20 16.3175 19.7907 16.5747 19.4714C16.2125 19.495 15.8504 19.51 15.4868 19.51Z" fill="#475CFF"/>
<path d="M14.2286 2.43555H13.3371L13.4186 2.7434C13.5779 3.34626 13.4514 3.97555 13.0707 4.46983C12.69 4.96412 12.1143 5.24769 11.49 5.24769H5.57714C4.95357 5.24769 4.37786 4.96483 3.99714 4.47055C3.61714 3.97626 3.49 3.34698 3.64929 2.74412L3.73071 2.43555H2.83571C1.27143 2.43555 0 3.70698 0 5.27126V17.007C0 18.5784 1.27143 19.8427 2.83571 19.8427H13.0493L12.5729 19.2491C12.3064 19.2013 12.0407 19.1505 11.7771 19.0898C11.1464 18.9448 10.6314 18.4984 10.4 17.8948C10.1693 17.2927 10.2521 16.6177 10.6229 16.0898L10.9157 15.6727L10.9179 14.1755C10.9179 12.3748 11.98 10.7734 13.5564 10.037C13.565 8.98055 14.4264 8.12412 15.485 8.12412C16.1379 8.12412 16.715 8.45198 17.0643 8.94983V5.27126C17.0643 3.70698 15.7929 2.43555 14.2286 2.43555ZM4.60643 15.7334H4C3.645 15.7334 3.35714 15.4455 3.35714 15.0905C3.35714 14.7355 3.645 14.4477 4 14.4477H4.60643C4.96143 14.4477 5.24929 14.7355 5.24929 15.0905C5.24929 15.4455 4.96143 15.7334 4.60643 15.7334ZM4.60643 12.5463H4C3.645 12.5463 3.35714 12.2584 3.35714 11.9034C3.35714 11.5484 3.645 11.2605 4 11.2605H4.60643C4.96143 11.2605 5.24929 11.5484 5.24929 11.9034C5.24929 12.2584 4.96143 12.5463 4.60643 12.5463ZM4.60643 9.35912H4C3.645 9.35912 3.35714 9.07126 3.35714 8.71626C3.35714 8.36126 3.645 8.0734 4 8.0734H4.60643C4.96143 8.0734 5.24929 8.36126 5.24929 8.71626C5.24929 9.07126 4.96143 9.35912 4.60643 9.35912ZM8.98714 15.7355H7.35143C6.99643 15.7355 6.70857 15.4477 6.70857 15.0927C6.70857 14.7377 6.99643 14.4498 7.35143 14.4498H8.98714C9.34214 14.4498 9.63 14.7377 9.63 15.0927C9.63 15.4477 9.34214 15.7355 8.98714 15.7355ZM9.45857 12.5434H7.35143C6.99643 12.5434 6.70857 12.2555 6.70857 11.9005C6.70857 11.5455 6.99643 11.2577 7.35143 11.2577H9.45857C9.81357 11.2577 10.1014 11.5455 10.1014 11.9005C10.1014 12.2555 9.81357 12.5434 9.45857 12.5434ZM11.6393 9.35912H7.35286C6.99786 9.35912 6.71 9.07126 6.71 8.71626C6.71 8.36126 6.99786 8.0734 7.35286 8.0734H11.6393C11.9943 8.0734 12.2821 8.36126 12.2821 8.71626C12.2821 9.07126 11.9943 9.35912 11.6393 9.35912Z" fill="#475CFF"/>
</svg>
