<svg width="17" height="20" viewBox="0 0 17 20" fill="none" xmlns="http://www.w3.org/2000/svg">
<path fill-rule="evenodd" clip-rule="evenodd" d="M16.0769 7.14286C16.4629 7.14286 16.7759 6.82306 16.7759 6.42856V4.99999C16.7759 3.81653 15.8371 2.85714 14.6789 2.85714H11.1839V2.14285C11.1839 0.959391 10.2451 0 9.08693 0H7.68898C6.53084 0 5.59199 0.959391 5.59199 2.14285V2.85714H2.09699C0.93885 2.85714 0 3.81653 0 4.99999V6.42856C0 6.82306 0.312971 7.14286 0.698974 7.14286H16.0769ZM6.98994 2.85714H9.78591V2.14285C9.78591 1.74837 9.473 1.42857 9.08693 1.42857H7.68892C7.30292 1.42857 6.98994 1.74837 6.98994 2.14285V2.85714ZM14.679 4.28571C15.065 4.28571 15.378 4.60551 15.378 4.99999V5.71429H1.39801V4.99999C1.39801 4.60551 1.71099 4.28571 2.09699 4.28571H14.679ZM15.378 17.8571V9.28571C15.378 8.89123 15.065 8.57143 14.679 8.57143C14.2929 8.57143 13.98 8.89123 13.98 9.28571V17.8571C13.98 18.2516 13.667 18.5714 13.281 18.5714H3.495C3.10894 18.5714 2.79603 18.2516 2.79603 17.8571V9.28571C2.79603 8.89123 2.48306 8.57143 2.09699 8.57143C1.71099 8.57143 1.39801 8.89123 1.39801 9.28571V17.8571C1.39801 19.0406 2.33686 20 3.495 20H13.281C14.4391 20 15.378 19.0406 15.378 17.8571ZM5.59199 16.4286C5.59199 16.8231 5.90497 17.1429 6.29097 17.1429C6.67704 17.1429 6.99001 16.8231 6.99001 16.4286V9.28571C6.99001 8.89123 6.67704 8.57143 6.29097 8.57143C5.90497 8.57143 5.59199 8.89123 5.59199 9.28571V16.4286ZM10.485 17.1429C10.0989 17.1429 9.78597 16.8231 9.78597 16.4286V9.28571C9.78597 8.89123 10.0989 8.57143 10.485 8.57143C10.871 8.57143 11.184 8.89123 11.184 9.28571V16.4286C11.184 16.8231 10.871 17.1429 10.485 17.1429Z" fill="#FF0000"/>
</svg>
