<svg width="20" height="19" viewBox="0 0 20 19" fill="none" xmlns="http://www.w3.org/2000/svg">
<path d="M17.1123 0H2.85205C1.28342 0 0 1.28342 0 2.85205V15.6863C0 17.2549 1.28342 18.5383 2.85205 18.5383H14.6168C14.7237 18.5383 14.795 18.5027 14.902 18.467C14.902 18.467 14.902 18.467 14.9376 18.467C14.9733 18.467 15.0089 18.4314 15.0446 18.3957L15.0802 18.3601C15.1159 18.3244 15.1159 18.3244 15.1515 18.2888L19.7861 13.2977C19.7861 13.2977 19.7861 13.2977 19.7861 13.262C19.8217 13.2264 19.8574 13.1907 19.893 13.1194C19.893 13.1194 19.893 13.0838 19.9287 13.0838C19.9644 13.0125 19.9643 12.9768 20 12.9055V12.8699C20 12.8342 20 12.7986 20 12.7629V2.85205C19.9643 1.28342 18.6809 0 17.1123 0ZM5.7754 4.63458H10.5882C10.9804 4.63458 11.3012 4.95544 11.3012 5.34759C11.3012 5.73975 10.9804 6.06061 10.5882 6.06061H5.7754C5.38324 6.06061 5.06239 5.73975 5.06239 5.34759C5.06239 4.95544 5.38324 4.63458 5.7754 4.63458ZM11.3369 13.9037H5.7754C5.38324 13.9037 5.06239 13.5829 5.06239 13.1907C5.06239 12.7986 5.38324 12.4777 5.7754 12.4777H11.3012C11.6934 12.4777 12.0143 12.7986 12.0143 13.1907C12.0143 13.5829 11.7291 13.9037 11.3369 13.9037ZM14.1889 9.98217H5.7754C5.38324 9.98217 5.06239 9.66132 5.06239 9.26916C5.06239 8.877 5.38324 8.55615 5.7754 8.55615H14.1533C14.5455 8.55615 14.8663 8.877 14.8663 9.26916C14.8663 9.66132 14.5811 9.98217 14.1889 9.98217ZM14.1889 6.06061H13.1907C12.7986 6.06061 12.4777 5.73975 12.4777 5.34759C12.4777 4.95544 12.7986 4.63458 13.1907 4.63458H14.1889C14.5811 4.63458 14.902 4.95544 14.902 5.34759C14.902 5.73975 14.5811 6.06061 14.1889 6.06061ZM15.3298 16.0071V13.5472H17.6114L15.3298 16.0071Z" fill="#4D4D4D"/>
</svg>
