<svg width="50" height="50" viewBox="0 0 50 50" fill="none" xmlns="http://www.w3.org/2000/svg">
<path fill-rule="evenodd" clip-rule="evenodd" d="M37.4151 25.9113C37.4151 26.4535 36.5915 26.4535 36.5915 25.9113V22.2543C36.5915 21.7121 37.4151 21.7121 37.4151 22.2543V25.9113ZM16.0088 18.3417C15.4666 18.3417 15.4666 17.518 16.0088 17.518H23.5267C24.0689 17.518 24.0689 18.3417 23.5267 18.3417H16.0088ZM19.6277 28.3632L18.5439 29.1612C17.4117 29.9948 15.8602 28.8876 16.2939 27.541L16.7065 26.2599C16.793 25.9915 16.7019 25.7141 16.4715 25.5489L15.3777 24.7647C14.2317 23.9432 14.8086 22.127 16.2243 22.1234L17.5703 22.12C17.8516 22.1192 18.0884 21.9453 18.1738 21.677L18.5815 20.3944C19.0104 19.0448 20.9161 19.0439 21.3546 20.3823L21.7737 21.6614C21.8624 21.932 22.0977 22.1004 22.382 22.0986L23.728 22.0901C25.1363 22.0811 25.7383 23.8875 24.5946 24.7228L23.5077 25.5166C23.2798 25.6831 23.1906 25.9623 23.2799 26.231L23.7039 27.5084C24.1481 28.8469 22.6121 29.9737 21.4691 29.1476L20.3782 28.3592C20.1472 28.1923 19.8582 28.1935 19.6277 28.3632ZM18.0581 28.4984L19.1419 27.7004C19.6561 27.3218 20.3392 27.3186 20.8577 27.6934L21.9485 28.4817C22.4496 28.844 23.1201 28.3527 22.9253 27.766L22.5013 26.4886C22.2992 25.8798 22.5064 25.233 23.0252 24.854L24.1121 24.0602C24.6086 23.6977 24.3504 22.9069 23.7314 22.9107L22.3854 22.9192C21.745 22.9232 21.1913 22.5238 20.9921 21.9157L20.5729 20.6366C20.3797 20.0467 19.5492 20.058 19.3635 20.6422L18.9558 21.9249C18.7609 22.5379 18.2137 22.9389 17.5705 22.9404L16.2245 22.9438C15.6108 22.9454 15.3539 23.7348 15.8572 24.0955L16.9511 24.8796C17.4722 25.2533 17.6857 25.899 17.4885 26.5108L17.0758 27.7919C16.887 28.378 17.557 28.8674 18.0581 28.4984ZM25.7891 35.1875H13.7465C13.1363 35.1875 12.6386 34.6898 12.6386 34.0796V32.6178C12.6386 32.0075 13.1363 31.5098 13.7465 31.5098H25.7892C26.3994 31.5098 26.8971 32.0075 26.8971 32.6178V34.0796C26.897 34.6898 26.3993 35.1875 25.7891 35.1875ZM13.7465 34.3638H25.7892C25.9448 34.3638 26.0735 34.2351 26.0735 34.0796V32.6178C26.0735 32.4622 25.9447 32.3335 25.7892 32.3335H13.7465C13.5909 32.3335 13.4622 32.4623 13.4622 32.6178V34.0796C13.4622 34.2351 13.5909 34.3638 13.7465 34.3638ZM29.2154 7.85706C29.4866 8.32541 28.775 8.73694 28.5044 8.26889L26.6432 5.04517L9.54168 13.0155C8.88903 13.3197 8.55822 14.0518 8.74241 14.7343H43.1495L41.9447 12.1492C40.0672 12.7962 38.0157 11.9456 37.1243 10.0998C36.2677 8.32593 36.9445 6.11737 38.6551 5.09088L37.111 1.778C36.7891 1.06882 35.9284 0.734721 35.1457 1.08241L27.3907 4.69676L29.2154 7.85706ZM32.0889 12.8358C32.3577 13.3036 31.6474 13.7125 31.3779 13.2443L29.503 9.99694C29.2339 9.52972 29.9443 9.11994 30.214 9.5884L32.0889 12.8358ZM35.1382 4.54283C35.4738 4.87838 35.4738 5.42261 35.1382 5.75815C34.5984 6.29796 33.6713 5.91383 33.6713 5.15049C33.6713 4.38716 34.5984 4.00303 35.1382 4.54283ZM34.5306 3.46754C36.0247 3.46754 36.7783 5.28269 35.7205 6.34048C34.6629 7.39828 32.8476 6.64483 32.8476 5.15049C32.8476 4.22109 33.6013 3.46754 34.5306 3.46754ZM45.1624 19.2986C44.2659 18.402 42.7261 19.0401 42.7261 20.3078C42.7261 21.5754 44.2659 22.2135 45.1624 21.3169C45.7196 20.7596 45.7197 19.8558 45.1624 19.2986ZM44.1533 18.0569C46.1518 18.0569 47.1594 20.4846 45.7449 21.8992C44.3304 23.3138 41.9026 22.3063 41.9026 20.3077C41.9026 19.0647 42.9103 18.0569 44.1533 18.0569ZM43.4764 35.768C40.3269 32.6185 35.2204 32.6185 32.0709 35.768C28.9214 38.9175 28.9214 44.024 32.0709 47.1735C35.2204 50.323 40.3269 50.323 43.4764 47.1735C46.6259 44.024 46.6258 38.9174 43.4764 35.768ZM42.7881 34.1309C43.104 33.1128 44.3993 32.7807 45.1624 33.5438C45.8889 34.2703 45.6304 35.5009 44.6837 35.8796C44.1399 35.2083 43.5018 34.6194 42.7881 34.1309ZM37.7736 32.5822C39.334 32.5822 40.8004 32.9843 42.075 33.6906C42.6849 32.2177 44.6072 31.8239 45.7448 32.9615C46.8288 34.0455 46.5302 35.8611 45.18 36.555C45.7311 37.3836 46.1468 38.3101 46.3957 39.3027H47.495C48.6189 39.3027 49.54 38.3817 49.54 37.2578V32.3934C46.9724 32.1832 44.9717 30.0322 44.9717 27.4303C44.9717 24.8285 46.9723 22.6774 49.54 22.4672V17.603C49.54 16.4791 48.6188 15.558 47.495 15.558H37.4151V19.2164C37.4151 19.7586 36.5915 19.7586 36.5915 19.2164V15.558H2.9888C1.86491 15.5579 0.943848 16.479 0.943848 17.6029V22.4671C3.51142 22.6774 5.512 24.8285 5.512 27.4302C5.512 30.0321 3.51142 32.1831 0.943848 32.3933V37.2577C0.943848 38.3816 1.86491 39.3026 2.9888 39.3026H29.1516C30.1296 35.4009 33.6542 32.5822 37.7736 32.5822ZM41.755 44.8697C42.1383 45.253 41.556 45.8354 41.1727 45.452L37.7736 42.053L34.3746 45.452C33.9913 45.8353 33.4089 45.253 33.7922 44.8697L37.1913 41.4706L33.7922 38.0716C33.4089 37.6883 33.9913 37.1058 34.3746 37.4892L37.7736 40.8883L41.1727 37.4892C41.556 37.1059 42.1384 37.6883 41.755 38.0716L38.356 41.4706L41.755 44.8697ZM37.4151 31.4727C37.4151 32.0149 36.5915 32.0149 36.5915 31.4727V28.9494C36.5915 28.4072 37.4151 28.4072 37.4151 28.9494V31.4727Z" fill="#229898"/>
</svg>
