<svg width="81" height="80" viewBox="0 0 81 80" fill="none" xmlns="http://www.w3.org/2000/svg">
<rect x="0.433594" y="0.171387" width="79.834" height="79.834" rx="17.195" fill="#E1F5FE" fill-opacity="0.6"/>
<g clip-path="url(#clip0_1730_69762)">
<path d="M40.9659 76.322C60.6373 76.322 76.5842 60.3751 76.5842 40.7037C76.5842 21.0323 60.6373 5.08545 40.9659 5.08545C21.2945 5.08545 5.34766 21.0323 5.34766 40.7037C5.34766 60.3751 21.2945 76.322 40.9659 76.322Z" fill="#D3DEE3"/>
<path d="M29.9579 57.71H20.1152V62.7168H29.9579V57.71Z" fill="#25BBA4"/>
<path d="M23.5529 57.71H20.1152V62.7168H23.5529V57.71Z" fill="#25BBA4"/>
<path d="M29.9574 57.7106H20.115L18.2617 34.1694H31.8111L29.9574 57.7106Z" fill="#25BBA4"/>
<path d="M23.091 57.7106H20.115L18.2617 34.1694H21.0325L23.091 57.7106Z" fill="#129D88"/>
<path d="M28.8951 42.189H21.6045V47.0984H28.8951V42.189Z" fill="#25BBA4"/>
<path d="M12.0017 36.5776C12.2917 36.5776 12.5268 35.5462 12.5268 34.2739C12.5268 33.0016 12.2917 31.9702 12.0017 31.9702C11.7117 31.9702 11.4766 33.0016 11.4766 34.2739C11.4766 35.5462 11.7117 36.5776 12.0017 36.5776Z" fill="#25BBA4"/>
<path d="M12.0017 43.0693C12.2917 43.0693 12.5268 42.0379 12.5268 40.7656C12.5268 39.4933 12.2917 38.4619 12.0017 38.4619C11.7117 38.4619 11.4766 39.4933 11.4766 40.7656C11.4766 42.0379 11.7117 43.0693 12.0017 43.0693Z" fill="#25BBA4"/>
<path d="M15.2451 38.0454C16.5174 38.0454 17.5488 37.8103 17.5488 37.5202C17.5488 37.2302 16.5174 36.9951 15.2451 36.9951C13.9728 36.9951 12.9414 37.2302 12.9414 37.5202C12.9414 37.8103 13.9728 38.0454 15.2451 38.0454Z" fill="#25BBA4"/>
<path d="M8.75585 38.0454C10.0282 38.0454 11.0596 37.8103 11.0596 37.5202C11.0596 37.2302 10.0282 36.9951 8.75585 36.9951C7.48355 36.9951 6.45215 37.2302 6.45215 37.5202C6.45215 37.8103 7.48355 38.0454 8.75585 38.0454Z" fill="#25BBA4"/>
<path d="M14.6685 35.5981C15.5681 34.6984 16.1312 33.8028 15.9261 33.5978C15.721 33.3927 14.8255 33.9558 13.9258 34.8554C13.0262 35.7551 12.4631 36.6506 12.6682 36.8557C12.8733 37.0608 13.7688 36.4977 14.6685 35.5981Z" fill="#25BBA4"/>
<path d="M10.0796 40.1874C10.9793 39.2878 11.5423 38.3922 11.3373 38.1871C11.1322 37.982 10.2366 38.5451 9.33697 39.4448C8.43732 40.3444 7.87425 41.24 8.07933 41.4451C8.2844 41.6501 9.17996 41.0871 10.0796 40.1874Z" fill="#25BBA4"/>
<path d="M15.9261 41.4442C16.1312 41.2392 15.5681 40.3436 14.6685 39.4439C13.7688 38.5443 12.8733 37.9812 12.6682 38.1863C12.4631 38.3914 13.0262 39.2869 13.9258 40.1866C14.8255 41.0862 15.721 41.6493 15.9261 41.4442Z" fill="#25BBA4"/>
<path d="M11.3373 36.8549C11.5423 36.6498 10.9793 35.7542 10.0796 34.8546C9.17996 33.9549 8.2844 33.3919 8.07933 33.5969C7.87425 33.802 8.43732 34.6976 9.33697 35.5972C10.2366 36.4969 11.1322 37.0599 11.3373 36.8549Z" fill="#25BBA4"/>
<path d="M12.8316 40.7045C12.3185 39.5402 12.1172 38.502 12.3827 38.3848C12.6482 38.2677 13.278 39.1167 13.7923 40.281C14.3065 41.4453 14.5066 42.4835 14.2415 42.6006C13.9764 42.7178 13.345 41.8665 12.8316 40.7045Z" fill="#25BBA4"/>
<path d="M10.2116 34.7616C9.6982 33.5977 9.49733 32.5591 9.76243 32.442C10.0275 32.3248 10.6577 33.1738 11.1724 34.3381C11.687 35.5024 11.8855 36.5406 11.6208 36.6578C11.3561 36.7749 10.7247 35.9255 10.2116 34.7616Z" fill="#25BBA4"/>
<path d="M8.82101 38.3503C9.98493 37.8369 11.0235 37.636 11.1403 37.9011C11.2571 38.1662 10.4085 38.7964 9.24453 39.311C8.08061 39.8257 7.04204 40.0253 6.92487 39.7599C6.8077 39.4944 7.6567 38.8634 8.82101 38.3503Z" fill="#25BBA4"/>
<path d="M14.7584 35.73C15.9224 35.2169 16.9609 35.0157 17.0777 35.2812C17.1945 35.5466 16.3459 36.1765 15.182 36.6907C14.0181 37.2049 12.9791 37.405 12.8623 37.1399C12.7455 36.8748 13.5941 36.2434 14.7584 35.73Z" fill="#25BBA4"/>
<path d="M10.3412 40.3564C10.8018 39.1703 11.3923 38.2932 11.6648 38.3987C11.9373 38.5042 11.7815 39.5502 11.321 40.7363C10.8605 41.9224 10.27 42.7994 9.99752 42.694C9.72503 42.5885 9.88113 41.5425 10.3412 40.3564Z" fill="#25BBA4"/>
<path d="M12.685 34.3036C13.1455 33.1175 13.736 32.2405 14.0085 32.346C14.281 32.4515 14.1253 33.4975 13.6648 34.6816C13.2043 35.8658 12.6138 36.7448 12.3413 36.6393C12.0688 36.5338 12.2249 35.4898 12.685 34.3036Z" fill="#25BBA4"/>
<path d="M11.124 37.1813C11.2289 36.9109 10.3524 36.3186 9.16629 35.8582C7.98018 35.3979 6.93358 35.244 6.82866 35.5144C6.72373 35.7847 7.60021 36.3771 8.78632 36.8374C9.97244 37.2977 11.019 37.4516 11.124 37.1813Z" fill="#25BBA4"/>
<path d="M17.1757 39.5294C17.2806 39.259 16.4042 38.6667 15.218 38.2064C14.0319 37.7461 12.9853 37.5921 12.8804 37.8625C12.7755 38.1329 13.652 38.7252 14.8381 39.1855C16.0242 39.6458 17.0708 39.7998 17.1757 39.5294Z" fill="#25BBA4"/>
<path d="M12.5461 38.8382C13.2738 38.5367 13.6194 37.7024 13.318 36.9746C13.0165 36.2469 12.1822 35.9013 11.4544 36.2027C10.7267 36.5042 10.3811 37.3385 10.6825 38.0663C10.984 38.794 11.8183 39.1396 12.5461 38.8382Z" fill="#25BBA4"/>
<path d="M18.0216 51.1294H13.3496V53.5059H18.0216V51.1294Z" fill="#25BBA4"/>
<path d="M14.9873 51.1294H13.3496V53.5059H14.9873V51.1294Z" fill="#25BBA4"/>
<path d="M18.0196 51.128H13.3475L12.4678 39.9536H18.8993L18.0196 51.128Z" fill="#25BBA4"/>
<path d="M14.6239 51.128H13.3475L12.4678 39.9536H13.8956L14.6239 51.128Z" fill="#129D88"/>
<path d="M17.5173 43.7627H14.0566V46.0929H17.5173V43.7627Z" fill="#25BBA4"/>
<path d="M18.1055 53.5922H13.2618V51.1297L12.375 39.8696H18.9926L18.1055 51.1332V53.5922ZM13.4342 53.4205H17.9338V51.1238L18.8065 40.0429H12.5607L13.4334 51.1246L13.4342 53.4205Z" fill="#41193E"/>
<path d="M21.6499 62.8156H7.42871V56.4507H21.6499V57.3585L20.7916 59.6384L21.6499 61.9184V62.8156Z" fill="#25BBA4"/>
<path d="M10.917 56.4507H7.42871V62.8156H10.917V56.4507Z" fill="#129D88"/>
<path d="M21.6499 53.5898H7.42871V56.4502H21.6499V53.5898Z" fill="#25BBA4"/>
<path d="M12.1151 53.5898H7.42871V56.4502H12.1151V53.5898Z" fill="#25BBA4"/>
<path d="M21.6475 57.3584H14.5371V61.9183H21.6475V57.3584Z" fill="#25BBA4"/>
<path d="M22.5476 62.902H8.20215V53.4209H22.5476V62.902ZM8.37382 62.7303H22.3759V53.5926H8.37382V62.7303Z" fill="#41193E"/>
<path d="M10.9802 49.5036C11.1547 49.5036 11.2962 48.8828 11.2962 48.1171C11.2962 47.3513 11.1547 46.7305 10.9802 46.7305C10.8056 46.7305 10.6641 47.3513 10.6641 48.1171C10.6641 48.8828 10.8056 49.5036 10.9802 49.5036Z" fill="#25BBA4"/>
<path d="M10.9802 53.4094C11.1547 53.4094 11.2962 52.7886 11.2962 52.0228C11.2962 51.257 11.1547 50.6362 10.9802 50.6362C10.8056 50.6362 10.6641 51.257 10.6641 52.0228C10.6641 52.7886 10.8056 53.4094 10.9802 53.4094Z" fill="#25BBA4"/>
<path d="M12.9335 50.3875C13.6992 50.3875 14.32 50.246 14.32 50.0715C14.32 49.8969 13.6992 49.7554 12.9335 49.7554C12.1677 49.7554 11.5469 49.8969 11.5469 50.0715C11.5469 50.246 12.1677 50.3875 12.9335 50.3875Z" fill="#25BBA4"/>
<path d="M9.0233 50.3875C9.78909 50.3875 10.4099 50.246 10.4099 50.0715C10.4099 49.8969 9.78909 49.7554 9.0233 49.7554C8.25751 49.7554 7.63672 49.8969 7.63672 50.0715C7.63672 50.246 8.25751 50.3875 9.0233 50.3875Z" fill="#25BBA4"/>
<path d="M12.5837 48.9138C13.1252 48.3723 13.4641 47.8333 13.3407 47.7098C13.2172 47.5864 12.6782 47.9253 12.1367 48.4668C11.5952 49.0083 11.2563 49.5473 11.3798 49.6708C11.5032 49.7942 12.0422 49.4553 12.5837 48.9138Z" fill="#25BBA4"/>
<path d="M9.81837 51.6771C9.27612 52.2182 8.73815 52.5573 8.61436 52.4339C8.49057 52.3105 8.82963 51.7721 9.3711 51.2303C9.91258 50.6884 10.4517 50.3497 10.5751 50.4731C10.6985 50.5965 10.3598 51.1376 9.81837 51.6771Z" fill="#25BBA4"/>
<path d="M12.1372 51.6771C11.5957 51.1376 11.2567 50.5965 11.3812 50.4731C11.5058 50.3497 12.043 50.6888 12.5853 51.2302C13.1275 51.7717 13.4654 52.3105 13.342 52.4339C13.2186 52.5573 12.6787 52.2182 12.1372 51.6771Z" fill="#25BBA4"/>
<path d="M10.5799 49.6695C10.7034 49.5461 10.3645 49.0071 9.82298 48.4656C9.28149 47.9241 8.74246 47.5852 8.61902 47.7086C8.49558 47.8321 8.83448 48.3711 9.37597 48.9126C9.91746 49.4541 10.4565 49.793 10.5799 49.6695Z" fill="#25BBA4"/>
<path d="M11.4775 51.9848C11.1688 51.2841 11.0493 50.6612 11.2074 50.5888C11.3654 50.5164 11.7469 51.0295 12.056 51.7298C12.3651 52.4301 12.4842 53.0557 12.3261 53.1261C12.1681 53.1966 11.7866 52.6855 11.4775 51.9848Z" fill="#25BBA4"/>
<path d="M9.89941 48.412C9.59072 47.7113 9.47121 47.0885 9.62926 47.0161C9.7873 46.9437 10.1688 47.4567 10.4779 48.157C10.7869 48.8573 10.9061 49.4829 10.748 49.5534C10.59 49.6238 10.2085 49.1127 9.89941 48.412Z" fill="#25BBA4"/>
<path d="M9.06298 50.5703C9.76367 50.2616 10.3888 50.1421 10.4593 50.3002C10.5298 50.4582 10.0175 50.8397 9.31679 51.1488C8.6161 51.4578 7.99327 51.577 7.92086 51.4189C7.84846 51.2609 8.36268 50.8794 9.06298 50.5703Z" fill="#25BBA4"/>
<path d="M12.6396 48.9966C13.3403 48.6879 13.9655 48.5684 14.0359 48.7264C14.1064 48.8845 13.5953 49.266 12.8946 49.575C12.1939 49.8841 11.5691 50.0032 11.4987 49.8452C11.4282 49.6871 11.9393 49.3041 12.6396 48.9966Z" fill="#25BBA4"/>
<path d="M10.5656 52.0098C10.8427 51.2959 10.9353 50.6659 10.7726 50.6028C10.6098 50.5396 10.2533 51.0672 9.97626 51.7811C9.6992 52.495 9.60654 53.1249 9.76929 53.1881C9.93203 53.2512 10.2886 52.7237 10.5656 52.0098Z" fill="#25BBA4"/>
<path d="M11.9797 48.3667C12.2567 47.6528 12.3494 47.0229 12.1866 46.9597C12.0239 46.8966 11.6674 47.4241 11.3903 48.138C11.1133 48.8519 11.0206 49.4819 11.1833 49.545C11.3461 49.6082 11.7026 49.0806 11.9797 48.3667Z" fill="#25BBA4"/>
<path d="M9.27326 49.071C9.98719 49.3478 10.5146 49.7043 10.4516 49.8671C10.3885 50.0298 9.75829 49.9367 9.04476 49.66C8.33123 49.3832 7.80338 49.0266 7.86644 48.8639C7.9295 48.7012 8.55934 48.7938 9.27326 49.071Z" fill="#25BBA4"/>
<path d="M12.9149 50.4831C13.6288 50.7599 14.1563 51.1165 14.0932 51.2792C14.0301 51.4419 13.4003 51.3492 12.6864 51.0721C11.9724 50.7949 11.445 50.4387 11.508 50.276C11.5711 50.1133 12.2009 50.2059 12.9149 50.4831Z" fill="#25BBA4"/>
<path d="M10.9775 50.9281C11.4515 50.9281 11.8358 50.5438 11.8358 50.0698C11.8358 49.5957 11.4515 49.2114 10.9775 49.2114C10.5034 49.2114 10.1191 49.5957 10.1191 50.0698C10.1191 50.5438 10.5034 50.9281 10.9775 50.9281Z" fill="#25BBA4"/>
<path d="M34.207 43.4256C27.8502 39.4586 25.9272 29.3044 31.0539 23.0874C34.7263 18.633 41.6475 16.6496 47.3671 19.6061C52.739 22.3836 55.04 28.4788 54.2182 33.7452C53.1851 40.3745 47.5352 43.5802 46.8221 43.9686C46.012 44.3015 39.6194 46.8037 34.207 43.4256Z" fill="#41193E"/>
<path d="M33.7838 42.798C33.7723 42.7981 33.7608 42.7958 33.7502 42.7913C33.7396 42.7868 33.7299 42.7802 33.7219 42.7719C31.1161 40.0902 29.2866 36.9924 28.4239 33.814C27.5566 30.6092 27.7384 27.5386 28.9494 24.9348C30.4345 21.7427 33.7375 18.7014 36.9852 17.5386C38.6271 16.9508 40.0787 16.9205 41.1831 17.4507C42.1792 17.9291 42.9394 18.9388 43.4408 20.4523C43.4444 20.463 43.4458 20.4743 43.445 20.4855C43.4442 20.4967 43.4412 20.5077 43.4361 20.5178C43.4311 20.5278 43.4241 20.5368 43.4156 20.5442C43.4071 20.5516 43.3972 20.5572 43.3865 20.5607C43.3758 20.5643 43.3646 20.5657 43.3533 20.5649C43.3421 20.5641 43.3311 20.5611 43.3211 20.556C43.311 20.551 43.302 20.544 43.2947 20.5355C43.2873 20.527 43.2817 20.5171 43.2781 20.5064C42.7904 19.0389 42.0597 18.0626 41.1071 17.6056C40.0448 17.0952 38.6392 17.1283 37.0416 17.7006C33.8363 18.8493 30.5711 21.8537 29.1052 25.0076C26.666 30.2518 28.5263 37.1777 33.8453 42.6524C33.861 42.6688 33.8696 42.6908 33.8693 42.7135C33.8689 42.7363 33.8596 42.758 33.8434 42.7739C33.8275 42.7894 33.8061 42.7981 33.7838 42.798Z" fill="#41193E"/>
<path d="M48.7325 18.4671C51.1484 16.0512 51.1484 12.1343 48.7325 9.7184C46.3166 7.30251 42.3996 7.30251 39.9837 9.71841C37.5678 12.1343 37.5678 16.0512 39.9837 18.4671C42.3996 20.883 46.3166 20.883 48.7325 18.4671Z" fill="#41193E"/>
<path d="M45.1467 19.6621C43.876 19.6632 42.635 19.2783 41.588 18.5582C40.541 17.8381 39.7376 16.817 39.2841 15.63C38.8305 14.443 38.7484 13.1462 39.0484 11.9114C39.3485 10.6767 40.0167 9.56227 40.9644 8.71581C43.5433 6.41133 47.5162 6.63477 49.8203 9.21408C50.6278 10.1159 51.1569 11.2323 51.3436 12.4284C51.5302 13.6244 51.3665 14.8489 50.8723 15.9539C50.378 17.059 49.5742 17.9972 48.5582 18.6552C47.5421 19.3133 46.3572 19.663 45.1467 19.6621ZM45.1401 7.29498C43.7445 7.2966 42.3917 7.77696 41.3077 8.65584C40.2236 9.53473 39.4739 10.7589 39.1837 12.124C38.8935 13.4891 39.0804 14.9124 39.7132 16.1562C40.346 17.4001 41.3864 18.3892 42.6606 18.9584C43.9349 19.5276 45.3658 19.6424 46.7145 19.2836C48.0632 18.9248 49.2479 18.1142 50.0709 16.9872C50.8939 15.8601 51.3054 14.4848 51.2365 13.0909C51.1677 11.6971 50.6227 10.369 49.6926 9.32853C49.1208 8.68682 48.4193 8.17375 47.6346 7.8232C46.8498 7.47266 45.9996 7.29262 45.1401 7.29498Z" fill="#2D0D2D"/>
<path d="M43.6139 19.2072C43.494 19.2072 43.3741 19.2041 43.2535 19.1971C42.4307 19.1532 41.6248 18.9465 40.8825 18.5889C40.1402 18.2314 39.4763 17.7301 38.9291 17.1141C36.6246 14.5352 36.8484 10.5623 39.4273 8.25823C42.0062 5.95413 45.9795 6.17563 48.2852 8.7561C50.5908 11.3366 50.3658 15.3079 47.7869 17.6124C46.641 18.6417 45.1543 19.2099 43.6139 19.2072ZM43.603 6.83739C42.1046 6.83482 40.6581 7.38635 39.5418 8.38591C37.0333 10.6269 36.8169 14.4912 39.0571 16.9997C40.1351 18.2062 41.6483 18.935 43.2636 19.0259C44.879 19.1168 46.4644 18.5623 47.6709 17.4843C50.1794 15.2429 50.3958 11.379 48.1556 8.87055C47.5832 8.2295 46.8817 7.7169 46.097 7.36647C45.3123 7.01604 44.4624 6.83572 43.603 6.83739Z" fill="#2D0D2D"/>
<path d="M40.9646 76.3217C50.9809 76.3217 60.0311 72.1872 66.5008 65.5318C59.0268 62.1331 48.3958 56.7589 48.3958 56.7589L47.7761 44.1465L32.9339 44.8351L33.5622 57.4331C33.5622 57.4331 22.8378 61.8797 14.9014 64.9806C21.4037 71.9579 30.6746 76.3217 40.9646 76.3217Z" fill="#25BBA4"/>
<path d="M50.2472 38.7585L39.9424 19.4581L39.9813 19.4133C40.9852 18.2926 43.1484 17.4962 44.9044 17.6005C49.7524 17.8882 54.0955 22.4496 54.5856 27.7682C55.1761 34.1569 51.8595 37.4895 50.4064 38.6258C50.3698 38.6546 50.3433 38.6752 50.3285 38.6881L50.2472 38.7585ZM40.1503 19.4838L50.2989 38.4915C51.7299 37.3727 54.9955 34.0892 54.4143 27.7865C53.9316 22.5485 49.6609 18.0571 44.8939 17.7741C43.208 17.6713 41.1406 18.4207 40.1503 19.4838Z" fill="#2D0D2D"/>
<path d="M52.3436 35.6183C52.0512 41.8221 48.3645 51.4885 40.354 51.1112C32.3436 50.734 29.5849 40.7637 29.8772 34.5599C30.1696 28.356 35.4854 25.1921 41.6896 25.4844C47.8938 25.7767 52.6359 29.416 52.3436 35.6183Z" fill="#25BBA4"/>
<path d="M37.7765 37.0231C37.7812 36.4145 37.4417 35.9184 37.0181 35.9152C36.5946 35.9119 36.2475 36.4027 36.2428 37.0113C36.2382 37.6199 36.5777 38.1159 37.0012 38.1192C37.4247 38.1224 37.7718 37.6317 37.7765 37.0231Z" fill="#41193E"/>
<path d="M35.666 33.7353C35.6538 33.7352 35.6417 33.7326 35.6306 33.7276C35.6194 33.7225 35.6095 33.7152 35.6014 33.7061C35.5939 33.6976 35.5882 33.6877 35.5846 33.677C35.581 33.6663 35.5795 33.655 35.5803 33.6437C35.581 33.6324 35.584 33.6214 35.589 33.6112C35.594 33.6011 35.601 33.5921 35.6095 33.5846C35.8131 33.4059 36.0437 33.2606 36.2927 33.1541C37.218 32.759 37.9385 33.1409 38.0736 33.2211C38.0918 33.2334 38.1046 33.2522 38.1094 33.2736C38.1141 33.295 38.1105 33.3175 38.0993 33.3364C38.088 33.3552 38.07 33.3691 38.0489 33.3751C38.0277 33.3811 38.0051 33.3787 37.9856 33.3686C37.863 33.2954 37.2071 32.9497 36.36 33.3118C36.1282 33.4118 35.9135 33.5478 35.724 33.7147C35.708 33.7287 35.6872 33.736 35.666 33.7353Z" fill="#41193E"/>
<path d="M45.4522 37.0102C45.475 36.4132 45.1567 35.9164 44.7412 35.9005C44.3257 35.8846 43.9704 36.3557 43.9476 36.9527C43.9248 37.5497 44.2431 38.0466 44.6586 38.0625C45.074 38.0783 45.4294 37.6073 45.4522 37.0102Z" fill="#41193E"/>
<path d="M46.1678 33.8283C46.1457 33.8283 46.1245 33.8196 46.1086 33.8042C45.9304 33.6322 45.7263 33.4892 45.5037 33.3807C44.6862 32.9875 44.0315 33.2974 43.9077 33.3631C43.8977 33.3693 43.8865 33.3734 43.8749 33.3751C43.8633 33.3768 43.8514 33.3761 43.84 33.3731C43.8287 33.37 43.8181 33.3647 43.8089 33.3574C43.7997 33.3501 43.7921 33.3409 43.7865 33.3306C43.781 33.3202 43.7776 33.3088 43.7767 33.2971C43.7757 33.2854 43.7771 33.2736 43.7809 33.2624C43.7847 33.2513 43.7907 33.2411 43.7985 33.2323C43.8064 33.2236 43.816 33.2166 43.8267 33.2117C43.9626 33.1389 44.687 32.7968 45.5784 33.2261C45.8174 33.3424 46.0365 33.4958 46.2277 33.6804C46.24 33.6923 46.2485 33.7076 46.2521 33.7244C46.2557 33.7411 46.2542 33.7585 46.2478 33.7744C46.2414 33.7903 46.2304 33.8039 46.2162 33.8135C46.202 33.8231 46.1853 33.8283 46.1682 33.8283H46.1678Z" fill="#41193E"/>
<path d="M43.7036 24.7368C44.1034 25.3643 43.5981 26.4971 43.0197 27.1309C41.5346 28.758 38.1402 27.9974 35.23 29.1827C31.1995 30.8243 29.498 35.4313 29.2936 35.297C28.8265 34.9906 29.6498 31.2345 31.8017 28.7728C35.6325 24.3881 42.6923 23.151 43.7036 24.7368Z" fill="#41193E"/>
<path d="M28.8549 35.5315C28.8332 35.531 28.8122 35.5241 28.7945 35.5116C28.7248 35.4657 28.6816 35.3859 28.6665 35.2742C28.5575 34.4758 29.8751 31.8957 31.7366 29.7656C34.8119 26.2493 39.7556 24.8764 42.1325 25.0554C42.962 25.1181 43.53 25.3544 43.7756 25.7398C44.2209 26.4381 43.6253 27.6429 43.0827 28.2377C42.222 29.1817 40.7825 29.3374 39.1156 29.5184C37.8381 29.657 36.5169 29.8006 35.2619 30.3117C32.2843 31.5251 30.3672 33.8335 29.4465 34.9429C29.0958 35.3656 28.9584 35.5315 28.8549 35.5315ZM41.6953 25.2111C39.2281 25.2111 34.7274 26.6036 31.8659 29.8781C29.9094 32.1164 28.747 34.5937 28.8366 35.25C28.8396 35.2825 28.8494 35.3139 28.8654 35.3423C28.9432 35.2788 29.1246 35.0612 29.3146 34.8327C30.2442 33.7124 32.1785 31.3815 35.1969 30.1521C36.4744 29.6317 37.8676 29.4807 39.097 29.3471C40.7292 29.17 42.1387 29.017 42.9558 28.1221C43.4829 27.5468 44.0103 26.4284 43.6308 25.834C43.4186 25.5011 42.8818 25.2859 42.1196 25.2283C41.9861 25.217 41.8444 25.2111 41.6953 25.2111Z" fill="#41193E"/>
<path d="M28.1164 32.3057C30.1219 25.4977 34.8196 21.0507 41.7191 21.4061C49.2433 21.7954 53.4669 27.8139 54.2886 32.6949C54.5163 34.7012 53.6767 36.6106 52.3423 35.6184C51.408 30.0981 47.6212 26.3817 42.3357 25.7367C36.4102 25.0115 31.2247 29.181 29.5777 35.296C28.7112 34.7413 27.993 34.5401 28.1164 32.3057Z" fill="#25BBA4"/>
<path d="M49.7494 38.0605C48.5703 40.4132 48.8856 42.9579 50.4544 43.7438C52.0232 44.5298 54.2502 43.26 55.4293 40.9072C56.6084 38.5545 56.2927 36.0098 54.7243 35.2239C53.1559 34.4379 50.9285 35.7077 49.7494 38.0605Z" fill="#25BBA4"/>
<path d="M52.8551 41.7326C52.8362 41.7325 52.8179 41.7262 52.803 41.7147C52.788 41.7032 52.7773 41.687 52.7724 41.6688C52.7676 41.6506 52.7688 41.6312 52.776 41.6138C52.7832 41.5963 52.796 41.5817 52.8123 41.5722C53.3032 41.2924 53.7384 40.8093 54.0377 40.2121C54.65 38.9906 54.497 37.6706 53.6967 37.2696C53.6194 37.231 53.5377 37.2017 53.4534 37.1824C53.4322 37.1764 53.4141 37.1624 53.4028 37.1434C53.3916 37.1243 53.3882 37.1017 53.3932 37.0802C53.3982 37.0587 53.4113 37.0399 53.4297 37.0278C53.4482 37.0157 53.4706 37.0111 53.4923 37.0151C53.5901 37.0374 53.6849 37.0714 53.7746 37.1163C54.6594 37.5596 54.8466 38.9828 54.1919 40.2888C53.8777 40.9159 53.4184 41.4247 52.8983 41.7213C52.8851 41.7287 52.8702 41.7326 52.8551 41.7326Z" fill="#41193E"/>
<path d="M30.9353 42.8298C32.5708 42.1948 33.1245 39.6912 32.172 37.238C31.2195 34.7847 29.1214 33.3108 27.4859 33.9458C25.8503 34.5809 25.2966 37.0844 26.2491 39.5377C27.2017 41.9909 29.2997 43.4649 30.9353 42.8298Z" fill="#25BBA4"/>
<path d="M28.8428 40.6023C28.8252 40.6023 28.8081 40.5969 28.7937 40.5868C28.3036 40.2426 27.8941 39.6914 27.6403 39.039C27.3865 38.3866 27.3176 37.703 27.4457 37.1184C27.5776 36.5216 27.9 36.0957 28.3531 35.9198C28.4466 35.8835 28.5441 35.8586 28.6435 35.8454C28.6546 35.844 28.666 35.8447 28.6769 35.8477C28.6877 35.8506 28.6979 35.8556 28.7069 35.8625C28.7158 35.8694 28.7233 35.8779 28.7289 35.8877C28.7345 35.8975 28.7382 35.9082 28.7396 35.9194C28.7411 35.9306 28.7403 35.9419 28.7374 35.9528C28.7345 35.9637 28.7294 35.9739 28.7226 35.9828C28.7157 35.9917 28.7071 35.9992 28.6974 36.0048C28.6876 36.0105 28.6768 36.0141 28.6657 36.0156C28.5799 36.0271 28.4957 36.0486 28.415 36.0798C28.0171 36.2355 27.7326 36.6162 27.6131 37.1557C27.4912 37.7073 27.5574 38.3543 27.7991 38.9767C28.0409 39.5992 28.4317 40.1208 28.8922 40.4462C28.9071 40.4567 28.9183 40.4717 28.9241 40.4889C28.9299 40.5062 28.9301 40.5249 28.9246 40.5422C28.9191 40.5596 28.9082 40.5747 28.8935 40.5855C28.8788 40.5962 28.861 40.602 28.8428 40.6019V40.6023Z" fill="#41193E"/>
<path d="M51.0526 42.1006C51.0429 42.1004 51.0333 42.0987 51.0241 42.0955C51.0027 42.0879 50.9851 42.072 50.9753 42.0515C50.9654 42.0309 50.9641 42.0073 50.9716 41.9858C51.5639 40.3109 51.9632 38.5739 52.1616 36.8085C52.1649 36.7865 52.1766 36.7667 52.1942 36.7532C52.2118 36.7397 52.2339 36.7334 52.256 36.7359C52.2781 36.7383 52.2983 36.7491 52.3126 36.7661C52.3269 36.7831 52.334 36.805 52.3325 36.8272C52.1324 38.6058 51.7302 40.3559 51.1335 42.0434C51.1276 42.0601 51.1166 42.0746 51.1021 42.0848C51.0876 42.0951 51.0703 42.1006 51.0526 42.1006Z" fill="#41193E"/>
<path d="M30.7188 41.7298C30.7001 41.7297 30.682 41.7235 30.6671 41.7122C30.6522 41.7009 30.6414 41.6851 30.6363 41.6671C30.0621 39.6254 29.7554 37.3621 29.7721 35.2947C29.7722 35.2721 29.7813 35.2504 29.7974 35.2344C29.8134 35.2184 29.8351 35.2095 29.8578 35.2095C29.8691 35.2095 29.8802 35.2118 29.8906 35.2162C29.901 35.2206 29.9104 35.2269 29.9184 35.235C29.9263 35.243 29.9325 35.2525 29.9368 35.263C29.941 35.2734 29.9431 35.2846 29.943 35.2959C29.9263 37.3477 30.2311 39.5938 30.7994 41.6208C30.8025 41.6316 30.8034 41.6429 30.8021 41.654C30.8008 41.6652 30.7973 41.676 30.7918 41.6858C30.7863 41.6956 30.7789 41.7042 30.7701 41.7112C30.7612 41.7181 30.7511 41.7232 30.7403 41.7263C30.7333 41.7284 30.7261 41.7296 30.7188 41.7298Z" fill="#41193E"/>
<path d="M40.7383 51.4035C40.5986 51.4035 40.4585 51.3996 40.3168 51.3907C37.247 51.2038 34.8931 49.043 33.1849 47.1811C33.1773 47.1728 33.1713 47.1631 33.1674 47.1524C33.1635 47.1418 33.1617 47.1306 33.1622 47.1193C33.1626 47.108 33.1653 47.0969 33.17 47.0866C33.1748 47.0763 33.1815 47.0671 33.1898 47.0595C33.1981 47.0518 33.2078 47.0458 33.2185 47.0419C33.2291 47.038 33.2403 47.0362 33.2516 47.0367C33.2629 47.0371 33.274 47.0398 33.2843 47.0446C33.2946 47.0493 33.3038 47.056 33.3115 47.0643C35.1021 49.0165 37.3361 51.0349 40.3269 51.2186C43.3243 51.4008 45.8261 49.5447 47.6697 47.9098C47.6869 47.8962 47.7087 47.8896 47.7306 47.8915C47.7525 47.8935 47.7729 47.9037 47.7875 47.9201C47.802 47.9366 47.8098 47.958 47.8091 47.9799C47.8084 48.0019 47.7994 48.0228 47.7838 48.0383C46.0017 49.6195 43.6127 51.4035 40.7383 51.4035Z" fill="#41193E"/>
<path d="M40.9768 42.7963C40.9571 42.7969 40.9379 42.7907 40.9222 42.7787C40.9066 42.7667 40.8956 42.7498 40.891 42.7306C40.8864 42.7115 40.8886 42.6913 40.8971 42.6736C40.9057 42.6559 40.9201 42.6416 40.9379 42.6332C41.4505 42.3896 41.7425 42.1069 41.8048 41.7924C41.8569 41.5339 41.7476 41.3253 41.5957 41.0411C41.479 40.8212 41.3462 40.572 41.2551 40.2353C41.1216 39.7433 41.1189 39.2158 41.2473 38.6673C41.2525 38.6452 41.2663 38.626 41.2856 38.614C41.3049 38.602 41.3282 38.5982 41.3503 38.6033C41.3725 38.6085 41.3916 38.6222 41.4036 38.6415C41.4157 38.6608 41.4195 38.6841 41.4143 38.7063C41.2925 39.2271 41.2948 39.7262 41.4206 40.1906C41.507 40.5086 41.6347 40.7488 41.7472 40.9605C41.9029 41.2541 42.0376 41.5075 41.9729 41.8263C41.8986 42.1961 41.5755 42.5196 41.0138 42.7878C41.0022 42.7932 40.9896 42.7962 40.9768 42.7963Z" fill="#41193E"/>
<path d="M40.2258 45.2581C39.6348 45.2581 39.019 44.9466 38.6383 44.4468C38.3981 44.1389 38.2618 43.7627 38.249 43.3724C38.2488 43.3612 38.2508 43.35 38.255 43.3395C38.2591 43.3291 38.2652 43.3195 38.273 43.3114C38.2808 43.3033 38.2902 43.2968 38.3005 43.2923C38.3108 43.2878 38.3219 43.2854 38.3331 43.2852C38.3445 43.2848 38.3558 43.2866 38.3664 43.2906C38.377 43.2946 38.3867 43.3007 38.3949 43.3086C38.403 43.3164 38.4095 43.3259 38.414 43.3363C38.4184 43.3467 38.4207 43.358 38.4207 43.3693C38.4326 43.723 38.5565 44.0638 38.7746 44.3425C39.1447 44.826 39.7477 45.1171 40.3126 45.0821C40.3353 45.0808 40.3576 45.0885 40.3746 45.1036C40.3916 45.1187 40.4019 45.14 40.4033 45.1627C40.4046 45.1854 40.3969 45.2077 40.3818 45.2247C40.3666 45.2417 40.3454 45.252 40.3227 45.2534C40.2888 45.2581 40.2565 45.2581 40.2258 45.2581Z" fill="#41193E"/>
<path d="M50.2933 36.2974C48.9775 36.0019 48.5552 37.5084 47.1635 37.9712C45.135 38.647 43.3409 37.9089 43.1089 38.4714C42.8535 39.0911 44.3674 40.9752 47.1573 41.0219C47.7708 41.0321 49.7436 40.8273 50.7456 39.3893C51.4521 38.378 51.4654 36.5605 50.2933 36.2974Z" fill="#D3DEE3"/>
<path d="M68.7188 68.5331C68.408 68.8042 68.0022 68.9409 67.5907 68.9131C67.1792 68.8854 66.7954 68.6955 66.5237 68.3851L60.485 61.4725C60.4267 61.4058 60.3821 61.3283 60.3538 61.2444C60.3254 61.1605 60.3139 61.0718 60.3199 60.9835C60.3259 60.8951 60.3492 60.8088 60.3885 60.7295C60.4279 60.6501 60.4825 60.5793 60.5492 60.5211L61.8766 59.3615C61.9433 59.3032 62.0208 59.2586 62.1047 59.2302C62.1886 59.2019 62.2773 59.1904 62.3656 59.1964C62.454 59.2023 62.5403 59.2256 62.6197 59.265C62.699 59.3043 62.7698 59.3589 62.828 59.4257L68.8672 66.338C69.1382 66.6489 69.2749 67.0546 69.2471 67.4662C69.2192 67.8777 69.0293 68.2614 68.7188 68.5331Z" fill="#25BBA4"/>
<path d="M58.6115 55.6226L61.8814 59.3654L60.5516 60.527L57.3066 56.8126L58.6115 55.6226Z" fill="#25BBA4"/>
<path d="M67.6961 69.0037C67.4617 69.0041 67.2299 68.9542 67.0165 68.8575C66.803 68.7607 66.6127 68.6193 66.4586 68.4427L60.4198 61.5297C60.2874 61.3778 60.2206 61.1795 60.2342 60.9785C60.2477 60.7774 60.3405 60.5899 60.4922 60.4572L61.8196 59.2976C61.9714 59.165 62.1697 59.0981 62.3708 59.1116C62.5719 59.1251 62.7594 59.2179 62.8921 59.3696L68.9312 66.2823C69.1387 66.5195 69.2735 66.8115 69.3195 67.1234C69.3654 67.4352 69.3205 67.7537 69.1903 68.0407C69.06 68.3277 68.8498 68.5711 68.5848 68.7418C68.3198 68.9125 68.0113 69.0033 67.6961 69.0033V69.0037ZM62.3191 59.2816C62.1768 59.2814 62.0393 59.3332 61.9325 59.4272L60.6051 60.5869C60.4877 60.6896 60.4158 60.8347 60.4053 60.9904C60.3948 61.1461 60.4465 61.2996 60.5491 61.4172L66.5878 68.3298C66.8443 68.6234 67.207 68.8031 67.5959 68.8294C67.9849 68.8556 68.3684 68.7263 68.662 68.4698C68.9557 68.2133 69.1354 67.8506 69.1616 67.4616C69.1878 67.0727 69.0585 66.6892 68.802 66.3955L62.7628 59.4833C62.7122 59.4249 62.6505 59.3771 62.5813 59.3428C62.512 59.3085 62.4367 59.2882 62.3596 59.2832C62.3459 59.2805 62.3323 59.2801 62.3191 59.2801V59.2816Z" fill="#41193E"/>
<path d="M60.5433 60.6484L57.2419 56.8694C57.2269 56.8522 57.2194 56.8298 57.2209 56.8071C57.2224 56.7844 57.2329 56.7633 57.2501 56.7483C57.2672 56.7333 57.2896 56.7258 57.3123 56.7273C57.335 56.7288 57.3561 56.7393 57.3711 56.7565L60.5596 60.4063L61.7601 59.3576L58.5467 55.6794C58.5393 55.6709 58.5336 55.661 58.53 55.6503C58.5264 55.6397 58.525 55.6284 58.5257 55.6171C58.5265 55.6059 58.5295 55.5949 58.5345 55.5848C58.5395 55.5747 58.5464 55.5657 58.5549 55.5583C58.5634 55.5509 58.5732 55.5452 58.5839 55.5416C58.5946 55.538 58.6059 55.5365 58.6171 55.5373C58.6284 55.5381 58.6393 55.541 58.6494 55.546C58.6595 55.551 58.6685 55.558 58.676 55.5665L62.0023 59.3739L60.5433 60.6484Z" fill="#41193E"/>
<path d="M52.7266 58.5364C51.3802 58.7389 50.0065 58.6636 48.6903 58.3151C47.3741 57.9666 46.1432 57.3522 45.0735 56.5099C40.7304 53.0979 39.9741 46.8112 43.3876 42.4685C46.8011 38.1258 53.0859 37.3702 57.4301 40.7822C61.7744 44.1941 62.5296 50.4804 59.1161 54.8235C57.5408 56.8343 55.2535 58.1634 52.7266 58.5364Z" fill="#25BBA4"/>
<path d="M59.4674 50.3828C59.1373 51.9395 58.3719 53.3704 57.2604 54.509C56.1488 55.6477 54.7367 56.4473 53.1885 56.8147L59.4674 50.3828Z" fill="#25BBA4"/>
<path d="M49.9678 40.3497C51.5069 40.1103 53.0823 40.304 54.5176 40.9091L49.9678 40.3497Z" fill="#25BBA4"/>
<path d="M43.0771 46.7308C43.3995 45.3596 44.0612 44.0914 45.0016 43.0427C45.9419 41.9939 47.1307 41.1984 48.4588 40.729L43.0771 46.7308Z" fill="#25BBA4"/>
<path d="M52.1413 56.9918C50.9378 57.1208 49.7206 56.988 48.5732 56.6025L52.1413 56.9918Z" fill="#25BBA4"/>
<path d="M51.224 58.7343C48.9822 58.7343 46.8252 57.9911 45.0241 56.5769C40.6506 53.1412 39.8857 46.7883 43.3234 42.4149C46.761 38.0414 53.1127 37.2784 57.4854 40.7141C59.0344 41.9314 60.1931 43.5757 60.8183 45.444C61.4435 47.3122 61.5079 49.3227 61.0035 51.2271C60.4991 53.1316 59.448 54.8466 57.98 56.1605C56.512 57.4744 54.6914 58.3296 52.7429 58.6206C52.2401 58.6958 51.7324 58.7338 51.224 58.7343ZM51.2653 38.7355C48.3243 38.7355 45.4118 40.0345 43.4584 42.5211C40.0811 46.8198 40.8312 53.0649 45.13 56.4418C46.1886 57.2803 47.4087 57.8915 48.7142 58.2372C50.0196 58.583 51.3824 58.6558 52.7172 58.4513C55.1922 58.0838 57.4367 56.794 59.0002 54.8405C60.5636 52.887 61.3304 50.4145 61.1467 47.9191C60.9629 45.4237 59.8421 43.0902 58.0094 41.3869C56.1766 39.6835 53.7674 38.7363 51.2653 38.7355Z" fill="#41193E"/>
<path d="M53.187 56.8989C53.1662 56.8986 53.1462 56.8906 53.1308 56.8767C53.1154 56.8627 53.1055 56.8436 53.1031 56.8229C53.1007 56.8023 53.1059 56.7814 53.1176 56.7643C53.1294 56.7471 53.147 56.7348 53.1671 56.7296C54.6994 56.3659 56.0968 55.5745 57.1968 54.4475C58.2968 53.3206 59.0541 51.9044 59.3807 50.3639C59.3824 50.3523 59.3865 50.3412 59.3927 50.3312C59.3988 50.3213 59.407 50.3127 59.4166 50.306C59.4262 50.2993 59.4371 50.2946 59.4485 50.2923C59.46 50.2899 59.4718 50.2899 59.4833 50.2923C59.4948 50.2947 59.5056 50.2994 59.5152 50.3062C59.5248 50.3129 59.5329 50.3215 59.539 50.3315C59.5452 50.3415 59.5492 50.3526 59.5509 50.3642C59.5526 50.3758 59.5519 50.3876 59.5488 50.3989C59.2155 51.9712 58.4427 53.4166 57.3202 54.5669C56.1977 55.7172 54.7717 56.5252 53.208 56.897C53.2011 56.8985 53.1941 56.8991 53.187 56.8989Z" fill="#41193E"/>
<path d="M54.514 40.9956C54.5026 40.9955 54.4912 40.9933 54.4806 40.989C53.0601 40.3896 51.5008 40.1979 49.9775 40.4354C49.966 40.438 49.9541 40.4381 49.9426 40.4358C49.9311 40.4336 49.9201 40.429 49.9104 40.4223C49.9007 40.4157 49.8925 40.4071 49.8862 40.3972C49.88 40.3872 49.8758 40.3761 49.874 40.3645C49.8723 40.3528 49.8729 40.341 49.8759 40.3296C49.8788 40.3182 49.8841 40.3076 49.8914 40.2983C49.8986 40.2891 49.9077 40.2814 49.918 40.2758C49.9283 40.2702 49.9397 40.2668 49.9514 40.2657C51.5064 40.0232 53.0983 40.2188 54.5483 40.8305C54.5665 40.8384 54.5814 40.8522 54.5905 40.8697C54.5997 40.8872 54.6025 40.9073 54.5986 40.9267C54.5947 40.946 54.5842 40.9635 54.569 40.976C54.5537 40.9886 54.5346 40.9955 54.5148 40.9956H54.514Z" fill="#41193E"/>
<path d="M43.0791 46.8149C43.0661 46.8149 43.0534 46.812 43.0417 46.8063C43.0301 46.8007 43.0198 46.7925 43.0118 46.7824C43.0038 46.7722 42.9981 46.7604 42.9953 46.7478C42.9924 46.7351 42.9925 46.722 42.9954 46.7094C43.3211 45.3242 43.9897 44.0431 44.9397 42.9836C45.8897 41.9242 47.0907 41.1204 48.4323 40.6462C48.4429 40.6423 48.4542 40.6407 48.4654 40.6412C48.4767 40.6418 48.4877 40.6446 48.4979 40.6494C48.5081 40.6543 48.5172 40.6611 48.5247 40.6695C48.5322 40.6779 48.538 40.6877 48.5417 40.6983C48.5492 40.7198 48.5479 40.7435 48.538 40.764C48.5282 40.7846 48.5106 40.8004 48.4892 40.8081C47.1748 41.2728 45.9982 42.0603 45.0674 43.0982C44.1367 44.1361 43.4816 45.3913 43.1624 46.7484C43.1581 46.7672 43.1475 46.7841 43.1324 46.7962C43.1172 46.8083 43.0985 46.8149 43.0791 46.8149Z" fill="#41193E"/>
<path d="M51.2579 57.1258C50.3366 57.1263 49.4214 56.9773 48.5478 56.6847C48.5371 56.6812 48.5273 56.6755 48.5188 56.6681C48.5102 56.6607 48.5033 56.6517 48.4983 56.6416C48.4932 56.6316 48.4902 56.6206 48.4895 56.6093C48.4887 56.5981 48.4901 56.5868 48.4937 56.5761C48.4973 56.5654 48.5029 56.5556 48.5103 56.5471C48.5177 56.5386 48.5267 56.5316 48.5368 56.5266C48.5469 56.5216 48.5579 56.5186 48.5691 56.5178C48.5803 56.517 48.5916 56.5184 48.6023 56.522C49.7383 56.9018 50.9426 57.0334 52.1338 56.9078C52.1564 56.9054 52.179 56.912 52.1967 56.9263C52.2144 56.9406 52.2257 56.9613 52.2282 56.9839C52.2306 57.0065 52.2239 57.0291 52.2097 57.0469C52.1954 57.0646 52.1747 57.0759 52.1521 57.0783C51.8551 57.1099 51.5566 57.1257 51.2579 57.1258Z" fill="#41193E"/>
<path d="M49.27 45.1221C49.6549 45.1221 49.9668 44.8101 49.9668 44.4253C49.9668 44.0405 49.6549 43.7285 49.27 43.7285C48.8852 43.7285 48.5732 44.0405 48.5732 44.4253C48.5732 44.8101 48.8852 45.1221 49.27 45.1221Z" fill="#129D88"/>
<path d="M49.27 51.9888C49.6549 51.9888 49.9668 51.6768 49.9668 51.292C49.9668 50.9072 49.6549 50.5952 49.27 50.5952C48.8852 50.5952 48.5732 50.9072 48.5732 51.292C48.5732 51.6768 48.8852 51.9888 49.27 51.9888Z" fill="#129D88"/>
<path d="M54.8482 48.5562C55.233 48.5562 55.545 48.2442 55.545 47.8594C55.545 47.4746 55.233 47.1626 54.8482 47.1626C54.4633 47.1626 54.1514 47.4746 54.1514 47.8594C54.1514 48.2442 54.4633 48.5562 54.8482 48.5562Z" fill="#129D88"/>
<path d="M54.4204 42.5474C54.8053 42.5474 55.1172 42.2354 55.1172 41.8506C55.1172 41.4658 54.8053 41.1538 54.4204 41.1538C54.0356 41.1538 53.7236 41.4658 53.7236 41.8506C53.7236 42.2354 54.0356 42.5474 54.4204 42.5474Z" fill="#129D88"/>
<path d="M54.4204 54.565C54.8053 54.565 55.1172 54.253 55.1172 53.8682C55.1172 53.4834 54.8053 53.1714 54.4204 53.1714C54.0356 53.1714 53.7236 53.4834 53.7236 53.8682C53.7236 54.253 54.0356 54.565 54.4204 54.565Z" fill="#129D88"/>
<path d="M44.1236 48.5562C44.5084 48.5562 44.8203 48.2442 44.8203 47.8594C44.8203 47.4746 44.5084 47.1626 44.1236 47.1626C43.7387 47.1626 43.4268 47.4746 43.4268 47.8594C43.4268 48.2442 43.7387 48.5562 44.1236 48.5562Z" fill="#129D88"/>
<path d="M59.9527 47.4273C60.3375 47.4273 60.6494 47.1153 60.6494 46.7305C60.6494 46.3457 60.3375 46.0337 59.9527 46.0337C59.5678 46.0337 59.2559 46.3457 59.2559 46.7305C59.2559 47.1153 59.5678 47.4273 59.9527 47.4273Z" fill="#129D88"/>
<path d="M44.1236 54.565C44.5084 54.565 44.8203 54.253 44.8203 53.8682C44.8203 53.4834 44.5084 53.1714 44.1236 53.1714C43.7387 53.1714 43.4268 53.4834 43.4268 53.8682C43.4268 54.253 43.7387 54.565 44.1236 54.565Z" fill="#129D88"/>
<path d="M62.5098 48.5637H62.5168C63.0282 48.671 63.4968 48.9263 63.8643 49.2979C64.2318 49.6694 64.482 50.1407 64.5838 50.6533V50.6467C64.6911 50.1352 64.9464 49.6665 65.3179 49.2989C65.6894 48.9313 66.1608 48.6811 66.6734 48.5793H66.6668C66.1553 48.4718 65.6866 48.2165 65.319 47.8449C64.9515 47.4733 64.7012 47.0019 64.5994 46.4893V46.4963C64.4921 47.0078 64.2368 47.4764 63.8653 47.844C63.4938 48.2116 63.0224 48.4619 62.5098 48.5637Z" fill="#25BBA4"/>
<path d="M60.3848 55.2528H60.3914C60.9029 55.3603 61.3716 55.6156 61.7391 55.9872C62.1067 56.3588 62.3569 56.8302 62.4588 57.3428V57.3358C62.5662 56.8244 62.8215 56.3557 63.1931 55.9882C63.5647 55.6207 64.0362 55.3705 64.5488 55.2688H64.5418C64.0303 55.1615 63.5617 54.9062 63.1942 54.5347C62.8267 54.1632 62.5765 53.6918 62.4748 53.1792V53.1858C62.3674 53.6973 62.1121 54.166 61.7405 54.5335C61.3689 54.901 60.8974 55.1512 60.3848 55.2528Z" fill="#25BBA4"/>
<path d="M55.4443 43.4355H55.4494C55.8235 43.5141 56.1663 43.7009 56.4351 43.9727C56.7039 44.2444 56.8869 44.5893 56.9613 44.9642V44.9591C57.0397 44.585 57.2264 44.2423 57.4982 43.9734C57.7699 43.7046 58.1147 43.5216 58.4896 43.4472H58.4845C58.1105 43.3688 57.7678 43.1821 57.499 42.9103C57.2302 42.6386 57.0473 42.2938 56.973 41.9189V41.924C56.8944 42.2981 56.7076 42.6408 56.4358 42.9095C56.1641 43.1783 55.8193 43.3612 55.4443 43.4355Z" fill="#25BBA4"/>
<path d="M32.5915 36.6908C33.8933 36.3405 33.8345 37.6967 35.791 38.2292C37.8541 38.791 39.6058 38.0023 39.8631 38.5543C40.1453 39.1623 38.714 41.1098 35.9284 41.2768C35.316 41.3138 33.3358 41.1928 32.2727 39.8007C31.5238 38.8198 31.4319 37.0054 32.5915 36.6908Z" fill="#D3DEE3"/>
<path d="M25.614 15.7252L22.0576 10.7609L22.9315 8.93945L32.5854 13.5737L31.7115 15.3943L25.614 15.7252ZM22.2561 10.7426L25.6989 15.5473L31.601 15.2281L32.3565 13.6535L23.0141 9.16834L22.2561 10.7426Z" fill="#41193E"/>
<path d="M31.9006 12.8829C31.458 12.1367 30.0733 11.0977 28.2885 10.241C26.4379 9.35264 24.7033 8.92288 23.8765 9.09105L23.4756 9.92603C23.8617 10.6765 25.2818 11.7611 27.1324 12.6509C28.9172 13.5073 30.5942 13.9379 31.4533 13.8164L31.9006 12.8829Z" fill="#129D88"/>
<path d="M24.1968 18.7609C24.1841 18.7608 24.1714 18.758 24.1598 18.7527C24.1396 18.7426 24.1242 18.7249 24.1169 18.7035C24.1096 18.682 24.111 18.6586 24.1209 18.6383L25.5795 15.6019C25.5844 15.5917 25.5912 15.5826 25.5996 15.575C25.608 15.5674 25.6178 15.5615 25.6285 15.5577C25.6391 15.5539 25.6504 15.5523 25.6617 15.5528C25.673 15.5534 25.6841 15.5562 25.6943 15.5611C25.7046 15.5659 25.7137 15.5727 25.7213 15.5811C25.7289 15.5895 25.7348 15.5994 25.7386 15.61C25.7424 15.6207 25.744 15.632 25.7434 15.6433C25.7429 15.6546 25.7401 15.6657 25.7352 15.6759L24.277 18.7142C24.2695 18.7288 24.258 18.741 24.2438 18.7493C24.2295 18.7575 24.2133 18.7616 24.1968 18.7609Z" fill="#41193E"/>
<path d="M20.3333 30.1046L17.6162 28.8002L23.3646 18.2759L24.9497 19.0369L20.3333 30.1046Z" fill="#129D88"/>
<path d="M66.4844 30.3199L62.886 31.9225L59.7637 24.9133L61.1806 23.2632L63.3621 23.3103L66.4844 30.3199Z" fill="#129D88"/>
<path opacity="0.5" d="M70.1808 37.9971L66.1176 39.8068L59.4463 24.8296L61.0505 22.9658L63.5091 23.0195L70.1808 37.9971Z" fill="#25BBA4"/>
<path d="M71.4688 37.413L64.8203 40.3745L65.1814 41.1853L71.8299 38.2238L71.4688 37.413Z" fill="#25BBA4"/>
<path d="M65.4794 30.7666L63.8789 31.4795L69.1482 43.3089L70.7487 42.5959L65.4794 30.7666Z" fill="#25BBA4"/>
<path d="M72.5492 41.4995L67.1318 43.9126L67.6254 45.0206L73.0428 42.6075L72.5492 41.4995Z" fill="#25BBA4"/>
<path d="M60.1222 20.9746C60.1057 20.9745 60.0896 20.9697 60.0758 20.9606C60.0619 20.9516 60.051 20.9387 60.0444 20.9236L56.8084 13.6599C56.8014 13.6396 56.8023 13.6175 56.8108 13.5979C56.8193 13.5783 56.8349 13.5626 56.8544 13.5539C56.8739 13.5451 56.896 13.544 56.9163 13.5507C56.9366 13.5574 56.9536 13.5715 56.9641 13.5902L60.1997 20.854C60.2054 20.867 60.2078 20.8812 60.2067 20.8954C60.2056 20.9096 60.2009 20.9233 60.1932 20.9353C60.1855 20.9472 60.175 20.9571 60.1625 20.9639C60.15 20.9708 60.1361 20.9745 60.1218 20.9746H60.1222Z" fill="#41193E"/>
<path d="M62.0331 23.3554L60.6784 23.9588L59.4199 21.1338L59.7605 20.0762L60.7746 20.5305L62.0331 23.3554Z" fill="#129D88"/>
<path d="M62.7582 24.6031C62.7385 24.6033 62.7193 24.5966 62.7039 24.5842C62.6884 24.5718 62.6778 24.5545 62.6737 24.5351C62.6696 24.5158 62.6724 24.4956 62.6815 24.4781C62.6906 24.4605 62.7054 24.4466 62.7236 24.4388L63.905 23.9125C63.9251 23.9063 63.9467 23.9077 63.9658 23.9163C63.9849 23.925 64.0002 23.9403 64.0089 23.9594C64.0175 23.9786 64.0188 24.0002 64.0126 24.0202C64.0064 24.0402 63.993 24.0573 63.9751 24.0682L62.7933 24.5945C62.7823 24.5998 62.7704 24.6027 62.7582 24.6031Z" fill="#41193E"/>
<path d="M63.6 26.4926C63.5803 26.4927 63.5611 26.4861 63.5456 26.4737C63.5302 26.4613 63.5196 26.444 63.5155 26.4246C63.5114 26.4053 63.5142 26.3851 63.5233 26.3676C63.5324 26.35 63.5472 26.3361 63.5654 26.3283L64.7472 25.802C64.7674 25.7951 64.7895 25.7959 64.8091 25.8044C64.8288 25.813 64.8445 25.8285 64.8532 25.848C64.8619 25.8675 64.8631 25.8896 64.8563 25.9099C64.8496 25.9302 64.8356 25.9473 64.8169 25.9577L63.6351 26.484C63.6241 26.4894 63.6122 26.4923 63.6 26.4926Z" fill="#41193E"/>
<path d="M64.4403 28.3822C64.4205 28.3825 64.4012 28.3759 64.3857 28.3635C64.3702 28.3512 64.3595 28.3338 64.3554 28.3145C64.3513 28.2951 64.354 28.2749 64.3631 28.2573C64.3722 28.2397 64.3871 28.2258 64.4052 28.218L65.5871 27.6917C65.6073 27.6847 65.6294 27.6856 65.649 27.6941C65.6686 27.7026 65.6843 27.7182 65.6931 27.7377C65.7018 27.7572 65.7029 27.7793 65.6962 27.7996C65.6895 27.8199 65.6754 27.8369 65.6568 27.8474L64.4749 28.3737C64.4641 28.379 64.4523 28.3819 64.4403 28.3822Z" fill="#41193E"/>
<path d="M65.2821 30.2719C65.2623 30.2721 65.243 30.2655 65.2275 30.2532C65.212 30.2408 65.2013 30.2235 65.1972 30.2041C65.1931 30.1847 65.1958 30.1645 65.2049 30.1469C65.214 30.1293 65.2289 30.1154 65.247 30.1076L66.4289 29.5813C66.4491 29.5744 66.4712 29.5752 66.4908 29.5837C66.5104 29.5923 66.5261 29.6078 66.5349 29.6273C66.5436 29.6468 66.5447 29.6689 66.538 29.6892C66.5313 29.7095 66.5172 29.7266 66.4985 29.737L65.3171 30.2633C65.3062 30.2686 65.2942 30.2715 65.2821 30.2719Z" fill="#41193E"/>
<path d="M66.1224 32.161C66.1028 32.1609 66.0839 32.154 66.0687 32.1417C66.0536 32.1293 66.0431 32.1121 66.039 32.093C66.0349 32.0738 66.0375 32.0538 66.0463 32.0363C66.0551 32.0189 66.0696 32.0049 66.0874 31.9968L67.2692 31.4705C67.2894 31.4635 67.3115 31.4644 67.3311 31.4729C67.3507 31.4814 67.3665 31.497 67.3752 31.5165C67.3839 31.536 67.3851 31.5581 67.3783 31.5784C67.3716 31.5987 67.3575 31.6157 67.3389 31.6262L66.1575 32.1525C66.1465 32.1578 66.1346 32.1607 66.1224 32.161Z" fill="#41193E"/>
<path d="M66.9623 34.0499C66.9426 34.05 66.9234 34.0434 66.908 34.031C66.8925 34.0186 66.8819 34.0012 66.8778 33.9819C66.8737 33.9626 66.8765 33.9424 66.8856 33.9248C66.8947 33.9073 66.9095 33.8934 66.9277 33.8856L68.1091 33.3593C68.1292 33.3531 68.1508 33.3545 68.1699 33.3631C68.189 33.3717 68.2043 33.3871 68.213 33.4062C68.2216 33.4253 68.2229 33.4469 68.2167 33.467C68.2105 33.487 68.1971 33.5041 68.1792 33.515L66.9974 34.0413C66.9864 34.0466 66.9745 34.0495 66.9623 34.0499Z" fill="#41193E"/>
<path d="M67.8045 35.9384C67.7847 35.9387 67.7655 35.9321 67.75 35.9197C67.7345 35.9074 67.7238 35.89 67.7197 35.8707C67.7155 35.8513 67.7182 35.8311 67.7273 35.8135C67.7364 35.7959 67.7513 35.782 67.7695 35.7742L68.9521 35.2479C68.9625 35.2415 68.9742 35.2375 68.9863 35.236C68.9984 35.2345 69.0106 35.2356 69.0223 35.2392C69.0339 35.2428 69.0447 35.2489 69.0538 35.257C69.0629 35.265 69.0703 35.275 69.0753 35.2861C69.0803 35.2972 69.0828 35.3093 69.0828 35.3214C69.0828 35.3336 69.0802 35.3457 69.0752 35.3568C69.0702 35.3679 69.0629 35.3778 69.0537 35.3859C69.0446 35.394 69.0338 35.4 69.0222 35.4036L67.8403 35.9299C67.8292 35.9353 67.817 35.9383 67.8045 35.9384Z" fill="#41193E"/>
</g>
<defs>
<clipPath id="clip0_1730_69762">
<rect width="71.2365" height="71.2365" fill="white" transform="translate(5.34766 5.08447)"/>
</clipPath>
</defs>
</svg>
