<svg width="20" height="19" viewBox="0 0 20 19" fill="none" xmlns="http://www.w3.org/2000/svg">
<path fill-rule="evenodd" clip-rule="evenodd" d="M10.0006 3.21934C8.77202 3.21934 7.54339 3.55457 6.44773 4.2263L5.10011 1.75309L6.44731 4.22626C5.92157 4.54829 5.42674 4.94753 4.97689 5.42437C4.52908 5.89874 4.15154 6.42306 3.84588 6.98209C3.37315 7.84663 3.07313 8.79287 2.95263 9.76267C2.91206 10.0893 2.89159 10.4179 2.8916 10.7478C2.89079 12.0404 3.20287 13.3413 3.84389 14.518C4.22866 15.2273 3.99812 16.1322 3.32898 16.5397C2.65983 16.9472 1.80555 16.7024 1.42118 15.9935C0.528326 14.3545 0.0937557 12.5445 0.09375 10.7477C0.0941391 10.2899 0.12266 9.83244 0.178892 9.37914C0.347593 8.02207 0.764088 6.70052 1.41825 5.49725L1.41796 5.49706C1.84331 4.71468 2.36905 3.98187 2.9924 3.32131C3.62017 2.65617 4.31058 2.09925 5.04399 1.65009C6.57263 0.71331 8.28643 0.245117 10.0006 0.245117C11.7144 0.245102 13.429 0.713295 14.9573 1.65009C15.6907 2.09928 16.3811 2.6562 17.0089 3.32134C17.6322 3.9819 18.158 4.71471 18.5829 5.49709L18.5833 5.49706C19.2372 6.70054 19.6537 8.02207 19.8224 9.37916C19.879 9.83245 19.9071 10.2899 19.9075 10.7478C19.9079 12.5445 19.4729 14.3545 18.5801 15.9935C18.1957 16.7024 17.3414 16.9472 16.6723 16.5397C16.0032 16.1322 15.7726 15.2273 16.1574 14.518C16.7984 13.3413 17.1105 12.0404 17.1097 10.7478C17.1097 10.4179 17.0892 10.0893 17.0487 9.76269C16.9282 8.79288 16.6281 7.84664 16.1554 6.98211C15.8497 6.4231 15.4722 5.89878 15.0244 5.42442C14.9344 5.32905 14.8427 5.23679 14.7492 5.14764L11.9287 9.35654C12.0161 9.49102 12.0904 9.6376 12.1486 9.79406C12.5603 10.9042 12.0089 12.1197 10.9172 12.509C9.82514 12.8983 8.60615 12.3137 8.19446 11.204C7.78277 10.0938 8.33384 8.87833 9.42589 8.48902C9.94843 8.30325 10.4999 8.33958 10.9778 8.55013L14.5912 5.00135C14.2631 4.70632 13.9157 4.44801 13.554 4.22628C13.035 3.90797 12.486 3.6652 11.9213 3.49801L11.7578 3.45176C11.1819 3.29653 10.5915 3.21932 10.0006 3.21934ZM10.5675 11.2474C10.6599 11.1987 10.7412 11.1284 10.8035 11.0355L11.4794 10.0267L10.8031 11.0355C10.741 11.1283 10.6597 11.1987 10.5675 11.2474Z" fill="#4D4D4D"/>
</svg>
