<svg width="50" height="48" viewBox="0 0 50 48" fill="none" xmlns="http://www.w3.org/2000/svg">
<path d="M14.8808 13.4598C15.0641 14.0752 15.051 14.7299 14.8459 15.3367C14.8284 15.4174 14.8044 15.52 14.7826 15.6204C14.8852 15.5986 14.9856 15.5767 15.0663 15.5571L15.0685 15.5593C15.4395 15.4611 15.8215 15.4021 16.2056 15.389C16.4587 15.3847 16.7097 15.4305 16.9454 15.5244C17.4954 15.8234 17.9384 16.2882 18.2134 16.8513C18.2657 16.9364 18.3356 17.0455 18.4032 17.1481C18.4709 17.0455 18.5407 16.9364 18.5931 16.8513C18.8681 16.2882 19.3111 15.8234 19.8611 15.5244C20.4765 15.341 21.1312 15.352 21.738 15.5593C21.8187 15.5767 21.9213 15.6007 22.0217 15.6226C21.9999 15.52 21.978 15.4196 21.9584 15.3389L21.9606 15.3367C21.7554 14.73 21.7423 14.0731 21.9257 13.4598C22.2247 12.9098 22.6895 12.4668 23.2526 12.1918C23.3377 12.1394 23.4468 12.0696 23.5494 12.0019C23.4468 11.9343 23.3377 11.8644 23.2526 11.8121C22.6895 11.5371 22.2247 11.094 21.9257 10.5441C21.7423 9.92862 21.7554 9.27394 21.9606 8.66719C21.978 8.58644 22.0021 8.48387 22.0239 8.38347C21.9213 8.4053 21.8209 8.42712 21.7402 8.44676L21.738 8.44458C21.1313 8.64973 20.4765 8.66283 19.8611 8.4795C19.3111 8.1805 18.8681 7.71564 18.5931 7.15258C18.5407 7.06747 18.4709 6.95835 18.4032 6.85577C18.3356 6.95835 18.2657 7.06747 18.2134 7.15258C17.9384 7.71564 17.4953 8.18048 16.9454 8.4795C16.3299 8.66283 15.6752 8.64973 15.0685 8.44458C14.9877 8.42712 14.8852 8.40311 14.7848 8.38129C14.8066 8.48386 14.8284 8.58426 14.8481 8.665L14.8459 8.66719C15.051 9.27388 15.0641 9.9308 14.8808 10.5441C14.5818 11.0941 14.1169 11.5371 13.5539 11.8121C13.4688 11.8644 13.3597 11.9343 13.2571 12.0019C13.3597 12.0696 13.4688 12.1394 13.5539 12.1918C14.1169 12.4668 14.5818 12.9098 14.8808 13.4598Z" fill="#229898"/>
<path d="M3.27251 47.5038H33.534C34.8195 47.5038 35.8627 46.4606 35.8627 45.1751V3.27251C35.8627 1.98705 34.8195 0.943848 33.534 0.943848H3.27251C1.98705 0.943848 0.943848 1.98705 0.943848 3.27251V45.1751C0.943848 46.4606 1.98705 47.5038 3.27251 47.5038ZM27.7157 21.8951C28.1849 21.8951 28.6105 22.1789 28.7895 22.6154C28.9706 23.0497 28.8702 23.5495 28.5385 23.8833C28.2046 24.2151 27.7048 24.3155 27.2705 24.1343C26.834 23.9554 26.5503 23.5298 26.5503 23.0606C26.5503 22.4168 27.0719 21.8951 27.7157 21.8951ZM12.4782 10.0836C12.6506 9.98107 12.8187 9.86758 12.9802 9.74755C12.9518 9.53585 12.9125 9.32634 12.8602 9.11901C12.535 8.33336 12.6485 7.43637 13.157 6.75542C13.8379 6.24692 14.7349 6.13342 15.5206 6.45861C15.7279 6.51099 15.9374 6.55028 16.1491 6.57865C16.2691 6.41715 16.3826 6.2491 16.4852 6.07669C16.878 5.44597 17.4149 4.58171 18.4035 4.58171C19.3922 4.58171 19.9291 5.44597 20.3219 6.07669C20.4245 6.2491 20.538 6.41715 20.658 6.57865C20.8697 6.55027 21.0792 6.51099 21.2865 6.45861C22.0722 6.13562 22.9692 6.24692 23.6501 6.75542C24.1586 7.43637 24.2721 8.33331 23.9469 9.11901C23.8946 9.32634 23.8553 9.53585 23.8269 9.74755C23.9884 9.86758 24.1564 9.98107 24.3289 10.0836C24.9596 10.4765 25.8238 11.0156 25.8238 12.002C25.8238 12.9906 24.9596 13.5275 24.3289 13.9204C24.1565 14.0229 23.9884 14.1364 23.8269 14.2564C23.8553 14.4681 23.8946 14.6777 23.9469 14.885C24.2721 15.6706 24.1586 16.5676 23.6501 17.2486C22.9692 17.7571 22.0722 17.8684 21.2865 17.5454C21.0792 17.493 20.8697 17.4537 20.658 17.4254C20.538 17.5868 20.4245 17.7549 20.3219 17.9273C19.9291 18.558 19.3922 19.4223 18.4035 19.4223C17.4149 19.4223 16.878 18.558 16.4852 17.9273C16.3826 17.7549 16.2691 17.5868 16.1491 17.4254C15.9374 17.4537 15.7279 17.493 15.5206 17.5454C14.7349 17.8706 13.8379 17.7571 13.157 17.2486C12.6485 16.5676 12.535 15.6707 12.8602 14.885C12.9125 14.6777 12.9518 14.4681 12.9802 14.2564C12.8187 14.1364 12.6507 14.0229 12.4782 13.9204C11.8475 13.5275 10.9833 12.9884 10.9833 12.002C10.9833 11.0134 11.8475 10.4765 12.4782 10.0836ZM24.2238 23.0606C24.2238 23.5298 23.9401 23.9554 23.5036 24.1344C23.0693 24.3155 22.5695 24.2151 22.2356 23.8834C21.9039 23.5495 21.8035 23.0497 21.9846 22.6154C22.1636 22.1789 22.5892 21.8952 23.0584 21.8952C23.3683 21.8952 23.6629 22.0196 23.8812 22.2378C24.0994 22.4561 24.2238 22.7507 24.2238 23.0606ZM19.5665 23.0606C19.5665 23.5298 19.2828 23.9554 18.8485 24.1344C18.4142 24.3155 17.9122 24.2151 17.5805 23.8834C17.2466 23.5495 17.1484 23.0497 17.3274 22.6154C17.5085 22.1789 17.9319 21.8952 18.4033 21.8952C18.711 21.8952 19.0078 22.0196 19.2261 22.2378C19.4443 22.4561 19.5665 22.7507 19.5665 23.0606ZM14.9114 23.0606C14.9114 23.5298 14.6277 23.9554 14.1934 24.1344C13.7569 24.3155 13.2571 24.2151 12.9254 23.8834C12.5915 23.5495 12.4911 23.0497 12.6723 22.6154C12.8512 22.1789 13.2768 21.8952 13.7482 21.8952C14.0559 21.8952 14.3527 22.0196 14.571 22.2378C14.7892 22.4561 14.9114 22.7507 14.9114 23.0606ZM9.09088 21.8952C9.56229 21.8952 9.98788 22.1789 10.1668 22.6154C10.348 23.0497 10.2476 23.5495 9.91367 23.8834C9.58194 24.2151 9.08215 24.3155 8.6457 24.1344C8.2114 23.9554 7.92765 23.5299 7.92765 23.0606C7.92765 22.4168 8.44926 21.8952 9.09088 21.8952ZM7.92767 27.133H28.879C29.5228 27.133 30.0422 27.6546 30.0422 28.2984C30.0422 28.94 29.5228 29.4616 28.879 29.4616H7.92767C7.28388 29.4616 6.76445 28.94 6.76445 28.2984C6.76445 27.6546 7.28387 27.133 7.92767 27.133ZM7.92767 31.7881L28.879 31.7903C29.5228 31.7903 30.0422 32.3097 30.0422 32.9535C30.0422 33.5973 29.5228 34.1167 28.879 34.1167H7.92767C7.28388 34.1167 6.76445 33.5973 6.76445 32.9535C6.76445 32.3097 7.28387 31.7903 7.92767 31.7903V31.7881ZM7.92767 36.4432L28.879 36.4454C29.5228 36.4454 30.0422 36.967 30.0422 37.6086C30.0422 38.2524 29.5228 38.774 28.879 38.774H7.92767C7.28388 38.774 6.76445 38.2524 6.76445 37.6086C6.76445 36.967 7.28387 36.4454 7.92767 36.4454V36.4432ZM7.92767 41.0983H17.2401V41.1005C17.8817 41.1005 18.4033 41.6221 18.4033 42.2659C18.4033 42.9075 17.8817 43.4291 17.2401 43.4291H7.92767C7.28388 43.4291 6.76445 42.9075 6.76445 42.2659C6.76445 41.6221 7.28387 41.1005 7.92767 41.1005V41.0983Z" fill="#229898"/>
<path d="M37.3184 13.7482H44.3021V39.3546H37.3184V13.7482Z" fill="#229898"/>
<path d="M39.8216 46.0282C39.9918 46.4232 40.3803 46.6807 40.8102 46.6807C41.2402 46.6807 41.6286 46.4232 41.7967 46.0282L44.1253 42.3028C44.241 42.1194 44.3021 41.9055 44.3021 41.6873V40.5197H37.3184V41.6873C37.3184 41.9055 37.3795 42.1194 37.4951 42.3028L39.8216 46.0282Z" fill="#229898"/>
<path d="M43.1367 12.585H46.0481C46.6897 12.585 47.2113 13.1066 47.2113 13.7483V20.3806L47.0149 20.0882V20.086C46.8468 19.8263 46.5784 19.6451 46.275 19.584C45.9717 19.5207 45.6552 19.584 45.3955 19.7542C45.138 19.9267 44.959 20.1951 44.9001 20.5006C44.839 20.804 44.9045 21.1204 45.0791 21.3779L47.4077 24.8698C47.6238 25.1928 47.9861 25.3871 48.3746 25.3871C48.4902 25.3871 48.6037 25.3718 48.7128 25.3369C49.2039 25.1885 49.54 24.7367 49.54 24.2238V13.7482C49.5378 11.8211 47.9752 10.2585 46.0481 10.2563H44.3022V7.92762C44.3022 6.64216 43.259 5.60114 41.9735 5.60114H39.6448C38.3594 5.60114 37.3184 6.64216 37.3184 7.92762V12.5827H43.1389L43.1367 12.585Z" fill="#229898"/>
</svg>
