<svg width="44" height="44" viewBox="0 0 44 44" fill="none" xmlns="http://www.w3.org/2000/svg">
<path d="M20.9419 35.4213C20.9419 35.8422 20.6146 36.1929 20.2171 36.2163L7.05347 33.6911H6.95994C6.5157 33.6911 6.1416 33.317 6.1416 32.8728V10.3333V6.77934C6.1416 6.35847 6.46894 6.00776 6.86642 5.98438L20.0301 8.50955H20.1236C20.5678 8.50955 20.9419 8.88365 20.9419 9.32789V10.3567V35.4213Z" fill="#646464"/>
<path d="M37.7515 32.8966C37.7515 33.3408 37.4008 33.7149 36.9331 33.7149H36.8396L23.676 36.2401C23.2551 36.1934 22.9512 35.866 22.9512 35.4452V10.3337V9.30494C22.9512 8.8607 23.3019 8.4866 23.7695 8.4866H23.863L29.5914 7.38768C29.5914 8.36969 29.5914 9.3517 29.5914 10.3337C29.5914 12.2276 29.5914 14.0981 29.5914 15.992C29.5914 16.2492 29.9422 16.4128 30.1292 16.2258C30.8774 15.4308 31.6256 14.6359 32.3738 13.8409C33.122 14.6359 33.8468 15.4074 34.5716 16.179C34.5716 16.2024 34.595 16.2024 34.595 16.2258C34.6885 16.3193 34.8288 16.3193 34.9224 16.2725C35.0393 16.2258 35.1328 16.1323 35.1328 15.992C35.1328 14.0981 35.1328 12.2276 35.1328 10.3337C35.1328 9.00099 35.1328 7.66826 35.1328 6.31214L37.0033 5.96143C37.4242 6.00819 37.7281 6.35891 37.7281 6.75639V10.3103V32.8966H37.7515Z" fill="#646464"/>
<path d="M42.4267 12.1572V35.3748C42.4267 36.3802 41.6084 37.1985 40.603 37.1985H29.4268L37.049 35.7489C38.5688 35.7021 39.7846 34.4395 39.7846 32.9198V10.3335H40.603C41.6084 10.3335 42.4267 11.1518 42.4267 12.1572Z" fill="#646464"/>
<path d="M14.4405 37.1985H3.2876C2.28221 37.1985 1.46387 36.3802 1.46387 35.3748V12.1572C1.46387 11.1518 2.28221 10.3335 3.2876 10.3335H4.10595V32.8964C4.10595 34.4162 5.32177 35.6787 6.81817 35.7255L14.4405 37.1985Z" fill="#646464"/>
</svg>
