<svg width="81" height="81" viewBox="0 0 81 81" fill="none" xmlns="http://www.w3.org/2000/svg">
<rect x="0.963867" y="0.958984" width="79.834" height="79.834" rx="17.195" fill="#E1F5FE" fill-opacity="0.6"/>
<path d="M47.386 76.124C47.386 76.124 47.3603 76.9594 47.3682 77.6118C47.3589 78.2112 45.1491 79.1016 42.7646 79.1217C40.5548 79.1412 38.2102 78.3842 38.2024 77.5656C38.1981 77.227 38.1853 76.8481 38.166 76.23C39.4434 77.4415 45.8519 77.9021 47.386 76.124Z" fill="#25BBA4"/>
<path d="M42.6492 77.7444C40.3018 77.7444 38.3108 77.0451 38.3008 76.2164C38.2965 75.8248 38.7499 75.4259 39.5447 75.1215C40.393 74.7956 41.5286 74.6099 42.7411 74.5972H42.8702C45.229 74.5972 47.23 75.2951 47.2392 76.1205C47.2442 76.5114 46.7866 76.9117 45.9839 77.2181C45.1285 77.5453 43.9879 77.7323 42.7761 77.7444H42.6492Z" fill="white"/>
<path d="M42.8762 74.7325C45.3562 74.7325 47.0934 75.4647 47.1013 76.1218C47.1013 76.4496 46.6693 76.8124 45.9351 77.0933C45.096 77.4138 43.9761 77.5975 42.7814 77.6096H42.6545C40.1859 77.6096 38.4573 76.872 38.4487 76.215C38.4444 75.8871 38.8764 75.5244 39.6028 75.2461C40.4354 74.927 41.5518 74.7446 42.7465 74.7325H42.8748M42.8748 74.4644H42.7443C40.2002 74.4905 38.1515 75.2763 38.1622 76.2203C38.1728 77.1469 40.1695 77.8818 42.6531 77.8818H42.7878C45.3291 77.8556 47.4028 77.0645 47.3914 76.1211C47.3807 75.1938 45.3612 74.4644 42.8791 74.4644H42.8748Z" fill="#25BBA4"/>
<path d="M40.402 76.7594L45.3271 75.4184C45.3443 75.4138 45.3623 75.4125 45.3801 75.4144C45.3979 75.4164 45.4151 75.4216 45.4307 75.4299C45.4463 75.4381 45.4601 75.4491 45.4712 75.4624C45.4823 75.4756 45.4905 75.4907 45.4953 75.5069C45.5004 75.5231 45.5021 75.5401 45.5002 75.5568C45.4983 75.5736 45.4929 75.5898 45.4843 75.6046C45.4756 75.6194 45.464 75.6324 45.45 75.6429C45.436 75.6534 45.4199 75.6612 45.4026 75.6658L40.484 77.0068C40.4488 77.0166 40.411 77.0128 40.3788 76.9963C40.3465 76.9799 40.3226 76.952 40.3122 76.919C40.3021 76.8866 40.3058 76.8518 40.3226 76.822C40.3394 76.7922 40.3679 76.7697 40.402 76.7594Z" fill="#25BBA4"/>
<path d="M67.365 70.8579C67.365 70.8579 67.33 71.6933 67.33 72.345C67.3136 72.9444 65.0938 73.812 62.7093 73.808C60.4995 73.804 58.1642 73.0229 58.1642 72.2049C58.1642 71.8656 58.155 71.4868 58.1436 70.8693C59.4081 72.0936 65.8117 72.6199 67.365 70.8579Z" fill="#25BBA4"/>
<path d="M62.745 72.4317C60.3277 72.4317 58.2861 71.7116 58.2861 70.8588C58.2861 70.0059 60.3277 69.2852 62.745 69.2852C65.4246 69.2852 67.2253 70.0964 67.2253 70.8541C67.2217 71.7096 65.1687 72.4317 62.745 72.4317Z" fill="white"/>
<path d="M62.7457 69.4191C63.9419 69.4191 65.0646 69.5887 65.9058 69.8985C66.6429 70.1667 67.082 70.5254 67.082 70.8526C67.082 71.1798 66.6421 71.5385 65.9051 71.8113C65.0625 72.1238 63.9397 72.2954 62.7457 72.2954C61.5517 72.2954 60.4318 72.1245 59.5956 71.814C58.8664 71.5458 58.4301 71.1851 58.4301 70.8572C58.4301 70.5294 58.8664 70.1713 59.5956 69.9005C60.4318 69.5894 61.5503 69.4191 62.7457 69.4191ZM62.7457 69.1509C60.2016 69.1509 58.1436 69.9152 58.1436 70.8593C58.1436 71.8033 60.2016 72.5676 62.7457 72.5676C65.2899 72.5676 67.3692 71.7979 67.3692 70.8546C67.3692 69.9112 65.2863 69.1509 62.7457 69.1509Z" fill="#25BBA4"/>
<path d="M60.1684 70.5906L65.6196 70.9439C65.658 70.9468 65.6937 70.9639 65.7189 70.9914C65.7441 71.0188 65.7569 71.0545 65.7543 71.0908C65.7534 71.1089 65.7486 71.1266 65.7403 71.1429C65.7319 71.1593 65.7201 71.1738 65.7055 71.1857C65.691 71.1976 65.6741 71.2066 65.6557 71.2122C65.6374 71.2178 65.6181 71.2198 65.5989 71.2182L60.1506 70.8648C60.1313 70.8637 60.1124 70.859 60.095 70.851C60.0777 70.8431 60.0622 70.8319 60.0494 70.8183C60.0366 70.8046 60.0268 70.7888 60.0206 70.7715C60.0143 70.7543 60.0117 70.7361 60.013 70.718C60.0159 70.6818 60.0339 70.6482 60.0629 70.6243C60.092 70.6005 60.1299 70.5884 60.1684 70.5906Z" fill="#25BBA4"/>
<path d="M60.5586 67.0811C60.5586 67.0811 61.1047 67.7408 61.5517 68.239C61.9501 68.7083 60.8481 70.7197 59.0232 72.1599C57.3287 73.5009 55.0113 74.3169 54.4503 73.6913C54.2179 73.4325 53.9513 73.1482 53.5186 72.6856C55.3242 72.8519 60.5765 69.3754 60.5586 67.0811Z" fill="#25BBA4"/>
<path d="M54.3332 72.8321C54.0025 72.8321 53.763 72.7503 53.6204 72.5887C53.0358 71.937 54.1023 70.1482 55.9493 68.6818C57.2958 67.6137 58.7843 66.9238 59.7416 66.9238C60.0681 66.9238 60.3062 67.0043 60.4495 67.1639C60.7175 67.4622 60.6355 68.0449 60.2235 68.7616C59.7851 69.526 59.033 70.352 58.107 71.0868C56.769 72.1475 55.2892 72.8321 54.3332 72.8321Z" fill="white"/>
<path d="M59.7383 66.7865V67.0547C60.0235 67.0547 60.2209 67.1217 60.3357 67.2464C60.5602 67.4972 60.4697 68.0383 60.0933 68.6933C59.6656 69.4436 58.9235 70.2556 58.0104 70.9803C56.6987 72.0209 55.2552 72.6934 54.3328 72.6934C54.0477 72.6934 53.8424 72.6264 53.7262 72.4983C53.5009 72.2469 53.5893 71.7092 53.9607 71.0595C54.3884 70.3152 55.1248 69.506 56.0379 68.7798C57.3596 67.7312 58.8123 67.0533 59.7376 67.0533V66.7852M59.7376 66.7852C58.7746 66.7852 57.2683 67.4523 55.8533 68.576C53.9087 70.1181 52.8593 71.9519 53.5066 72.6726C53.6841 72.8738 53.97 72.9643 54.3328 72.9643C55.2916 72.9643 56.7843 72.3072 58.1957 71.1869C60.1375 69.6448 61.2018 67.7942 60.5553 67.0735C60.3792 66.8777 60.0962 66.7852 59.7376 66.7852Z" fill="#25BBA4"/>
<path d="M56.4241 71.4598L57.2717 68.4614C57.2824 68.4172 57.3494 68.383 57.4221 68.3843C57.4934 68.3843 57.5383 68.4232 57.5276 68.4675L56.68 71.4658C56.6662 71.4915 56.6444 71.5126 56.6176 71.5264C56.5907 71.5401 56.5601 71.5459 56.5296 71.543C56.4598 71.5409 56.4106 71.5041 56.4241 71.4598Z" fill="#25BBA4"/>
<path d="M65.7751 30.6599C65.7103 30.2576 65.8956 29.8694 66.0916 29.4618C66.282 29.0655 66.4794 28.6572 66.4915 28.1704C66.6049 23.7754 65.4515 18.659 62.9986 14.9975C59.2055 9.33397 51.392 5.99297 44.8052 5.02211C38.8708 4.15049 32.5393 4.75928 26.9912 7.06506C24.0442 8.28936 21.3368 10.1667 18.9766 12.2787C14.4037 16.3686 11.3919 22.3989 11.1545 28.2529C10.8551 35.6376 15.1422 41.4338 18.3821 47.6344C20.3068 51.3167 21.7653 55.7164 21.7097 60.0712C21.6804 62.3796 20.3781 67.4518 19.6731 70.243C19.6731 70.243 47.8078 70.2497 47.8106 70.243C48.9947 67.5611 50.2999 62.9703 50.9072 62.1973C52.0057 60.7946 54.0274 61.1305 56.3677 61.5194C58.7792 61.9217 61.5101 62.3736 63.4961 60.7095C64.7793 59.6367 64.4941 57.0359 64.3302 55.4831C64.2838 55.0499 64.2404 54.6409 64.2632 54.5109C64.3794 53.8491 64.77 53.2933 65.1471 52.7549C65.6832 51.9899 66.138 51.9872 65.7937 50.9681C65.6835 50.6191 65.5228 50.2861 65.3161 49.9784C65.922 49.6874 67.111 49.0217 67.3997 48.1681C67.5815 47.6318 67.3491 46.976 67.1046 46.2821C66.8358 45.5244 66.5585 44.74 66.9264 44.2934C66.9977 44.2204 67.4018 44.1902 67.6955 44.1681C68.67 44.0943 70.301 43.9709 70.8713 42.2398C71.5228 40.2605 68.8411 37.5089 67.4254 34.8155C66.7018 33.4344 65.8535 31.1494 65.7751 30.6599ZM47.7764 36.4891C49.5364 38.1445 49.5364 40.4616 50.2407 42.4483C49.5378 40.4616 49.5378 38.1445 47.7764 36.4891Z" fill="#129D88"/>
<path d="M56.9016 44.5515C51.563 43.2589 46.1518 44.4175 44.5272 45.2046C42.5476 46.1674 41.3451 48.0582 40.3891 47.7584C39.6578 47.5291 41.1276 45.3749 42.4992 44.3987C44.3219 43.1026 47.0429 42.2605 50.0447 41.8193C49.5585 40.1197 49.381 38.2618 48.0986 36.8169C44.2906 38.0633 39.5793 39.9896 37.4194 44.4282C35.9017 47.5486 35.8048 60.4399 36.3288 70.2416H40.4519C40.5139 65.7957 40.6044 59.9458 40.506 58.8381C40.3635 57.1887 39.8353 55.5414 39.5515 53.8062C39.4624 53.2584 39.6585 52.2641 40.0876 52.4833C40.5167 52.7026 40.8582 56.2145 43.2648 56.291C44.6669 56.3352 41.7029 53.4421 42.1805 52.5363C42.2803 52.3479 43.5592 54.0113 43.2976 53.1176C43.2548 52.9728 42.5847 51.9972 42.7986 51.3073C43.5171 48.9258 51.161 47.7712 56.1431 47.79C58.8006 47.8 59.7829 48.4819 59.7743 49.035C59.7522 50.5771 55.8957 49.6385 55.8957 51.6781C55.8957 52.6838 58.0699 52.6744 59.2247 52.5383C60.2227 52.421 61.848 51.255 62.0355 49.2074C62.1446 47.9864 61.7076 45.7162 56.9016 44.5515Z" fill="white"/>
<path d="M63.2539 33.1067C61.717 32.3457 52.6581 35.2368 49.1794 36.4544C48.8536 36.5684 48.4887 36.6898 48.0938 36.8185C49.3769 38.2634 49.5537 40.1213 50.0398 41.8209C53.9049 41.2537 58.2376 41.3516 61.717 42.008C63.636 42.3687 67.4604 43.6058 68.7542 42.236C70.0481 40.8662 64.7908 33.8677 63.2539 33.1067Z" fill="white"/>
<path d="M32.0793 28.3266C29.0789 28.1798 27.4137 30.271 27.269 32.2456C27.0551 35.2004 28.9085 36.9001 29.7583 38.1646C30.7227 39.6001 30.2744 41.9924 31.8027 43.1603C33.3311 44.3283 35.5323 43.5626 35.866 41.9682L35.9814 32.137C35.8289 30.0732 33.9862 28.4205 32.0793 28.3266Z" fill="white"/>
<path d="M19.0226 72.9299C19.1366 72.4083 19.0383 71.7626 18.7446 71.176C18.5393 70.7636 18.2605 70.4384 17.9512 70.242L18.0446 70.2138C18.8921 69.9557 19.6919 69.7116 20.3449 69.5018C20.5184 69.4438 20.7011 69.4137 20.8853 69.4126C21.4719 69.4126 21.9895 69.7391 22.1719 70.2252C22.266 70.474 22.3908 71.123 21.5347 71.7754C20.9986 72.1803 20.0149 72.5598 19.0226 72.9299Z" fill="white"/>
<path d="M20.8876 69.5465C21.413 69.5465 21.8756 69.8368 22.0382 70.2686C22.2149 70.738 21.9989 71.2482 21.4465 71.6686C20.9667 72.0327 20.1035 72.3806 19.2017 72.7172C19.2435 72.1662 19.1314 71.6145 18.8767 71.1168C18.7284 70.8059 18.517 70.5253 18.2544 70.2907C19.0385 70.0507 19.7813 69.8248 20.3929 69.627C20.5511 69.5744 20.7177 69.5472 20.8855 69.5465M20.8855 69.2783C20.6856 69.2791 20.4873 69.3115 20.2988 69.3742C19.5382 69.6189 18.5666 69.9106 17.5771 70.215C18.5495 70.5234 19.206 72.1761 18.8047 73.1557C19.9524 72.7326 21.0323 72.331 21.6254 71.8818C23.0882 70.7681 22.2099 69.279 20.8855 69.279V69.2783Z" fill="#25BBA4"/>
<path d="M18.8042 73.1535C17.5803 73.5981 16.28 74.0547 15.3597 74.1385C13.584 74.3048 12.5133 72.6634 14.5086 71.4163C15.3113 70.9108 16.4533 70.5514 17.5739 70.2095C18.5462 70.5212 19.2056 72.174 18.8042 73.1535Z" fill="#25BBA4"/>
<path d="M26.6775 73.8843C26.3933 73.8833 26.1149 73.8088 25.8727 73.6691C25.0172 73.181 23.7869 72.4187 22.6484 71.6711C22.7105 70.8853 23.4839 69.6261 24.4263 69.1099C25.7001 69.9527 26.9384 70.8035 27.751 71.3942C28.2678 71.771 28.4553 72.2886 28.2643 72.8122C28.1463 73.121 27.9316 73.3888 27.6484 73.5804C27.3652 73.7719 27.0269 73.8781 26.6782 73.885L26.6775 73.8843Z" fill="white"/>
<path d="M24.4209 69.2717C25.6663 70.0978 26.8689 70.9245 27.663 71.5017C28.3003 71.9671 28.2283 72.4954 28.1285 72.7696C27.9253 73.3288 27.3016 73.7505 26.6778 73.7505C26.4201 73.7493 26.1676 73.6815 25.9479 73.5548C25.1103 73.078 23.9155 72.3378 22.7999 71.6104C22.8983 70.8816 23.6005 69.7699 24.4209 69.2751M24.4352 68.9546C23.4372 69.4554 22.5226 70.85 22.502 71.7431C23.7138 72.541 24.9684 73.3161 25.7996 73.7894C26.0641 73.9414 26.3679 74.0223 26.6778 74.0234C28.09 74.0234 29.2541 72.3238 27.8391 71.2919C26.9958 70.6791 25.7005 69.7887 24.4352 68.9546Z" fill="#25BBA4"/>
<path d="M19.3566 69.5166C19.9896 70.0429 21.2207 70.9004 22.5016 71.7385C22.5223 70.8455 23.434 69.4509 24.4349 68.95C23.1888 68.1387 21.9848 67.3871 21.2984 67.0318C19.4392 66.0824 18.0699 68.4371 19.3566 69.5166Z" fill="#25BBA4"/>
</svg>
