<svg width="37" height="37" viewBox="0 0 37 37" fill="none" xmlns="http://www.w3.org/2000/svg">
<circle cx="18.3053" cy="18.2926" r="17.9967" fill="#F4F4F4"/>
<path d="M18.3054 22.2997C19.0979 22.2997 19.8726 22.0647 20.5316 21.6244C21.1905 21.1841 21.7041 20.5583 22.0074 19.8261C22.3107 19.0939 22.3901 18.2882 22.2355 17.5109C22.0808 16.7336 21.6992 16.0196 21.1388 15.4592C20.5784 14.8988 19.8644 14.5171 19.0871 14.3625C18.3098 14.2079 17.5041 14.2873 16.7719 14.5905C16.0397 14.8938 15.4139 15.4074 14.9736 16.0664C14.5333 16.7254 14.2983 17.5001 14.2983 18.2926C14.2983 19.3554 14.7205 20.3746 15.4719 21.126C16.2234 21.8775 17.2426 22.2997 18.3054 22.2997ZM18.3054 15.5509C18.8476 15.5509 19.3777 15.7117 19.8286 16.013C20.2794 16.3142 20.6308 16.7424 20.8384 17.2434C21.0459 17.7444 21.1002 18.2957 20.9944 18.8275C20.8886 19.3593 20.6275 19.8478 20.244 20.2313C19.8606 20.6147 19.3721 20.8758 18.8402 20.9816C18.3084 21.0874 17.7571 21.0331 17.2562 20.8256C16.7552 20.6181 16.327 20.2667 16.0257 19.8158C15.7245 19.3649 15.5637 18.8349 15.5637 18.2926C15.5637 17.5655 15.8525 16.8681 16.3667 16.3539C16.8809 15.8398 17.5782 15.5509 18.3054 15.5509ZM30.1157 10.9111H6.495C6.3272 10.9111 6.16627 10.9778 6.04762 11.0964C5.92896 11.2151 5.8623 11.376 5.8623 11.5438V25.0414C5.8623 25.2092 5.92896 25.3701 6.04762 25.4888C6.16627 25.6074 6.3272 25.6741 6.495 25.6741H30.1157C30.2835 25.6741 30.4445 25.6074 30.5631 25.4888C30.6818 25.3701 30.7484 25.2092 30.7484 25.0414V11.5438C30.7484 11.376 30.6818 11.2151 30.5631 11.0964C30.4445 10.9778 30.2835 10.9111 30.1157 10.9111ZM7.1277 16.2701C8.11011 16.0087 9.00605 15.4925 9.72488 14.7737C10.4437 14.0549 10.9599 13.1589 11.2213 12.1765H25.3895C25.6508 13.1589 26.167 14.0549 26.8859 14.7737C27.6047 15.4925 28.5006 16.0087 29.483 16.2701V20.3151C28.5006 20.5765 27.6047 21.0927 26.8859 21.8115C26.167 22.5303 25.6508 23.4263 25.3895 24.4087H11.2213C10.9599 23.4263 10.4437 22.5303 9.72488 21.8115C9.00605 21.0927 8.11011 20.5765 7.1277 20.3151V16.2701ZM29.483 14.9488C28.8422 14.7249 28.2601 14.3594 27.7801 13.8794C27.3002 13.3994 26.9346 12.8174 26.7108 12.1765H29.483V14.9488ZM9.89997 12.1765C9.6761 12.8174 9.31057 13.3994 8.83058 13.8794C8.3506 14.3594 7.76853 14.7249 7.1277 14.9488V12.1765H9.89997ZM7.1277 21.6364C7.76853 21.8603 8.3506 22.2258 8.83058 22.7058C9.31057 23.1858 9.6761 23.7679 9.89997 24.4087H7.1277V21.6364ZM26.7108 24.4087C26.9346 23.7679 27.3002 23.1858 27.7801 22.7058C28.2601 22.2258 28.8422 21.8603 29.483 21.6364V24.4087H26.7108Z" fill="#181B3A"/>
</svg>
