<svg width="37" height="37" viewBox="0 0 37 37" fill="none" xmlns="http://www.w3.org/2000/svg">
<circle cx="18.4489" cy="18.4421" r="17.9967" fill="#F4F4F4"/>
<path d="M12.8252 21.8159H15.0748C15.0748 23.0307 16.6158 24.0655 18.4492 24.0655C20.2826 24.0655 21.8236 23.0307 21.8236 21.8159C21.8236 20.5786 20.6538 20.1287 18.1792 19.5326C15.7947 18.9364 12.8252 18.1941 12.8252 15.0671C12.8252 13.0538 14.4786 11.3441 16.762 10.7704V8.31836H20.1364V10.7704C22.4197 11.3441 24.0732 13.0538 24.0732 15.0671H21.8236C21.8236 13.8524 20.2826 12.8175 18.4492 12.8175C16.6158 12.8175 15.0748 13.8524 15.0748 15.0671C15.0748 16.3044 16.2446 16.7543 18.7191 17.3505C21.1037 17.9466 24.0732 18.689 24.0732 21.8159C24.0732 23.8293 22.4197 25.539 20.1364 26.1126V28.5647H16.762V26.1126C14.4786 25.539 12.8252 23.8293 12.8252 21.8159Z" fill="#181B3A"/>
</svg>
