<svg width="28" height="28" viewBox="0 0 28 28" fill="none" xmlns="http://www.w3.org/2000/svg">
<path d="M17.8116 17.0164C17.5878 17.0164 17.3732 17.1053 17.215 17.2635C17.0568 17.4217 16.968 17.6363 16.968 17.86C16.968 18.0837 17.0568 18.2983 17.215 18.4565C17.3732 18.6147 17.5878 18.7036 17.8116 18.7036H21.1859C21.4097 18.7036 21.6243 18.6147 21.7825 18.4565C21.9407 18.2983 22.0295 18.0837 22.0295 17.86C22.0295 17.6363 21.9407 17.4217 21.7825 17.2635C21.6243 17.1053 21.4097 17.0164 21.1859 17.0164H17.8116ZM1.7832 9.42404C1.7832 8.30536 2.2276 7.2325 3.01862 6.44147C3.80965 5.65045 4.88251 5.20605 6.00119 5.20605H21.1859C22.3046 5.20605 23.3775 5.65045 24.1685 6.44147C24.9595 7.2325 25.4039 8.30536 25.4039 9.42404V17.86C25.4039 18.9787 24.9595 20.0516 24.1685 20.8426C23.3775 21.6336 22.3046 22.078 21.1859 22.078H6.00119C4.88251 22.078 3.80965 21.6336 3.01862 20.8426C2.2276 20.0516 1.7832 18.9787 1.7832 17.86V9.42404ZM23.7167 10.2676V9.42404C23.7167 8.75283 23.4501 8.10912 22.9755 7.6345C22.5009 7.15989 21.8571 6.89325 21.1859 6.89325H6.00119C5.32998 6.89325 4.68627 7.15989 4.21165 7.6345C3.73703 8.10912 3.4704 8.75283 3.4704 9.42404V10.2676H23.7167ZM3.4704 11.9548V17.86C3.4704 18.5312 3.73703 19.1749 4.21165 19.6496C4.68627 20.1242 5.32998 20.3908 6.00119 20.3908H21.1859C21.8571 20.3908 22.5009 20.1242 22.9755 19.6496C23.4501 19.1749 23.7167 18.5312 23.7167 17.86V11.9548H3.4704Z" fill="#181B3A"/>
</svg>
