<svg width="20" height="20" viewBox="0 0 20 20" fill="none" xmlns="http://www.w3.org/2000/svg">
<path fill-rule="evenodd" clip-rule="evenodd" d="M13.0286 3.207C9.3791 6.65796 4.88581 9.08785 0 10.2526C4.47616 8.35001 8.54032 5.59637 11.9669 2.14457L10.8963 1.07472L14.9077 0L13.8329 4.01136L13.029 3.20747L13.0286 3.207ZM13.1754 13.4654C13.8317 12.8091 14.7219 12.4404 15.6501 12.4404C16.5783 12.4404 17.4685 12.8091 18.1249 13.4654C18.7812 14.1218 19.1499 15.012 19.1499 15.9402C19.1499 16.8684 18.7812 17.7586 18.1249 18.4149C17.7999 18.74 17.4141 18.9979 16.9895 19.1738C16.5649 19.3497 16.1097 19.4403 15.6501 19.4403C15.1905 19.4403 14.7354 19.3497 14.3107 19.1738C13.8861 18.9979 13.5003 18.74 13.1754 18.4149C12.519 17.7586 12.1503 16.8684 12.1503 15.9402C12.1503 15.012 12.519 14.1218 13.1754 13.4654ZM12.7812 13.0712C13.5425 12.3102 14.5748 11.8827 15.6513 11.8827C16.7277 11.8827 17.7601 12.3102 18.5214 13.0712C19.2824 13.8325 19.7099 14.8649 19.7099 15.9413C19.7099 17.0178 19.2824 18.0502 18.5214 18.8114C17.7601 19.5725 16.7277 20 15.6513 20C14.5748 20 13.5425 19.5725 12.7812 18.8114C12.0201 18.0502 11.5926 17.0178 11.5926 15.9413C11.5926 14.8649 12.0201 13.8325 12.7812 13.0712ZM17.4529 11.6659V5.11855H15.1676V11.3271C15.9456 11.2457 16.7315 11.3618 17.4527 11.6647L17.4529 11.6659ZM12.4109 12.6212V7.46763H10.1258V15.2564H11.0632C11.208 14.2724 11.6668 13.3616 12.3712 12.6594C12.3844 12.6462 12.3974 12.6332 12.4109 12.6203V12.6212ZM7.36885 15.2564V10.7899H5.08377V15.2564H7.36885ZM2.32705 15.2564V12.4777H0.0419687V15.2564H2.32705Z" fill="#494949"/>
<path fill-rule="evenodd" clip-rule="evenodd" d="M17.7977 18.1442C18.3342 17.5999 18.6654 16.8526 18.6654 16.028C18.6654 14.3632 17.3158 13.0137 15.651 13.0137C13.9863 13.0137 12.6367 14.3632 12.6367 16.028C12.6367 17.6357 13.8954 18.9495 15.4811 19.0376L15.6898 18.1442H17.1872H17.5779H17.7977Z" fill="#494949"/>
</svg>
