<svg width="90" height="90" viewBox="0 0 90 90" fill="none" xmlns="http://www.w3.org/2000/svg">
<rect opacity="0.4" width="89.0642" height="89.0642" rx="7.12514" fill="#B8EAFF"/>
<path d="M36.271 59.6144C37.1943 60.3603 38.2291 60.9529 39.3449 61.3709C43.0565 62.7635 47.2551 62.0717 50.305 59.5723C50.5727 59.3587 50.8404 59.1151 51.1352 58.8233C55.1475 54.811 55.5055 48.4438 51.9623 44.0102C51.8119 43.8147 51.6495 43.6282 51.478 43.4477C51.3457 43.2913 51.2404 43.186 51.1351 43.0808C49.3695 41.3152 47.1378 40.2204 44.6774 39.9136C44.2022 39.8534 43.727 39.8203 43.2517 39.8203C42.7765 39.8203 42.3072 39.8504 41.8381 39.9136C39.7988 40.1722 37.8738 40.9873 36.2676 42.2747C35.9247 42.5604 35.63 42.8251 35.3834 43.0748C33.2839 45.1742 32.1259 47.9715 32.1289 50.9495C32.1289 53.9272 33.2899 56.7245 35.3924 58.8242C35.6751 59.107 35.9699 59.3747 36.2706 59.6182L36.271 59.6144ZM42.5994 58.0834C40.0097 58.0834 37.9012 55.7584 37.9012 52.898V48.9969C37.9012 47.4479 38.5208 45.9921 39.6006 45.0025C39.9134 44.7168 40.4007 44.7378 40.6894 45.0506C40.9752 45.3634 40.9541 45.8507 40.6413 46.1395C39.8803 46.8373 39.4412 47.878 39.4412 48.9969V52.898C39.4412 54.9072 40.8578 56.5434 42.5994 56.5434C43.0235 56.5434 43.3694 56.8863 43.3694 57.3134C43.3694 57.7405 43.0235 58.0834 42.5994 58.0834ZM44.756 48.2991C44.5184 47.9442 44.6146 47.469 44.9665 47.2313C45.3215 46.9937 45.7997 47.09 46.0343 47.4419C46.4584 48.0765 46.693 48.8766 46.693 49.6917V52.2062C46.693 54.1974 45.3245 55.8186 43.6431 55.8186C43.219 55.8186 42.8731 55.4757 42.8731 55.0486C42.8731 54.6215 43.219 54.2786 43.6431 54.2786C44.4612 54.2786 45.153 53.3281 45.153 52.2062V49.6917C45.153 49.1774 45.0116 48.6841 44.753 48.2991L44.756 48.2991ZM44.0311 53.0634C44.0311 53.4905 43.6852 53.8334 43.2611 53.8334C42.837 53.8334 42.4911 53.4905 42.4911 53.0634V48.8315C42.4911 48.4044 42.837 48.0615 43.2611 48.0615C43.6852 48.0615 44.0311 48.4044 44.0311 48.8315V53.0634ZM42.8761 47.6193C42.058 47.6193 41.3662 48.5668 41.3662 49.6917V52.2062C41.3662 52.8649 41.5918 53.4725 41.9858 53.8695C42.2836 54.1733 42.2806 54.6605 41.9768 54.9584C41.8264 55.1058 41.6309 55.178 41.4354 55.178C41.2369 55.178 41.0384 55.0998 40.888 54.9494C40.2112 54.2636 39.8262 53.262 39.8262 52.2033V49.6888C39.8262 47.6976 41.1948 46.0764 42.8761 46.0764C43.3002 46.0764 43.6461 46.4193 43.6461 46.8464C43.6461 47.2735 43.3002 47.6164 42.8761 47.6164L42.8761 47.6193ZM48.0225 44.1333C48.3533 43.8656 48.8376 43.9138 49.1052 44.2446C50.0557 45.4116 50.5791 46.8885 50.5791 48.4074V53.4846C50.5791 57.0759 47.7187 59.9994 44.2026 59.9994C43.7785 59.9994 43.4326 59.6565 43.4326 59.2294C43.4326 58.8023 43.7785 58.4594 44.2026 58.4594C46.8705 58.4594 49.0391 56.2277 49.0391 53.4846V48.4074C49.0391 47.2404 48.639 46.1094 47.9112 45.2161C47.6435 44.8853 47.6916 44.401 48.0225 44.1333ZM43.9198 43.8115C46.5096 43.8115 48.618 46.1365 48.618 48.997V52.8981C48.618 54.0952 48.2421 55.2622 47.5563 56.1855C47.4059 56.3901 47.1743 56.4953 46.9367 56.4953C46.7773 56.4953 46.6179 56.4472 46.4795 56.345C46.1396 56.0923 46.0674 55.6111 46.3201 55.2682C46.8104 54.6095 47.0781 53.7703 47.0781 52.9011V49C47.0781 46.9908 45.6614 45.3545 43.9199 45.3545C43.4958 45.3545 43.1499 45.0116 43.1499 44.5845C43.1499 44.1574 43.4958 43.8145 43.9199 43.8145L43.9198 43.8115ZM35.9404 48.4105C35.9404 44.8191 38.8008 41.8956 42.3169 41.8956C42.741 41.8956 43.0869 42.2415 43.0869 42.6656C43.0869 43.0897 42.741 43.4356 42.3169 43.4356C39.649 43.4356 37.4804 45.6673 37.4804 48.4105V53.4876C37.4804 54.9945 38.1331 56.4022 39.273 57.3526C39.6009 57.6263 39.643 58.1106 39.3723 58.4354C39.2189 58.6189 39.0023 58.7121 38.7797 58.7121C38.6053 58.7121 38.4308 58.655 38.2865 58.5347C36.7946 57.2924 35.9404 55.4517 35.9404 53.4876L35.9404 48.4105Z" fill="#25BBA4"/>
<path d="M33.7556 60.4556C34.2128 60.9128 34.7181 61.349 35.2535 61.752C35.5542 61.9745 35.8701 62.1851 36.1889 62.3806C37.1664 62.9882 38.2131 63.4634 39.2989 63.7942C43.7715 65.1658 48.5419 64.1642 52.0608 61.1083C52.3045 60.9007 52.5451 60.6751 52.7677 60.4526C55.3092 57.914 56.7049 54.5362 56.7049 50.9447C56.7049 47.3534 55.3062 43.9786 52.7677 41.443C52.1511 40.8264 51.4743 40.2699 50.7494 39.7827C48.5117 38.2698 45.9159 37.4907 43.2811 37.4907C41.9516 37.4907 40.6101 37.6892 39.3018 38.0923C38.2129 38.4231 37.1663 38.8984 36.1947 39.5029C35.3164 40.0413 34.4983 40.691 33.7523 41.4339C29.0692 46.108 28.5128 53.6399 32.456 58.9451C32.85 59.4685 33.2741 59.9617 33.7583 60.452L33.7556 60.4556ZM34.294 41.9788C34.5767 41.6961 34.9016 41.4013 35.2926 41.0765C37.1303 39.6026 39.3231 38.6702 41.642 38.3785C42.7068 38.2401 43.7956 38.2401 44.8724 38.3785C47.6696 38.7274 50.2142 39.9756 52.2235 41.9848C52.3648 42.1262 52.5032 42.2676 52.6265 42.418C52.801 42.5954 52.9935 42.824 53.1709 43.0526C57.1954 48.0907 56.7893 55.3394 52.2234 59.9085C51.8896 60.2424 51.5798 60.5221 51.276 60.7658C48.9961 62.6366 46.1446 63.6171 43.2572 63.6171C41.7564 63.6171 40.2495 63.3525 38.8057 62.811C37.5335 62.3328 36.3574 61.6621 35.3047 60.8078C34.9618 60.5311 34.6249 60.2273 34.3061 59.9055C31.9118 57.5142 30.5914 54.332 30.5914 50.9389C30.5914 47.5491 31.9058 44.3668 34.297 41.9754L34.294 41.9788Z" fill="#25BBA4"/>
<path d="M30.5191 65.5514L33.6352 62.4353C33.6081 62.4142 33.5871 62.3872 33.56 62.3661C33.2472 62.1014 32.9464 61.8277 32.6607 61.542C32.3659 61.2412 32.0922 60.9404 31.8305 60.6336C31.8125 60.6096 31.7884 60.5885 31.7704 60.5645L28.6543 63.6805L30.5221 65.5514L30.5191 65.5514Z" fill="#25BBA4"/>
<path d="M35.593 22.6151H65.9477V18.341C65.9477 18.335 65.9508 18.329 65.9508 18.3199V14.1602H55.5166C55.291 14.1602 55.0774 14.0609 54.93 13.8895C54.7827 13.7181 54.7195 13.4925 54.7556 13.2699C54.7917 13.0503 54.8067 12.8368 54.8067 12.6352C54.8067 10.4065 52.993 8.59277 50.7643 8.59277C48.5355 8.59277 46.7218 10.4065 46.7218 12.6352C46.7218 12.8338 46.7398 13.0473 46.7729 13.2699C46.809 13.4925 46.7428 13.718 46.5955 13.8895C46.4481 14.0609 46.2345 14.1602 46.0089 14.1602H35.584V18.3229C35.584 18.329 35.587 18.335 35.587 18.341V22.6151L35.593 22.6151ZM50.7673 10.0634C52.187 10.0634 53.3389 11.2184 53.3389 12.635C53.3389 14.0547 52.1839 15.2067 50.7673 15.2067C49.3476 15.2067 48.1957 14.0517 48.1957 12.635C48.1957 11.2153 49.3507 10.0634 50.7673 10.0634Z" fill="#25BBA4"/>
<path d="M29.3525 66.5614L27.0185 64.2304L27.0155 64.2244L26.7839 63.9897L14.3223 76.4598L17.7451 79.8827L23.9622 73.6686V73.6656L30.2094 67.4184L29.3525 66.5614Z" fill="#25BBA4"/>
<path d="M51.7988 12.6352C51.7988 14.0128 49.7324 14.0128 49.7324 12.6352C49.7324 11.2577 51.7988 11.2577 51.7988 12.6352Z" fill="#25BBA4"/>
<path d="M67.4909 19.1107V23.3848C67.4909 23.8089 67.145 24.1548 66.7209 24.1548H34.82C34.3959 24.1548 34.05 23.8089 34.05 23.3848V19.1107H25.2759V63.3192L26.2414 62.3537C26.3858 62.2093 26.5813 62.1281 26.7859 62.1281H26.7889C26.9934 62.1281 27.1889 62.2093 27.3333 62.3567L27.5679 62.5913L30.8464 59.3128C26.8821 53.4296 27.607 45.399 32.6661 40.3456C33.4962 39.5154 34.4106 38.7906 35.3882 38.192C36.4709 37.5182 37.638 36.9888 38.8561 36.6189C43.2054 35.2804 47.8582 35.9662 51.615 38.5047C51.6841 38.5499 51.7473 38.607 51.8165 38.6551H71.1926C71.6167 38.6551 71.9626 39.001 71.9626 39.4251C71.9626 39.8492 71.6167 40.1951 71.1926 40.1951H53.6876C53.7447 40.2493 53.8079 40.2974 53.862 40.3545C55.6546 42.1441 56.933 44.3128 57.6338 46.6769H71.1926C71.6167 46.6769 71.9626 47.0198 71.9626 47.4469C71.9626 47.874 71.6167 48.2169 71.1926 48.2169H57.9941C58.1565 49.1071 58.2498 50.0185 58.2498 50.9449C58.2498 52.2323 58.0723 53.4865 57.7595 54.6987H71.189C71.6131 54.6987 71.959 55.0416 71.959 55.4687C71.959 55.8958 71.6131 56.2387 71.189 56.2387H57.2721C56.5292 58.2028 55.3862 60.0104 53.8583 61.5414C53.6056 61.794 53.3349 62.0467 53.0642 62.2783C52.8838 62.4347 52.6913 62.5761 52.5048 62.7234H71.1895C71.6136 62.7234 71.9595 63.0663 71.9595 63.4934C71.9595 63.9205 71.6136 64.2634 71.1895 64.2634H50.7723C50.6219 64.2634 50.4866 64.2093 50.3662 64.1311C48.1886 65.3132 45.7643 65.9388 43.2949 65.9388C41.8121 65.9388 40.3172 65.7192 38.8494 65.2681C37.6373 64.8981 36.4672 64.3687 35.3815 63.692C35.216 63.5897 35.0536 63.4724 34.8912 63.3611L31.6097 66.6426L31.8443 66.8772C32.0699 67.1028 32.1271 67.4336 32.0128 67.7103C31.9737 67.8036 31.9195 67.8908 31.8443 67.966L29.0651 70.7452H71.1892C71.6133 70.7452 71.9592 71.0881 71.9592 71.5152C71.9592 71.9423 71.6133 72.2852 71.1892 72.2852L28.4275 72.2822C28.1809 72.2822 27.9674 72.1589 27.829 71.9754L25.2754 74.529V80.2017H74.3387V19.1104L67.4909 19.1107ZM56.0495 32.1768H28.4291C28.005 32.1768 27.6591 31.8309 27.6591 31.4068C27.6591 30.9827 28.005 30.6368 28.4291 30.6368H56.0495C56.4736 30.6368 56.8195 30.9827 56.8195 31.4068C56.8195 31.8309 56.4736 32.1768 56.0495 32.1768ZM70.2074 33.9724C69.2058 36.1831 66.9891 37.6118 64.5618 37.6118C62.1346 37.6118 59.9148 36.1831 58.9132 33.9694C58.5463 33.1754 58.3568 32.3121 58.3568 31.4068C58.3568 27.9869 61.139 25.2047 64.5589 25.2047C67.9787 25.2047 70.7609 27.9869 70.7609 31.4068C70.7609 32.3091 70.5744 33.1724 70.2045 33.9724H70.2074Z" fill="#25BBA4"/>
<path d="M64.5605 26.7412C61.9889 26.7412 59.8984 28.8347 59.8984 31.4033C59.8984 32.0831 60.0398 32.7298 60.3135 33.3253C61.0685 34.9916 62.7348 36.0684 64.5605 36.0684C66.3862 36.0684 68.0526 34.9946 68.8045 33.3313C68.8045 33.3283 68.8075 33.3283 68.8075 33.3253C69.0842 32.7297 69.2225 32.083 69.2225 31.4033C69.2225 28.8317 67.1291 26.7412 64.5605 26.7412ZM64.5605 30.6333C65.7696 30.6333 66.7562 31.6168 66.7562 32.829C66.7562 33.7614 66.1697 34.5525 65.3486 34.8713L65.3516 35.142C65.3546 35.5661 65.0117 35.915 64.5876 35.918H64.5816C64.1575 35.918 63.8146 35.5751 63.8116 35.154L63.8086 34.8833C62.9695 34.5735 62.3679 33.7764 62.3679 32.832C62.3679 32.4079 62.7138 32.062 63.1379 32.062C63.562 32.062 63.9079 32.4079 63.9079 32.832C63.9079 33.1929 64.2026 33.4877 64.5636 33.4877C64.9245 33.4877 65.2193 33.1929 65.2193 32.832C65.2193 32.471 64.9275 32.1793 64.5696 32.1793H64.5666H64.5636C64.5576 32.1793 64.5545 32.1763 64.5515 32.1763C63.3484 32.1672 62.3709 31.1897 62.3709 29.9835C62.3709 29.0512 62.9574 28.2601 63.7785 27.9413L63.7755 27.6706C63.7725 27.2465 64.1154 26.8976 64.5425 26.8976C64.9726 26.8615 65.3155 27.2375 65.3155 27.6646L65.3185 27.9323C66.1577 28.2421 66.7593 29.0391 66.7593 29.9836C66.7593 30.4077 66.4134 30.7536 65.9893 30.7536C65.5652 30.7536 65.2193 30.4077 65.2193 29.9836C65.2193 29.6227 64.9245 29.3279 64.5636 29.3279C64.2026 29.3279 63.9079 29.6227 63.9079 29.9836C63.9079 30.3445 64.2026 30.6363 64.5636 30.6363L64.5605 30.6333Z" fill="#25BBA4"/>
</svg>
