<svg width="81" height="82" viewBox="0 0 81 82" fill="none" xmlns="http://www.w3.org/2000/svg">
<rect x="-0.00585938" y="0.530273" width="80.657" height="80.657" rx="16.1314" fill="white"/>
<path d="M68.7693 21.5304C67.9794 21.2628 67.2027 21.0318 66.4389 20.8373C65.9568 20.714 65.4561 20.6434 64.9369 20.6253C64.2233 20.6003 63.7161 20.6038 63.4154 20.6359C59.1496 21.0809 56.0369 23.1722 54.0774 26.9098C53.9461 27.0622 53.8053 27.2686 53.6549 27.5292C49.2348 35.1769 44.7605 42.9132 40.232 50.7382C39.4723 52.0502 38.9395 52.9172 38.6338 53.3392C37.4712 54.9459 35.8008 55.9838 33.6228 56.4529C32.5062 56.6934 31.2714 56.6438 29.9183 56.304C29.2768 56.1427 28.4704 55.7798 27.4992 55.2155C26.7585 54.7855 25.9982 54.34 25.2184 53.8789C24.8887 53.6845 24.6637 53.5392 24.5434 53.4429C24.5193 53.3567 24.5223 53.2881 24.5524 53.237C25.3242 51.95 26.103 50.6345 26.8888 49.2904C27.4401 48.3482 27.9883 47.404 28.5336 46.4578C29.5178 44.7489 30.4069 43.2079 31.2007 41.8347C31.2679 41.7184 31.3355 41.6011 31.4037 41.4829C32.5092 39.5625 33.6138 37.6566 34.7173 35.7652C35.0441 35.2049 35.3518 34.6486 35.6404 34.0964C36.5621 32.3343 36.6628 30.1964 35.89 28.3561C35.4861 27.3949 34.8937 26.543 34.1129 25.8003C33.7661 25.4705 32.9477 24.9338 31.6578 24.19C30.6685 23.6207 29.6702 23.0494 28.6629 22.4761C29.3765 21.2493 30.0826 20.0239 30.7812 18.8001C32.4932 15.8022 34.8687 13.545 37.9077 12.0285C39.7705 11.0979 42.1745 10.4739 44.335 10.3702C46.9119 10.2469 49.4262 10.7516 51.8779 11.8842C52.382 12.1177 53.1463 12.5287 54.1706 13.117C56.5 14.4581 58.7136 15.7265 60.8114 16.9223C62.9634 18.1481 65.0362 19.3233 67.0298 20.4479C67.2833 20.5902 67.8632 20.9511 68.7693 21.5304Z" fill="#2DAA4F"/>
<path d="M23.1676 19.844C23.1405 19.877 23.1144 19.9031 23.0894 19.9222C23.0583 19.9462 23.0227 19.9562 22.9826 19.9522C22.9546 19.9492 22.927 19.9472 22.8999 19.9462C22.8158 19.9432 22.8127 19.9567 22.8909 19.9868C22.92 19.9978 22.9461 19.9918 22.9691 19.9688C22.9912 19.9447 23.0157 19.9417 23.0428 19.9597L23.1901 20.0575C23.2192 20.0765 23.2242 20.1001 23.2052 20.1281C23.1811 20.1662 23.1465 20.1848 23.1014 20.1838C23.0403 20.1838 22.9997 20.2123 22.9796 20.2695L22.7271 20.9986C22.709 21.0487 22.708 21.0994 22.724 21.1505C22.7661 21.2878 22.7406 21.4006 22.6474 21.4888C22.5912 21.5429 22.5526 21.6065 22.5316 21.6797C22.4459 21.9699 22.4564 22.2751 22.3392 22.5517C21.9072 23.56 21.5513 24.5052 21.2717 25.3872C21.1655 25.723 21.0567 26.0568 20.9454 26.3885C20.8332 26.7263 20.7365 27.0591 20.6553 27.3868C20.541 27.8479 20.4207 28.2909 20.2944 28.7159C20.2383 28.9073 20.1571 29.0943 20.0509 29.2767C19.9406 29.4671 19.8564 29.6576 19.7983 29.848C19.7742 29.9272 19.7773 30.0074 19.8073 30.0886C19.8158 30.1121 19.8188 30.1371 19.8162 30.1619C19.8136 30.1866 19.8054 30.2104 19.7923 30.2314C19.6961 30.3858 19.6465 30.5602 19.6434 30.7546C19.6424 30.8127 19.6179 30.8578 19.5698 30.8899C19.4154 30.9932 19.3493 31.127 19.3713 31.2913C19.3773 31.3405 19.3663 31.3851 19.3382 31.4251C19.3072 31.4693 19.2971 31.5164 19.3082 31.5665C19.3124 31.5866 19.3096 31.6075 19.3003 31.6258C19.291 31.6441 19.2758 31.6587 19.2571 31.6672C19.227 31.6812 19.1959 31.6837 19.1638 31.6747C19.1528 31.6717 19.1483 31.6762 19.1503 31.6883C19.1523 31.7033 19.1578 31.7168 19.1668 31.7289C19.1839 31.7509 19.1869 31.7755 19.1759 31.8025C18.9804 32.2736 18.8476 32.6139 18.7774 32.8234C18.7213 32.9878 18.6812 33.1772 18.6572 33.3917C18.6512 33.4418 18.6341 33.4879 18.6061 33.53C18.5209 33.6583 18.4652 33.7981 18.4392 33.9495C18.4136 34.0983 18.3414 34.2261 18.2798 34.3629C18.2618 34.402 18.2588 34.4426 18.2708 34.4847C18.2898 34.5559 18.2738 34.618 18.2227 34.6711C18.2046 34.6892 18.1901 34.7092 18.1791 34.7313C18.166 34.7573 18.1665 34.7779 18.1806 34.7929C18.2187 34.833 18.2177 34.8721 18.1776 34.9102C18.0553 35.0274 18.0042 35.1663 18.0242 35.3266C18.0312 35.3838 18.0202 35.4374 17.9911 35.4875L17.8648 35.707C17.8539 35.7256 17.8468 35.7462 17.8439 35.7676C17.8411 35.789 17.8426 35.8109 17.8483 35.8318C17.9074 36.0483 17.8894 36.2478 17.7942 36.4302C17.7731 36.4723 17.7621 36.5164 17.7611 36.5625C17.7601 36.6667 17.725 36.7564 17.6559 36.8316C17.6375 36.8518 17.6239 36.8758 17.6158 36.9017C17.6077 36.9277 17.6055 36.9551 17.6093 36.982C17.6333 37.1644 17.6083 37.3463 17.5341 37.5277C17.502 37.6079 17.4599 37.6821 17.4078 37.7502C17.3557 37.8164 17.3341 37.8895 17.3431 37.9697C17.3492 38.0208 17.3411 38.07 17.3191 38.1171C17.2339 38.2965 17.1617 38.4804 17.1026 38.6688C17.0605 38.8026 16.9778 38.8989 16.8891 39.0026C16.86 39.0367 16.8445 39.0763 16.8425 39.1214C16.8285 39.37 16.7237 39.6055 16.5283 39.828C16.417 39.9543 16.3539 40.1097 16.3388 40.2941C16.3339 40.3485 16.31 40.3996 16.2712 40.4384C16.1188 40.5878 16.0462 40.7697 16.0532 40.9842C16.0542 41.0373 16.0346 41.0809 15.9945 41.115C15.9073 41.1881 15.8693 41.2809 15.8803 41.3931C15.884 41.4306 15.8793 41.4685 15.8666 41.5038C15.8538 41.5392 15.8333 41.5713 15.8066 41.5976C15.7405 41.6617 15.7229 41.7379 15.754 41.8261C15.7649 41.8549 15.7696 41.8857 15.7678 41.9166C15.7659 41.9474 15.7577 41.9775 15.7435 42.005L15.4713 42.5448C15.4443 42.5977 15.4394 42.6593 15.4578 42.7162C15.4899 42.8214 15.4543 42.8961 15.3511 42.9402C15.313 42.9562 15.3085 42.9793 15.3375 43.0093L15.3721 43.0424C15.4202 43.0915 15.4162 43.1361 15.3601 43.1762C15.2729 43.2394 15.2218 43.3271 15.2067 43.4393C15.1686 43.722 15.0263 44.0447 14.7797 44.4076C14.7517 44.4497 14.7341 44.4953 14.7271 44.5444C14.7141 44.6286 14.6785 44.6962 14.6204 44.7473C14.5753 44.7864 14.5507 44.8355 14.5467 44.8947C14.5367 45.0601 14.458 45.1397 14.3107 45.1337C14.3029 45.1333 14.2951 45.1345 14.2879 45.1373C14.2807 45.1401 14.2741 45.1444 14.2687 45.15C14.2633 45.1556 14.2591 45.1622 14.2565 45.1695C14.2539 45.1768 14.2529 45.1846 14.2535 45.1924C14.2706 45.461 14.2505 45.6665 14.1934 45.8088C14.0791 46.0894 13.9884 46.3771 13.9213 46.6718C13.8952 46.786 13.8521 46.8918 13.792 46.989C13.6988 47.1383 13.6431 47.2396 13.6251 47.2927C13.4377 47.8299 13.2362 48.3617 13.0207 48.8879C12.9756 49.0006 13.0026 49.0939 12.9606 49.2066C12.9425 49.2567 12.9435 49.3063 12.9636 49.3555C12.9986 49.4376 12.9741 49.5033 12.8899 49.5524C12.8378 49.5825 12.8032 49.6266 12.7861 49.6847C12.74 49.8411 12.6939 49.9954 12.6478 50.1478C12.6077 50.2841 12.5476 50.4319 12.4674 50.5913C12.3542 50.8148 12.2554 51.0448 12.1712 51.2814C12.1672 51.2924 12.1692 51.3024 12.1772 51.3115C12.1863 51.3215 12.1933 51.3335 12.1983 51.3475C12.2013 51.3546 12.2008 51.3616 12.1968 51.3686C12.0865 51.554 11.9748 51.7249 11.8615 51.8813C11.8435 51.9063 11.835 51.9334 11.836 51.9625C11.84 52.0106 11.8294 52.0552 11.8044 52.0963C11.7172 52.2386 11.6355 52.3804 11.5593 52.5217C11.4842 52.6611 11.4285 52.8139 11.3924 52.9803C11.2932 53.4374 11.1644 53.8844 11.006 54.3214C10.9329 54.5239 10.8672 54.7223 10.8091 54.9168C10.755 55.1002 10.6838 55.2851 10.5956 55.4715C10.4322 55.8183 10.2714 56.1666 10.113 56.5165C10.101 56.5425 10.1025 56.5671 10.1175 56.5901C10.1295 56.6102 10.129 56.6297 10.116 56.6488C9.99672 56.8131 9.88898 56.978 9.79275 57.1434C9.75869 57.2019 9.74494 57.2696 9.75366 57.3358C9.77772 57.5122 9.76168 57.6796 9.70555 57.838C9.65444 57.9793 9.65995 58.1096 9.72209 58.2289C9.75116 58.286 9.73462 58.3086 9.67248 58.2966C9.55821 58.2735 9.49106 58.3036 9.47101 58.3868C7.52253 56.4914 6.13132 54.2673 5.2974 51.7144C4.93807 50.6124 4.71706 49.4006 4.46899 48.2685C4.24147 47.2281 4.256 46.1821 4.51259 45.1307C4.70804 44.3289 4.80627 43.9234 4.80727 43.9144C5.18464 41.9554 5.92585 40.0806 6.93918 38.3426C9.54418 33.8733 12.2965 29.1294 15.1962 24.1108C15.4398 23.6898 15.6858 23.2864 15.9344 22.9005C16.865 21.4632 18.4452 20.2664 20.1952 19.8831C21.2176 19.6605 22.1257 19.5974 23.1676 19.844Z" fill="#2D7CEE"/>
<path d="M23.1673 19.8457C23.8849 19.968 24.5595 20.208 25.1909 20.5659C26.2373 21.1582 27.2802 21.7576 28.3196 22.364C28.4549 22.4422 28.5692 22.4798 28.6624 22.4768C29.6697 23.0501 30.668 23.6214 31.6573 24.1907C32.9473 24.9344 33.7657 25.4712 34.1125 25.8009C34.8933 26.5436 35.4856 27.3956 35.8896 28.3568C36.6623 30.197 36.5616 32.335 35.64 34.097C35.3513 34.6493 35.0436 35.2056 34.7169 35.7659C33.6133 37.6572 32.5088 39.5631 31.4032 41.4835C31.3351 41.6018 31.2674 41.7191 31.2003 41.8354C30.4064 43.2085 29.5174 44.7496 28.5331 46.4585C27.9879 47.4047 27.4396 48.3489 26.8883 49.291C26.1025 50.6351 25.3237 51.9507 24.5519 53.2376C24.5219 53.2887 24.5189 53.3574 24.5429 53.4436C24.4898 53.4526 24.4467 53.4887 24.4136 53.5518C24.0317 54.284 23.6393 55.0688 23.4063 55.8552C22.5493 58.7418 22.6726 61.5448 23.7762 64.264C24.4477 65.9228 25.4691 67.3692 26.8402 68.603C27.1028 68.8396 27.3664 69.0771 27.631 69.3157C27.2391 69.1332 26.8603 68.9373 26.4944 68.7278C20.0255 65.0193 15.258 62.2674 12.192 60.4723C11.2638 59.929 10.3567 59.2344 9.4707 58.3885C9.49075 58.3053 9.5579 58.2752 9.67217 58.2983C9.73431 58.3103 9.75085 58.2878 9.72178 58.2306C9.65964 58.1114 9.65413 57.9811 9.70524 57.8397C9.76137 57.6814 9.77741 57.514 9.75335 57.3376C9.74463 57.2713 9.75838 57.2036 9.79244 57.1451C9.88867 56.9797 9.99641 56.8149 10.1157 56.6505C10.1287 56.6314 10.1292 56.6119 10.1172 56.5919C10.1022 56.5688 10.1007 56.5442 10.1127 56.5182C10.271 56.1684 10.4319 55.8201 10.5953 55.4733C10.6835 55.2868 10.7547 55.1019 10.8088 54.9185C10.8669 54.7241 10.9326 54.5256 11.0057 54.3231C11.1641 53.8861 11.2929 53.4391 11.3921 52.982C11.4282 52.8157 11.4838 52.6628 11.559 52.5235C11.6352 52.3822 11.7169 52.2403 11.8041 52.098C11.8291 52.0569 11.8397 52.0123 11.8357 51.9642C11.8346 51.9351 11.8432 51.9081 11.8612 51.883C11.9745 51.7266 12.0862 51.5558 12.1965 51.3703C12.2005 51.3633 12.201 51.3563 12.198 51.3493C12.193 51.3352 12.186 51.3232 12.1769 51.3132C12.1689 51.3042 12.1669 51.2941 12.1709 51.2831C12.2551 51.0466 12.3538 50.8165 12.4671 50.593C12.5473 50.4337 12.6074 50.2858 12.6475 50.1495C12.6936 49.9972 12.7397 49.8428 12.7858 49.6864C12.8029 49.6283 12.8375 49.5842 12.8896 49.5541C12.9738 49.505 12.9983 49.4394 12.9632 49.3572C12.9432 49.3081 12.9422 49.2585 12.9602 49.2083C13.0023 49.0956 12.9753 49.0024 13.0204 48.8896C13.2359 48.3634 13.4373 47.8317 13.6248 47.2944C13.6428 47.2413 13.6984 47.1401 13.7917 46.9907C13.8518 46.8935 13.8949 46.7878 13.921 46.6735C13.9881 46.3788 14.0788 46.0912 14.1931 45.8105C14.2502 45.6682 14.2703 45.4627 14.2532 45.1941C14.2526 45.1864 14.2536 45.1786 14.2562 45.1713C14.2588 45.1639 14.263 45.1573 14.2684 45.1517C14.2738 45.1462 14.2804 45.1418 14.2876 45.139C14.2948 45.1362 14.3026 45.135 14.3104 45.1355C14.4577 45.1415 14.5364 45.0618 14.5464 44.8964C14.5504 44.8373 14.575 44.7882 14.6201 44.7491C14.6782 44.698 14.7138 44.6303 14.7268 44.5461C14.7338 44.497 14.7514 44.4514 14.7794 44.4093C15.026 44.0464 15.1683 43.7237 15.2064 43.4411C15.2214 43.3288 15.2726 43.2411 15.3598 43.1779C15.4159 43.1379 15.4199 43.0933 15.3718 43.0441L15.3372 43.0111C15.3082 42.981 15.3127 42.9579 15.3507 42.9419C15.454 42.8978 15.4896 42.8231 15.4575 42.7179C15.4391 42.6611 15.444 42.5994 15.471 42.5465L15.7432 42.0068C15.7574 41.9793 15.7656 41.9491 15.7674 41.9183C15.7693 41.8875 15.7646 41.8566 15.7537 41.8278C15.7226 41.7396 15.7401 41.6635 15.8063 41.5993C15.833 41.573 15.8535 41.541 15.8663 41.5056C15.879 41.4702 15.8837 41.4324 15.88 41.3948C15.8689 41.2826 15.907 41.1899 15.9942 41.1167C16.0343 41.0826 16.0539 41.039 16.0529 40.9859C16.0458 40.7714 16.1185 40.5895 16.2709 40.4401C16.3097 40.4013 16.3336 40.3503 16.3385 40.2958C16.3536 40.1114 16.4167 39.956 16.528 39.8297C16.7234 39.6072 16.8282 39.3717 16.8422 39.1231C16.8442 39.078 16.8597 39.0384 16.8888 39.0043C16.9775 38.9006 17.0602 38.8044 17.1023 38.6706C17.1614 38.4821 17.2336 38.2982 17.3188 38.1188C17.3408 38.0717 17.3489 38.0226 17.3428 37.9715C17.3338 37.8913 17.3554 37.8181 17.4075 37.752C17.4596 37.6838 17.5017 37.6096 17.5338 37.5294C17.6079 37.348 17.633 37.1661 17.609 36.9837C17.6052 36.9568 17.6074 36.9294 17.6155 36.9035C17.6235 36.8775 17.6372 36.8535 17.6556 36.8333C17.7247 36.7582 17.7598 36.6685 17.7608 36.5642C17.7618 36.5181 17.7728 36.474 17.7939 36.4319C17.8891 36.2495 17.9071 36.05 17.848 35.8335C17.8423 35.8126 17.8408 35.7908 17.8436 35.7693C17.8465 35.7479 17.8536 35.7273 17.8645 35.7087L17.9908 35.4892C18.0199 35.4391 18.0309 35.3855 18.0239 35.3284C18.0039 35.168 18.055 35.0292 18.1773 34.9119C18.2174 34.8738 18.2184 34.8347 18.1803 34.7946C18.1662 34.7796 18.1657 34.7591 18.1788 34.733C18.1898 34.7109 18.2043 34.6909 18.2224 34.6729C18.2735 34.6197 18.2895 34.5576 18.2705 34.4864C18.2584 34.4443 18.2615 34.4037 18.2795 34.3646C18.3411 34.2278 18.4133 34.1 18.4389 33.9512C18.4649 33.7998 18.5205 33.66 18.6057 33.5317C18.6338 33.4896 18.6509 33.4435 18.6569 33.3934C18.6809 33.1789 18.721 32.9895 18.7771 32.8251C18.8473 32.6156 18.9801 32.2753 19.1756 31.8043C19.1866 31.7772 19.1836 31.7526 19.1665 31.7306C19.1575 31.7186 19.152 31.705 19.15 31.69C19.148 31.678 19.1525 31.6734 19.1635 31.6765C19.1956 31.6855 19.2267 31.683 19.2567 31.6689C19.2755 31.6605 19.2907 31.6459 19.3 31.6276C19.3093 31.6092 19.3121 31.5883 19.3079 31.5682C19.2968 31.5181 19.3069 31.471 19.3379 31.4269C19.366 31.3868 19.377 31.3422 19.371 31.2931C19.349 31.1287 19.4151 30.9949 19.5695 30.8916C19.6176 30.8596 19.6421 30.8145 19.6431 30.7563C19.6461 30.5619 19.6958 30.3875 19.792 30.2331C19.8051 30.2121 19.8133 30.1883 19.8159 30.1636C19.8185 30.1389 19.8155 30.1138 19.807 30.0903C19.7769 30.0091 19.7739 29.9289 19.798 29.8497C19.8561 29.6593 19.9403 29.4689 20.0506 29.2784C20.1568 29.096 20.238 28.9091 20.2941 28.7176C20.4204 28.2927 20.5407 27.8496 20.655 27.3886C20.7362 27.0608 20.8329 26.7281 20.9451 26.3903C21.0564 26.0585 21.1651 25.7247 21.2714 25.389C21.551 24.5069 21.9069 23.5618 22.3388 22.5534C22.4561 22.2768 22.4456 21.9716 22.5313 21.6814C22.5523 21.6083 22.5909 21.5446 22.6471 21.4905C22.7403 21.4023 22.7658 21.2895 22.7237 21.1522C22.7077 21.1011 22.7087 21.0505 22.7267 21.0004L22.9793 20.2712C22.9994 20.2141 23.04 20.1855 23.1011 20.1855C23.1462 20.1865 23.1808 20.1679 23.2048 20.1299C23.2239 20.1018 23.2189 20.0782 23.1898 20.0592L23.0425 19.9615C23.0154 19.9434 22.9908 19.9464 22.9688 19.9705C22.9457 19.9935 22.9197 19.9996 22.8906 19.9885C22.8124 19.9585 22.8154 19.9449 22.8996 19.9479C22.9267 19.9489 22.9543 19.9509 22.9823 19.954C23.0224 19.958 23.058 19.9479 23.0891 19.9239C23.1141 19.9048 23.1402 19.8788 23.1673 19.8457Z" fill="#2D7CEE"/>
<path d="M68.7686 21.53C69.8501 22.1213 70.6425 22.6185 71.1456 23.0214C73.4409 24.8566 75.003 27.2296 75.8319 30.1403C76.2178 31.4954 76.3812 32.7734 76.322 33.9741C76.299 34.4252 76.2308 34.8436 76.1176 35.2295C75.9552 35.7858 75.892 36.3692 75.7086 36.9224C75.3157 38.1021 74.9163 39.0423 74.5104 39.7429C71.1687 45.5122 67.828 51.283 64.4883 57.0553C63.2604 59.1782 61.4142 60.4937 58.9495 61.0019C58.5706 61.0811 57.9978 61.1267 57.2311 61.1387C56.6227 61.1487 56.0649 61.0866 55.5577 60.9523C54.7218 60.7328 54.0297 60.4692 53.4814 60.1615C52.2546 59.4759 51.0258 58.7823 49.7949 58.0807C49.82 57.9734 49.8967 57.809 50.025 57.5875C53.4017 51.7531 56.7775 45.9192 60.1523 40.0857C61.1305 38.3948 61.4493 36.5375 61.1085 34.5139C60.7762 32.5458 59.4923 30.4816 57.852 29.3886C57.0642 28.8634 55.8519 28.1517 54.2151 27.2537C54.0998 27.1905 54.0537 27.0757 54.0768 26.9094C56.0363 23.1718 59.149 21.0804 63.4148 20.6354C63.7155 20.6033 64.2227 20.5998 64.9363 20.6249C65.4555 20.6429 65.9562 20.7136 66.4383 20.8369C67.202 21.0313 67.9788 21.2624 68.7686 21.53Z" fill="#E94134"/>
<path d="M54.0763 26.9097C54.0532 27.0761 54.0994 27.1908 54.2146 27.254C55.8514 28.152 57.0637 28.8637 57.8515 29.3889C59.4918 30.4819 60.7757 32.5462 61.108 34.5142C61.4488 36.5378 61.1301 38.3951 60.1518 40.086C56.777 45.9195 53.4012 51.7534 50.0245 57.5878C49.8962 57.8094 49.8195 57.9737 49.7944 58.081C49.7143 58.1211 49.6571 58.1722 49.623 58.2343C48.5536 60.1387 47.4651 62.0326 46.3575 63.9159C45.1472 65.9712 43.7956 67.7798 41.775 69.1104C39.8986 70.3452 37.8399 71.0749 35.5987 71.2994C32.7672 71.5821 30.1111 70.9206 27.6304 69.3149C27.3658 69.0763 27.1022 68.8388 26.8396 68.6022C25.4684 67.3684 24.447 65.922 23.7755 64.2632C22.672 61.544 22.5487 58.741 23.4056 55.8543C23.6387 55.068 24.0311 54.2832 24.413 53.551C24.446 53.4879 24.4891 53.4518 24.5423 53.4428C24.6625 53.539 24.8876 53.6844 25.2173 53.8788C25.9971 54.3399 26.7574 54.7854 27.4981 55.2154C28.4693 55.7797 29.2757 56.1425 29.9171 56.3039C31.2703 56.6437 32.5051 56.6933 33.6217 56.4527C35.7997 55.9836 37.47 54.9458 38.6327 53.3391C38.9384 52.9171 39.4712 52.0501 40.2309 50.7381C44.7593 42.913 49.2336 35.1767 53.6538 27.5291C53.8042 27.2685 53.945 27.062 54.0763 26.9097Z" fill="#FDBE01"/>
</svg>
