<svg width="90" height="90" viewBox="0 0 90 90" fill="none" xmlns="http://www.w3.org/2000/svg">
<rect opacity="0.4" width="89.0642" height="89.0642" rx="7.12514" fill="#B8EAFF"/>
<path d="M18.7697 14.2715C17.6989 13.4066 22.6177 7.35185 23.6733 8.20343L32.7696 15.5547C31.566 16.1427 30.4905 16.9627 29.6047 17.9676C28.719 18.9725 28.0405 20.1425 27.6083 21.4103L18.7697 14.2665V14.2715Z" fill="#25BBA4"/>
<path d="M67.3845 75.9714C64.4166 79.9482 59.9596 79.7039 39.2976 79.7039C29.9604 79.7039 18.7695 80.0636 18.7695 77.9639C18.7695 72.8679 28.7609 72.9817 38.0797 72.9817C47.3985 72.9817 55.3655 72.2907 55.3655 67.4606C55.3655 64.9678 54.2395 63.186 51.3502 62.0434C55.322 60.9509 60.0499 57.6935 62.3738 55.6992L64.1054 57.3723C67.8864 60.5527 71.1656 70.9054 67.3845 75.9714Z" fill="#25BBA4"/>
<path d="M40.6774 42.8735C40.6774 42.8735 40.7611 48.6588 40.7611 50.0441C40.7611 51.4294 34.4353 51.7171 34.4353 50.3018C34.4353 48.8864 34.335 43.8522 34.335 41.5133C34.335 40.6768 34.335 39.852 37.7295 40.1749C38.6915 40.2686 39.7874 40.2267 40.6758 39.8604L40.6774 42.8735Z" fill="#25BBA4"/>
<path d="M48.6218 46.2873L42.2073 41.1009L42.0584 40.9804L40.5293 39.744C42.3696 38.9861 43.9506 37.3566 44.8273 35.3306L52.4781 41.5208C53.4301 42.2837 49.7009 47.1589 48.6218 46.2873Z" fill="#25BBA4"/>
<path d="M44.8273 35.3299C43.9506 37.356 42.3713 38.9855 40.5293 39.7434C38.3142 37.9516 36.0305 36.1012 34.2052 34.6222C29.7097 30.9784 27.2002 27.373 27.2002 23.7475C27.2115 22.9539 27.3493 22.1672 27.6084 21.417L44.8273 35.3299Z" fill="#25BBA4"/>
<path d="M45.5617 31.8198C45.559 33.0287 45.309 34.2243 44.8273 35.3331L27.6084 21.4152C28.0406 20.1473 28.7191 18.9773 29.6048 17.9724C30.4906 16.9675 31.5661 16.1475 32.7697 15.5596L39.7797 21.2261C42.4315 23.3626 45.5617 27.157 45.5617 31.8198Z" fill="#25BBA4"/>
<path d="M51.3556 62.0371C47.7151 63.041 43.3251 63.5998 38.0801 63.5998C25.9556 63.5998 25.9121 62.3584 25.9121 61.9267C25.9121 61.4951 25.8251 60.4595 38.045 60.4595C44.3858 60.4595 48.647 60.9664 51.3556 62.0371Z" fill="#25BBA4"/>
<path d="M64.1105 57.3638C67.8882 60.556 71.1657 70.9154 67.3847 75.9746C64.4167 79.9514 59.9597 79.7072 39.2978 79.7072C29.9606 79.7072 18.7697 80.0669 18.7697 77.9672C18.7697 72.8712 28.761 72.9849 38.0798 72.9849C47.3986 72.9849 55.3656 72.294 55.3656 67.4639C55.3656 62.6339 51.1295 60.4589 38.0464 60.4589C25.8249 60.4589 25.9119 61.4945 25.9119 61.9262C25.9119 62.3578 25.9554 63.5992 38.0798 63.5992C62.3572 63.5992 68.3885 51.6136 66.1868 39.091C63.3978 23.2791 52.6971 14.581 37.1781 14.581C30.685 14.581 27.2051 20.1204 27.2051 23.7459C27.2051 27.3714 29.7147 30.9784 34.2101 34.6206C39.1757 38.6459 47.5475 45.4134 48.6266 46.285C49.7057 47.1567 53.4349 42.2814 52.4746 41.5118L18.7697 14.2715C17.6989 13.4066 22.6177 7.35185 23.6733 8.20343L39.7796 21.2263C42.4264 23.3661 45.5566 27.1606 45.5566 31.8233C45.5566 36.486 41.7438 40.5699 37.7235 40.1885C34.3289 39.8539 34.3289 40.6803 34.3289 41.5269C34.3289 43.8691 34.4293 48.9066 34.4293 50.3153C34.4293 51.724 40.755 51.4413 40.755 50.0577C40.755 48.6741 40.673 42.8887 40.673 42.8887" stroke="#075E65" stroke-width="1.43218" stroke-miterlimit="10" stroke-linecap="round"/>
</svg>
