<svg width="44" height="44" viewBox="0 0 44 44" fill="none" xmlns="http://www.w3.org/2000/svg">
<path d="M40.9655 18.3764V38.9611C40.9655 40.0666 40.0851 40.9642 39.0008 40.9642H30.9154C29.8311 40.9642 28.9507 40.0666 28.9507 38.9611V26.7287C28.9507 25.6232 28.0703 24.729 26.986 24.729H18.3701C17.2858 24.729 16.4054 25.6232 16.4054 26.7287V38.9611C16.4054 40.0633 15.5315 40.9609 14.4504 40.9642H6.35534C5.27102 40.9642 4.39062 40.0666 4.39062 38.9611V18.3764C4.39386 17.7659 4.66251 17.1918 5.1286 16.8122L21.4447 3.37176C22.1697 2.77777 23.2023 2.77777 23.9305 3.37176L40.2276 16.8122C40.6937 17.1917 40.9623 17.7659 40.9655 18.3764Z" fill="#646464"/>
</svg>
