<svg width="296" height="70" viewBox="0 0 296 70" fill="none" xmlns="http://www.w3.org/2000/svg">
<circle cx="34.5082" cy="34.5082" r="34.5082" fill="white"/>
<path d="M9.94381 20.7858H15.2009L21.1749 39.4063L27.1489 20.7858H32.406L23.3072 47.5493H19.0427L9.94381 20.7858ZM6.74543 20.7858H12.1864L13.1973 41.2996V47.5493H6.74543V20.7858ZM30.1635 20.7858H35.6228V47.5493H29.1525V41.2996L30.1635 20.7858ZM62.1106 20.7858V47.5493H55.677L46.2106 30.8957V47.5493H39.7586V20.7858H46.2106L55.677 37.4395V20.7858H62.1106Z" fill="#289E9E"/>
<path d="M85.7492 38.353V11.1484H93.2489L99.7927 30.2835L106.539 11.1484H113.119V38.353H107.899V17.8209L101.263 36.5333H96.7046L90.1975 17.5451V38.353H85.7492ZM119.939 38.353V11.1484H136.942V14.8798H125.6V22.4714H134.901V26.2212H125.6V34.4929H137.806V38.353H119.939ZM142.548 38.353V11.1484H154.257C157.394 11.1484 159.833 11.6508 161.573 12.6557C163.325 13.6605 164.716 15.1433 165.746 17.104C166.787 19.0524 167.308 21.4114 167.308 24.1809C167.308 26.8891 166.812 29.3093 165.819 31.4416C164.839 33.5738 163.405 35.2588 161.518 36.4965C159.631 37.7342 157.045 38.353 153.761 38.353H142.548ZM148.21 34.4929H152.437C154.643 34.4929 156.328 34.1498 157.492 33.4635C158.669 32.7773 159.594 31.6193 160.268 29.9894C160.954 28.3474 161.297 26.5215 161.297 24.5117C161.297 22.5878 160.966 20.8845 160.305 19.4017C159.643 17.9189 158.724 16.7976 157.547 16.0379C156.383 15.2658 154.41 14.8798 151.629 14.8798H148.21V34.4929ZM172.4 38.353V11.1484H177.381L189.991 29.7321V11.1484H194.531V38.353H189.458L176.94 19.7693V38.353H172.4ZM201.332 38.353V11.1484H218.335V14.8798H206.994V22.4714H216.295V26.2212H206.994V34.4929H219.199V38.353H201.332ZM221.442 38.353L230.154 24.9529L221.828 11.1484H228.427L233.959 20.3024L239.952 11.1484H244.529L236.184 23.9787L244.823 38.353H238.242L232.342 28.6292L226.019 38.353H221.442ZM248.83 11.1484H254.492V27.8204C254.492 30.835 255 32.8324 256.017 33.8128C257.047 34.7931 258.376 35.2833 260.006 35.2833C261.611 35.2833 262.886 34.7993 263.829 33.8312C264.785 32.8631 265.263 30.9943 265.263 28.2248V11.1484H270.189V27.8572C270.189 31.0065 269.791 33.2675 268.995 34.64C268.21 36.0002 267.071 37.0724 265.576 37.8567C264.081 38.641 262.187 39.0331 259.896 39.0331C257.641 39.0331 255.705 38.6716 254.087 37.9486C252.47 37.2134 251.189 36.1289 250.245 34.6951C249.302 33.2491 248.83 30.9514 248.83 27.802V11.1484ZM275.244 38.1141V33.4452C277.34 34.3275 278.902 34.8544 279.932 35.026C280.973 35.1975 281.929 35.2833 282.799 35.2833C284.368 35.2833 285.538 34.9279 286.31 34.2172C287.082 33.5064 287.468 32.6548 287.468 31.6622C287.468 30.9024 287.26 30.2161 286.843 29.6034C286.426 29.003 285.373 28.2248 283.681 27.269L281.862 26.258C279.264 24.7997 277.505 23.4517 276.586 22.214C275.655 20.9764 275.189 19.5426 275.189 17.9128C275.189 15.8663 275.961 14.1139 277.505 12.6557C279.062 11.1974 281.292 10.4683 284.196 10.4683C286.365 10.4683 288.81 10.7807 291.53 11.4057V15.7621C288.761 14.7205 286.561 14.1997 284.931 14.1997C283.583 14.1997 282.554 14.4999 281.843 15.1004C281.145 15.6886 280.796 16.3994 280.796 17.2327C280.796 17.8699 281.004 18.4642 281.421 19.0157C281.825 19.5671 282.873 20.3208 284.564 21.2766L286.512 22.3611C289.49 24.0399 291.389 25.4982 292.211 26.7359C293.019 27.9858 293.424 29.389 293.424 30.9453C293.424 33.1756 292.578 35.0811 290.887 36.6619C289.208 38.2427 286.531 39.0331 282.854 39.0331C280.673 39.0331 278.136 38.7268 275.244 38.1141Z" fill="white"/>
<path d="M90.5959 59.039H92.1068C92.0281 59.763 91.8209 60.411 91.4851 60.9828C91.1494 61.5547 90.6746 62.0085 90.0607 62.3442C89.4469 62.6747 88.681 62.84 87.7628 62.84C87.0913 62.84 86.4801 62.7141 85.9293 62.4623C85.3836 62.2104 84.9141 61.8537 84.5206 61.392C84.1271 60.9251 83.8229 60.3664 83.6078 59.7158C83.3979 59.06 83.293 58.3308 83.293 57.5281V56.387C83.293 55.5843 83.3979 54.8577 83.6078 54.2072C83.8229 53.5514 84.1298 52.99 84.5285 52.5231C84.9325 52.0562 85.4177 51.6968 85.9843 51.445C86.5509 51.1931 87.1884 51.0672 87.8966 51.0672C88.7623 51.0672 89.4941 51.2299 90.0922 51.5551C90.6903 51.8804 91.1546 52.3316 91.4851 52.9087C91.8209 53.4805 92.0281 54.1442 92.1068 54.8997H90.5959C90.5224 54.3646 90.386 53.9055 90.1867 53.5225C89.9873 53.1343 89.704 52.8352 89.3367 52.6254C88.9695 52.4155 88.4895 52.3106 87.8966 52.3106C87.3877 52.3106 86.9392 52.4077 86.5509 52.6018C86.168 52.7959 85.8453 53.0713 85.583 53.4281C85.3259 53.7848 85.1318 54.2124 85.0007 54.7108C84.8695 55.2092 84.8039 55.7627 84.8039 56.3713V57.5281C84.8039 58.0895 84.8616 58.6167 84.977 59.1099C85.0977 59.603 85.2787 60.0358 85.52 60.4083C85.7614 60.7808 86.0683 61.0746 86.4408 61.2897C86.8133 61.4996 87.254 61.6045 87.7628 61.6045C88.4081 61.6045 88.9223 61.5022 89.3053 61.2976C89.6883 61.093 89.9768 60.7992 90.1709 60.4162C90.3703 60.0332 90.5119 59.5742 90.5959 59.039ZM102.998 56.5916V57.3156C102.998 58.176 102.891 58.9472 102.676 59.6293C102.46 60.3113 102.151 60.891 101.747 61.3684C101.343 61.8458 100.858 62.2104 100.291 62.4623C99.7297 62.7141 99.1002 62.84 98.4024 62.84C97.7256 62.84 97.1039 62.7141 96.5373 62.4623C95.976 62.2104 95.4881 61.8458 95.0736 61.3684C94.6644 60.891 94.347 60.3113 94.1214 59.6293C93.8958 58.9472 93.783 58.176 93.783 57.3156V56.5916C93.783 55.7312 93.8932 54.9626 94.1135 54.2859C94.3391 53.6038 94.6565 53.0241 95.0657 52.5467C95.475 52.064 95.9602 51.6968 96.5216 51.445C97.0882 51.1931 97.7099 51.0672 98.3867 51.0672C99.0844 51.0672 99.714 51.1931 100.275 51.445C100.842 51.6968 101.327 52.064 101.731 52.5467C102.14 53.0241 102.453 53.6038 102.668 54.2859C102.888 54.9626 102.998 55.7312 102.998 56.5916ZM101.495 57.3156V56.5759C101.495 55.8939 101.424 55.2905 101.283 54.7659C101.146 54.2413 100.944 53.8006 100.677 53.4438C100.409 53.0871 100.081 52.8169 99.693 52.6333C99.31 52.4496 98.8746 52.3578 98.3867 52.3578C97.9145 52.3578 97.4869 52.4496 97.1039 52.6333C96.7262 52.8169 96.4009 53.0871 96.1281 53.4438C95.8606 53.8006 95.6533 54.2413 95.5064 54.7659C95.3595 55.2905 95.2861 55.8939 95.2861 56.5759V57.3156C95.2861 58.0029 95.3595 58.6115 95.5064 59.1413C95.6533 59.666 95.8632 60.1093 96.136 60.4713C96.4141 60.828 96.7419 61.0982 97.1197 61.2818C97.5027 61.4655 97.9302 61.5573 98.4024 61.5573C98.8956 61.5573 99.3336 61.4655 99.7166 61.2818C100.1 61.0982 100.422 60.828 100.685 60.4713C100.952 60.1093 101.154 59.666 101.291 59.1413C101.427 58.6115 101.495 58.0029 101.495 57.3156ZM114.086 51.2246V62.6826H112.56L106.791 53.8452V62.6826H105.272V51.2246H106.791L112.583 60.0857V51.2246H114.086ZM125.592 51.2246V62.6826H124.065L118.297 53.8452V62.6826H116.778V51.2246H118.297L124.088 60.0857V51.2246H125.592ZM135.562 61.4471V62.6826H129.495V61.4471H135.562ZM129.802 51.2246V62.6826H128.283V51.2246H129.802ZM134.76 56.1509V57.3864H129.495V56.1509H134.76ZM135.483 51.2246V52.468H129.495V51.2246H135.483ZM144.36 59.039H145.871C145.793 59.763 145.585 60.411 145.25 60.9828C144.914 61.5547 144.439 62.0085 143.825 62.3442C143.211 62.6747 142.445 62.84 141.527 62.84C140.856 62.84 140.245 62.7141 139.694 62.4623C139.148 62.2104 138.679 61.8537 138.285 61.392C137.892 60.9251 137.587 60.3664 137.372 59.7158C137.162 59.06 137.057 58.3308 137.057 57.5281V56.387C137.057 55.5843 137.162 54.8577 137.372 54.2072C137.587 53.5514 137.894 52.99 138.293 52.5231C138.697 52.0562 139.182 51.6968 139.749 51.445C140.315 51.1931 140.953 51.0672 141.661 51.0672C142.527 51.0672 143.259 51.2299 143.857 51.5551C144.455 51.8804 144.919 52.3316 145.25 52.9087C145.585 53.4805 145.793 54.1442 145.871 54.8997H144.36C144.287 54.3646 144.15 53.9055 143.951 53.5225C143.752 53.1343 143.468 52.8352 143.101 52.6254C142.734 52.4155 142.254 52.3106 141.661 52.3106C141.152 52.3106 140.704 52.4077 140.315 52.6018C139.932 52.7959 139.61 53.0713 139.347 53.4281C139.09 53.7848 138.896 54.2124 138.765 54.7108C138.634 55.2092 138.568 55.7627 138.568 56.3713V57.5281C138.568 58.0895 138.626 58.6167 138.741 59.1099C138.862 59.603 139.043 60.0358 139.284 60.4083C139.526 60.7808 139.833 61.0746 140.205 61.2897C140.578 61.4996 141.018 61.6045 141.527 61.6045C142.173 61.6045 142.687 61.5022 143.07 61.2976C143.453 61.093 143.741 60.7992 143.935 60.4162C144.135 60.0332 144.276 59.5742 144.36 59.039ZM151.939 51.2246V62.6826H150.443V51.2246H151.939ZM155.622 51.2246V52.468H146.768V51.2246H155.622ZM164.923 51.2246V62.6826H163.428V51.2246H164.923ZM168.606 51.2246V52.468H159.753V51.2246H168.606ZM178.907 56.5916V57.3156C178.907 58.176 178.8 58.9472 178.585 59.6293C178.37 60.3113 178.06 60.891 177.656 61.3684C177.252 61.8458 176.767 62.2104 176.2 62.4623C175.639 62.7141 175.009 62.84 174.312 62.84C173.635 62.84 173.013 62.7141 172.447 62.4623C171.885 62.2104 171.397 61.8458 170.983 61.3684C170.574 60.891 170.256 60.3113 170.031 59.6293C169.805 58.9472 169.692 58.176 169.692 57.3156V56.5916C169.692 55.7312 169.802 54.9626 170.023 54.2859C170.248 53.6038 170.566 53.0241 170.975 52.5467C171.384 52.064 171.869 51.6968 172.431 51.445C172.997 51.1931 173.619 51.0672 174.296 51.0672C174.994 51.0672 175.623 51.1931 176.185 51.445C176.751 51.6968 177.236 52.064 177.64 52.5467C178.05 53.0241 178.362 53.6038 178.577 54.2859C178.797 54.9626 178.907 55.7312 178.907 56.5916ZM177.404 57.3156V56.5759C177.404 55.8939 177.333 55.2905 177.192 54.7659C177.055 54.2413 176.853 53.8006 176.586 53.4438C176.318 53.0871 175.99 52.8169 175.602 52.6333C175.219 52.4496 174.784 52.3578 174.296 52.3578C173.824 52.3578 173.396 52.4496 173.013 52.6333C172.635 52.8169 172.31 53.0871 172.037 53.4438C171.77 53.8006 171.563 54.2413 171.416 54.7659C171.269 55.2905 171.195 55.8939 171.195 56.5759V57.3156C171.195 58.0029 171.269 58.6115 171.416 59.1413C171.563 59.666 171.772 60.1093 172.045 60.4713C172.323 60.828 172.651 61.0982 173.029 61.2818C173.412 61.4655 173.839 61.5573 174.312 61.5573C174.805 61.5573 175.243 61.4655 175.626 61.2818C176.009 61.0982 176.331 60.828 176.594 60.4713C176.861 60.1093 177.063 59.666 177.2 59.1413C177.336 58.6115 177.404 58.0029 177.404 57.3156ZM185.707 51.2246L188.681 56.9772L191.664 51.2246H193.387L189.437 58.4016V62.6826H187.918V58.4016L183.967 51.2246H185.707ZM203.444 56.5916V57.3156C203.444 58.176 203.337 58.9472 203.122 59.6293C202.907 60.3113 202.597 60.891 202.193 61.3684C201.789 61.8458 201.304 62.2104 200.737 62.4623C200.176 62.7141 199.546 62.84 198.849 62.84C198.172 62.84 197.55 62.7141 196.984 62.4623C196.422 62.2104 195.934 61.8458 195.52 61.3684C195.111 60.891 194.793 60.3113 194.568 59.6293C194.342 58.9472 194.229 58.176 194.229 57.3156V56.5916C194.229 55.7312 194.339 54.9626 194.56 54.2859C194.785 53.6038 195.103 53.0241 195.512 52.5467C195.921 52.064 196.407 51.6968 196.968 51.445C197.534 51.1931 198.156 51.0672 198.833 51.0672C199.531 51.0672 200.16 51.1931 200.722 51.445C201.288 51.6968 201.774 52.064 202.178 52.5467C202.587 53.0241 202.899 53.6038 203.114 54.2859C203.334 54.9626 203.444 55.7312 203.444 56.5916ZM201.941 57.3156V56.5759C201.941 55.8939 201.871 55.2905 201.729 54.7659C201.593 54.2413 201.391 53.8006 201.123 53.4438C200.855 53.0871 200.528 52.8169 200.139 52.6333C199.756 52.4496 199.321 52.3578 198.833 52.3578C198.361 52.3578 197.933 52.4496 197.55 52.6333C197.173 52.8169 196.847 53.0871 196.574 53.4438C196.307 53.8006 196.1 54.2413 195.953 54.7659C195.806 55.2905 195.732 55.8939 195.732 56.5759V57.3156C195.732 58.0029 195.806 58.6115 195.953 59.1413C196.1 59.666 196.309 60.1093 196.582 60.4713C196.86 60.828 197.188 61.0982 197.566 61.2818C197.949 61.4655 198.377 61.5573 198.849 61.5573C199.342 61.5573 199.78 61.4655 200.163 61.2818C200.546 61.0982 200.869 60.828 201.131 60.4713C201.398 60.1093 201.6 59.666 201.737 59.1413C201.873 58.6115 201.941 58.0029 201.941 57.3156ZM212.274 51.2246H213.785V58.9761C213.785 59.8365 213.594 60.5526 213.211 61.1245C212.828 61.6963 212.319 62.1265 211.684 62.4151C211.054 62.6984 210.37 62.84 209.63 62.84C208.853 62.84 208.15 62.6984 207.521 62.4151C206.897 62.1265 206.401 61.6963 206.034 61.1245C205.672 60.5526 205.491 59.8365 205.491 58.9761V51.2246H206.994V58.9761C206.994 59.5742 207.104 60.0673 207.324 60.4555C207.545 60.8438 207.851 61.1323 208.245 61.3212C208.644 61.5101 209.105 61.6045 209.63 61.6045C210.16 61.6045 210.621 61.5101 211.015 61.3212C211.414 61.1323 211.723 60.8438 211.944 60.4555C212.164 60.0673 212.274 59.5742 212.274 58.9761V51.2246ZM216.169 51.2246H219.963C220.823 51.2246 221.55 51.3558 222.142 51.6181C222.741 51.8804 223.194 52.2686 223.504 52.7828C223.819 53.2917 223.976 53.9186 223.976 54.6636C223.976 55.1882 223.868 55.6683 223.653 56.1037C223.444 56.5339 223.139 56.9012 222.741 57.2054C222.347 57.5045 221.875 57.7275 221.324 57.8744L220.899 58.0396H217.334L217.318 56.8041H220.01C220.555 56.8041 221.009 56.7097 221.371 56.5208C221.733 56.3267 222.006 56.067 222.19 55.7417C222.373 55.4164 222.465 55.0571 222.465 54.6636C222.465 54.2229 222.379 53.8373 222.205 53.5068C222.032 53.1763 221.759 52.9218 221.387 52.7434C221.02 52.5598 220.545 52.468 219.963 52.468H217.688V62.6826H216.169V51.2246ZM222.866 62.6826L220.081 57.4887L221.662 57.4809L224.488 62.5882V62.6826H222.866ZM234.324 58.1891H231.263V56.9536H234.324C234.917 56.9536 235.397 56.8592 235.765 56.6703C236.132 56.4815 236.399 56.2191 236.567 55.8834C236.74 55.5476 236.827 55.1646 236.827 54.7344C236.827 54.3409 236.74 53.9711 236.567 53.6248C236.399 53.2786 236.132 53.0005 235.765 52.7907C235.397 52.5756 234.917 52.468 234.324 52.468H231.617V62.6826H230.098V51.2246H234.324C235.19 51.2246 235.922 51.3741 236.52 51.6732C237.118 51.9722 237.572 52.3867 237.881 52.9166C238.191 53.4412 238.346 54.0419 238.346 54.7187C238.346 55.4532 238.191 56.0801 237.881 56.5995C237.572 57.1189 237.118 57.515 236.52 57.7878C235.922 58.0554 235.19 58.1891 234.324 58.1891ZM243.422 52.2398L239.628 62.6826H238.078L242.446 51.2246H243.445L243.422 52.2398ZM246.601 62.6826L242.8 52.2398L242.776 51.2246H243.776L248.159 62.6826H246.601ZM246.404 58.441V59.6843H239.967V58.441H246.404ZM255.8 59.7866C255.8 59.5191 255.758 59.283 255.674 59.0784C255.596 58.8685 255.454 58.6797 255.249 58.5118C255.05 58.3439 254.772 58.1839 254.415 58.0317C254.064 57.8796 253.618 57.7248 253.077 57.5674C252.511 57.3996 251.999 57.2133 251.543 57.0087C251.086 56.7989 250.696 56.5601 250.37 56.2926C250.045 56.025 249.796 55.7181 249.623 55.3719C249.45 55.0256 249.363 54.6295 249.363 54.1836C249.363 53.7376 249.455 53.3258 249.638 52.948C249.822 52.5703 250.084 52.2424 250.425 51.9644C250.772 51.6811 251.184 51.4607 251.661 51.3033C252.138 51.1459 252.671 51.0672 253.258 51.0672C254.119 51.0672 254.848 51.2325 255.446 51.563C256.049 51.8883 256.509 52.3159 256.823 52.8457C257.138 53.3704 257.295 53.9317 257.295 54.5298H255.785C255.785 54.0996 255.693 53.7193 255.509 53.3887C255.325 53.053 255.047 52.7907 254.675 52.6018C254.302 52.4077 253.83 52.3106 253.258 52.3106C252.718 52.3106 252.272 52.3919 251.921 52.5546C251.569 52.7172 251.307 52.9376 251.134 53.2156C250.966 53.4937 250.882 53.8111 250.882 54.1678C250.882 54.4091 250.932 54.6295 251.031 54.8289C251.136 55.023 251.296 55.204 251.511 55.3719C251.732 55.5397 252.01 55.6945 252.346 55.8362C252.687 55.9778 253.093 56.1142 253.565 56.2454C254.216 56.429 254.777 56.6336 255.249 56.8592C255.722 57.0848 256.11 57.3392 256.414 57.6225C256.724 57.9006 256.952 58.218 257.099 58.5747C257.251 58.9262 257.327 59.325 257.327 59.7709C257.327 60.2378 257.233 60.6602 257.044 61.0379C256.855 61.4156 256.585 61.7383 256.233 62.0058C255.882 62.2734 255.459 62.4806 254.966 62.6275C254.478 62.7692 253.933 62.84 253.329 62.84C252.799 62.84 252.277 62.7666 251.763 62.6197C251.254 62.4728 250.79 62.2524 250.37 61.9586C249.956 61.6648 249.623 61.3028 249.371 60.8726C249.124 60.4372 249.001 59.9335 249.001 59.3617H250.512C250.512 59.7552 250.588 60.0936 250.74 60.3769C250.892 60.6549 251.1 60.8857 251.362 61.0694C251.629 61.253 251.931 61.3894 252.267 61.4786C252.608 61.5625 252.962 61.6045 253.329 61.6045C253.859 61.6045 254.308 61.531 254.675 61.3841C255.042 61.2373 255.32 61.0274 255.509 60.7546C255.703 60.4818 255.8 60.1591 255.8 59.7866ZM265.37 59.7866C265.37 59.5191 265.328 59.283 265.244 59.0784C265.165 58.8685 265.023 58.6797 264.819 58.5118C264.619 58.3439 264.341 58.1839 263.985 58.0317C263.633 57.8796 263.187 57.7248 262.647 57.5674C262.08 57.3996 261.569 57.2133 261.112 57.0087C260.656 56.7989 260.265 56.5601 259.94 56.2926C259.614 56.025 259.365 55.7181 259.192 55.3719C259.019 55.0256 258.932 54.6295 258.932 54.1836C258.932 53.7376 259.024 53.3258 259.208 52.948C259.391 52.5703 259.654 52.2424 259.995 51.9644C260.341 51.6811 260.753 51.4607 261.23 51.3033C261.708 51.1459 262.24 51.0672 262.828 51.0672C263.688 51.0672 264.417 51.2325 265.015 51.563C265.619 51.8883 266.078 52.3159 266.393 52.8457C266.707 53.3704 266.865 53.9317 266.865 54.5298H265.354C265.354 54.0996 265.262 53.7193 265.078 53.3887C264.895 53.053 264.617 52.7907 264.244 52.6018C263.872 52.4077 263.4 52.3106 262.828 52.3106C262.287 52.3106 261.841 52.3919 261.49 52.5546C261.138 52.7172 260.876 52.9376 260.703 53.2156C260.535 53.4937 260.451 53.8111 260.451 54.1678C260.451 54.4091 260.501 54.6295 260.601 54.8289C260.706 55.023 260.866 55.204 261.081 55.3719C261.301 55.5397 261.579 55.6945 261.915 55.8362C262.256 55.9778 262.662 56.1142 263.135 56.2454C263.785 56.429 264.347 56.6336 264.819 56.8592C265.291 57.0848 265.679 57.3392 265.983 57.6225C266.293 57.9006 266.521 58.218 266.668 58.5747C266.82 58.9262 266.896 59.325 266.896 59.7709C266.896 60.2378 266.802 60.6602 266.613 61.0379C266.424 61.4156 266.154 61.7383 265.802 62.0058C265.451 62.2734 265.029 62.4806 264.535 62.6275C264.048 62.7692 263.502 62.84 262.899 62.84C262.369 62.84 261.847 62.7666 261.333 62.6197C260.824 62.4728 260.359 62.2524 259.94 61.9586C259.525 61.6648 259.192 61.3028 258.94 60.8726C258.694 60.4372 258.57 59.9335 258.57 59.3617H260.081C260.081 59.7552 260.157 60.0936 260.309 60.3769C260.462 60.6549 260.669 60.8857 260.931 61.0694C261.199 61.253 261.5 61.3894 261.836 61.4786C262.177 61.5625 262.531 61.6045 262.899 61.6045C263.428 61.6045 263.877 61.531 264.244 61.3841C264.611 61.2373 264.89 61.0274 265.078 60.7546C265.273 60.4818 265.37 60.1591 265.37 59.7866ZM270.461 51.2246V62.6826H268.942V51.2246H270.461ZM282.045 56.5916V57.3156C282.045 58.176 281.938 58.9472 281.722 59.6293C281.507 60.3113 281.198 60.891 280.794 61.3684C280.39 61.8458 279.905 62.2104 279.338 62.4623C278.777 62.7141 278.147 62.84 277.449 62.84C276.772 62.84 276.151 62.7141 275.584 62.4623C275.023 62.2104 274.535 61.8458 274.12 61.3684C273.711 60.891 273.394 60.3113 273.168 59.6293C272.943 58.9472 272.83 58.176 272.83 57.3156V56.5916C272.83 55.7312 272.94 54.9626 273.16 54.2859C273.386 53.6038 273.703 53.0241 274.113 52.5467C274.522 52.064 275.007 51.6968 275.568 51.445C276.135 51.1931 276.757 51.0672 277.434 51.0672C278.131 51.0672 278.761 51.1931 279.322 51.445C279.889 51.6968 280.374 52.064 280.778 52.5467C281.187 53.0241 281.499 53.6038 281.715 54.2859C281.935 54.9626 282.045 55.7312 282.045 56.5916ZM280.542 57.3156V56.5759C280.542 55.8939 280.471 55.2905 280.33 54.7659C280.193 54.2413 279.991 53.8006 279.724 53.4438C279.456 53.0871 279.128 52.8169 278.74 52.6333C278.357 52.4496 277.921 52.3578 277.434 52.3578C276.961 52.3578 276.534 52.4496 276.151 52.6333C275.773 52.8169 275.448 53.0871 275.175 53.4438C274.907 53.8006 274.7 54.2413 274.553 54.7659C274.406 55.2905 274.333 55.8939 274.333 56.5759V57.3156C274.333 58.0029 274.406 58.6115 274.553 59.1413C274.7 59.666 274.91 60.1093 275.183 60.4713C275.461 60.828 275.789 61.0982 276.167 61.2818C276.55 61.4655 276.977 61.5573 277.449 61.5573C277.942 61.5573 278.38 61.4655 278.763 61.2818C279.146 61.0982 279.469 60.828 279.731 60.4713C279.999 60.1093 280.201 59.666 280.337 59.1413C280.474 58.6115 280.542 58.0029 280.542 57.3156ZM293.133 51.2246V62.6826H291.606L285.838 53.8452V62.6826H284.319V51.2246H285.838L291.63 60.0857V51.2246H293.133Z" fill="white"/>
</svg>
