<svg width="17" height="11" viewBox="0 0 17 11" fill="none" xmlns="http://www.w3.org/2000/svg">
<path d="M5.22589 5.5C5.22589 3.92188 6.81763 2.64286 8.7816 2.64286C10.7456 2.64286 12.3373 3.92188 12.3373 5.5C12.3373 7.07812 10.7456 8.35714 8.7816 8.35714C6.81763 8.35714 5.22589 7.07812 5.22589 5.5ZM8.7816 7.28571C10.0094 7.28571 11.0039 6.48661 11.0039 5.5C11.0039 4.51339 10.0094 3.71429 8.7816 3.71429C8.76215 3.71429 8.74549 3.71429 8.70104 3.71429C8.76215 3.82812 8.7816 3.94866 8.7816 4.07143C8.7816 4.85938 7.98434 5.5 7.00374 5.5C6.85096 5.5 6.70095 5.48438 6.55928 5.43527C6.55928 5.47098 6.55928 5.48438 6.55928 5.47991C6.55928 6.48661 7.55377 7.28571 8.7816 7.28571ZM3.43192 2.29911C4.73976 1.32232 6.53706 0.5 8.7816 0.5C11.0261 0.5 12.8234 1.32232 14.1318 2.29911C15.4319 3.26786 16.3014 4.40848 16.7125 5.22545C16.8042 5.40179 16.8042 5.59821 16.7125 5.77455C16.3014 6.57143 15.4319 7.71205 14.1318 8.70089C12.8234 9.67857 11.0261 10.5 8.7816 10.5C6.53706 10.5 4.73976 9.67857 3.43192 8.70089C2.13187 7.71205 1.26294 6.57143 0.849618 5.77455C0.758461 5.59821 0.758461 5.40179 0.849618 5.22545C1.26294 4.40848 2.13187 3.26786 3.43192 2.29911ZM8.7816 1.57143C6.97041 1.57143 5.48146 2.23214 4.33974 3.08259C3.27025 3.8817 2.53188 4.81027 2.15465 5.5C2.53188 6.16964 3.27025 7.1183 4.33974 7.91741C5.48146 8.76786 6.97041 9.42857 8.7816 9.42857C10.5928 9.42857 12.0817 8.76786 13.2235 7.91741C14.2929 7.1183 15.0069 6.16964 15.4097 5.5C15.0069 4.81027 14.2929 3.8817 13.2235 3.08259C12.0817 2.23214 10.5928 1.57143 8.7816 1.57143Z" fill="#717171"/>
</svg>
