<svg width="20" height="20" viewBox="0 0 20 20" fill="none" xmlns="http://www.w3.org/2000/svg">
<path d="M15.1911 12.2716C15.3224 12.5029 15.5644 12.6332 15.8126 12.6332C15.9322 12.6332 16.0537 12.6029 16.1653 12.5395L19.5385 10.6217C19.6938 10.5127 19.8206 10.3708 19.876 10.1833C19.959 9.86987 19.801 9.55113 19.5385 9.37971L16.1653 7.46187C15.8242 7.26634 15.3867 7.38688 15.1912 7.72973C14.9965 8.07259 15.1162 8.5092 15.459 8.70383L16.484 9.28597H10.101C9.70635 9.28597 9.38672 9.6056 9.38672 10.0003C9.38672 10.3949 9.70635 10.7145 10.101 10.7145H16.4849L15.4599 11.2976C15.1162 11.4922 14.9965 11.9288 15.1911 12.2716Z" fill="#494949"/>
<path d="M10.0001 20C14.7859 20 18.7929 16.6215 19.7715 12.1285L16.8714 13.7785C16.5356 13.9714 16.1714 14.0642 15.8142 14.0642C15.0714 14.0642 14.3428 13.6714 13.95 12.9785C13.8 12.7143 13.7143 12.4285 13.6857 12.1428H10.0999C8.9142 12.1428 7.95707 11.1857 7.95707 10C7.95707 8.8143 8.9142 7.85716 10.0999 7.85716H13.6784C13.707 7.57145 13.7998 7.28574 13.9498 7.02147C14.5355 5.99291 15.8426 5.62861 16.8712 6.22147L19.7712 7.87147C18.7927 3.37871 14.7857 0 9.99991 0C4.48567 0 0 4.48567 0 9.99991C0 15.5141 4.48567 19.9998 9.99991 19.9998L10.0001 20Z" fill="#494949"/>
</svg>
