<svg width="34" height="34" viewBox="0 0 34 34" fill="none" xmlns="http://www.w3.org/2000/svg">
<path fill-rule="evenodd" clip-rule="evenodd" d="M16.7373 0.525391C20.0476 0.525391 23.2836 1.50701 26.0361 3.34613C28.7885 5.18525 30.9337 7.79925 32.2006 10.8576C33.4674 13.9159 33.7988 17.2812 33.153 20.528C32.5072 23.7747 30.9131 26.757 28.5724 29.0977C26.2316 31.4385 23.2493 33.0325 20.0026 33.6784C16.7559 34.3242 13.3906 33.9927 10.3322 32.7259C7.2739 31.4591 4.65989 29.3138 2.82077 26.5614C0.981659 23.809 3.43323e-05 20.573 3.43323e-05 17.2627C3.43323e-05 12.8237 1.76342 8.56648 4.90227 5.42763C8.04112 2.28878 12.2983 0.525391 16.7373 0.525391ZM21.0576 20.7566C21.2775 20.8441 21.5181 20.866 21.7502 20.8195C21.9823 20.7731 22.1959 20.6604 22.3652 20.4951L24.7608 18.0995C24.8727 17.9887 24.9616 17.8567 25.0222 17.7112C25.0829 17.5658 25.1141 17.4098 25.1141 17.2522C25.1141 17.0946 25.0829 16.9386 25.0222 16.7932C24.9616 16.6477 24.8727 16.5158 24.7608 16.4049L22.3652 14.0094C22.2023 13.8213 21.9847 13.6888 21.7427 13.6306C21.5008 13.5724 21.2467 13.5913 21.0161 13.6847C20.7854 13.7781 20.5898 13.9413 20.4566 14.1515C20.3233 14.3617 20.2592 14.6082 20.2731 14.8567V16.0492H15.4925V18.4447H20.3254V19.6373C20.3216 19.8757 20.3893 20.1097 20.5198 20.3093C20.6503 20.5088 20.8377 20.6646 21.0576 20.7566ZM8.36868 20.8507C8.37144 22.434 9.00164 23.9517 10.1212 25.0713C11.2408 26.1909 12.7585 26.8211 14.3418 26.8238H19.1328V24.4388H14.3523C13.4006 24.4388 12.488 24.0608 11.8151 23.3879C11.1422 22.715 10.7642 21.8023 10.7642 20.8507V13.6746C10.7642 12.723 11.1422 11.8104 11.8151 11.1375C12.488 10.4646 13.4006 10.0866 14.3523 10.0866H19.1328V7.7015H14.3523C12.7671 7.7015 11.2468 8.33047 10.1249 9.45035C9.00308 10.5702 8.37145 12.0895 8.36868 13.6746V20.8507Z" fill="#0F6C73"/>
</svg>
