<svg width="376" height="88" viewBox="0 0 376 88" fill="none" xmlns="http://www.w3.org/2000/svg">
<circle cx="43.9351" cy="43.9351" r="43.9351" fill="#289E9E"/>
<path d="M12.6609 25.9018H19.3542L26.9601 49.6089L34.5661 25.9018H41.2593L29.6748 59.9764H24.2454L12.6609 25.9018ZM8.58881 25.9018H15.5161L16.8032 52.0194V59.9764H8.58881V25.9018ZM38.4041 25.9018H45.3548V59.9764H37.117V52.0194L38.4041 25.9018ZM79.0784 25.9018V59.9764H70.8874L58.8349 38.7734V59.9764H50.6205V25.9018H58.8349L70.8874 47.1048V25.9018H79.0784Z" fill="white"/>
<path d="M109.174 48.9955V14.3592H118.723L127.054 38.7216L135.643 14.3592H144.021V48.9955H137.375V22.8544L128.927 46.6786H123.123L114.838 22.5034V48.9955H109.174ZM152.704 48.9955V14.3592H174.352V19.11H159.912V28.7754H171.754V33.5496H159.912V44.0809H175.452V48.9955H152.704ZM181.489 48.9955V14.3592H196.397C200.391 14.3592 203.496 14.9988 205.711 16.2782C207.943 17.5576 209.713 19.4454 211.024 21.9417C212.35 24.4224 213.013 27.4258 213.013 30.9518C213.013 34.3999 212.381 37.4812 211.118 40.196C209.869 42.9107 208.044 45.056 205.641 46.6318C203.239 48.2076 199.947 48.9955 195.765 48.9955H181.489ZM188.698 44.0809H194.08C196.889 44.0809 199.034 43.644 200.516 42.7703C202.014 41.8966 203.192 40.4222 204.05 38.3472C204.924 36.2565 205.36 33.9318 205.36 31.3731C205.36 28.9236 204.939 26.7549 204.097 24.8671C203.254 22.9792 202.084 21.5517 200.586 20.5843C199.104 19.6014 196.592 19.11 193.051 19.11H188.698V44.0809ZM219.496 48.9955V14.3592H225.838L241.892 38.0195V14.3592H247.673V48.9955H241.214L225.276 25.3351V48.9955H219.496ZM256.332 48.9955V14.3592H277.98V19.11H263.54V28.7754H275.382V33.5496H263.54V44.0809H279.08V48.9955H256.332ZM281.935 48.9955L293.028 31.9348L282.426 14.3592H290.828L297.872 26.0138L305.502 14.3592H311.329L300.704 30.6944L311.703 48.9955H303.325L295.813 36.6153L287.762 48.9955H281.935ZM316.805 14.3592H324.013V35.5856C324.013 39.4237 324.661 41.9668 325.956 43.215C327.266 44.4631 328.959 45.0872 331.034 45.0872C333.078 45.0872 334.701 44.4709 335.902 43.2384C337.119 42.0058 337.727 39.6265 337.727 36.1005V14.3592H343.999V35.6324C343.999 39.6421 343.492 42.5207 342.478 44.2681C341.48 45.9999 340.029 47.3651 338.125 48.3636C336.222 49.3621 333.811 49.8614 330.894 49.8614C328.023 49.8614 325.558 49.4011 323.498 48.4806C321.439 47.5445 319.809 46.1637 318.607 44.3383C317.406 42.4973 316.805 39.5719 316.805 35.5622V14.3592ZM350.435 48.6912V42.7469C353.103 43.8702 355.092 44.5411 356.403 44.7596C357.729 44.978 358.946 45.0872 360.054 45.0872C362.051 45.0872 363.541 44.6347 364.524 43.7298C365.507 42.8249 365.998 41.7406 365.998 40.4768C365.998 39.5095 365.733 38.6358 365.202 37.8557C364.672 37.0912 363.33 36.1005 361.177 34.8835L358.86 33.5964C355.553 31.7397 353.314 30.0235 352.144 28.4477C350.958 26.8719 350.365 25.0465 350.365 22.9714C350.365 20.3659 351.348 18.1348 353.314 16.2782C355.295 14.4216 358.135 13.4933 361.832 13.4933C364.594 13.4933 367.707 13.8911 371.17 14.6868V20.2333C367.644 18.9071 364.844 18.244 362.769 18.244C361.052 18.244 359.742 18.6263 358.837 19.3908C357.948 20.1397 357.503 21.0446 357.503 22.1055C357.503 22.9168 357.768 23.6735 358.299 24.3756C358.813 25.0777 360.147 26.0372 362.3 27.2542L364.781 28.6349C368.572 30.7724 370.991 32.629 372.036 34.2048C373.066 35.7962 373.581 37.5827 373.581 39.5641C373.581 42.4037 372.504 44.8298 370.351 46.8424C368.214 48.8551 364.805 49.8614 360.124 49.8614C357.347 49.8614 354.117 49.4713 350.435 48.6912Z" fill="#269C9C"/>
<path d="M115.345 75.0699H117.269C117.169 75.9917 116.905 76.8166 116.477 77.5447C116.05 78.2728 115.445 78.8505 114.664 79.278C113.882 79.6988 112.907 79.9092 111.738 79.9092C110.883 79.9092 110.105 79.7489 109.404 79.4283C108.709 79.1077 108.111 78.6535 107.61 78.0657C107.109 77.4712 106.722 76.7599 106.448 75.9316C106.181 75.0967 106.047 74.1682 106.047 73.1462V71.6935C106.047 70.6715 106.181 69.7464 106.448 68.9181C106.722 68.0832 107.113 67.3685 107.62 66.774C108.135 66.1795 108.753 65.722 109.474 65.4014C110.195 65.0807 111.007 64.9204 111.909 64.9204C113.011 64.9204 113.943 65.1275 114.704 65.5416C115.466 65.9558 116.057 66.5302 116.477 67.2649C116.905 67.993 117.169 68.838 117.269 69.7998H115.345C115.252 69.1185 115.078 68.534 114.824 68.0464C114.57 67.5522 114.21 67.1714 113.742 66.9042C113.275 66.6371 112.663 66.5035 111.909 66.5035C111.261 66.5035 110.69 66.627 110.195 66.8742C109.708 67.1213 109.297 67.472 108.963 67.9262C108.636 68.3804 108.389 68.9248 108.222 69.5594C108.055 70.1939 107.971 70.8986 107.971 71.6734V73.1462C107.971 73.861 108.045 74.5322 108.192 75.1601C108.345 75.788 108.576 76.3391 108.883 76.8133C109.19 77.2875 109.581 77.6616 110.055 77.9355C110.529 78.2026 111.09 78.3362 111.738 78.3362C112.56 78.3362 113.215 78.206 113.702 77.9455C114.19 77.685 114.557 77.3109 114.804 76.8233C115.058 76.3357 115.238 75.7513 115.345 75.0699ZM131.136 71.954V72.8757C131.136 73.9712 130.999 74.9531 130.725 75.8214C130.451 76.6897 130.057 77.4278 129.543 78.0356C129.028 78.6435 128.41 79.1077 127.689 79.4283C126.974 79.7489 126.173 79.9092 125.284 79.9092C124.423 79.9092 123.631 79.7489 122.91 79.4283C122.195 79.1077 121.574 78.6435 121.046 78.0356C120.525 77.4278 120.121 76.6897 119.834 75.8214C119.547 74.9531 119.403 73.9712 119.403 72.8757V71.954C119.403 70.8585 119.543 69.88 119.824 69.0183C120.111 68.15 120.515 67.4119 121.036 66.8041C121.557 66.1895 122.175 65.722 122.89 65.4014C123.611 65.0807 124.403 64.9204 125.264 64.9204C126.153 64.9204 126.954 65.0807 127.669 65.4014C128.39 65.722 129.008 66.1895 129.523 66.8041C130.044 67.4119 130.441 68.15 130.715 69.0183C130.995 69.88 131.136 70.8585 131.136 71.954ZM129.222 72.8757V71.9339C129.222 71.0656 129.132 70.2974 128.951 69.6295C128.778 68.9615 128.521 68.4005 128.18 67.9463C127.839 67.492 127.422 67.148 126.928 66.9143C126.44 66.6805 125.886 66.5636 125.264 66.5636C124.663 66.5636 124.119 66.6805 123.631 66.9143C123.15 67.148 122.736 67.492 122.389 67.9463C122.048 68.4005 121.784 68.9615 121.597 69.6295C121.41 70.2974 121.317 71.0656 121.317 71.9339V72.8757C121.317 73.7507 121.41 74.5256 121.597 75.2002C121.784 75.8681 122.052 76.4326 122.399 76.8935C122.753 77.3477 123.17 77.6917 123.651 77.9254C124.139 78.1592 124.683 78.2761 125.284 78.2761C125.912 78.2761 126.47 78.1592 126.958 77.9254C127.445 77.6917 127.856 77.3477 128.19 76.8935C128.531 76.4326 128.788 75.8681 128.961 75.2002C129.135 74.5256 129.222 73.7507 129.222 72.8757ZM145.253 65.1208V79.7089H143.309L135.965 68.4572V79.7089H134.031V65.1208H135.965L143.339 76.4025V65.1208H145.253ZM159.901 65.1208V79.7089H157.957L150.613 68.4572V79.7089H148.679V65.1208H150.613L157.987 76.4025V65.1208H159.901ZM172.595 78.1358V79.7089H164.87V78.1358H172.595ZM165.261 65.1208V79.7089H163.328V65.1208H165.261ZM171.573 71.3929V72.9659H164.87V71.3929H171.573ZM172.495 65.1208V66.7039H164.87V65.1208H172.495ZM183.797 75.0699H185.721C185.62 75.9917 185.357 76.8166 184.929 77.5447C184.502 78.2728 183.897 78.8505 183.116 79.278C182.334 79.6988 181.359 79.9092 180.19 79.9092C179.335 79.9092 178.557 79.7489 177.855 79.4283C177.161 79.1077 176.563 78.6535 176.062 78.0657C175.561 77.4712 175.174 76.7599 174.9 75.9316C174.633 75.0967 174.499 74.1682 174.499 73.1462V71.6935C174.499 70.6715 174.633 69.7464 174.9 68.9181C175.174 68.0832 175.564 67.3685 176.072 66.774C176.586 66.1795 177.204 65.722 177.926 65.4014C178.647 65.0807 179.459 64.9204 180.36 64.9204C181.462 64.9204 182.394 65.1275 183.156 65.5416C183.917 65.9558 184.508 66.5302 184.929 67.2649C185.357 67.993 185.62 68.838 185.721 69.7998H183.797C183.703 69.1185 183.53 68.534 183.276 68.0464C183.022 67.5522 182.661 67.1714 182.194 66.9042C181.726 66.6371 181.115 66.5035 180.36 66.5035C179.712 66.5035 179.141 66.627 178.647 66.8742C178.159 67.1213 177.749 67.472 177.415 67.9262C177.087 68.3804 176.84 68.9248 176.673 69.5594C176.506 70.1939 176.423 70.8986 176.423 71.6734V73.1462C176.423 73.861 176.496 74.5322 176.643 75.1601C176.797 75.788 177.027 76.3391 177.334 76.8133C177.642 77.2875 178.032 77.6616 178.507 77.9355C178.981 78.2026 179.542 78.3362 180.19 78.3362C181.012 78.3362 181.666 78.206 182.154 77.9455C182.641 77.685 183.009 77.3109 183.256 76.8233C183.51 76.3357 183.69 75.7513 183.797 75.0699ZM193.445 65.1208V79.7089H191.542V65.1208H193.445ZM198.134 65.1208V66.7039H186.863V65.1208H198.134ZM209.977 65.1208V79.7089H208.074V65.1208H209.977ZM214.666 65.1208V66.7039H203.395V65.1208H214.666ZM227.781 71.954V72.8757C227.781 73.9712 227.644 74.9531 227.371 75.8214C227.097 76.6897 226.703 77.4278 226.188 78.0356C225.674 78.6435 225.056 79.1077 224.335 79.4283C223.62 79.7489 222.819 79.9092 221.93 79.9092C221.069 79.9092 220.277 79.7489 219.556 79.4283C218.841 79.1077 218.22 78.6435 217.692 78.0356C217.171 77.4278 216.767 76.6897 216.48 75.8214C216.192 74.9531 216.049 73.9712 216.049 72.8757V71.954C216.049 70.8585 216.189 69.88 216.47 69.0183C216.757 68.15 217.161 67.4119 217.682 66.8041C218.203 66.1895 218.821 65.722 219.536 65.4014C220.257 65.0807 221.048 64.9204 221.91 64.9204C222.799 64.9204 223.6 65.0807 224.315 65.4014C225.036 65.722 225.654 66.1895 226.168 66.8041C226.689 67.4119 227.087 68.15 227.361 69.0183C227.641 69.88 227.781 70.8585 227.781 71.954ZM225.868 72.8757V71.9339C225.868 71.0656 225.778 70.2974 225.597 69.6295C225.424 68.9615 225.166 68.4005 224.826 67.9463C224.485 67.492 224.068 67.148 223.573 66.9143C223.086 66.6805 222.531 66.5636 221.91 66.5636C221.309 66.5636 220.765 66.6805 220.277 66.9143C219.796 67.148 219.382 67.492 219.035 67.9463C218.694 68.4005 218.43 68.9615 218.243 69.6295C218.056 70.2974 217.963 71.0656 217.963 71.9339V72.8757C217.963 73.7507 218.056 74.5256 218.243 75.2002C218.43 75.8681 218.697 76.4326 219.045 76.8935C219.399 77.3477 219.816 77.6917 220.297 77.9254C220.785 78.1592 221.329 78.2761 221.93 78.2761C222.558 78.2761 223.116 78.1592 223.603 77.9254C224.091 77.6917 224.502 77.3477 224.836 76.8935C225.176 76.4326 225.434 75.8681 225.607 75.2002C225.781 74.5256 225.868 73.7507 225.868 72.8757ZM236.438 65.1208L240.225 72.4449L244.023 65.1208H246.217L241.187 74.2584V79.7089H239.253V74.2584L234.224 65.1208H236.438ZM259.021 71.954V72.8757C259.021 73.9712 258.885 74.9531 258.611 75.8214C258.337 76.6897 257.943 77.4278 257.428 78.0356C256.914 78.6435 256.296 79.1077 255.575 79.4283C254.86 79.7489 254.059 79.9092 253.17 79.9092C252.309 79.9092 251.517 79.7489 250.796 79.4283C250.081 79.1077 249.46 78.6435 248.932 78.0356C248.411 77.4278 248.007 76.6897 247.72 75.8214C247.433 74.9531 247.289 73.9712 247.289 72.8757V71.954C247.289 70.8585 247.429 69.88 247.71 69.0183C247.997 68.15 248.401 67.4119 248.922 66.8041C249.443 66.1895 250.061 65.722 250.776 65.4014C251.497 65.0807 252.289 64.9204 253.15 64.9204C254.039 64.9204 254.84 65.0807 255.555 65.4014C256.276 65.722 256.894 66.1895 257.408 66.8041C257.929 67.4119 258.327 68.15 258.601 69.0183C258.881 69.88 259.021 70.8585 259.021 71.954ZM257.108 72.8757V71.9339C257.108 71.0656 257.018 70.2974 256.837 69.6295C256.664 68.9615 256.406 68.4005 256.066 67.9463C255.725 67.492 255.308 67.148 254.813 66.9143C254.326 66.6805 253.771 66.5636 253.15 66.5636C252.549 66.5636 252.005 66.6805 251.517 66.9143C251.036 67.148 250.622 67.492 250.275 67.9463C249.934 68.4005 249.67 68.9615 249.483 69.6295C249.296 70.2974 249.203 71.0656 249.203 71.9339V72.8757C249.203 73.7507 249.296 74.5256 249.483 75.2002C249.67 75.8681 249.937 76.4326 250.285 76.8935C250.639 77.3477 251.056 77.6917 251.537 77.9254C252.025 78.1592 252.569 78.2761 253.17 78.2761C253.798 78.2761 254.356 78.1592 254.843 77.9254C255.331 77.6917 255.742 77.3477 256.076 76.8935C256.416 76.4326 256.674 75.8681 256.847 75.2002C257.021 74.5256 257.108 73.7507 257.108 72.8757ZM270.263 65.1208H272.187V74.9898C272.187 76.0852 271.943 76.997 271.455 77.725C270.968 78.4531 270.32 79.0008 269.512 79.3682C268.71 79.7289 267.838 79.9092 266.897 79.9092C265.908 79.9092 265.013 79.7289 264.211 79.3682C263.417 79.0008 262.785 78.4531 262.318 77.725C261.857 76.997 261.626 76.0852 261.626 74.9898V65.1208H263.54V74.9898C263.54 75.7513 263.68 76.3791 263.961 76.8734C264.242 77.3677 264.632 77.7351 265.133 77.9755C265.641 78.216 266.229 78.3362 266.897 78.3362C267.571 78.3362 268.159 78.216 268.66 77.9755C269.168 77.7351 269.562 77.3677 269.842 76.8734C270.123 76.3791 270.263 75.7513 270.263 74.9898V65.1208ZM275.223 65.1208H280.052C281.147 65.1208 282.072 65.2878 282.827 65.6218C283.589 65.9558 284.166 66.45 284.561 67.1046C284.961 67.7525 285.162 68.5507 285.162 69.4992C285.162 70.1672 285.025 70.7784 284.751 71.3328C284.484 71.8805 284.096 72.348 283.589 72.7355C283.088 73.1162 282.487 73.4001 281.785 73.5871L281.244 73.7975H276.705L276.685 72.2245H280.112C280.807 72.2245 281.384 72.1042 281.845 71.8638C282.306 71.6166 282.654 71.286 282.887 70.8719C283.121 70.4577 283.238 70.0002 283.238 69.4992C283.238 68.9382 283.128 68.4472 282.907 68.0264C282.687 67.6056 282.34 67.2816 281.865 67.0545C281.398 66.8208 280.793 66.7039 280.052 66.7039H277.156V79.7089H275.223V65.1208ZM283.749 79.7089L280.202 73.0962L282.216 73.0861L285.813 79.5886V79.7089H283.749ZM298.337 73.9879H294.44V72.4148H298.337C299.092 72.4148 299.703 72.2946 300.171 72.0541C300.638 71.8137 300.979 71.4797 301.193 71.0522C301.413 70.6247 301.523 70.1371 301.523 69.5894C301.523 69.0884 301.413 68.6175 301.193 68.1767C300.979 67.7358 300.638 67.3818 300.171 67.1147C299.703 66.8408 299.092 66.7039 298.337 66.7039H294.89V79.7089H292.957V65.1208H298.337C299.439 65.1208 300.371 65.3112 301.132 65.6919C301.894 66.0726 302.472 66.6003 302.866 67.275C303.26 67.9429 303.457 68.7077 303.457 69.5694C303.457 70.5045 303.26 71.3027 302.866 71.964C302.472 72.6252 301.894 73.1295 301.132 73.4769C300.371 73.8175 299.439 73.9879 298.337 73.9879ZM309.919 66.4133L305.09 79.7089H303.116L308.677 65.1208H309.949L309.919 66.4133ZM313.967 79.7089L309.128 66.4133L309.098 65.1208H310.37L315.951 79.7089H313.967ZM313.717 74.3085V75.8915H305.521V74.3085H313.717ZM325.68 76.0218C325.68 75.6811 325.626 75.3805 325.519 75.12C325.419 74.8529 325.239 74.6124 324.978 74.3987C324.724 74.1849 324.37 73.9812 323.916 73.7875C323.469 73.5938 322.901 73.3967 322.213 73.1963C321.492 72.9826 320.84 72.7455 320.259 72.485C319.678 72.2178 319.18 71.9139 318.766 71.5732C318.352 71.2326 318.035 70.8418 317.814 70.401C317.594 69.9601 317.484 69.4558 317.484 68.8881C317.484 68.3203 317.601 67.796 317.835 67.315C318.068 66.8341 318.402 66.4166 318.836 66.0626C319.277 65.7019 319.802 65.4214 320.409 65.221C321.017 65.0206 321.695 64.9204 322.443 64.9204C323.539 64.9204 324.467 65.1308 325.229 65.5516C325.997 65.9658 326.581 66.5102 326.982 67.1848C327.383 67.8527 327.583 68.5674 327.583 69.3289H325.66C325.66 68.7812 325.543 68.2969 325.309 67.8761C325.075 67.4486 324.721 67.1147 324.247 66.8742C323.773 66.627 323.171 66.5035 322.443 66.5035C321.755 66.5035 321.188 66.607 320.74 66.8141C320.293 67.0211 319.959 67.3017 319.738 67.6557C319.524 68.0097 319.418 68.4138 319.418 68.868C319.418 69.1753 319.481 69.4558 319.608 69.7096C319.742 69.9568 319.945 70.1872 320.219 70.401C320.5 70.6147 320.854 70.8118 321.281 70.9921C321.715 71.1725 322.233 71.3461 322.834 71.5131C323.662 71.7469 324.377 72.0074 324.978 72.2946C325.579 72.5818 326.074 72.9058 326.461 73.2665C326.855 73.6205 327.146 74.0246 327.333 74.4788C327.526 74.9263 327.623 75.434 327.623 76.0017C327.623 76.5962 327.503 77.1339 327.263 77.6148C327.022 78.0958 326.678 78.5066 326.231 78.8472C325.783 79.1879 325.245 79.4517 324.618 79.6387C323.996 79.8191 323.302 79.9092 322.534 79.9092C321.859 79.9092 321.194 79.8157 320.54 79.6287C319.892 79.4417 319.301 79.1611 318.766 78.7871C318.239 78.413 317.814 77.9522 317.494 77.4044C317.18 76.85 317.023 76.2088 317.023 75.4807H318.947C318.947 75.9817 319.044 76.4125 319.237 76.7732C319.431 77.1272 319.695 77.4211 320.029 77.6549C320.369 77.8887 320.753 78.0624 321.181 78.1759C321.615 78.2828 322.066 78.3362 322.534 78.3362C323.208 78.3362 323.779 78.2427 324.247 78.0557C324.714 77.8687 325.068 77.6015 325.309 77.2541C325.556 76.9068 325.68 76.496 325.68 76.0218ZM337.863 76.0218C337.863 75.6811 337.81 75.3805 337.703 75.12C337.603 74.8529 337.422 74.6124 337.162 74.3987C336.908 74.1849 336.554 73.9812 336.1 73.7875C335.652 73.5938 335.084 73.3967 334.396 73.1963C333.675 72.9826 333.024 72.7455 332.443 72.485C331.862 72.2178 331.364 71.9139 330.95 71.5732C330.536 71.2326 330.218 70.8418 329.998 70.401C329.777 69.9601 329.667 69.4558 329.667 68.8881C329.667 68.3203 329.784 67.796 330.018 67.315C330.252 66.8341 330.586 66.4166 331.02 66.0626C331.461 65.7019 331.985 65.4214 332.593 65.221C333.201 65.0206 333.879 64.9204 334.627 64.9204C335.722 64.9204 336.651 65.1308 337.412 65.5516C338.18 65.9658 338.765 66.5102 339.166 67.1848C339.566 67.8527 339.767 68.5674 339.767 69.3289H337.843C337.843 68.7812 337.726 68.2969 337.492 67.8761C337.259 67.4486 336.905 67.1147 336.43 66.8742C335.956 66.627 335.355 66.5035 334.627 66.5035C333.939 66.5035 333.371 66.607 332.924 66.8141C332.476 67.0211 332.142 67.3017 331.922 67.6557C331.708 68.0097 331.601 68.4138 331.601 68.868C331.601 69.1753 331.664 69.4558 331.791 69.7096C331.925 69.9568 332.129 70.1872 332.403 70.401C332.683 70.6147 333.037 70.8118 333.465 70.9921C333.899 71.1725 334.416 71.3461 335.018 71.5131C335.846 71.7469 336.561 72.0074 337.162 72.2946C337.763 72.5818 338.257 72.9058 338.645 73.2665C339.039 73.6205 339.329 74.0246 339.516 74.4788C339.71 74.9263 339.807 75.434 339.807 76.0017C339.807 76.5962 339.687 77.1339 339.446 77.6148C339.206 78.0958 338.862 78.5066 338.414 78.8472C337.967 79.1879 337.429 79.4517 336.801 79.6387C336.18 79.8191 335.485 79.9092 334.717 79.9092C334.042 79.9092 333.378 79.8157 332.723 79.6287C332.075 79.4417 331.484 79.1611 330.95 78.7871C330.422 78.413 329.998 77.9522 329.677 77.4044C329.363 76.85 329.206 76.2088 329.206 75.4807H331.13C331.13 75.9817 331.227 76.4125 331.421 76.7732C331.614 77.1272 331.878 77.4211 332.212 77.6549C332.553 77.8887 332.937 78.0624 333.364 78.1759C333.799 78.2828 334.249 78.3362 334.717 78.3362C335.392 78.3362 335.963 78.2427 336.43 78.0557C336.898 77.8687 337.252 77.6015 337.492 77.2541C337.739 76.9068 337.863 76.496 337.863 76.0218ZM344.345 65.1208V79.7089H342.412V65.1208H344.345ZM359.094 71.954V72.8757C359.094 73.9712 358.957 74.9531 358.683 75.8214C358.409 76.6897 358.015 77.4278 357.501 78.0356C356.986 78.6435 356.369 79.1077 355.647 79.4283C354.933 79.7489 354.131 79.9092 353.243 79.9092C352.381 79.9092 351.589 79.7489 350.868 79.4283C350.153 79.1077 349.532 78.6435 349.004 78.0356C348.483 77.4278 348.079 76.6897 347.792 75.8214C347.505 74.9531 347.361 73.9712 347.361 72.8757V71.954C347.361 70.8585 347.502 69.88 347.782 69.0183C348.069 68.15 348.473 67.4119 348.994 66.8041C349.515 66.1895 350.133 65.722 350.848 65.4014C351.569 65.0807 352.361 64.9204 353.223 64.9204C354.111 64.9204 354.912 65.0807 355.627 65.4014C356.349 65.722 356.966 66.1895 357.481 66.8041C358.002 67.4119 358.399 68.15 358.673 69.0183C358.954 69.88 359.094 70.8585 359.094 71.954ZM357.18 72.8757V71.9339C357.18 71.0656 357.09 70.2974 356.91 69.6295C356.736 68.9615 356.479 68.4005 356.138 67.9463C355.798 67.492 355.38 67.148 354.886 66.9143C354.398 66.6805 353.844 66.5636 353.223 66.5636C352.621 66.5636 352.077 66.6805 351.589 66.9143C351.109 67.148 350.694 67.492 350.347 67.9463C350.006 68.4005 349.743 68.9615 349.556 69.6295C349.368 70.2974 349.275 71.0656 349.275 71.9339V72.8757C349.275 73.7507 349.368 74.5256 349.556 75.2002C349.743 75.8681 350.01 76.4326 350.357 76.8935C350.711 77.3477 351.129 77.6917 351.609 77.9254C352.097 78.1592 352.641 78.2761 353.243 78.2761C353.87 78.2761 354.428 78.1592 354.916 77.9254C355.403 77.6917 355.814 77.3477 356.148 76.8935C356.489 76.4326 356.746 75.8681 356.92 75.2002C357.093 74.5256 357.18 73.7507 357.18 72.8757ZM373.211 65.1208V79.7089H371.267L363.923 68.4572V79.7089H361.989V65.1208H363.923L371.297 76.4025V65.1208H373.211Z" fill="#3D3D3D"/>
</svg>
