<svg width="80" height="80" viewBox="0 0 80 80" fill="none" xmlns="http://www.w3.org/2000/svg">
<rect x="0.0136719" y="0.171387" width="79.834" height="79.834" rx="17.195" fill="#E1F5FE" fill-opacity="0.6"/>
<path d="M68.3022 47.9071C68.2686 47.3027 68.1836 46.679 67.8645 46.1643C67.4188 45.446 66.6027 45.0611 65.9613 44.5112C64.305 43.0906 63.9298 40.6439 64.2216 38.4809C64.5135 36.3179 65.344 34.2576 65.6647 32.0979C65.9854 29.9381 65.6823 27.4962 64.0838 26.005C62.8011 24.8089 60.9187 24.469 59.1678 24.5812C57.4169 24.6935 55.7174 25.2017 53.9857 25.4791C50.7025 25.985 47.3449 25.6625 44.2179 24.5412C41.2774 23.4958 39.2282 21.2302 36.4801 20.0293C32.4812 18.28 27.3104 19.9058 25.0304 23.6272C22.3319 28.0285 23.427 34.4885 19.4939 37.8379C18.03 39.0854 16.0787 39.6594 14.6437 40.9389C12.0366 43.2654 11.8121 47.4261 13.1734 50.6457C14.5347 53.8653 17.1434 56.3601 19.6847 58.7604L43.4147 64.098C49.0265 64.85 54.983 64.4187 59.939 61.6753C64.8951 58.9319 68.6181 53.5622 68.3022 47.9071Z" fill="#25BBA4"/>
<path d="M47.0462 22.9346C48.3049 23.3787 49.6629 23.4813 50.9954 23.4156C51.579 23.3851 52.1802 23.3178 52.6901 23.0324C53.2 22.747 53.5976 22.189 53.5351 21.6086C53.4726 21.0282 52.9867 20.5824 52.4849 20.2858C51.3802 19.6316 50.0798 19.4168 48.81 19.2356C47.5657 19.056 45.0484 18.684 44.4985 20.281C44.0191 21.6743 46.0297 22.577 47.0462 22.9346Z" fill="#E7EAE2"/>
<path d="M66.55 39.0508C66.8386 38.613 67.2459 38.1994 67.7654 38.132C67.9924 38.1061 68.2221 38.1475 68.4259 38.251C68.6297 38.3544 68.7986 38.5154 68.9118 38.714C69.049 39.0022 69.1097 39.3208 69.0881 39.6392C69.0721 40.6365 68.4211 42.5509 67.0871 42.3313C65.5559 42.0779 65.968 39.9374 66.55 39.0508Z" fill="#E7EAE2"/>
<path d="M16.6125 36.6487C15.9375 37.1394 14.9867 37.5017 14.2988 37.0287C13.611 36.5557 13.611 35.5632 13.8178 34.7632C14.2042 33.2079 16.7488 28.7024 18.8139 30.5944C20.661 32.2988 18.0283 35.6226 16.6125 36.6487Z" fill="#E7EAE2"/>
<path d="M18.8193 48.7871C18.8193 51.1922 20.4692 56.8377 21.0993 58.906C21.1723 58.8896 21.2485 58.8963 21.3174 58.9253C21.6749 59.068 22.079 60.5912 22.079 60.5912V55.664C21.3174 52.4043 18.8193 48.7871 18.8193 48.7871Z" fill="#5E9DA6"/>
<path d="M19.7545 51.4733L19.5977 51.5249L21.4776 57.2361L21.6345 57.1845L19.7545 51.4733Z" fill="white"/>
<path d="M12.9541 58.2544C15.1748 65.3541 22.0805 64.6855 22.0805 64.6855V62.8352C21.0335 61.3665 12.9541 58.2544 12.9541 58.2544Z" fill="#5E9DA6"/>
<path d="M20.2192 63.2434C17.3668 62.3904 14.1857 59.5091 14.1553 59.4803L14.2659 59.3584C14.298 59.3857 17.4502 62.2445 20.2673 63.0846L20.2192 63.2434Z" fill="white"/>
<path d="M17.2578 62.6522V62.4918C17.62 62.4869 17.978 62.4134 18.3128 62.2754L18.3754 62.4277C18.0204 62.5727 17.6412 62.6489 17.2578 62.6522Z" fill="white"/>
<path d="M17.4554 61.9239C17.4092 61.6781 17.3798 61.4296 17.3672 61.1799L17.5275 61.1719C17.5406 61.4139 17.569 61.6549 17.6125 61.8934L17.4554 61.9239Z" fill="white"/>
<path d="M16.1599 61.437L16.1533 61.6021L16.9752 61.6351L16.9818 61.47L16.1599 61.437Z" fill="white"/>
<path d="M16.1697 61.0324C16.162 60.8458 16.1422 60.66 16.1104 60.476L16.2707 60.4487C16.303 60.6397 16.3234 60.8325 16.3316 61.0259L16.1697 61.0324Z" fill="white"/>
<path d="M15.1034 60.8531L15.0713 60.6927C15.3054 60.6462 15.5523 60.611 15.7832 60.5869L15.7992 60.7473C15.5651 60.7729 15.331 60.8082 15.1034 60.8531Z" fill="white"/>
<path d="M14.9829 60.213C14.9397 60.0383 14.9076 59.8611 14.8867 59.6823L15.0471 59.6631C15.0663 59.8354 15.0969 60.0062 15.1384 60.1746L14.9829 60.213Z" fill="white"/>
<path d="M14.4089 60.0099L14.3047 59.8832C14.3935 59.8089 14.4929 59.7483 14.5997 59.7036L14.6638 59.8559C14.5717 59.8944 14.4858 59.9462 14.4089 60.0099Z" fill="white"/>
<path d="M21.5849 64.1521C20.5078 63.9644 19.5245 63.4213 18.7919 62.6097C18.7035 62.5216 18.6352 62.4155 18.5914 62.2986C18.5704 62.2401 18.5664 62.1769 18.5797 62.1162C18.593 62.0555 18.6232 61.9998 18.6668 61.9555C18.7275 61.9099 18.7986 61.8802 18.8736 61.8689C19.1055 61.8164 19.3431 61.7932 19.5807 61.8C18.8168 61.3808 18.1223 60.8459 17.522 60.2142C17.3594 60.055 17.2288 59.8661 17.1372 59.6579C17.1109 59.6003 17.0962 59.538 17.094 59.4748C17.0918 59.4115 17.1021 59.3484 17.1243 59.2891C17.1565 59.2295 17.2023 59.1783 17.2581 59.1399C17.3138 59.1014 17.3779 59.0767 17.445 59.0678C17.5762 59.047 17.7099 59.047 17.8411 59.0678C17.0242 58.2791 16.3298 57.3729 15.7807 56.379C15.6605 56.1577 15.5514 55.8755 15.6989 55.6719C15.8465 55.4683 16.1623 55.4891 16.4141 55.534C16.4141 55.534 13.528 51.4662 14.0443 50.6806C14.5605 49.8949 17.2318 54.8221 17.2318 54.8221C17.2318 54.8221 17.2093 53.727 17.6615 53.7991C18.1136 53.8713 19.4701 57.3715 19.4701 57.3715C19.4701 57.3715 19.446 56.5586 19.8741 56.7301C20.3022 56.9017 20.6983 59.233 20.6983 59.233C20.6983 59.233 20.9612 58.7808 21.3172 58.9235C21.6731 59.0662 22.0788 60.5894 22.0788 60.5894V64.1537L21.5849 64.1521Z" fill="#77DBD3"/>
<path d="M21.7525 62.9437C19.8461 60.1956 17.1845 56.0268 17.1572 55.9915L17.2967 55.9033C17.3224 55.945 19.9824 60.0977 21.8872 62.8491L21.7525 62.9437Z" fill="white"/>
<path d="M20.8575 60.6486L20.6924 60.6489L20.694 61.3656L20.8592 61.3653L20.8575 60.6486Z" fill="white"/>
<path d="M21.2868 62.2227C20.9641 62.1966 20.6461 62.1287 20.3408 62.0207L20.3953 61.8604C20.687 61.9645 20.991 62.0302 21.2996 62.056L21.2868 62.2227Z" fill="white"/>
<path d="M20.244 60.6294C19.9618 60.6294 19.6781 60.6182 19.3975 60.5973L19.4103 60.437C19.6861 60.4579 19.9667 60.4675 20.244 60.4691V60.6294Z" fill="white"/>
<path d="M19.7004 59.6138L19.54 59.5882C19.5722 59.3759 19.5765 59.1603 19.5529 58.9468L19.7132 58.9292C19.7393 59.157 19.7349 59.3872 19.7004 59.6138Z" fill="white"/>
<path d="M18.3568 58.5213L18.3193 58.6821L19.0502 58.8522L19.0876 58.6914L18.3568 58.5213Z" fill="white"/>
<path d="M18.6235 57.248L18.459 57.2622L18.5286 58.0673L18.6931 58.0531L18.6235 57.248Z" fill="white"/>
<path d="M17.3851 56.9989L17.3672 57.1631L17.9968 57.2319L18.0147 57.0678L17.3851 56.9989Z" fill="white"/>
<path d="M17.6647 56.4717L17.5156 56.4012C17.6005 56.2203 17.6681 56.0319 17.7177 55.8384L17.878 55.8785C17.8262 56.0826 17.7547 56.2813 17.6647 56.4717Z" fill="white"/>
<path d="M56.592 64.3463L56.4541 64.186C56.4749 64.1667 58.5882 62.2972 58.5385 57.7019C58.4936 53.5957 59.5614 48.5627 59.5727 48.5098L59.7795 48.5547C59.7699 48.6044 58.7068 53.6165 58.7517 57.6939C58.8014 62.403 56.6818 64.2693 56.592 64.3463Z" fill="#5E718C"/>
<path d="M58.1621 61.3525C58.1621 61.3525 56.6373 59.7588 57.0942 58.7037C57.5512 57.6487 58.1621 61.3525 58.1621 61.3525Z" fill="#5E9DA6"/>
<path d="M58.5732 59.2973C58.5732 59.2588 59.7838 57.4277 60.2456 58.0066C60.7073 58.5854 58.5732 59.2973 58.5732 59.2973Z" fill="#5E9DA6"/>
<path d="M58.6454 57.0272C58.6454 57.0272 57.5118 56.5013 57.624 55.7204C57.7363 54.9396 58.4113 55.605 58.6454 57.0272Z" fill="#77DBD3"/>
<path d="M58.7363 55.1513C58.7363 55.0584 59.522 53.6153 60.0976 54.0675C60.6732 54.5196 58.7363 55.1513 58.7363 55.1513Z" fill="#77DBD3"/>
<path d="M58.9231 53.2172C58.9231 53.2172 57.9194 53.0425 58.0381 52.3803C58.1567 51.7181 58.9231 53.2172 58.9231 53.2172Z" fill="#5E9DA6"/>
<path d="M59.1533 51.4984C59.1533 51.4984 59.8235 50.3872 60.2645 50.857C60.7054 51.3268 59.1533 51.4984 59.1533 51.4984Z" fill="#5E9DA6"/>
<path d="M59.3404 50.3167C59.3404 50.3167 58.186 50.0698 58.5195 49.4396C58.853 48.8095 59.3404 50.3167 59.3404 50.3167Z" fill="#77DBD3"/>
<path d="M59.1025 48.4488C59.013 48.3185 58.9619 48.1658 58.955 48.0079C58.9414 47.9127 58.9643 47.8159 59.0192 47.7369C59.0548 47.6961 59.1014 47.6663 59.1534 47.6513C59.2054 47.6362 59.2607 47.6364 59.3126 47.6519C59.4172 47.6835 59.5056 47.7541 59.5595 47.8491C59.613 47.943 59.6493 48.0456 59.6669 48.1522C59.6958 48.2997 59.7888 48.6877 59.5964 48.7647C59.4328 48.832 59.1875 48.5642 59.1025 48.4488Z" fill="#5E9DA6"/>
<path d="M60.4382 48.3529C60.5176 48.3555 60.5954 48.3758 60.6659 48.4123C60.7006 48.4309 60.7299 48.458 60.7512 48.4911C60.7726 48.5242 60.7851 48.5622 60.7878 48.6015C60.7809 48.6565 60.7586 48.7084 60.7234 48.7513C60.6882 48.7941 60.6416 48.8261 60.5889 48.8436C60.3885 48.9334 59.8738 49.0039 59.7664 48.7265C59.6429 48.4139 60.2506 48.3401 60.4382 48.3529Z" fill="#77DBD3"/>
<path d="M56.5654 64.2551C57.4056 63.4871 58.0614 62.5411 58.6642 61.5758C58.7428 61.4492 58.8567 61.3065 59.0026 61.3305C59.0499 61.3422 59.0929 61.3671 59.1267 61.4023C59.1605 61.4375 59.1836 61.4816 59.1934 61.5293C59.2118 61.6252 59.2118 61.7237 59.1934 61.8195C59.6038 60.811 60.3157 59.9981 61.0404 59.1868C61.1466 59.0352 61.3056 58.9288 61.4862 58.8886C61.669 58.8725 61.8614 59.081 61.7604 59.2333C62.484 58.0757 63.364 57.0236 64.3755 56.1067C64.5752 55.9138 64.8061 55.756 65.0585 55.6401C65.0173 56.0817 64.8862 56.5102 64.6734 56.8992C64.4605 57.2883 64.1703 57.6297 63.8207 57.9025C63.9072 57.8262 64.0105 57.7712 64.1221 57.7422C64.1687 57.7293 64.2184 57.7355 64.2605 57.7592C64.3026 57.7829 64.3335 57.8223 64.3466 57.8688C64.3492 57.9147 64.3386 57.9603 64.3161 58.0003C64.237 58.147 64.1406 58.2837 64.0291 58.4076C63.4156 59.1387 62.7657 59.8388 62.0794 60.508C62.1954 60.4535 62.3204 60.4208 62.4482 60.4118C62.5123 60.4089 62.576 60.4235 62.6325 60.454C62.689 60.4845 62.7361 60.5297 62.7689 60.5849C62.8555 60.7645 62.716 60.9714 62.5701 61.1076C61.8598 61.7666 60.8561 61.9751 59.9806 62.3903C60.1009 62.3599 60.2275 62.4801 60.2532 62.602C60.2696 62.7268 60.2388 62.8532 60.1666 62.9563C59.9325 63.3492 59.498 63.5736 59.0731 63.7452C58.2772 64.0728 57.4261 64.2458 56.5654 64.2551Z" fill="#77DBD3"/>
<path d="M69.1193 59.6972L68.9878 59.5288L67.0381 61.068C66.9666 60.7926 66.93 60.5093 66.9291 60.2247H66.7158C66.7177 60.5588 66.7652 60.8911 66.8569 61.2124L65.8372 62.014H65.7939V62.0525L65.4989 62.2818C65.4171 62.3459 65.3385 62.4069 65.2471 62.4678L65.3129 61.3903L65.0996 61.3775L65.0275 62.5881H65.074C64.5516 62.9397 63.9911 63.2312 63.4033 63.4571C63.5158 63.1069 63.6464 62.7628 63.7945 62.4261L63.5989 62.3395C63.4254 62.7347 63.2745 63.1394 63.1467 63.5517C62.3412 63.8336 61.5082 64.0298 60.6615 64.1369C60.8853 63.7164 61.1848 63.3408 61.5449 63.029L61.4055 62.8686C60.9869 63.2309 60.6455 63.6736 60.4017 64.1706C59.1324 64.3159 57.8503 64.3095 56.5825 64.1513L56.5488 64.3614C57.2155 64.4482 57.8872 64.4894 58.5595 64.4848H58.7054C58.801 64.6211 58.8827 64.7667 58.9491 64.9194C59.0774 65.1855 59.2088 65.4629 59.4766 65.6216L59.5856 65.4405C59.3724 65.3122 59.2649 65.0765 59.1399 64.8264C59.0842 64.7082 59.0221 64.5931 58.9539 64.4816C59.815 64.4649 60.6731 64.3759 61.5193 64.2155C61.903 64.5807 62.3281 64.8998 62.786 65.1663L62.8918 64.9819C62.4904 64.7483 62.1142 64.4737 61.7694 64.1626C63.1002 63.8756 64.4775 63.3609 65.6303 62.4502L65.9061 62.2337C66.0521 62.2527 66.1963 62.2832 66.3374 62.3251C66.5327 62.3872 66.7355 62.4228 66.9403 62.4309H66.982V62.2177C66.7848 62.2138 66.5892 62.1809 66.4016 62.1199C66.315 62.0974 66.2284 62.0734 66.1402 62.0541L67.6169 60.8885C67.8172 61.0257 68.0055 61.1796 68.1797 61.3486L68.3288 61.1979C68.1608 61.036 67.9807 60.8869 67.7901 60.7522L69.1193 59.6972Z" fill="#5E718C"/>
<path d="M59.0156 65.0726C59.0167 65.229 59.0544 65.383 59.1257 65.5222C59.197 65.6614 59.2999 65.782 59.4261 65.8743C59.6785 66.0558 59.9576 66.197 60.2534 66.2928C60.2133 66.1437 60.1717 65.9978 60.1332 65.8487C60.1078 65.7368 60.0673 65.6289 60.0129 65.528C59.9646 65.454 59.907 65.3867 59.8414 65.3276C59.7438 65.2267 59.6286 65.1447 59.5014 65.0854C59.3452 65.0283 59.1746 65.0238 59.0156 65.0726Z" fill="#77DBD3"/>
<path d="M60.8605 63.5645C60.8216 63.4409 60.8115 63.31 60.8309 63.1819C60.8504 63.0538 60.8989 62.9318 60.9727 62.8253C61.1233 62.6137 61.3314 62.4496 61.5724 62.3523C61.8123 62.2555 62.0624 62.1861 62.3179 62.1455C62.2704 62.4921 62.0891 62.8063 61.8129 63.0209C61.5197 63.2418 61.1997 63.4244 60.8605 63.5645Z" fill="#77DBD3"/>
<path d="M62.2127 64.7247C62.203 64.7934 62.2084 64.8633 62.2283 64.9297C62.2482 64.9962 62.2823 65.0575 62.3281 65.1095C62.527 65.3705 62.7996 65.566 63.1106 65.6707C63.4201 65.7745 63.7468 65.817 64.0726 65.7958C63.9123 65.5221 63.7105 65.2749 63.4745 65.063C63.114 64.7903 62.6613 64.6689 62.2127 64.7247Z" fill="#5E9DA6"/>
<path d="M63.3514 63.0324C63.2806 62.7134 63.312 62.3802 63.4412 62.08C63.5708 61.7817 63.7595 61.5128 63.996 61.2896C64.1299 61.4593 64.1982 61.6716 64.1884 61.8876C64.1774 62.0982 64.1152 62.303 64.0072 62.4841C63.8625 62.7405 63.6294 62.9355 63.3514 63.0324Z" fill="#5E9DA6"/>
<path d="M65.1526 61.992C65.0876 61.9595 65.0319 61.9109 64.9909 61.8508C64.95 61.7908 64.925 61.7213 64.9185 61.6489C64.8815 61.414 64.9173 61.1734 65.0211 60.9594C65.1251 60.7461 65.2688 60.5546 65.4444 60.395C65.5701 60.6603 65.6253 60.9536 65.6047 61.2464C65.5888 61.3963 65.5401 61.5408 65.4619 61.6697C65.3838 61.7986 65.2781 61.9086 65.1526 61.992Z" fill="#77DBD3"/>
<path d="M66.8108 60.6511C66.7438 60.6238 66.6874 60.5754 66.6505 60.5132C66.6019 60.4308 66.5706 60.3395 66.5584 60.2447C66.5463 60.1498 66.5536 60.0535 66.5799 59.9616C66.634 59.7782 66.7288 59.6094 66.8573 59.4678C66.9146 59.4899 66.9619 59.5321 66.9904 59.5864C67.092 59.7542 67.1344 59.9513 67.1106 60.146C67.0689 60.3427 66.9635 60.5202 66.8108 60.6511Z" fill="#5E9DA6"/>
<path d="M67.9638 61.0671C67.9599 61.1283 67.9688 61.1897 67.9897 61.2473C68.0107 61.305 68.0433 61.3577 68.0856 61.4022C68.221 61.5619 68.4084 61.6686 68.6147 61.7036C68.5964 61.6521 68.5861 61.598 68.5843 61.5433C68.5797 61.3853 68.5233 61.2332 68.4239 61.1104C68.3277 60.9885 68.1097 60.9981 67.9638 61.0671Z" fill="#5E9DA6"/>
<path d="M68.2539 60.212C68.3893 59.8687 68.6422 59.5847 68.9674 59.4103C69.2918 59.2373 69.6504 59.1382 70.0176 59.1201C69.9843 59.3026 69.9135 59.4761 69.8097 59.6298C69.706 59.7835 69.5715 59.9141 69.4147 60.0132C69.0676 60.2257 68.652 60.2969 68.2539 60.212Z" fill="#77DBD3"/>
<path d="M66.4014 62.2572C66.5826 62.4799 66.8362 62.6319 67.1181 62.6869C67.3766 62.7229 67.6393 62.7164 67.8957 62.6676C67.8376 62.524 67.7463 62.3963 67.6292 62.2948C67.5121 62.1933 67.3727 62.1211 67.2223 62.084C67.0627 62.0594 66.9 62.0621 66.7413 62.092C66.6121 62.1053 66.4917 62.1638 66.4014 62.2572Z" fill="#77DBD3"/>
<path d="M61.0395 59.1877C61.1456 59.0361 61.3046 58.9298 61.4852 58.8895C61.668 58.8735 61.8604 59.0819 61.7594 59.2342C62.0223 58.8238 62.3061 58.4165 62.6092 58.0221C63.0902 55.9505 63.6273 52.0415 63.6273 52.0415C61.7417 55.1521 60.8422 58.4871 60.5488 59.7457C60.7113 59.5576 60.8748 59.3716 61.0395 59.1877Z" fill="#5E9DA6"/>
<path d="M61.8576 58.1938L61.6973 58.1489C61.6973 58.128 62.2953 55.9779 62.6449 54.9902L62.8052 55.0447C62.4557 56.0276 61.8672 58.1713 61.8576 58.1938Z" fill="white"/>
<path d="M66.6259 58.4575C66.0312 58.3835 65.4307 58.3696 64.8333 58.4158C64.4937 58.4482 64.1591 58.5198 63.836 58.629C63.278 59.2816 62.6912 59.9117 62.0723 60.5114C62.1882 60.4569 62.3132 60.4243 62.441 60.4152C62.5052 60.4123 62.5689 60.4269 62.6253 60.4574C62.6818 60.4879 62.729 60.5332 62.7617 60.5884C62.7782 60.624 62.7865 60.6629 62.7858 60.7022C64.2001 60.2118 65.5047 59.4493 66.6259 58.4575Z" fill="#5E9DA6"/>
<path d="M55.7176 40.6963H23.1995C22.9018 40.6963 22.6164 40.8145 22.4059 41.025C22.1954 41.2355 22.0771 41.521 22.0771 41.8187V64.3332H56.8383V41.8154C56.8375 41.5186 56.7191 41.2342 56.509 41.0245C56.299 40.8147 56.0144 40.6967 55.7176 40.6963Z" fill="#454966"/>
<path d="M55.2643 41.6182H23.6522C23.313 41.6182 23.0381 41.8931 23.0381 42.2323V62.7875C23.0381 63.1267 23.313 63.4016 23.6522 63.4016H55.2643C55.6035 63.4016 55.8784 63.1267 55.8784 62.7875V42.2323C55.8784 41.8931 55.6035 41.6182 55.2643 41.6182Z" fill="#F2EBEB"/>
<path d="M56.7995 64.3315H22.1201L17.1143 72.3372C16.9639 72.5777 16.8834 72.8553 16.8818 73.1389V74.2612C16.8818 74.3463 16.9156 74.4279 16.9758 74.488C17.0359 74.5481 17.1175 74.5819 17.2025 74.5819H61.7202C61.8053 74.5819 61.8868 74.5481 61.947 74.488C62.0071 74.4279 62.0409 74.3463 62.0409 74.2612V73.1389C62.0393 72.8553 61.9588 72.5777 61.8084 72.3372L56.7995 64.3315Z" fill="#D0DCEA"/>
<path d="M16.8818 73.1481V74.2705C16.8818 74.3555 16.9156 74.4371 16.9758 74.4972C17.0359 74.5574 17.1175 74.5912 17.2025 74.5912H61.7202C61.8053 74.5912 61.8868 74.5574 61.947 74.4972C62.0071 74.4371 62.0409 74.3555 62.0409 74.2705V73.1481C62.0409 73.0952 62.0409 73.0423 62.0297 72.9878H16.8931C16.8882 73.0423 16.8818 73.0952 16.8818 73.1481Z" fill="#B5BCCA"/>
<path d="M43.7085 72.4608H35.2106C35.1731 72.461 35.1361 72.4523 35.1026 72.4355C35.0691 72.4188 35.04 72.3943 35.0177 72.3642C34.9953 72.334 34.9804 72.2991 34.9741 72.2621C34.9678 72.2251 34.9703 72.1872 34.9814 72.1514L35.4736 70.5352C35.4884 70.486 35.5188 70.4428 35.5601 70.4122C35.6014 70.3816 35.6515 70.3651 35.7029 70.3652H43.2147C43.2661 70.3651 43.3162 70.3816 43.3575 70.4122C43.3988 70.4428 43.4291 70.486 43.444 70.5352L43.9362 72.1514C43.9469 72.1871 43.9491 72.2248 43.9428 72.2615C43.9364 72.2982 43.9216 72.3329 43.8995 72.3629C43.8774 72.3929 43.8487 72.4174 43.8156 72.4344C43.7824 72.4514 43.7458 72.4604 43.7085 72.4608Z" fill="#B5BCCA"/>
<path d="M46.4374 65.5764H48.4609L48.2524 64.9351H46.2803L46.4374 65.5764Z" fill="#454966"/>
<path d="M40.9912 65.8564L41.1195 66.9339H43.5277L43.3738 65.8564H40.9912Z" fill="#454966"/>
<path d="M48.9555 65.5764H51.1938L50.9565 64.9351H48.7471L48.9555 65.5764Z" fill="#454966"/>
<path d="M40.9562 65.5764H43.3308L43.2394 64.9351H40.8809L40.9562 65.5764Z" fill="#454966"/>
<path d="M43.8297 65.5764H45.9381L45.781 64.9351H43.7383L43.8297 65.5764Z" fill="#454966"/>
<path d="M43.7315 68.3541L43.5696 67.2173H41.1533L41.288 68.3541H43.7315Z" fill="#454966"/>
<path d="M35.2578 68.3541H37.6308L37.7655 67.2173H35.4486L35.2578 68.3541Z" fill="#454966"/>
<path d="M37.9255 65.8564H35.6743L35.4932 66.9339H37.7972L37.9255 65.8564Z" fill="#454966"/>
<path d="M38.0354 64.9351H35.8291L35.7217 65.5764H37.96L38.0354 64.9351Z" fill="#454966"/>
<path d="M33.1426 65.5764H35.2238L35.3312 64.9351H33.2981L33.1426 65.5764Z" fill="#454966"/>
<path d="M38.4232 65.8564L38.2949 66.9339H40.623L40.4948 65.8564H38.4232Z" fill="#454966"/>
<path d="M38.4541 65.5764H40.4583L40.3814 64.9351H38.5311L38.4541 65.5764Z" fill="#454966"/>
<path d="M38.124 68.3541H40.7872L40.6509 67.2173H38.2571L38.124 68.3541Z" fill="#454966"/>
<path d="M46.6164 68.3541L46.339 67.2173H44.0654L44.229 68.3541H46.6164Z" fill="#454966"/>
<path d="M51.793 65.8564L52.189 66.9339H54.4193L53.9223 65.8564H51.793Z" fill="#454966"/>
<path d="M54.9134 66.9339H56.9802L56.3709 65.8564H54.418L54.9134 66.9339Z" fill="#454966"/>
<path d="M57.1451 67.2173H54.5509H54.0586H52.2949L52.7134 68.3541H54.5813H55.072H57.7865L57.1451 67.2173Z" fill="#454966"/>
<path d="M48.9019 66.9339L48.5508 65.8564H46.5049L46.7694 66.9339H48.9019Z" fill="#454966"/>
<path d="M52.2185 68.3541L51.8001 67.2173H49.4912L49.86 68.3541H52.2185Z" fill="#454966"/>
<path d="M51.694 66.9339L51.2964 65.8564H49.0469L49.398 66.9339H51.694Z" fill="#454966"/>
<path d="M49.3636 68.3541L48.9948 67.2173H46.8398L47.1172 68.3541H49.3636Z" fill="#454966"/>
<path d="M51.6894 65.5764H53.7931L53.4997 64.9351H51.4521L51.6894 65.5764Z" fill="#454966"/>
<path d="M43.8682 65.8564L44.0221 66.9339H46.2668L46.0039 65.8564H43.8682Z" fill="#454966"/>
<path d="M29.1295 68.6367H26.7581L26.2627 69.9836H28.6902L29.1295 68.6367Z" fill="#454966"/>
<path d="M52.3171 68.6367H49.9473L50.385 69.9836H52.8141L52.3171 68.6367Z" fill="#454966"/>
<path d="M49.4533 68.6367H47.1846L47.5149 69.9836H49.8927L49.4533 68.6367Z" fill="#454966"/>
<path d="M46.6882 68.6367H32.3941L32.0654 69.9836H47.0185L46.6882 68.6367Z" fill="#454966"/>
<path d="M25.7674 69.9836L26.2629 68.6367H23.8787L23.2598 69.9836H25.7674Z" fill="#454966"/>
<path d="M31.893 68.6367H29.6242L29.1865 69.9836H31.5627L31.893 68.6367Z" fill="#454966"/>
<path d="M54.2931 65.5764H56.2171L55.8548 64.9351H53.998L54.2931 65.5764Z" fill="#454966"/>
<path d="M23.3792 68.6367H20.9725L20.2109 69.9836H22.7603L23.3792 68.6367Z" fill="#454966"/>
<path d="M24.7872 65.5764L25.0806 64.9351H23.0635L22.7012 65.5764H24.7872Z" fill="#454966"/>
<path d="M55.2036 68.6367H52.8193L53.3164 69.9836H55.8225L55.2036 68.6367Z" fill="#454966"/>
<path d="M57.9455 68.6367H55.6992L56.3181 69.9836H58.7072L57.9455 68.6367Z" fill="#454966"/>
<path d="M26.8623 68.3541H29.2209L29.5896 67.2173H27.2808L26.8623 68.3541Z" fill="#454966"/>
<path d="M32.5751 65.8564H30.5292L30.1797 66.9339H32.3122L32.5751 65.8564Z" fill="#454966"/>
<path d="M35.1762 65.8564H33.0741L32.8096 66.9339H34.9966L35.1762 65.8564Z" fill="#454966"/>
<path d="M34.9484 67.2173H32.7389L32.46 68.3541H34.7576L34.9484 67.2173Z" fill="#454966"/>
<path d="M30.0329 65.8564H27.7834L27.3857 66.9339H29.6834L30.0329 65.8564Z" fill="#454966"/>
<path d="M32.2411 67.2173H30.0846L29.7158 68.3541H31.9621L32.2411 67.2173Z" fill="#454966"/>
<path d="M21.9326 66.9339H24.1597L24.6568 65.8564H22.5419L21.9326 66.9339Z" fill="#454966"/>
<path d="M25.1794 67.2173H24.5284H21.7722L21.1309 68.3541H24.0057H24.6583H26.3643L26.7828 67.2173H25.1794Z" fill="#454966"/>
<path d="M26.8879 66.9339L27.2855 65.8564H25.1546L24.6592 66.9339H26.8879Z" fill="#454966"/>
<path d="M30.625 65.5764H32.6485L32.804 64.9351H30.8334L30.625 65.5764Z" fill="#454966"/>
<path d="M25.2861 65.5764H27.3914L27.6271 64.9351H25.5812L25.2861 65.5764Z" fill="#454966"/>
<path d="M27.8867 65.5764H30.125L30.3335 64.9351H28.1224L27.8867 65.5764Z" fill="#454966"/>
<path d="M44.4714 73.5875H34.4503C34.319 73.5867 34.1911 73.5458 34.0839 73.4701C33.9767 73.3944 33.8952 73.2876 33.8506 73.1642L33.7881 72.9878H45.1384L45.0758 73.1642C45.0309 73.2884 44.9488 73.3957 44.8406 73.4715C44.7324 73.5472 44.6035 73.5877 44.4714 73.5875Z" fill="#969DA8"/>
<path d="M49.7843 50.7198C49.7009 46.4917 49.1205 45.7493 49.1205 45.7493C47.4209 43.2208 41.5093 43.3442 41.5093 43.3442H37.4127C37.4127 43.3442 31.501 43.2224 29.8014 45.7493C29.8014 45.7493 29.221 46.4965 29.1376 50.7198C29.0543 54.9431 29.1376 63.4073 29.1376 63.4073H49.7843C49.7843 63.4073 49.8677 54.9495 49.7843 50.7198Z" fill="#D9E5F1"/>
<path d="M43.0972 43.3998C42.1608 43.3244 41.505 43.3373 41.505 43.3373H37.4084C37.4084 43.3373 36.7526 43.3244 35.8163 43.3998C35.6688 46.1656 35.2856 58.2599 39.4559 63.4067C43.6263 58.2599 43.2447 46.1656 43.0972 43.3998Z" fill="#55BCD9"/>
<path d="M43.0963 43.3994C44.4128 44.5259 45.3477 46.0327 45.7724 47.7125L44.4352 49.178C44.4352 49.178 45.3282 50.411 45.3779 50.9529C45.4277 51.4949 43.5389 61.5673 39.4551 63.4031C43.6255 58.2595 43.2439 46.1652 43.0963 43.3994Z" fill="#F2EBEB"/>
<path d="M41.5071 40.4961H37.4121V45.1603H41.5071V40.4961Z" fill="#CA7975"/>
<path d="M33.1106 34.7324C33.412 33.9901 34.233 34.556 34.233 34.556C34.233 34.556 34.5536 36.4544 34.8503 37.3347C33.2164 36.8713 32.8108 35.4748 33.1106 34.7324Z" fill="#CA7975"/>
<path d="M34.7281 36.9616C34.5421 36.2849 34.3674 35.3582 34.2808 34.8772C34.098 34.7858 33.7212 34.6591 33.5561 35.068C33.3396 35.6003 33.6186 36.5848 34.7281 36.9616Z" fill="#B06A75"/>
<path d="M34.5231 36.0046C34.5231 36.0046 33.3206 35.0008 33.5082 32.1019C33.6957 29.203 38.5908 25.1353 42.96 29.0892L43.3737 29.6536C43.3737 29.6536 44.6917 29.1277 45.1374 29.9935C45.5832 30.8593 45.6938 35.3344 44.0792 36.7116C42.4646 38.0889 34.5231 36.0046 34.5231 36.0046Z" fill="#834252"/>
<path d="M34.3721 34.615C34.3721 34.615 34.4811 41.043 39.2479 41.9473C39.3305 41.9633 39.4155 41.9633 39.4981 41.9473C42.7305 41.3348 43.8272 38.1809 44.1879 36.2152V35.9587C44.0164 35.7574 43.895 35.5184 43.8336 35.2612C43.5674 34.4403 43.5562 33.5616 43.5498 32.6958C43.3013 33.1768 42.7657 33.4766 42.2479 33.6258C41.7236 33.7532 41.1829 33.8003 40.6445 33.7653C40.7237 33.7261 40.7914 33.6671 40.8411 33.5941C40.8908 33.5211 40.9209 33.4364 40.9283 33.3484C40.9405 33.1667 41.0002 32.9915 41.1014 32.8401C39.7466 33.5809 38.1608 33.7316 36.612 33.7604C36.8798 33.6032 37.0768 33.3488 37.1619 33.0501C36.325 33.5889 35.294 33.637 34.2983 33.6642C34.2711 33.9015 34.356 34.3826 34.3721 34.615Z" fill="#DF9781"/>
<path d="M45.6509 34.7324C45.3511 33.9901 44.5382 34.556 44.5382 34.556C44.5382 34.556 44.2175 36.4544 43.9209 37.3347C45.5451 36.8713 45.9524 35.4748 45.6509 34.7324Z" fill="#CA7975"/>
<path d="M44.0234 37.0065C45.1907 36.6217 45.4825 35.5907 45.258 35.0343C45.0801 34.5966 44.6728 34.7489 44.49 34.8451C44.4034 35.3277 44.219 36.3138 44.0234 37.0065Z" fill="#B06A75"/>
<path d="M39.8195 35.9395C39.441 35.8176 39.0339 35.8176 38.6554 35.9395L38.5576 35.7423C38.9996 35.5996 39.4753 35.5996 39.9173 35.7423L39.8195 35.9395Z" fill="#834252"/>
<path d="M40.7911 39.2638C40.8481 39.2535 40.9067 39.2565 40.9623 39.2727C41.0179 39.2888 41.0691 39.3176 41.1117 39.3568C41.1344 39.3936 41.149 39.4348 41.1545 39.4776C41.16 39.5205 41.1564 39.564 41.1438 39.6053C41.1002 39.7667 41.0195 39.9157 40.9081 40.0404C40.7968 40.1651 40.6579 40.2621 40.5025 40.3236C40.1891 40.4438 39.8551 40.501 39.5196 40.492C39.2067 40.5094 38.8929 40.4781 38.5896 40.399C38.4341 40.3573 38.2907 40.2792 38.1711 40.1713C37.9787 39.9837 37.913 39.639 38.1567 39.4578C38.2994 39.352 40.1016 39.283 40.7911 39.2638Z" fill="#0F5CB5"/>
<path d="M38.5789 40.4001C38.8822 40.4792 39.1959 40.5106 39.5088 40.4931C39.8443 40.5021 40.1783 40.4449 40.4917 40.3248C40.601 40.2775 40.7031 40.2149 40.7947 40.1388C40.6222 39.962 40.3973 39.8456 40.1534 39.8069C39.6674 39.7176 39.1656 39.7938 38.728 40.0233C38.5808 40.0897 38.4454 40.1796 38.3271 40.2895C38.4067 40.3357 38.4911 40.3728 38.5789 40.4001Z" fill="#AF4E5E"/>
<path d="M39.362 38.4547C39.3498 38.457 39.3373 38.457 39.3251 38.4547C39.1647 38.397 38.9018 38.2752 38.8697 38.1164C38.854 38.0115 38.8633 37.9044 38.897 37.8038C39.0075 37.3751 39.0826 36.938 39.1215 36.497C39.124 36.469 39.1376 36.4431 39.1593 36.425C39.1809 36.407 39.2088 36.3983 39.2369 36.4008C39.265 36.4034 39.2909 36.417 39.3089 36.4386C39.327 36.4603 39.3357 36.4882 39.3331 36.5163C39.2929 36.9675 39.2162 37.4147 39.1038 37.8535C39.079 37.9239 39.0702 37.9989 39.0782 38.0731C39.1696 38.1579 39.2793 38.2205 39.3988 38.2559C39.4223 38.2645 39.4419 38.281 39.4543 38.3026C39.4667 38.3242 39.4711 38.3495 39.4667 38.3741C39.4623 38.3986 39.4494 38.4208 39.4302 38.4367C39.4111 38.4526 39.3869 38.4613 39.362 38.4612V38.4547Z" fill="#834252"/>
<path d="M37.1448 43.3364C36.9203 43.3364 36.566 43.3476 36.1299 43.3749L37.783 46.5111L39.4585 45.1579L37.411 43.3364H37.1448Z" fill="#9DE7E9"/>
<path d="M41.772 43.3364H41.5042L39.4551 45.1579L41.1306 46.5111L42.7869 43.3749C42.3508 43.3476 41.9964 43.338 41.772 43.3364Z" fill="#9DE7E9"/>
<path d="M35.8186 43.3994C34.5021 44.5259 33.5672 46.0327 33.1426 47.7125L34.4798 49.178C34.4798 49.178 33.5867 50.411 33.537 50.9529C33.4873 51.4949 35.3761 61.5673 39.4583 63.4063C35.2879 58.2595 35.6711 46.1652 35.8186 43.3994Z" fill="#F2EBEB"/>
<path d="M39.1754 63.262C35.2872 61.0975 33.4883 51.482 33.5364 50.9529C33.5845 50.4238 34.4791 49.178 34.4791 49.178L33.1419 47.7125C33.5648 46.0556 34.4799 44.5657 35.7667 43.4395L35.818 43.3994C35.6913 43.409 35.5614 43.4203 35.4251 43.4347C34.0354 44.5417 33.0264 46.0552 32.5391 47.7638L34.0029 49.2453C34.0029 49.2453 33.0249 50.4895 32.9704 51.0379C32.9159 51.5862 34.8511 61.1151 39.0279 63.4143H39.4256C39.3935 63.3598 39.2123 63.3101 39.1754 63.262Z" fill="#C2D8F1"/>
<path d="M39.7396 63.262C43.6262 61.0975 45.4252 51.482 45.3771 50.9529C45.329 50.4238 44.4343 49.178 44.4343 49.178L45.7715 47.7125C45.3489 46.0559 44.4344 44.5661 43.1484 43.4395L43.0955 43.3994C43.2221 43.409 43.3536 43.4203 43.4899 43.4347C44.8786 44.5426 45.8874 46.0558 46.376 47.7638L44.9105 49.2453C44.9105 49.2453 45.8901 50.4895 45.943 51.0379C45.996 51.5862 44.0559 61.1071 39.8791 63.4031H39.4814C39.5199 63.3598 39.6995 63.3101 39.7396 63.262Z" fill="#C2D8F1"/>
<path d="M31.7715 53.3716V63.4039H33.3187C32.6197 62.4804 31.7715 53.3716 31.7715 53.3716Z" fill="#C2D8F1"/>
<path d="M47.1469 53.3716V63.4039H45.5996C46.2987 62.4804 47.1469 53.3716 47.1469 53.3716Z" fill="#C2D8F1"/>
<path d="M37.7842 46.5124L38.8969 48.2874H40.0241L41.1352 46.5124L39.4597 45.1592L37.7842 46.5124Z" fill="#0F5CB5"/>
<path d="M39.4597 45.1592L37.7842 46.5124L38.0135 46.8764C38.4175 46.4499 38.8408 46.0394 39.2865 45.653C39.3099 45.6261 39.3395 45.6052 39.3728 45.5924C39.406 45.5795 39.4419 45.575 39.4773 45.5793C39.5149 45.5949 39.5472 45.6211 39.5703 45.6546C39.948 46.1471 40.3589 46.6132 40.8001 47.0496L41.1352 46.5124L39.4597 45.1592Z" fill="#050A74"/>
<path d="M40.015 48.2871H38.8926C38.8926 48.2871 37.3839 55.7957 37.8745 60.6828C38.2728 61.6601 38.8049 62.5775 39.4554 63.4085C40.1039 62.5827 40.6343 61.6708 41.0315 60.6988V60.678C41.5238 55.7957 40.015 48.2871 40.015 48.2871Z" fill="#050A74"/>
<path d="M40.0972 48.7393C40.0443 48.4507 40.0123 48.2871 40.0123 48.2871H38.8899C38.8899 48.2871 38.768 48.8964 38.6045 49.8793C38.7392 49.6933 38.8787 49.5105 39.0262 49.3357C39.1492 49.1758 39.2951 49.0348 39.4591 48.9172C39.6585 48.8177 39.8751 48.7572 40.0972 48.7393Z" fill="#033F84"/>
<path d="M38.3498 34.7393H36.0489C35.8391 34.7393 35.6689 34.9094 35.6689 35.1193V36.3314C35.6689 36.5413 35.8391 36.7114 36.0489 36.7114H38.3498C38.5597 36.7114 38.7298 36.5413 38.7298 36.3314V35.1193C38.7298 34.9094 38.5597 34.7393 38.3498 34.7393Z" fill="#F2EBEB"/>
<path d="M42.4318 34.7393H40.131C39.9211 34.7393 39.751 34.9094 39.751 35.1193V36.3314C39.751 36.5413 39.9211 36.7114 40.131 36.7114H42.4318C42.6417 36.7114 42.8118 36.5413 42.8118 36.3314V35.1193C42.8118 34.9094 42.6417 34.7393 42.4318 34.7393Z" fill="#F2EBEB"/>
<path d="M36.1299 43.3784L37.5232 47.0501L37.783 46.513L36.1299 43.3784Z" fill="#55A3D4"/>
<path d="M42.7894 43.3784L41.3961 47.0501L41.1348 46.513L42.7894 43.3784Z" fill="#55A3D4"/>
<path d="M27.6479 44.605H23.9072V49.0848H27.6479V44.605Z" fill="#F2C8C5"/>
<path d="M27.6479 43.8511H23.9072V44.6031H27.6479V43.8511Z" fill="#F2AFB1"/>
<path d="M27.3269 44.3726C27.4066 44.3726 27.4712 44.308 27.4712 44.2283C27.4712 44.1486 27.4066 44.084 27.3269 44.084C27.2472 44.084 27.1826 44.1486 27.1826 44.2283C27.1826 44.308 27.2472 44.3726 27.3269 44.3726Z" fill="white"/>
<path d="M26.9539 44.3726C27.0336 44.3726 27.0982 44.308 27.0982 44.2283C27.0982 44.1486 27.0336 44.084 26.9539 44.084C26.8742 44.084 26.8096 44.1486 26.8096 44.2283C26.8096 44.308 26.8742 44.3726 26.9539 44.3726Z" fill="white"/>
<path d="M26.7163 44.2277C26.7167 44.2563 26.7084 44.2845 26.6927 44.3084C26.6769 44.3324 26.6544 44.3512 26.628 44.3623C26.6016 44.3734 26.5724 44.3764 26.5443 44.3709C26.5161 44.3654 26.4903 44.3516 26.47 44.3313C26.4497 44.311 26.4359 44.2852 26.4304 44.257C26.4249 44.2289 26.4279 44.1997 26.439 44.1733C26.4501 44.1469 26.4689 44.1244 26.4929 44.1086C26.5168 44.0929 26.545 44.0847 26.5736 44.085C26.6115 44.085 26.6478 44.1 26.6745 44.1268C26.7013 44.1535 26.7163 44.1898 26.7163 44.2277Z" fill="white"/>
<path d="M55.0063 54.731H51.2656V59.2108H55.0063V54.731Z" fill="#F2C8C5"/>
<path d="M55.0063 53.98H51.2656V54.732H55.0063V53.98Z" fill="#F2AFB1"/>
<path d="M54.6824 54.4995C54.7621 54.4995 54.8267 54.4349 54.8267 54.3552C54.8267 54.2755 54.7621 54.2109 54.6824 54.2109C54.6027 54.2109 54.5381 54.2755 54.5381 54.3552C54.5381 54.4349 54.6027 54.4995 54.6824 54.4995Z" fill="white"/>
<path d="M54.4527 54.3552C54.4527 54.3839 54.4442 54.4118 54.4282 54.4356C54.4123 54.4593 54.3897 54.4778 54.3632 54.4887C54.3368 54.4996 54.3077 54.5023 54.2796 54.4967C54.2516 54.491 54.2259 54.477 54.2058 54.4567C54.1856 54.4364 54.172 54.4105 54.1666 54.3824C54.1613 54.3543 54.1643 54.3252 54.1755 54.2989C54.1867 54.2726 54.2054 54.2501 54.2294 54.2345C54.2533 54.2188 54.2814 54.2106 54.31 54.2109C54.3288 54.2109 54.3475 54.2147 54.365 54.222C54.3824 54.2292 54.3982 54.2399 54.4114 54.2533C54.4247 54.2667 54.4352 54.2826 54.4423 54.3001C54.4493 54.3176 54.4529 54.3364 54.4527 54.3552Z" fill="white"/>
<path d="M54.0767 54.3552C54.0767 54.3838 54.0682 54.4117 54.0524 54.4354C54.0365 54.4591 54.014 54.4776 53.9876 54.4886C53.9612 54.4995 53.9322 54.5023 53.9042 54.4968C53.8762 54.4912 53.8505 54.4775 53.8304 54.4573C53.8102 54.4371 53.7964 54.4114 53.7909 54.3834C53.7853 54.3554 53.7882 54.3264 53.7991 54.3C53.81 54.2737 53.8285 54.2511 53.8522 54.2353C53.876 54.2194 53.9039 54.2109 53.9324 54.2109C53.9514 54.2107 53.9703 54.2143 53.9879 54.2215C54.0055 54.2287 54.0215 54.2393 54.0349 54.2527C54.0483 54.2662 54.059 54.2822 54.0661 54.2998C54.0733 54.3174 54.0769 54.3362 54.0767 54.3552Z" fill="white"/>
<path d="M28.0737 58.6099H24.333V60.6782H28.0737V58.6099Z" fill="#F2C8C5"/>
<path d="M28.0737 57.8599H24.333V58.6118H28.0737V57.8599Z" fill="#F2AFB1"/>
<path d="M27.8882 58.234C27.8885 58.2627 27.8803 58.2908 27.8646 58.3148C27.8488 58.3388 27.8263 58.3575 27.7999 58.3686C27.7734 58.3797 27.7443 58.3827 27.7162 58.3772C27.688 58.3717 27.6622 58.3579 27.6419 58.3377C27.6216 58.3174 27.6078 58.2915 27.6023 58.2634C27.5968 58.2352 27.5998 58.2061 27.6109 58.1797C27.622 58.1532 27.6408 58.1307 27.6647 58.115C27.6887 58.0992 27.7168 58.091 27.7455 58.0913C27.7834 58.0913 27.8197 58.1064 27.8464 58.1331C27.8732 58.1599 27.8882 58.1962 27.8882 58.234Z" fill="white"/>
<path d="M27.3709 58.3785C27.4506 58.3785 27.5152 58.3138 27.5152 58.2342C27.5152 58.1545 27.4506 58.0898 27.3709 58.0898C27.2912 58.0898 27.2266 58.1545 27.2266 58.2342C27.2266 58.3138 27.2912 58.3785 27.3709 58.3785Z" fill="white"/>
<path d="M26.9968 58.3785C27.0765 58.3785 27.1411 58.3138 27.1411 58.2342C27.1411 58.1545 27.0765 58.0898 26.9968 58.0898C26.9171 58.0898 26.8525 58.1545 26.8525 58.2342C26.8525 58.3138 26.9171 58.3785 26.9968 58.3785Z" fill="white"/>
<path d="M55.564 44.896H50.709V45.3305H55.564V44.896Z" fill="#B8BDCA"/>
<path d="M55.5679 46.1602H54.415V46.5947H55.5679V46.1602Z" fill="#B8BDCA"/>
<path d="M53.1365 46.1602H50.709V46.5947H53.1365V46.1602Z" fill="#B8BDCA"/>
<path d="M55.564 47.4263H50.709V47.8608H55.564V47.4263Z" fill="#B8BDCA"/>
<path d="M55.5638 48.6904H52.96V49.1249H55.5638V48.6904Z" fill="#B8BDCA"/>
<path d="M51.6774 48.6904H50.709V49.1249H51.6774V48.6904Z" fill="#B8BDCA"/>
<path d="M55.564 49.9551H50.709V50.3896H55.564V49.9551Z" fill="#B8BDCA"/>
<path d="M27.7461 51.0654H26.4521V51.4999H27.7461V51.0654Z" fill="#B8BDCA"/>
<path d="M25.6122 51.0654H23.7715V51.4999H25.6122V51.0654Z" fill="#B8BDCA"/>
<path d="M27.7462 52.2939H23.7715V52.7285H27.7462V52.2939Z" fill="#B8BDCA"/>
<path d="M26.2824 53.5229H23.7715V53.9575H26.2824V53.5229Z" fill="#B8BDCA"/>
<path d="M27.7487 53.5229H26.9502V53.9575H27.7487V53.5229Z" fill="#B8BDCA"/>
<path d="M27.7462 54.7544H23.7715V55.1889H27.7462V54.7544Z" fill="#B8BDCA"/>
<path d="M73.1211 41.6001H67.3906V47.3306H73.1211V41.6001Z" fill="#8FC8FF"/>
<path d="M72.7651 41.6001V45.1724L71.0928 46.6812H67.3906V41.6001H72.7651Z" fill="#81AEFF"/>
<path d="M71.0151 46.3565H66.4375V40.3262H72.4678V45.0465L71.0151 46.3565Z" fill="#BAEBFF"/>
<path d="M71.0156 46.3562L72.4683 45.0463L71.0156 44.6406V46.3562Z" fill="#ADDBFF"/>
<path d="M69.3254 40.813H67.0742V43.2229H69.3254V40.813Z" fill="white"/>
<path d="M69.103 41.8126H68.4071V41.1167H67.9966V41.8126H67.3008V42.223H67.9966V42.9189H68.4071V42.223H69.103V41.8126Z" fill="#0F5CB5"/>
<path d="M74.5021 40.5081C74.4506 40.5351 74.3942 40.5515 74.3363 40.5566C74.2783 40.5617 74.22 40.5552 74.1645 40.5377C74.1091 40.5201 74.0577 40.4917 74.0132 40.4541C73.9688 40.4166 73.9322 40.3706 73.9057 40.3189L73.3621 39.2687C73.3081 39.1645 73.2977 39.0432 73.3332 38.9313C73.3687 38.8195 73.4471 38.7263 73.5513 38.6722C73.6029 38.6453 73.6592 38.6288 73.7172 38.6237C73.7751 38.6187 73.8335 38.6251 73.8889 38.6427C73.9444 38.6603 73.9958 38.6887 74.0402 38.7262C74.0846 38.7638 74.1212 38.8097 74.1478 38.8614L74.6929 39.9117C74.7196 39.9633 74.7358 40.0198 74.7407 40.0777C74.7455 40.1357 74.7389 40.194 74.7212 40.2494C74.7034 40.3048 74.675 40.3562 74.6374 40.4006C74.5998 40.445 74.5538 40.4815 74.5021 40.5081Z" fill="#5E9DA6"/>
<path d="M74.5012 40.5085C74.4497 40.5354 74.3933 40.5519 74.3354 40.557C74.2774 40.562 74.2191 40.5556 74.1636 40.538C74.1082 40.5204 74.0568 40.492 74.0123 40.4545C73.9679 40.4169 73.9313 40.371 73.9048 40.3193L73.6338 39.795L74.4194 39.3877L74.692 39.912C74.7187 39.9637 74.7349 40.0201 74.7398 40.0781C74.7446 40.136 74.738 40.1944 74.7203 40.2498C74.7025 40.3052 74.6741 40.3565 74.6365 40.4009C74.5989 40.4453 74.5529 40.4818 74.5012 40.5085Z" fill="#77DBD3"/>
<path d="M67.3182 39.3383C67.2136 39.3922 67.0918 39.4024 66.9797 39.3666C66.8675 39.3308 66.7742 39.252 66.7201 39.1475L66.1766 38.0972C66.1226 37.9931 66.1122 37.8717 66.1477 37.7598C66.1831 37.648 66.2616 37.5548 66.3658 37.5008C66.47 37.4468 66.5913 37.4364 66.7032 37.4719C66.815 37.5074 66.9082 37.5858 66.9622 37.69L67.5074 38.7402C67.561 38.8447 67.5712 38.9662 67.5358 39.0781C67.5003 39.1901 67.4222 39.2836 67.3182 39.3383Z" fill="#0F5CB5"/>
<path d="M67.3212 39.3392C67.2166 39.3931 67.0948 39.4033 66.9827 39.3675C66.8705 39.3317 66.7772 39.2529 66.7231 39.1484L66.4521 38.6241L67.2378 38.2168L67.5104 38.7411C67.564 38.8456 67.5742 38.9671 67.5388 39.079C67.5034 39.191 67.4252 39.2845 67.3212 39.3392Z" fill="#0F5CB5"/>
<path d="M65.1246 45.9566C65.0204 46.0106 64.899 46.021 64.7872 45.9855C64.6753 45.95 64.5821 45.8715 64.5281 45.7674L63.983 44.7172C63.929 44.6125 63.9188 44.4908 63.9546 44.3786C63.9904 44.2665 64.0692 44.1732 64.1738 44.1191C64.2255 44.0924 64.2819 44.0762 64.3399 44.0714C64.3978 44.0665 64.4562 44.0731 64.5116 44.0909C64.567 44.1086 64.6183 44.1371 64.6627 44.1746C64.7071 44.2122 64.7436 44.2582 64.7702 44.3099L65.3138 45.3601C65.3678 45.4643 65.3782 45.5857 65.3427 45.6975C65.3072 45.8094 65.2287 45.9026 65.1246 45.9566Z" fill="#4CB5FF"/>
<path d="M65.1239 45.9563C65.0197 46.0103 64.8984 46.0207 64.7865 45.9853C64.6747 45.9498 64.5815 45.8713 64.5275 45.7671L64.2549 45.2412L65.0405 44.834L65.3131 45.3599C65.3671 45.4641 65.3775 45.5854 65.342 45.6973C65.3065 45.8091 65.2281 45.9023 65.1239 45.9563Z" fill="#0F5CB5"/>
<path d="M71.8791 41.458H69.8701V41.5478H71.8791V41.458Z" fill="#454966"/>
<path d="M71.8743 42.1763H71.3564V42.2661H71.8743V42.1763Z" fill="#454966"/>
<path d="M70.7407 42.1763H69.8701V42.2661H70.7407V42.1763Z" fill="#454966"/>
<path d="M71.8791 42.8921H69.8701V42.9819H71.8791V42.8921Z" fill="#454966"/>
<path d="M71.5991 43.7207H69.3271V43.8105H71.5991V43.7207Z" fill="#454966"/>
<path d="M68.2011 43.7207H67.0547V43.8105H68.2011V43.7207Z" fill="#454966"/>
<path d="M71.5987 44.3394H67.0547V44.4291H71.5987V44.3394Z" fill="#454966"/>
<path d="M70.6622 44.9575H69.8701V45.0473H70.6622V44.9575Z" fill="#454966"/>
<path d="M68.9948 44.9575H67.0547V45.0473H68.9948V44.9575Z" fill="#454966"/>
<path d="M70.7376 45.5776H67.0547V45.6674H70.7376V45.5776Z" fill="#454966"/>
<path d="M64.4562 51.1729V50.0511H64.8352C64.9232 50.0511 64.9951 50.067 65.051 50.0987C65.1072 50.1301 65.1489 50.1727 65.1759 50.2264C65.2029 50.28 65.2164 50.3399 65.2164 50.406C65.2164 50.4721 65.2029 50.5322 65.1759 50.5862C65.1492 50.6403 65.108 50.6834 65.0521 50.7155C64.9962 50.7473 64.9247 50.7631 64.8374 50.7631H64.5657V50.6426H64.833C64.8933 50.6426 64.9416 50.6322 64.9782 50.6114C65.0147 50.5906 65.0411 50.5625 65.0576 50.5271C65.0744 50.4913 65.0828 50.4509 65.0828 50.406C65.0828 50.3611 65.0744 50.3209 65.0576 50.2855C65.0411 50.2501 65.0145 50.2223 64.9776 50.2022C64.9407 50.1818 64.8918 50.1716 64.8308 50.1716H64.592V51.1729H64.4562ZM65.4352 51.1729V50.0511H65.8143C65.9019 50.0511 65.9739 50.066 66.0301 50.096C66.0863 50.1256 66.128 50.1663 66.155 50.2181C66.182 50.27 66.1955 50.329 66.1955 50.3951C66.1955 50.4611 66.182 50.5198 66.155 50.5709C66.128 50.622 66.0865 50.6622 66.0306 50.6914C65.9748 50.7202 65.9034 50.7347 65.8165 50.7347H65.5097V50.612H65.8121C65.872 50.612 65.9202 50.6032 65.9567 50.5857C65.9936 50.5681 66.0202 50.5433 66.0367 50.5112C66.0535 50.4787 66.0619 50.44 66.0619 50.3951C66.0619 50.3501 66.0535 50.3109 66.0367 50.2773C66.0199 50.2437 65.993 50.2178 65.9561 50.1995C65.9193 50.1809 65.8705 50.1716 65.8099 50.1716H65.5711V51.1729H65.4352ZM65.9633 50.6689L66.2393 51.1729H66.0816L65.8099 50.6689H65.9633ZM66.4219 51.1729V50.0511H67.0989V50.1716H66.5577V50.5506H67.0638V50.6711H66.5577V51.0523H67.1076V51.1729H66.4219ZM67.9572 50.3315C67.9506 50.276 67.924 50.2329 67.8772 50.2022C67.8305 50.1716 67.7732 50.1562 67.7052 50.1562C67.6556 50.1562 67.6121 50.1643 67.5749 50.1803C67.538 50.1964 67.5091 50.2185 67.4883 50.2466C67.4679 50.2747 67.4577 50.3067 67.4577 50.3425C67.4577 50.3724 67.4648 50.3982 67.479 50.4197C67.4936 50.4409 67.5122 50.4586 67.5349 50.4728C67.5575 50.4867 67.5813 50.4982 67.6061 50.5073C67.6309 50.5161 67.6537 50.5232 67.6746 50.5287L67.7885 50.5594C67.8177 50.567 67.8502 50.5776 67.886 50.5911C67.9221 50.6047 67.9566 50.6231 67.9895 50.6465C68.0227 50.6695 68.0501 50.6991 68.0717 50.7352C68.0932 50.7714 68.104 50.8157 68.104 50.8683C68.104 50.9289 68.0881 50.9837 68.0563 51.0326C68.0249 51.0816 67.9789 51.1205 67.9183 51.1493C67.8581 51.1781 67.7848 51.1926 67.6987 51.1926C67.6183 51.1926 67.5488 51.1796 67.49 51.1537C67.4315 51.1278 67.3855 51.0916 67.3519 51.0452C67.3187 50.9989 67.2999 50.945 67.2955 50.8836H67.4357C67.4394 50.926 67.4536 50.9611 67.4785 50.9888C67.5037 51.0162 67.5354 51.0366 67.5738 51.0502C67.6125 51.0633 67.6541 51.0699 67.6987 51.0699C67.7505 51.0699 67.7971 51.0615 67.8383 51.0447C67.8796 51.0275 67.9123 51.0038 67.9364 50.9735C67.9605 50.9428 67.9725 50.907 67.9725 50.8661C67.9725 50.8289 67.9621 50.7986 67.9413 50.7752C67.9205 50.7518 67.8931 50.7328 67.8591 50.7182C67.8252 50.7036 67.7885 50.6908 67.7491 50.6799L67.611 50.6404C67.5234 50.6152 67.454 50.5793 67.4029 50.5325C67.3518 50.4858 67.3262 50.4246 67.3262 50.349C67.3262 50.2862 67.3432 50.2315 67.3771 50.1847C67.4115 50.1376 67.4575 50.1011 67.5152 50.0752C67.5732 50.0489 67.638 50.0357 67.7096 50.0357C67.7819 50.0357 67.8462 50.0487 67.9024 50.0746C67.9587 50.1002 68.0032 50.1352 68.0361 50.1798C68.0693 50.2243 68.0868 50.2749 68.0887 50.3315H67.9572ZM69.23 50.4016H69.0942C69.0861 50.3626 69.0721 50.3282 69.052 50.2987C69.0323 50.2691 69.0082 50.2442 68.9797 50.2242C68.9516 50.2037 68.9204 50.1884 68.886 50.1781C68.8517 50.1679 68.8159 50.1628 68.7787 50.1628C68.7108 50.1628 68.6492 50.18 68.5941 50.2143C68.5393 50.2486 68.4957 50.2992 68.4632 50.366C68.431 50.4328 68.415 50.5148 68.415 50.612C68.415 50.7091 68.431 50.7911 68.4632 50.8579C68.4957 50.9247 68.5393 50.9753 68.5941 51.0096C68.6492 51.0439 68.7108 51.0611 68.7787 51.0611C68.8159 51.0611 68.8517 51.056 68.886 51.0458C68.9204 51.0356 68.9516 51.0204 68.9797 51.0003C69.0082 50.9799 69.0323 50.9548 69.052 50.9253C69.0721 50.8953 69.0861 50.861 69.0942 50.8223H69.23C69.2198 50.8796 69.2012 50.9309 69.1741 50.9762C69.1471 51.0215 69.1135 51.06 69.0734 51.0918C69.0332 51.1232 68.9881 51.1471 68.9381 51.1635C68.8884 51.18 68.8353 51.1882 68.7787 51.1882C68.683 51.1882 68.5979 51.1648 68.5234 51.1181C68.4489 51.0713 68.3903 51.0049 68.3476 50.9187C68.3049 50.8325 68.2835 50.7303 68.2835 50.612C68.2835 50.4936 68.3049 50.3914 68.3476 50.3052C68.3903 50.219 68.4489 50.1526 68.5234 50.1058C68.5979 50.0591 68.683 50.0357 68.7787 50.0357C68.8353 50.0357 68.8884 50.044 68.9381 50.0604C68.9881 50.0768 69.0332 50.1009 69.0734 50.1327C69.1135 50.1641 69.1471 50.2024 69.1741 50.2477C69.2012 50.2926 69.2198 50.3439 69.23 50.4016ZM69.4495 51.1729V50.0511H69.8286C69.9162 50.0511 69.9881 50.066 70.0444 50.096C70.1006 50.1256 70.1422 50.1663 70.1693 50.2181C70.1963 50.27 70.2098 50.329 70.2098 50.3951C70.2098 50.4611 70.1963 50.5198 70.1693 50.5709C70.1422 50.622 70.1008 50.6622 70.0449 50.6914C69.9891 50.7202 69.9177 50.7347 69.8308 50.7347H69.524V50.612H69.8264C69.8863 50.612 69.9345 50.6032 69.971 50.5857C70.0079 50.5681 70.0345 50.5433 70.0509 50.5112C70.0677 50.4787 70.0761 50.44 70.0761 50.3951C70.0761 50.3501 70.0677 50.3109 70.0509 50.2773C70.0341 50.2437 70.0073 50.2178 69.9704 50.1995C69.9335 50.1809 69.8848 50.1716 69.8242 50.1716H69.5854V51.1729H69.4495ZM69.9775 50.6689L70.2536 51.1729H70.0959L69.8242 50.6689H69.9775ZM70.572 50.0511V51.1729H70.4361V50.0511H70.572ZM70.8444 51.1729V50.0511H71.2234C71.3114 50.0511 71.3833 50.067 71.4392 50.0987C71.4954 50.1301 71.5371 50.1727 71.5641 50.2264C71.5911 50.28 71.6046 50.3399 71.6046 50.406C71.6046 50.4721 71.5911 50.5322 71.5641 50.5862C71.5374 50.6403 71.4962 50.6834 71.4403 50.7155C71.3844 50.7473 71.3129 50.7631 71.2256 50.7631H70.9539V50.6426H71.2212C71.2815 50.6426 71.3298 50.6322 71.3664 50.6114C71.4029 50.5906 71.4293 50.5625 71.4458 50.5271C71.4626 50.4913 71.471 50.4509 71.471 50.406C71.471 50.3611 71.4626 50.3209 71.4458 50.2855C71.4293 50.2501 71.4027 50.2223 71.3658 50.2022C71.3289 50.1818 71.28 50.1716 71.219 50.1716H70.9802V51.1729H70.8444ZM71.7621 50.1716V50.0511H72.6034V50.1716H72.2507V51.1729H72.1148V50.1716H71.7621ZM72.9489 50.0511V51.1729H72.8131V50.0511H72.9489ZM74.1678 50.612C74.1678 50.7303 74.1464 50.8325 74.1037 50.9187C74.061 51.0049 74.0024 51.0713 73.9279 51.1181C73.8534 51.1648 73.7683 51.1882 73.6726 51.1882C73.577 51.1882 73.4919 51.1648 73.4174 51.1181C73.3429 51.0713 73.2843 51.0049 73.2416 50.9187C73.1988 50.8325 73.1775 50.7303 73.1775 50.612C73.1775 50.4936 73.1988 50.3914 73.2416 50.3052C73.2843 50.219 73.3429 50.1526 73.4174 50.1058C73.4919 50.0591 73.577 50.0357 73.6726 50.0357C73.7683 50.0357 73.8534 50.0591 73.9279 50.1058C74.0024 50.1526 74.061 50.219 74.1037 50.3052C74.1464 50.3914 74.1678 50.4936 74.1678 50.612ZM74.0363 50.612C74.0363 50.5148 74.0201 50.4328 73.9876 50.366C73.9554 50.2992 73.9118 50.2486 73.8567 50.2143C73.8019 50.18 73.7405 50.1628 73.6726 50.1628C73.6047 50.1628 73.5432 50.18 73.488 50.2143C73.4333 50.2486 73.3896 50.2992 73.3571 50.366C73.325 50.4328 73.3089 50.5148 73.3089 50.612C73.3089 50.7091 73.325 50.7911 73.3571 50.8579C73.3896 50.9247 73.4333 50.9753 73.488 51.0096C73.5432 51.0439 73.6047 51.0611 73.6726 51.0611C73.7405 51.0611 73.8019 51.0439 73.8567 51.0096C73.9118 50.9753 73.9554 50.9247 73.9876 50.8579C74.0201 50.7911 74.0363 50.7091 74.0363 50.612ZM75.2857 50.0511V51.1729H75.1543L74.543 50.2921H74.532V51.1729H74.3962V50.0511H74.5277L75.1411 50.934H75.1521V50.0511H75.2857Z" fill="#758596"/>
<path d="M12.104 23.3202H10.1912C9.64984 23.3177 9.13152 23.1009 8.74962 22.7171C8.36771 22.3334 8.15331 21.8141 8.15332 21.2727V19.6533H9.00471V21.2727C9.00514 21.5894 9.13112 21.893 9.35505 22.1169C9.57897 22.3408 9.88255 22.4668 10.1992 22.4672H12.104C12.4207 22.4668 12.7243 22.3408 12.9482 22.1169C13.1721 21.893 13.2981 21.5894 13.2985 21.2727V19.6533H14.1483V21.2727C14.1485 21.5414 14.0958 21.8075 13.9932 22.0558C13.8906 22.3041 13.7401 22.5297 13.5502 22.7199C13.3604 22.91 13.135 23.0609 12.8868 23.1639C12.6387 23.2669 12.3727 23.32 12.104 23.3202Z" fill="#5B5A87"/>
<path d="M8.64617 19.6303H8.47461V16.8934C8.47461 16.7156 8.54522 16.5451 8.67091 16.4194C8.7966 16.2938 8.96707 16.2231 9.14482 16.2231H9.78617V16.4011H9.14482C9.0144 16.4015 8.88944 16.4535 8.79722 16.5458C8.705 16.638 8.65301 16.7629 8.65258 16.8934L8.64617 19.6303Z" fill="#454966"/>
<path d="M13.8291 19.6303H13.6512V16.8934C13.6507 16.7629 13.5987 16.638 13.5065 16.5458C13.4143 16.4535 13.2893 16.4015 13.1589 16.4011H12.5176V16.2231H13.1589C13.3367 16.2231 13.5072 16.2938 13.6328 16.4194C13.7585 16.5451 13.8291 16.7156 13.8291 16.8934V19.6303Z" fill="#454966"/>
<path d="M10.278 16.6435H9.65593C9.57583 16.6431 9.49917 16.611 9.44268 16.5542C9.3862 16.4974 9.35449 16.4206 9.35449 16.3405C9.35449 16.2606 9.38625 16.1839 9.44278 16.1274C9.49931 16.0708 9.57598 16.0391 9.65593 16.0391H10.278V16.6435Z" fill="#5B5A87"/>
<path d="M10.2784 16.0391H9.91602V16.6435H10.2784V16.0391Z" fill="#444B76"/>
<path d="M12.0195 16.0391H12.6465C12.7264 16.0391 12.8031 16.0708 12.8596 16.1274C12.9161 16.1839 12.9479 16.2606 12.9479 16.3405C12.9479 16.4206 12.9162 16.4974 12.8597 16.5542C12.8032 16.611 12.7265 16.6431 12.6465 16.6435H12.0195V16.0391Z" fill="#5B5A87"/>
<path d="M12.3819 16.0391H12.0195V16.6435H12.3819V16.0391Z" fill="#444B76"/>
<path d="M11.2337 24.6496H11.0637C10.9476 24.6496 10.8363 24.6035 10.7542 24.5214C10.6721 24.4394 10.626 24.328 10.626 24.2119V23.3188H11.6714V24.2151C11.6705 24.3307 11.624 24.4412 11.542 24.5226C11.46 24.604 11.3492 24.6497 11.2337 24.6496Z" fill="#5B5A87"/>
<path d="M11.6714 23.3179H10.626V23.6995H11.6714V23.3179Z" fill="#444B76"/>
<path d="M14.1297 30.3738C14.039 30.3757 13.9488 30.3596 13.8644 30.3264C13.78 30.2931 13.703 30.2434 13.638 30.1802C13.5729 30.1169 13.5211 30.0414 13.4855 29.9579C13.4499 29.8744 13.4313 29.7847 13.4307 29.694V26.9683C13.4237 26.8486 13.3712 26.7362 13.284 26.6539C13.1968 26.5717 13.0815 26.5259 12.9617 26.5259C12.8418 26.5259 12.7265 26.5717 12.6393 26.6539C12.5522 26.7362 12.4997 26.8486 12.4927 26.9683V29.694C12.4927 29.7833 12.4751 29.8717 12.4409 29.9542C12.4068 30.0366 12.3567 30.1116 12.2936 30.1747C12.2305 30.2378 12.1555 30.2879 12.073 30.3221C11.9905 30.3562 11.9021 30.3738 11.8129 30.3738H11.7231C11.6334 30.3743 11.5445 30.3569 11.4616 30.3229C11.3786 30.2888 11.3032 30.2386 11.2397 30.1753C11.1762 30.1119 11.1259 30.0367 11.0916 29.9538C11.0574 29.8709 11.0398 29.7821 11.04 29.6924V24.6498H11.2517V29.6924C11.2521 29.8167 11.3018 29.9358 11.3898 30.0236C11.4779 30.1113 11.5972 30.1606 11.7215 30.1606H11.8113C11.9354 30.1606 12.0545 30.1113 12.1423 30.0235C12.2301 29.9357 12.2795 29.8166 12.2795 29.6924V26.9667C12.2795 26.7859 12.3512 26.6126 12.479 26.4848C12.6068 26.357 12.7802 26.2852 12.9609 26.2852C13.1416 26.2852 13.3149 26.357 13.4427 26.4848C13.5705 26.6126 13.6423 26.7859 13.6423 26.9667V29.6924C13.6423 29.82 13.693 29.9423 13.7832 30.0325C13.8734 30.1227 13.9958 30.1734 14.1233 30.1734C14.2509 30.1734 14.3733 30.1227 14.4635 30.0325C14.5537 29.9423 14.6043 29.82 14.6043 29.6924V24.4686C14.6048 24.3118 14.6672 24.1616 14.7781 24.0507C14.889 23.9398 15.0392 23.8774 15.196 23.877H16.0907V24.0902H15.1896C15.1399 24.0902 15.0907 24.1 15.0448 24.119C14.9989 24.138 14.9571 24.1659 14.922 24.201C14.8869 24.2362 14.859 24.2779 14.84 24.3238C14.821 24.3697 14.8112 24.4189 14.8112 24.4686V29.6924C14.8112 29.8731 14.7394 30.0464 14.6116 30.1742C14.4838 30.302 14.3105 30.3738 14.1297 30.3738Z" fill="#454966"/>
<path d="M16.9155 24.9027C17.4237 24.9027 17.8358 24.4906 17.8358 23.9823C17.8358 23.4741 17.4237 23.062 16.9155 23.062C16.4072 23.062 15.9951 23.4741 15.9951 23.9823C15.9951 24.4906 16.4072 24.9027 16.9155 24.9027Z" fill="#D9E5F1"/>
<path d="M16.9201 24.3583C17.1273 24.3583 17.2953 24.1903 17.2953 23.9831C17.2953 23.7759 17.1273 23.6079 16.9201 23.6079C16.7129 23.6079 16.5449 23.7759 16.5449 23.9831C16.5449 24.1903 16.7129 24.3583 16.9201 24.3583Z" fill="#C0C2E3"/>
<path d="M8.13533 33.189H7.78916V32.0672H8.15067C8.25949 32.0672 8.35261 32.0896 8.43002 32.1346C8.50744 32.1791 8.56677 32.2432 8.60804 32.3268C8.6493 32.4101 8.66993 32.5098 8.66993 32.6259C8.66993 32.7427 8.64912 32.8433 8.60749 32.9277C8.56586 33.0117 8.50524 33.0763 8.42564 33.1216C8.34603 33.1665 8.24927 33.189 8.13533 33.189ZM7.925 33.0685H8.12657C8.21932 33.0685 8.29619 33.0506 8.35717 33.0148C8.41815 32.979 8.46362 32.9281 8.49356 32.862C8.5235 32.7959 8.53847 32.7172 8.53847 32.6259C8.53847 32.5353 8.52369 32.4574 8.49411 32.392C8.46453 32.3263 8.42034 32.2759 8.36155 32.2408C8.30276 32.2054 8.22955 32.1877 8.14191 32.1877H7.925V33.0685ZM9.03363 32.0672V33.189H8.89779V32.0672H9.03363ZM9.35201 33.189H9.2096L9.6215 32.0672H9.76172L10.1736 33.189H10.0312L9.69599 32.2447H9.68723L9.35201 33.189ZM9.40459 32.7508H9.97863V32.8713H9.40459V32.7508ZM11.0625 32.4177C11.0504 32.3809 11.0345 32.3478 11.0148 32.3186C10.9955 32.289 10.9723 32.2638 10.9453 32.243C10.9186 32.2222 10.8883 32.2063 10.8543 32.1954C10.8204 32.1844 10.7831 32.1789 10.7426 32.1789C10.6761 32.1789 10.6157 32.1961 10.5613 32.2304C10.5069 32.2647 10.4636 32.3153 10.4315 32.3821C10.3993 32.449 10.3833 32.5309 10.3833 32.6281C10.3833 32.7252 10.3995 32.8072 10.432 32.874C10.4645 32.9408 10.5085 32.9914 10.564 33.0257C10.6195 33.0601 10.682 33.0772 10.7514 33.0772C10.8156 33.0772 10.8722 33.0635 10.9212 33.0361C10.9705 33.0084 11.0088 32.9693 11.0362 32.9189C11.0639 32.8682 11.0778 32.8085 11.0778 32.7398L11.1194 32.7486H10.782V32.6281H11.2093V32.7486C11.2093 32.841 11.1896 32.9213 11.1501 32.9896C11.111 33.0579 11.057 33.1108 10.988 33.1484C10.9193 33.1857 10.8405 33.2043 10.7514 33.2043C10.652 33.2043 10.5648 33.1809 10.4895 33.1342C10.4147 33.0874 10.3563 33.021 10.3143 32.9348C10.2726 32.8486 10.2518 32.7464 10.2518 32.6281C10.2518 32.5393 10.2637 32.4596 10.2874 32.3887C10.3115 32.3175 10.3455 32.2569 10.3893 32.2069C10.4331 32.1568 10.485 32.1185 10.5449 32.0918C10.6047 32.0652 10.6707 32.0518 10.7426 32.0518C10.8018 32.0518 10.8569 32.0608 10.908 32.0787C10.9595 32.0962 11.0053 32.1212 11.0455 32.1537C11.086 32.1859 11.1198 32.2244 11.1468 32.2693C11.1739 32.3139 11.1925 32.3633 11.2027 32.4177H11.0625ZM12.3315 32.0672V33.189H12.2L11.5887 32.3082H11.5778V33.189H11.4419V32.0672H11.5734L12.1869 32.9501H12.1978V32.0672H12.3315ZM13.5498 32.6281C13.5498 32.7464 13.5284 32.8486 13.4857 32.9348C13.443 33.021 13.3844 33.0874 13.3099 33.1342C13.2354 33.1809 13.1503 33.2043 13.0546 33.2043C12.9589 33.2043 12.8739 33.1809 12.7994 33.1342C12.7249 33.0874 12.6663 33.021 12.6235 32.9348C12.5808 32.8486 12.5595 32.7464 12.5595 32.6281C12.5595 32.5098 12.5808 32.4075 12.6235 32.3213C12.6663 32.2352 12.7249 32.1687 12.7994 32.122C12.8739 32.0752 12.9589 32.0518 13.0546 32.0518C13.1503 32.0518 13.2354 32.0752 13.3099 32.122C13.3844 32.1687 13.443 32.2352 13.4857 32.3213C13.5284 32.4075 13.5498 32.5098 13.5498 32.6281ZM13.4183 32.6281C13.4183 32.5309 13.4021 32.449 13.3696 32.3821C13.3374 32.3153 13.2938 32.2647 13.2387 32.2304C13.1839 32.1961 13.1225 32.1789 13.0546 32.1789C12.9867 32.1789 12.9252 32.1961 12.87 32.2304C12.8153 32.2647 12.7716 32.3153 12.7391 32.3821C12.707 32.449 12.6909 32.5309 12.6909 32.6281C12.6909 32.7252 12.707 32.8072 12.7391 32.874C12.7716 32.9408 12.8153 32.9914 12.87 33.0257C12.9252 33.0601 12.9867 33.0772 13.0546 33.0772C13.1225 33.0772 13.1839 33.0601 13.2387 33.0257C13.2938 32.9914 13.3374 32.9408 13.3696 32.874C13.4021 32.8072 13.4183 32.7252 13.4183 32.6281ZM14.3917 32.3476C14.3851 32.2921 14.3584 32.249 14.3117 32.2184C14.265 32.1877 14.2076 32.1724 14.1397 32.1724C14.09 32.1724 14.0466 32.1804 14.0093 32.1965C13.9725 32.2125 13.9436 32.2346 13.9228 32.2627C13.9023 32.2908 13.8921 32.3228 13.8921 32.3586C13.8921 32.3885 13.8992 32.4143 13.9135 32.4358C13.9281 32.457 13.9467 32.4747 13.9694 32.4889C13.992 32.5028 14.0157 32.5143 14.0406 32.5235C14.0654 32.5322 14.0882 32.5393 14.109 32.5448L14.223 32.5755C14.2522 32.5832 14.2847 32.5937 14.3205 32.6073C14.3566 32.6208 14.3911 32.6392 14.424 32.6626C14.4572 32.6856 14.4846 32.7152 14.5061 32.7513C14.5277 32.7875 14.5385 32.8318 14.5385 32.8844C14.5385 32.945 14.5226 32.9998 14.4908 33.0487C14.4594 33.0977 14.4134 33.1366 14.3528 33.1654C14.2925 33.1943 14.2193 33.2087 14.1331 33.2087C14.0528 33.2087 13.9832 33.1957 13.9244 33.1698C13.866 33.1439 13.82 33.1077 13.7864 33.0613C13.7532 33.015 13.7344 32.9611 13.73 32.8998H13.8702C13.8739 32.9421 13.8881 32.9772 13.9129 33.0049C13.9381 33.0323 13.9699 33.0528 14.0082 33.0663C14.047 33.0794 14.0886 33.086 14.1331 33.086C14.185 33.086 14.2315 33.0776 14.2728 33.0608C14.3141 33.0436 14.3467 33.0199 14.3709 32.9896C14.395 32.9589 14.407 32.9231 14.407 32.8822C14.407 32.845 14.3966 32.8147 14.3758 32.7913C14.355 32.7679 14.3276 32.7489 14.2936 32.7343C14.2597 32.7197 14.223 32.707 14.1835 32.696L14.0455 32.6566C13.9579 32.6314 13.8885 32.5954 13.8373 32.5487C13.7862 32.5019 13.7607 32.4407 13.7607 32.3652C13.7607 32.3024 13.7776 32.2476 13.8116 32.2008C13.8459 32.1537 13.8919 32.1172 13.9496 32.0913C14.0077 32.065 14.0725 32.0518 14.1441 32.0518C14.2164 32.0518 14.2807 32.0648 14.3369 32.0907C14.3931 32.1163 14.4377 32.1514 14.4705 32.1959C14.5038 32.2405 14.5213 32.291 14.5231 32.3476H14.3917ZM14.8976 32.0672V33.189H14.7618V32.0672H14.8976ZM15.7835 32.3476C15.7769 32.2921 15.7503 32.249 15.7035 32.2184C15.6568 32.1877 15.5994 32.1724 15.5315 32.1724C15.4819 32.1724 15.4384 32.1804 15.4012 32.1965C15.3643 32.2125 15.3354 32.2346 15.3146 32.2627C15.2942 32.2908 15.2839 32.3228 15.2839 32.3586C15.2839 32.3885 15.2911 32.4143 15.3053 32.4358C15.3199 32.457 15.3385 32.4747 15.3612 32.4889C15.3838 32.5028 15.4075 32.5143 15.4324 32.5235C15.4572 32.5322 15.48 32.5393 15.5008 32.5448L15.6148 32.5755C15.644 32.5832 15.6765 32.5937 15.7123 32.6073C15.7484 32.6208 15.7829 32.6392 15.8158 32.6626C15.849 32.6856 15.8764 32.7152 15.898 32.7513C15.9195 32.7875 15.9303 32.8318 15.9303 32.8844C15.9303 32.945 15.9144 32.9998 15.8826 33.0487C15.8512 33.0977 15.8052 33.1366 15.7446 33.1654C15.6843 33.1943 15.6111 33.2087 15.5249 33.2087C15.4446 33.2087 15.375 33.1957 15.3163 33.1698C15.2578 33.1439 15.2118 33.1077 15.1782 33.0613C15.145 33.015 15.1262 32.9611 15.1218 32.8998H15.262C15.2657 32.9421 15.2799 32.9772 15.3048 33.0049C15.3299 33.0323 15.3617 33.0528 15.4001 33.0663C15.4388 33.0794 15.4804 33.086 15.5249 33.086C15.5768 33.086 15.6234 33.0776 15.6646 33.0608C15.7059 33.0436 15.7386 33.0199 15.7627 32.9896C15.7868 32.9589 15.7988 32.9231 15.7988 32.8822C15.7988 32.845 15.7884 32.8147 15.7676 32.7913C15.7468 32.7679 15.7194 32.7489 15.6854 32.7343C15.6515 32.7197 15.6148 32.707 15.5753 32.696L15.4373 32.6566C15.3497 32.6314 15.2803 32.5954 15.2292 32.5487C15.178 32.5019 15.1525 32.4407 15.1525 32.3652C15.1525 32.3024 15.1695 32.2476 15.2034 32.2008C15.2377 32.1537 15.2838 32.1172 15.3415 32.0913C15.3995 32.065 15.4643 32.0518 15.5359 32.0518C15.6082 32.0518 15.6725 32.0648 15.7287 32.0907C15.7849 32.1163 15.8295 32.1514 15.8624 32.1959C15.8956 32.2405 15.9131 32.291 15.9149 32.3476H15.7835Z" fill="#758596"/>
<path d="M6.18214 41.6069H5.74121V42.4471H6.18214V41.6069Z" fill="#05254A"/>
<path d="M7.78565 41.6069H7.34473V42.4471H7.78565V41.6069Z" fill="#05254A"/>
<path d="M7.71103 42.3076H5.81424C5.25041 42.3079 4.70715 42.5195 4.29161 42.9006C3.87608 43.2817 3.61844 43.8047 3.56952 44.3664L3.40918 46.2038H10.1161L9.95576 44.3664C9.90899 43.8038 9.652 43.2796 9.236 42.898C8.81999 42.5165 8.27551 42.3057 7.71103 42.3076Z" fill="#0F5CB5"/>
<path d="M11.0507 46.2041H2.47266V46.7573H11.0507V46.2041Z" fill="#05254A"/>
<path d="M7.87328 45.4451C8.48692 44.8314 8.48692 43.8365 7.87329 43.2229C7.25965 42.6093 6.26476 42.6093 5.65112 43.2229C5.03749 43.8365 5.03749 44.8314 5.65112 45.4451C6.26476 46.0587 7.25965 46.0587 7.87328 45.4451Z" fill="#F1E4E9"/>
<path d="M7.66976 45.2399C8.17006 44.7396 8.17006 43.9284 7.66976 43.4281C7.16946 42.9278 6.35832 42.9278 5.85802 43.4281C5.35772 43.9284 5.35772 44.7396 5.85802 45.2399C6.35832 45.7402 7.16946 45.7402 7.66976 45.2399Z" fill="white"/>
<path d="M7.73368 44.0789H7.01697V43.3638H6.5087V44.0789H5.79199V44.5887H6.5087V45.3038H7.01697V44.5887H7.73368V44.0789Z" fill="#0F5CB5"/>
<path d="M3.00977 41.1178V41.2942H4.8809V40.5566C4.8809 40.5015 4.89178 40.447 4.91291 40.3961C4.93404 40.3452 4.96501 40.299 5.00404 40.2601C5.04307 40.2213 5.08939 40.1905 5.14035 40.1695C5.19131 40.1486 5.2459 40.1379 5.30099 40.1381H8.18706C8.24215 40.1379 8.29674 40.1486 8.3477 40.1695C8.39866 40.1905 8.44498 40.2213 8.48401 40.2601C8.52304 40.299 8.55401 40.3452 8.57514 40.3961C8.59627 40.447 8.60715 40.5015 8.60715 40.5566V41.2958H10.4767V41.1178C10.4767 40.5059 10.2336 39.919 9.8009 39.4863C9.36821 39.0536 8.78135 38.8105 8.16943 38.8105H5.31702C4.7051 38.8105 4.11824 39.0536 3.68555 39.4863C3.25285 39.919 3.00977 40.5059 3.00977 41.1178Z" fill="#0F5CB5"/>
<path d="M8.60305 40.5535V41.2927H10.4742V41.1147C10.474 40.8409 10.4246 40.5693 10.3283 40.313H8.5293C8.57806 40.3836 8.60382 40.4676 8.60305 40.5535Z" fill="#05254A"/>
<path d="M4.8809 40.5535C4.87824 40.4683 4.90175 40.3844 4.94825 40.313H3.15567C3.05939 40.5693 3.00997 40.8409 3.00977 41.1147V41.291H4.8809V40.5535Z" fill="#05254A"/>
<path d="M3.88975 50.3945V49.2728H4.02559V49.7723H4.62372V49.2728H4.75956V50.3945H4.62372V49.8928H4.02559V50.3945H3.88975ZM5.97802 49.8336C5.97802 49.952 5.95666 50.0542 5.91393 50.1404C5.87121 50.2266 5.8126 50.293 5.73811 50.3398C5.66362 50.3865 5.57853 50.4099 5.48286 50.4099C5.38719 50.4099 5.3021 50.3865 5.22761 50.3398C5.15312 50.293 5.09451 50.2266 5.05179 50.1404C5.00906 50.0542 4.9877 49.952 4.9877 49.8336C4.9877 49.7153 5.00906 49.6131 5.05179 49.5269C5.09451 49.4407 5.15312 49.3743 5.22761 49.3275C5.3021 49.2808 5.38719 49.2574 5.48286 49.2574C5.57853 49.2574 5.66362 49.2808 5.73811 49.3275C5.8126 49.3743 5.87121 49.4407 5.91393 49.5269C5.95666 49.6131 5.97802 49.7153 5.97802 49.8336ZM5.84656 49.8336C5.84656 49.7365 5.83031 49.6545 5.79781 49.5877C5.76568 49.5209 5.72204 49.4703 5.6669 49.436C5.61213 49.4017 5.55078 49.3845 5.48286 49.3845C5.41494 49.3845 5.35341 49.4017 5.29827 49.436C5.2435 49.4703 5.19986 49.5209 5.16736 49.5877C5.13522 49.6545 5.11916 49.7365 5.11916 49.8336C5.11916 49.9308 5.13522 50.0128 5.16736 50.0796C5.19986 50.1464 5.2435 50.197 5.29827 50.2313C5.35341 50.2656 5.41494 50.2828 5.48286 50.2828C5.55078 50.2828 5.61213 50.2656 5.6669 50.2313C5.72204 50.197 5.76568 50.1464 5.79781 50.0796C5.83031 50.0128 5.84656 49.9308 5.84656 49.8336ZM6.09839 49.3933V49.2728H6.93972V49.3933H6.58697V50.3945H6.45113V49.3933H6.09839ZM7.14937 50.3945V49.2728H7.28521V50.274H7.80666V50.3945H7.14937ZM8.15284 49.2728V50.3945H8.017V49.2728H8.15284ZM9.31474 49.2728V50.3945H9.18328L8.572 49.5138H8.56104V50.3945H8.4252V49.2728H8.55666L9.17013 50.1557H9.18109V49.2728H9.31474ZM9.58656 50.3945V49.2728H10.2636V49.3933H9.7224V49.7723H10.2285V49.8928H9.7224V50.274H10.2723V50.3945H9.58656Z" fill="#758596"/>
<path d="M65.2121 20.8228H59.5586V25.3828H65.2121V20.8228Z" fill="#0F5CB5"/>
<path d="M65.2148 25.3797H69.661V23.4171L68.63 23.1013L67.9358 21.4771H65.2148V25.3797Z" fill="#05254A"/>
<path d="M68.1375 23.4383H65.4727V21.8125H67.6019L68.1375 23.4383Z" fill="white"/>
<path d="M62.6916 24.6436H60.5655L60.1406 25.3811H63.1165L62.6916 24.6436Z" fill="#6A446A"/>
<path d="M68.0962 24.6436H65.9718L65.5469 25.3811H68.5227L68.0962 24.6436Z" fill="#6A446A"/>
<path d="M61.6284 26.2744C62.1217 26.2744 62.5215 25.8746 62.5215 25.3814C62.5215 24.8881 62.1217 24.4883 61.6284 24.4883C61.1352 24.4883 60.7354 24.8881 60.7354 25.3814C60.7354 25.8746 61.1352 26.2744 61.6284 26.2744Z" fill="#454966"/>
<path d="M62.1329 25.3809C62.1329 25.4805 62.1034 25.5778 62.048 25.6606C61.9927 25.7434 61.9141 25.8079 61.8221 25.846C61.7301 25.8841 61.6289 25.8941 61.5312 25.8747C61.4336 25.8553 61.3438 25.8073 61.2734 25.7369C61.203 25.6665 61.1551 25.5768 61.1357 25.4791C61.1162 25.3815 61.1262 25.2802 61.1643 25.1882C61.2024 25.0962 61.2669 25.0176 61.3497 24.9623C61.4325 24.907 61.5299 24.8774 61.6294 24.8774C61.763 24.8774 61.891 24.9305 61.9854 25.0249C62.0798 25.1193 62.1329 25.2474 62.1329 25.3809Z" fill="#F2EBEB"/>
<path d="M67.9261 25.3814C67.9264 25.5585 67.8742 25.7316 67.776 25.879C67.6778 26.0264 67.5381 26.1413 67.3745 26.2092C67.211 26.2772 67.031 26.295 66.8573 26.2605C66.6836 26.2261 66.524 26.1408 66.3988 26.0156C66.2735 25.8904 66.1883 25.7308 66.1538 25.5571C66.1194 25.3834 66.1372 25.2034 66.2051 25.0398C66.273 24.8763 66.388 24.7366 66.5353 24.6384C66.6827 24.5402 66.8559 24.488 67.033 24.4883C67.2699 24.4883 67.497 24.5824 67.6645 24.7499C67.832 24.9173 67.9261 25.1445 67.9261 25.3814Z" fill="#454966"/>
<path d="M67.5723 25.3804C67.5723 25.4866 67.5408 25.5905 67.4818 25.6788C67.4228 25.7671 67.3389 25.836 67.2407 25.8766C67.1426 25.9173 67.0346 25.9279 66.9304 25.9072C66.8262 25.8865 66.7305 25.8353 66.6554 25.7602C66.5802 25.6851 66.5291 25.5894 66.5084 25.4852C66.4876 25.381 66.4983 25.273 66.5389 25.1748C66.5796 25.0767 66.6484 24.9928 66.7368 24.9338C66.8251 24.8748 66.9289 24.8433 67.0352 24.8433C67.1057 24.8433 67.1756 24.8572 67.2407 24.8841C67.3059 24.9111 67.3651 24.9507 67.415 25.0006C67.4649 25.0505 67.5044 25.1097 67.5314 25.1748C67.5584 25.24 67.5723 25.3099 67.5723 25.3804Z" fill="#F2EBEB"/>
<path d="M69.0146 23.953H69.6608V23.419L69.0146 23.2202V23.953Z" fill="#0F5CB5"/>
<path d="M69.9097 24.7808H69.2363V25.6498H69.9097V24.7808Z" fill="#454966"/>
<path d="M59.9996 24.7808H59.3262V25.6498H59.9996V24.7808Z" fill="#454966"/>
<path d="M62.821 23.8583C63.4521 23.5955 63.7506 22.8708 63.4878 22.2397C63.225 21.6087 62.5003 21.3101 61.8692 21.5729C61.2382 21.8358 60.9396 22.5604 61.2024 23.1915C61.4653 23.8226 62.1899 24.1211 62.821 23.8583Z" fill="white"/>
<path d="M63.0425 22.5009H62.5182V21.9766H62.1141V22.5009H61.5898V22.9049H62.1141V23.4292H62.5182V22.9049H63.0425V22.5009Z" fill="#0F5CB5"/>
<path d="M67.0303 21.1699H65.8486V21.4778H67.0303V21.1699Z" fill="#6A446A"/>
<path d="M66.3573 20.6963C66.2695 20.6963 66.1854 20.731 66.1232 20.7929C66.061 20.8548 66.0258 20.9388 66.0254 21.0266V21.1677H66.678V21.0266C66.678 20.9406 66.6445 20.858 66.5846 20.7964C66.5248 20.7347 66.4432 20.6988 66.3573 20.6963Z" fill="#65F5FF"/>
<path d="M59.8849 29.0576V27.9358H60.5619V28.0563H60.0207V28.4354H60.5268V28.5559H60.0207V28.9371H60.5706V29.0576H59.8849ZM60.8067 27.9358H60.9688L61.3501 28.867H61.3632L61.7445 27.9358H61.9066V29.0576H61.7795V28.2053H61.7686L61.418 29.0576H61.2953L60.9447 28.2053H60.9338V29.0576H60.8067V27.9358ZM62.179 29.0576V27.9358H62.856V28.0563H62.3148V28.4354H62.8209V28.5559H62.3148V28.9371H62.8647V29.0576H62.179ZM63.1008 29.0576V27.9358H63.4798C63.5675 27.9358 63.6394 27.9508 63.6957 27.9808C63.7519 28.0103 63.7935 28.051 63.8205 28.1029C63.8476 28.1548 63.8611 28.2137 63.8611 28.2798C63.8611 28.3459 63.8476 28.4045 63.8205 28.4556C63.7935 28.5068 63.7521 28.5469 63.6962 28.5762C63.6403 28.605 63.5689 28.6194 63.482 28.6194H63.1753V28.4967H63.4777C63.5375 28.4967 63.5857 28.488 63.6223 28.4704C63.6591 28.4529 63.6858 28.4281 63.7022 28.3959C63.719 28.3634 63.7274 28.3247 63.7274 28.2798C63.7274 28.2349 63.719 28.1957 63.7022 28.1621C63.6854 28.1285 63.6586 28.1025 63.6217 28.0843C63.5848 28.0657 63.5361 28.0563 63.4755 28.0563H63.2366V29.0576H63.1008ZM63.6288 28.5537L63.9049 29.0576H63.7471L63.4755 28.5537H63.6288ZM64.8543 28.2864C64.8422 28.2495 64.8263 28.2165 64.8066 28.1873C64.7873 28.1577 64.7641 28.1325 64.7371 28.1117C64.7104 28.0908 64.6801 28.075 64.6461 28.064C64.6122 28.0531 64.5749 28.0476 64.5344 28.0476C64.4679 28.0476 64.4075 28.0647 64.3531 28.0991C64.2987 28.1334 64.2554 28.184 64.2233 28.2508C64.1911 28.3176 64.1751 28.3996 64.1751 28.4967C64.1751 28.5939 64.1913 28.6758 64.2238 28.7427C64.2563 28.8095 64.3003 28.8601 64.3558 28.8944C64.4113 28.9287 64.4738 28.9459 64.5432 28.9459C64.6074 28.9459 64.664 28.9322 64.713 28.9048C64.7622 28.877 64.8006 28.838 64.828 28.7876C64.8557 28.7368 64.8696 28.6771 64.8696 28.6085L64.9112 28.6172H64.5738V28.4967H65.0011V28.6172C65.0011 28.7096 64.9813 28.79 64.9419 28.8582C64.9028 28.9265 64.8488 28.9795 64.7798 29.0171C64.7111 29.0543 64.6323 29.073 64.5432 29.073C64.4438 29.073 64.3566 29.0496 64.2813 29.0028C64.2065 28.9561 64.148 28.8896 64.1061 28.8035C64.0644 28.7173 64.0436 28.615 64.0436 28.4967C64.0436 28.408 64.0555 28.3282 64.0792 28.2574C64.1033 28.1862 64.1373 28.1255 64.1811 28.0755C64.2249 28.0255 64.2768 27.9871 64.3367 27.9605C64.3965 27.9338 64.4625 27.9205 64.5344 27.9205C64.5935 27.9205 64.6487 27.9294 64.6998 27.9473C64.7513 27.9649 64.7971 27.9899 64.8373 28.0224C64.8778 28.0545 64.9116 28.093 64.9386 28.138C64.9656 28.1825 64.9843 28.232 64.9945 28.2864H64.8543ZM65.2337 29.0576V27.9358H65.9107V28.0563H65.3696V28.4354H65.8757V28.5559H65.3696V28.9371H65.9195V29.0576H65.2337ZM67.0451 27.9358V29.0576H66.9136L66.3024 28.1768H66.2914V29.0576H66.1556V27.9358H66.287L66.9005 28.8188H66.9115V27.9358H67.0451ZM68.2196 28.2864H68.0838C68.0757 28.2473 68.0617 28.213 68.0416 28.1834C68.0219 28.1538 67.9978 28.129 67.9693 28.1089C67.9412 28.0885 67.91 28.0731 67.8756 28.0629C67.8413 28.0527 67.8055 28.0476 67.7683 28.0476C67.7003 28.0476 67.6388 28.0647 67.5837 28.0991C67.5289 28.1334 67.4853 28.184 67.4528 28.2508C67.4206 28.3176 67.4046 28.3996 67.4046 28.4967C67.4046 28.5939 67.4206 28.6758 67.4528 28.7427C67.4853 28.8095 67.5289 28.8601 67.5837 28.8944C67.6388 28.9287 67.7003 28.9459 67.7683 28.9459C67.8055 28.9459 67.8413 28.9408 67.8756 28.9305C67.91 28.9203 67.9412 28.9052 67.9693 28.8851C67.9978 28.8646 68.0219 28.8396 68.0416 28.81C68.0617 28.7801 68.0757 28.7458 68.0838 28.7071H68.2196C68.2094 28.7644 68.1908 28.8157 68.1637 28.861C68.1367 28.9063 68.1031 28.9448 68.063 28.9766C68.0228 29.008 67.9777 29.0319 67.9277 29.0483C67.878 29.0647 67.8249 29.073 67.7683 29.073C67.6726 29.073 67.5875 29.0496 67.513 29.0028C67.4385 28.9561 67.3799 28.8896 67.3372 28.8035C67.2945 28.7173 67.2731 28.615 67.2731 28.4967C67.2731 28.3784 67.2945 28.2762 67.3372 28.19C67.3799 28.1038 67.4385 28.0374 67.513 27.9906C67.5875 27.9439 67.6726 27.9205 67.7683 27.9205C67.8249 27.9205 67.878 27.9287 67.9277 27.9451C67.9777 27.9616 68.0228 27.9857 68.063 28.0175C68.1031 28.0489 68.1367 28.0872 68.1637 28.1325C68.1908 28.1774 68.2094 28.2287 68.2196 28.2864ZM68.3427 27.9358H68.4983L68.8094 28.4595H68.8225L69.1337 27.9358H69.2892L68.8839 28.5953V29.0576H68.748V28.5953L68.3427 27.9358Z" fill="#758596"/>
<path d="M32.749 10.1948H25.0528C24.8306 10.1948 24.6504 10.375 24.6504 10.5973V15.1108C24.6504 15.333 24.8306 15.5132 25.0528 15.5132H32.749C32.9713 15.5132 33.1515 15.333 33.1515 15.1108V10.5973C33.1515 10.375 32.9713 10.1948 32.749 10.1948Z" fill="#0F5CB5"/>
<path d="M30.9188 13.1831C31.1008 12.0652 30.3422 11.0114 29.2243 10.8294C28.1065 10.6473 27.0527 11.406 26.8707 12.5238C26.6886 13.6417 27.4472 14.6954 28.5651 14.8775C29.6829 15.0595 30.7367 14.3009 30.9188 13.1831Z" fill="#F1E4E9"/>
<path d="M28.8962 14.6372C29.8809 14.6372 30.6792 13.8389 30.6792 12.8542C30.6792 11.8695 29.8809 11.0713 28.8962 11.0713C27.9115 11.0713 27.1133 11.8695 27.1133 12.8542C27.1133 13.8389 27.9115 14.6372 28.8962 14.6372Z" fill="white"/>
<path d="M30.0873 12.5666H29.1814V11.6606H28.609V12.5666H27.7031V13.1374H28.609V14.0433H29.1814V13.1374H30.0873V12.5666Z" fill="#0F5CB5"/>
<path d="M26.829 9.7627H26.1235C26.0921 9.7627 26.0619 9.7752 26.0396 9.79745C26.0174 9.8197 26.0049 9.84988 26.0049 9.88135V10.194H26.9493V9.88135C26.9488 9.84973 26.936 9.81955 26.9135 9.79735C26.891 9.77514 26.8606 9.76269 26.829 9.7627Z" fill="#8C476A"/>
<path d="M31.6734 9.7627H30.9663C30.9348 9.7627 30.9047 9.7752 30.8824 9.79745C30.8602 9.8197 30.8477 9.84988 30.8477 9.88135V10.194H31.792V9.88135C31.792 9.84988 31.7795 9.8197 31.7573 9.79745C31.735 9.7752 31.7049 9.7627 31.6734 9.7627Z" fill="#8C476A"/>
<path d="M31.3842 9.76355H31.2447V8.49368C31.2447 8.41826 31.2148 8.34591 31.1617 8.29243C31.1085 8.23896 31.0363 8.2087 30.9609 8.20828H26.829C26.7536 8.2087 26.6814 8.23896 26.6282 8.29243C26.575 8.34591 26.5452 8.41826 26.5452 8.49368V9.76355H26.4121V8.49368C26.4119 8.4388 26.4225 8.38441 26.4434 8.33365C26.4642 8.28289 26.4949 8.23674 26.5336 8.19786C26.5724 8.15898 26.6184 8.12813 26.6691 8.10708C26.7198 8.08603 26.7741 8.07519 26.829 8.0752H30.9673C31.078 8.07562 31.184 8.1199 31.2622 8.19833C31.3403 8.27677 31.3842 8.38297 31.3842 8.49368V9.76355Z" fill="#454966"/>
<path d="M30.3139 7.86865H27.4775V8.41861H30.3139V7.86865Z" fill="#0F5CB5"/>
<path d="M25.5294 18.9814V17.8597H26.202V17.9802H25.6652V18.3592H26.1516V18.4797H25.6652V18.9814H25.5294ZM26.5705 17.8597V18.9814H26.4347V17.8597H26.5705ZM26.8429 18.9814V17.8597H27.2219C27.3096 17.8597 27.3815 17.8746 27.4377 17.9046C27.494 17.9342 27.5356 17.9749 27.5626 18.0267C27.5896 18.0786 27.6032 18.1376 27.6032 18.2036C27.6032 18.2697 27.5896 18.3284 27.5626 18.3795C27.5356 18.4306 27.4942 18.4708 27.4383 18.5C27.3824 18.5288 27.311 18.5433 27.2241 18.5433H26.9174V18.4206H27.2197C27.2796 18.4206 27.3278 18.4118 27.3643 18.3943C27.4012 18.3767 27.4279 18.3519 27.4443 18.3198C27.4611 18.2873 27.4695 18.2486 27.4695 18.2036C27.4695 18.1587 27.4611 18.1195 27.4443 18.0859C27.4275 18.0523 27.4007 18.0264 27.3638 18.0081C27.3269 17.9895 27.2782 17.9802 27.2175 17.9802H26.9787V18.9814H26.8429ZM27.3709 18.4775L27.647 18.9814H27.4892L27.2175 18.4775H27.3709ZM28.443 18.1401C28.4364 18.0846 28.4098 18.0415 28.363 18.0108C28.3163 17.9802 28.2589 17.9648 28.191 17.9648C28.1414 17.9648 28.0979 17.9729 28.0607 17.9889C28.0238 18.005 27.9949 18.0271 27.9741 18.0552C27.9537 18.0833 27.9434 18.1153 27.9434 18.1511C27.9434 18.181 27.9506 18.2068 27.9648 18.2283C27.9794 18.2495 27.998 18.2672 28.0207 18.2814C28.0433 18.2953 28.067 18.3068 28.0919 18.3159C28.1167 18.3247 28.1395 18.3318 28.1603 18.3373L28.2743 18.368C28.3035 18.3756 28.336 18.3862 28.3718 18.3997C28.4079 18.4133 28.4424 18.4317 28.4753 18.4551C28.5085 18.4781 28.5359 18.5076 28.5575 18.5438C28.579 18.5799 28.5898 18.6243 28.5898 18.6769C28.5898 18.7375 28.5739 18.7923 28.5421 18.8412C28.5107 18.8902 28.4647 18.929 28.4041 18.9579C28.3438 18.9867 28.2706 19.0012 28.1844 19.0012C28.1041 19.0012 28.0345 18.9882 27.9758 18.9623C27.9173 18.9363 27.8713 18.9002 27.8377 18.8538C27.8045 18.8074 27.7857 18.7536 27.7813 18.6922H27.9215C27.9252 18.7346 27.9394 18.7697 27.9643 18.7974C27.9894 18.8248 28.0212 18.8452 28.0596 18.8588C28.0983 18.8719 28.1399 18.8785 28.1844 18.8785C28.2363 18.8785 28.2829 18.8701 28.3241 18.8533C28.3654 18.8361 28.3981 18.8124 28.4222 18.7821C28.4463 18.7514 28.4583 18.7156 28.4583 18.6747C28.4583 18.6375 28.4479 18.6072 28.4271 18.5838C28.4063 18.5604 28.3789 18.5414 28.3449 18.5268C28.311 18.5122 28.2743 18.4994 28.2348 18.4885L28.0968 18.449C28.0092 18.4238 27.9398 18.3879 27.8887 18.3411C27.8375 18.2944 27.812 18.2332 27.812 18.1576C27.812 18.0948 27.829 18.0401 27.8629 17.9933C27.8972 17.9462 27.9433 17.9097 28.001 17.8838C28.059 17.8575 28.1238 17.8443 28.1954 17.8443C28.2677 17.8443 28.332 17.8573 28.3882 17.8832C28.4444 17.9088 28.489 17.9438 28.5219 17.9884C28.5551 18.0329 28.5726 18.0835 28.5744 18.1401H28.443ZM28.7518 17.9802V17.8597H29.5931V17.9802H29.2404V18.9814H29.1045V17.9802H28.7518ZM30.2826 18.9814H30.1402L30.5521 17.8597H30.6923L31.1042 18.9814H30.9618L30.6266 18.0371H30.6178L30.2826 18.9814ZM30.3352 18.5433H30.9092V18.6638H30.3352V18.5433ZM31.4148 17.8597V18.9814H31.2789V17.8597H31.4148ZM32.0333 18.9814H31.6871V17.8597H32.0486C32.1575 17.8597 32.2506 17.8821 32.328 17.927C32.4054 17.9716 32.4647 18.0357 32.506 18.1193C32.5473 18.2026 32.5679 18.3022 32.5679 18.4184C32.5679 18.5352 32.5471 18.6358 32.5055 18.7202C32.4638 18.8042 32.4032 18.8688 32.3236 18.9141C32.244 18.959 32.1472 18.9814 32.0333 18.9814ZM31.823 18.8609H32.0245C32.1173 18.8609 32.1942 18.843 32.2551 18.8073C32.3161 18.7715 32.3616 18.7205 32.3915 18.6544C32.4215 18.5883 32.4364 18.5097 32.4364 18.4184C32.4364 18.3278 32.4217 18.2498 32.3921 18.1845C32.3625 18.1187 32.3183 18.0684 32.2595 18.0333C32.2007 17.9979 32.1275 17.9802 32.0399 17.9802H31.823V18.8609Z" fill="#758596"/>
<path d="M53.2821 14.9726L50.8771 11.644C50.6268 11.2972 50.4921 10.8804 50.4923 10.4527V6.97656H49.5479V10.4527C49.548 10.8804 49.4133 11.2972 49.1631 11.644L46.758 14.9726C46.6995 15.0535 46.6645 15.149 46.6569 15.2486C46.6492 15.3481 46.6692 15.4478 46.7147 15.5367C46.7601 15.6256 46.8292 15.7003 46.9144 15.7524C46.9996 15.8045 47.0975 15.832 47.1973 15.832H52.8364C52.9368 15.8332 53.0355 15.8065 53.1216 15.7549C53.2077 15.7033 53.2778 15.6287 53.324 15.5396C53.3702 15.4505 53.3908 15.3503 53.3834 15.2502C53.376 15.15 53.3409 15.054 53.2821 14.9726Z" fill="#C7F5FF"/>
<path d="M53.276 14.9726L50.871 11.644C50.6207 11.2972 50.4861 10.8804 50.4862 10.4527V6.97656H49.8945V10.4527C49.8944 10.8804 50.0291 11.2972 50.2793 11.644L52.6844 14.9726C52.7423 15.0537 52.7768 15.1491 52.7841 15.2484C52.7915 15.3477 52.7714 15.4472 52.726 15.5359C52.6807 15.6246 52.6119 15.6991 52.527 15.7513C52.4422 15.8035 52.3447 15.8314 52.2451 15.832H52.8367C52.9366 15.832 53.0345 15.8045 53.1196 15.7524C53.2048 15.7003 53.2739 15.6256 53.3194 15.5367C53.3648 15.4478 53.3848 15.3481 53.3772 15.2486C53.3695 15.149 53.3345 15.0535 53.276 14.9726Z" fill="#BCEBFF"/>
<path d="M50.5919 6.31201H49.4422C49.3542 6.31201 49.2698 6.34698 49.2076 6.40922C49.1453 6.47147 49.1104 6.55589 49.1104 6.64391C49.1104 6.73194 49.1453 6.81635 49.2076 6.8786C49.2698 6.94084 49.3542 6.97581 49.4422 6.97581H50.5919C50.6799 6.97581 50.7643 6.94084 50.8266 6.8786C50.8888 6.81635 50.9238 6.73194 50.9238 6.64391C50.9238 6.55589 50.8888 6.47147 50.8266 6.40922C50.7643 6.34698 50.6799 6.31201 50.5919 6.31201Z" fill="#CDF5FF"/>
<path d="M46.758 14.9726C46.6995 15.0536 46.6645 15.1491 46.6569 15.2486C46.6492 15.3482 46.6692 15.4479 46.7147 15.5368C46.7601 15.6257 46.8292 15.7003 46.9144 15.7524C46.9996 15.8045 47.0975 15.8321 47.1973 15.8321H52.8364C52.9362 15.8321 53.0341 15.8045 53.1193 15.7524C53.2045 15.7003 53.2736 15.6257 53.319 15.5368C53.3645 15.4479 53.3845 15.3482 53.3768 15.2486C53.3692 15.1491 53.3342 15.0536 53.2757 14.9726L51.8615 13.0117H48.1738L46.758 14.9726Z" fill="#90F5FF"/>
<path d="M53.3206 15.04C53.3083 15.0163 53.2938 14.9937 53.2773 14.9726L51.8631 13.0117H51.2715L52.6873 14.9726C52.7452 15.0538 52.7797 15.1494 52.787 15.2489C52.7943 15.3483 52.7741 15.4479 52.7285 15.5366C52.683 15.6254 52.6139 15.6999 52.5289 15.752C52.4438 15.8041 52.3461 15.8318 52.2463 15.8321H52.838C52.8922 15.8325 52.9463 15.8249 52.9983 15.8096C53.0461 15.7957 53.0915 15.7746 53.133 15.7471C53.1967 15.7097 53.2514 15.6588 53.2933 15.598C53.3485 15.5163 53.3801 15.4212 53.3849 15.3228C53.3897 15.2244 53.3675 15.1266 53.3206 15.04Z" fill="#77E0FF"/>
<path d="M49.262 13.7745C49.262 13.8497 49.2397 13.9232 49.1979 13.9857C49.1562 14.0481 49.0968 14.0968 49.0274 14.1256C48.9579 14.1544 48.8815 14.1619 48.8078 14.1472C48.7341 14.1326 48.6664 14.0964 48.6133 14.0432C48.5601 13.9901 48.5239 13.9224 48.5093 13.8487C48.4946 13.775 48.5021 13.6986 48.5309 13.6291C48.5596 13.5597 48.6083 13.5003 48.6708 13.4586C48.7333 13.4168 48.8068 13.3945 48.882 13.3945C48.9319 13.3943 48.9814 13.404 49.0276 13.423C49.0738 13.4421 49.1158 13.47 49.1511 13.5054C49.1865 13.5407 49.2144 13.5827 49.2335 13.6289C49.2525 13.6751 49.2622 13.7246 49.262 13.7745Z" fill="#76DBFF"/>
<path d="M51.9182 14.9796C51.9182 15.0548 51.8959 15.1282 51.8542 15.1907C51.8124 15.2532 51.7531 15.3019 51.6836 15.3307C51.6142 15.3594 51.5378 15.367 51.4641 15.3523C51.3904 15.3376 51.3226 15.3015 51.2695 15.2483C51.2164 15.1952 51.1802 15.1275 51.1655 15.0537C51.1508 14.98 51.1584 14.9036 51.1871 14.8342C51.2159 14.7648 51.2646 14.7054 51.3271 14.6637C51.3896 14.6219 51.463 14.5996 51.5382 14.5996C51.639 14.5996 51.7356 14.6396 51.8069 14.7109C51.8782 14.7822 51.9182 14.8788 51.9182 14.9796Z" fill="#76DBFF"/>
<path d="M51.0088 13.9956C51.0088 14.0425 50.9949 14.0884 50.9688 14.1274C50.9427 14.1665 50.9057 14.1969 50.8623 14.2148C50.8189 14.2328 50.7712 14.2375 50.7252 14.2283C50.6791 14.2192 50.6369 14.1966 50.6037 14.1634C50.5705 14.1302 50.5479 14.0879 50.5387 14.0419C50.5296 13.9959 50.5343 13.9482 50.5522 13.9048C50.5702 13.8614 50.6006 13.8244 50.6396 13.7983C50.6787 13.7722 50.7245 13.7583 50.7715 13.7583C50.8026 13.7583 50.8335 13.7644 50.8623 13.7764C50.8911 13.7883 50.9172 13.8058 50.9393 13.8278C50.9613 13.8498 50.9788 13.876 50.9907 13.9048C51.0026 13.9336 51.0088 13.9644 51.0088 13.9956Z" fill="#76DBFF"/>
<path d="M49.7324 14.8959C49.7327 14.9429 49.7191 14.9889 49.6932 15.0281C49.6673 15.0674 49.6304 15.098 49.587 15.1162C49.5437 15.1344 49.4959 15.1394 49.4498 15.1304C49.4037 15.1214 49.3612 15.0989 49.3279 15.0658C49.2945 15.0327 49.2718 14.9904 49.2625 14.9443C49.2532 14.8983 49.2578 14.8505 49.2757 14.807C49.2936 14.7636 49.3241 14.7264 49.3631 14.7003C49.4022 14.6741 49.4481 14.6602 49.4951 14.6602C49.5578 14.6602 49.6179 14.6849 49.6623 14.7291C49.7068 14.7732 49.732 14.8332 49.7324 14.8959Z" fill="#76DBFF"/>
<path d="M48.2227 15.1424C48.223 15.2107 48.203 15.2775 48.1653 15.3344C48.1277 15.3913 48.0739 15.4357 48.011 15.4621C47.948 15.4884 47.8786 15.4955 47.8117 15.4823C47.7447 15.4692 47.6831 15.4365 47.6347 15.3884C47.5864 15.3402 47.5534 15.2788 47.5399 15.2119C47.5265 15.145 47.5332 15.0756 47.5593 15.0125C47.5853 14.9494 47.6295 14.8955 47.6862 14.8575C47.743 14.8196 47.8097 14.7993 47.8779 14.7993C47.9691 14.7993 48.0565 14.8354 48.1211 14.8997C48.1857 14.964 48.2222 15.0513 48.2227 15.1424Z" fill="#76DBFF"/>
<path d="M47.0887 10.6818C47.0358 10.6458 46.9905 10.5997 46.9556 10.546C46.9207 10.4923 46.8969 10.4321 46.8855 10.3691C46.8742 10.3061 46.8755 10.2414 46.8895 10.179C46.9035 10.1165 46.9298 10.0574 46.9669 10.0052L47.5008 9.23717C47.5368 9.1842 47.583 9.13894 47.6367 9.10404C47.6904 9.06915 47.7505 9.04533 47.8135 9.03398C47.8765 9.02263 47.9412 9.02398 48.0037 9.03795C48.0662 9.05191 48.1252 9.07822 48.1774 9.11532C48.2304 9.15129 48.2757 9.19748 48.3106 9.25117C48.3454 9.30487 48.3693 9.36499 48.3806 9.42801C48.392 9.49103 48.3906 9.55568 48.3767 9.61818C48.3627 9.68067 48.3364 9.73975 48.2993 9.79194L47.7589 10.56C47.723 10.612 47.6771 10.6565 47.624 10.6908C47.5708 10.7252 47.5114 10.7486 47.4491 10.76C47.3869 10.7713 47.323 10.7702 47.2611 10.7568C47.1993 10.7434 47.1407 10.7179 47.0887 10.6818Z" fill="#05254A"/>
<path d="M47.0887 10.6806C47.0358 10.6446 46.9905 10.5984 46.9556 10.5447C46.9207 10.491 46.8969 10.4309 46.8855 10.3679C46.8742 10.3049 46.8755 10.2402 46.8895 10.1777C46.9035 10.1152 46.9298 10.0561 46.9669 10.004L47.2346 9.61914L48.0363 10.1755L47.7589 10.5587C47.723 10.6108 47.6771 10.6553 47.624 10.6896C47.5708 10.7239 47.5114 10.7474 47.4491 10.7587C47.3869 10.77 47.323 10.769 47.2611 10.7556C47.1993 10.7421 47.1407 10.7167 47.0887 10.6806Z" fill="#0F5CB5"/>
<path d="M53.7508 13.9069C53.6979 13.8709 53.6526 13.8248 53.6177 13.7711C53.5828 13.7174 53.559 13.6572 53.5477 13.5942C53.5363 13.5312 53.5377 13.4665 53.5516 13.4041C53.5656 13.3416 53.5919 13.2825 53.629 13.2303L54.1709 12.4623C54.2069 12.4093 54.2531 12.364 54.3068 12.3291C54.3605 12.2942 54.4206 12.2704 54.4836 12.2591C54.5466 12.2477 54.6113 12.2491 54.6738 12.263C54.7363 12.277 54.7954 12.3033 54.8476 12.3404C54.9005 12.3764 54.9458 12.4226 54.9807 12.4763C55.0156 12.53 55.0394 12.5901 55.0507 12.6531C55.0621 12.7161 55.0607 12.7808 55.0468 12.8433C55.0328 12.9058 55.0065 12.9648 54.9694 13.017L54.4355 13.7851C54.3995 13.8392 54.3529 13.8854 54.2986 13.9211C54.2442 13.9567 54.1832 13.9809 54.1192 13.9923C54.0552 14.0037 53.9896 14.002 53.9263 13.9873C53.863 13.9727 53.8033 13.9453 53.7508 13.9069Z" fill="#0F5CB5"/>
<path d="M53.7508 13.909C53.6979 13.873 53.6526 13.8268 53.6177 13.7731C53.5828 13.7194 53.559 13.6593 53.5477 13.5963C53.5363 13.5332 53.5377 13.4686 53.5516 13.4061C53.5656 13.3436 53.5919 13.2845 53.629 13.2323L53.8968 12.8491L54.6984 13.4039L54.4323 13.7871C54.3963 13.8408 54.3499 13.8866 54.2958 13.9219C54.2417 13.9573 54.181 13.9813 54.1174 13.9927C54.0538 14.0041 53.9886 14.0025 53.9256 13.9881C53.8626 13.9738 53.8032 13.9468 53.7508 13.909Z" fill="#05254A"/>
<path d="M46.654 13.5074C46.7054 13.6229 46.7216 13.751 46.7004 13.8756C46.6793 14.0002 46.6218 14.1158 46.5351 14.2079C46.4485 14.2999 46.3366 14.3643 46.2135 14.393C46.0904 14.4216 45.9615 14.4132 45.8432 14.3689C45.7248 14.3246 45.6222 14.2462 45.5481 14.1438C45.4741 14.0413 45.4321 13.9192 45.4272 13.7929C45.4224 13.6666 45.455 13.5417 45.5209 13.4338C45.5868 13.326 45.6832 13.24 45.7978 13.1867C45.8749 13.1508 45.9585 13.1307 46.0435 13.1274C46.1285 13.1242 46.2134 13.1379 46.2931 13.1677C46.3727 13.1975 46.4457 13.2429 46.5077 13.3013C46.5696 13.3596 46.6194 13.4296 46.654 13.5074Z" fill="#0F5CB5"/>
<path d="M45.7984 13.1837C45.7207 13.2183 45.6506 13.2681 45.5923 13.33C45.534 13.392 45.4886 13.465 45.4587 13.5446C45.4289 13.6243 45.4152 13.7092 45.4184 13.7942C45.4217 13.8792 45.4419 13.9627 45.4777 14.0399L46.6578 13.5092C46.6237 13.4306 46.5741 13.3597 46.5121 13.3006C46.4501 13.2415 46.3769 13.1954 46.2968 13.1651C46.2167 13.1348 46.1313 13.1208 46.0457 13.124C45.9601 13.1272 45.876 13.1475 45.7984 13.1837Z" fill="#0F5CB5"/>
<path d="M53.3268 10.2789C53.3783 10.3943 53.3944 10.5224 53.3733 10.6471C53.3521 10.7717 53.2946 10.8873 53.208 10.9793C53.1214 11.0714 53.0095 11.1358 52.8863 11.1644C52.7632 11.1931 52.6344 11.1847 52.516 11.1404C52.3976 11.0961 52.295 11.0177 52.221 10.9152C52.147 10.8128 52.1049 10.6907 52.1001 10.5644C52.0952 10.4381 52.1278 10.3131 52.1937 10.2053C52.2597 10.0974 52.356 10.0115 52.4706 9.95819C52.5478 9.92233 52.6313 9.90217 52.7164 9.89891C52.8014 9.89565 52.8862 9.90933 52.9659 9.93918C53.0456 9.96903 53.1185 10.0144 53.1805 10.0727C53.2425 10.1311 53.2922 10.2011 53.3268 10.2789Z" fill="#0F5CB5"/>
<path d="M52.4722 9.95324C52.3945 9.98786 52.3244 10.0376 52.2661 10.0996C52.2078 10.1615 52.1624 10.2345 52.1325 10.3142C52.1027 10.3939 52.089 10.4787 52.0923 10.5637C52.0955 10.6487 52.1157 10.7323 52.1516 10.8094L53.3316 10.2787C53.2975 10.2002 53.2479 10.1293 53.1859 10.0702C53.1239 10.0111 53.0507 9.96498 52.9706 9.93464C52.8905 9.9043 52.8051 9.89032 52.7195 9.89351C52.6339 9.89671 52.5498 9.91702 52.4722 9.95324Z" fill="#0F5CB5"/>
<path d="M46.6124 17.8597H46.7745L47.1558 18.7908H47.1689L47.5501 17.8597H47.7123V18.9814H47.5852V18.1292H47.5742L47.2237 18.9814H47.101L46.7504 18.1292H46.7395V18.9814H46.6124V17.8597ZM47.9846 18.9814V17.8597H48.6616V17.9802H48.1205V18.3592H48.6266V18.4797H48.1205V18.8609H48.6704V18.9814H47.9846ZM49.2527 18.9814H48.9065V17.8597H49.268C49.3768 17.8597 49.4699 17.8821 49.5474 17.927C49.6248 17.9716 49.6841 18.0357 49.7254 18.1193C49.7666 18.2026 49.7873 18.3022 49.7873 18.4184C49.7873 18.5352 49.7664 18.6358 49.7248 18.7202C49.6832 18.8042 49.6226 18.8688 49.543 18.9141C49.4634 18.959 49.3666 18.9814 49.2527 18.9814ZM49.0423 18.8609H49.2439C49.3367 18.8609 49.4135 18.843 49.4745 18.8073C49.5355 18.7715 49.5809 18.7205 49.6109 18.6544C49.6408 18.5883 49.6558 18.5097 49.6558 18.4184C49.6558 18.3278 49.641 18.2498 49.6114 18.1845C49.5819 18.1187 49.5377 18.0684 49.4789 18.0333C49.4201 17.9979 49.3469 17.9802 49.2592 17.9802H49.0423V18.8609ZM50.151 17.8597V18.9814H50.0151V17.8597H50.151ZM51.326 18.2102H51.1902C51.1821 18.1711 51.1681 18.1368 51.148 18.1072C51.1283 18.0777 51.1042 18.0528 51.0757 18.0328C51.0476 18.0123 51.0164 17.997 50.982 17.9867C50.9477 17.9765 50.9119 17.9714 50.8747 17.9714C50.8068 17.9714 50.7452 17.9886 50.6901 18.0229C50.6353 18.0572 50.5917 18.1078 50.5592 18.1746C50.527 18.2414 50.511 18.3234 50.511 18.4206C50.511 18.5177 50.527 18.5997 50.5592 18.6665C50.5917 18.7333 50.6353 18.7839 50.6901 18.8182C50.7452 18.8525 50.8068 18.8697 50.8747 18.8697C50.9119 18.8697 50.9477 18.8646 50.982 18.8544C51.0164 18.8441 51.0476 18.829 51.0757 18.8089C51.1042 18.7885 51.1283 18.7634 51.148 18.7339C51.1681 18.7039 51.1821 18.6696 51.1902 18.6309H51.326C51.3158 18.6882 51.2972 18.7395 51.2701 18.7848C51.2431 18.8301 51.2095 18.8686 51.1694 18.9004C51.1292 18.9318 51.0841 18.9557 51.0341 18.9721C50.9844 18.9886 50.9313 18.9968 50.8747 18.9968C50.779 18.9968 50.6939 18.9734 50.6194 18.9267C50.5449 18.8799 50.4863 18.8135 50.4436 18.7273C50.4009 18.6411 50.3795 18.5389 50.3795 18.4206C50.3795 18.3022 50.4009 18.2 50.4436 18.1138C50.4863 18.0276 50.5449 17.9612 50.6194 17.9144C50.6939 17.8677 50.779 17.8443 50.8747 17.8443C50.9313 17.8443 50.9844 17.8525 51.0341 17.869C51.0841 17.8854 51.1292 17.9095 51.1694 17.9413C51.2095 17.9727 51.2431 18.011 51.2701 18.0563C51.2972 18.1012 51.3158 18.1525 51.326 18.2102ZM51.6814 17.8597V18.9814H51.5455V17.8597H51.6814ZM52.8433 17.8597V18.9814H52.7118L52.1005 18.1007H52.0896V18.9814H51.9537V17.8597H52.0852L52.6987 18.7426H52.7096V17.8597H52.8433ZM53.1151 18.9814V17.8597H53.7921V17.9802H53.2509V18.3592H53.757V18.4797H53.2509V18.8609H53.8009V18.9814H53.1151Z" fill="#758596"/>
<path d="M28.8975 15.5132H32.7456C32.7985 15.5132 32.851 15.5028 32.8999 15.4824C32.9489 15.4621 32.9933 15.4323 33.0307 15.3948C33.0681 15.3572 33.0977 15.3127 33.1178 15.2637C33.138 15.2147 33.1482 15.1622 33.148 15.1092V10.5973C33.148 10.4905 33.1056 10.3882 33.0301 10.3127C32.9547 10.2372 32.8523 10.1948 32.7456 10.1948H32.489C32.489 10.1948 32.8851 14.8206 28.8975 15.5132Z" fill="#0F5CB5"/>
<path d="M32.7416 15.5151C32.7946 15.5151 32.8471 15.5046 32.896 15.4843C32.9449 15.464 32.9894 15.4342 33.0268 15.3966C33.0642 15.3591 33.0938 15.3145 33.1139 15.2655C33.134 15.2165 33.1443 15.164 33.1441 15.111V12.3452C32.8394 13.3938 32.2301 14.8898 31.1318 15.5151H32.7416Z" fill="#A9476A"/>
<path d="M20.2784 46.1462L18.7344 43.281H12.874V43.103H18.8418L20.4355 46.0613L20.2784 46.1462Z" fill="#5E9DA6"/>
<path d="M58.6405 46.1462L58.4834 46.0613L60.0772 43.103H64.6195V43.281H60.183L58.6405 46.1462Z" fill="#5E9DA6"/>
<path d="M31.5541 33.4926L26.0433 24.3918H20.4619V24.2139H26.1427L31.7064 33.3996L31.5541 33.4926Z" fill="#5E9DA6"/>
<path d="M47.3652 33.4926L47.2129 33.3996L52.7766 24.2139H57.3943V24.3918H52.876L47.3652 33.4926Z" fill="#5E9DA6"/>
<path d="M37.6494 25.1955L35.6532 12.7854H34.3545V12.6074H35.8039L37.8258 25.1667L37.6494 25.1955Z" fill="#5E9DA6"/>
<path d="M41.2675 25.1955L41.0928 25.1667L43.1146 12.6074H44.5641V12.7854H43.2653L41.2675 25.1955Z" fill="#5E9DA6"/>
</svg>
