<svg width="90" height="90" viewBox="0 0 90 90" fill="none" xmlns="http://www.w3.org/2000/svg">
<rect opacity="0.4" width="89.0642" height="89.0642" rx="7.12514" fill="#B8EAFF"/>
<path d="M44.7024 45.5618C42.4251 45.5603 40.1986 46.2342 38.3044 47.4984C36.4103 48.7626 34.9337 50.5602 34.0615 52.6638C33.1893 54.7674 32.9607 57.0825 33.4045 59.316C33.8484 61.5496 34.9449 63.6013 36.5551 65.2116C38.1654 66.8219 40.2171 67.9183 42.4507 68.3622C44.6843 68.8061 46.9993 68.5774 49.1029 67.7052C51.2066 66.833 53.0042 65.3564 54.2684 63.4623C55.5325 61.5682 56.2065 59.3416 56.2049 57.0644C56.2049 54.0137 54.993 51.088 52.8359 48.9309C50.6787 46.7737 47.753 45.5618 44.7024 45.5618ZM50.7758 58.8928C50.7758 59.0787 50.702 59.2569 50.5706 59.3884C50.4391 59.5198 50.2609 59.5936 50.075 59.5936H47.4974C47.4184 59.5936 47.3426 59.625 47.2867 59.6809C47.2308 59.7368 47.1994 59.8126 47.1994 59.8917V62.4692C47.1973 62.6545 47.1228 62.8315 46.9918 62.9625C46.8609 63.0934 46.6838 63.1679 46.4986 63.17H42.9061C42.7209 63.1679 42.5439 63.0934 42.4129 62.9625C42.2819 62.8315 42.2074 62.6545 42.2053 62.4692V59.8594C42.2053 59.7804 42.1739 59.7046 42.118 59.6487C42.0621 59.5928 41.9863 59.5614 41.9073 59.5614H39.3297C39.1438 59.5614 38.9656 59.4876 38.8342 59.3561C38.7027 59.2247 38.6289 59.0465 38.6289 58.8606V55.2761C38.6289 55.0903 38.7027 54.912 38.8342 54.7806C38.9656 54.6492 39.1438 54.5754 39.3297 54.5754H41.9073C41.9863 54.5754 42.0621 54.544 42.118 54.4881C42.1739 54.4322 42.2053 54.3564 42.2053 54.2773V51.6997C42.2074 51.5145 42.2819 51.3375 42.4129 51.2065C42.5439 51.0756 42.7209 51.001 42.9061 50.999H46.4986C46.6838 51.001 46.8609 51.0756 46.9918 51.2065C47.1228 51.3375 47.1973 51.5145 47.1994 51.6997V54.2773C47.1994 54.3564 47.2308 54.4322 47.2867 54.4881C47.3426 54.544 47.4184 54.5754 47.4974 54.5754H50.075C50.2609 54.5754 50.4391 54.6492 50.5706 54.7806C50.702 54.912 50.7758 55.0903 50.7758 55.2761V58.8928ZM78.2675 57.1046C78.5723 57.0863 78.8776 57.1306 79.1647 57.2346C79.4518 57.3387 79.7146 57.5003 79.9369 57.7097C80.1592 57.9191 80.3364 58.1717 80.4575 58.452C80.5785 58.7324 80.641 59.0345 80.641 59.3399C80.641 59.6453 80.5785 59.9474 80.4575 60.2278C80.3364 60.5081 80.1592 60.7607 79.9369 60.9701C79.7146 61.1794 79.4518 61.3411 79.1647 61.4452C78.8776 61.5492 78.5723 61.5935 78.2675 61.5751H57.2198C57.7479 60.1436 58.0206 58.6305 58.0253 57.1046H78.2675ZM10.2593 21.993C10.2579 21.8427 10.3028 21.6957 10.3878 21.5718C10.4728 21.4479 10.5939 21.3531 10.7345 21.3002L43.6391 8.79891C44.3214 8.52471 45.0833 8.52471 45.7656 8.79891L78.6702 21.3002C78.8109 21.3531 78.9319 21.4479 79.0169 21.5718C79.1019 21.6957 79.1468 21.8427 79.1455 21.993C79.1473 22.1443 79.1027 22.2926 79.0178 22.4179C78.9328 22.5432 78.8115 22.6395 78.6702 22.6938L45.7656 35.1951C45.0818 35.4612 44.323 35.4612 43.6391 35.1951L17.3154 25.1989V41.0269C17.7331 41.2016 18.0898 41.496 18.3406 41.8729C18.5914 42.2499 18.7252 42.6926 18.7251 43.1454V48.8966C18.7251 49.0953 18.6461 49.2858 18.5057 49.4263C18.3652 49.5668 18.1746 49.6457 17.9759 49.6457H14.8989C14.7003 49.6457 14.5097 49.5668 14.3692 49.4263C14.2288 49.2858 14.1498 49.0953 14.1498 48.8966V43.1454C14.1518 42.6931 14.2864 42.2513 14.5369 41.8747C14.7875 41.4982 15.143 41.2034 15.5595 41.0269V24.5222L10.7265 22.6938C10.5867 22.6382 10.4671 22.5414 10.3836 22.4162C10.3002 22.291 10.2568 22.1434 10.2593 21.993ZM65.1217 44.2569C61.9263 46.2674 58.3694 47.6354 54.6503 48.2844C53.4017 46.8765 51.8688 45.7494 50.1526 44.9776C48.4364 44.2057 46.5761 43.8066 44.6943 43.8066C42.8126 43.8066 40.9522 44.2057 39.236 44.9776C37.5198 45.7494 35.9869 46.8765 34.7384 48.2844C31.0192 47.6354 27.4624 46.2674 24.2669 44.2569C23.8588 43.9893 23.5246 43.6232 23.2951 43.1925C23.0657 42.7617 22.9483 42.2801 22.9539 41.7921V29.2586L43.0108 36.8705C44.0996 37.2893 45.3051 37.2893 46.3939 36.8705L66.4508 29.2586V41.7921C66.4547 42.2816 66.3349 42.7642 66.1025 43.1951C65.8702 43.6259 65.5328 43.9912 65.1217 44.2569ZM80.5068 77.959C80.5046 78.5522 80.268 79.1206 79.8485 79.54C79.429 79.9595 78.8607 80.1961 78.2675 80.1983H20.4649C18.9208 80.239 17.3841 79.9701 15.9456 79.4073C14.5071 78.8446 13.1959 77.9994 12.0893 76.9216C10.9827 75.8439 10.1032 74.5554 9.50269 73.1322C8.90216 71.7091 8.59277 70.18 8.59277 68.6353C8.59277 67.0907 8.90216 65.5616 9.50269 64.1384C10.1032 62.7153 10.9827 61.4268 12.0893 60.3491C13.1959 59.2713 14.5071 58.4261 15.9456 57.8634C17.3841 57.3006 18.9208 57.0317 20.4649 57.0724H31.4117C31.4205 58.5979 31.693 60.1103 32.2172 61.5429H20.4649C18.585 61.5429 16.782 62.2897 15.4527 63.6191C14.1234 64.9484 13.3766 66.7513 13.3766 68.6313C13.3766 70.5113 14.1234 72.3142 15.4527 73.6435C16.782 74.9729 18.585 75.7197 20.4649 75.7197H78.2675C78.8607 75.7218 79.429 75.9584 79.8485 76.3779C80.268 76.7974 80.5046 77.3657 80.5068 77.959ZM20.7469 70.4759C20.6817 70.4574 20.6251 70.4166 20.5868 70.3607C20.5486 70.3048 20.5311 70.2373 20.5374 70.1698V63.3311H26.9089V70.1698C26.9095 70.231 26.8913 70.2908 26.8567 70.3412C26.8221 70.3917 26.7729 70.4302 26.7156 70.4517C26.6593 70.4761 26.5966 70.4814 26.537 70.4668C26.4774 70.4523 26.4241 70.4187 26.3853 70.3712L23.9689 67.568C23.9406 67.5364 23.9058 67.5114 23.8668 67.4947C23.8278 67.478 23.7857 67.47 23.7433 67.4714C23.7011 67.4711 23.6593 67.4795 23.6204 67.4961C23.5816 67.5128 23.5467 67.5372 23.5178 67.568L21.1013 70.3712C21.0647 70.4284 21.0087 70.4705 20.9436 70.4897C20.8785 70.5089 20.8086 70.504 20.7469 70.4759ZM61.1184 68.6313C61.1184 68.8684 61.2126 69.0959 61.3803 69.2635C61.548 69.4312 61.7754 69.5254 62.0125 69.5254H78.2675V73.9315H20.4649C19.2073 73.9361 17.9891 73.4926 17.0287 72.6806C16.0683 71.8686 15.4285 70.7411 15.224 69.5002C15.0194 68.2592 15.2635 66.986 15.9124 65.9087C16.5614 64.8314 17.5727 64.0204 18.7653 63.6211V70.1698C18.7669 70.5945 18.8976 71.0087 19.1401 71.3575C19.3825 71.7062 19.7253 71.973 20.1228 72.1224C20.5204 72.2718 20.954 72.2968 21.3662 72.1941C21.7783 72.0914 22.1494 71.8658 22.4304 71.5472L23.7594 70.0651L25.0724 71.5714C25.3565 71.8826 25.728 72.1008 26.1381 72.1976C26.5483 72.2943 26.9781 72.2651 27.3714 72.1137C27.7646 71.9623 28.1031 71.6958 28.3425 71.349C28.5819 71.0022 28.7111 70.5912 28.7132 70.1698V63.3311H32.9743C34.1096 65.4548 35.8003 67.2304 37.8658 68.4683C39.9314 69.7063 42.2943 70.3601 44.7024 70.3601C47.1105 70.3601 49.4734 69.7063 51.5389 68.4683C53.6045 67.2304 55.2951 65.4548 56.4304 63.3311H78.2675V67.7533H62.0125C61.7782 67.7533 61.5531 67.8453 61.3859 68.0095C61.2187 68.1737 61.1226 68.397 61.1184 68.6313Z" fill="#25BBA4"/>
</svg>
