<svg width="44" height="44" viewBox="0 0 44 44" fill="none" xmlns="http://www.w3.org/2000/svg">
<g clip-path="url(#clip0_1724_24135)">
<ellipse cx="16.1694" cy="10.7524" rx="8.81975" ry="9.26073" fill="#646464"/>
<path d="M43.5728 15.0909C40.7505 10.5046 36.811 12.004 35.1941 13.3269C33.1949 11.3278 30.6862 11.269 29.6082 11.71C25.0219 13.2387 25.4923 17.7368 26.6683 19.3538L35.1941 28.4675L36.664 26.7035C35.5861 26.7035 33.4301 26.145 33.4301 23.9106C33.4301 21.6763 35.5861 21.5097 36.664 21.7057C36.664 20.4121 37.056 19.5987 37.252 19.3538C39.7215 16.8842 41.5149 19.5007 42.1029 21.1177C44.3372 18.8834 44.0138 16.1688 43.5728 15.0909Z" fill="#646464"/>
<rect x="38.4268" y="20.0894" width="1.76395" height="8.23176" rx="0.881975" fill="#646464"/>
<rect x="35.1924" y="25.0864" width="1.76395" height="8.23176" rx="0.881975" transform="rotate(-90 35.1924 25.0864)" fill="#646464"/>
<path fill-rule="evenodd" clip-rule="evenodd" d="M32.1593 43.3848H0.114229C-0.591351 34.8002 2.17217 29.7142 3.64213 28.2442C5.21008 25.9903 10.2569 21.6588 17.9007 22.3644C25.5445 23.07 31.7183 30.0082 32.1593 35.741V43.3848ZM26.1662 36.3578V32.7712C26.1662 29.7764 23.2863 27.6235 20.414 28.4711C18.5079 29.0336 17.1995 30.7838 17.1995 32.7712V36.3578C17.1995 39.3526 20.0794 41.5055 22.9517 40.6579C24.8579 40.0954 26.1662 38.3452 26.1662 36.3578ZM5.88088 32.7712V36.3578C5.88088 38.3452 7.18924 40.0954 9.09538 40.6579C11.9677 41.5055 14.8476 39.3526 14.8476 36.3578V32.7712C14.8476 30.7838 13.5393 29.0336 11.6331 28.4711C8.76077 27.6235 5.88088 29.7764 5.88088 32.7712Z" fill="#646464"/>
</g>
<defs>
<clipPath id="clip0_1724_24135">
<rect width="43.8899" height="43.8899" fill="white" transform="translate(0 0.027832)"/>
</clipPath>
</defs>
</svg>
