<svg width="81" height="81" viewBox="0 0 81 81" fill="none" xmlns="http://www.w3.org/2000/svg">
<rect x="0.146484" y="0.0581055" width="80.657" height="80.657" rx="16.1314" fill="white"/>
<path d="M69.7187 28.4456C69.638 28.7304 69.4939 28.9493 69.2864 29.1022C68.5769 29.6265 67.696 29.0631 67.6934 28.2188C67.6884 25.8058 67.6909 23.3861 67.701 20.9596C67.7044 20.2371 67.6653 19.6729 67.5838 19.2671C67.1679 17.2053 65.4628 15.6186 63.4388 15.2721C62.9977 15.1956 62.1999 15.1603 61.0455 15.1662C56.3431 15.1889 51.347 15.1918 46.0572 15.175C45.9673 15.175 45.9543 15.2065 46.0181 15.2695C49.6561 18.8756 53.2907 22.4875 56.922 26.1053C57.145 26.3271 57.4437 26.5527 57.5281 26.8665C57.5836 27.074 57.6105 27.2862 57.6088 27.5029C57.6012 28.2793 57.605 29.1035 57.6201 29.9756C57.6277 30.4561 57.5844 30.8565 57.4903 31.1766C57.1186 32.4394 55.9591 33.3027 54.6522 33.3304C54.6085 33.3312 54.5867 33.3535 54.5867 33.3972V43.3697C54.5867 43.3798 54.5908 43.3896 54.5981 43.3969C54.6053 43.4041 54.6153 43.4084 54.6257 43.4087C55.2374 43.4129 55.886 43.4129 56.5716 43.4087C57.9138 43.3987 59.1173 44.2594 59.4992 45.5373C59.6076 45.9003 59.6529 46.3838 59.6353 46.9879C59.6135 47.7163 59.6143 48.3964 59.6378 49.0283C59.6529 49.4072 59.6156 49.6958 59.5257 49.8941C59.3534 50.2763 59.0463 50.4675 58.6044 50.4675C46.5159 50.4692 34.4245 50.4696 22.3302 50.4687C21.7253 50.4687 21.3119 50.0188 21.3157 49.4278C21.3207 48.4414 21.319 47.5054 21.3106 46.6199C21.3064 46.2258 21.348 45.8751 21.4354 45.5676C21.6963 44.6488 22.4348 43.8927 23.3308 43.5738C23.6997 43.4436 24.1597 43.3869 24.7108 43.4037C25.2217 43.4197 25.7531 43.4201 26.3051 43.405C26.319 43.4043 26.3321 43.3984 26.3418 43.3886C26.3514 43.3787 26.3567 43.3656 26.3567 43.352V33.4211C26.3567 33.3732 26.3332 33.3476 26.2862 33.3443C24.5773 33.2119 23.3838 32.0311 23.322 30.3259C23.2817 29.2186 23.2817 28.1633 23.322 27.1601C23.3321 26.9093 23.4619 26.7442 23.6283 26.5678C24.1307 26.0351 24.6461 25.5046 25.1746 24.9761C28.4059 21.749 31.6574 18.5063 34.9291 15.2481C34.9677 15.2095 34.9593 15.1897 34.9039 15.1889C29.8594 15.1586 24.8364 15.1515 19.8349 15.1675C19.3308 15.1691 18.6586 15.196 17.8185 15.2481C17.3009 15.2809 16.8048 15.4069 16.3301 15.6262" stroke="#0F5CB5" stroke-width="3.22628"/>
<path d="M16.3281 15.625C14.3848 16.4505 13.248 18.2854 13.248 20.3409C13.2506 30.0458 13.2506 40.0115 13.248 50.2382C13.248 52.6566 14.7415 54.6982 17.0805 55.3334C17.5376 55.4578 18.2807 55.5195 19.3099 55.5187C33.3106 55.501 47.3126 55.5015 61.3158 55.5199C62.4643 55.5208 63.2932 55.4573 63.8023 55.3296C65.2752 54.96 66.4077 54.0463 67.2 52.5886" stroke="#0F5CB5" stroke-width="3.22628"/>
<path d="M67.1992 52.588C67.4614 52.115 67.6038 51.6705 67.6264 51.2546C67.6575 50.6959 67.6748 50.2363 67.6781 49.8759C67.7159 45.7557 67.7151 41.6245 67.6756 37.4824C67.6693 36.846 68.0751 36.3583 68.7304 36.3633C69.2001 36.3675 69.5324 36.6486 69.7273 37.2064" stroke="#0F5CB5" stroke-width="3.22628"/>
<path d="M69.7181 32.1202C69.5005 31.5388 69.1396 31.2683 68.6355 31.3086C68.0466 31.3557 67.7336 31.7216 67.6966 32.4063C67.674 32.8058 67.6361 33.4007 67.7962 33.7674C67.95 34.1215 68.3381 34.3446 68.7301 34.3269C69.2375 34.3051 69.5681 34.0094 69.7219 33.4397" stroke="#0F5CB5" stroke-width="3.22628"/>
<path d="M67.1992 52.5886C63.1647 52.5524 59.1487 52.5319 55.1511 52.5268C44.4809 52.5117 33.8106 52.4915 23.1404 52.4663C19.9809 52.4588 16.9928 50.9275 16.3879 47.6357C16.3123 47.2266 16.2736 46.3956 16.2719 45.1429C16.2619 37.8746 16.2526 30.271 16.2442 22.3321C16.2425 20.1015 16.2703 17.8658 16.3274 15.625" stroke="#0F5CB5" stroke-width="3.22628"/>
<path d="M53.162 25.2607L41.5234 13.626" stroke="#0F5CB5" stroke-width="3.22628"/>
<path d="M41.5177 13.6252C40.8901 13.0316 39.984 13.0531 39.3765 13.6618C35.1883 17.8593 31.0197 22.0278 26.8709 26.1674C26.802 26.2363 26.8163 26.2707 26.9138 26.2707H54.0422C54.1296 26.2707 54.1422 26.2396 54.08 26.1775L53.1563 25.26" stroke="white" stroke-width="3.22628"/>
<path d="M41.5182 13.626C41.4703 13.7066 41.4489 13.7911 41.3808 13.8579C38.5192 16.675 35.6807 19.503 32.8652 22.342C32.5292 22.6806 32.1885 23.0469 31.8432 23.4409C31.5886 23.7308 31.2786 24.1114 31.4311 24.5222C31.5041 24.7188 31.5394 24.9658 31.7512 25.0591C31.9536 25.1482 32.233 25.2023 32.5892 25.2217C33.1009 25.2486 33.6369 25.2633 34.1973 25.2658C40.4936 25.2927 46.8134 25.291 53.1568 25.2607" stroke="#0F5CB5" stroke-width="3.22628"/>
<path d="M28.9517 31.2605C29.1097 31.2949 29.2735 31.3122 29.4432 31.3122C37.6627 31.3122 45.8821 31.3122 54.1016 31.3122C54.5637 31.3122 54.8809 31.2743 55.0531 31.1987C55.4018 31.0467 55.5803 30.7144 55.5887 30.2019C55.5988 29.6095 55.5992 28.9882 55.59 28.3379C55.5896 28.3254 55.5843 28.3136 55.5751 28.3049C55.5659 28.2962 55.5536 28.2913 55.5408 28.2913L26.3594 28.29" stroke="#0F5CB5" stroke-width="3.22628"/>
<path d="M26.3597 28.29L25.417 28.2938C25.3641 28.2938 25.3385 28.3203 25.3402 28.3732C25.3553 28.9059 25.3549 29.4528 25.3389 30.0141C25.3187 30.745 25.5998 31.2693 26.3874 31.3033C27.1722 31.3369 28.027 31.3227 28.9521 31.2605" stroke="white" stroke-width="3.22628"/>
<path d="M26.3594 28.29C26.645 29.6814 27.5092 30.6715 28.9517 31.2605" stroke="#0F5CB5" stroke-width="3.22628"/>
<path d="M30.3856 42.4403V33.4092C30.3856 33.3563 30.3591 33.3302 30.3062 33.3311L29.3711 33.3349" stroke="#0F5CB5" stroke-width="3.22628"/>
<path d="M29.3717 33.3369L28.4442 33.3432C28.3955 33.3432 28.3711 33.3676 28.3711 33.4163V43.3485C28.3711 43.3652 28.3777 43.3812 28.3896 43.393C28.4014 43.4048 28.4174 43.4115 28.4341 43.4115H30.3006C30.3518 43.4115 30.3774 43.3858 30.3774 43.3346L30.3863 42.4423" stroke="white" stroke-width="3.22628"/>
<path d="M29.3711 33.3369C29.3795 36.0255 29.382 38.7115 29.3787 41.395C29.3778 41.9681 29.7135 42.3171 30.3856 42.4423" stroke="#0F5CB5" stroke-width="3.22628"/>
<path d="M37.4434 33.3941C37.4434 33.3768 37.4365 33.3601 37.4242 33.3478C37.4119 33.3355 37.3952 33.3286 37.3779 33.3286H32.4679C32.4593 33.3286 32.4507 33.3303 32.4428 33.3336C32.4348 33.3369 32.4276 33.3417 32.4215 33.3478C32.4155 33.3539 32.4106 33.3611 32.4073 33.3691C32.404 33.377 32.4023 33.3855 32.4023 33.3941V43.3452C32.4023 43.3538 32.404 43.3623 32.4073 43.3703C32.4106 43.3782 32.4155 43.3855 32.4215 43.3915C32.4276 43.3976 32.4348 43.4025 32.4428 43.4057C32.4507 43.409 32.4593 43.4107 32.4679 43.4107H37.3779C37.3952 43.4107 37.4119 43.4038 37.4242 43.3915C37.4365 43.3792 37.4434 43.3626 37.4434 43.3452V33.3941Z" stroke="#0F5CB5" stroke-width="3.22628"/>
<path d="M41.4756 42.4412V33.3887C41.4756 33.3815 41.4741 33.3743 41.4713 33.3676C41.4685 33.361 41.4644 33.355 41.4593 33.3499C41.4541 33.3449 41.448 33.3409 41.4412 33.3382C41.4345 33.3356 41.4273 33.3343 41.4201 33.3345L40.4648 33.3383" stroke="#0F5CB5" stroke-width="3.22628"/>
<path d="M40.4673 33.3369L39.5284 33.352C39.4847 33.3529 39.4629 33.3751 39.4629 33.4188V43.3459C39.4629 43.3626 39.4695 43.3787 39.4813 43.3905C39.4932 43.4023 39.5092 43.409 39.5259 43.409H41.3924C41.4436 43.409 41.4692 43.3833 41.4692 43.3321L41.4781 42.4398" stroke="white" stroke-width="3.22628"/>
<path d="M40.4648 33.3369C40.4682 35.8742 40.4699 38.4107 40.4699 40.9464C40.4699 41.4034 40.514 41.7143 40.6022 41.879C40.7618 42.1747 41.053 42.3617 41.4756 42.4398" stroke="#0F5CB5" stroke-width="3.22628"/>
<path d="M48.5313 33.3941C48.5313 33.3768 48.5244 33.3601 48.5121 33.3478C48.4998 33.3355 48.4831 33.3286 48.4658 33.3286H43.5558C43.5384 33.3286 43.5217 33.3355 43.5094 33.3478C43.4971 33.3601 43.4902 33.3768 43.4902 33.3941V43.3452C43.4902 43.3626 43.4971 43.3792 43.5094 43.3915C43.5217 43.4038 43.5384 43.4107 43.5558 43.4107H48.4658C48.4831 43.4107 48.4998 43.4038 48.5121 43.3915C48.5244 43.3792 48.5313 43.3626 48.5313 43.3452V33.3941Z" stroke="#0F5CB5" stroke-width="3.22628"/>
<path d="M52.5674 42.4409V33.396C52.5674 33.354 52.5464 33.333 52.5044 33.333L51.5566 33.3355" stroke="#0F5CB5" stroke-width="3.22628"/>
<path d="M51.5552 33.3369L50.6226 33.3432C50.5747 33.3441 50.5508 33.3684 50.5508 33.4163V43.3485C50.5508 43.3652 50.5574 43.3812 50.5692 43.393C50.5811 43.4048 50.5971 43.4115 50.6138 43.4115H52.479C52.5311 43.4115 52.5571 43.3858 52.5571 43.3346L52.5659 42.4423" stroke="white" stroke-width="3.22628"/>
<path d="M51.5566 33.3369C51.56 35.8768 51.5617 38.4141 51.5617 40.9489C51.5617 41.406 51.6058 41.7168 51.694 41.8815C51.8536 42.1773 52.1448 42.3642 52.5674 42.4423" stroke="#0F5CB5" stroke-width="3.22628"/>
<path d="M57.6051 47.444C57.6084 47.2272 57.6101 46.9882 57.6101 46.7269C57.6089 46.1711 57.5282 45.7464 57.0178 45.5221C56.8767 45.4599 56.6569 45.4289 56.3587 45.4289C46.0127 45.4238 35.666 45.423 25.3184 45.4263" stroke="#0F5CB5" stroke-width="3.22628"/>
<path d="M25.3165 45.4278C24.883 45.4253 24.297 45.3686 23.9378 45.5161C23.4387 45.7215 23.3077 46.1853 23.319 46.6944C23.3325 47.2876 23.3346 47.8505 23.3253 48.3832C23.3245 48.4285 23.3467 48.4512 23.3921 48.4512H57.5428C57.5831 48.4512 57.6033 48.431 57.6033 48.3907V47.4455" stroke="white" stroke-width="3.22628"/>
<path d="M25.3184 45.4292C25.331 45.6073 25.3431 45.7821 25.3549 45.9535C25.3978 46.5912 25.7141 47.1142 26.3241 47.3398C26.5139 47.4095 26.8823 47.4444 27.4293 47.4444C37.4871 47.4427 47.5457 47.4435 57.6051 47.4469" stroke="#0F5CB5" stroke-width="3.22628"/>
<path d="M48.1489 62.5655C48.1554 62.5655 48.1618 62.5641 48.1676 62.5612C48.1734 62.5584 48.1784 62.5542 48.1823 62.5491C48.1862 62.544 48.1889 62.538 48.1901 62.5316C48.1913 62.5253 48.191 62.5188 48.1893 62.5125L46.7815 57.5547C46.7791 57.5459 46.7738 57.5382 46.7665 57.5327C46.7592 57.5273 46.7503 57.5243 46.7412 57.5244H34.2016C34.1925 57.5243 34.1836 57.5273 34.1763 57.5327C34.169 57.5382 34.1637 57.5459 34.1612 57.5547L32.7535 62.5125C32.7518 62.5188 32.7515 62.5253 32.7527 62.5316C32.7539 62.538 32.7565 62.544 32.7605 62.5491C32.7644 62.5542 32.7694 62.5584 32.7752 62.5612C32.781 62.5641 32.7874 62.5655 32.7939 62.5655H48.1489Z" stroke="white" stroke-width="3.22628"/>
<path d="M53.2766 67.0761C52.7422 65.8932 51.8852 65.1202 50.7056 64.7573C50.3024 64.6337 49.747 64.5724 49.0396 64.5733C42.9928 64.5833 37.1591 64.5859 31.5383 64.5808C29.6391 64.5796 28.0373 65.7024 27.5205 67.5286C27.5054 67.5807 27.5252 67.6067 27.5798 67.6067H53.3585C53.4156 67.6067 53.4383 67.579 53.4266 67.5235C53.3938 67.374 53.3438 67.2248 53.2766 67.0761Z" stroke="white" stroke-width="3.22628"/>
<path d="M43.4904 21.2286C43.4904 20.4277 43.1722 19.6597 42.6059 19.0934C42.0397 18.5271 41.2716 18.209 40.4708 18.209C39.6699 18.209 38.9019 18.5271 38.3356 19.0934C37.7693 19.6597 37.4512 20.4277 37.4512 21.2286C37.4512 22.0294 37.7693 22.7975 38.3356 23.3638C38.9019 23.93 39.6699 24.2482 40.4708 24.2482C41.2716 24.2482 42.0397 23.93 42.6059 23.3638C43.1722 22.7975 43.4904 22.0294 43.4904 21.2286Z" stroke="#0F5CB5" stroke-width="3.22628"/>
<path d="M40.9018 20.3253C41.0875 20.4396 41.2387 20.5866 41.3555 20.7664C41.3622 20.7765 41.3664 20.7756 41.3681 20.7639C41.3698 20.7572 41.3685 20.7513 41.3643 20.7462C41.2245 20.537 40.9875 20.2648 40.7077 20.2686C40.6195 20.2694 40.6183 20.2795 40.704 20.2988C40.7342 20.3056 40.7645 20.3068 40.7947 20.3026C40.8325 20.2976 40.8682 20.3051 40.9018 20.3253Z" stroke="#0F5CB5" stroke-width="3.22628"/>
<path d="M39.6526 20.6612C39.7481 20.5632 39.8461 20.4677 39.9429 20.3709C39.9496 20.3642 39.9484 20.3608 39.9391 20.3608C39.935 20.3608 39.9308 20.3617 39.9266 20.3634C39.919 20.365 39.9128 20.3684 39.9077 20.3734C39.8197 20.4614 39.7309 20.5498 39.6413 20.6386C39.6371 20.6428 39.6342 20.6478 39.6325 20.6537C39.6274 20.6771 39.6342 20.6797 39.6526 20.6612Z" stroke="#0F5CB5" stroke-width="3.22628"/>
<path d="M69.7211 28.4452C69.6405 28.73 69.4964 28.9489 69.2889 29.1018C68.5793 29.626 67.6984 29.0627 67.6959 28.2183C67.6908 25.8053 67.6934 23.3856 67.7034 20.9592C67.7068 20.2366 67.6677 19.6725 67.5862 19.2667C67.1703 17.2049 65.4652 15.6182 63.4412 15.2716C63.0001 15.1952 62.2024 15.1599 61.048 15.1658C56.3455 15.1884 51.3494 15.1914 46.0596 15.1746C45.9697 15.1746 45.9567 15.2061 46.0206 15.2691C49.6585 18.8751 53.2931 22.4871 56.9244 26.1049C57.1475 26.3267 57.4461 26.5523 57.5306 26.8661C57.586 27.0736 57.6129 27.2857 57.6112 27.5025C57.6037 28.2788 57.6075 29.103 57.6226 29.9751C57.6301 30.4557 57.5869 30.8561 57.4928 31.1762C57.121 32.439 55.9615 33.3022 54.6547 33.33C54.611 33.3308 54.5891 33.3531 54.5891 33.3968V43.3692C54.5891 43.3794 54.5932 43.3891 54.6005 43.3964C54.6078 43.4037 54.6177 43.408 54.6282 43.4083C55.2398 43.4125 55.8885 43.4125 56.574 43.4083C57.9162 43.3982 59.1198 44.259 59.5016 45.5369C59.61 45.8998 59.6554 46.3834 59.6377 46.9875C59.6159 47.7159 59.6167 48.396 59.6403 49.0278C59.6554 49.4067 59.618 49.6953 59.5281 49.8936C59.3559 50.2759 59.0488 50.467 58.6068 50.467C46.5184 50.4687 34.427 50.4691 22.3326 50.4683C21.7277 50.4683 21.3143 50.0184 21.3181 49.4273C21.3232 48.441 21.3215 47.505 21.3131 46.6195C21.3089 46.2254 21.3505 45.8746 21.4378 45.5671C21.6987 44.6484 22.4372 43.8922 23.3333 43.5734C23.7021 43.4432 24.1621 43.3865 24.7133 43.4033C25.2241 43.4192 25.7555 43.4196 26.3075 43.4045C26.3214 43.4039 26.3346 43.398 26.3442 43.3882C26.3538 43.3783 26.3592 43.3652 26.3592 43.3516V33.4207C26.3592 33.3728 26.3357 33.3472 26.2886 33.3438C24.5797 33.2115 23.3862 32.0306 23.3245 30.3255C23.2841 29.2181 23.2841 28.1629 23.3245 27.1597C23.3345 26.9089 23.4644 26.7438 23.6307 26.5674C24.1331 26.0347 24.6486 25.5041 25.1771 24.9757C28.4084 21.7485 31.6599 18.5059 34.9315 15.2477C34.9702 15.209 34.9618 15.1893 34.9063 15.1884C29.8619 15.1582 24.8389 15.1511 19.8373 15.167C19.3332 15.1687 18.6611 15.1956 17.8209 15.2477C17.3033 15.2804 16.8072 15.4065 16.3325 15.6258C14.3892 16.4512 13.2524 18.2862 13.2524 20.3417C13.2549 30.0466 13.2549 40.0123 13.2524 50.2389C13.2524 52.6574 14.7458 54.699 17.0849 55.3342C17.542 55.4585 18.2851 55.5203 19.3143 55.5194C33.315 55.5018 47.317 55.5022 61.3202 55.5207C62.4687 55.5215 63.2976 55.4581 63.8067 55.3304C65.2795 54.9607 66.4121 54.047 67.2044 52.5893C67.4665 52.1163 67.6089 51.6719 67.6316 51.256C67.6627 50.6973 67.6799 50.2377 67.6833 49.8772C67.7211 45.757 67.7202 41.6259 67.6808 37.4838C67.6744 36.8474 68.0803 36.3596 68.7356 36.3647C69.2053 36.3689 69.5375 36.6499 69.7325 37.2078C69.7778 41.5952 69.7732 45.9889 69.7186 50.3889C69.7123 50.8678 69.6379 51.3517 69.5875 51.8319C69.5657 52.0361 69.5296 52.2373 69.4791 52.4356C69.4136 52.6927 69.338 52.9099 69.2523 53.0871C68.1937 55.275 66.3965 56.844 64.0083 57.3594C63.4547 57.4796 62.6905 57.538 61.7159 57.5346C57.4957 57.5212 53.2427 57.5195 48.957 57.5296C48.9007 57.5296 48.8801 57.5569 48.8952 57.6115L50.3118 62.5971C50.3152 62.6084 50.3217 62.6186 50.3306 62.6264C50.3396 62.6342 50.3505 62.6393 50.3622 62.6412C53.315 63.0936 55.6137 65.5486 55.5948 68.5871C55.591 69.1543 55.1588 69.6256 54.5753 69.6256C44.8284 69.6273 35.4205 69.626 26.3516 69.6218C25.3346 69.6218 25.2287 68.3641 25.3686 67.647C25.8652 65.0962 27.9257 62.9853 30.5508 62.6425C30.5987 62.6366 30.6294 62.6101 30.6428 62.5631L32.0518 57.6127C32.0669 57.5581 32.0468 57.5308 31.9913 57.5308C27.9484 57.5165 23.8155 57.5186 19.5928 57.5371C18.5031 57.5413 17.7075 57.4981 17.2059 57.4073C14.5278 56.9246 12.1472 54.9347 11.4301 52.2024C11.3595 51.9365 11.3734 51.6769 11.3003 51.4122C11.2717 51.3089 11.257 51.2035 11.2562 51.0959C11.241 49.6819 11.2007 48.2452 11.2032 46.8551C11.2142 37.9056 11.2242 29.1576 11.2335 20.6114C11.2343 19.8989 11.2763 19.3255 11.3595 18.8911C11.4713 18.3105 11.6649 17.7455 11.9405 17.1961C12.9411 15.2023 14.5614 13.9131 16.8013 13.3283C17.2021 13.2233 17.7255 13.1691 18.3716 13.1657C24.4574 13.1292 30.5836 13.1468 36.9202 13.1632C36.9444 13.1636 36.9684 13.1589 36.9908 13.1493C37.0131 13.1398 37.0333 13.1256 37.05 13.1078C37.6373 12.494 38.2195 11.8198 38.9795 11.4719C40.0507 10.9817 41.2417 11.0271 42.2486 11.6169C42.8787 11.9861 43.3728 12.6024 43.9147 13.1115C43.95 13.1443 43.992 13.1607 44.0407 13.1607C49.0633 13.1405 54.0598 13.1313 59.0303 13.133C60.3964 13.1338 61.7621 13.1468 63.1274 13.172C63.7609 13.1838 64.4734 13.3556 65.2648 13.6875C67.3056 14.5453 68.6814 16.011 69.3922 18.0845C69.5014 18.4038 69.5854 18.7508 69.6442 19.1255C69.6863 19.3986 69.7081 19.7527 69.7098 20.1879C69.7165 22.9437 69.7203 25.6961 69.7211 28.4452ZM53.1638 25.2605L41.5252 13.6257C40.8976 13.0321 39.9915 13.0536 39.384 13.6623C35.1957 17.8598 31.0272 22.0283 26.8784 26.1679C26.8095 26.2368 26.8238 26.2712 26.9213 26.2712H54.0497C54.1371 26.2712 54.1497 26.2401 54.0875 26.178L53.1638 25.2605ZM28.9553 31.2606C29.1133 31.2951 29.2771 31.3123 29.4468 31.3123C37.6663 31.3123 45.8857 31.3123 54.1052 31.3123C54.5673 31.3123 54.8844 31.2745 55.0567 31.1989C55.4053 31.0468 55.5839 30.7145 55.5923 30.202C55.6024 29.6097 55.6028 28.9883 55.5936 28.3381C55.5932 28.3256 55.5879 28.3137 55.5787 28.305C55.5695 28.2963 55.5572 28.2914 55.5444 28.2914L26.363 28.2902L25.4203 28.2939C25.3674 28.2939 25.3417 28.3204 25.3434 28.3733C25.3585 28.906 25.3581 29.453 25.3421 30.0142C25.322 30.7452 25.603 31.2694 26.3907 31.3035C27.1754 31.3371 28.0303 31.3228 28.9553 31.2606ZM30.3908 42.4417V33.4106C30.3908 33.3577 30.3643 33.3316 30.3114 33.3325L29.3763 33.3363L28.4487 33.3426C28.4 33.3426 28.3756 33.3669 28.3756 33.4157L28.3756 43.3478C28.3756 43.3645 28.3822 43.3805 28.3941 43.3924C28.4059 43.4042 28.4219 43.4108 28.4386 43.4108H30.3051C30.3563 43.4108 30.382 43.3852 30.382 43.334L30.3908 42.4417ZM37.4495 33.3942C37.4495 33.3769 37.4426 33.3602 37.4303 33.3479C37.418 33.3356 37.4014 33.3287 37.384 33.3287H32.474C32.4654 33.3287 32.4569 33.3304 32.4489 33.3337C32.441 33.337 32.4337 33.3418 32.4277 33.3479C32.4216 33.354 32.4167 33.3612 32.4134 33.3692C32.4102 33.3771 32.4085 33.3856 32.4085 33.3942V43.3453C32.4085 43.3539 32.4102 43.3624 32.4134 43.3704C32.4167 43.3783 32.4216 43.3855 32.4277 43.3916C32.4337 43.3977 32.441 43.4025 32.4489 43.4058C32.4569 43.4091 32.4654 43.4108 32.474 43.4108H37.384C37.4014 43.4108 37.418 43.4039 37.4303 43.3916C37.4426 43.3793 37.4495 43.3627 37.4495 43.3453V33.3942ZM41.4811 42.4417V33.3892C41.4811 33.382 41.4797 33.3748 41.4769 33.3682C41.4741 33.3615 41.47 33.3555 41.4648 33.3504C41.4596 33.3454 41.4535 33.3414 41.4468 33.3388C41.4401 33.3361 41.4329 33.3348 41.4256 33.335L40.4704 33.3388L39.5315 33.3539C39.4878 33.3547 39.4659 33.377 39.4659 33.4207V43.3478C39.4659 43.3645 39.4726 43.3805 39.4844 43.3924C39.4962 43.4042 39.5122 43.4108 39.529 43.4108H41.3954C41.4467 43.4108 41.4723 43.3852 41.4723 43.334L41.4811 42.4417ZM48.5398 33.3942C48.5398 33.3769 48.5329 33.3602 48.5207 33.3479C48.5084 33.3356 48.4917 33.3287 48.4743 33.3287H43.5643C43.5469 33.3287 43.5303 33.3356 43.518 33.3479C43.5057 33.3602 43.4988 33.3769 43.4988 33.3942V43.3453C43.4988 43.3627 43.5057 43.3793 43.518 43.3916C43.5303 43.4039 43.5469 43.4108 43.5643 43.4108H48.4743C48.4917 43.4108 48.5084 43.4039 48.5207 43.3916C48.5329 43.3793 48.5398 43.3627 48.5398 43.3453V33.3942ZM52.5714 42.4417V33.3968C52.5714 33.3547 52.5504 33.3337 52.5084 33.3337L51.5607 33.3363L50.6281 33.3426C50.5802 33.3434 50.5563 33.3678 50.5563 33.4157V43.3478C50.5563 43.3645 50.5629 43.3805 50.5747 43.3924C50.5865 43.4042 50.6026 43.4108 50.6193 43.4108H52.4845C52.5366 43.4108 52.5626 43.3852 52.5626 43.334L52.5714 42.4417ZM57.61 47.4462C57.6133 47.2294 57.615 46.9904 57.615 46.7291C57.6138 46.1733 57.5331 45.7486 57.0227 45.5243C56.8815 45.4621 56.6618 45.431 56.3636 45.431C46.0176 45.426 35.6709 45.4251 25.3232 45.4285C24.8897 45.426 24.3037 45.3693 23.9445 45.5167C23.4455 45.7221 23.3144 46.1859 23.3257 46.6951C23.3392 47.2882 23.3413 47.8512 23.332 48.3838C23.3312 48.4292 23.3535 48.4519 23.3988 48.4519H57.5495C57.5898 48.4519 57.61 48.4317 57.61 48.3914V47.4462ZM48.1517 62.5668C48.1581 62.5669 48.1645 62.5654 48.1703 62.5626C48.1761 62.5598 48.1812 62.5556 48.1851 62.5505C48.189 62.5453 48.1917 62.5394 48.1929 62.533C48.1941 62.5267 48.1938 62.5201 48.192 62.5139L46.7843 57.556C46.7818 57.5473 46.7765 57.5396 46.7692 57.5341C46.762 57.5286 46.7531 57.5257 46.744 57.5258H34.2043C34.1952 57.5257 34.1863 57.5286 34.1791 57.5341C34.1718 57.5396 34.1665 57.5473 34.164 57.556L32.7563 62.5139C32.7545 62.5201 32.7542 62.5267 32.7554 62.533C32.7566 62.5394 32.7593 62.5453 32.7632 62.5505C32.7671 62.5556 32.7722 62.5598 32.778 62.5626C32.7838 62.5654 32.7902 62.5669 32.7966 62.5668H48.1517ZM53.2784 67.0773C52.7441 65.8944 51.8871 65.1214 50.7075 64.7584C50.3042 64.6349 49.7489 64.5736 49.0414 64.5744C42.9947 64.5845 37.1609 64.5871 31.5401 64.582C29.6409 64.5807 28.0391 65.7036 27.5224 67.5298C27.5073 67.5819 27.527 67.6079 27.5816 67.6079H53.3604C53.4175 67.6079 53.4402 67.5802 53.4284 67.5247C53.3956 67.3752 53.3457 67.226 53.2784 67.0773Z" fill="#0F5CB5"/>
<path d="M41.5236 13.6272C41.4757 13.7078 41.4543 13.7923 41.3862 13.8591C38.5246 16.6762 35.686 19.5042 32.8706 22.3432C32.5345 22.6818 32.1938 23.0481 31.8485 23.4421C31.594 23.732 31.2839 24.1126 31.4364 24.5234C31.5095 24.72 31.5448 24.967 31.7565 25.0603C31.959 25.1494 32.2384 25.2036 32.5946 25.2229C33.1063 25.2498 33.6423 25.2645 34.2027 25.267C40.499 25.2939 46.8188 25.2922 53.1621 25.2619L54.0859 26.1794C54.1481 26.2416 54.1355 26.2727 54.0481 26.2727H26.9196C26.8222 26.2727 26.8079 26.2382 26.8768 26.1693C31.0256 22.0298 35.1941 17.8613 39.3824 13.6637C39.9898 13.055 40.896 13.0336 41.5236 13.6272Z" fill="#0F5CB5"/>
<path d="M41.5241 13.626L53.1626 25.2607C46.8193 25.291 40.4995 25.2927 34.2032 25.2658C33.6428 25.2633 33.1068 25.2486 32.5951 25.2217C32.2389 25.2023 31.9595 25.1482 31.757 25.0591C31.5453 24.9658 31.51 24.7188 31.4369 24.5222C31.2844 24.1114 31.5944 23.7308 31.849 23.4409C32.1943 23.0469 32.535 22.6806 32.8711 22.342C35.6865 19.503 38.5251 16.675 41.3867 13.8579C41.4548 13.7911 41.4762 13.7066 41.5241 13.626ZM43.4939 21.2292C43.4939 20.4283 43.1757 19.6603 42.6094 19.094C42.0432 18.5277 41.2751 18.2096 40.4743 18.2096C39.6734 18.2096 38.9054 18.5277 38.3391 19.094C37.7728 19.6603 37.4547 20.4283 37.4547 21.2292C37.4547 22.03 37.7728 22.798 38.3391 23.3643C38.9054 23.9306 39.6734 24.2487 40.4743 24.2487C41.2751 24.2487 42.0432 23.9306 42.6094 23.3643C43.1757 22.798 43.4939 22.03 43.4939 21.2292Z" fill="white"/>
<path d="M69.7179 28.4451L69.7205 32.12C69.5029 31.5386 69.142 31.2681 68.6379 31.3084C68.0489 31.3555 67.736 31.7214 67.699 32.4061C67.6763 32.8056 67.6385 33.4005 67.7986 33.7672C67.9523 34.1213 68.3405 34.3444 68.7324 34.3268C69.2399 34.3049 69.5705 34.0092 69.7243 33.4395L69.7293 37.2077C69.5344 36.6499 69.2021 36.3688 68.7324 36.3646C68.0771 36.3596 67.6713 36.8473 67.6776 37.4837C67.7171 41.6258 67.7179 45.757 67.6801 49.8772C67.6767 50.2376 67.6595 50.6972 67.6284 51.2559C67.6057 51.6718 67.4633 52.1162 67.2012 52.5893C63.1667 52.5531 59.1506 52.5326 55.1531 52.5275C44.4828 52.5124 33.8126 52.4922 23.1423 52.467C19.9829 52.4595 16.9948 50.9282 16.3898 47.6364C16.3142 47.2273 16.2756 46.3963 16.2739 45.1436C16.2638 37.8753 16.2546 30.2717 16.2462 22.3328C16.2445 20.1022 16.2722 17.8665 16.3293 15.6257C16.804 15.4064 17.3002 15.2804 17.8177 15.2476C18.6579 15.1955 19.33 15.1686 19.8341 15.167C24.8357 15.151 29.8587 15.1581 34.9031 15.1884C34.9586 15.1892 34.967 15.209 34.9283 15.2476C31.6567 18.5058 28.4052 21.7485 25.1739 24.9756C24.6454 25.5041 24.13 26.0346 23.6275 26.5673C23.4612 26.7438 23.3314 26.9089 23.3213 27.1596C23.281 28.1628 23.281 29.2181 23.3213 30.3254C23.383 32.0306 24.5765 33.2114 26.2854 33.3438C26.3325 33.3471 26.356 33.3728 26.356 33.4206V43.3515C26.356 43.3651 26.3506 43.3782 26.341 43.3881C26.3314 43.398 26.3183 43.4038 26.3043 43.4045C25.7523 43.4196 25.2209 43.4192 24.7101 43.4032C24.1589 43.3864 23.699 43.4431 23.3301 43.5733C22.4341 43.8922 21.6956 44.6483 21.4347 45.5671C21.3473 45.8746 21.3057 46.2254 21.3099 46.6194C21.3183 47.5049 21.32 48.4409 21.315 49.4273C21.3112 50.0183 21.7245 50.4682 22.3295 50.4682C34.4238 50.4691 46.5152 50.4687 58.6037 50.467C59.0456 50.467 59.3527 50.2758 59.5249 49.8936C59.6148 49.6953 59.6522 49.4067 59.6371 49.0278C59.6136 48.396 59.6127 47.7158 59.6346 46.9874C59.6522 46.3833 59.6068 45.8998 59.4985 45.5368C59.1166 44.2589 57.913 43.3982 56.5709 43.4082C55.8853 43.4124 55.2367 43.4124 54.625 43.4082C54.6145 43.4079 54.6046 43.4037 54.5973 43.3964C54.59 43.3891 54.586 43.3793 54.5859 43.3692V33.3967C54.5859 33.353 54.6078 33.3307 54.6515 33.3299C55.9584 33.3022 57.1178 32.4389 57.4896 31.1761C57.5837 30.856 57.627 30.4557 57.6194 29.9751C57.6043 29.103 57.6005 28.2788 57.6081 27.5024C57.6097 27.2857 57.5829 27.0735 57.5274 26.866C57.443 26.5522 57.1443 26.3266 56.9212 26.1048C53.29 22.487 49.6554 18.8751 46.0174 15.269C45.9536 15.206 45.9666 15.1745 46.0565 15.1745C51.3462 15.1913 56.3423 15.1884 61.0448 15.1657C62.1992 15.1598 62.997 15.1951 63.438 15.2716C65.462 15.6181 67.1672 17.2048 67.5831 19.2666C67.6646 19.6724 67.7036 20.2366 67.7003 20.9591C67.6902 23.3856 67.6877 25.8053 67.6927 28.2183C67.6952 29.0626 68.5761 29.626 69.2857 29.1017C69.4932 28.9488 69.6373 28.7299 69.7179 28.4451Z" fill="white"/>
<path d="M16.332 15.6255C16.2749 17.8662 16.2472 20.1019 16.2489 22.3326C16.2573 30.2714 16.2665 37.875 16.2766 45.1434C16.2783 46.3961 16.3169 47.227 16.3925 47.6362C16.9975 50.928 19.9855 52.4592 23.145 52.4668C33.8153 52.492 44.4855 52.5122 55.1558 52.5273C59.1533 52.5323 63.1694 52.5529 67.2039 52.5891C66.4116 54.0468 65.2791 54.9604 63.8062 55.3301C63.2971 55.4578 62.4682 55.5213 61.3197 55.5204C47.3165 55.5019 33.3145 55.5015 19.3138 55.5192C18.2846 55.52 17.5415 55.4583 17.0844 55.3339C14.7454 54.6987 13.252 52.6571 13.252 50.2387C13.2545 40.012 13.2545 30.0463 13.252 20.3414C13.252 18.2859 14.3887 16.451 16.332 15.6255Z" fill="white"/>
<path d="M43.4962 21.2281C43.4962 22.0289 43.1781 22.797 42.6118 23.3633C42.0455 23.9296 41.2775 24.2477 40.4766 24.2477C39.6758 24.2477 38.9077 23.9296 38.3414 23.3633C37.7752 22.797 37.457 22.0289 37.457 21.2281C37.457 20.4272 37.7752 19.6592 38.3414 19.0929C38.9077 18.5266 39.6758 18.2085 40.4766 18.2085C41.2775 18.2085 42.0455 18.5266 42.6118 19.0929C43.1781 19.6592 43.4962 20.4272 43.4962 21.2281ZM40.9064 20.3232C41.0921 20.4375 41.2433 20.5845 41.3601 20.7643C41.3668 20.7744 41.371 20.7736 41.3727 20.7618C41.3744 20.7551 41.3731 20.7492 41.3689 20.7441C41.229 20.5349 40.9921 20.2627 40.7123 20.2665C40.6241 20.2673 40.6228 20.2774 40.7085 20.2968C40.7388 20.3035 40.769 20.3047 40.7993 20.3005C40.8371 20.2955 40.8728 20.3031 40.9064 20.3232ZM39.6587 20.661C39.7545 20.5627 39.8528 20.4669 39.9498 20.3699C39.9566 20.3631 39.9553 20.3598 39.9461 20.3598C39.9419 20.3598 39.9377 20.3606 39.9335 20.3623C39.9259 20.364 39.9196 20.3673 39.9145 20.3724C39.8263 20.4606 39.7373 20.5492 39.6474 20.6383C39.6432 20.6425 39.6402 20.6475 39.6385 20.6534C39.6335 20.6769 39.6402 20.6795 39.6587 20.661Z" fill="#0F5CB5"/>
<path d="M40.7967 20.3021C40.7664 20.3063 40.7362 20.3051 40.7059 20.2984C40.6202 20.279 40.6215 20.2689 40.7097 20.2681C40.9895 20.2643 41.2264 20.5365 41.3663 20.7457C41.3705 20.7508 41.3718 20.7567 41.3701 20.7634C41.3684 20.7752 41.3642 20.776 41.3575 20.7659C41.2407 20.5861 41.0895 20.4391 40.9038 20.3248C40.8702 20.3047 40.8345 20.2971 40.7967 20.3021Z" fill="#0F5CB5"/>
<path d="M39.9468 20.3704C39.85 20.4672 39.752 20.5627 39.6565 20.6607C39.6381 20.6792 39.6314 20.6767 39.6364 20.6532C39.6381 20.6473 39.641 20.6423 39.6452 20.6381C39.7348 20.5493 39.8237 20.4609 39.9116 20.3729C39.9167 20.3679 39.9229 20.3645 39.9305 20.3629C39.9347 20.3612 39.9389 20.3604 39.9431 20.3604C39.9523 20.3604 39.9535 20.3637 39.9468 20.3704Z" fill="#0F5CB5"/>
<path d="M26.3617 28.291C26.6473 29.6823 27.5114 30.6725 28.954 31.2615C28.029 31.3236 27.1741 31.3379 26.3894 31.3043C25.6017 31.2703 25.3207 30.746 25.3408 30.0151C25.3568 29.4538 25.3572 28.9069 25.3421 28.3742C25.3404 28.3213 25.3661 28.2948 25.419 28.2948L26.3617 28.291Z" fill="#0F5CB5"/>
<path d="M26.3613 28.291L55.5428 28.2923C55.5556 28.2923 55.5679 28.2971 55.5771 28.3058C55.5863 28.3146 55.5916 28.3264 55.5919 28.3389C55.6012 28.9892 55.6007 29.6105 55.5907 30.2028C55.5823 30.7153 55.4037 31.0476 55.055 31.1997C54.8828 31.2753 54.5656 31.3131 54.1035 31.3131C45.8841 31.3131 37.6646 31.3131 29.4452 31.3131C29.2755 31.3131 29.1116 31.2959 28.9537 31.2615C27.5111 30.6725 26.647 29.6823 26.3613 28.291Z" fill="white"/>
<path d="M69.7201 32.1202L69.7238 33.4397C69.5701 34.0094 69.2395 34.3051 68.732 34.3269C68.3401 34.3446 67.9519 34.1215 67.7982 33.7674C67.6381 33.4007 67.6759 32.8058 67.6986 32.4063C67.7356 31.7216 68.0485 31.3557 68.6375 31.3086C69.1416 31.2683 69.5024 31.5388 69.7201 32.1202Z" fill="#0F5CB5"/>
<path d="M29.3757 33.3369C29.3841 36.0255 29.3866 38.7115 29.3832 41.395C29.3824 41.968 29.718 42.3171 30.3902 42.4423L30.3813 43.3346C30.3813 43.3858 30.3557 43.4115 30.3045 43.4115H28.438C28.4213 43.4115 28.4053 43.4048 28.3935 43.393C28.3816 43.3812 28.375 43.3652 28.375 43.3485V33.4163C28.375 33.3676 28.3994 33.3432 28.4481 33.3432L29.3757 33.3369Z" fill="#0F5CB5"/>
<path d="M29.377 33.3363L30.3121 33.3325C30.365 33.3317 30.3915 33.3577 30.3915 33.4107V42.4417C29.7193 42.3165 29.3837 41.9675 29.3845 41.3945C29.3879 38.7109 29.3854 36.0249 29.377 33.3363Z" fill="white"/>
<path d="M37.3857 33.3286H32.4757C32.4395 33.3286 32.4102 33.358 32.4102 33.3941V43.3452C32.4102 43.3814 32.4395 43.4107 32.4757 43.4107H37.3857C37.4219 43.4107 37.4512 43.3814 37.4512 43.3452V33.3941C37.4512 33.358 37.4219 33.3286 37.3857 33.3286Z" fill="white"/>
<path d="M40.4693 33.3379C40.4726 35.8752 40.4743 38.4117 40.4743 40.9474C40.4743 41.4044 40.5184 41.7153 40.6066 41.88C40.7663 42.1757 41.0574 42.3626 41.48 42.4408L41.4712 43.3331C41.4712 43.3843 41.4456 43.4099 41.3943 43.4099H39.5279C39.5111 43.4099 39.4951 43.4033 39.4833 43.3915C39.4715 43.3797 39.4648 43.3636 39.4648 43.3469V33.4198C39.4648 33.3761 39.4867 33.3539 39.5304 33.353L40.4693 33.3379Z" fill="#0F5CB5"/>
<path d="M40.4688 33.3383L41.424 33.3345C41.4313 33.3343 41.4384 33.3356 41.4452 33.3382C41.4519 33.3409 41.458 33.3449 41.4632 33.3499C41.4683 33.355 41.4724 33.361 41.4752 33.3676C41.478 33.3743 41.4795 33.3815 41.4795 33.3887V42.4412C41.0569 42.363 40.7658 42.1761 40.6061 41.8803C40.5179 41.7157 40.4738 41.4048 40.4738 40.9477C40.4738 38.4121 40.4721 35.8756 40.4688 33.3383Z" fill="white"/>
<path d="M48.4736 33.3286H43.5636C43.5274 33.3286 43.498 33.358 43.498 33.3941V43.3452C43.498 43.3814 43.5274 43.4107 43.5636 43.4107H48.4736C48.5098 43.4107 48.5391 43.3814 48.5391 43.3452V33.3941C48.5391 33.358 48.5098 33.3286 48.4736 33.3286Z" fill="white"/>
<path d="M51.5591 33.3369C51.5625 35.8768 51.5642 38.4141 51.5642 40.9489C51.5642 41.406 51.6083 41.7168 51.6965 41.8815C51.8561 42.1772 52.1472 42.3642 52.5698 42.4423L52.561 43.3346C52.561 43.3858 52.535 43.4115 52.4829 43.4115H50.6177C50.601 43.4115 50.585 43.4048 50.5731 43.393C50.5613 43.3812 50.5547 43.3652 50.5547 43.3485V33.4163C50.5547 33.3684 50.5786 33.3441 50.6265 33.3432L51.5591 33.3369Z" fill="#0F5CB5"/>
<path d="M51.5605 33.337L52.5083 33.3345C52.5503 33.3345 52.5713 33.3555 52.5713 33.3975V42.4424C52.1487 42.3643 51.8575 42.1773 51.6979 41.8816C51.6097 41.7169 51.5656 41.406 51.5656 40.949C51.5656 38.4142 51.5639 35.8768 51.5605 33.337Z" fill="white"/>
<path d="M25.3224 45.4298C25.335 45.6079 25.3472 45.7827 25.359 45.9541C25.4018 46.5918 25.7181 47.1148 26.3281 47.3403C26.518 47.4101 26.8864 47.4449 27.4333 47.4449C37.4911 47.4433 47.5497 47.4441 57.6091 47.4475V48.3927C57.6091 48.433 57.589 48.4532 57.5486 48.4532H23.398C23.3526 48.4532 23.3303 48.4305 23.3312 48.3851C23.3404 47.8524 23.3383 47.2895 23.3249 46.6964C23.3135 46.1872 23.4446 45.7234 23.9437 45.518C24.3028 45.3706 24.8889 45.4273 25.3224 45.4298Z" fill="#0F5CB5"/>
<path d="M25.3184 45.4302C35.666 45.4269 46.0127 45.4277 56.3587 45.4328C56.6569 45.4328 56.8766 45.4638 57.0178 45.526C57.5282 45.7503 57.6089 46.1751 57.6101 46.7308C57.6101 46.9921 57.6084 47.2312 57.6051 47.4479C47.5457 47.4446 37.4871 47.4437 27.4293 47.4454C26.8823 47.4454 26.5139 47.4105 26.3241 47.3408C25.7141 47.1152 25.3978 46.5922 25.3549 45.9545C25.3431 45.7831 25.331 45.6084 25.3184 45.4302Z" fill="white"/>
<path d="M48.1509 62.5679H32.7958C32.7894 62.568 32.783 62.5665 32.7772 62.5637C32.7714 62.5608 32.7663 62.5567 32.7624 62.5515C32.7585 62.5464 32.7558 62.5404 32.7546 62.5341C32.7534 62.5277 32.7537 62.5212 32.7555 62.515L34.1632 57.5571C34.1657 57.5483 34.171 57.5406 34.1783 57.5352C34.1855 57.5297 34.1944 57.5268 34.2035 57.5269H46.7432C46.7523 57.5268 46.7611 57.5297 46.7684 57.5352C46.7757 57.5406 46.781 57.5483 46.7835 57.5571L48.1912 62.515C48.193 62.5212 48.1933 62.5277 48.1921 62.5341C48.1909 62.5404 48.1882 62.5464 48.1843 62.5515C48.1804 62.5567 48.1753 62.5608 48.1695 62.5637C48.1637 62.5665 48.1573 62.568 48.1509 62.5679Z" fill="#0F5CB5"/>
<path d="M53.2766 67.0786C53.3438 67.2273 53.3938 67.3764 53.4266 67.526C53.4383 67.5814 53.4156 67.6092 53.3585 67.6092H27.5798C27.5252 67.6092 27.5054 67.5831 27.5205 67.531C28.0373 65.7049 29.6391 64.582 31.5383 64.5833C37.1591 64.5883 42.9928 64.5858 49.0396 64.5757C49.747 64.5749 50.3024 64.6362 50.7056 64.7597C51.8852 65.1226 52.7422 65.8956 53.2766 67.0786Z" fill="#0F5CB5"/>
</svg>
