<svg width="90" height="90" viewBox="0 0 90 90" fill="none" xmlns="http://www.w3.org/2000/svg">
<rect opacity="0.4" width="89.0642" height="89.0642" rx="7.12514" fill="#B8EAFF"/>
<path d="M21.7622 20.4401C27.5927 19.8074 31.5575 22.6024 31.6229 22.6467C32.1436 23.025 32.2557 23.7512 31.8774 24.2695C31.5015 24.7926 30.7659 24.9093 30.2499 24.5334C29.9884 24.3443 25.1596 21.0169 18.3717 23.6391C16.3987 25.0821 14.1197 27.6156 13.7508 31.6295C14.2995 33.5278 15.1144 35.1367 16.2212 36.4279C18.7687 39.4051 21.8836 39.6012 21.9139 39.6012C22.5561 39.6362 23.0511 40.1849 23.0184 40.8271C22.9857 41.4528 22.472 41.9362 21.8532 41.9362C21.8322 41.9362 21.8112 41.9362 21.7925 41.9339C21.6244 41.9245 17.6409 41.677 14.4466 37.9457C14.1057 37.5487 13.7998 37.1167 13.5032 36.6731C11.738 39.391 6.48189 49.1747 13.8138 60.1516C16.2072 62.2134 20.0296 64.5647 24.9308 64.4363C25.5565 64.3616 26.1146 64.9173 26.138 65.5618C26.159 66.2062 25.6546 66.7456 25.0102 66.769C24.8163 66.776 24.6202 66.7783 24.4264 66.7783C21.0313 66.7783 18.1452 65.7603 15.8126 64.448C15.99 67.8921 17.4354 75.677 26.7824 77.3255C26.7824 77.3255 36.5147 85.6545 43.5337 73.9585V29.3295C39.9565 32.0404 35.7442 33.1612 35.4943 33.2243C35.3962 33.2523 35.2982 33.2617 35.2024 33.2617C34.6817 33.2617 34.2077 32.9161 34.0746 32.386C33.9135 31.7626 34.2871 31.1275 34.9106 30.9663C34.9736 30.95 40.2064 29.556 43.5337 26.2566V10.8596C43.5291 10.8596 27.6744 1.62934 21.7622 20.4401ZM34.056 41.7634C34.07 41.9899 34.2194 45.6815 31.2423 49.8192C32.0525 51.47 33.8738 55.9065 32.8838 60.9338C32.774 61.4895 32.286 61.8771 31.742 61.8771C31.6672 61.8771 31.5902 61.8678 31.5131 61.8538C30.8804 61.7277 30.4694 61.1159 30.5931 60.4808C31.2936 56.9223 30.3129 53.6392 29.5657 51.8039C28.2161 53.2026 26.4859 54.5966 24.2022 55.8762C24.0201 55.9789 23.824 56.0233 23.6302 56.0233C23.2215 56.0233 22.8246 55.8085 22.6121 55.4279C22.2945 54.8651 22.4953 54.1529 23.0557 53.8377C25.7644 52.3176 27.6207 50.6411 28.9026 49.0346C28.933 48.9926 28.9656 48.9622 29.0007 48.9225C31.8377 45.3033 31.7326 42.0833 31.7233 41.8895C31.6906 41.2497 32.1833 40.6986 32.8254 40.666C33.4535 40.6426 34.0186 41.1213 34.056 41.7634Z" fill="#25BBA4"/>
<path d="M65.7902 56.1334C67.9104 56.7381 71.7165 58.2115 74.6679 61.3638C84.7178 47.9282 75.3567 35.9052 75.3567 35.9052C77.4839 26.1356 69.5029 22.5817 68.2653 22.0913C62.4161 24.6855 61.4845 29.8436 61.4378 30.1308C61.342 30.7028 60.847 31.1115 60.2843 31.1115C60.2259 31.1115 60.1628 31.1068 60.1021 31.0975C59.467 30.9971 59.0327 30.404 59.1308 29.7688C59.1448 29.6824 60.2983 23.0744 67.4621 19.9291C61.4284 1.79548 45.8633 10.8576 45.8633 10.8576V18.7429C47.8294 16.8586 50.594 15.063 54.0124 15.063C54.6569 15.063 55.1823 15.5884 55.1823 16.2305C55.1823 16.8749 54.6592 17.398 54.0148 17.398C50.3091 17.398 47.4301 20.2303 45.8633 22.2151V59.6592C47.7453 57.4783 50.3161 55.4539 53.7486 54.6506C54.4001 54.5082 55.0048 54.8958 55.1543 55.5216C55.3014 56.1497 54.9114 56.7755 54.2833 56.9249C50.2157 57.8753 47.5025 60.9808 45.8656 63.6124V73.9565C51.3949 83.1727 58.5891 79.9621 61.4004 78.1852C58.2878 76.2097 56.7211 73.0481 56.0719 71.3296C55.8431 70.7272 56.1466 70.0523 56.7514 69.8235C57.3492 69.5947 58.0263 69.9006 58.2575 70.503C58.8926 72.1865 60.6088 75.5326 64.2047 76.9383C72.8349 74.5192 73.6008 66.3327 73.6101 63.6614C71.1444 60.5722 67.6045 59.0755 65.1504 58.375C64.5316 58.1975 64.1721 57.5507 64.3495 56.9319C64.5223 56.3178 65.1621 55.9582 65.7902 56.1334ZM61.9678 44.3042C58.6077 45.4064 55.6399 45.5535 55.3901 45.5628C55.3738 45.5651 55.3574 45.5651 55.3434 45.5651C54.7176 45.5651 54.2016 45.0725 54.1782 44.4443C54.1525 43.8022 54.6522 43.2582 55.2967 43.2301C55.4088 43.2255 66.5164 42.6954 69.1339 35.5036C69.3558 34.8988 70.0236 34.5906 70.6307 34.8054C71.2378 35.0273 71.5507 35.6974 71.3288 36.3022C70.0142 39.9144 67.1165 42.107 64.1487 43.4543C64.7231 44.5798 65.9513 46.3053 68.1999 46.5202C68.8421 46.5809 69.3137 47.1529 69.2507 47.7951C69.1923 48.3975 68.6833 48.8482 68.0902 48.8482C68.0505 48.8482 68.0155 48.8482 67.9758 48.8435C64.4943 48.5096 62.7243 45.8664 61.9678 44.3042Z" fill="#25BBA4"/>
</svg>
