<svg width="104" height="104" viewBox="0 0 104 104" fill="none" xmlns="http://www.w3.org/2000/svg">
<rect x="0.179688" y="0.239258" width="102.969" height="102.969" rx="10.2969" fill="#0FB5B5" fill-opacity="0.14"/>
<path d="M93.1541 13.4785H24.6288C23.8068 13.4807 23.0192 13.8089 22.4388 14.391C21.8584 14.9731 21.5326 15.7616 21.5329 16.5836V82.2811C21.5309 83.9521 20.8663 85.554 19.6847 86.7356C18.5032 87.9172 16.9012 88.5818 15.2302 88.5838C15.0464 88.5838 14.8701 88.6568 14.7401 88.7868C14.6101 88.9167 14.5371 89.093 14.5371 89.2769C14.5371 89.4607 14.6101 89.637 14.7401 89.767C14.8701 89.8969 15.0464 89.97 15.2302 89.97H88.1637C90.3067 89.9697 92.3619 89.119 93.878 87.6046C95.3942 86.0901 96.2473 84.0359 96.25 81.893V16.5836C96.2502 15.7616 95.9244 14.9731 95.3441 14.391C94.7637 13.8089 93.9761 13.4807 93.1541 13.4785ZM27.928 20.9271C27.9292 20.7437 28.0026 20.5681 28.1323 20.4384C28.262 20.3086 28.4376 20.2352 28.6211 20.234H89.1618C89.2529 20.2339 89.343 20.2517 89.4272 20.2865C89.5113 20.3213 89.5878 20.3724 89.6522 20.4367C89.7166 20.5011 89.7676 20.5776 89.8024 20.6617C89.8372 20.7459 89.855 20.8361 89.8549 20.9271V39.4008C89.8558 39.492 89.8384 39.5826 89.8039 39.667C89.7694 39.7515 89.7184 39.8283 89.6538 39.8928C89.5893 39.9573 89.5125 40.0084 89.4281 40.0429C89.3436 40.0774 89.2531 40.0947 89.1618 40.0939H28.6211C28.53 40.094 28.4398 40.0762 28.3557 40.0414C28.2715 40.0066 28.1951 39.9555 28.1307 39.8912C28.0663 39.8268 28.0153 39.7503 27.9805 39.6662C27.9457 39.582 27.9278 39.4918 27.928 39.4008V20.9271ZM52.5841 82.965C52.5843 83.056 52.5664 83.1462 52.5316 83.2303C52.4968 83.3145 52.4458 83.391 52.3814 83.4553C52.317 83.5197 52.2406 83.5708 52.1564 83.6056C52.0723 83.6403 51.9821 83.6582 51.891 83.6581H28.6211C28.5298 83.6589 28.4393 83.6416 28.3548 83.6071C28.2703 83.5725 28.1936 83.5215 28.129 83.457C28.0645 83.3924 28.0135 83.3157 27.979 83.2312C27.9444 83.1467 27.9271 83.0562 27.928 82.965V64.2972C27.9278 64.2062 27.9457 64.116 27.9805 64.0319C28.0153 63.9477 28.0663 63.8713 28.1307 63.8069C28.1951 63.7425 28.2715 63.6914 28.3557 63.6566C28.4398 63.6218 28.53 63.604 28.6211 63.6041H51.891C52.0745 63.6053 52.2501 63.6788 52.3798 63.8085C52.5095 63.9382 52.5829 64.1138 52.5841 64.2972V82.965ZM89.1627 83.6645H56.4304C56.2466 83.6645 56.0703 83.5915 55.9403 83.4615C55.8104 83.3316 55.7373 83.1553 55.7373 82.9714C55.7373 82.7876 55.8104 82.6113 55.9403 82.4813C56.0703 82.3513 56.2466 82.2783 56.4304 82.2783H89.1627C89.3465 82.2783 89.5228 82.3513 89.6528 82.4813C89.7828 82.6113 89.8558 82.7876 89.8558 82.9714C89.8558 83.1553 89.7828 83.3316 89.6528 83.4615C89.5228 83.5915 89.3465 83.6645 89.1627 83.6645ZM89.1627 77.4404H56.4304C56.2466 77.4404 56.0703 77.3674 55.9403 77.2374C55.8104 77.1074 55.7373 76.9311 55.7373 76.7473C55.7373 76.5635 55.8104 76.3872 55.9403 76.2572C56.0703 76.1272 56.2466 76.0542 56.4304 76.0542H89.1627C89.3465 76.0542 89.5228 76.1272 89.6528 76.2572C89.7828 76.3872 89.8558 76.5635 89.8558 76.7473C89.8558 76.9311 89.7828 77.1074 89.6528 77.2374C89.5228 77.3674 89.3465 77.4404 89.1627 77.4404ZM89.1627 71.2163H56.4304C56.2466 71.2163 56.0703 71.1433 55.9403 71.0133C55.8104 70.8833 55.7373 70.707 55.7373 70.5232C55.7373 70.3394 55.8104 70.1631 55.9403 70.0331C56.0703 69.9031 56.2466 69.8301 56.4304 69.8301H89.1627C89.3465 69.8301 89.5228 69.9031 89.6528 70.0331C89.7828 70.1631 89.8558 70.3394 89.8558 70.5232C89.8558 70.707 89.7828 70.8833 89.6528 71.0133C89.5228 71.1433 89.3465 71.2163 89.1627 71.2163ZM89.1627 64.9922H56.4304C56.2466 64.9922 56.0703 64.9192 55.9403 64.7892C55.8104 64.6592 55.7373 64.4829 55.7373 64.2991C55.7373 64.1153 55.8104 63.939 55.9403 63.809C56.0703 63.679 56.2466 63.606 56.4304 63.606H89.1627C89.3465 63.606 89.5228 63.679 89.6528 63.809C89.7828 63.939 89.8558 64.1153 89.8558 64.2991C89.8558 64.4829 89.7828 64.6592 89.6528 64.7892C89.5228 64.9192 89.3465 64.9922 89.1627 64.9922ZM89.1627 58.7681H28.6202C28.4363 58.7681 28.26 58.6951 28.13 58.5651C28.0001 58.4351 27.927 58.2588 27.927 58.075C27.927 57.8911 28.0001 57.7148 28.13 57.5849C28.26 57.4549 28.4363 57.3819 28.6202 57.3819H89.1627C89.3465 57.3819 89.5228 57.4549 89.6528 57.5849C89.7828 57.7148 89.8558 57.8911 89.8558 58.075C89.8558 58.2588 89.7828 58.4351 89.6528 58.5651C89.5228 58.6951 89.3465 58.7681 89.1627 58.7681ZM89.1627 52.544H28.6202C28.4363 52.544 28.26 52.4709 28.13 52.341C28.0001 52.211 27.927 52.0347 27.927 51.8509C27.927 51.667 28.0001 51.4907 28.13 51.3608C28.26 51.2308 28.4363 51.1577 28.6202 51.1577H89.1627C89.3465 51.1577 89.5228 51.2308 89.6528 51.3608C89.7828 51.4907 89.8558 51.667 89.8558 51.8509C89.8558 52.0347 89.7828 52.211 89.6528 52.341C89.5228 52.4709 89.3465 52.544 89.1627 52.544ZM89.1627 46.3189H28.6202C28.4363 46.3189 28.26 46.2459 28.13 46.1159C28.0001 45.9859 27.927 45.8096 27.927 45.6258C27.927 45.442 28.0001 45.2657 28.13 45.1357C28.26 45.0057 28.4363 44.9327 28.6202 44.9327H89.1627C89.3465 44.9327 89.5228 45.0057 89.6528 45.1357C89.7828 45.2657 89.8558 45.442 89.8558 45.6258C89.8558 45.8096 89.7828 45.9859 89.6528 46.1159C89.5228 46.2459 89.3465 46.3189 89.1627 46.3189Z" fill="#25BBA4"/>
<path d="M20.1484 41.0552V82.2813C20.1459 83.5844 19.6272 84.8335 18.7057 85.755C17.7842 86.6765 16.5351 87.1953 15.2319 87.1977C14.6807 87.1985 14.1522 87.4178 13.7624 87.8075C13.3726 88.1973 13.1533 88.7258 13.1526 89.2771C13.1538 89.4199 13.1693 89.5624 13.1988 89.7022C11.5483 89.2207 10.1008 88.212 9.07781 86.8301C8.05479 85.4483 7.51248 83.7694 7.53381 82.0502V45.1214C7.53747 44.0425 7.96832 43.009 8.7321 42.2469C9.49587 41.4849 10.5304 41.0564 11.6093 41.0552H20.1484Z" fill="#25BBA4"/>
</svg>
