<svg width="44" height="44" viewBox="0 0 44 44" fill="none" xmlns="http://www.w3.org/2000/svg">
<g clip-path="url(#clip0_1724_24151)">
<path d="M7.76302 23.6131H13.6832C14.2792 23.6131 14.7619 23.1303 14.7619 22.5344C14.7619 21.9384 14.2792 21.4557 13.6832 21.4557H7.75672C7.57874 20.8372 7.25514 20.2808 6.82366 19.8269L10.8696 12.8181C11.1672 12.3021 10.991 11.6423 10.475 11.3448C9.95904 11.0473 9.29924 11.2235 9.00171 11.7394L4.97012 18.723C4.64652 18.6367 4.30673 18.5909 3.95616 18.5909C1.77541 18.5909 0.000976562 20.3653 0.000976562 22.5461C0.000976562 24.7268 1.77541 26.5012 3.95616 26.5012C5.76745 26.5012 7.29649 25.2769 7.76392 23.6131H7.76302ZM3.95526 24.3439C2.96377 24.3439 2.15745 23.5375 2.15745 22.5461C2.15745 21.5546 2.96377 20.7482 3.95526 20.7482C4.94675 20.7482 5.75307 21.5546 5.75307 22.5461C5.75307 23.5375 4.94675 24.3439 3.95526 24.3439Z" fill="#646464"/>
<path d="M39.9358 18.5913C38.1326 18.5913 36.609 19.8039 36.1343 21.4561H30.2222C29.6263 21.4561 29.1436 21.9388 29.1436 22.5348C29.1436 23.1308 29.6263 23.6135 30.2222 23.6135H36.128C36.3087 24.2553 36.6467 24.8315 37.0989 25.298L33.0583 32.2942C32.7607 32.8102 32.9369 33.47 33.4529 33.7675C33.6228 33.8655 33.808 33.9122 33.9913 33.9122C34.3644 33.9122 34.7267 33.719 34.9262 33.3729L38.9641 26.3803C39.2751 26.4594 39.6005 26.5017 39.9349 26.5017C42.1156 26.5017 43.8901 24.7272 43.8901 22.5465C43.8901 20.3657 42.1156 18.5913 39.9349 18.5913H39.9358ZM39.9358 24.3443C38.9443 24.3443 38.138 23.538 38.138 22.5465C38.138 21.555 38.9443 20.7487 39.9358 20.7487C40.9273 20.7487 41.7336 21.555 41.7336 22.5465C41.7336 23.538 40.9273 24.3443 39.9358 24.3443Z" fill="#646464"/>
<path d="M25.1475 14.8308C24.85 15.3468 25.0262 16.0066 25.5422 16.3041C25.7121 16.4021 25.8972 16.4489 26.0806 16.4489C26.4536 16.4489 26.8159 16.2556 27.0155 15.9095L29.9666 10.7975C30.2848 10.8775 30.6075 10.9179 30.9293 10.9179C31.2511 10.9179 31.5693 10.8775 31.8794 10.801L35.9236 17.8053C36.1232 18.1514 36.4863 18.3447 36.8585 18.3447C37.0418 18.3447 37.227 18.2979 37.3969 18.1999C37.9129 17.9024 38.09 17.2426 37.7915 16.7266L33.7572 9.73854C33.9883 9.50483 34.1941 9.23965 34.3658 8.94211C35.4562 7.05352 34.8072 4.63007 32.9177 3.5397C32.0026 3.01114 30.9374 2.87091 29.9162 3.14418C28.896 3.41745 28.0429 4.07185 27.5144 4.98693C26.6119 6.55013 26.9022 8.47918 28.0986 9.71517L25.1457 14.8299L25.1475 14.8308ZM29.3841 6.06562C29.6241 5.64943 30.0115 5.35189 30.4753 5.22784C30.9392 5.10379 31.4237 5.16761 31.8399 5.40762C32.6983 5.90292 32.9932 7.00497 32.4979 7.86343C32.0062 8.71469 30.9104 9.01313 30.0556 8.52952L30.0421 8.52143C29.1836 8.02613 28.8888 6.92407 29.3841 6.06562Z" fill="#646464"/>
<path d="M15.7847 35.3645L18.7493 30.2308C19.0469 29.7149 18.8707 29.0551 18.3547 28.7575C17.8387 28.46 17.1789 28.6362 16.8814 29.1522L13.9159 34.2894C13.2957 34.133 12.6431 34.1303 12.0066 34.2876L7.96606 27.2896C7.66852 26.7737 7.00873 26.5966 6.49275 26.895C5.97678 27.1925 5.7997 27.8523 6.09814 28.3683L10.1315 35.3537C9.9005 35.5892 9.69735 35.8553 9.52835 36.1492C8.9998 37.0643 8.85957 38.1304 9.13284 39.1507C9.4061 40.1709 10.0605 41.024 10.9756 41.5525C11.585 41.904 12.261 42.0838 12.9469 42.0838C13.2903 42.0838 13.6363 42.0389 13.977 41.9472C14.9973 41.6739 15.8503 41.0195 16.3789 40.1044C16.9075 39.1893 17.0477 38.1232 16.7744 37.103C16.5964 36.4378 16.2558 35.8445 15.7865 35.3654L15.7847 35.3645ZM14.5092 39.0248C14.2692 39.441 13.8817 39.7386 13.4179 39.8626C12.9541 39.9867 12.4696 39.9228 12.0534 39.6828C11.6372 39.4428 11.3396 39.0554 11.2156 38.5916C11.0915 38.1277 11.1554 37.6432 11.3954 37.227C11.6354 36.8108 12.0228 36.5133 12.4866 36.3892C12.9505 36.2652 13.435 36.329 13.8512 36.569C14.2674 36.809 14.5649 37.1965 14.689 37.6603C14.813 38.1241 14.7492 38.6086 14.5092 39.0248Z" fill="#646464"/>
<path d="M31.9653 34.3039C31.3047 34.1269 30.6242 34.1242 29.9788 34.2878L27.0169 29.1568C26.7193 28.6408 26.0595 28.4638 25.5436 28.7622C25.0276 29.0597 24.8505 29.7195 25.149 30.2355L28.1099 35.3637C27.6434 35.8411 27.3036 36.4316 27.1247 37.0932H19.067C18.471 37.0932 17.9883 37.576 17.9883 38.1719C17.9883 38.7679 18.471 39.2506 19.067 39.2506H27.1508C27.2389 39.5446 27.3603 39.8295 27.5176 40.1019C28.0461 41.017 28.8983 41.6714 29.9194 41.9446C30.2601 42.0363 30.6062 42.0813 30.9496 42.0813C31.6346 42.0813 32.3114 41.9015 32.9209 41.55C34.8095 40.4596 35.4594 38.0362 34.3681 36.1467C33.8396 35.2316 32.9874 34.5772 31.9662 34.3039H31.9653ZM31.8404 39.6812C31.4242 39.9212 30.9397 39.985 30.4759 39.861C30.012 39.7369 29.6246 39.4394 29.3846 39.0232C29.1446 38.607 29.0808 38.1225 29.2048 37.6587C29.3289 37.1948 29.6264 36.8074 30.0426 36.5674C30.3195 36.4074 30.6269 36.3256 30.9388 36.3256C31.0952 36.3256 31.2525 36.3463 31.4071 36.3876C31.871 36.5117 32.2584 36.8092 32.4984 37.2254C32.9937 38.0838 32.6989 39.1859 31.8404 39.6812Z" fill="#646464"/>
<path d="M11.9269 10.7854C12.2676 10.8771 12.6137 10.9221 12.9571 10.9221C13.3004 10.9221 13.6088 10.8798 13.9252 10.7989L16.8799 15.9164C17.0794 16.2625 17.4426 16.4557 17.8147 16.4557C17.9981 16.4557 18.1833 16.409 18.3532 16.311C18.8692 16.0135 19.0462 15.3537 18.7478 14.8377L15.7904 9.71664C16.2498 9.24112 16.5761 8.66492 16.7522 8.04557H24.8289C25.4249 8.04557 25.9076 7.56286 25.9076 6.96689C25.9076 6.37091 25.4249 5.8882 24.8289 5.8882H16.7558C16.6686 5.57988 16.5428 5.27785 16.3756 4.9884C15.847 4.07331 14.9949 3.41891 13.9737 3.14564C12.9535 2.87238 11.8874 3.01261 10.9723 3.54116C10.0572 4.06972 9.4028 4.92188 9.12953 5.94304C8.85626 6.96329 8.99649 8.02939 9.52505 8.94448C10.0536 9.85956 10.9058 10.514 11.9269 10.7872V10.7854ZM11.2141 6.49946C11.3381 6.03562 11.6357 5.64819 12.0519 5.40819C12.3287 5.24818 12.6362 5.16638 12.9481 5.16638C13.1045 5.16638 13.2618 5.18706 13.4164 5.22841C13.8802 5.35246 14.2677 5.64999 14.5077 6.06619C15.003 6.92464 14.7081 8.0267 13.8497 8.52199C13.4335 8.762 12.949 8.82582 12.4851 8.70177C12.0213 8.57772 11.6339 8.28019 11.3939 7.86399C11.1539 7.4478 11.09 6.96329 11.2141 6.49946Z" fill="#646464"/>
<path d="M25.617 18.0995C25.0453 17.6257 24.3801 17.2608 23.6538 17.037C23.1163 16.8707 22.5446 16.7808 21.9522 16.7808C18.7755 16.7808 16.1992 19.357 16.1992 22.5338C16.1992 23.1261 16.2891 23.6978 16.4554 24.2354C16.6819 24.968 17.0505 25.6377 17.5305 26.213C17.748 26.4754 17.9889 26.7173 18.2496 26.9366C18.8213 27.4184 19.4883 27.7905 20.2182 28.0198C20.7657 28.1933 21.3481 28.2867 21.9522 28.2867C25.1298 28.2867 27.7052 25.7114 27.7052 22.5338C27.7052 21.9297 27.6117 21.3472 27.4382 20.7998C27.2108 20.0761 26.8431 19.4146 26.3676 18.8455C26.1402 18.5741 25.8894 18.3242 25.617 18.0995ZM21.7464 18.9444L18.3629 22.3279C18.4654 20.5094 19.927 19.0478 21.7464 18.9444ZM19.7849 25.4004C19.5126 25.1945 19.2708 24.9509 19.0667 24.6767L24.0952 19.6483C24.3694 19.8523 24.6139 20.095 24.8197 20.3674L19.7849 25.4004ZM22.1122 26.1258L25.5442 22.6938C25.4624 24.55 23.9684 26.044 22.1122 26.1258Z" fill="#646464"/>
</g>
<defs>
<clipPath id="clip0_1724_24151">
<rect width="43.8899" height="43.8899" fill="white" transform="translate(0 0.0825195)"/>
</clipPath>
</defs>
</svg>
