<svg width="81" height="80" viewBox="0 0 81 80" fill="none" xmlns="http://www.w3.org/2000/svg">
<g clip-path="url(#clip0_1730_68120)">
<rect x="0.458008" y="0.171387" width="79.834" height="79.834" rx="17.195" fill="#E1F5FE" fill-opacity="0.6"/>
<g clip-path="url(#clip1_1730_68120)">
<path d="M76.6609 28.164C76.6609 28.164 62.1672 14.1713 43.001 13.6756C23.8347 13.1798 18.0582 22.5915 6.7575 28.907C-4.54315 35.2225 -8.2346 49.091 0.614678 58.5001C9.46396 67.9093 39.5201 61.5087 48.4479 62.7279C57.3756 63.947 75.1893 70.273 80.8468 57.5125C86.5043 44.752 82.3158 33.9838 76.6609 28.164Z" fill="#92E3A9"/>
<path opacity="0.7" d="M76.6609 28.164C76.6609 28.164 62.1672 14.1713 43.001 13.6756C23.8347 13.1798 18.0582 22.5915 6.7575 28.907C-4.54315 35.2225 -8.2346 49.091 0.614678 58.5001C9.46396 67.9093 39.5201 61.5087 48.4479 62.7279C57.3756 63.947 75.1893 70.273 80.8468 57.5125C86.5043 44.752 82.3158 33.9838 76.6609 28.164Z" fill="#D3DEE3"/>
<path d="M46.7617 44.312H30.0586V67.6223H46.7617V44.312Z" fill="#D4D4D4" stroke="#263238" stroke-width="1.22822" stroke-miterlimit="10"/>
<path d="M37.4941 47.4326H31.3447V56.1511H37.4941V47.4326Z" stroke="#263238" stroke-width="1.22822" stroke-miterlimit="10"/>
<path d="M45.1123 47.4326H38.9629V56.1511H45.1123V47.4326Z" stroke="#263238" stroke-width="1.22822" stroke-miterlimit="10"/>
<path d="M45.3062 57.5664H31.1055V67.6231H45.3062V57.5664Z" fill="#263238" stroke="#263238" stroke-width="1.22822" stroke-miterlimit="10"/>
<path d="M52.6368 37.4526H45.9707V67.6213H52.6368V37.4526Z" fill="#263238" stroke="#263238" stroke-width="1.22822" stroke-miterlimit="10"/>
<path d="M48.9203 28.9224H46.9229V35.6133H48.9203V28.9224Z" fill="#666666" stroke="#263238" stroke-width="1.22822" stroke-miterlimit="10"/>
<path d="M53.56 15.1924H35.8458C35.6052 15.1924 35.4102 15.3874 35.4102 15.628V29.7162C35.4102 29.9568 35.6052 30.1518 35.8458 30.1518H53.56C53.8006 30.1518 53.9956 29.9568 53.9956 29.7162V15.628C53.9956 15.3874 53.8006 15.1924 53.56 15.1924Z" fill="white" stroke="#263238" stroke-width="1.22822" stroke-miterlimit="10"/>
<path d="M53.1814 16.4556H36.2363V28.8916H53.1814V16.4556Z" fill="#263238" stroke="#263238" stroke-width="1.22822" stroke-miterlimit="10"/>
<path d="M41.5138 18.7322L41.4209 18.8931C43.6464 19.3811 45.9591 19.2992 48.1445 18.655L48.0556 18.5059C46.8505 18.8482 45.6037 19.0212 44.351 19.0199C43.398 19.0203 42.4473 18.9239 41.5138 18.7322Z" fill="#4F4F4F"/>
<path d="M48.7298 19.6312L48.5401 19.3042C47.1881 19.7418 45.7753 19.9625 44.3542 19.9582C43.2379 19.9622 42.1253 19.8304 41.0408 19.5658L40.7988 19.987C43.4183 20.6673 46.1818 20.5433 48.7298 19.6312Z" fill="#4F4F4F"/>
<path d="M50.6575 22.867L48.8667 19.8584C47.3771 20.4055 45.8021 20.6836 44.2151 20.6799C43.0149 20.6825 41.8195 20.5273 40.6597 20.2181L38.8389 23.3785C40.3406 23.8337 45.2263 24.9718 50.6575 22.867Z" fill="#4F4F4F"/>
<path d="M48.3945 19.0736L48.286 18.8892C47.0103 19.2765 45.6843 19.4722 44.3512 19.47C43.3207 19.4705 42.2933 19.3573 41.2876 19.1325L41.1738 19.33C43.5594 19.9013 46.0555 19.8126 48.3945 19.0736Z" fill="#4F4F4F"/>
<path d="M47.9188 18.2752L47.686 17.8828C47.686 17.8828 44.1541 19.1778 41.9395 17.9901L41.6504 18.4924C43.7281 18.9109 45.875 18.8365 47.9188 18.2752Z" fill="#4F4F4F"/>
<path d="M44.3305 26.6369C43.5455 26.6364 42.7614 26.5822 41.9838 26.4747C40.5158 26.2714 39.0767 25.8969 37.6958 25.3588L37.6514 25.4373C37.6514 25.4373 40.7542 27.8652 45.4215 27.3995C50.0888 26.9338 51.9776 25.0868 51.9776 25.0868L51.7461 24.6943C49.4911 25.99 46.9312 26.6606 44.3305 26.6369Z" fill="#4F4F4F"/>
<path d="M51.0884 23.598L50.7888 23.0957C48.626 23.9359 46.3253 24.3644 44.005 24.3593C42.2108 24.3668 40.4248 24.1162 38.702 23.615L38.3789 24.1762C40.1645 24.8904 45.4845 26.5412 51.0884 23.598Z" fill="#4F4F4F"/>
<path d="M42.0278 26.2171C44.5132 26.5572 48.1196 26.5049 51.6122 24.4734L51.2198 23.8193C49.0522 24.965 46.6366 25.5615 44.1848 25.5565C43.4725 25.5563 42.761 25.5078 42.0553 25.4113C40.7483 25.2345 39.4684 24.8962 38.2448 24.4041L37.8262 25.1314C39.1798 25.655 40.5899 26.0194 42.0278 26.2171Z" fill="#4F4F4F"/>
<path d="M46.6398 21.0244C46.6398 21.0244 45.0976 21.5215 44.3507 21.3972C43.6037 21.2729 41.9634 20.6751 41.117 21.1735C40.2707 21.6719 40.0222 22.3168 40.2458 23.2377C40.4695 24.1586 40.4695 24.4817 43.1315 25.1527C45.7935 25.8238 46.7144 25.9991 47.3854 25.7505C48.0565 25.502 48.8034 25.2273 49.103 24.2829C49.4025 23.3384 48.6791 21.8943 48.2069 21.596C47.7347 21.2978 47.4103 20.7994 46.6398 21.0244Z" fill="#263238" stroke="#263238" stroke-width="1.22822" stroke-miterlimit="10"/>
<path d="M42.0876 24.6309C42.0876 24.6309 41.5147 23.7597 41.7383 23.0612C41.962 22.3626 42.8084 21.9663 43.2557 22.0147C43.7031 22.0631 44.0275 22.7367 44.0275 22.8113C44.0275 22.8859 44.3506 22.7891 44.4003 22.9199L44.45 23.0507C44.45 23.0507 44.9484 23.4235 44.849 23.6472C44.7496 23.8709 44.4003 24.0959 44.5991 24.1456C44.798 24.1953 45.2532 23.5229 45.8929 23.4915C46.2999 23.4777 46.7074 23.4943 47.112 23.5412C47.112 23.5412 46.8138 22.721 46.9629 22.5222C47.112 22.3234 47.46 22.4477 47.4861 22.1481C47.5123 21.8485 47.2873 21.6249 47.4116 21.5019L47.5358 21.3711C47.5358 21.3711 48.5064 22.1416 48.4319 22.4176C48.3573 22.6936 48.1833 22.6413 47.9596 22.7904C47.736 22.9395 47.4364 22.9395 47.4613 23.1383C47.4861 23.3372 47.7608 23.6851 47.8851 23.7597C48.0094 23.8342 48.3822 24.1338 48.3822 24.5563C48.3822 24.9788 47.3121 25.4524 46.8648 25.6028C46.5149 25.7069 46.157 25.7817 45.7948 25.8265C45.7948 25.8265 42.8581 25.3778 42.0876 24.6309Z" fill="#4F4F4F"/>
<path d="M49.9814 17.52H52.0417" stroke="#92E3A9" stroke-width="1.22822" stroke-miterlimit="10"/>
<path d="M49.9814 18.0352H52.0417" stroke="#92E3A9" stroke-width="1.22822" stroke-miterlimit="10"/>
<path d="M49.9814 18.5488H52.0417" stroke="#92E3A9" stroke-width="1.22822" stroke-miterlimit="10"/>
<path d="M37.0459 17.52H39.1062" stroke="#92E3A9" stroke-width="1.22822" stroke-miterlimit="10"/>
<path d="M37.0459 18.0352H39.1062" stroke="#92E3A9" stroke-width="1.22822" stroke-miterlimit="10"/>
<path d="M37.0459 18.5488H39.1062" stroke="#92E3A9" stroke-width="1.22822" stroke-miterlimit="10"/>
<path d="M49.9814 27.1333H52.0417" stroke="#92E3A9" stroke-width="1.22822" stroke-miterlimit="10"/>
<path d="M49.9814 27.6499H52.0417" stroke="#92E3A9" stroke-width="1.22822" stroke-miterlimit="10"/>
<path d="M49.9814 28.1646H52.0417" stroke="#92E3A9" stroke-width="1.22822" stroke-miterlimit="10"/>
<path d="M33.4261 34.7462L28.3389 42.7099H49.6609L53.9841 35.9431C54.0912 35.7751 54.1513 35.5814 54.1579 35.3822C54.1645 35.1831 54.1175 34.9858 54.0218 34.8111C53.926 34.6363 53.7851 34.4905 53.6137 34.3889C53.4423 34.2873 53.2468 34.2336 53.0475 34.2334H34.3627C34.1761 34.2334 33.9925 34.2804 33.8288 34.37C33.6651 34.4596 33.5266 34.589 33.4261 34.7462Z" fill="#D4D4D4" stroke="#263238" stroke-width="1.22822" stroke-miterlimit="10"/>
<path d="M37.5983 33.332L33.139 40.3172C33.0668 40.4305 33.0263 40.5611 33.0219 40.6954C33.0175 40.8296 33.0492 40.9626 33.1138 41.0804C33.1784 41.1982 33.2734 41.2965 33.389 41.365C33.5046 41.4335 33.6364 41.4696 33.7708 41.4696H45.8393C45.965 41.4698 46.0886 41.4382 46.1988 41.3778C46.309 41.3175 46.4022 41.2303 46.4698 41.1243L50.9278 34.1456C51.0004 34.0325 51.0412 33.9019 51.0459 33.7676C51.0506 33.6333 51.0191 33.5002 50.9545 33.3823C50.89 33.2644 50.795 33.166 50.6793 33.0975C50.5637 33.0291 50.4317 32.993 50.2973 32.9932H38.2288C38.1038 32.9926 37.9806 33.0233 37.8705 33.0824C37.7604 33.1416 37.6668 33.2274 37.5983 33.332Z" fill="white" stroke="#263238" stroke-width="1.22822" stroke-miterlimit="10"/>
<path d="M38.4297 34.0606L34.8023 39.7338C34.7429 39.8265 34.7097 39.9336 34.7063 40.0437C34.703 40.1538 34.7296 40.2627 34.7833 40.3589C34.837 40.455 34.9158 40.5348 35.0113 40.5897C35.1069 40.6445 35.2155 40.6724 35.3256 40.6704H45.1363C45.2386 40.6705 45.3392 40.6448 45.4288 40.5956C45.5185 40.5464 45.5942 40.4754 45.6491 40.3891L49.2738 34.7159C49.3323 34.6239 49.3651 34.5178 49.3687 34.4088C49.3722 34.2998 49.3465 34.1918 49.2941 34.0962C49.2417 34.0005 49.1646 33.9206 49.0709 33.8649C48.9771 33.8092 48.8701 33.7796 48.7611 33.7793H38.9503C38.8468 33.7783 38.7448 33.8035 38.6537 33.8527C38.5626 33.9019 38.4856 33.9734 38.4297 34.0606Z" fill="white" stroke="#263238" stroke-width="1.22822" stroke-miterlimit="10"/>
<path d="M38.9438 33.7759C38.8414 33.7759 38.7407 33.8017 38.6508 33.8508C38.561 33.9 38.485 33.9709 38.4297 34.0571L34.8023 39.733C34.7429 39.8257 34.7097 39.9328 34.7063 40.0429C34.703 40.153 34.7296 40.2619 34.7833 40.358C34.837 40.4542 34.9158 40.534 35.0113 40.5888C35.1069 40.6437 35.2155 40.6716 35.3256 40.6696H42.1826L46.5752 33.7759H38.9438Z" fill="#263238" stroke="#263238" stroke-width="1.22822" stroke-miterlimit="10"/>
<path d="M38.3421 35.2197L37.8555 35.9797H39.7679L40.2532 35.2197H38.3421Z" fill="white" stroke="#263238" stroke-width="1.22822" stroke-miterlimit="10"/>
<path d="M40.6279 35.2197L40.1426 35.9797H42.0537L42.539 35.2197H40.6279Z" fill="white" stroke="#263238" stroke-width="1.22822" stroke-miterlimit="10"/>
<path d="M42.915 35.2197L42.4297 35.9797H44.3408L44.8261 35.2197H42.915Z" fill="white" stroke="#263238" stroke-width="1.22822" stroke-miterlimit="10"/>
<path d="M37.5752 36.3857L37.0898 37.1457H39.0023L39.4876 36.3857H37.5752Z" fill="white" stroke="#263238" stroke-width="1.22822" stroke-miterlimit="10"/>
<path d="M39.8652 36.3857L39.3799 37.1457H41.291L41.7763 36.3857H39.8652Z" fill="white" stroke="#263238" stroke-width="1.22822" stroke-miterlimit="10"/>
<path d="M42.1533 36.3857L41.668 37.1457H43.5791L44.0644 36.3857H42.1533Z" fill="white" stroke="#263238" stroke-width="1.22822" stroke-miterlimit="10"/>
<path d="M36.8144 37.5518L36.3291 38.3118H38.2415L38.7268 37.5518H36.8144Z" fill="white" stroke="#263238" stroke-width="1.22822" stroke-miterlimit="10"/>
<path d="M39.1048 37.5518L38.6182 38.3118H40.5306L41.0159 37.5518H39.1048Z" fill="white" stroke="#263238" stroke-width="1.22822" stroke-miterlimit="10"/>
<path d="M41.3876 37.5518L40.9023 38.3118H42.8135L43.2988 37.5518H41.3876Z" fill="white" stroke="#263238" stroke-width="1.22822" stroke-miterlimit="10"/>
<path d="M36.0507 38.7183L35.5654 39.4783H37.4779L37.9632 38.7183H36.0507Z" fill="white" stroke="#263238" stroke-width="1.22822" stroke-miterlimit="10"/>
<path d="M38.3421 38.7183L37.8555 39.4783H39.7679L40.2532 38.7183H38.3421Z" fill="white" stroke="#263238" stroke-width="1.22822" stroke-miterlimit="10"/>
<path d="M40.6279 38.7183L40.1426 39.4783H42.0537L42.539 38.7183H40.6279Z" fill="white" stroke="#263238" stroke-width="1.22822" stroke-miterlimit="10"/>
<path d="M24.9375 45.0333C24.9375 45.0333 25.8741 45.839 27.037 46.0052C28.1999 46.1713 42.9042 46.0052 42.9042 46.0052C43.9256 45.9711 44.935 45.7746 45.8945 45.4231C47.4721 44.8423 50.2963 42.765 50.2963 42.765L50.4271 41.3745L24.9375 45.0333Z" fill="#263238" stroke="#263238" stroke-width="1.22822" stroke-miterlimit="10"/>
<path d="M29.1022 41.3745L24.72 44.336C24.652 44.3815 24.6004 44.4476 24.5729 44.5247C24.5454 44.6018 24.5435 44.6857 24.5674 44.7639C24.5914 44.8422 24.6399 44.9106 24.7058 44.9592C24.7717 45.0077 24.8514 45.0337 24.9333 45.0333H42.2682C44.0565 45.0331 45.8039 44.4983 47.286 43.4976L50.4255 41.3745H29.1022Z" fill="#ADADAD" stroke="#263238" stroke-width="1.22822" stroke-miterlimit="10"/>
<path d="M31.0229 42.5178C31.3899 42.5178 31.6874 42.4059 31.6874 42.2679C31.6874 42.1299 31.3899 42.0181 31.0229 42.0181C30.6559 42.0181 30.3584 42.1299 30.3584 42.2679C30.3584 42.4059 30.6559 42.5178 31.0229 42.5178Z" fill="white" stroke="#263238" stroke-width="1.22822" stroke-miterlimit="10"/>
<path d="M33.5131 42.5178C33.8801 42.5178 34.1777 42.4059 34.1777 42.2679C34.1777 42.1299 33.8801 42.0181 33.5131 42.0181C33.1461 42.0181 32.8486 42.1299 32.8486 42.2679C32.8486 42.4059 33.1461 42.5178 33.5131 42.5178Z" fill="white" stroke="#263238" stroke-width="1.22822" stroke-miterlimit="10"/>
<path d="M29.7236 43.099C29.7236 43.2363 29.4266 43.3475 29.059 43.3475C28.6915 43.3475 28.3945 43.2363 28.3945 43.099C28.3945 42.9616 28.6928 42.8491 29.059 42.8491C29.4253 42.8491 29.7236 42.9616 29.7236 43.099Z" fill="white" stroke="#263238" stroke-width="1.22822" stroke-miterlimit="10"/>
<path d="M32.2148 43.099C32.2148 43.2363 31.9178 43.3475 31.5503 43.3475C31.1827 43.3475 30.8857 43.2363 30.8857 43.099C30.8857 42.9616 31.184 42.8491 31.5503 42.8491C31.9165 42.8491 32.2148 42.9616 32.2148 43.099Z" fill="white" stroke="#263238" stroke-width="1.22822" stroke-miterlimit="10"/>
<path d="M27.0971 44.1813C27.4641 44.1813 27.7616 44.0695 27.7616 43.9315C27.7616 43.7935 27.4641 43.6816 27.0971 43.6816C26.7301 43.6816 26.4326 43.7935 26.4326 43.9315C26.4326 44.0695 26.7301 44.1813 27.0971 44.1813Z" fill="white" stroke="#263238" stroke-width="1.22822" stroke-miterlimit="10"/>
<path d="M29.5883 44.1813C29.9553 44.1813 30.2529 44.0695 30.2529 43.9315C30.2529 43.7935 29.9553 43.6816 29.5883 43.6816C29.2213 43.6816 28.9238 43.7935 28.9238 43.9315C28.9238 44.0695 29.2213 44.1813 29.5883 44.1813Z" fill="white" stroke="#263238" stroke-width="1.22822" stroke-miterlimit="10"/>
<path d="M36.0073 42.5178C36.3743 42.5178 36.6718 42.4059 36.6718 42.2679C36.6718 42.1299 36.3743 42.0181 36.0073 42.0181C35.6403 42.0181 35.3428 42.1299 35.3428 42.2679C35.3428 42.4059 35.6403 42.5178 36.0073 42.5178Z" fill="white" stroke="#263238" stroke-width="1.22822" stroke-miterlimit="10"/>
<path d="M34.4433 43.099C34.4433 43.2363 34.1463 43.3475 33.7788 43.3475C33.4112 43.3475 33.1143 43.2363 33.1143 43.099C33.1143 42.9616 33.4125 42.8491 33.7788 42.8491C34.145 42.8491 34.4433 42.9616 34.4433 43.099Z" fill="white" stroke="#263238" stroke-width="1.22822" stroke-miterlimit="10"/>
<path d="M31.8374 44.1813C32.2044 44.1813 32.5019 44.0695 32.5019 43.9315C32.5019 43.7935 32.2044 43.6816 31.8374 43.6816C31.4704 43.6816 31.1729 43.7935 31.1729 43.9315C31.1729 44.0695 31.4704 44.1813 31.8374 44.1813Z" fill="white" stroke="#263238" stroke-width="1.22822" stroke-miterlimit="10"/>
<path d="M38.4995 42.5178C38.8665 42.5178 39.164 42.4059 39.164 42.2679C39.164 42.1299 38.8665 42.0181 38.4995 42.0181C38.1325 42.0181 37.835 42.1299 37.835 42.2679C37.835 42.4059 38.1325 42.5178 38.4995 42.5178Z" fill="white" stroke="#263238" stroke-width="1.22822" stroke-miterlimit="10"/>
<path d="M40.9926 42.5178C41.3596 42.5178 41.6572 42.4059 41.6572 42.2679C41.6572 42.1299 41.3596 42.0181 40.9926 42.0181C40.6256 42.0181 40.3281 42.1299 40.3281 42.2679C40.3281 42.4059 40.6256 42.5178 40.9926 42.5178Z" fill="white" stroke="#263238" stroke-width="1.22822" stroke-miterlimit="10"/>
<path d="M43.4809 42.5178C43.8479 42.5178 44.1454 42.4059 44.1454 42.2679C44.1454 42.1299 43.8479 42.0181 43.4809 42.0181C43.1139 42.0181 42.8164 42.1299 42.8164 42.2679C42.8164 42.4059 43.1139 42.5178 43.4809 42.5178Z" fill="white" stroke="#263238" stroke-width="1.22822" stroke-miterlimit="10"/>
<path d="M46.6406 42.2679C46.6406 42.4053 46.3436 42.5165 45.976 42.5165C45.6085 42.5165 45.3115 42.4053 45.3115 42.2679C45.3115 42.1306 45.6098 42.0181 45.976 42.0181C46.3423 42.0181 46.6406 42.1306 46.6406 42.2679Z" fill="white" stroke="#263238" stroke-width="1.22822" stroke-miterlimit="10"/>
<path d="M40.497 43.2544C40.497 43.3931 40.2001 43.5042 39.8325 43.5042C39.4649 43.5042 39.168 43.3931 39.168 43.2544C39.168 43.1157 39.4662 43.0059 39.8325 43.0059C40.1988 43.0059 40.497 43.117 40.497 43.2544Z" fill="white" stroke="#263238" stroke-width="1.22822" stroke-miterlimit="10"/>
<path d="M42.9872 43.2544C42.9872 43.3931 42.689 43.5042 42.3227 43.5042C41.9565 43.5042 41.6582 43.3931 41.6582 43.2544C41.6582 43.1157 41.9551 43.0059 42.3227 43.0059C42.6903 43.0059 42.9872 43.117 42.9872 43.2544Z" fill="white" stroke="#263238" stroke-width="1.22822" stroke-miterlimit="10"/>
<path d="M45.4804 43.2544C45.4804 43.3931 45.1821 43.5042 44.8159 43.5042C44.4496 43.5042 44.1514 43.3931 44.1514 43.2544C44.1514 43.1157 44.4483 43.0059 44.8159 43.0059C45.1835 43.0059 45.4804 43.117 45.4804 43.2544Z" fill="white" stroke="#263238" stroke-width="1.22822" stroke-miterlimit="10"/>
<path d="M39.3378 44.2422C39.3378 44.3795 39.0396 44.492 38.6733 44.492C38.307 44.492 38.0088 44.3795 38.0088 44.2422C38.0088 44.1048 38.3057 43.9937 38.6733 43.9937C39.0409 43.9937 39.3378 44.1114 39.3378 44.2422Z" fill="white" stroke="#263238" stroke-width="1.22822" stroke-miterlimit="10"/>
<path d="M41.831 44.2422C41.831 44.3795 41.534 44.492 41.1665 44.492C40.7989 44.492 40.502 44.3795 40.502 44.2422C40.502 44.1048 40.7989 43.9937 41.1665 43.9937C41.534 43.9937 41.831 44.1114 41.831 44.2422Z" fill="white" stroke="#263238" stroke-width="1.22822" stroke-miterlimit="10"/>
<path d="M44.3251 44.2422C44.3251 44.3795 44.0282 44.492 43.6606 44.492C43.293 44.492 42.9961 44.3795 42.9961 44.2422C42.9961 44.1048 43.2943 43.9937 43.6606 43.9937C44.0269 43.9937 44.3251 44.1114 44.3251 44.2422Z" fill="white" stroke="#263238" stroke-width="1.22822" stroke-miterlimit="10"/>
<path d="M37.5989 43.6735C37.5989 44.1039 36.763 44.4584 35.7296 44.4584C34.6962 44.4584 33.8604 44.1091 33.8604 43.6735C33.8604 43.2379 34.6975 42.8887 35.7296 42.8887C36.7617 42.8887 37.5989 43.2419 37.5989 43.6735Z" fill="white" stroke="#263238" stroke-width="1.22822" stroke-miterlimit="10"/>
<path d="M18.1376 54.7791C18.1376 54.7791 21.3895 55.1859 23.7467 55.0237C26.1039 54.8615 27.4094 53.9668 27.4094 53.9668L27.7338 63.7213C27.7338 63.7213 25.7023 64.6147 21.3947 64.9404C21.3947 64.9404 17.8995 65.5095 16.1113 64.6958L16.8426 54.5358L18.1376 54.7791Z" fill="#263238" stroke="#263238" stroke-width="1.22822" stroke-miterlimit="10"/>
<path d="M15.6155 27.3083C15.6155 27.3083 17.7281 25.1944 18.9472 24.7065C20.1664 24.2186 24.1495 26.6582 24.3942 26.8204C24.6388 26.9826 25.6761 35.047 26.2948 38.4114C26.9136 41.7758 27.6448 54.7809 27.6448 54.7809C26.227 55.4164 24.7191 55.8277 23.175 56.0001C20.7367 56.2447 18.216 56.0001 17.9727 56.0001C17.7294 56.0001 17.8105 40.0688 16.6725 35.8423C15.5344 31.6159 15.6155 27.3083 15.6155 27.3083Z" fill="#92E3A9" stroke="#263238" stroke-width="1.22822" stroke-miterlimit="10"/>
<path d="M18.5626 19.4478C18.5626 19.4478 16.6685 20.1018 15.605 21.389C14.5415 22.6761 14.8201 24.4839 15.2361 24.8541C15.6521 25.2243 16.8987 24.8541 17.4076 24.4839C17.9164 24.1137 18.3311 23.1902 18.3311 22.1738C18.3311 21.1574 18.1008 20.6957 18.7013 20.3255C18.7013 20.3255 18.9733 19.5864 18.5626 19.4478Z" fill="#263238" stroke="#263238" stroke-width="1.22822" stroke-miterlimit="10"/>
<path d="M27.7881 28.3369C27.7881 28.3369 29.0635 28.643 29.6757 31.4999C30.2879 34.3568 31.7385 40.8698 31.7922 45.9204C31.8458 50.9709 33.7687 56.3773 33.8707 56.5303C33.9728 56.6834 34.3299 58.2139 34.3299 58.2139C34.3299 58.2139 32.5443 59.3362 32.0852 59.4382C31.626 59.5403 30.3533 59.5913 30.3533 59.5913C30.3533 59.5913 28.7718 50.3574 28.8228 46.8373C28.8738 43.3172 27.9987 34.2547 27.9987 32.7753C27.9987 31.2958 27.7881 28.3369 27.7881 28.3369Z" fill="white" stroke="#263238" stroke-width="1.22822" stroke-miterlimit="10"/>
<path d="M23.358 26.1253C23.358 26.1253 24.0056 34.2158 24.3116 36.8176C24.6177 39.4194 27.0822 61.0711 27.0822 61.0711C28.6555 61.23 30.2329 60.8116 31.5206 59.8938L32.0817 58.8224C32.0817 58.8224 30.5003 51.8333 30.1942 49.535C29.9783 47.9116 29.8684 41.6105 29.8227 38.0616C29.799 36.6237 29.5964 35.1943 29.2196 33.8064C29.086 33.3515 28.9983 32.8844 28.958 32.412C28.907 31.2896 29.1111 30.1673 28.6009 29.1417C28.0907 28.1162 25.5491 26.4706 25.09 26.1135C24.6308 25.7564 24.0435 25.3653 23.5948 25.3051C23.1461 25.2449 23.4091 25.5641 23.358 26.1253Z" fill="white" stroke="#263238" stroke-width="1.22822" stroke-miterlimit="10"/>
<path d="M25.2886 49.2865C25.2886 49.2865 25.8432 49.7025 24.5482 51.042C23.2532 52.3815 20.5284 53.7 19.8809 56.982C19.2334 60.2641 19.2373 61.5342 19.2373 61.5342L19.5382 61.4178C19.5382 61.4178 19.631 59.0632 20.255 57.1194C20.879 55.1756 20.807 54.9937 21.9843 53.7458C23.1616 52.4979 24.7797 51.6202 25.2192 50.8811C25.6588 50.142 25.7503 49.5403 25.7268 49.2407L25.2886 49.2865Z" fill="white" stroke="#263238" stroke-width="1.22822" stroke-miterlimit="10"/>
<path d="M25.6433 27.7266C25.6891 27.8443 25.7323 27.9502 25.7741 28.0392C26.0358 28.6161 26.3432 30.2342 26.3432 30.2342L25.1973 29.9621L27.1908 33.027C26.7417 34.7933 26.4428 36.5944 26.2974 38.4111C26.0358 41.4877 26.1051 45.654 26.1051 45.654" stroke="#263238" stroke-width="1.22822" stroke-miterlimit="10"/>
<path d="M25.0928 26.125C25.0928 26.125 25.1765 26.3866 25.2903 26.7267" stroke="#263238" stroke-width="1.22822" stroke-miterlimit="10"/>
<path d="M29.091 39.8095L26.5781 40.0764V36.0134L29.091 35.7466V39.8095Z" fill="#92E3A9" stroke="#263238" stroke-width="1.22822" stroke-miterlimit="10"/>
<path d="M28.7969 39.3662L26.874 39.5716V36.4609L28.7969 36.2568V39.3662Z" fill="white"/>
<path d="M28.0582 36.1496L27.5454 36.1732L27.5049 35.2457L28.0177 35.2222L28.0582 36.1496Z" fill="#263238" stroke="#263238" stroke-width="1.22822" stroke-miterlimit="10"/>
<path d="M28.7784 16.2612C29.1228 17.0947 29.2032 18.0138 29.0086 18.8944C28.6855 20.3739 28.1779 21.0659 28.2237 21.5289C28.2695 21.992 28.6855 22.3596 28.501 22.684C28.3166 23.0084 27.6233 23.2386 27.6233 23.2386C27.6233 23.2386 26.9758 24.6775 26.2825 25.5029C25.5892 26.3284 23.6022 25.3172 23.6022 25.3172C23.6022 25.3172 22.9102 29.5227 22.4943 30.4005L22.0783 31.2782C22.0783 31.2782 19.0278 26.8437 18.5203 26.0589C18.2259 25.6186 18.0071 25.1323 17.8727 24.62C17.8727 24.62 18.7976 23.2844 18.9768 22.9195C19.156 22.5545 19.347 21.3955 19.347 21.3955C19.347 21.3955 18.2377 18.761 17.8675 17.2829C17.4973 15.8047 17.9656 14.0427 21.1077 12.9779C24.2497 11.9131 27.762 13.7196 28.7784 16.2612Z" fill="#FFD57D" stroke="#263238" stroke-width="1.22822" stroke-miterlimit="10"/>
<path d="M23.6012 25.3169L22.6123 24.8486L23.1172 27.7735L23.6012 25.3169Z" fill="#263238" stroke="#263238" stroke-width="1.22822" stroke-miterlimit="10"/>
<path d="M27.9468 20.9273C27.85 21.1981 27.6943 21.3904 27.5975 21.3551C27.5007 21.3198 27.502 21.0738 27.5975 20.8031C27.693 20.5323 27.85 20.34 27.9468 20.374C28.0436 20.408 28.0436 20.6553 27.9468 20.9273Z" fill="#263238"/>
<path d="M26.9525 23.8337C26.8088 23.7989 26.6784 23.7231 26.5769 23.6156C26.4754 23.5081 26.4073 23.3735 26.3809 23.228" stroke="#263238" stroke-width="1.22822" stroke-miterlimit="10"/>
<path d="M27.5186 20.0406C27.5186 20.0406 28.1582 19.6718 28.3597 19.9739" stroke="#263238" stroke-width="0.491286" stroke-miterlimit="10"/>
<path d="M28.5904 15.3821C28.5904 15.3821 28.5433 18.1095 26.742 18.8943C24.9408 19.6792 25.0311 19.4032 25.0311 19.4032C25.0311 19.4032 24.4777 20.0965 24.0617 20.0965C23.6458 20.0965 22.8596 19.7263 22.4436 19.9107C22.0277 20.0952 21.5659 20.2351 21.2428 20.8813C21.101 21.1582 20.8895 21.3933 20.6292 21.5635C20.3688 21.7337 20.0686 21.8331 19.7581 21.8519C19.2964 21.8519 19.0661 20.9742 18.4186 19.7721C17.7711 18.5699 16.9797 17.2304 17.448 15.7065C17.9163 14.1826 19.5737 12.7489 21.8838 12.5671C24.1939 12.3852 26.0017 12.7947 26.9265 13.488C27.8513 14.1812 29.0051 13.9968 28.5904 15.3821Z" fill="#263238" stroke="#263238" stroke-width="1.22822" stroke-miterlimit="10"/>
<path d="M23.4204 20.1416C23.4204 20.1416 22.2653 18.2475 21.572 18.9866C20.8787 19.7256 21.2032 20.8807 21.5263 21.5282C21.8494 22.1757 22.6813 21.9442 23.0515 21.6669" fill="#ECC36D"/>
<path d="M23.4204 20.1416C23.4204 20.1416 22.2653 18.2475 21.572 18.9866C20.8787 19.7256 21.2032 20.8807 21.5263 21.5282C21.8494 22.1757 22.6813 21.9442 23.0515 21.6669" stroke="#263238" stroke-width="1.22822" stroke-miterlimit="10"/>
<path d="M17.9429 24.0562C17.9429 24.0562 20.8286 36.0789 20.962 37.5518C21.6304 44.8641 18.2582 62.0904 18.2582 62.0904C18.2582 62.0904 17.315 65.6602 14.7263 65.2651C10.9878 64.6961 9.21006 62.8896 8.95498 62.5835L8.69336 62.2774C8.69336 62.2774 10.8792 47.7236 10.9812 46.6522C11.0833 45.5809 10.9302 39.3805 10.9812 38.3602C11.0322 37.3399 9.65873 32.0369 10.424 30.3023C11.1892 28.5678 16.2489 24.8449 17.9429 24.0562Z" fill="white" stroke="#263238" stroke-width="1.22822" stroke-miterlimit="10"/>
<path d="M19.6064 43.3008C19.7072 43.9444 19.7896 44.4912 19.7896 44.4912" stroke="#263238" stroke-width="1.22822" stroke-miterlimit="10"/>
<path d="M16.4375 27.4702C16.444 28.7783 16.3721 31.0727 16.3721 31.0727L18.5435 30.6358L16.5107 32.5051C16.5107 32.5051 18.1066 37.192 18.6168 38.4674C19.1269 39.7428 19.229 41.0692 19.28 41.2733C19.2983 41.3426 19.3611 41.7285 19.4382 42.2112" stroke="#263238" stroke-width="1.22822" stroke-miterlimit="10"/>
<path d="M16.5762 25.3076C16.488 25.5946 16.4374 25.8919 16.4258 26.1919" stroke="#263238" stroke-width="1.22822" stroke-miterlimit="10"/>
<path d="M68.7255 49.1576C68.7255 49.1576 65.7169 52.8071 64.7908 53.6653C63.8646 54.5234 63.6462 54.8098 63.1452 55.235C62.6442 55.6601 62.7867 55.8079 62.1432 56.0944C61.4996 56.3809 59.7886 56.3848 59.7886 56.3848C59.7886 56.3848 56.78 62.6846 56.347 63.4694C55.914 64.2543 55.2743 65.7599 54.5588 65.9745C53.8433 66.189 50.7523 65.3701 50.4017 65.2066C50.0511 65.0431 48.4762 63.4694 48.2616 63.3962C48.0471 63.3229 47.189 64.2556 46.5441 64.3982C45.8992 64.5408 43.2529 64.5421 43.2529 64.5421L47.3983 60.2149C47.3983 60.2149 55.9899 56.029 56.5615 55.0244C57.1331 54.0198 60.9986 50.3741 62.9306 49.5866C64.8627 48.7991 68.7255 49.1576 68.7255 49.1576Z" fill="#263238" stroke="#263238" stroke-width="1.22822" stroke-miterlimit="10"/>
<path d="M51.0557 33.891C51.0557 33.891 46.2445 33.1716 46.1333 33.891C46.0221 34.6105 43.3209 37.1364 41.0527 40.6212C38.7844 44.106 37.8452 45.7633 38.4535 46.0407C39.0617 46.318 54.3809 51.294 54.3809 51.294C54.3809 51.294 58.8049 54.9436 60.7408 55.5518C62.6768 56.1601 63.34 53.7205 63.5062 53.506C63.6723 53.2914 69.2016 48.9159 71.1376 46.9799C73.0736 45.0439 74.0154 43.6625 73.9579 43.0556C73.9003 42.4486 72.7374 41.9476 70.6444 40.3439C68.5515 38.7402 66.4978 37.4138 61.2431 35.6439C57.9516 34.5635 54.5191 33.9729 51.0557 33.891Z" fill="white" stroke="#263238" stroke-width="1.22822" stroke-miterlimit="10"/>
<path d="M36.8774 47.5111C36.8774 47.5111 33.7445 47.5556 31.2631 49.0808C27.9457 51.1267 27.3924 55.1635 27.2812 56.159C27.17 57.1544 28.9961 58.9243 30.766 60.0309C32.5358 61.1376 42.6003 64.4 43.8169 64.2338C45.0334 64.0677 45.8627 63.4594 46.471 62.5189C47.0793 61.5784 47.9988 60.3632 48.0747 58.2022C48.1506 56.0412 46.0289 51.5662 44.5363 49.9115C43.0438 48.2567 37.7891 47.3188 36.8774 47.5111Z" fill="#FFD57D" stroke="#263238" stroke-width="1.22822" stroke-miterlimit="10"/>
<path d="M36.5288 49.9379C36.5288 50.108 36.2999 50.2453 36.0173 50.2453C35.7348 50.2453 35.5059 50.1145 35.5059 49.9379C35.5059 49.7613 35.7348 49.6318 36.0173 49.6318C36.2999 49.6318 36.5288 49.7692 36.5288 49.9379Z" stroke="#263238" stroke-width="1.22822" stroke-miterlimit="10"/>
<path d="M52.6046 34.9524C52.6046 34.9524 51.2651 34.6659 50.8191 34.9916C50.373 35.3173 50.6961 36.1297 50.6961 36.1297L52.6046 34.9524Z" fill="#263238" stroke="#263238" stroke-width="1.22822" stroke-miterlimit="10"/>
<path d="M52.6046 34.9532C52.6046 34.9532 50.6608 35.8271 50.2239 36.4589C49.787 37.0907 50.1271 37.3745 49.4953 37.818C48.8635 38.2614 48.3298 38.0129 48.1872 38.595C48.1446 38.7608 48.1494 38.9352 48.201 39.0985C48.2525 39.2617 48.3488 39.4072 48.4789 39.5185C48.4789 39.5185 47.8471 41.1693 47.7987 41.9947C47.7503 42.8201 48.5273 43.1118 48.819 43.5488C49.1107 43.9857 49.4011 43.9412 48.6241 44.9092C47.8471 45.8772 47.2637 46.2173 47.2637 46.2173C47.2637 46.2173 50.0329 47.1408 51.2468 47.4325C52.4607 47.7242 53.0926 47.7229 53.0926 47.7229C53.0926 47.7229 53.6263 45.1002 54.4517 44.2747C55.2771 43.4493 56.8808 43.4977 57.9011 41.4584C58.9214 39.4191 58.0947 36.9416 56.2974 35.8728C54.5001 34.8041 53.672 34.3672 52.6046 34.9532Z" fill="#FFD57D" stroke="#263238" stroke-width="1.22822" stroke-miterlimit="10"/>
<path d="M51.5434 37.663C51.4126 37.8566 51.2334 37.9678 51.151 37.9103C51.0686 37.8527 51.1091 37.6486 51.2438 37.455C51.3786 37.2614 51.5526 37.1502 51.6363 37.2065C51.72 37.2627 51.6742 37.4681 51.5434 37.663Z" fill="#263238"/>
<path d="M51.0576 36.7359C51.0576 36.7359 51.6371 36.1551 52.2781 36.8275" stroke="#263238" stroke-width="1.22822" stroke-miterlimit="10"/>
<path d="M52.5686 34.2584C52.5686 34.2584 52.2428 35.4776 53.1376 36.7373C54.0323 37.997 54.3149 38.4849 54.3567 38.0781C54.379 37.7401 54.379 37.401 54.3567 37.063C54.3567 37.063 54.7635 38.9322 54.9663 39.4176C55.1691 39.9029 56.0232 41.1181 56.1043 41.2489C56.1854 41.3797 55.9016 42.2247 55.1285 42.956C54.3554 43.6872 53.6255 44.8265 53.1376 46.0051C52.6497 47.1837 53.462 47.6311 53.9094 47.8365C54.3567 48.0418 57.2829 48.4905 57.9331 49.7463C58.5832 51.0021 59.3968 51.7791 59.0724 52.5103C58.748 53.2415 59.3157 53.4456 60.4132 52.6333C61.5107 51.8209 63.2178 51.0073 62.4866 49.0556C61.7553 47.1039 59.7225 47.5526 58.9547 47.0241C58.1868 46.4957 58.9547 46.6984 59.6872 46.0483C60.4198 45.3982 59.6872 43.6087 59.321 42.9991C58.9547 42.3895 61.1091 41.3732 61.028 39.22C60.9469 37.0669 59.1967 35.887 56.1881 34.6665C53.1794 33.4461 52.7308 33.4042 52.5686 34.2584Z" fill="#263238" stroke="#263238" stroke-width="1.22822" stroke-miterlimit="10"/>
<path d="M55.2877 40.6111C55.2877 40.6111 56.325 40.1232 56.6298 40.7629C56.9346 41.4025 56.6298 42.0448 55.7142 42.5327C54.7985 43.0206 54.2504 42.5327 54.342 42.2279" fill="#FFD57D"/>
<path d="M55.2877 40.6111C55.2877 40.6111 56.325 40.1232 56.6298 40.7629C56.9346 41.4025 56.6298 42.0448 55.7142 42.5327C54.7985 43.0206 54.2504 42.5327 54.342 42.2279" stroke="#263238" stroke-width="1.22822" stroke-miterlimit="10"/>
<path d="M59.3115 49.419C58.5122 48.5805 57.3977 47.8611 55.7391 48.0678C56.2113 48.005 54.0961 47.9631 51.2418 47.432C49.6316 47.1312 47.6459 46.2548 46.0605 45.4359C44.475 44.617 42.5652 44.2586 40.4108 45.1102C38.2564 45.9617 37.8901 46.9794 37.7684 47.1429C37.6468 47.3065 36.875 47.5079 36.875 47.5079C36.875 47.5079 41.142 47.712 43.6222 49.9933C45.5935 51.8037 46.4084 53.9477 46.8636 55.5056L46.9238 55.8706C46.9238 55.8706 47.3934 59.7517 47.3934 60.22C47.3827 60.6037 47.2936 60.9812 47.1318 61.3293C47.0468 61.4993 46.9617 61.7125 46.9617 61.7125C47.2323 61.6894 47.5048 61.7039 47.7715 61.7557C48.3104 61.8394 48.7525 61.3711 49.3072 60.6464C49.3346 60.6111 49.3608 60.5745 49.387 60.5392C50.3366 59.9388 51.408 59.2141 51.5832 59.1382C51.8684 59.0165 55.2825 63.8944 55.5259 63.6511C55.7692 63.4078 58.94 57.5122 59.7118 55.3186C60.4835 53.1249 60.1238 50.2719 59.3115 49.419Z" fill="#92E3A9" stroke="#263238" stroke-width="1.22822" stroke-miterlimit="10"/>
<path d="M56.0781 60.7378C56.1891 60.9636 56.2675 61.2041 56.311 61.452" stroke="#263238" stroke-width="1.22822" stroke-miterlimit="10"/>
<path d="M53.833 58.5947C53.833 58.5947 55.0522 59.2161 55.7952 60.2626" stroke="#263238" stroke-width="1.22822" stroke-miterlimit="10"/>
<path d="M55.4102 58.29C55.5861 58.3679 55.7577 58.4552 55.9242 58.5517" stroke="#263238" stroke-width="1.22822" stroke-miterlimit="10"/>
<path d="M53.2793 57.7852C53.7268 57.8011 54.1706 57.8728 54.6005 57.9984" stroke="#263238" stroke-width="1.22822" stroke-miterlimit="10"/>
<path d="M52.8535 51.0049C52.8535 51.0049 54.023 51.3646 54.3552 52.5497" stroke="#263238" stroke-width="1.22822" stroke-miterlimit="10"/>
<path d="M52.9229 56.0903C52.5658 56.7915 52.2832 57.3042 52.2832 57.3042" stroke="#263238" stroke-width="1.22822" stroke-miterlimit="10"/>
<path d="M54.3967 50.1904C54.3967 50.1904 54.4372 51.4096 54.3561 52.545C54.3143 53.1389 53.7492 54.4117 53.2207 55.4895" stroke="#263238" stroke-width="1.22822" stroke-miterlimit="10"/>
<path d="M49.4341 50.4365C49.4341 50.4365 48.2149 48.8105 47.727 48.4848C47.2391 48.1591 44.5156 46.4533 44.1507 46.3343C43.7857 46.2152 42.3194 46.2937 41.3056 46.4978C40.2918 46.7018 39.0687 47.0668 39.3944 47.3912C39.7202 47.7156 42.768 48.6104 42.768 48.6104C42.768 48.6104 44.1101 49.6673 45.0847 50.1958C46.0592 50.7242 46.4673 50.8053 46.4673 50.8053L48.1338 57.512L51.1817 55.1574L49.4341 50.4365Z" fill="#FFD57D" stroke="#263238" stroke-width="1.22822" stroke-miterlimit="10"/>
<path d="M39.7637 47.4691C39.7637 47.4691 40.0475 47.3069 40.5354 47.4285C41.2463 47.5904 41.9655 47.7127 42.6899 47.7948" stroke="#263238" stroke-width="1.22822" stroke-miterlimit="10"/>
<path d="M39.6738 47.0479C39.6738 47.0479 41.0015 46.891 41.237 46.9433C41.4725 46.9956 43.1638 47.1774 43.1638 47.1774" stroke="#263238" stroke-width="1.22822" stroke-miterlimit="10"/>
<path d="M41.3086 46.4941C41.3086 46.4941 43.2145 46.6066 43.3715 46.6838" stroke="#263238" stroke-width="1.22822" stroke-miterlimit="10"/>
<path d="M50.8566 53.7617C50.8566 53.7617 48.8578 54.0953 48.6498 54.6774C48.4419 55.2595 48.1515 56.0509 48.1515 56.0509C48.1515 56.0509 46.8185 56.5506 46.9022 56.8004C46.9859 57.0503 47.4896 60.6711 48.3176 61.8353C49.1456 62.9995 50.3988 65.2063 50.3988 65.2063C50.3988 65.2063 52.9783 67.413 54.31 66.5392C55.6416 65.6654 56.017 63.2088 55.4336 61.8772C54.8502 60.5455 53.2282 57.9646 52.6461 57.0503C52.064 56.1359 50.8566 53.7617 50.8566 53.7617Z" fill="#92E3A9" stroke="#263238" stroke-width="1.22822" stroke-miterlimit="10"/>
<path d="M50.6502 67.5619C50.6502 67.5619 46.9679 61.7068 39.2122 59.7695C35.1244 58.7479 35.4423 59.0148 31.1687 59.1403C29.9051 59.1783 27.2823 56.1592 27.2823 56.1592C27.2823 56.1592 26.0148 56.5006 25.7636 57.2554C25.5993 57.7354 25.3891 58.1984 25.1358 58.638C25.1358 58.638 22.6216 59.0148 17.9713 61.6545C13.321 64.2942 11.1836 67.6874 11.1836 67.6874" fill="#DBDBDB"/>
<path d="M50.6502 67.5619C50.6502 67.5619 46.9679 61.7068 39.2122 59.7695C35.1244 58.7479 35.4423 59.0148 31.1687 59.1403C29.9051 59.1783 27.2823 56.1592 27.2823 56.1592C27.2823 56.1592 26.0148 56.5006 25.7636 57.2554C25.5993 57.7354 25.3891 58.1984 25.1358 58.638C25.1358 58.638 22.6216 59.0148 17.9713 61.6545C13.321 64.2942 11.1836 67.6874 11.1836 67.6874" stroke="#263238" stroke-width="1.22822" stroke-miterlimit="10"/>
<path d="M44.0967 66.918C44.1996 67.1687 44.287 67.4256 44.3583 67.6871" stroke="#263238" stroke-width="1.22822" stroke-miterlimit="10"/>
<path d="M37.3262 61.0278C37.3262 61.0278 41.6991 62.6433 43.6665 66.0418" stroke="#263238" stroke-width="1.22822" stroke-miterlimit="10"/>
<path d="M30.6599 61.0679C28.7318 62.2452 25.2902 64.5919 23.625 67.3114" stroke="#263238" stroke-width="1.22822" stroke-miterlimit="10"/>
<path d="M32.0447 60.2729C32.0447 60.2729 31.7373 60.4338 31.2324 60.7269" stroke="#263238" stroke-width="1.22822" stroke-miterlimit="10"/>
<path d="M27.994 44.2491C27.994 44.2491 27.3701 44.3407 27.0457 45.3113C26.7213 46.2819 28.0856 47.9 28.3407 48.5005C28.5958 49.1009 29.1949 50.1644 29.2184 50.6039C29.242 51.0434 30.6312 51.5287 31.9445 50.5568C33.008 49.7719 32.7764 48.6169 32.592 48.3396C32.4076 48.0622 32.0805 47.9471 31.8752 47.7849C30.9046 47.0001 30.5121 46.329 30.0962 45.5886C29.6802 44.8482 29.1491 43.9025 27.994 44.2491Z" fill="#FFD57D" stroke="#263238" stroke-width="1.22822" stroke-miterlimit="10"/>
<path d="M26.8128 44.0403C26.8128 44.0403 27.1123 44.4328 27.1594 44.6865C27.2065 44.9403 27.5061 44.9874 27.8056 44.8252C28.1052 44.663 27.9443 44.387 27.9914 44.2483C28.0384 44.1097 26.9972 43.3471 26.5119 42.6786C26.0266 42.0102 24.9173 40.9218 24.5498 40.7832C24.1822 40.6445 24.0645 40.8067 24.1809 41.4071C24.2973 42.0076 25.2653 44.557 25.2653 44.557L25.6368 44.6879C25.6368 44.6879 24.4595 41.8467 24.4346 41.5223C24.4098 41.1978 24.8271 41.4765 25.0128 41.708C25.1986 41.9395 26.8128 44.0403 26.8128 44.0403Z" fill="white" stroke="#263238" stroke-width="1.22822" stroke-miterlimit="10"/>
<path d="M21.2433 53.1953C21.2433 53.1953 22.2793 53.0737 22.7673 51.0422C23.2552 49.0107 23.9864 46.0845 23.5796 46.0021C23.1728 45.9197 20.898 46.2467 20.898 46.2467C20.898 46.2467 20.1249 51.6897 21.2433 53.1953Z" fill="#263238" stroke="#263238" stroke-width="1.22822" stroke-miterlimit="10"/>
<path d="M23.0031 45.1963C23.0031 45.1963 25.1262 44.5566 25.2609 44.5566C25.3956 44.5566 27.7881 45.6031 27.7881 45.6031C27.7881 45.6031 29.1368 46.5803 29.2715 46.6496C29.4062 46.7189 29.575 46.8864 29.4403 47.0878C29.3055 47.2893 28.7326 47.1558 28.7326 47.1558L27.5553 46.7176L27.0491 46.6836C27.0491 46.6836 29.3408 47.492 29.5776 47.6267C29.8144 47.7615 30.2173 48.0323 30.0825 48.3357L29.9517 48.6379C29.9517 48.6379 29.9857 49.1101 29.783 49.2449C29.5802 49.3796 29.1433 49.2789 29.1433 49.2789C29.1433 49.2789 28.6711 49.4476 28.4016 49.5143C28.1322 49.581 25.3341 49.4476 24.8632 49.4136C24.3923 49.3796 22.0992 48.2677 22.0992 48.2677L21.3575 48.1369C21.3575 48.1369 21.2908 47.025 21.4883 46.35C21.6357 45.9108 21.8772 45.509 22.196 45.1728L23.0031 45.1963Z" fill="#FFD57D" stroke="#263238" stroke-width="1.22822" stroke-miterlimit="10"/>
<path d="M11.529 29.0845C11.529 29.0845 10.7023 29.4769 10.3386 30.1859C9.85203 31.1447 9.56686 32.2501 9.65581 34.2122C9.68982 34.9526 10.9469 43.0458 10.8723 43.3414C10.7978 43.6371 10.7612 45.1937 11.4649 46.3788C12.1687 47.564 14.3166 50.7505 17.0583 51.8611C19.8001 52.9716 21.2442 53.1953 21.2442 53.1953C21.2442 53.1953 21.3175 50.7505 21.689 47.8975C22.0605 45.0446 23.0036 45.1963 23.0036 45.1963C23.0036 45.1963 21.3921 45.0092 21.0951 44.9713C20.7982 44.9334 19.6144 44.3421 19.3554 44.1943C19.1579 44.0954 18.9444 44.0325 18.7249 44.0086C18.7249 44.0086 18.7249 43.8974 18.3913 43.416C18.0577 42.9346 17.8367 42.6377 17.8367 42.6377C17.8367 42.6377 18.0577 42.083 18.0577 41.7115C18.0577 41.34 17.7961 40.1196 17.7961 40.1196C17.7961 40.1196 16.2826 37.455 15.9844 35.9507C15.6861 34.4464 15.244 32.2461 14.7993 31.6536C14.5574 31.3181 14.2564 31.0295 13.9111 30.802" fill="white"/>
<path d="M11.529 29.0845C11.529 29.0845 10.7023 29.4769 10.3386 30.1859C9.85203 31.1447 9.56686 32.2501 9.65581 34.2122C9.68982 34.9526 10.9469 43.0458 10.8723 43.3414C10.7978 43.6371 10.7612 45.1937 11.4649 46.3788C12.1687 47.564 14.3166 50.7505 17.0583 51.8611C19.8001 52.9716 21.2442 53.1953 21.2442 53.1953C21.2442 53.1953 21.3175 50.7505 21.689 47.8975C22.0605 45.0446 23.0036 45.1963 23.0036 45.1963C23.0036 45.1963 21.3921 45.0092 21.0951 44.9713C20.7982 44.9334 19.6144 44.3421 19.3554 44.1943C19.1579 44.0954 18.9444 44.0325 18.7249 44.0086C18.7249 44.0086 18.7249 43.8974 18.3913 43.416C18.0577 42.9346 17.8367 42.6377 17.8367 42.6377C17.8367 42.6377 18.0577 42.083 18.0577 41.7115C18.0577 41.34 17.7961 40.1196 17.7961 40.1196C17.7961 40.1196 16.2826 37.455 15.9844 35.9507C15.6861 34.4464 15.244 32.2461 14.7993 31.6536C14.5574 31.3181 14.2564 31.0295 13.9111 30.802" stroke="#263238" stroke-width="1.22822" stroke-miterlimit="10"/>
<path d="M14.2656 44.1692C14.7509 43.7113 15.3121 43.2352 15.6836 43.0455C16.1545 42.8012 16.677 42.6729 17.2075 42.6714" stroke="#263238" stroke-width="1.22822" stroke-miterlimit="10"/>
<path d="M13.2432 45.1936C13.2432 45.1936 13.442 44.9816 13.7337 44.6899" stroke="#263238" stroke-width="1.22822" stroke-miterlimit="10"/>
<path d="M18.2802 44.0458C18.2802 44.0458 16.8726 43.342 15.6143 43.9346" stroke="#263238" stroke-width="1.22822" stroke-miterlimit="10"/>
<g opacity="0.3">
<path d="M78.5892 23.3097C79.6159 19.5565 77.4057 15.6816 73.6526 14.6549C69.8994 13.6281 66.0245 15.8383 64.9978 19.5915C63.971 23.3447 66.1812 27.2196 69.9344 28.2463C73.6875 29.2731 77.5624 27.0629 78.5892 23.3097Z" stroke="black" stroke-width="1.22822" stroke-linecap="round" stroke-linejoin="round"/>
<path d="M74.1357 26.9208C77.1551 25.6286 78.5552 22.1334 77.263 19.1141C75.9707 16.0948 72.4755 14.6947 69.4562 15.9869C66.4369 17.2791 65.0368 20.7743 66.329 23.7936C67.6212 26.8129 71.1164 28.213 74.1357 26.9208Z" stroke="black" stroke-width="1.22822" stroke-linecap="round" stroke-linejoin="round"/>
<path d="M69.083 21.4502H71.7934L73.7294 17.811" stroke="black" stroke-width="1.22822" stroke-linecap="round" stroke-linejoin="round"/>
</g>
</g>
</g>
<defs>
<clipPath id="clip0_1730_68120">
<rect x="0.458008" y="0.171387" width="79.834" height="79.834" rx="17.195" fill="white"/>
</clipPath>
<clipPath id="clip1_1730_68120">
<rect width="87.8361" height="55.2697" fill="white" transform="translate(-4.30469 12.4521)"/>
</clipPath>
</defs>
</svg>
