<svg width="80" height="81" viewBox="0 0 80 81" fill="none" xmlns="http://www.w3.org/2000/svg">
<rect x="0.0136719" y="0.72998" width="79.834" height="79.834" rx="17.195" fill="#E1F5FE" fill-opacity="0.6"/>
<g clip-path="url(#clip0_1730_67376)">
<path d="M13.1114 69.8894C15.2769 69.8894 17.0324 69.5788 17.0324 69.1957C17.0324 68.8126 15.2769 68.502 13.1114 68.502C10.9459 68.502 9.19043 68.8126 9.19043 69.1957C9.19043 69.5788 10.9459 69.8894 13.1114 69.8894Z" fill="#E6EDF5"/>
<path d="M68.9962 66.7182C73.6313 66.7182 77.3889 66.3904 77.3889 65.986C77.3889 65.5817 73.6313 65.2539 68.9962 65.2539C64.361 65.2539 60.6035 65.5817 60.6035 65.986C60.6035 66.3904 64.361 66.7182 68.9962 66.7182Z" fill="#EBF3FA"/>
<path d="M62.5596 27.3711V65.9865H64.0385V63.9199H73.9597V65.9865H75.4386V27.3711H62.5596ZM64.0385 29.0901H73.9597V39.0106H64.0385V29.0901ZM64.0385 40.643H73.9597V50.5614H64.0385V40.643ZM64.0385 62.1143V52.1932H73.9597V62.1143H64.0385Z" fill="#DEEDFF"/>
<path d="M66.268 32.4828L64.3379 38.4053L66.1707 39.0026L68.1008 33.08L66.268 32.4828Z" fill="#DEEDFF"/>
<path d="M70.0622 32.7793H68.1338V39.0091H70.0622H71.9899H73.9183V32.7793H71.9899H70.0622Z" fill="#DEEDFF"/>
<path d="M70.78 45.5925C70.5378 45.6895 70.2775 45.7321 70.029 45.8075C69.962 45.8271 69.896 45.8504 69.8315 45.8773C69.858 45.7052 69.8984 45.5355 69.9523 45.3699C70.1044 44.9527 70.3704 44.5864 70.72 44.3125C71.0681 44.0399 71.4625 43.8321 71.8841 43.699C71.4842 43.7053 71.0808 43.7165 70.6928 43.8135C70.3047 43.9105 69.925 44.0989 69.6745 44.4081C69.5342 44.5862 69.4277 44.7884 69.3604 45.0048C69.3674 44.9274 69.3737 44.8506 69.3786 44.7717C69.4714 43.4394 68.6394 42.0938 67.4069 41.5801C67.8411 42.0283 68.172 42.5662 68.3762 43.1559C68.5805 43.7456 68.6531 44.3729 68.5892 44.9937C68.5836 45.0404 68.578 45.0865 68.5717 45.1333C68.4168 44.9077 68.2458 44.6936 68.0602 44.4926C67.8431 44.2483 67.6212 43.9956 67.5123 43.6871C67.4034 43.3787 67.4341 42.9976 67.6735 42.7749C67.3483 42.8782 67.1361 43.2132 67.0977 43.5517C67.0593 43.8902 67.1675 44.2294 67.3169 44.5358C67.4662 44.8422 67.6554 45.1277 67.7963 45.4383C67.8386 45.5445 67.8672 45.6557 67.8815 45.7691C67.8291 45.7042 67.7729 45.6424 67.7133 45.5841C67.3848 45.2764 66.9489 45.1096 66.4989 45.1193C66.049 45.1328 65.6173 45.2998 65.2754 45.5925C65.6054 45.4464 65.972 45.4042 66.3266 45.4715C66.6812 45.5389 67.0068 45.7125 67.2603 45.9694C67.4397 46.1585 67.5737 46.3882 67.7377 46.5878C67.7406 46.5918 67.7439 46.5955 67.7475 46.5989H67.1193C67.002 46.5982 66.8891 46.6441 66.8056 46.7266C66.7221 46.809 66.6748 46.9213 66.6741 47.0386C66.6733 47.156 66.7192 47.2688 66.8017 47.3523C66.8841 47.4358 66.9964 47.4832 67.1138 47.4839H67.044L67.0998 47.8859L67.4725 50.5527H70.4464L70.7842 47.8859L70.8344 47.4839H70.7647C70.882 47.4833 70.9943 47.436 71.0768 47.3526C71.1594 47.2691 71.2053 47.1563 71.2047 47.039C71.2041 46.9216 71.1568 46.8093 71.0734 46.7268C70.9899 46.6443 70.8771 46.5983 70.7598 46.5989H69.7268C69.8337 46.5227 69.9513 46.4628 70.0758 46.421C70.3703 46.3253 70.683 46.2814 70.9657 46.1543C71.3732 45.9633 71.6899 45.6204 71.8479 45.1989C72.0021 44.7772 72.0078 44.3156 71.8639 43.8902C71.8776 44.2505 71.7812 44.6064 71.5876 44.9105C71.3939 45.2146 71.1122 45.4525 70.78 45.5925Z" fill="#DEEDFF"/>
<path d="M41.8581 71.1913C53.642 71.1913 63.1947 70.3192 63.1947 69.2433C63.1947 68.1675 53.642 67.2954 41.8581 67.2954C30.0742 67.2954 20.5215 68.1675 20.5215 69.2433C20.5215 70.3192 30.0742 71.1913 41.8581 71.1913Z" fill="#E6EDF5"/>
<path d="M32.3764 29.7693C32.3764 29.7693 33.8714 27.8417 32.472 27.0949C31.0726 26.3481 28.7729 26.5826 28.2013 29.0149C27.4015 32.4187 21.5898 34.5572 23.2906 37.6825C23.8008 38.6199 25.2149 36.9385 26.5563 38.8816C27.777 40.6502 32.3694 35.5552 32.2794 33.4489C32.1893 31.3425 31.9981 30.4764 32.3764 29.7693Z" fill="#1F2763"/>
<path d="M28.6066 35.3184C28.3881 36.8734 28.3274 41.1057 28.8648 42.0968C29.6207 43.4885 33.4272 45.9319 34.6263 46.6787C34.8545 46.8183 34.9885 46.9021 34.9885 46.9021C35.6606 48.6504 37.508 49.5424 38.2381 49.3532C39.5376 49.0091 36.5386 47.7068 36.7906 47.0291C36.7906 47.0291 37.8054 47.4716 37.8591 46.9921C37.9101 46.5315 36.131 45.8621 36.131 45.8621C36.0682 45.7735 35.9914 45.6772 35.9112 45.5753C34.9389 44.3623 32.7823 42.2364 31.9106 40.9508C31.9434 40.6611 32.6497 35.9954 31.6391 34.0908C30.8916 32.6872 28.795 33.9756 28.6066 35.3184Z" fill="#F9CBCB"/>
<path d="M28.2249 35.3511C27.8445 36.8747 28.3275 41.1056 28.8649 42.0967C29.6208 43.4884 33.4273 45.9318 34.6264 46.6786L35.9113 45.5752C34.9391 44.3622 32.7824 42.2363 31.9107 40.9507C31.9435 40.661 32.7685 36.428 31.9247 34.4452C31.0264 32.3346 28.7379 33.2929 28.2249 35.3511Z" fill="#E3566A"/>
<path d="M52.6182 35.9051C51.1665 36.2436 47.1687 36.6596 46.1867 36.2352C44.8062 35.6385 42.1736 32.2465 41.3654 31.1759C41.2112 30.9721 41.1232 30.852 41.1232 30.852C39.4133 30.3635 38.4131 28.6933 38.5297 27.987C38.7454 26.7307 40.2313 29.4527 40.8503 29.1589C40.8503 29.1589 40.3464 28.2362 40.7952 28.1448C41.2265 28.0575 41.9461 29.8254 41.9461 29.8254C42.0354 29.8777 45.724 32.5425 47.0138 33.2578C47.2846 33.202 51.6383 32.1411 53.5234 32.934C54.913 33.521 53.8724 35.6113 52.6182 35.9051Z" fill="#F9CBCB"/>
<path d="M52.6185 36.2685C51.21 36.757 47.1676 36.6586 46.1856 36.2343C44.8051 35.6375 42.1725 32.2456 41.3643 31.1749L42.4202 29.9473C43.6493 30.7639 45.6887 32.4647 46.9785 33.1801C47.2493 33.1243 51.2156 32.0634 53.1622 32.6916C55.2336 33.3637 54.5217 35.6103 52.6185 36.2685Z" fill="#6CCCC5"/>
<path d="M32.9034 27.3067C32.6584 27.1273 32.3276 27.0715 32.0303 27.0708C32.0264 27.0708 32.0227 27.0723 32.0199 27.0751C32.0172 27.0778 32.0156 27.0816 32.0156 27.0855C32.0156 27.0893 32.0172 27.0931 32.0199 27.0958C32.0227 27.0986 32.0264 27.1001 32.0303 27.1001C32.2941 27.1553 32.5733 27.1699 32.805 27.3228C33.0367 27.4756 33.1574 27.731 33.2084 27.99C33.2549 28.2474 33.2343 28.5124 33.1488 28.7595C33.0632 29.0067 32.9155 29.2277 32.7198 29.4012C32.514 29.5862 32.2131 29.7948 32.2034 30.0991C32.2034 30.1361 32.2536 30.1361 32.2641 30.1054C32.3078 29.9694 32.3807 29.8446 32.4777 29.7397C32.5817 29.628 32.7031 29.5352 32.8155 29.4326C33.0144 29.2509 33.1638 29.0215 33.2496 28.7661C33.4094 28.2838 33.341 27.625 32.9034 27.3067Z" fill="#1F2763"/>
<path d="M30.1928 62.8213L29.2812 65.3722C29.8263 65.8385 30.421 66.1323 31.1029 66.126L32.0144 63.9471L30.1928 62.8213Z" fill="#F9CBCB"/>
<path d="M31.9354 65.4123C30.804 65.1624 30.231 64.9028 29.3076 64.2593C29.6831 62.5542 31.2374 56.7216 32.724 52.6973C30.3713 50.3996 20.8996 53.3031 24.6126 43.3882L29.4458 44.4867C29.212 45.6111 36.7176 47.767 37.4176 50.6418C38.193 53.8265 33.9356 59.8713 31.9354 65.4123Z" fill="#282A3D"/>
<path d="M29.2803 65.3721C28.7883 65.7908 28.5182 66.4106 28.4561 67.2153L33.1916 69.2456C34.2343 67.4017 31.162 67.1679 31.1019 66.1258C30.4089 66.0777 29.824 65.7741 29.2803 65.3721Z" fill="#282A3D"/>
<path d="M35.7507 64.9277L35.7451 67.2742C36.3104 67.4975 36.8695 67.5401 37.4202 67.2665L37.5646 64.8677L35.7507 64.9277Z" fill="#F9CBCB"/>
<path d="M37.8989 66.2725C37.7482 66.3046 37.6086 66.3311 37.4802 66.3528C36.9076 66.4564 36.3194 66.4357 35.7556 66.292C35.6648 66.2718 35.5699 66.2488 35.4715 66.2223C35.4017 65.421 35.0883 63.7097 34.784 61.6675C34.426 59.2652 34.077 56.4107 34.1357 54.06C32.6302 53.3251 28.2032 54.0649 25.6041 52.6341C23.8453 51.664 23.3609 49.8173 23.4852 45.4956L27.9841 44.6616L28.5724 44.5527C28.6862 45.6967 36.0145 47.8735 37.3573 50.2947C38.8446 52.9747 38.0092 60.3017 37.8989 66.2725Z" fill="#09A8A9"/>
<path d="M35.7463 67.2738C35.4629 67.8601 35.4127 68.5447 35.5802 69.3222L39.9471 69.3704C40.2891 67.2347 37.7486 68.2181 37.4185 67.2661C36.8462 67.4922 36.2934 67.4364 35.7463 67.2738Z" fill="#09A8A9"/>
<path d="M34.7778 61.6661C34.4197 59.2638 34.0708 56.4092 34.1294 54.0586C32.6239 53.3236 28.1969 54.0634 25.5978 52.6327C23.8453 51.6625 23.3609 49.8158 23.4852 45.4942L27.9841 44.6602L28.4252 44.9505C28.4252 44.9505 24.7659 45.4579 25.8107 49.3873C26.591 52.3186 35.163 51.0665 35.4227 52.6411C35.6244 53.8687 34.9495 58.7152 34.7778 61.6661Z" fill="#363852"/>
<path d="M38.3035 39.8315C38.3035 39.8315 40.5264 40.0242 40.948 40.4178C41.3696 40.8114 41.8093 42.058 41.417 41.8479C41.0248 41.6378 40.5697 41.2895 40.0909 41.1367C39.6121 40.9838 39.3888 41.4689 39.0733 41.3272C38.7579 41.1855 37.8945 41.0662 37.8945 41.0662L38.3035 39.8315Z" fill="#F0BBBB"/>
<path d="M38.1015 40.8293C38.1015 40.8293 40.3161 40.5599 40.8095 40.8586C41.3029 41.1573 41.9904 42.2866 41.5626 42.1609C41.1347 42.0353 40.619 41.7896 40.1151 41.7387C39.6111 41.6877 39.4967 42.2084 39.1596 42.1351C38.8225 42.0618 37.9521 42.1218 37.9521 42.1218L38.1015 40.8293Z" fill="#F9CBCB"/>
<path d="M28.1953 44.9333C26.456 44.3052 24.9276 36.972 26.4944 34.682C26.9584 34.0014 27.5098 33.3847 28.1346 32.8479C28.3444 32.6648 28.5672 32.4971 28.8011 32.3461L30.109 30.9648L31.0247 31.586C31.0247 31.5916 30.7581 32.0187 30.6716 32.4689C30.6276 32.6985 30.5962 32.8716 30.6018 32.8737C31.5273 33.4565 31.8581 35.2369 31.1252 36.9811C30.0085 39.6444 28.7132 40.9823 29.6659 45.0841C29.6952 45.2083 28.3181 44.9766 28.1953 44.9333Z" fill="#F9CBCB"/>
<path d="M28.8516 32.2471C28.8516 32.2471 26.665 32.721 25.2224 34.969C23.7211 37.3029 22.9687 45.1589 23.3449 45.5937C24.121 46.501 28.8328 45.6105 30.6348 46.0313C30.7591 46.0599 30.7326 40.0514 31.5254 37.2764C32.0447 35.4576 31.591 33.3463 30.6034 32.8759C31.0138 34.0296 29.2906 33.6785 28.8516 32.2471Z" fill="#D94E61"/>
<path d="M29.9431 30.0876C29.9431 30.0876 29.495 29.0288 29.1823 29.7142C28.9506 30.223 29.562 30.7332 29.562 30.7332C29.6883 31.5923 30.6054 32.4033 31.4597 32.3733C32.4696 32.3384 32.6566 31.3264 32.6308 30.2795C32.612 29.5264 32.337 28.5884 31.9531 28.1689C31.9531 28.1717 31.995 29.8747 29.9431 30.0876Z" fill="#F9CBCB"/>
<path d="M38.1685 27.4634H38.3932V29.278H38.1685C38.0417 29.278 37.9201 29.2276 37.8305 29.138C37.7408 29.0483 37.6904 28.9267 37.6904 28.7999V27.9415C37.6904 27.8147 37.7408 27.6931 37.8305 27.6034C37.9201 27.5137 38.0417 27.4634 38.1685 27.4634Z" fill="#ABD2FF"/>
<path d="M38.7503 27.4634H38.3965V29.2766H38.7503V27.4634Z" fill="#82BCFF"/>
<path d="M43.4303 30.5269H41.3135V32.6437H43.4303V30.5269Z" fill="#09A8A9"/>
<path d="M36.1151 40.0874H42.7643V41.2411C42.7643 41.3988 42.7017 41.5501 42.5901 41.6616C42.4786 41.7731 42.3274 41.8357 42.1697 41.8357H34.9258V41.2774C34.9253 41.121 34.9558 40.9662 35.0154 40.8216C35.075 40.6771 35.1625 40.5457 35.2731 40.4352C35.3836 40.3246 35.5149 40.2369 35.6594 40.1773C35.8039 40.1176 35.9587 40.087 36.1151 40.0874Z" fill="#09A8A9"/>
<path d="M41.6026 41.835H30.3037V43.7445H41.6026V41.835Z" fill="#09A8A9"/>
<path d="M31.0286 27.0693H30.7188V43.5309H31.0286V27.0693Z" fill="#ABD2FF"/>
<path d="M48.7509 26.8711H48.3314C48.0848 26.8711 47.8848 27.0711 47.8848 27.3178V29.4248C47.8848 29.6715 48.0848 29.8715 48.3314 29.8715H48.7509C48.9976 29.8715 49.1976 29.6715 49.1976 29.4248V27.3178C49.1976 27.0711 48.9976 26.8711 48.7509 26.8711Z" fill="#ABD2FF"/>
<path d="M47.8875 27.3394H38.7236V29.4025H47.8875V27.3394Z" fill="#09A8A9"/>
<path d="M43.8536 27.1665V30.3861C43.8534 30.5394 43.7924 30.6864 43.6839 30.7947C43.5754 30.9031 43.4283 30.964 43.275 30.964H41.3061C41.1528 30.964 41.0057 30.9031 40.8973 30.7947C40.7888 30.6864 40.7277 30.5394 40.7275 30.3861V27.1665C40.7275 27.013 40.7885 26.8659 40.897 26.7574C41.0055 26.6489 41.1527 26.5879 41.3061 26.5879H43.275C43.3748 26.5877 43.4729 26.6133 43.5598 26.6622C43.6468 26.7111 43.7196 26.7817 43.7712 26.8671C43.8257 26.9574 43.8542 27.061 43.8536 27.1665Z" fill="#ABD2FF"/>
<path d="M42.8457 28.9243C43.151 28.6191 43.151 28.1241 42.8457 27.8188C42.5404 27.5136 42.0455 27.5136 41.7402 27.8188C41.435 28.1241 41.435 28.6191 41.7402 28.9243C42.0455 29.2296 42.5404 29.2296 42.8457 28.9243Z" fill="white"/>
<path d="M43.769 26.868H40.8076C40.8592 26.7827 40.9321 26.7121 41.019 26.6632C41.106 26.6143 41.2041 26.5887 41.3038 26.5889H43.2727C43.3725 26.5887 43.4706 26.6143 43.5576 26.6632C43.6445 26.7121 43.7173 26.7827 43.769 26.868Z" fill="#82BCFF"/>
<path d="M42.7738 31.9834H41.9648V40.1925H42.7738V31.9834Z" fill="#09A8A9"/>
<path d="M39.4894 37.0127H42.7697V40.0885H39.0078V37.4957C39.0075 37.4323 39.0198 37.3695 39.0439 37.3108C39.068 37.2522 39.1034 37.1989 39.1482 37.154C39.1929 37.1091 39.2461 37.0736 39.3047 37.0493C39.3632 37.025 39.426 37.0126 39.4894 37.0127Z" fill="#09A8A9"/>
<path d="M31.4372 38.0928H30.3037V43.5304H31.4372V38.0928Z" fill="#09A8A9"/>
<path d="M41.2343 39.4538C41.6997 39.2628 41.9222 38.7307 41.7312 38.2654C41.5403 37.8 41.0082 37.5775 40.5428 37.7685C40.0775 37.9595 39.855 38.4915 40.046 38.9569C40.2369 39.4223 40.769 39.6447 41.2343 39.4538Z" fill="white"/>
<path d="M40.888 39.1999C41.2145 39.1999 41.4792 38.9352 41.4792 38.6087C41.4792 38.2822 41.2145 38.0176 40.888 38.0176C40.5615 38.0176 40.2969 38.2822 40.2969 38.6087C40.2969 38.9352 40.5615 39.1999 40.888 39.1999Z" fill="#ABD2FF"/>
<path d="M36.6264 67.9108L33.0467 53.7224C33.0034 53.5508 32.8464 53.4509 32.6977 53.5005C32.6215 53.5316 32.5594 53.5898 32.5236 53.6639C32.4878 53.738 32.4807 53.8228 32.5037 53.9018L33.0662 56.1352H26.6452L27.2077 53.9018C27.2307 53.8228 27.2236 53.738 27.1878 53.6639C27.152 53.5898 27.0899 53.5316 27.0137 53.5005C26.863 53.4509 26.7059 53.5508 26.6647 53.7224L23.0822 67.9108H22.4785V68.8935H24.1633V67.9108H23.6748L26.4819 56.7815H33.2295L36.0366 67.9108H35.622V68.8935H37.3069V67.9108H36.6264Z" fill="#C8E0FA"/>
<path d="M23.2747 53.4089C23.3591 53.4085 23.4399 53.3748 23.4995 53.315C23.5592 53.2553 23.5927 53.1744 23.5929 53.09C23.5929 52.6356 22.2592 41.4344 22.107 40.1558C22.0942 40.0737 22.0501 39.9998 21.9839 39.9496C21.9177 39.8993 21.8346 39.8767 21.7521 39.8865C21.6696 39.8963 21.5941 39.9376 21.5414 40.0019C21.4888 40.0662 21.4631 40.1484 21.4698 40.2312C22.0616 45.1984 22.9452 52.7242 22.9515 53.0913C22.9528 53.1761 22.9874 53.257 23.0479 53.3164C23.1084 53.3759 23.1899 53.4091 23.2747 53.4089Z" fill="#C8E0FA"/>
<path d="M22.7893 54.5735H33.9262C34.2598 54.5735 34.5299 54.2113 34.5299 53.7646V53.4505C34.5299 53.0038 34.2598 52.6416 33.9262 52.6416H22.7893C22.4556 52.6416 22.1855 53.0038 22.1855 53.4505V53.7646C22.1855 54.2113 22.4556 54.5735 22.7893 54.5735Z" fill="#82BCFF"/>
<path d="M22.6106 52.728C22.5843 52.8304 22.5709 52.9357 22.5708 53.0414C22.5708 53.5746 22.894 54.0073 23.2918 54.0073H34.1942C34.2989 54.0064 34.4013 53.9767 34.4902 53.9215C34.3931 54.3012 34.1251 54.5741 33.809 54.5741H22.9065C22.508 54.5741 22.1855 54.1413 22.1855 53.6081C22.1855 53.2159 22.36 52.8795 22.6106 52.728Z" fill="#6EADF5"/>
<path d="M21.8467 42.1094C22.1225 42.0961 22.3816 41.9737 22.5672 41.7693C22.7528 41.5648 22.8496 41.2951 22.8363 41.0193L22.6018 36.1588C22.5953 36.0223 22.5619 35.8884 22.5036 35.7648C22.4454 35.6412 22.3633 35.5302 22.2621 35.4383C22.1609 35.3464 22.0427 35.2753 21.914 35.2292C21.7854 35.183 21.6489 35.1626 21.5124 35.1692C21.3758 35.1757 21.2419 35.2091 21.1183 35.2674C20.9947 35.3257 20.8837 35.4077 20.7918 35.5089C20.6999 35.6101 20.6289 35.7284 20.5827 35.857C20.5365 35.9856 20.5161 36.1221 20.5227 36.2586L20.7572 41.1198C20.7637 41.2563 20.7971 41.3902 20.8554 41.5138C20.9137 41.6375 20.9958 41.7484 21.0969 41.8403C21.1981 41.9322 21.3164 42.0033 21.445 42.0495C21.5737 42.0956 21.7101 42.116 21.8467 42.1094Z" fill="#82BCFF"/>
<path d="M21.2157 35.2275C21.0994 35.3303 21.0076 35.458 20.9472 35.601C20.8868 35.744 20.8593 35.8988 20.8668 36.0539L21.1055 40.915C21.1188 41.1902 21.2408 41.4489 21.4447 41.6343C21.6485 41.8197 21.9176 41.9167 22.1929 41.904C22.2941 41.8993 22.3941 41.8796 22.4895 41.8454C22.3118 42.0044 22.0849 42.0975 21.8467 42.1092C21.7102 42.1158 21.5737 42.0954 21.445 42.0492C21.3164 42.003 21.1981 41.9319 21.0969 41.84C20.9958 41.7481 20.9137 41.6372 20.8554 41.5136C20.7971 41.3899 20.7637 41.256 20.7572 41.1195L20.5227 36.2584C20.5119 36.0349 20.5735 35.8138 20.6984 35.6281C20.8233 35.4424 21.0047 35.3019 21.2157 35.2275Z" fill="#6EADF5"/>
<path d="M28.197 29.2446C28.0246 29.9181 27.6387 30.5064 27.1703 31.0131C26.6671 31.5589 26.0697 32.0035 25.4702 32.4376C24.8462 32.8899 24.2097 33.3366 23.6674 33.8865C23.1495 34.4121 22.7189 35.0654 22.6414 35.8149C22.5716 36.4745 22.818 37.1682 23.3826 37.5479C23.4474 37.591 23.5156 37.6288 23.5864 37.661C23.6395 37.6854 23.6828 37.6059 23.6297 37.5814C23.0148 37.296 22.7036 36.6162 22.7301 35.9615C22.7601 35.2077 23.1781 34.5419 23.6855 34.0073C24.2132 33.4559 24.8392 33.0099 25.4541 32.5633C26.0425 32.1354 26.6315 31.702 27.1354 31.1751C27.5947 30.6942 27.9834 30.1337 28.19 29.4965C28.2152 29.417 28.2382 29.3367 28.2598 29.2557C28.2613 29.2474 28.2594 29.2388 28.2546 29.2319C28.2497 29.225 28.2423 29.2202 28.234 29.2188C28.2257 29.2173 28.2171 29.2192 28.2102 29.224C28.2032 29.2288 28.1985 29.2362 28.197 29.2446Z" fill="#1F2763"/>
<path d="M54.4364 27.3574C54.4043 27.2193 54.3463 27.0886 54.2654 26.9722C54.2654 26.9722 54.2598 26.9722 54.2605 26.9757C54.287 27.1006 54.3421 27.2199 54.3777 27.3435C54.4129 27.4649 54.439 27.5888 54.4559 27.7141C54.4913 27.9756 54.4854 28.241 54.4385 28.5006C54.3496 28.9737 54.1242 29.4104 53.7901 29.7569C53.6972 29.8559 53.5959 29.9465 53.4872 30.0277C53.4355 30.0661 53.3832 30.1024 53.3294 30.1359C53.2707 30.1684 53.2141 30.2046 53.1598 30.2441C53.1319 30.2664 53.1598 30.3139 53.194 30.3041C53.3107 30.2574 53.4187 30.1916 53.5137 30.1094C53.6092 30.0373 53.6997 29.9587 53.7845 29.8742C53.9577 29.7021 54.1058 29.5063 54.2242 29.2928C54.5479 28.7011 54.6241 28.0052 54.4364 27.3574Z" fill="#1F2763"/>
<path d="M49.9876 63.5864L50.7686 65.6509C50.1963 66.0892 49.5724 66.3663 48.8563 66.36L47.8994 64.3081L49.9876 63.5864Z" fill="#F9CBCB"/>
<path d="M47.9819 65.6845C49.1684 65.45 49.7714 65.2057 50.7409 64.6006C50.3465 62.9954 49.3276 55.8248 47.767 52.0378C50.237 49.8742 59.4365 53.1216 55.5385 43.7944L51.2657 44.8078C51.5107 45.8652 43.5745 47.3951 42.8395 50.1024C42.0258 53.0993 45.8825 60.473 47.9819 65.6845Z" fill="#1F5E5A"/>
<path d="M50.7675 65.6504C51.2846 66.0454 51.568 66.6275 51.6329 67.3841L46.6622 69.2943C45.5672 67.5599 48.7923 67.3401 48.8551 66.3595C49.5831 66.3141 50.1973 66.0287 50.7675 65.6504Z" fill="#2B2D42"/>
<path d="M42.4785 64.7069L42.4855 66.9152C41.7959 67.1246 41.114 67.1644 40.4461 66.9075L40.2695 64.6504L42.4785 64.7069Z" fill="#F9CBCB"/>
<path d="M55.094 52.6174C53.4476 53.5945 46.2867 52.6251 44.4512 53.3153C44.5084 55.086 44.2488 57.4143 43.9193 59.6177C43.8586 60.0232 43.7958 60.4238 43.7323 60.8161C43.3421 63.2281 42.922 65.324 42.825 66.1246C41.7041 66.3521 41.0557 66.3688 39.8601 66.172C39.7206 60.5557 38.6981 52.2977 40.512 49.7761C41.6985 48.1241 46.4598 46.8692 49.0394 45.8935C49.403 45.7539 49.7227 45.6241 49.983 45.4985C50.4248 45.2835 50.6963 45.0839 50.7207 44.8989L56.9938 45.4398C57.148 49.5067 56.6706 51.6836 55.094 52.6174Z" fill="#38827D"/>
<path d="M55.0946 52.6175C53.4482 53.5946 46.2874 52.6251 44.4518 53.3154C44.509 55.0861 44.2494 57.4144 43.92 59.6178C43.8593 60.0233 43.7964 60.4239 43.7329 60.8161C43.8027 56.4659 42.395 53.642 42.9059 52.6161C43.4691 51.4847 54.5286 52.4911 53.5717 49.0873C53.0504 47.235 49.9341 45.6618 49.8315 45.6925L49.9843 45.4999C50.4261 45.285 50.6976 45.0853 50.7221 44.9004L56.9951 45.4413C57.1487 49.5068 56.6713 51.6836 55.0946 52.6175Z" fill="#2B736E"/>
<path d="M42.4849 66.9144C42.8339 67.4651 42.8918 68.11 42.6873 68.8414L37.362 68.8861C36.9433 66.8774 40.0428 67.8022 40.4455 66.9067C41.1428 67.1196 41.8184 67.068 42.4849 66.9144Z" fill="#09A8A9"/>
<path d="M57.6642 45.5504C57.6531 45.8058 57.2273 48.4992 56.9831 48.5773C55.1928 49.151 53.5632 47.0377 50.9061 46.1625C50.5488 46.0434 50.1826 45.9526 49.8111 45.891C49.5005 45.84 48.9861 45.542 49.4984 44.8748C50.3994 43.7023 50.0679 41.7006 49.8474 39.5244C49.7036 38.1111 49.6052 36.6238 49.9206 35.2433C50.3673 33.289 51.9747 32.231 51.9747 32.231L53.7963 31.6985C55.0644 31.6035 57.5435 33.1488 57.8185 36.5379C57.963 38.347 57.7375 43.8055 57.6642 45.5504Z" fill="#6CCCC5"/>
<path d="M55.424 36.5962C55.424 36.5962 55.9342 38.6007 53.7859 40.7985C52.2973 42.3214 50.4359 43.2838 50.3661 44.3942C50.3039 45.4272 50.6794 45.654 50.9042 46.1635C50.5468 46.0444 50.1807 45.9536 49.8091 45.892C49.4985 45.8411 48.9841 45.543 49.4964 44.8758C50.3975 43.7033 50.0659 41.7016 49.8454 39.5254C51.5267 38.6181 54.1649 37.3353 54.1649 37.3353L55.424 36.5962Z" fill="#5EC7BF"/>
<path d="M51.8565 25.519C52.3073 25.5277 52.7509 25.6331 53.1574 25.8282C53.2289 25.716 53.2709 25.5876 53.2795 25.4548C53.2851 25.3152 53.5015 25.6698 53.4129 25.9357L53.7416 25.7905L53.5957 26.0899C53.8875 26.2942 54.1235 26.5682 54.2825 26.887C55.0174 28.4524 53.4512 30.1198 53.4512 30.1198L49.7717 27.6854C48.6983 26.8674 49.9469 25.4813 51.8565 25.519Z" fill="#1F2763"/>
<path d="M53.7931 31.7021C53.3695 32.703 52.7965 33.0345 51.9715 32.2346L51.6805 30.6189L51.5576 29.9391L53.0072 29.5273L53.1517 29.9294L53.7931 31.7021Z" fill="#F9CBCB"/>
<path d="M53.2521 30.2141C53.0462 30.852 52.104 31.2875 51.7711 31.134L51.5547 29.937L52.7963 28.7617L53.2521 30.2141Z" fill="#F0B4B4"/>
<path d="M49.6081 27.2752C49.5425 28.3047 49.8042 30.4648 50.8162 31.0078C51.4569 31.3518 53.2262 30.6455 53.2185 29.2015C53.5675 28.7583 53.6701 27.8901 53.1648 27.6528C52.8047 27.4839 52.6239 28.2523 52.0893 28.2858C51.8862 28.2984 52.1102 26.8543 51.4507 26.8027C50.7911 26.751 50.2963 27.4099 49.6081 27.2752Z" fill="#F9CBCB"/>
<path d="M44.6058 67.9699L48.1849 53.7816C48.2288 53.6092 48.3852 53.5101 48.5338 53.5596C48.61 53.5908 48.6719 53.6491 48.7077 53.7231C48.7435 53.7972 48.7507 53.8819 48.7279 53.9609L48.1646 56.1943H54.5856L54.0231 53.9609C53.9999 53.8819 54.007 53.7971 54.0428 53.7229C54.0787 53.6488 54.1408 53.5906 54.2171 53.5596C54.3679 53.5101 54.5249 53.6092 54.5661 53.7816L58.1451 67.9699H58.7495V68.9519H57.0689V67.9699H57.5574L54.751 56.8399H48.0041L45.1963 67.9699H45.6116V68.9519H43.9268V67.9699H44.6058Z" fill="#C8E0FA"/>
<path d="M57.0106 53.4683C56.9262 53.4683 56.8453 53.4348 56.7856 53.3751C56.7259 53.3154 56.6924 53.2345 56.6924 53.1501C56.6924 52.6957 58.0261 41.4945 58.1783 40.2152C58.1909 40.1329 58.2351 40.0587 58.3014 40.0083C58.3677 39.9579 58.451 39.9353 58.5337 39.9451C58.6164 39.955 58.692 39.9966 58.7446 40.0612C58.7972 40.1258 58.8226 40.2083 58.8155 40.2913C58.2237 45.2585 57.3408 52.7843 57.3338 53.1508C57.3325 53.2355 57.2979 53.3164 57.2374 53.3758C57.1769 53.4353 57.0954 53.4685 57.0106 53.4683Z" fill="#C8E0FA"/>
<path d="M57.2479 54.6342H44.3186C43.9313 54.6342 43.6172 54.272 43.6172 53.8246V53.5106C43.6172 53.0639 43.9313 52.7017 44.3186 52.7017H57.2479C57.6352 52.7017 57.9458 53.0639 57.9458 53.5106V53.8274C57.9493 54.272 57.6352 54.6342 57.2479 54.6342Z" fill="#82BCFF"/>
<path d="M57.4519 52.7866C57.4818 52.8884 57.4971 52.9939 57.4973 53.1C57.4973 53.6339 57.1225 54.0659 56.6598 54.0659H44.0013C43.8813 54.0658 43.7632 54.0364 43.6572 53.9801C43.7703 54.3598 44.0816 54.6334 44.4487 54.6334H57.1078C57.5699 54.6334 57.9454 54.2006 57.9454 53.6667C57.9454 53.2752 57.7423 52.9381 57.4519 52.7866Z" fill="#6EADF5"/>
<path d="M58.4371 42.1713C58.1615 42.1579 57.9024 42.0356 57.7168 41.8314C57.5313 41.6271 57.4344 41.3575 57.4475 41.0818L57.682 36.2207C57.6886 36.0842 57.722 35.9503 57.7804 35.8267C57.8388 35.7031 57.9209 35.5922 58.0222 35.5004C58.1234 35.4085 58.2418 35.3375 58.3704 35.2914C58.4991 35.2453 58.6356 35.225 58.7721 35.2317C58.9086 35.2382 59.0425 35.2716 59.1661 35.3299C59.2897 35.3882 59.4006 35.4703 59.4924 35.5715C59.5843 35.6727 59.6553 35.791 59.7014 35.9196C59.7475 36.0482 59.7678 36.1847 59.7611 36.3212L59.5266 41.1816C59.5202 41.3182 59.4869 41.4521 59.4286 41.5758C59.3703 41.6995 59.2883 41.8104 59.1871 41.9023C59.0859 41.9943 58.9676 42.0653 58.8389 42.1115C58.7102 42.1576 58.5737 42.178 58.4371 42.1713Z" fill="#82BCFF"/>
<path d="M59.068 35.2876C59.1841 35.3906 59.2757 35.5183 59.3361 35.6612C59.3964 35.8042 59.4241 35.9589 59.4169 36.114L59.1845 40.9751C59.1776 41.1118 59.1439 41.2458 59.0852 41.3694C59.0265 41.493 58.944 41.6039 58.8424 41.6956C58.7408 41.7873 58.6222 41.8581 58.4932 41.9039C58.3642 41.9498 58.2275 41.9697 58.0908 41.9627C57.9899 41.9577 57.8902 41.9379 57.7949 41.904C57.9721 42.0633 58.199 42.1562 58.437 42.1672C58.5736 42.1738 58.7101 42.1535 58.8388 42.1074C58.9675 42.0612 59.0858 41.9901 59.187 41.8982C59.2882 41.8063 59.3702 41.6953 59.4285 41.5717C59.4868 41.448 59.5201 41.314 59.5265 41.1775L59.761 36.3171C59.7712 36.0938 59.7094 35.8732 59.5846 35.6878C59.4598 35.5024 59.2787 35.3621 59.068 35.2876Z" fill="#6EADF5"/>
<path d="M54.9939 37.3093C54.2185 38.6751 51.6836 42.065 50.6534 42.5215C49.2052 43.1636 44.6986 42.7762 43.293 42.6366C43.025 42.6101 42.8694 42.592 42.8694 42.592C41.2704 43.5691 39.2624 43.1503 38.799 42.5515C37.9796 41.4857 41.151 42.2835 41.3646 41.5932C41.3646 41.5932 40.2905 41.3245 40.5403 40.9113C40.7811 40.5156 42.5986 41.0712 42.5986 41.0712C42.7025 41.0398 42.8205 41.0083 42.9475 40.9776C44.4579 40.6105 47.4632 40.242 48.9386 39.7556C49.0894 39.5057 51.3779 35.3774 53.3398 34.4868C54.7845 33.8301 55.6618 36.1305 54.9939 37.3093Z" fill="#F9CBCB"/>
<path d="M55.2746 37.5693C54.6465 39.0084 51.6817 42.0661 50.6515 42.5246C49.2033 43.1667 44.6967 42.7794 43.2911 42.6398L42.9463 40.9808C44.4566 40.6137 47.4619 40.2452 48.9374 39.7587C49.0881 39.5089 51.0179 35.6521 52.8961 34.594C54.897 33.4703 56.1254 35.6256 55.2746 37.5693Z" fill="#6CCCC5"/>
<path d="M49.537 27.3593C49.5362 27.3596 49.5354 27.3602 49.5349 27.361C49.5344 27.3618 49.5342 27.3627 49.5342 27.3636C49.5342 27.3645 49.5344 27.3654 49.5349 27.3662C49.5354 27.3669 49.5362 27.3675 49.537 27.3679C49.5377 27.3682 49.5385 27.3683 49.5393 27.3683C49.5401 27.3682 49.5408 27.3679 49.5414 27.3675C49.5421 27.3671 49.5426 27.3665 49.543 27.3658C49.5434 27.3651 49.5436 27.3644 49.5436 27.3636C49.5436 27.3628 49.5434 27.362 49.543 27.3614C49.5426 27.3607 49.5421 27.3601 49.5414 27.3597C49.5408 27.3592 49.5401 27.359 49.5393 27.3589C49.5385 27.3588 49.5377 27.359 49.537 27.3593Z" fill="#1F2763"/>
<path d="M51.7158 25.56C51.4775 25.5192 51.2338 25.5211 50.9962 25.5655C50.754 25.6042 50.5172 25.6712 50.2906 25.7652C49.8844 25.9313 49.4447 26.1839 49.3135 26.6355C49.2507 26.8491 49.2709 27.1471 49.4531 27.3013C49.4628 27.309 49.4796 27.3013 49.4719 27.2867C49.4129 27.1977 49.3703 27.0989 49.3463 26.9949C49.3258 26.8861 49.3311 26.774 49.3616 26.6676C49.4229 26.4716 49.5415 26.2985 49.7022 26.1707C49.8819 26.0289 50.0828 25.9163 50.2976 25.837C50.5064 25.7533 50.7235 25.692 50.9452 25.6542C51.1969 25.6199 51.4514 25.6124 51.7046 25.6319C51.7132 25.6316 51.7215 25.6283 51.728 25.6226C51.7345 25.6169 51.7388 25.6091 51.7401 25.6006C51.7414 25.592 51.7397 25.5833 51.7353 25.5759C51.7308 25.5684 51.7239 25.5628 51.7158 25.56Z" fill="#1F2763"/>
<path d="M52.3678 28.1222C52.3501 28.1606 52.3193 28.1915 52.2809 28.2093C52.2426 28.227 52.1991 28.2306 52.1584 28.2192C52.1117 28.2021 52.0698 28.1742 52.036 28.1378C52.0022 28.1014 51.9774 28.0576 51.9636 28.0099C51.8939 27.8075 51.898 27.5813 51.8506 27.3727C51.819 27.1912 51.7317 27.0241 51.6007 26.8946C51.5454 26.843 51.4785 26.8053 51.4057 26.7847C51.3329 26.764 51.2562 26.761 51.182 26.7759C51.1701 26.7759 51.1722 26.7989 51.182 26.7976C51.3823 26.7794 51.5651 26.9106 51.6649 27.0767C51.7815 27.2687 51.8045 27.4955 51.8331 27.716C51.8569 27.908 51.8771 28.1404 52.0516 28.2604C52.1737 28.3442 52.3922 28.3218 52.4229 28.1508C52.432 28.1146 52.3852 28.0873 52.3678 28.1222Z" fill="#1F2763"/>
<path d="M32.5469 32.125H30.5068V32.6226H32.5469V32.125Z" fill="#ABD2FF"/>
<path d="M33.3265 28.4561H30.5068V28.9537H33.3265V28.4561Z" fill="#ABD2FF"/>
<path d="M31.6321 28.3569H30.4268V29.1295H31.6321V28.3569Z" fill="#09A8A9"/>
<path d="M31.6321 31.9878H30.4268V32.7604H31.6321V31.9878Z" fill="#09A8A9"/>
<path d="M25.4152 35.6845C24.8506 37.1501 23.8337 41.2589 24.1331 42.3449C24.5519 43.8719 27.7094 47.1132 28.7081 48.1119C28.8986 48.3024 29.011 48.412 29.011 48.412C29.2699 50.2664 30.8675 51.5527 31.6213 51.5346C32.9648 51.4934 30.3385 49.5455 30.7377 48.9431C30.7377 48.9431 31.6262 49.6034 31.7846 49.1483C31.9389 48.7114 30.3573 47.6575 30.3573 47.6575C30.3155 47.557 30.2652 47.4482 30.2073 47.3274C29.5352 45.9267 27.9153 43.368 27.3569 41.9184C27.4546 41.6434 29.1988 37.2569 28.6446 35.175C28.2363 33.6381 25.9024 34.4191 25.4152 35.6845Z" fill="#F9CBCB"/>
<path d="M25.0371 35.6299C24.3225 37.0258 23.8353 41.2587 24.1347 42.3447C24.5535 43.8718 27.7919 47.5639 28.7906 48.5626L30.4929 47.439C29.8201 46.0382 27.9189 43.3679 27.3606 41.9183C27.4583 41.6433 29.2199 37.7062 28.8465 35.5838C28.4487 33.3253 26.0031 33.7413 25.0371 35.6299Z" fill="#E3566A"/>
<path d="M33.6939 69.2276C33.7594 69.2265 33.8229 69.2041 33.8746 69.1638C33.9264 69.1236 33.9636 69.0675 33.9807 69.0042L41.2211 43.9302H40.593L33.4042 68.8207C33.3896 68.8668 33.3859 68.9158 33.3934 68.9636C33.401 69.0114 33.4195 69.0569 33.4476 69.0963C33.4757 69.1358 33.5125 69.1682 33.5553 69.1909C33.598 69.2137 33.6455 69.2263 33.6939 69.2276Z" fill="#C8E0FA"/>
<path d="M40.1162 69.2276C40.0507 69.2265 39.9872 69.2041 39.9355 69.1638C39.8837 69.1236 39.8465 69.0675 39.8294 69.0042L32.5918 43.9302H33.2199L40.4087 68.8207C40.4233 68.8671 40.427 68.9162 40.4193 68.9643C40.4116 69.0123 40.3929 69.0579 40.3645 69.0974C40.3361 69.1369 40.2988 69.1693 40.2558 69.1919C40.2127 69.2145 40.1649 69.2267 40.1162 69.2276Z" fill="#C8E0FA"/>
<path d="M28.1746 44.4613H45.6404C46.099 44.4613 46.4703 44.1417 46.4703 43.7466C46.4703 43.3516 46.099 43.0312 45.6404 43.0312H28.1746C27.716 43.0312 27.3447 43.3516 27.3447 43.7466C27.3447 44.1417 27.716 44.4613 28.1746 44.4613Z" fill="#82BCFF"/>
<path d="M27.9526 43.0728C27.9075 43.1559 27.8835 43.2489 27.8828 43.3436C27.8828 43.7379 28.2918 44.0582 28.7957 44.0582H46.0969C46.2002 44.0582 46.303 44.0441 46.4026 44.0164C46.263 44.2774 45.9391 44.4609 45.5574 44.4609H28.2576C27.7537 44.4609 27.3447 44.1413 27.3447 43.7463C27.3447 43.435 27.5988 43.1712 27.9526 43.0728Z" fill="#6EADF5"/>
<path d="M33.2411 45.7896H40.5723V45.2919H33.2411V45.7896Z" fill="#C8E0FA"/>
<path d="M30.2824 69.4275H43.5257C43.5979 69.4248 43.6663 69.3942 43.7164 69.3421C43.7665 69.29 43.7945 69.2206 43.7944 69.1483C43.7945 69.0761 43.7665 69.0066 43.7164 68.9545C43.6663 68.9025 43.5979 68.8719 43.5257 68.8691H30.2824C30.2102 68.8719 30.1418 68.9025 30.0917 68.9545C30.0416 69.0066 30.0136 69.0761 30.0137 69.1483C30.0136 69.2206 30.0416 69.29 30.0917 69.3421C30.1418 69.3942 30.2102 69.4248 30.2824 69.4275Z" fill="#C8E0FA"/>
<path d="M17.3649 20.1636L4.9849 20.2592C4.48169 20.2634 4.07759 20.6452 4.08108 21.1121L4.22066 38.2667C4.22485 38.7336 4.63524 39.1091 5.13845 39.1042L17.5163 39.01C18.0196 39.01 18.4237 38.624 18.4237 38.1571L18.2841 21.0032C18.2792 20.5349 17.8653 20.1601 17.3649 20.1636Z" fill="#C9E2FF"/>
<path d="M18.0317 21.0055L18.144 35.332V35.5777V35.7961L18.1629 38.1621C18.1629 38.4755 17.8719 38.7331 17.5089 38.7365L14.8226 38.7568L14.2356 38.761H14.1735L5.12754 38.8308C4.94935 38.8343 4.77637 38.7705 4.64317 38.6521C4.58859 38.603 4.54487 38.5431 4.51482 38.4762C4.48477 38.4092 4.46906 38.3367 4.46869 38.2633L4.3291 21.1095C4.3291 20.7961 4.62014 20.5386 4.98377 20.5351L17.3645 20.4395C17.7309 20.4388 18.0289 20.6921 18.0317 21.0055Z" fill="white"/>
<path d="M18.1457 35.5742V35.7927L18.1646 38.1587C18.1646 38.472 17.8736 38.7296 17.5106 38.7331L14.8243 38.7533L14.2373 38.7575C15.5257 38.0072 17.3578 36.9785 18.1457 35.5742Z" fill="white"/>
<path d="M11.1015 19.085C10.8328 19.085 10.613 19.3293 10.6193 19.6266L10.6263 20.5688L11.6034 20.5611L11.5957 19.6189C11.5908 19.3223 11.373 19.0829 11.1015 19.085ZM11.1078 19.8248C11.0622 19.8297 11.0162 19.8207 10.9759 19.799C10.9355 19.7773 10.9027 19.7438 10.8817 19.703C10.8607 19.6623 10.8526 19.6161 10.8584 19.5706C10.8642 19.5251 10.8836 19.4825 10.9142 19.4483C10.9447 19.414 10.9849 19.3899 11.0294 19.379C11.0739 19.3681 11.1207 19.3709 11.1636 19.3871C11.2065 19.4033 11.2435 19.4321 11.2696 19.4698C11.2958 19.5074 11.31 19.5521 11.3102 19.598C11.3133 19.6548 11.2937 19.7106 11.2558 19.7531C11.2179 19.7956 11.1647 19.8214 11.1078 19.8248Z" fill="#AAD1FF"/>
<path d="M14.2915 20.5394L7.94032 20.5889C7.87224 20.5857 7.8082 20.5557 7.76208 20.5055C7.71596 20.4553 7.69148 20.389 7.69394 20.3209C7.68935 20.2528 7.71198 20.1857 7.75687 20.1342C7.80176 20.0828 7.86523 20.0513 7.93334 20.0466L14.2846 19.9971C14.3526 20.0003 14.4167 20.0303 14.4628 20.0805C14.5089 20.1306 14.5334 20.197 14.5309 20.2651C14.5333 20.2988 14.529 20.3327 14.5182 20.3648C14.5075 20.3968 14.4905 20.4265 14.4682 20.452C14.446 20.4775 14.4189 20.4983 14.3886 20.5133C14.3583 20.5283 14.3253 20.5372 14.2915 20.5394Z" fill="#AAD1FF"/>
<path d="M11.0237 23.3296L11.037 24.3109L12.0329 24.2984L12.0364 24.5161L11.0398 24.5294L11.053 25.5261L12.1621 25.5114V25.7292L10.7892 25.7473L10.7578 23.1168L12.1307 23.0986V23.3164L11.0237 23.3296Z" fill="#92B5E0"/>
<path d="M9.88318 26.1113V26.29L8.93608 26.3026L8.94655 27.1045L9.74848 27.0968V27.2755L8.94934 27.286L8.96191 28.2756H8.74694L8.72461 26.1267L9.88318 26.1113Z" fill="#92B5E0"/>
<path d="M14.3083 27.0743C14.1892 27.1887 14.0086 27.2474 13.7667 27.2502L13.3333 27.2557L13.3451 28.1721H13.1302L13.1016 26.0232L13.7506 26.0148C13.99 26.0113 14.1694 26.0658 14.295 26.1767C14.4145 26.2947 14.4829 26.4549 14.4854 26.6228C14.4879 26.7907 14.4243 26.9528 14.3083 27.0743ZM14.2629 26.629C14.2667 26.5692 14.2575 26.5092 14.2361 26.4532C14.2146 26.3972 14.1814 26.3465 14.1387 26.3044C14.0577 26.2347 13.9293 26.1963 13.7527 26.1991L13.3193 26.2046L13.3305 27.0715L13.7639 27.0659C14.0994 27.0617 14.2653 26.9161 14.2615 26.629H14.2629Z" fill="#92B5E0"/>
<path d="M8.00565 28.7075V28.8471L7.53036 28.8534L7.5506 30.4258H7.37891L7.35867 28.8534L6.87988 28.8597V28.7201L8.00565 28.7075Z" fill="#92B5E0"/>
<path d="M10.6143 30.3144C10.4849 30.2423 10.3779 30.1358 10.3052 30.0066C10.2294 29.8678 10.1887 29.7126 10.1866 29.5545C10.1845 29.3963 10.2212 29.2401 10.2933 29.0993C10.363 28.9687 10.467 28.8597 10.5941 28.7839C10.7257 28.7089 10.8743 28.6685 11.0257 28.6666C11.1772 28.6646 11.3267 28.7011 11.4602 28.7727C11.5895 28.8447 11.696 28.9513 11.768 29.0805C11.8432 29.2195 11.8836 29.3747 11.8857 29.5327C11.8877 29.6907 11.8514 29.8469 11.7799 29.9878C11.7116 30.1189 11.6078 30.2282 11.4805 30.3033C11.349 30.3785 11.2005 30.4191 11.0489 30.4212C10.8974 30.4233 10.7479 30.3868 10.6143 30.3151V30.3144ZM11.3877 30.1748C11.4895 30.1134 11.5718 30.0244 11.625 29.918C11.6842 29.7985 11.7127 29.6661 11.708 29.5327C11.7092 29.3999 11.6771 29.2689 11.6145 29.1517C11.5585 29.0471 11.4741 28.9604 11.3709 28.9018C11.265 28.8453 11.1464 28.8165 11.0264 28.818C10.9063 28.8196 10.7886 28.8516 10.6841 28.9109C10.5828 28.9724 10.5008 29.0611 10.4475 29.167C10.388 29.286 10.3592 29.4179 10.3638 29.5509C10.363 29.6841 10.3951 29.8155 10.4573 29.9334C10.513 30.0384 10.5975 30.1253 10.7009 30.1839C10.8068 30.2405 10.9254 30.2693 11.0454 30.2677C11.1655 30.2661 11.2832 30.2342 11.3877 30.1748Z" fill="#92B5E0"/>
<path d="M14.7511 30.0784L15.6263 30.0672V30.2194L14.5501 30.2333V30.0937L15.3946 28.6574L14.5459 28.6686V28.5164L15.5928 28.5024V28.642L14.7511 30.0784Z" fill="#92B5E0"/>
<path d="M6.14451 32.9625L6.81732 32.9542V33.1063L5.95677 33.1182L5.93164 31.2456H6.11939L6.14451 32.9625Z" fill="#92B5E0"/>
<path d="M9.7471 32.1295C9.64288 32.2291 9.48538 32.2803 9.2746 32.2831L8.89702 32.288L8.90749 33.0864H8.71974L8.69531 31.2139L9.26064 31.2062C9.46956 31.2034 9.62775 31.2499 9.73524 31.3458C9.83852 31.4485 9.89756 31.5875 9.89978 31.7331C9.902 31.8788 9.84721 32.0195 9.7471 32.1254V32.1295ZM9.70732 31.7415C9.71024 31.6894 9.70211 31.6373 9.68346 31.5886C9.66482 31.5399 9.63608 31.4957 9.59914 31.4588C9.52842 31.396 9.41628 31.3653 9.26273 31.3667L8.88515 31.3723L8.89492 32.1274L9.27251 32.1226C9.56564 32.1205 9.71011 31.9921 9.70732 31.7415Z" fill="#92B5E0"/>
<path d="M16.6272 31.2923L16.6363 31.9902L17.3461 31.9812V32.1361L16.6363 32.1459L16.646 32.8557L17.4361 32.8452V33.0001L16.459 33.0134L16.4346 31.1381L17.4117 31.1255V31.2804L16.6272 31.2923Z" fill="#92B5E0"/>
<path d="M13.6979 31.2832C13.8427 31.3518 13.9629 31.4635 14.042 31.6029C14.1218 31.7576 14.1646 31.9287 14.1669 32.1028C14.1692 32.2768 14.1309 32.4491 14.0552 32.6058C13.9795 32.7464 13.8623 32.8602 13.7195 32.9317C13.554 33.0123 13.3718 33.0527 13.1877 33.0497L12.6335 33.0574L12.6084 31.1848L13.1633 31.1771C13.3473 31.1701 13.5305 31.2064 13.6979 31.2832ZM13.7788 32.6791C13.9142 32.5395 13.9798 32.349 13.9764 32.1047C13.9729 31.8604 13.9024 31.6664 13.767 31.5296C13.6316 31.3928 13.4285 31.3265 13.1681 31.33L12.801 31.3349L12.8213 32.8968L13.1884 32.892C13.4475 32.8896 13.6444 32.8187 13.7788 32.6791Z" fill="#92B5E0"/>
<path d="M7.50443 35.2442C7.41839 35.3157 7.30823 35.3514 7.19664 35.344L6.95027 35.3475L6.95725 35.8682H6.83441L6.81836 34.6468L7.18757 34.6419C7.29863 34.6318 7.40932 34.6648 7.49675 34.734C7.56417 34.8011 7.6027 34.8918 7.60414 34.9869C7.60557 35.0819 7.56979 35.1738 7.50443 35.2428V35.2442ZM7.47861 34.9909C7.48067 34.957 7.47551 34.923 7.46348 34.8913C7.45145 34.8595 7.43282 34.8307 7.40881 34.8066C7.34569 34.7602 7.26762 34.7388 7.18966 34.7466H6.94329L6.94957 35.24L7.19594 35.2366C7.38648 35.2366 7.4807 35.1542 7.47861 34.9909Z" fill="#92B5E0"/>
<path d="M8.96031 34.7249L8.96659 35.1813L9.42932 35.175V35.2762L8.96589 35.2825L8.97218 35.746L9.48795 35.739V35.8402L8.85004 35.8486L8.83398 34.6251L9.4719 34.6167V34.7186L8.96031 34.7249Z" fill="#92B5E0"/>
<path d="M10.5188 34.8968C10.5666 34.8041 10.6391 34.7264 10.7282 34.6721C10.8197 34.6173 10.9244 34.5883 11.0311 34.5884C11.154 34.5836 11.2755 34.6156 11.3801 34.6805C11.4792 34.7452 11.5548 34.8402 11.5957 34.9513H11.4561C11.4229 34.8722 11.3661 34.8052 11.2935 34.7594C11.2152 34.7119 11.1246 34.6888 11.0332 34.6931C10.9482 34.6926 10.8647 34.7153 10.7917 34.7587C10.7198 34.8026 10.6621 34.8663 10.6256 34.9422C10.5867 35.0281 10.5671 35.1216 10.5683 35.2159C10.5695 35.3102 10.5915 35.4031 10.6326 35.488C10.6715 35.5623 10.7308 35.6241 10.8036 35.666C10.8813 35.707 10.9682 35.7274 11.0561 35.7252C11.144 35.723 11.2298 35.6983 11.3054 35.6534C11.3764 35.6064 11.4312 35.5387 11.4624 35.4594H11.6062C11.5675 35.5707 11.4941 35.6666 11.3968 35.733C11.2932 35.8007 11.1716 35.8357 11.0478 35.8335C10.9413 35.8362 10.8359 35.8101 10.7428 35.7581C10.6524 35.7066 10.5778 35.6313 10.5272 35.5403C10.4742 35.4416 10.4459 35.3316 10.4444 35.2196C10.4429 35.1076 10.4685 34.9969 10.5188 34.8968Z" fill="#92B5E0"/>
<path d="M13.9101 34.6401V34.7378H13.3894V35.1789H13.8284V35.2774H13.3887V35.821H13.2708L13.2666 34.6401H13.9101Z" fill="#92B5E0"/>
<path d="M16.0679 34.7039C16.1587 34.7482 16.2338 34.8193 16.2829 34.9077C16.3315 35.006 16.3568 35.1142 16.3568 35.2239C16.3568 35.3335 16.3315 35.4417 16.2829 35.54C16.2341 35.6282 16.1593 35.6991 16.0686 35.7431C15.9637 35.7923 15.8487 35.8162 15.7329 35.8129H15.3839L15.3818 34.6341H15.7308C15.8471 34.6307 15.9625 34.6546 16.0679 34.7039ZM16.1105 35.5861C16.1551 35.5377 16.1895 35.4808 16.2115 35.4188C16.2336 35.3568 16.2429 35.2909 16.2389 35.2253C16.2425 35.1589 16.2327 35.0926 16.2102 35.0301C16.1876 34.9677 16.1528 34.9104 16.1077 34.8616C16.057 34.8157 15.9975 34.7806 15.9329 34.7584C15.8682 34.7362 15.7997 34.7274 15.7315 34.7325H15.5005V35.7173H15.7322C15.801 35.7219 15.87 35.7125 15.9351 35.6895C16.0001 35.6666 16.0598 35.6307 16.1105 35.584V35.5861Z" fill="#92B5E0"/>
<path d="M50.612 10.5552H30.5652C29.9731 10.5552 29.4932 11.0351 29.4932 11.6272V22.1151C29.4932 22.7072 29.9731 23.1871 30.5652 23.1871H50.612C51.2041 23.1871 51.684 22.7072 51.684 22.1151V11.6272C51.684 11.0351 51.2041 10.5552 50.612 10.5552Z" fill="#C9E2FF"/>
<path d="M50.4938 10.8804H30.6829C30.2362 10.8804 29.874 11.2425 29.874 11.6893V22.0543C29.874 22.5011 30.2362 22.8632 30.6829 22.8632H50.4938C50.9406 22.8632 51.3027 22.5011 51.3027 22.0543V11.6893C51.3027 11.2425 50.9406 10.8804 50.4938 10.8804Z" fill="white"/>
<path d="M40.5949 13.835C34.5556 13.835 32.8994 17.7748 32.8994 17.7748C32.8994 17.7748 34.5047 20.5889 39.7818 20.5889C45.352 20.5889 49.4433 16.8598 49.9626 15.9183C47.1924 16.515 44.9967 13.835 40.5949 13.835Z" fill="#C9E2FF"/>
<path d="M47.7393 16.727C47.7393 16.727 44.4715 20.364 40.1087 20.364C39.9147 20.364 39.7265 20.3607 39.5441 20.3542H39.5378C38.8916 20.3326 38.248 20.2607 37.6129 20.1392L37.5759 20.1316C37.4852 20.1141 37.3959 20.0953 37.3093 20.075C36.0712 19.7959 35.2853 19.368 34.7137 19.0902C34.5692 19.0204 34.4387 18.959 34.3187 18.913C34.1756 18.8564 32.9521 18.141 32.9067 17.85C32.8446 17.4522 33.1929 17.1325 33.3771 16.9783C33.4163 16.947 33.4523 16.9119 33.4846 16.8736C33.6397 16.6856 33.8086 16.5095 33.9899 16.3467C34.9475 15.4854 36.3629 14.8286 38.0743 14.5027H38.0966H38.1147C38.352 14.4562 38.5951 14.418 38.8441 14.3882C38.9544 14.3736 39.066 14.3603 39.1777 14.3499C39.2894 14.3394 39.4199 14.3268 39.5427 14.3185H39.5546C39.6774 14.3094 39.8009 14.3017 39.9252 14.2968C40.0182 14.2917 40.1113 14.2882 40.2044 14.2863C40.3286 14.2822 40.4542 14.2808 40.5805 14.2808H40.5896C40.6866 14.2808 40.7822 14.2808 40.8758 14.2843C40.9693 14.2877 41.0684 14.2891 41.1626 14.2933L41.2575 14.2982C41.3888 14.3038 41.5165 14.3122 41.6421 14.3233C41.751 14.3317 41.8571 14.3415 41.9618 14.3533C42.2039 14.3785 42.4371 14.412 42.6597 14.4511C43.2348 14.546 43.8008 14.6898 44.3515 14.881L44.3983 14.897L44.422 14.9061C45.9581 15.4603 46.9597 16.2489 47.7393 16.727Z" fill="white"/>
<path d="M37.3096 20.0762C37.3947 20.0929 37.4841 20.1118 37.5762 20.1327C37.4855 20.1167 37.3961 20.0964 37.3096 20.0762Z" fill="#EBC3C1"/>
<path d="M43.6633 16.7975C43.6633 17.3334 43.5314 17.861 43.2792 18.3338C43.027 18.8066 42.6623 19.2101 42.2173 19.5085C41.7723 19.807 41.2606 19.9914 40.7275 20.0453C40.1943 20.0992 39.6561 20.021 39.1603 19.8177C38.6646 19.6144 38.2265 19.2921 37.8847 18.8794C37.543 18.4666 37.3081 17.9761 37.2008 17.4511C37.0936 16.9261 37.1172 16.3827 37.2696 15.869C37.4221 15.3553 37.6986 14.887 38.0749 14.5055H38.0972C38.0969 14.5022 38.0969 14.499 38.0972 14.4957C38.1045 14.4971 38.1115 14.4995 38.1182 14.5027C38.3555 14.4562 38.5986 14.418 38.8475 14.3882C38.9578 14.3736 39.0694 14.3603 39.1811 14.3499C39.2928 14.3394 39.4233 14.3268 39.5461 14.3185H39.558C39.6808 14.3094 39.8044 14.3017 39.9286 14.2968C40.0217 14.2917 40.1147 14.2882 40.2078 14.2863C40.332 14.2822 40.4576 14.2808 40.584 14.2808H40.593C40.6901 14.2808 40.7857 14.2808 40.8792 14.2843C40.9727 14.2877 41.0718 14.2891 41.166 14.2933L41.261 14.2982C41.3922 14.3038 41.5199 14.3122 41.6455 14.3233C41.7544 14.3317 41.8605 14.3415 41.9652 14.3533C42.2074 14.3785 42.4405 14.412 42.6631 14.4511C42.9794 14.7545 43.2311 15.1189 43.4029 15.5221C43.5748 15.9253 43.6634 16.3592 43.6633 16.7975Z" fill="#C9E2FF"/>
<path d="M43.0215 16.7974C43.0215 16.8595 43.0215 16.9209 43.0145 16.9816C43.0078 17.0871 42.9943 17.192 42.974 17.2957C42.9505 17.4169 42.9185 17.5363 42.8784 17.6531C42.8438 17.7527 42.8033 17.8501 42.757 17.9448C42.703 18.0555 42.6414 18.1623 42.5727 18.2644C42.5132 18.3516 42.4486 18.4353 42.3794 18.515C42.2985 18.6082 42.2111 18.6954 42.1177 18.776C41.8645 18.9966 41.5718 19.1672 41.255 19.2785C41.1383 19.3187 41.0189 19.3506 40.8977 19.3742C40.7941 19.3937 40.6895 19.4073 40.5843 19.4146C40.5229 19.4188 40.4615 19.4216 40.3993 19.4216C40.3372 19.4216 40.2758 19.4216 40.2151 19.4146C40.1099 19.4073 40.0053 19.3937 39.9017 19.3742C39.7805 19.3506 39.6611 19.3187 39.5444 19.2785C39.4443 19.2441 39.3464 19.2035 39.2512 19.1571C39.1403 19.1033 39.0335 19.0415 38.9316 18.9721C38.8439 18.9133 38.7602 18.8487 38.681 18.7788C38.5875 18.6984 38.5 18.6111 38.4193 18.5178C38.3498 18.4383 38.2853 18.3546 38.226 18.2672C38.1573 18.165 38.0957 18.0582 38.0417 17.9476C37.9954 17.8529 37.9548 17.7554 37.9203 17.6558C37.8808 17.5381 37.8495 17.4178 37.8268 17.2957C37.8065 17.192 37.793 17.0871 37.7863 16.9816C37.7821 16.9209 37.7793 16.8595 37.7793 16.7974C37.7793 16.7353 37.7793 16.6738 37.7863 16.6124C37.793 16.507 37.8065 16.4021 37.8268 16.2984C37.85 16.1775 37.8822 16.0585 37.9231 15.9424C37.9972 15.7255 38.1003 15.5197 38.2295 15.3303C38.2885 15.2434 38.3526 15.1599 38.4214 15.0805C38.5019 14.9867 38.5894 14.8992 38.6831 14.8187C38.7628 14.7497 38.8465 14.6854 38.9337 14.6261C39.0359 14.5569 39.143 14.4951 39.254 14.4411C39.3489 14.3947 39.4466 14.3541 39.5465 14.3197C39.5501 14.318 39.5538 14.3166 39.5576 14.3155C39.6805 14.3064 39.804 14.2988 39.9282 14.2939C40.0213 14.2888 40.1144 14.2853 40.2074 14.2834C40.3316 14.2792 40.4573 14.2778 40.5836 14.2778H40.5927C40.6897 14.2778 40.7853 14.2778 40.8788 14.2813C40.9724 14.2848 41.0715 14.2862 41.1657 14.2904C41.1964 14.2995 41.2264 14.3092 41.2564 14.3204C41.3561 14.3546 41.4535 14.3949 41.5482 14.4411C41.7539 14.5416 41.9456 14.6685 42.1184 14.8187C42.2119 14.8994 42.2994 14.9869 42.3801 15.0805C42.4493 15.1595 42.5136 15.2427 42.5727 15.3296C42.6414 15.4318 42.703 15.5386 42.757 15.6493C42.8031 15.7442 42.8434 15.8419 42.8777 15.9417C42.9186 16.0578 42.9507 16.1768 42.974 16.2977C42.9943 16.4014 43.0078 16.5063 43.0145 16.6117C43.0187 16.6738 43.0215 16.7353 43.0215 16.7974Z" fill="#DEEDFF"/>
<g style="mix-blend-mode:multiply">
<path d="M40.5969 14.3694C40.5964 14.5093 40.5796 14.6487 40.5466 14.7847C40.5143 14.9294 40.4653 15.0699 40.4008 15.2034C40.3362 15.0699 40.2873 14.9294 40.2549 14.7847C40.2228 14.6486 40.2064 14.5092 40.2061 14.3694C40.2061 14.3401 40.2061 14.3108 40.2061 14.2815C40.3303 14.2773 40.4559 14.2759 40.5822 14.2759H40.5913C40.5955 14.3066 40.5969 14.338 40.5969 14.3694Z" fill="#E6EFFA"/>
</g>
<g style="mix-blend-mode:multiply">
<path d="M39.9913 15.2582C39.8946 15.1458 39.8108 15.0229 39.7415 14.8918C39.6756 14.7689 39.6239 14.639 39.5872 14.5044C39.5706 14.4436 39.5578 14.3819 39.5488 14.3195H39.5607C39.6835 14.3104 39.8071 14.3027 39.9313 14.2979C39.9439 14.3334 39.9557 14.3676 39.9655 14.4081C40.001 14.5429 40.0207 14.6813 40.0241 14.8206C40.0302 14.9673 40.0192 15.1141 39.9913 15.2582Z" fill="#E6EFFA"/>
</g>
<g style="mix-blend-mode:multiply">
<path d="M39.6017 15.4173C39.3631 15.2546 39.163 15.0417 39.0154 14.7934C38.9833 14.7375 38.9554 14.681 38.9303 14.6252C38.8963 14.5471 38.8674 14.4669 38.8438 14.3851C38.954 14.3704 39.0657 14.3571 39.1774 14.3467C39.2025 14.376 39.2269 14.4074 39.2506 14.4402C39.2883 14.4906 39.3228 14.5433 39.3539 14.5979C39.4232 14.719 39.4784 14.8476 39.5187 14.9811C39.5632 15.1228 39.5911 15.2692 39.6017 15.4173Z" fill="#E6EFFA"/>
</g>
<g style="mix-blend-mode:multiply">
<path d="M39.2718 15.6709C39.1321 15.6224 38.9986 15.5578 38.874 15.4782C38.7921 15.428 38.7144 15.3712 38.6416 15.3086C38.6088 15.2807 38.5766 15.2521 38.5452 15.2207C38.5007 15.1766 38.4588 15.13 38.4196 15.0811C38.2813 14.9077 38.1726 14.7127 38.0979 14.5039C38.0976 14.5007 38.0976 14.4974 38.0979 14.4941C38.1051 14.4956 38.1122 14.4979 38.1188 14.5011C38.3229 14.5767 38.5137 14.6841 38.6841 14.8194C38.7331 14.8584 38.7798 14.9004 38.8237 14.945C38.8933 15.0141 38.9568 15.0891 39.0136 15.169C39.0394 15.2039 39.0617 15.2388 39.0834 15.2716C39.161 15.3972 39.2243 15.5311 39.2718 15.6709Z" fill="#E6EFFA"/>
</g>
<g style="mix-blend-mode:multiply">
<path d="M38.3936 15.4141C38.6416 15.562 38.8545 15.762 39.0175 16.0003C38.729 15.982 38.4487 15.8972 38.1983 15.7527C37.9479 15.6081 37.7344 15.4077 37.5742 15.167C37.862 15.1892 38.1415 15.2735 38.3936 15.4141Z" fill="#E6EFFA"/>
</g>
<g style="mix-blend-mode:multiply">
<path d="M38.1066 15.9813C38.3845 16.06 38.6419 16.1981 38.8611 16.3861C38.5776 16.443 38.2848 16.4337 38.0056 16.3589C37.7263 16.2841 37.468 16.1458 37.251 15.9548C37.5347 15.9013 37.8267 15.9103 38.1066 15.9813Z" fill="#E6EFFA"/>
</g>
<g style="mix-blend-mode:multiply">
<path d="M37.9741 16.6016C38.262 16.6059 38.5456 16.6726 38.8053 16.797C38.5465 16.926 38.2612 16.9931 37.972 16.9931C37.6828 16.9931 37.3975 16.926 37.1387 16.797C37.3997 16.672 37.6847 16.6053 37.9741 16.6016Z" fill="#E6EFFA"/>
</g>
<g style="mix-blend-mode:multiply">
<path d="M38.0054 17.2359C38.2853 17.165 38.5773 17.1557 38.8611 17.2087C38.6443 17.4001 38.3861 17.5387 38.1067 17.6135C37.8273 17.6883 37.5344 17.6974 37.251 17.64C37.4703 17.4524 37.7277 17.3146 38.0054 17.2359Z" fill="#E6EFFA"/>
</g>
<g style="mix-blend-mode:multiply">
<path d="M38.1982 17.8415C38.4501 17.7005 38.7297 17.616 39.0175 17.5938C38.8577 17.8347 38.6442 18.0353 38.3937 18.1799C38.1433 18.3245 37.8628 18.4091 37.5742 18.4271C37.7372 18.1889 37.9502 17.9891 38.1982 17.8415Z" fill="#E6EFFA"/>
</g>
<g style="mix-blend-mode:multiply">
<path d="M38.5456 18.3752C38.7528 18.174 39.0012 18.0202 39.2735 17.9243C39.1811 18.1982 39.0266 18.4471 38.8221 18.6515C38.6177 18.8558 38.3687 19.0102 38.0947 19.1024C38.1906 18.8302 38.3444 18.5821 38.5456 18.3752Z" fill="#E6EFFA"/>
</g>
<g style="mix-blend-mode:multiply">
<path d="M39.0186 18.8017C39.1665 18.5537 39.3665 18.3408 39.6048 18.1777C39.5865 18.4662 39.5017 18.7466 39.3572 18.997C39.2126 19.2473 39.0122 19.4609 38.7715 19.6211C38.7933 19.3332 38.8776 19.0536 39.0186 18.8017Z" fill="#E6EFFA"/>
</g>
<g style="mix-blend-mode:multiply">
<path d="M39.5836 19.0914C39.6629 18.8132 39.802 18.5558 39.9912 18.3369C40.0486 18.6203 40.0395 18.9131 39.9647 19.1923C39.8898 19.4716 39.7513 19.7297 39.5598 19.9464C39.5056 19.663 39.5137 19.3713 39.5836 19.0914Z" fill="#E6EFFA"/>
</g>
<g style="mix-blend-mode:multiply">
<path d="M40.2041 19.2244C40.208 18.9358 40.2747 18.6514 40.3995 18.3911C40.528 18.6501 40.5949 18.9353 40.5949 19.2244C40.5949 19.5136 40.528 19.7988 40.3995 20.0578C40.2748 19.7974 40.2082 19.5131 40.2041 19.2244Z" fill="#E6EFFA"/>
</g>
<g style="mix-blend-mode:multiply">
<path d="M40.8385 19.1926C40.7675 18.9127 40.7582 18.6207 40.8113 18.3369C41.0032 18.5533 41.1424 18.8113 41.2178 19.0905C41.2933 19.3698 41.3029 19.6627 41.2461 19.9464C41.0568 19.7278 40.9177 19.4706 40.8385 19.1926Z" fill="#E6EFFA"/>
</g>
<g style="mix-blend-mode:multiply">
<path d="M41.4443 19C41.3037 18.748 41.2195 18.4684 41.1973 18.1807C41.438 18.3408 41.6384 18.5544 41.7829 18.8048C41.9275 19.0551 42.0122 19.3355 42.0306 19.624C41.7923 19.4609 41.5923 19.248 41.4443 19Z" fill="#E6EFFA"/>
</g>
<g style="mix-blend-mode:multiply">
<path d="M41.9779 18.6509C41.7766 18.4442 41.6225 18.1963 41.5264 17.9243C41.8003 18.0165 42.0492 18.1708 42.2536 18.3752C42.458 18.5796 42.6123 18.8285 42.7045 19.1024C42.4323 19.0066 42.1843 18.8525 41.9779 18.6509Z" fill="#E6EFFA"/>
</g>
<g style="mix-blend-mode:multiply">
<path d="M42.4033 18.18C42.1553 18.0321 41.9424 17.832 41.7793 17.5938C42.0678 17.6121 42.3482 17.6969 42.5985 17.8414C42.8489 17.986 43.0625 18.1864 43.2226 18.4271C42.9349 18.4049 42.6553 18.3206 42.4033 18.18Z" fill="#E6EFFA"/>
</g>
<g style="mix-blend-mode:multiply">
<path d="M42.6913 17.6156C42.4137 17.5367 42.1565 17.3986 41.9375 17.2108C42.2211 17.1537 42.514 17.1629 42.7935 17.2377C43.0729 17.3125 43.3312 17.4509 43.5483 17.6421C43.2641 17.6958 42.9716 17.6867 42.6913 17.6156Z" fill="#E6EFFA"/>
</g>
<g style="mix-blend-mode:multiply">
<path d="M42.8238 16.9945C42.5353 16.9905 42.2512 16.9236 41.9912 16.7984C42.2501 16.6699 42.5352 16.603 42.8242 16.603C43.1132 16.603 43.3983 16.6699 43.6572 16.7984C43.397 16.9236 43.1126 16.9906 42.8238 16.9945Z" fill="#E6EFFA"/>
</g>
<g style="mix-blend-mode:multiply">
<path d="M42.7925 16.3576C42.5128 16.4286 42.2211 16.4379 41.9375 16.3848C42.1543 16.1932 42.4127 16.0545 42.6922 15.9796C42.9717 15.9048 43.2648 15.8959 43.5483 15.9535C43.3286 16.1413 43.0707 16.2791 42.7925 16.3576Z" fill="#E6EFFA"/>
</g>
<g style="mix-blend-mode:multiply">
<path d="M42.5987 15.7527C42.3466 15.8929 42.067 15.9768 41.7793 15.9984C41.9392 15.7574 42.1527 15.5568 42.4031 15.4122C42.6535 15.2676 42.934 15.183 43.2226 15.165C43.0598 15.404 42.8469 15.6045 42.5987 15.7527Z" fill="#E6EFFA"/>
</g>
<g style="mix-blend-mode:multiply">
<path d="M42.2543 15.2199C42.0472 15.4212 41.7988 15.5751 41.5264 15.6708C41.6185 15.3968 41.7729 15.1479 41.9772 14.9435C42.1816 14.7392 42.4305 14.5848 42.7045 14.4927C42.6089 14.7648 42.4553 15.013 42.2543 15.2199Z" fill="#E6EFFA"/>
</g>
<g style="mix-blend-mode:multiply">
<path d="M41.965 14.3503C41.94 14.4457 41.9076 14.5391 41.868 14.6294C41.8432 14.6871 41.815 14.7433 41.7835 14.7976C41.7129 14.9181 41.6288 15.0303 41.533 15.1319C41.4328 15.2413 41.3201 15.3385 41.1973 15.4216C41.2079 15.2734 41.2358 15.1271 41.2803 14.9854C41.3209 14.852 41.3761 14.7234 41.445 14.6022C41.4762 14.5476 41.5107 14.4949 41.5483 14.4445C41.5804 14.4012 41.6125 14.3607 41.6453 14.3237C41.7542 14.3286 41.8603 14.3384 41.965 14.3503Z" fill="#E6EFFA"/>
</g>
<g style="mix-blend-mode:multiply">
<path d="M41.2585 14.2937C41.2578 14.3022 41.2564 14.3106 41.2543 14.3189C41.2454 14.3813 41.2326 14.443 41.216 14.5038C41.1793 14.6382 41.1273 14.7679 41.061 14.8905C40.9922 15.0223 40.9084 15.1458 40.8112 15.2583C40.7836 15.1125 40.7728 14.964 40.7791 14.8158C40.7827 14.6762 40.8026 14.5376 40.8384 14.4026C40.8502 14.36 40.8628 14.3196 40.8768 14.2798C40.9738 14.2798 41.0694 14.2847 41.1636 14.2889L41.2585 14.2937Z" fill="#E6EFFA"/>
</g>
<path d="M40.4005 18.8153C41.5149 18.8153 42.4183 17.9119 42.4183 16.7975C42.4183 15.6832 41.5149 14.7798 40.4005 14.7798C39.2862 14.7798 38.3828 15.6832 38.3828 16.7975C38.3828 17.9119 39.2862 18.8153 40.4005 18.8153Z" fill="#ABD2FF"/>
<path d="M38.7702 16.6703C39.1854 16.6703 39.5219 16.3338 39.5219 15.9187C39.5219 15.5035 39.1854 15.167 38.7702 15.167C38.3551 15.167 38.0186 15.5035 38.0186 15.9187C38.0186 16.3338 38.3551 16.6703 38.7702 16.6703Z" fill="white"/>
<path d="M38.1816 17.0707C38.1816 17.0212 38.1963 16.9729 38.2238 16.9318C38.2512 16.8908 38.2902 16.8587 38.3359 16.8398C38.3815 16.8209 38.4318 16.816 38.4802 16.8256C38.5287 16.8352 38.5732 16.859 38.6082 16.894C38.6431 16.9289 38.6669 16.9734 38.6766 17.0219C38.6862 17.0704 38.6813 17.1206 38.6623 17.1663C38.6434 17.2119 38.6114 17.251 38.5703 17.2784C38.5292 17.3059 38.4809 17.3205 38.4315 17.3205C38.3653 17.3203 38.3018 17.294 38.255 17.2471C38.2082 17.2003 38.1818 17.1369 38.1816 17.0707Z" fill="white"/>
<path d="M12.4228 67.7168C11.9936 65.8708 11.7088 60.5665 12.6964 57.0098C13.5514 53.9312 12.7111 52.1242 12.7027 52.1075L12.8849 52.0195C12.9212 52.0949 13.7685 53.904 12.8912 57.0642C11.914 60.5881 12.1932 65.8422 12.6204 67.6728L12.4228 67.7168Z" fill="#09A8A9"/>
<path d="M13.4359 67.8657C13.2964 67.8175 12.6229 67.3192 12.895 62.2417C13.1686 57.1217 10.5067 56.2939 10.4795 56.2855L10.536 56.0908C10.6519 56.125 13.3794 56.9737 13.0968 62.2522C12.8315 67.2145 13.5057 67.6745 13.5155 67.6787L13.4359 67.8657Z" fill="#09A8A9"/>
<path d="M13.0825 67.5761C12.9317 66.9319 13.2088 65.5227 13.5012 64.0312C13.6981 63.0269 13.9019 61.9884 13.943 61.2842C13.9849 60.566 13.8732 59.7096 13.7644 58.8819C13.6122 57.7205 13.4691 56.624 13.7092 55.8493C13.7776 55.6154 13.9025 55.4018 14.0729 55.2275C14.2433 55.0533 14.454 54.9236 14.6863 54.8499C14.9442 54.775 15.2163 54.7635 15.4796 54.8162C15.7429 54.8689 15.9896 54.9844 16.1988 55.1528L16.0738 55.3126C15.8912 55.1635 15.6752 55.0609 15.4442 55.0137C15.2133 54.9664 14.9743 54.9758 14.7478 55.0411C14.5465 55.1038 14.3642 55.2158 14.2173 55.367C14.0704 55.5181 13.9637 55.7036 13.9067 55.9066C13.6792 56.6387 13.8195 57.7142 13.9689 58.8526C14.0784 59.6901 14.1915 60.5555 14.1489 61.2953C14.1071 62.0135 13.9019 63.0583 13.7036 64.0696C13.4245 65.4746 13.1418 66.927 13.2849 67.53L13.0825 67.5761Z" fill="#09A8A9"/>
<path d="M7.24266 58.5896C7.82893 58.3481 8.51011 57.2021 9.15082 57.2286C9.29669 57.958 8.21628 57.9894 7.81078 58.4221C7.47508 58.8688 9.06707 59.1131 9.75663 58.6559C10.3338 58.3069 10.0875 57.4778 10.7072 56.2376C11.2209 55.1704 11.6069 55.1355 11.648 54.4976C11.7234 53.3293 10.5111 52.2705 10.3827 52.3473C10.3303 52.378 10.479 52.5776 10.5432 53.1024C10.59 53.1457 10.59 55.2123 10.0546 54.5346C9.67846 53.6775 10.6535 53.0389 9.99742 52.0667C9.50886 51.338 8.24281 51.3688 8.21628 51.456C8.85699 51.6026 9.26947 53.2441 8.99518 53.9064C8.79836 54.2896 8.63853 53.9679 8.58061 53.5819C8.22326 52.3361 8.12136 51.6542 7.20148 51.1587C6.07362 50.5508 5.19422 51.6263 3.77322 51.8769C3.77322 51.8769 3.45008 53.6161 4.1543 54.5723C4.83269 55.4929 5.76653 54.6142 6.51053 54.8284C6.84205 54.8905 6.92929 55.317 6.72479 55.5208C6.43934 55.9395 5.77002 55.9856 5.28705 56.0093C4.48651 56.0519 4.19966 55.8837 4.11033 56.0331C3.85907 56.4225 5.11535 57.4757 5.79165 57.2258C6.64802 57.2845 7.58675 55.83 8.45219 56.195C8.4801 56.8741 6.78621 57.6481 6.05617 57.7046C5.66812 57.69 5.4036 57.5183 5.36801 57.579C5.55366 57.9545 6.69897 58.7711 7.24266 58.5896Z" fill="#399992"/>
<path d="M8.6801 58.447C8.87653 58.4202 9.06355 58.3462 9.22518 58.2314C9.38002 58.12 9.50806 57.9755 9.59998 57.8084C9.69705 57.6233 9.78101 57.4316 9.85123 57.2347C9.93385 57.0238 10.0289 56.818 10.136 56.6184C10.1828 56.5269 10.2348 56.4382 10.2916 56.3525C10.3128 56.3151 10.3417 56.2826 10.3765 56.2573C10.4113 56.232 10.4512 56.2145 10.4933 56.206C10.5073 56.2136 10.5213 56.2206 10.5345 56.229C10.5799 56.2562 10.6252 56.2841 10.6692 56.3141C10.6692 56.3072 10.6748 56.3009 10.6783 56.2939C10.5983 56.2399 10.5154 56.1905 10.4298 56.1459C10.3999 56.1164 10.3743 56.0828 10.3537 56.0461C10.3304 56.0125 10.3164 55.9732 10.3133 55.9324C10.3188 55.872 10.3346 55.8129 10.36 55.7579C10.3824 55.7027 10.4061 55.6476 10.4298 55.5939C10.6043 55.2142 10.8311 54.8561 10.9568 54.4555C11.0601 54.1254 11.0963 53.7625 10.9686 53.4344C10.9672 53.4321 10.965 53.4303 10.9624 53.4295C10.9598 53.4287 10.957 53.4289 10.9545 53.43C10.952 53.4311 10.95 53.4331 10.9489 53.4356C10.9477 53.4381 10.9476 53.4409 10.9484 53.4435C11.0185 53.6361 11.0424 53.8424 11.0182 54.0458C10.9791 54.4444 10.8011 54.8066 10.6204 55.1584C10.5199 55.3531 10.418 55.5471 10.3356 55.7502C10.2946 55.8239 10.2818 55.9099 10.2993 55.9924C10.3156 56.0382 10.3392 56.0811 10.3691 56.1194C10.1224 56.0069 9.86734 55.9135 9.60626 55.8402L9.56996 55.8291C9.43683 55.6825 9.34527 55.503 9.30475 55.3091C9.21471 54.9169 9.30475 54.5239 9.40595 54.1435C9.43387 54.0396 9.46248 53.9342 9.48831 53.8309C9.51567 53.7329 9.53573 53.6331 9.54833 53.5322C9.56647 53.3598 9.53716 53.1713 9.40874 53.0436C9.39897 53.0338 9.38152 53.0478 9.39199 53.0576C9.55391 53.2167 9.54693 53.4582 9.50436 53.6641C9.42061 54.0745 9.25938 54.4716 9.24473 54.8945C9.23286 55.2191 9.31452 55.5673 9.52948 55.8165C9.28505 55.747 9.04728 55.6559 8.81898 55.5443C8.69637 55.4796 8.57961 55.4045 8.47002 55.3196H8.46583C8.36672 55.2428 8.2725 55.1604 8.18107 55.0746C8.02892 54.9315 7.88375 54.7815 7.733 54.6363C7.65002 54.4326 7.60008 54.2171 7.58503 53.9977C7.54525 53.6075 7.57456 53.2034 7.44545 52.8272C7.33168 52.4922 7.05181 52.1698 6.67772 52.1572C6.67476 52.1572 6.67191 52.1584 6.66982 52.1605C6.66773 52.1626 6.66655 52.1654 6.66655 52.1684C6.66655 52.1714 6.66773 52.1742 6.66982 52.1763C6.67191 52.1784 6.67476 52.1796 6.67772 52.1796C6.78042 52.1867 6.88062 52.2145 6.97226 52.2614C7.06391 52.3083 7.1451 52.3733 7.21094 52.4525C7.47616 52.7505 7.51803 53.1643 7.53757 53.5461C7.55502 53.8951 7.5627 54.2678 7.69601 54.5986L7.63808 54.5428C7.44247 54.3612 7.22736 54.2018 6.99667 54.0675C6.52208 53.7918 6.00002 53.6145 5.48215 53.4393C5.47952 53.4389 5.47682 53.4394 5.47454 53.4408C5.47225 53.4421 5.47053 53.4443 5.46969 53.4468C5.46885 53.4493 5.46894 53.4521 5.46994 53.4546C5.47095 53.457 5.4728 53.4591 5.47517 53.4603L5.66501 53.5245C6.16264 53.6941 6.66306 53.8783 7.10904 54.161C6.9666 54.1441 6.8222 54.1564 6.6847 54.1973C6.5137 54.2357 6.3127 54.2727 6.16055 54.1603C6.15935 54.1594 6.158 54.1588 6.15657 54.1585C6.15514 54.1581 6.15365 54.158 6.15219 54.1583C6.15073 54.1585 6.14933 54.159 6.14807 54.1598C6.14681 54.1605 6.14571 54.1616 6.14484 54.1627C6.14397 54.1639 6.14334 54.1653 6.143 54.1667C6.14265 54.1682 6.14258 54.1696 6.14281 54.1711C6.14304 54.1726 6.14355 54.174 6.14432 54.1752C6.14509 54.1765 6.14609 54.1776 6.14729 54.1784C6.29036 54.2838 6.4795 54.2643 6.64282 54.2294C6.80614 54.1945 6.99877 54.138 7.16837 54.2008C7.38606 54.3502 7.58934 54.5196 7.77557 54.7068C7.95703 54.8841 8.13222 55.0676 8.32485 55.233L8.38068 55.2798C8.18318 55.2196 7.97042 55.2345 7.78325 55.3217C7.56828 55.4117 7.39031 55.5694 7.21583 55.7202C7.04671 55.8728 6.86243 56.0078 6.66585 56.1229C6.28103 56.3415 5.85132 56.4692 5.40957 56.4963C5.39491 56.4963 5.3991 56.5193 5.41306 56.5186C5.65309 56.5039 5.89035 56.4594 6.11937 56.386C6.32477 56.3205 6.52232 56.2325 6.70843 56.1236C6.89731 56.0084 7.07511 55.8759 7.23956 55.7279C7.41474 55.5764 7.59411 55.4201 7.81256 55.3335C8.01357 55.254 8.25784 55.2261 8.45327 55.3377C8.61613 55.46 8.79332 55.562 8.98091 55.6413C9.24021 55.7452 9.50487 55.8351 9.77376 55.9107L9.84355 55.9324C9.69185 55.9602 9.54858 56.0225 9.42479 56.1145C9.29451 56.215 9.17583 56.3297 9.07094 56.4565C8.96128 56.5853 8.84479 56.708 8.72197 56.8243C8.47911 57.0477 8.20783 57.238 7.91516 57.3903C7.90259 57.3973 7.91167 57.4176 7.92423 57.4106C8.08465 57.3271 8.23883 57.2322 8.38557 57.1265C8.51733 57.0323 8.64277 56.9294 8.76106 56.8187C8.8818 56.705 8.99207 56.5821 9.10235 56.4579C9.20868 56.3298 9.33006 56.215 9.46388 56.1159C9.5913 56.0253 9.73932 55.968 9.8945 55.9491C10.0922 56.012 10.284 56.0923 10.4675 56.1892C10.3915 56.2117 10.3264 56.2614 10.2846 56.3288C10.2189 56.4238 10.1602 56.5234 10.1088 56.6268C10.0042 56.8218 9.91095 57.0227 9.8296 57.2284C9.75892 57.4301 9.67258 57.6258 9.57136 57.814C9.4755 57.9815 9.34251 58.1247 9.18261 58.2328C9.0305 58.3343 8.85718 58.3997 8.67591 58.424C8.66265 58.4268 8.66614 58.4484 8.6801 58.447Z" fill="#8DB5E0"/>
<path d="M20.0239 53.8276C19.3958 53.9225 18.4619 54.8745 17.8464 54.6944C17.8785 53.9511 18.9351 54.1786 19.4321 53.8569C19.8648 53.5037 18.3761 52.886 17.5986 53.1659C16.9544 53.3683 16.9963 54.2317 16.0987 55.2876C15.345 56.2019 14.9625 56.144 14.7726 56.7533C14.4237 57.87 15.3457 59.1863 15.4894 59.143C15.5467 59.1256 15.451 58.896 15.5132 58.3711C15.4783 58.3181 15.971 56.3108 16.3304 57.0967C16.4917 58.0194 15.3924 58.4074 15.7979 59.5074C16.1022 60.333 17.3334 60.6073 17.3822 60.5256C16.7946 60.2304 16.7855 58.5379 17.2091 57.96C17.4925 57.6348 17.5707 57.9852 17.5344 58.3739C17.5846 59.6693 17.5211 60.3554 18.2965 61.0561C19.2471 61.9152 20.3575 61.0805 21.7967 61.1761C21.7967 61.1761 22.526 59.5639 22.0696 58.4674C21.6306 57.4122 20.5139 58.0424 19.8425 57.6564C19.5354 57.5168 19.5521 57.0855 19.7999 56.9334C20.1768 56.5921 20.8377 56.71 21.313 56.8001C22.1003 56.9494 22.339 57.1811 22.4611 57.0576C22.7961 56.7407 21.8274 55.4189 21.112 55.4998C20.294 55.2388 19.0349 56.4267 18.2819 55.8669C18.4166 55.2004 20.2466 54.8528 20.9689 54.9722C21.3423 55.0783 21.558 55.3079 21.6075 55.2583C21.5126 54.8458 20.5899 53.778 20.0239 53.8276Z" fill="#399992"/>
<path d="M18.5934 53.6223C18.3963 53.601 18.197 53.6281 18.0127 53.7011C17.8358 53.7726 17.677 53.8825 17.5478 54.0229C17.4094 54.1794 17.282 54.3455 17.1668 54.5198C17.0362 54.7049 16.8947 54.882 16.7431 55.0502C16.6758 55.1277 16.6043 55.2013 16.5289 55.2708C16.4996 55.3022 16.4638 55.3269 16.424 55.3432C16.3843 55.3594 16.3415 55.3669 16.2985 55.365C16.2874 55.3539 16.2755 55.3441 16.2643 55.3322C16.226 55.2952 16.189 55.2575 16.1541 55.2171L16.1401 55.2352C16.2049 55.3065 16.2736 55.3741 16.346 55.4376C16.3686 55.473 16.3858 55.5116 16.397 55.5521C16.4113 55.5904 16.4154 55.6317 16.4088 55.6721C16.3895 55.7298 16.36 55.7834 16.3216 55.8305C16.2867 55.8787 16.2518 55.9262 16.2141 55.9701C15.9538 56.2968 15.6474 56.5906 15.4303 56.9472C15.2516 57.2432 15.1302 57.5872 15.1756 57.9362C15.1756 57.9502 15.1993 57.946 15.1972 57.9313C15.1745 57.7278 15.1999 57.5217 15.2712 57.3297C15.4045 56.9521 15.6634 56.6429 15.9224 56.3442C16.0661 56.1795 16.212 56.0155 16.3411 55.8375C16.3985 55.7756 16.4314 55.695 16.4339 55.6107C16.4278 55.5622 16.4139 55.5151 16.3928 55.4711C16.6058 55.6388 16.8314 55.7897 17.0677 55.9227L17.1005 55.9422C17.1946 56.1166 17.2406 56.313 17.2338 56.511C17.2282 56.913 17.0474 57.2732 16.8576 57.618C16.8059 57.7129 16.7529 57.8071 16.7026 57.9027C16.6529 57.9926 16.6096 58.0859 16.5728 58.1819C16.5149 58.3445 16.4982 58.535 16.5924 58.6879C16.6001 58.7005 16.6203 58.6879 16.6126 58.6788C16.4933 58.4855 16.5575 58.2531 16.6475 58.0625C16.8269 57.6843 17.0781 57.3374 17.194 56.9298C17.2826 56.6178 17.2889 56.2605 17.1368 55.9666C17.3587 56.092 17.569 56.237 17.7649 56.4001C17.8683 56.4922 17.9636 56.5931 18.0497 56.7016H18.0532C18.1313 56.7993 18.2032 56.9026 18.2716 57.008C18.3854 57.1831 18.4908 57.3632 18.6024 57.5398C18.6342 57.7573 18.6314 57.9785 18.5941 58.1951C18.5389 58.5832 18.4147 58.9692 18.4489 59.3656C18.4803 59.7146 18.675 60.097 19.0372 60.2031C19.0512 60.2031 19.0582 60.1857 19.0442 60.1822C18.9462 60.1507 18.8555 60.0998 18.7776 60.0324C18.6998 59.965 18.6364 59.8825 18.5913 59.7899C18.4049 59.4368 18.4628 59.0222 18.5354 58.6488C18.6052 58.3033 18.6827 57.9425 18.6317 57.5893C18.6464 57.6117 18.6604 57.6347 18.675 57.6591C18.8218 57.8819 18.9927 58.0879 19.1845 58.2733C19.5795 58.6544 20.0444 58.951 20.5057 59.2434C20.5176 59.2518 20.5294 59.233 20.5176 59.2253C20.461 59.1897 20.4045 59.1555 20.3487 59.1178C19.9055 58.8345 19.4637 58.5357 19.098 58.1547C19.2315 58.2054 19.3741 58.2279 19.5167 58.221C19.6919 58.2245 19.8957 58.237 20.0171 58.3815C20.0262 58.3927 20.043 58.378 20.0339 58.3675C19.9201 58.2279 19.7317 58.2049 19.5649 58.2C19.3981 58.1951 19.1978 58.2 19.0477 58.1023C18.8719 57.9052 18.7149 57.6921 18.5787 57.4658C18.4454 57.2508 18.3184 57.031 18.1704 56.8244C18.1565 56.8042 18.1418 56.7846 18.1271 56.7658C18.3047 56.8711 18.515 56.9072 18.7176 56.867C18.9479 56.8307 19.1587 56.7204 19.3639 56.615C19.564 56.5077 19.7745 56.4207 19.992 56.3554C20.4175 56.235 20.8648 56.2133 21.3 56.2919C21.3139 56.2919 21.3153 56.2723 21.3 56.2695C20.8497 56.1882 20.3866 56.2138 19.9481 56.3442C19.7371 56.4113 19.5327 56.4975 19.3374 56.6018C19.1315 56.7078 18.9186 56.8167 18.6876 56.8488C18.4733 56.8781 18.2297 56.8488 18.0664 56.6918C17.9401 56.5336 17.7953 56.3912 17.6351 56.2674C17.4081 56.1047 17.1725 55.9542 16.9295 55.8166L16.8688 55.7789C17.0231 55.7887 17.1777 55.7626 17.3203 55.7028C17.4706 55.636 17.6132 55.5529 17.7454 55.455C17.8836 55.3565 18.0269 55.2652 18.1746 55.1815C18.4638 55.0227 18.7726 54.9026 19.0931 54.8241C19.107 54.8206 19.1029 54.799 19.0889 54.8025C18.9133 54.8456 18.741 54.9008 18.5731 54.9679C18.4228 55.0281 18.2767 55.098 18.1355 55.1773C17.9903 55.2589 17.8563 55.3518 17.7168 55.446C17.5828 55.5452 17.4373 55.6277 17.2833 55.6917C17.1382 55.7497 16.9807 55.7703 16.8255 55.7517C16.6472 55.6436 16.4788 55.5201 16.3223 55.3825C16.4007 55.3784 16.475 55.3462 16.5317 55.2917C16.6173 55.2148 16.6977 55.1323 16.7724 55.0447C16.9202 54.88 17.0581 54.7069 17.1856 54.5261C17.3023 54.3471 17.4328 54.1775 17.5758 54.0187C17.709 53.8783 17.8725 53.7701 18.0539 53.7025C18.2261 53.6407 18.41 53.6185 18.592 53.6376C18.6059 53.6453 18.6073 53.6237 18.5934 53.6223Z" fill="#8DB5E0"/>
<path d="M8.88047 51.0643C9.43881 51.363 10.7579 51.1613 11.1439 51.6729C10.6735 52.2494 9.96296 51.4349 9.37111 51.3937C8.81277 51.4182 9.63633 52.8036 10.4264 53.045C11.0636 53.2684 11.5473 52.5516 12.8978 52.2424C14.0487 51.9632 14.3209 52.2368 14.8401 51.8634C15.7893 51.1795 15.8368 49.5707 15.6965 49.5198C15.6393 49.4995 15.5793 49.7403 15.2149 50.1242C15.2149 50.187 13.6153 51.5005 13.7974 50.6553C14.2211 49.8178 15.3329 50.1668 15.6672 49.0431C15.9171 48.2 15.0942 47.2424 15.0069 47.2794C15.3008 47.8678 14.2958 49.2287 13.6111 49.4381C13.1923 49.5295 13.3368 49.2015 13.5985 48.9119C14.332 47.8468 14.7934 47.3359 14.5917 46.31C14.3446 45.0537 12.9557 45.0572 11.8593 44.1191C11.8593 44.1191 10.3105 44.9741 10.0202 46.1257C9.74102 47.234 11.012 47.3973 11.3191 48.1085C11.4824 48.4031 11.2102 48.7367 10.9198 48.713C10.4138 48.7604 9.95529 48.2712 9.62796 47.9145C9.08636 47.3234 9.03471 46.9953 8.86023 47.0212C8.40238 47.0742 8.38772 48.7137 9.00889 49.0766C9.50791 49.7745 11.2276 49.5763 11.4963 50.4725C10.9889 50.9261 9.31528 50.1095 8.80788 49.5812C8.57268 49.2727 8.53708 48.9593 8.46729 48.9698C8.29839 49.3558 8.3968 50.7621 8.88047 51.0643Z" fill="#55BDB5"/>
<path d="M9.91161 52.0813C10.057 52.2158 10.2327 52.3133 10.4239 52.3653C10.6083 52.4137 10.8011 52.4209 10.9885 52.3863C11.1933 52.3436 11.3948 52.2864 11.5915 52.2153C11.8067 52.1454 12.0257 52.0883 12.2476 52.0443C12.3481 52.0224 12.4497 52.0061 12.5519 51.9954C12.5942 51.9879 12.6376 51.9896 12.6792 52.0005C12.7207 52.0113 12.7595 52.031 12.7927 52.0582C12.7927 52.0743 12.7983 52.0896 12.8011 52.105C12.8087 52.1573 12.8157 52.2104 12.8206 52.2634C12.8276 52.2608 12.8349 52.259 12.8422 52.2578C12.8325 52.1618 12.8179 52.0662 12.7983 51.9717C12.8018 51.9296 12.8115 51.8882 12.8269 51.8488C12.8381 51.8097 12.8596 51.7743 12.889 51.7462C12.9389 51.7114 12.9947 51.6859 13.0537 51.6709C13.1103 51.6534 13.1675 51.6367 13.2247 51.622C13.6295 51.5152 14.0497 51.4629 14.4391 51.3052C14.7595 51.1753 15.0624 50.9722 15.2355 50.6651C15.2424 50.6533 15.2222 50.6428 15.2145 50.6561C15.1113 50.8331 14.9679 50.9832 14.7958 51.0944C14.4636 51.317 14.0706 51.4098 13.684 51.4936C13.4697 51.5397 13.2554 51.5843 13.046 51.6499C12.9634 51.6652 12.8891 51.7098 12.8367 51.7756C12.8118 51.8189 12.7943 51.8661 12.785 51.9151C12.7148 51.6526 12.6242 51.3959 12.5142 51.1474C12.51 51.1362 12.5051 51.1237 12.5003 51.1125C12.5295 50.9166 12.6102 50.7319 12.7341 50.5772C12.9797 50.2582 13.3399 50.0782 13.6979 49.9156C13.7963 49.8709 13.8947 49.8262 13.9924 49.7802C14.0851 49.7399 14.1749 49.6932 14.2612 49.6406C14.4056 49.5443 14.5326 49.4026 14.5487 49.2218C14.5487 49.2072 14.5278 49.203 14.5271 49.2176C14.5068 49.4431 14.3177 49.591 14.1299 49.6901C13.76 49.8855 13.351 50.0133 13.0132 50.2701C12.755 50.4676 12.5359 50.7496 12.4821 51.0762C12.3799 50.8434 12.2988 50.6019 12.2399 50.3546C12.2122 50.219 12.1965 50.0812 12.1932 49.9428C12.1932 49.9428 12.1932 49.9428 12.1932 49.9393C12.1932 49.9358 12.1932 49.9393 12.1932 49.9351C12.1932 49.8102 12.1932 49.6845 12.2022 49.5596C12.2155 49.3502 12.2392 49.1409 12.2553 48.9315C12.36 48.7381 12.4948 48.5626 12.6545 48.4115C12.9302 48.1323 13.261 47.8985 13.4704 47.5607C13.6567 47.2599 13.7279 46.8391 13.4983 46.5403C13.4899 46.5292 13.4718 46.5403 13.4802 46.5529C13.5407 46.6367 13.5835 46.732 13.6059 46.8329C13.6284 46.9339 13.63 47.0383 13.6107 47.1399C13.5486 47.5342 13.2561 47.8294 12.9728 48.087C12.7124 48.3243 12.4319 48.5651 12.2616 48.8784C12.2616 48.8519 12.2658 48.8247 12.2671 48.7982C12.2832 48.5316 12.2699 48.2641 12.2274 48.0004C12.1387 47.4595 11.944 46.9431 11.7493 46.4329C11.7451 46.4196 11.7242 46.4266 11.7283 46.4405C11.7528 46.5027 11.7765 46.5648 11.7981 46.6276C11.9838 47.1161 12.159 47.6235 12.2246 48.1477C12.1473 48.0266 12.0458 47.9227 11.9266 47.8427C11.787 47.7345 11.6327 47.6033 11.6223 47.4142C11.6223 47.4112 11.6211 47.4084 11.619 47.4063C11.6169 47.4042 11.614 47.403 11.6111 47.403C11.6081 47.403 11.6053 47.4042 11.6032 47.4063C11.6011 47.4084 11.5999 47.4112 11.5999 47.4142C11.6097 47.5907 11.7444 47.7247 11.8749 47.8287C12.0054 47.9327 12.1722 48.0451 12.2316 48.2168C12.2547 48.4799 12.2531 48.7447 12.2267 49.0075C12.205 49.2602 12.175 49.5122 12.1694 49.7662C12.1694 49.7899 12.1694 49.8151 12.1694 49.836C12.0896 49.6454 11.9426 49.4907 11.7563 49.4012C11.5469 49.2923 11.3159 49.2546 11.0883 49.2169C10.8632 49.1825 10.6421 49.1259 10.4281 49.048C10.0152 48.8897 9.64377 48.6393 9.3421 48.3159C9.33233 48.3047 9.31767 48.3222 9.32744 48.3326C9.63983 48.6673 10.0264 48.9241 10.456 49.0822C10.665 49.1546 10.8801 49.2076 11.0988 49.2407C11.327 49.279 11.5615 49.3188 11.7667 49.4319C11.9566 49.5373 12.1331 49.7111 12.1708 49.9295C12.1774 50.1319 12.2084 50.3327 12.263 50.5276C12.3473 50.794 12.4459 51.0556 12.5582 51.3114C12.5673 51.3338 12.5756 51.3554 12.584 51.3812C12.4665 51.2807 12.3272 51.209 12.1771 51.1718C12.0168 51.1353 11.853 51.1163 11.6886 51.1153C11.5189 51.1118 11.3495 51.0992 11.1812 51.0776C10.8544 51.0316 10.535 50.9429 10.2313 50.8138C10.218 50.8082 10.2082 50.8292 10.2215 50.834C10.3879 50.9046 10.5591 50.9634 10.7338 51.0099C10.8905 51.0517 11.0497 51.0832 11.2105 51.1041C11.3752 51.1251 11.5399 51.1321 11.7053 51.1383C11.8719 51.139 12.0378 51.1599 12.1994 51.2005C12.3505 51.241 12.4889 51.3187 12.6022 51.4266C12.6801 51.6201 12.741 51.82 12.7843 52.024C12.7191 51.9796 12.64 51.9605 12.5617 51.9703C12.4468 51.9805 12.3328 51.9984 12.2204 52.024C12.0036 52.0682 11.7895 52.1243 11.579 52.1922C11.3784 52.2658 11.1723 52.3237 10.9627 52.3653C10.7719 52.3982 10.5762 52.3869 10.3904 52.3325C10.2154 52.2791 10.0548 52.1868 9.92069 52.0624C9.91161 52.0561 9.89835 52.0729 9.91161 52.0813Z" fill="#DAF2EE"/>
<path d="M15.3137 65.9429C15.2886 66.2709 14.8558 68.93 14.8154 69.4409H11.0011C10.9544 68.9042 10.4805 66.2939 10.4512 65.9429H15.3137Z" fill="#D94E61"/>
<path d="M10.4512 65.9429C10.4554 65.9931 10.4686 66.1523 10.4889 66.384H11.9545C13.2904 66.384 14.2431 67.5181 14.2375 68.8533C14.2433 68.9657 14.2218 69.0778 14.1749 69.1802C14.128 69.2825 14.057 69.372 13.9681 69.4409H14.8126C14.8531 68.93 15.2858 66.2709 15.3109 65.9429H10.4512Z" fill="#C43348"/>
<path d="M15.2182 65.9416H10.542C10.2287 65.9416 9.97461 65.7322 9.97461 65.4809C9.97461 65.2269 10.2287 65.021 10.542 65.021H15.2182C15.5316 65.021 15.7856 65.2304 15.7856 65.4809C15.7856 65.7357 15.5316 65.9416 15.2182 65.9416Z" fill="#D94E61"/>
</g>
<defs>
<clipPath id="clip0_1730_67376">
<rect width="73.693" height="60.6346" fill="white" transform="translate(3.69629 10.5562)"/>
</clipPath>
</defs>
</svg>
