<svg width="583" height="91" viewBox="0 0 583 91" fill="none" xmlns="http://www.w3.org/2000/svg">
<rect width="582.343" height="90.3358" rx="16.1314" fill="#25BBA4"/>
<rect x="21.7793" y="12.9688" width="66.1387" height="66.1387" rx="16.1314" fill="white"/>
<path d="M57.3379 30.5415L64.8365 45.0215C64.8552 45.0576 64.8613 45.0989 64.8539 45.1388C64.8464 45.1787 64.8258 45.215 64.7954 45.242L48.975 59.7572L35.2035 72.3353C35.0486 72.4764 35.0006 72.446 35.0594 72.2442L50.53 18.1809C50.5849 17.985 50.6603 17.9771 50.7563 18.1574L57.3379 30.5415Z" fill="#FF7A08"/>
<path d="M48.978 59.7573L64.7984 45.2421C64.8288 45.2152 64.8494 45.1789 64.8569 45.1389C64.8643 45.099 64.8582 45.0577 64.8395 45.0216L57.3408 30.5416L60.3744 19.9095C60.4371 19.692 60.5204 19.6841 60.6243 19.886L74.6633 46.7148C74.6802 46.7464 74.6859 46.783 74.6795 46.8187C74.6731 46.8543 74.655 46.8871 74.628 46.9117L45.0655 74.0256C44.9714 74.1119 44.942 74.0932 44.9773 73.9698L48.978 59.7573Z" fill="#008C3C"/>
<path d="M140.205 40.809C140.205 41.664 140.004 42.4705 139.6 43.2287C139.197 43.9869 138.552 44.608 137.665 45.0919C136.778 45.5597 135.64 45.7936 134.253 45.7936H131.204V52.6172H128.446V35.8002H134.253C135.543 35.8002 136.632 36.0261 137.52 36.4777C138.423 36.9133 139.092 37.5101 139.528 38.2683C139.98 39.0265 140.205 39.8734 140.205 40.809ZM134.253 43.5433C135.301 43.5433 136.084 43.3094 136.6 42.8416C137.116 42.3576 137.374 41.6801 137.374 40.809C137.374 38.97 136.334 38.0505 134.253 38.0505H131.204V43.5433H134.253ZM141.675 45.8904C141.675 44.5515 141.949 43.3658 142.498 42.3334C143.062 41.301 143.82 40.5025 144.772 39.9379C145.74 39.3572 146.805 39.0668 147.966 39.0668C149.015 39.0668 149.926 39.2765 150.7 39.6959C151.491 40.0992 152.12 40.6074 152.588 41.2204V39.2846H155.37V52.6172H152.588V50.633C152.12 51.2622 151.483 51.7864 150.676 52.2058C149.87 52.6253 148.95 52.835 147.918 52.835C146.772 52.835 145.724 52.5446 144.772 51.9639C143.82 51.367 143.062 50.5443 142.498 49.4958C141.949 48.4311 141.675 47.2293 141.675 45.8904ZM152.588 45.9388C152.588 45.0193 152.394 44.2208 152.007 43.5433C151.636 42.8658 151.144 42.3496 150.531 41.9947C149.918 41.6398 149.257 41.4623 148.547 41.4623C147.837 41.4623 147.176 41.6398 146.563 41.9947C145.95 42.3334 145.45 42.8416 145.062 43.5191C144.691 44.1805 144.506 44.9709 144.506 45.8904C144.506 46.8099 144.691 47.6165 145.062 48.3101C145.45 49.0038 145.95 49.5361 146.563 49.9071C147.192 50.262 147.853 50.4394 148.547 50.4394C149.257 50.4394 149.918 50.262 150.531 49.9071C151.144 49.5522 151.636 49.036 152.007 48.3585C152.394 47.6649 152.588 46.8583 152.588 45.9388ZM170.753 39.2846L162.575 58.8842H159.719L162.43 52.3994L157.179 39.2846H160.252L164.002 49.4474L167.898 39.2846H170.753ZM196.542 39.2846L192.405 52.6172H189.501L186.815 42.769L184.129 52.6172H181.226L177.064 39.2846H179.871L182.653 50.0039L185.484 39.2846H188.364L191.074 49.9555L193.832 39.2846H196.542ZM199.765 37.5182C199.265 37.5182 198.846 37.3488 198.507 37.0101C198.168 36.6713 197.999 36.2519 197.999 35.7518C197.999 35.2517 198.168 34.8323 198.507 34.4936C198.846 34.1548 199.265 33.9854 199.765 33.9854C200.249 33.9854 200.661 34.1548 200.999 34.4936C201.338 34.8323 201.508 35.2517 201.508 35.7518C201.508 36.2519 201.338 36.6713 200.999 37.0101C200.661 37.3488 200.249 37.5182 199.765 37.5182ZM201.12 39.2846V52.6172H198.362V39.2846H201.12ZM207.718 41.5349V48.915C207.718 49.4151 207.831 49.7781 208.057 50.0039C208.299 50.2136 208.702 50.3185 209.267 50.3185H210.961V52.6172H208.783C207.541 52.6172 206.589 52.3268 205.928 51.7461C205.266 51.1654 204.936 50.2217 204.936 48.915V41.5349H203.363V39.2846H204.936V35.9696L207.718 35.9696V39.2846H210.961V41.5349H207.718ZM220.157 39.0668C221.174 39.0668 222.077 39.2846 222.867 39.7201C223.674 40.1557 224.303 40.8009 224.755 41.6559C225.223 42.5109 225.456 43.5433 225.456 44.7531V52.6172H222.722V45.1645C222.722 43.9708 222.424 43.0593 221.827 42.4302C221.23 41.785 220.415 41.4623 219.383 41.4623C218.351 41.4623 217.528 41.785 216.915 42.4302C216.318 43.0593 216.02 43.9708 216.02 45.1645V52.6172H213.261V34.7113H216.02V40.8332C216.487 40.2686 217.076 39.8331 217.786 39.5266C218.512 39.2201 219.302 39.0668 220.157 39.0668ZM240.56 52.835C239.302 52.835 238.164 52.5527 237.148 51.9881C236.132 51.4073 235.333 50.6008 234.753 49.5684C234.172 48.5198 233.881 47.31 233.881 45.9388C233.881 44.5838 234.18 43.382 234.777 42.3334C235.374 41.2849 236.188 40.4783 237.221 39.9137C238.253 39.3491 239.406 39.0668 240.681 39.0668C241.955 39.0668 243.109 39.3491 244.141 39.9137C245.173 40.4783 245.988 41.2849 246.585 42.3334C247.182 43.382 247.48 44.5838 247.48 45.9388C247.48 47.2938 247.174 48.4956 246.561 49.5442C245.948 50.5927 245.109 51.4073 244.044 51.9881C242.996 52.5527 241.834 52.835 240.56 52.835ZM240.56 50.4394C241.27 50.4394 241.931 50.2701 242.544 49.9313C243.173 49.5926 243.681 49.0844 244.068 48.4069C244.456 47.7294 244.649 46.9067 244.649 45.9388C244.649 44.9709 244.464 44.1563 244.093 43.4949C243.722 42.8174 243.23 42.3092 242.617 41.9705C242.004 41.6317 241.342 41.4623 240.632 41.4623C239.923 41.4623 239.261 41.6317 238.648 41.9705C238.051 42.3092 237.576 42.8174 237.221 43.4949C236.866 44.1563 236.688 44.9709 236.688 45.9388C236.688 47.3745 237.051 48.4876 237.777 49.278C238.519 50.0523 239.447 50.4394 240.56 50.4394ZM253.183 41.5349V48.915C253.183 49.4151 253.296 49.7781 253.522 50.0039C253.764 50.2136 254.167 50.3185 254.732 50.3185H256.426V52.6172H254.248C253.006 52.6172 252.054 52.3268 251.393 51.7461C250.731 51.1654 250.401 50.2217 250.401 48.915V41.5349H248.828V39.2846H250.401V35.9696H253.183V39.2846H256.426V41.5349H253.183ZM265.622 39.0668C266.639 39.0668 267.542 39.2846 268.332 39.7201C269.139 40.1557 269.768 40.8009 270.22 41.6559C270.688 42.5109 270.921 43.5433 270.921 44.7531V52.6172H268.187V45.1645C268.187 43.9708 267.889 43.0593 267.292 42.4302C266.695 41.785 265.88 41.4623 264.848 41.4623C263.816 41.4623 262.993 41.785 262.38 42.4302C261.783 43.0593 261.485 43.9708 261.485 45.1645V52.6172H258.726V34.7113H261.485V40.8332C261.952 40.2686 262.541 39.8331 263.251 39.5266C263.977 39.2201 264.767 39.0668 265.622 39.0668ZM286.418 45.6242C286.418 46.1243 286.385 46.576 286.321 46.9793H276.134C276.215 48.0439 276.61 48.8989 277.32 49.5442C278.029 50.1894 278.9 50.512 279.933 50.512C281.417 50.512 282.465 49.891 283.078 48.6489H286.055C285.651 49.8749 284.917 50.8831 283.853 51.6735C282.804 52.4478 281.498 52.835 279.933 52.835C278.658 52.835 277.513 52.5527 276.497 51.9881C275.497 51.4073 274.706 50.6008 274.126 49.5684C273.561 48.5198 273.279 47.31 273.279 45.9388C273.279 44.5676 273.553 43.3658 274.101 42.3334C274.666 41.2849 275.448 40.4783 276.448 39.9137C277.465 39.3491 278.626 39.0668 279.933 39.0668C281.191 39.0668 282.312 39.3411 283.296 39.8895C284.28 40.438 285.046 41.2123 285.595 42.2124C286.143 43.1965 286.418 44.3337 286.418 45.6242ZM283.538 44.7531C283.522 43.7369 283.159 42.9222 282.449 42.3092C281.74 41.6962 280.86 41.3897 279.812 41.3897C278.86 41.3897 278.045 41.6962 277.368 42.3092C276.69 42.9061 276.287 43.7207 276.158 44.7531H283.538ZM291.649 41.2204C292.052 40.5428 292.584 40.0186 293.246 39.6475C293.923 39.2604 294.722 39.0668 295.641 39.0668V41.9221H294.94C293.859 41.9221 293.036 42.1963 292.471 42.7448C291.923 43.2932 291.649 44.245 291.649 45.6V52.6172H288.89V39.2846H291.649V41.2204ZM306.713 35.8002V46.5195C306.713 47.7939 307.043 48.7537 307.705 49.399C308.382 50.0442 309.318 50.3669 310.512 50.3669C311.722 50.3669 312.657 50.0442 313.319 49.399C313.996 48.7537 314.335 47.7939 314.335 46.5195V35.8002H317.093V46.4711C317.093 47.8423 316.795 49.0038 316.198 49.9555C315.601 50.9073 314.803 51.617 313.803 52.0849C312.802 52.5527 311.697 52.7866 310.488 52.7866C309.278 52.7866 308.173 52.5527 307.173 52.0849C306.188 51.617 305.406 50.9073 304.825 49.9555C304.245 49.0038 303.954 47.8423 303.954 46.4711V35.8002H306.713ZM332.203 40.809C332.203 41.664 332.001 42.4705 331.598 43.2287C331.194 43.9869 330.549 44.608 329.662 45.0919C328.775 45.5597 327.638 45.7936 326.25 45.7936H323.201V52.6172H320.443V35.8002H326.25C327.541 35.8002 328.63 36.0261 329.517 36.4777C330.42 36.9133 331.09 37.5101 331.525 38.2683C331.977 39.0265 332.203 39.8734 332.203 40.809ZM326.25 43.5433C327.299 43.5433 328.081 43.3094 328.597 42.8416C329.114 42.3576 329.372 41.6801 329.372 40.809C329.372 38.97 328.331 38.0505 326.25 38.0505H323.201V43.5433H326.25ZM337.35 35.8002V52.6172H334.592V35.8002H337.35ZM345.854 45.8904C345.854 44.5515 346.128 43.3658 346.677 42.3334C347.241 41.301 347.999 40.5025 348.951 39.9379C349.919 39.3572 350.984 39.0668 352.145 39.0668C353.194 39.0668 354.105 39.2765 354.879 39.6959C355.67 40.0992 356.299 40.6074 356.767 41.2204V39.2846H359.549V52.6172H356.767V50.633C356.299 51.2622 355.662 51.7864 354.855 52.2058C354.049 52.6253 353.129 52.835 352.097 52.835C350.951 52.835 349.903 52.5446 348.951 51.9639C347.999 51.367 347.241 50.5443 346.677 49.4958C346.128 48.4311 345.854 47.2293 345.854 45.8904ZM356.767 45.9388C356.767 45.0193 356.573 44.2208 356.186 43.5433C355.815 42.8658 355.323 42.3496 354.71 41.9947C354.097 41.6398 353.436 41.4623 352.726 41.4623C352.016 41.4623 351.355 41.6398 350.742 41.9947C350.129 42.3334 349.629 42.8416 349.241 43.5191C348.87 44.1805 348.685 44.9709 348.685 45.8904C348.685 46.8099 348.87 47.6165 349.241 48.3101C349.629 49.0038 350.129 49.5361 350.742 49.9071C351.371 50.262 352.032 50.4394 352.726 50.4394C353.436 50.4394 354.097 50.262 354.71 49.9071C355.323 49.5522 355.815 49.036 356.186 48.3585C356.573 47.6649 356.767 46.8583 356.767 45.9388ZM365.689 41.2446C366.157 40.6316 366.794 40.1154 367.601 39.6959C368.407 39.2765 369.319 39.0668 370.335 39.0668C371.496 39.0668 372.553 39.3572 373.505 39.9379C374.473 40.5025 375.231 41.301 375.779 42.3334C376.328 43.3658 376.602 44.5515 376.602 45.8904C376.602 47.2293 376.328 48.4311 375.779 49.4958C375.231 50.5443 374.473 51.367 373.505 51.9639C372.553 52.5446 371.496 52.835 370.335 52.835C369.319 52.835 368.415 52.6333 367.625 52.23C366.834 51.8106 366.189 51.2944 365.689 50.6814V58.9568H362.931V39.2846H365.689V41.2446ZM373.795 45.8904C373.795 44.9709 373.601 44.1805 373.214 43.5191C372.843 42.8416 372.343 42.3334 371.714 41.9947C371.101 41.6398 370.44 41.4623 369.73 41.4623C369.036 41.4623 368.375 41.6398 367.746 41.9947C367.133 42.3496 366.633 42.8658 366.246 43.5433C365.875 44.2208 365.689 45.0193 365.689 45.9388C365.689 46.8583 365.875 47.6649 366.246 48.3585C366.633 49.036 367.133 49.5522 367.746 49.9071C368.375 50.262 369.036 50.4394 369.73 50.4394C370.44 50.4394 371.101 50.262 371.714 49.9071C372.343 49.5361 372.843 49.0038 373.214 48.3101C373.601 47.6165 373.795 46.8099 373.795 45.8904ZM381.846 41.2446C382.314 40.6316 382.951 40.1154 383.758 39.6959C384.564 39.2765 385.476 39.0668 386.492 39.0668C387.654 39.0668 388.71 39.3572 389.662 39.9379C390.63 40.5025 391.388 41.301 391.936 42.3334C392.485 43.3658 392.759 44.5515 392.759 45.8904C392.759 47.2293 392.485 48.4311 391.936 49.4958C391.388 50.5443 390.63 51.367 389.662 51.9639C388.71 52.5446 387.654 52.835 386.492 52.835C385.476 52.835 384.572 52.6333 383.782 52.23C382.992 51.8106 382.346 51.2944 381.846 50.6814V58.9568H379.088V39.2846H381.846V41.2446ZM389.952 45.8904C389.952 44.9709 389.759 44.1805 389.372 43.5191C389.001 42.8416 388.5 42.3334 387.871 41.9947C387.258 41.6398 386.597 41.4623 385.887 41.4623C385.193 41.4623 384.532 41.6398 383.903 41.9947C383.29 42.3496 382.79 42.8658 382.403 43.5433C382.032 44.2208 381.846 45.0193 381.846 45.9388C381.846 46.8583 382.032 47.6649 382.403 48.3585C382.79 49.036 383.29 49.5522 383.903 49.9071C384.532 50.262 385.193 50.4394 385.887 50.4394C386.597 50.4394 387.258 50.262 387.871 49.9071C388.5 49.5361 389.001 49.0038 389.372 48.3101C389.759 47.6165 389.952 46.8099 389.952 45.8904ZM400.084 52.835C399.036 52.835 398.092 52.6495 397.253 52.2784C396.431 51.8913 395.777 51.3751 395.293 50.7298C394.809 50.0684 394.551 49.3344 394.519 48.5279H397.374C397.423 49.0925 397.689 49.5684 398.173 49.9555C398.673 50.3265 399.294 50.512 400.036 50.512C400.81 50.512 401.407 50.3669 401.827 50.0765C402.262 49.77 402.48 49.3828 402.48 48.915C402.48 48.415 402.238 48.0439 401.754 47.802C401.286 47.56 400.536 47.2938 399.504 47.0035C398.504 46.7292 397.689 46.4631 397.06 46.205C396.431 45.9469 395.882 45.5516 395.414 45.0193C394.963 44.487 394.737 43.7853 394.737 42.9142C394.737 42.2044 394.947 41.5591 395.366 40.9784C395.785 40.3815 396.382 39.9137 397.157 39.575C397.947 39.2362 398.85 39.0668 399.867 39.0668C401.383 39.0668 402.601 39.454 403.52 40.2283C404.456 40.9865 404.956 42.0269 405.021 43.3497H402.262C402.214 42.7528 401.972 42.277 401.536 41.9221C401.101 41.5672 400.512 41.3897 399.77 41.3897C399.044 41.3897 398.487 41.5269 398.1 41.8011C397.713 42.0753 397.52 42.4383 397.52 42.89C397.52 43.2448 397.649 43.5433 397.907 43.7853C398.165 44.0272 398.479 44.2208 398.85 44.366C399.221 44.495 399.77 44.6644 400.496 44.8741C401.464 45.1322 402.254 45.3984 402.867 45.6726C403.496 45.9307 404.037 46.3179 404.488 46.8341C404.94 47.3503 405.174 48.0359 405.19 48.8908C405.19 49.649 404.98 50.3265 404.561 50.9234C404.141 51.5203 403.545 51.9881 402.77 52.3268C402.012 52.6656 401.117 52.835 400.084 52.835Z" fill="white"/>
<path d="M527.297 60.9575C527.487 61.148 527.712 61.2992 527.961 61.4024C528.209 61.5055 528.476 61.5586 528.745 61.5586C529.014 61.5586 529.281 61.5055 529.529 61.4024C529.778 61.2992 530.004 61.148 530.194 60.9575L543.959 47.1923C544.111 47.0409 544.231 46.861 544.313 46.663C544.395 46.465 544.438 46.2527 544.438 46.0384C544.438 45.824 544.395 45.6118 544.313 45.4137C544.231 45.2157 544.111 45.0359 543.959 44.8845L530.194 31.1192C529.392 30.3172 528.099 30.3172 527.297 31.1192C526.495 31.9213 526.495 33.2143 527.297 34.0163L539.31 46.0302L527.28 58.0604C526.495 58.8625 526.495 60.1555 527.297 60.9575Z" fill="#FFECE2"/>
</svg>
