<svg width="82" height="82" viewBox="0 0 82 82" fill="none" xmlns="http://www.w3.org/2000/svg">
<rect x="0.775391" y="0.530273" width="80.657" height="80.657" rx="16.1314" fill="white"/>
<path d="M46.8695 20.2603C46.5061 20.254 46.1018 20.2571 45.6565 20.2697C45.2973 20.2807 44.9696 20.098 44.9665 19.7199C44.9623 18.864 44.9618 18.0443 44.9649 17.2608C44.9665 16.9757 45.2012 16.7504 45.4864 16.7583C46.63 16.7919 47.5191 16.4081 48.1534 15.6067C48.4716 15.2035 49.5318 13.51 50.2171 14.1858C50.3147 14.2824 50.363 14.399 50.362 14.5355C50.3588 15.2948 50.3578 16.0163 50.3588 16.7C50.3588 16.7205 50.367 16.7401 50.3815 16.7546C50.3959 16.7691 50.4156 16.7772 50.436 16.7772L51.7672 16.7756C51.9055 16.7756 52.0381 16.8306 52.1359 16.9284C52.2337 17.0262 52.2886 17.1588 52.2886 17.2971V19.7089C52.2886 19.7814 52.2744 19.8533 52.2466 19.9203C52.2189 19.9873 52.1783 20.0481 52.127 20.0993C52.0758 20.1506 52.015 20.1911 51.9481 20.2188C51.8813 20.2464 51.8096 20.2605 51.7373 20.2603H50.4975C50.4712 20.2603 50.4459 20.2706 50.4273 20.2889C50.4087 20.3072 50.3982 20.332 50.3982 20.3579V30.3912C50.3982 30.8187 50.185 31.0324 49.7586 31.0324L47.4823 31.0292C47.3413 31.0288 47.2063 30.9727 47.1068 30.8732C47.0073 30.7737 46.9514 30.6389 46.9514 30.4983L46.953 20.3453C46.953 20.2897 46.9252 20.2613 46.8695 20.2603Z" fill="#00B8F5"/>
<path d="M57.0585 17.4263C57.0576 17.4352 57.0594 17.4441 57.0636 17.4519C57.0679 17.4598 57.0745 17.4662 57.0825 17.4703C57.0905 17.4745 57.0997 17.4763 57.1089 17.4755C57.118 17.4746 57.1268 17.4712 57.1341 17.4656C58.618 16.2668 60.6313 16.3724 61.9908 17.6909C62.0328 17.7319 62.0743 17.7319 62.1153 17.6909C63.5583 16.2684 65.8472 16.27 67.2792 17.7256C68.007 18.466 68.2764 19.3025 68.2717 20.3485C68.2591 23.5454 68.2554 26.8688 68.2607 30.3188C68.2617 30.7294 68.0569 30.9347 67.6463 30.9347H65.4377C64.9966 30.9347 64.776 30.7142 64.776 30.2731C64.7739 27.2884 64.7744 24.1981 64.7776 21.0023C64.7792 19.8082 62.6698 19.7924 62.6682 21.0259C62.664 24.0967 62.664 27.2317 62.6682 30.4306C62.6684 30.5019 62.6546 30.5726 62.6274 30.6385C62.6003 30.7044 62.5604 30.7643 62.5101 30.8148C62.4597 30.8653 62.3999 30.9054 62.3341 30.9327C62.2682 30.96 62.1976 30.9741 62.1263 30.9741H59.735C59.662 30.9741 59.5898 30.9597 59.5224 30.9318C59.455 30.9038 59.3938 30.8628 59.3423 30.8111C59.2908 30.7595 59.25 30.6982 59.2222 30.6307C59.1944 30.5632 59.1802 30.491 59.1804 30.418C59.1857 27.3398 59.1867 24.2354 59.1836 21.1047C59.182 20.328 58.585 20.0555 57.8414 20.1516C57.2302 20.2319 57.049 20.6573 57.0506 21.2212C57.059 24.1062 57.059 27.177 57.0506 30.4338C57.0502 30.562 56.999 30.6849 56.9083 30.7753C56.8176 30.8657 56.6948 30.9162 56.567 30.9158C55.8077 30.9137 55.0163 30.9142 54.1929 30.9174C53.7802 30.9184 53.5738 30.72 53.5738 30.3219C53.5749 25.9604 53.5744 21.613 53.5723 17.2798C53.5723 17.1428 53.6264 17.0115 53.7229 16.9144C53.8195 16.8173 53.9505 16.7623 54.0874 16.7615C54.8467 16.7562 55.6265 16.7531 56.4268 16.752C56.8815 16.752 57.0921 16.9768 57.0585 17.4263Z" fill="#00B8F5"/>
<path d="M17.5725 26.8466L17.5741 30.4321C17.5741 30.5754 17.5172 30.7128 17.4158 30.8141C17.3145 30.9155 17.1771 30.9724 17.0338 30.9724L14.6393 30.974C14.493 30.974 14.3528 30.9159 14.2494 30.8125C14.146 30.7091 14.0879 30.5688 14.0879 30.4226V17.3033C14.0879 17.2336 14.1016 17.1647 14.1283 17.1003C14.155 17.036 14.1942 16.9776 14.2435 16.9284C14.2928 16.8792 14.3513 16.8403 14.4157 16.8138C14.4801 16.7873 14.5491 16.7737 14.6188 16.7739C16.4672 16.7792 18.2636 16.7792 20.008 16.7739C21.3549 16.7692 22.5805 17.6215 22.9948 18.8833C23.1261 19.2813 23.1854 19.7839 23.1728 20.3909C23.1529 21.3802 23.1523 22.307 23.1713 23.1714C23.1839 23.7143 23.1355 24.1722 23.0263 24.5451C22.7365 25.5359 21.8984 26.3819 20.8728 26.6434C20.4738 26.7463 19.9775 26.7883 19.3842 26.7694C18.7866 26.7505 18.2095 26.7484 17.6529 26.7631C17.5993 26.7652 17.5725 26.7931 17.5725 26.8466ZM17.582 20.3027L17.5662 23.206C17.566 23.2122 17.567 23.2183 17.5692 23.224C17.5714 23.2297 17.5748 23.2349 17.579 23.2393C17.5833 23.2438 17.5884 23.2473 17.5941 23.2497C17.5997 23.2521 17.6058 23.2533 17.6119 23.2533L19.0943 23.2612C19.1706 23.2616 19.2462 23.2472 19.3168 23.2189C19.3874 23.1907 19.4516 23.149 19.5057 23.0963C19.5599 23.0436 19.6029 22.981 19.6323 22.9119C19.6617 22.8429 19.677 22.7689 19.6772 22.694L19.6866 20.8367C19.6874 20.6859 19.6272 20.5409 19.519 20.4337C19.4109 20.3264 19.2638 20.2657 19.11 20.2649L17.6277 20.257C17.6155 20.257 17.6039 20.2618 17.5954 20.2704C17.5868 20.279 17.582 20.2906 17.582 20.3027Z" fill="#162B75"/>
<path d="M40.1381 26.921C40.1454 26.8654 40.1381 26.8086 40.116 26.7509C40.0162 26.4883 39.8256 26.3528 39.5442 26.3444C38.7722 26.324 37.8491 26.4264 37.1512 26.2625C35.5507 25.8876 34.4716 24.5328 34.4684 22.8598C34.4642 20.9201 34.4637 19.0937 34.4669 17.3808C34.4669 16.9775 34.669 16.7759 35.0734 16.7759H37.3655C37.7656 16.7769 37.9662 16.977 37.9673 17.3761C37.9704 18.9273 37.9709 20.564 37.9688 22.2864C37.9688 22.6408 38.2319 22.874 38.5753 22.8661C39.1046 22.8567 40.1223 23.0725 40.1207 22.2171C40.1165 20.6228 40.1155 18.9803 40.1176 17.2894C40.118 17.1531 40.1725 17.0225 40.269 16.9262C40.3656 16.8299 40.4964 16.7759 40.6327 16.7759H43.0241C43.0981 16.7759 43.1713 16.7905 43.2396 16.819C43.308 16.8474 43.3701 16.8891 43.4223 16.9416C43.4745 16.9942 43.5159 17.0565 43.5441 17.1251C43.5723 17.1937 43.5867 17.2672 43.5865 17.3414C43.576 20.7399 43.5786 23.9867 43.5943 27.0817C43.5975 27.6877 43.5345 28.1965 43.4053 28.6082C42.9689 30.0102 41.6283 30.9586 40.1428 30.968C38.808 30.9754 37.4589 30.978 36.0958 30.9759C35.9506 30.9755 35.8116 30.9176 35.7091 30.8148C35.6067 30.712 35.5491 30.5728 35.5491 30.4277V28.0127C35.5491 27.8737 35.6041 27.7404 35.7021 27.6418C35.8001 27.5432 35.9331 27.4874 36.0721 27.4866L39.5316 27.4613C39.8918 27.4582 40.094 27.2781 40.1381 26.921Z" fill="#162B75"/>
<path d="M29.6628 20.8104V20.667C29.6586 20.2785 29.4617 20.0842 29.072 20.0842L25.9686 20.0858C25.8249 20.0858 25.6871 20.0287 25.5854 19.927C25.4838 19.8254 25.4267 19.6876 25.4267 19.5438V17.2706C25.4267 17.146 25.4761 17.0264 25.5641 16.9381C25.6521 16.8498 25.7715 16.8 25.8962 16.7996C27.1638 16.7954 28.4776 16.7944 29.8376 16.7965C29.9868 16.7965 30.2488 16.8348 30.6237 16.9115C32.3597 17.2675 33.1931 18.6002 33.1994 20.3063C33.2099 23.5074 33.2104 26.5425 33.201 29.4117C33.1978 30.3616 32.5866 30.924 31.6729 30.9067C30.3507 30.8836 29.0683 30.8841 27.8259 30.9083C26.1734 30.9398 24.7666 30.4499 24.2058 28.7942C24.0483 28.33 23.9795 27.7072 23.9995 26.9258C24.0152 26.2695 24.0184 25.5952 24.0089 24.9031C23.9853 22.9859 25.3007 21.5603 27.1816 21.4311C27.7529 21.3922 28.3757 21.3849 29.05 21.409C29.4627 21.4237 29.667 21.2242 29.6628 20.8104ZM29.7006 25.1946C29.7006 25.0512 29.6437 24.9138 29.5423 24.8125C29.441 24.7111 29.3035 24.6542 29.1602 24.6542H28.0953C28.0244 24.6542 27.9541 24.6682 27.8885 24.6953C27.823 24.7225 27.7634 24.7623 27.7132 24.8125C27.6631 24.8626 27.6233 24.9222 27.5961 24.9878C27.569 25.0533 27.555 25.1236 27.555 25.1946V27.2425C27.555 27.3134 27.569 27.3837 27.5961 27.4493C27.6233 27.5148 27.6631 27.5744 27.7132 27.6246C27.7634 27.6747 27.823 27.7145 27.8885 27.7417C27.9541 27.7688 28.0244 27.7828 28.0953 27.7828H29.1602C29.2312 27.7828 29.3015 27.7688 29.367 27.7417C29.4326 27.7145 29.4921 27.6747 29.5423 27.6246C29.5925 27.5744 29.6323 27.5148 29.6595 27.4493C29.6866 27.3837 29.7006 27.3134 29.7006 27.2425V25.1946Z" fill="#162B75"/>
<path d="M17.5802 20.3025C17.5802 20.2904 17.585 20.2788 17.5936 20.2702C17.6022 20.2616 17.6138 20.2568 17.6259 20.2568L19.1083 20.2647C19.262 20.2656 19.4092 20.3263 19.5173 20.4335C19.6254 20.5408 19.6857 20.6857 19.6849 20.8366L19.6754 22.6939C19.6752 22.7687 19.66 22.8427 19.6306 22.9118C19.6011 22.9808 19.5581 23.0434 19.504 23.0961C19.4498 23.1488 19.3856 23.1905 19.315 23.2188C19.2444 23.2471 19.1688 23.2614 19.0926 23.261L17.6102 23.2531C17.604 23.2531 17.598 23.2519 17.5923 23.2495C17.5867 23.2471 17.5816 23.2436 17.5773 23.2392C17.573 23.2348 17.5697 23.2295 17.5675 23.2238C17.5653 23.2181 17.5643 23.212 17.5645 23.2059L17.5802 20.3025Z" fill="white"/>
<path d="M29.158 24.6528H28.0931C27.7947 24.6528 27.5527 24.8947 27.5527 25.1932V27.2411C27.5527 27.5395 27.7947 27.7814 28.0931 27.7814H29.158C29.4564 27.7814 29.6983 27.5395 29.6983 27.2411V25.1932C29.6983 24.8947 29.4564 24.6528 29.158 24.6528Z" fill="white"/>
<path d="M39.6115 38.0628H36.6893C36.6842 38.0629 36.6791 38.0619 36.6745 38.0598C36.6698 38.0577 36.6658 38.0545 36.6626 38.0505C36.6594 38.0466 36.6571 38.0419 36.656 38.0369C36.6549 38.032 36.655 38.0268 36.6562 38.0218L36.998 36.6434C37.0043 36.6182 37.0206 36.6056 37.0469 36.6056H43.145C43.2374 36.6056 43.2489 36.5741 43.1796 36.5111C42.3431 35.7581 41.776 34.7199 41.1837 33.7747C41.1786 33.7663 41.1756 33.7567 41.1749 33.7468C41.1742 33.737 41.1759 33.7271 41.1798 33.7182C41.1836 33.7092 41.1896 33.7013 41.1971 33.6953C41.2047 33.6892 41.2136 33.6851 41.2231 33.6834L43.1607 33.2785C43.1873 33.2731 43.215 33.2761 43.2398 33.2871C43.2647 33.2981 43.2855 33.3166 43.2993 33.34L45.1708 36.5253C45.1971 36.5715 45.237 36.5956 45.2906 36.5977C45.7495 36.6208 46.1502 36.6172 46.4925 36.5867C46.6721 36.571 46.7404 36.6503 46.6973 36.8246L46.439 37.8895C46.4117 38.005 46.3387 38.0628 46.22 38.0628H45.3898C45.332 38.0628 45.2963 38.0912 45.2827 38.1479L43.4758 45.4558C43.4694 45.4815 43.4546 45.5043 43.4338 45.5206C43.4129 45.5369 43.3872 45.5457 43.3608 45.5456H41.6405C41.5765 45.5456 41.5523 45.5146 41.5681 45.4527L42.3274 42.3887C42.3557 42.2752 42.3127 42.2296 42.1982 42.2516C41.2677 42.4322 40.5121 42.3036 39.9313 41.8657C39.9047 41.8458 39.8732 41.8338 39.8404 41.831C39.8075 41.8282 39.7746 41.8348 39.7454 41.8499C39.4461 42.0053 39.1436 42.0878 38.838 42.0972C38.776 42.0993 38.7608 42.1266 38.7923 42.1791L40.3519 44.7753C40.3729 44.8099 40.3656 44.8373 40.3298 44.8572L38.7262 45.7252C38.6442 45.7693 38.5802 45.7509 38.534 45.6701L36.0308 41.2135C36.018 41.1907 36.0143 41.1639 36.0205 41.1387C36.0266 41.1135 36.0422 41.0918 36.0638 41.078L37.6345 40.0351C37.6405 40.0311 37.6473 40.0284 37.6545 40.0273C37.6617 40.0263 37.669 40.0268 37.6759 40.0289C37.6829 40.031 37.6892 40.0347 37.6946 40.0395C37.7 40.0444 37.7042 40.0505 37.7069 40.0572C37.772 40.2105 37.8581 40.3544 37.9653 40.4888C38.3686 40.9945 39.0727 40.7172 39.2066 40.1422C39.3558 39.5016 39.5185 38.8447 39.695 38.1715C39.7139 38.099 39.6861 38.0628 39.6115 38.0628ZM40.9269 40.5755C40.9259 40.5796 40.9258 40.5839 40.9264 40.5881C40.9271 40.5923 40.9286 40.5963 40.9308 40.5999C40.933 40.6034 40.9359 40.6064 40.9393 40.6087C40.9427 40.611 40.9465 40.6126 40.9505 40.6133C41.5754 40.7225 42.1551 40.6905 42.6897 40.5172C42.7191 40.5076 42.7457 40.4907 42.7669 40.4681C42.7881 40.4455 42.8033 40.418 42.811 40.388L43.3608 38.1605C43.3797 38.0838 43.3497 38.0455 43.271 38.0455L41.6641 38.0423C41.6022 38.0423 41.5639 38.0728 41.5491 38.1337L40.9269 40.5755Z" fill="#231F20"/>
<path d="M40.9266 40.5761L41.5489 38.1343C41.5636 38.0734 41.6019 38.043 41.6639 38.043L43.2707 38.0461C43.3495 38.0461 43.3794 38.0845 43.3605 38.1611L42.8107 40.3886C42.803 40.4186 42.7878 40.4462 42.7666 40.4688C42.7454 40.4913 42.7189 40.5082 42.6894 40.5178C42.1549 40.6911 41.5751 40.7231 40.9503 40.6139C40.9463 40.6132 40.9424 40.6117 40.9391 40.6094C40.9357 40.6071 40.9328 40.6041 40.9306 40.6005C40.9284 40.597 40.9269 40.593 40.9262 40.5888C40.9255 40.5846 40.9257 40.5803 40.9266 40.5761Z" fill="white"/>
<path d="M31.8519 41.1487L14.2051 41.1439L14.2098 38.8455C14.2098 38.7962 14.2345 38.7715 14.2838 38.7715H32.471C32.4813 38.7715 32.4914 38.774 32.5006 38.7786C32.5098 38.7833 32.5177 38.79 32.5238 38.7983C32.5299 38.8065 32.534 38.8161 32.5358 38.8262C32.5376 38.8363 32.537 38.8467 32.5341 38.8566L31.8519 41.1487Z" fill="#00B8F5"/>
<path d="M68.2735 41.1487L50.0469 41.1502L50.7495 38.8109C50.7526 38.7996 50.7592 38.7896 50.7683 38.7825C50.7774 38.7754 50.7885 38.7715 50.7999 38.7715H68.1978C68.2483 38.7715 68.2735 38.7967 68.2735 38.8471V41.1487Z" fill="#00B8F5"/>
<path d="M14.2067 41.1445L31.8535 41.1493L31.1478 43.4713C31.131 43.528 31.0926 43.5564 31.0328 43.5564H14.276C14.2667 43.5564 14.2574 43.5546 14.2488 43.5511C14.2402 43.5476 14.2324 43.5425 14.2258 43.5361C14.2193 43.5296 14.214 43.522 14.2105 43.5136C14.2069 43.5052 14.2051 43.4962 14.2051 43.487L14.2067 41.1445Z" fill="#162B75"/>
<path d="M50.0458 41.1505L68.2724 41.1489L68.2598 43.4773C68.2598 43.5287 68.2341 43.5545 68.1826 43.5545L49.3858 43.556C49.3783 43.5561 49.3709 43.5545 49.3642 43.5511C49.3575 43.5478 49.3517 43.543 49.3472 43.537C49.3428 43.531 49.3398 43.524 49.3386 43.5166C49.3373 43.5093 49.3378 43.5017 49.3401 43.4946L50.0458 41.1505Z" fill="#162B75"/>
<path d="M59.5754 50.2791L55.5662 64.7469C55.5631 64.7579 55.5564 64.7675 55.5473 64.7743C55.5382 64.7811 55.5271 64.7848 55.5157 64.7847H52.7227C52.7147 64.7845 52.707 64.7825 52.6999 64.7789C52.6929 64.7752 52.6867 64.77 52.682 64.7636C52.6773 64.7572 52.6741 64.7498 52.6727 64.742C52.6713 64.7342 52.6717 64.7262 52.6738 64.7185L56.6799 50.2507C56.683 50.2397 56.6896 50.2301 56.6987 50.2233C56.7078 50.2165 56.7189 50.2128 56.7303 50.2129H59.5265C59.5345 50.2131 59.5423 50.2151 59.5493 50.2187C59.5564 50.2224 59.5625 50.2276 59.5672 50.234C59.5719 50.2404 59.5751 50.2478 59.5765 50.2556C59.5779 50.2634 59.5775 50.2714 59.5754 50.2791Z" fill="#231F20"/>
<path d="M17.5365 62.0073H28.9703C29.0259 62.0073 29.0611 61.9805 29.0758 61.927L32.3179 50.3105C32.3294 50.2706 32.3557 50.2506 32.3966 50.2506H35.1519C35.1599 50.2505 35.1679 50.2524 35.1752 50.2559C35.1824 50.2595 35.1887 50.2647 35.1936 50.2711C35.1985 50.2775 35.2018 50.285 35.2033 50.2929C35.2048 50.3008 35.2045 50.309 35.2023 50.3168C33.9567 54.8086 32.7017 59.3277 31.4372 63.8741C31.2955 64.386 30.7898 64.8445 30.2305 64.8445C25.4331 64.8424 20.3858 64.8424 15.0885 64.8445C14.2661 64.8445 13.9558 64.0804 14.1496 63.3826C15.3689 59.0094 16.5803 54.651 17.7838 50.3073C17.7883 50.2907 17.7982 50.2759 17.8118 50.2654C17.8255 50.2549 17.8422 50.2491 17.8595 50.249L20.6525 50.2506C20.659 50.2506 20.6655 50.2521 20.6713 50.255C20.6771 50.2579 20.6822 50.2621 20.6862 50.2673C20.6901 50.2725 20.6929 50.2785 20.6941 50.2849C20.6954 50.2913 20.6952 50.2979 20.6935 50.3042L17.4672 61.9159C17.4504 61.9768 17.4735 62.0073 17.5365 62.0073Z" fill="#231F20"/>
<path d="M50.7823 53.1072H36.4594C36.4502 53.1074 36.441 53.1053 36.4327 53.1012C36.4244 53.0971 36.4171 53.0911 36.4114 53.0836C36.4058 53.0762 36.4019 53.0674 36.4001 53.0581C36.3983 53.0488 36.3987 53.0392 36.4011 53.0301L37.1541 50.3158C37.1587 50.2986 37.1688 50.2835 37.1831 50.2726C37.1973 50.2618 37.2148 50.2559 37.2329 50.2559C42.693 50.2412 48.0591 50.2422 53.3312 50.259C54.0968 50.2622 54.3489 51.1192 54.1803 51.7162C53.672 53.5111 53.1584 55.371 52.6396 57.2961C52.3608 58.3326 51.6929 59.0053 50.587 59.0037C46.2034 58.9953 41.919 58.9937 37.7339 58.999C37.6771 58.999 37.6409 59.0263 37.6252 59.0809L36.053 64.7615C36.0383 64.8162 36.0026 64.8435 35.9458 64.8435H33.1796C33.1733 64.8435 33.167 64.842 33.1614 64.8392C33.1557 64.8364 33.1508 64.8323 33.147 64.8272C33.1432 64.8222 33.1406 64.8164 33.1394 64.8102C33.1382 64.804 33.1385 64.7976 33.1402 64.7915L35.5284 56.1996C35.5315 56.188 35.5386 56.1776 35.5485 56.1702C35.5585 56.1628 35.5708 56.1588 35.5835 56.1587H49.9962C50.0112 56.1585 50.0258 56.1536 50.0377 56.1445C50.0496 56.1354 50.0583 56.1227 50.0624 56.1083L50.8627 53.2144C50.8826 53.143 50.8558 53.1072 50.7823 53.1072Z" fill="#231F20"/>
<path d="M63.7056 53.4687L65.659 57.4401C65.6717 57.4667 65.6758 57.4965 65.6707 57.5254C65.6656 57.5542 65.6516 57.5806 65.6306 57.6008L61.4528 61.5533L58.0533 64.745C58.0081 64.788 57.9939 64.7791 58.0107 64.7182L61.9932 50.3575C62.01 50.2997 62.032 50.2976 62.0593 50.3512L63.7056 53.4687Z" fill="#F47920"/>
<path d="M61.4536 61.5539L65.6314 57.6014C65.6524 57.5812 65.6664 57.5548 65.6715 57.5259C65.6766 57.4971 65.6725 57.4673 65.6598 57.4407L63.7063 53.4693L64.557 50.3974C64.5896 50.2787 64.6332 50.274 64.6878 50.3832L68.2386 57.4864C68.2472 57.5032 68.2502 57.5223 68.2471 57.5408C68.244 57.5593 68.2349 57.5761 68.2212 57.5888L60.6344 64.7691C60.5945 64.8069 60.5814 64.7996 60.5951 64.7471L61.4536 61.5539Z" fill="#008C44"/>
</svg>
