<svg width="80" height="80" viewBox="0 0 80 80" fill="none" xmlns="http://www.w3.org/2000/svg">
<rect width="79.834" height="79.834" rx="17.195" fill="#E1F5FE" fill-opacity="0.6"/>
<path d="M71.2894 48.6042C71.2982 54.1927 69.8028 59.6806 66.9601 64.4921H13.0501C10.2073 59.6806 8.71192 54.1927 8.72074 48.6042C8.72074 31.3264 22.7273 17.3198 40.0051 17.3198C57.2828 17.3198 71.2894 31.3281 71.2894 48.6042Z" fill="#40D2FF"/>
<path opacity="0.35" d="M75.0083 65.3913C75.0083 66.4809 59.3367 67.3644 40.0042 67.3644C20.6716 67.3644 5 66.4809 5 65.3913C5 65.0683 6.37859 64.7633 8.8222 64.4937H71.1861C73.6297 64.7633 75.0083 65.0683 75.0083 65.3913Z" fill="#1F1F7A"/>
<path d="M72.2313 64.7745H7.77861C7.70446 64.7745 7.63335 64.7451 7.58091 64.6926C7.52848 64.6402 7.49902 64.5691 7.49902 64.4949C7.49902 64.4208 7.52848 64.3497 7.58091 64.2972C7.63335 64.2448 7.70446 64.2153 7.77861 64.2153H72.2313C72.3054 64.2153 72.3765 64.2448 72.429 64.2972C72.4814 64.3497 72.5109 64.4208 72.5109 64.4949C72.5109 64.5691 72.4814 64.6402 72.429 64.6926C72.3765 64.7451 72.3054 64.7745 72.2313 64.7745Z" fill="#1F1F7A"/>
<path d="M33.1586 59.4663H46.8452V62.399C46.8452 62.9543 46.6246 63.4869 46.2319 63.8796C45.8392 64.2723 45.3066 64.4929 44.7513 64.4929H35.2521C34.6968 64.4929 34.1642 64.2723 33.7715 63.8796C33.3788 63.4869 33.1582 62.9543 33.1582 62.399V59.4663H33.1586Z" fill="white"/>
<path opacity="0.35" d="M46.8447 59.4672V62.4003C46.8447 62.6753 46.7905 62.9475 46.6852 63.2015C46.5799 63.4556 46.4256 63.6864 46.2311 63.8808C46.0367 64.0752 45.8058 64.2294 45.5517 64.3345C45.2977 64.4397 45.0254 64.4938 44.7504 64.4938H35.2517C34.853 64.4939 34.4627 64.3802 34.1264 64.166C33.7902 63.9518 33.5222 63.646 33.3539 63.2846C33.5473 63.3418 33.748 63.3708 33.9497 63.3707H43.4484C44.0037 63.3706 44.5362 63.1499 44.9289 62.7572C45.3215 62.3646 45.5422 61.8321 45.5423 61.2768C45.5423 61.0372 45.4471 60.8074 45.2777 60.638C45.1083 60.4686 44.8786 60.3735 44.639 60.3735H33.1582V59.4663L46.8447 59.4672Z" fill="#1F1F7A"/>
<path d="M44.753 64.7092H35.2539C34.6418 64.7084 34.0551 64.4649 33.6224 64.0321C33.1896 63.5994 32.9461 63.0126 32.9453 62.4006V59.4675C32.9453 59.4105 32.968 59.3558 33.0083 59.3154C33.0486 59.2751 33.1033 59.2524 33.1604 59.2524H46.8469C46.904 59.2524 46.9587 59.2751 46.999 59.3154C47.0393 59.3558 47.062 59.4105 47.062 59.4675V62.4006C47.0612 63.0127 46.8177 63.5995 46.3848 64.0323C45.9519 64.4651 45.3651 64.7085 44.753 64.7092ZM33.3755 59.6826V62.4006C33.376 62.8986 33.5741 63.3761 33.9263 63.7282C34.2784 64.0804 34.7558 64.2785 35.2539 64.279H44.753C45.2511 64.2785 45.7286 64.0804 46.0808 63.7283C46.433 63.3761 46.6312 62.8987 46.6319 62.4006V59.6826H33.3755Z" fill="#1F1F7A"/>
<path d="M27.5417 39.8804H52.4635C52.897 39.8804 53.3127 40.0526 53.6193 40.3591C53.9258 40.6656 54.098 41.0814 54.098 41.5149V53.071C54.098 54.7679 53.4239 56.3953 52.224 57.5952C51.0241 58.7952 49.3966 59.4693 47.6997 59.4693H32.3055C30.6086 59.4693 28.9812 58.7952 27.7812 57.5952C26.5813 56.3953 25.9072 54.7679 25.9072 53.071V41.5145C25.9073 41.081 26.0796 40.6654 26.3861 40.359C26.6926 40.0525 27.1083 39.8804 27.5417 39.8804Z" fill="white"/>
<path d="M54.0971 41.5134V42.9436H25.9072V41.5134C25.9072 41.0799 26.0794 40.6642 26.386 40.3576C26.6925 40.0511 27.1082 39.8789 27.5417 39.8789H52.4635C52.8968 39.8791 53.3124 40.0514 53.6187 40.358C53.9251 40.6645 54.0971 41.0801 54.0971 41.5134Z" fill="#3EADFF"/>
<path opacity="0.7" d="M53.9019 40.7388C53.6641 40.6101 53.398 40.5428 53.1276 40.543H33.6424C33.6183 40.8837 33.1116 41.156 32.4905 41.156C31.8694 41.156 31.3627 40.8837 31.339 40.543H27.6433C27.3589 40.543 27.0861 40.656 26.885 40.8571C26.6839 41.0582 26.5709 41.331 26.5709 41.6154V42.9436H25.9072V41.5134C25.9072 41.0799 26.0794 40.6642 26.386 40.3576C26.6925 40.0511 27.1082 39.8789 27.5417 39.8789H52.4635C52.7585 39.8791 53.048 39.9591 53.3013 40.1105C53.5545 40.2619 53.762 40.479 53.9019 40.7388Z" fill="white"/>
<path opacity="0.35" d="M54.1003 41.5145V53.071C54.1002 54.7678 53.426 56.3951 52.2261 57.595C51.0262 58.7948 49.3989 59.4688 47.702 59.4688H32.3083C31.4029 59.4699 30.5077 59.2783 29.682 58.9069C28.8564 58.5354 28.1193 57.9925 27.5195 57.3143C28.4011 57.7502 29.3715 57.9763 30.355 57.975H43.3292C48.1988 57.975 52.1471 54.0272 52.1471 49.1571V40.0206C52.1471 39.9733 52.1471 39.9268 52.1415 39.8804H52.4666C52.8999 39.8806 53.3154 40.0528 53.6217 40.3593C53.9281 40.6657 54.1002 41.0812 54.1003 41.5145Z" fill="#1F1F7A"/>
<path d="M47.7044 59.6821H32.3106C28.6639 59.6821 25.6973 56.7142 25.6973 53.0692V41.5127C25.6973 41.0221 25.8921 40.5517 26.239 40.2048C26.5859 39.858 27.0563 39.6631 27.5469 39.6631H52.4686C52.9591 39.6631 53.4296 39.858 53.7765 40.2048C54.1233 40.5517 54.3182 41.0221 54.3182 41.5127V53.0692C54.3178 56.7155 51.3511 59.6821 47.7044 59.6821ZM27.5469 40.0937C27.1704 40.0937 26.8094 40.2432 26.5432 40.5094C26.277 40.7756 26.1274 41.1366 26.1274 41.5131V53.0692C26.1274 56.4785 28.9014 59.252 32.3106 59.252H47.7044C51.1137 59.252 53.8876 56.4785 53.8876 53.0692V41.5127C53.8876 41.1362 53.7381 40.7752 53.4719 40.509C53.2057 40.2428 52.8446 40.0932 52.4682 40.0932L27.5469 40.0937Z" fill="#1F1F7A"/>
<path d="M43.2132 52.8823C44.9857 51.1098 44.9857 48.2359 43.2132 46.4634C41.4407 44.6909 38.5669 44.6909 36.7944 46.4634C35.0219 48.2359 35.0219 51.1098 36.7944 52.8823C38.5669 54.6548 41.4407 54.6548 43.2132 52.8823Z" fill="#09A8A9"/>
<path d="M42.6473 49.1556V50.1944C42.6473 50.2916 42.6086 50.3848 42.5399 50.4535C42.4712 50.5222 42.378 50.5608 42.2808 50.5608H40.888V51.9532C40.888 52.0503 40.8494 52.1435 40.7808 52.2122C40.7122 52.2809 40.6191 52.3196 40.5219 52.3197H39.4827C39.3856 52.3196 39.2925 52.2809 39.2239 52.2122C39.1552 52.1435 39.1167 52.0503 39.1167 51.9532V50.5604H37.7239C37.6268 50.5604 37.5336 50.5219 37.4649 50.4532C37.3962 50.3846 37.3575 50.2915 37.3574 50.1944V49.1552C37.3575 49.058 37.3962 48.9648 37.4649 48.8961C37.5336 48.8274 37.6267 48.7888 37.7239 48.7887H39.1167V47.3963C39.1167 47.2992 39.1552 47.2061 39.2239 47.1375C39.2925 47.0688 39.3857 47.0303 39.4827 47.0303H40.5219C40.619 47.0303 40.7121 47.0688 40.7808 47.1375C40.8494 47.2061 40.888 47.2992 40.888 47.3963V48.7891H42.2808C42.3289 48.789 42.3766 48.7985 42.4211 48.8169C42.4656 48.8353 42.506 48.8623 42.54 48.8963C42.5741 48.9304 42.6011 48.9708 42.6195 49.0153C42.6379 49.0598 42.6473 49.1074 42.6473 49.1556Z" fill="white"/>
<path d="M57.0479 48.7651H67.6434V62.9223C67.6434 63.3391 67.4778 63.7389 67.1831 64.0336C66.8883 64.3284 66.4886 64.494 66.0717 64.494H58.6196C58.2027 64.494 57.803 64.3284 57.5082 64.0336C57.2134 63.7389 57.0479 63.3391 57.0479 62.9223V48.7651Z" fill="#09A8A9"/>
<path d="M57.0479 52.3184H63.158C63.3405 52.3184 63.5155 52.3909 63.6446 52.5199C63.7737 52.649 63.8462 52.8241 63.8462 53.0066V60.9641C63.8462 61.1466 63.7737 61.3217 63.6446 61.4508C63.5155 61.5798 63.3405 61.6523 63.158 61.6523H57.0479V52.3184Z" fill="white"/>
<path d="M59.1738 56.0307C59.8782 56.0307 60.4492 55.4597 60.4492 54.7553C60.4492 54.051 59.8782 53.48 59.1738 53.48C58.4694 53.48 57.8984 54.051 57.8984 54.7553C57.8984 55.4597 58.4694 56.0307 59.1738 56.0307Z" fill="#09A8A9"/>
<path d="M59.9178 54.6102V54.9022C59.9178 54.9295 59.9069 54.9556 59.8877 54.9749C59.8684 54.9942 59.8422 55.005 59.815 55.005H59.4235V55.3964C59.4235 55.4237 59.4127 55.4499 59.3934 55.4691C59.3741 55.4884 59.348 55.4993 59.3207 55.4993H59.0287C59.0014 55.4993 58.9753 55.4884 58.956 55.4691C58.9367 55.4499 58.9259 55.4237 58.9259 55.3964V55.005H58.5344C58.5209 55.005 58.5075 55.0023 58.495 54.9972C58.4825 54.992 58.4712 54.9844 58.4616 54.9748C58.4521 54.9652 58.4445 54.9538 58.4393 54.9413C58.4342 54.9287 58.4316 54.9153 58.4316 54.9018V54.6102C58.4316 54.5828 58.4425 54.5567 58.4617 54.5373C58.481 54.518 58.5071 54.507 58.5344 54.5069H58.9259V54.1159C58.9259 54.0886 58.9367 54.0624 58.956 54.0431C58.9752 54.0237 59.0014 54.0128 59.0287 54.0127H59.3207C59.348 54.0128 59.3742 54.0237 59.3935 54.0431C59.4127 54.0624 59.4235 54.0886 59.4235 54.1159V54.5074H59.815C59.8422 54.5074 59.8684 54.5182 59.8877 54.5375C59.9069 54.5567 59.9178 54.5829 59.9178 54.6102Z" fill="white"/>
<path d="M61.4397 57.9087H57.9358C57.8787 57.9087 57.824 57.886 57.7837 57.8457C57.7434 57.8053 57.7207 57.7506 57.7207 57.6936C57.7207 57.6365 57.7434 57.5818 57.7837 57.5415C57.824 57.5012 57.8787 57.4785 57.9358 57.4785H61.4397C61.4967 57.4785 61.5514 57.5012 61.5917 57.5415C61.6321 57.5818 61.6547 57.6365 61.6547 57.6936C61.6547 57.7506 61.6321 57.8053 61.5917 57.8457C61.5514 57.886 61.4967 57.9087 61.4397 57.9087Z" fill="#1F1F7A"/>
<path d="M62.0887 59.0312H57.9358C57.8787 59.0312 57.824 59.0086 57.7837 58.9682C57.7434 58.9279 57.7207 58.8732 57.7207 58.8161C57.7207 58.7591 57.7434 58.7044 57.7837 58.6641C57.824 58.6237 57.8787 58.6011 57.9358 58.6011H62.0887C62.1458 58.6011 62.2005 58.6237 62.2408 58.6641C62.2812 58.7044 62.3038 58.7591 62.3038 58.8161C62.3038 58.8732 62.2812 58.9279 62.2408 58.9682C62.2005 59.0086 62.1458 59.0312 62.0887 59.0312Z" fill="#1F1F7A"/>
<path d="M60.5927 60.1562H57.9358C57.8787 60.1562 57.824 60.1336 57.7837 60.0932C57.7434 60.0529 57.7207 59.9982 57.7207 59.9411C57.7207 59.8841 57.7434 59.8294 57.7837 59.7891C57.824 59.7487 57.8787 59.7261 57.9358 59.7261H60.5927C60.6498 59.7261 60.7045 59.7487 60.7448 59.7891C60.7851 59.8294 60.8078 59.8841 60.8078 59.9411C60.8078 59.9982 60.7851 60.0529 60.7448 60.0932C60.7045 60.1336 60.6498 60.1562 60.5927 60.1562Z" fill="#1F1F7A"/>
<path d="M63.1592 61.8707H57.0491C56.992 61.8707 56.9373 61.848 56.897 61.8077C56.8566 61.7674 56.834 61.7127 56.834 61.6556V52.3191C56.834 52.262 56.8566 52.2073 56.897 52.167C56.9373 52.1267 56.992 52.104 57.0491 52.104H63.1592C63.3986 52.1046 63.628 52.1999 63.7973 52.3692C63.9665 52.5385 64.0619 52.7679 64.0624 53.0073V60.9648C64.0624 61.2046 63.9674 61.4347 63.798 61.6045C63.6287 61.7743 63.399 61.87 63.1592 61.8707ZM57.2641 61.4406H63.1592C63.2846 61.4406 63.405 61.3907 63.4937 61.302C63.5825 61.2133 63.6323 61.0929 63.6323 60.9674V53.0099C63.6323 52.8844 63.5825 52.764 63.4937 52.6753C63.405 52.5866 63.2846 52.5367 63.1592 52.5367H57.2641V61.4406Z" fill="#1F1F7A"/>
<path opacity="0.35" d="M67.6434 48.7651V62.9227C67.6434 63.3395 67.4778 63.7393 67.1831 64.0341C66.8883 64.3288 66.4886 64.4944 66.0717 64.4944H64.0384C64.4553 64.4944 64.8551 64.3288 65.1498 64.0341C65.4446 63.7393 65.6102 63.3395 65.6102 62.9227V50.5502C65.6101 50.3343 65.5242 50.1272 65.3716 49.9746C65.2189 49.8219 65.0118 49.7361 64.7959 49.736H57.0479V48.7651H67.6434Z" fill="#1F1F7A"/>
<path opacity="0.7" d="M59.6649 64.4944H59.2158C59.0094 64.4944 58.8051 64.4537 58.6144 64.3748C58.4237 64.2958 58.2505 64.18 58.1046 64.034C57.9587 63.8881 57.843 63.7148 57.764 63.5241C57.6851 63.3334 57.6445 63.1291 57.6445 62.9227V48.7651H58.0932V62.9227C58.0932 63.3395 58.2588 63.7393 58.5535 64.0341C58.8483 64.3288 59.248 64.4944 59.6649 64.4944Z" fill="white"/>
<path opacity="0.7" d="M59.0132 64.4944H58.6191C58.4128 64.4944 58.2084 64.4537 58.0177 64.3748C57.8271 64.2958 57.6538 64.18 57.5079 64.034C57.362 63.8881 57.2463 63.7148 57.1673 63.5241C57.0884 63.3334 57.0478 63.1291 57.0479 62.9227V48.7651H57.4414V62.9227C57.4414 63.3395 57.607 63.7393 57.9018 64.0341C58.1965 64.3288 58.5963 64.4944 59.0132 64.4944Z" fill="white"/>
<path d="M66.0729 64.7102H58.6208C58.1471 64.7098 57.693 64.5215 57.358 64.1866C57.023 63.8517 56.8346 63.3976 56.834 62.9239V48.7663C56.834 48.7093 56.8566 48.6546 56.897 48.6143C56.9373 48.5739 56.992 48.5513 57.0491 48.5513H67.6446C67.7017 48.5513 67.7564 48.5739 67.7967 48.6143C67.837 48.6546 67.8597 48.7093 67.8597 48.7663V62.9239C67.8591 63.3976 67.6707 63.8517 67.3357 64.1866C67.0007 64.5215 66.5466 64.7098 66.0729 64.7102ZM57.2641 48.9814V62.9239C57.2647 63.2835 57.4078 63.6282 57.6621 63.8824C57.9164 64.1366 58.2612 64.2797 58.6208 64.2801H66.0729C66.4325 64.2797 66.7772 64.1366 67.0315 63.8824C67.2859 63.6282 67.429 63.2835 67.4296 62.9239V48.9814H57.2641Z" fill="#1F1F7A"/>
<path d="M68.1561 47.4663H56.545C56.1863 47.4663 55.8955 47.7571 55.8955 48.1158V48.1162C55.8955 48.475 56.1863 48.7658 56.545 48.7658H68.1561C68.5149 48.7658 68.8057 48.475 68.8057 48.1162V48.1158C68.8057 47.7571 68.5149 47.4663 68.1561 47.4663Z" fill="#09A8A9"/>
<path opacity="0.7" d="M57.5884 48.7663H57.1397C56.9675 48.7663 56.8023 48.6979 56.6805 48.5761C56.5587 48.4543 56.4902 48.2891 56.4902 48.1168C56.4902 47.9445 56.5587 47.7793 56.6805 47.6575C56.8023 47.5357 56.9675 47.4673 57.1397 47.4673H57.5884C57.4161 47.4673 57.2509 47.5357 57.1291 47.6575C57.0073 47.7793 56.9389 47.9445 56.9389 48.1168C56.9389 48.2891 57.0073 48.4543 57.1291 48.5761C57.2509 48.6979 57.4161 48.7663 57.5884 48.7663Z" fill="white"/>
<path opacity="0.7" d="M56.939 48.7663H56.545C56.3728 48.7663 56.2076 48.6979 56.0857 48.5761C55.9639 48.4543 55.8955 48.2891 55.8955 48.1168C55.8955 47.9445 55.9639 47.7793 56.0857 47.6575C56.2076 47.5357 56.3728 47.4673 56.545 47.4673H56.939C56.7668 47.4673 56.6016 47.5357 56.4798 47.6575C56.3579 47.7793 56.2895 47.9445 56.2895 48.1168C56.2895 48.2891 56.3579 48.4543 56.4798 48.5761C56.6016 48.6979 56.7668 48.7663 56.939 48.7663Z" fill="white"/>
<path opacity="0.35" d="M68.8038 48.1168C68.8037 48.2891 68.7352 48.4543 68.6133 48.5761C68.4914 48.6979 68.3262 48.7663 68.1539 48.7663H65.4307C65.6029 48.7663 65.7681 48.6979 65.8899 48.5761C66.0117 48.4543 66.0802 48.2891 66.0802 48.1168C66.0802 47.9445 66.0117 47.7793 65.8899 47.6575C65.7681 47.5357 65.6029 47.4673 65.4307 47.4673H68.1539C68.3262 47.4673 68.4914 47.5357 68.6133 47.6575C68.7352 47.7793 68.8037 47.9445 68.8038 48.1168Z" fill="#1F1F7A"/>
<path d="M68.1552 48.9808H56.5445C56.4293 48.9833 56.3147 48.9629 56.2076 48.9206C56.1004 48.8783 56.0027 48.815 55.9204 48.7344C55.838 48.6539 55.7725 48.5577 55.7279 48.4515C55.6832 48.3453 55.6602 48.2312 55.6602 48.116C55.6602 48.0008 55.6832 47.8867 55.7279 47.7805C55.7725 47.6743 55.838 47.5781 55.9204 47.4975C56.0027 47.417 56.1004 47.3537 56.2076 47.3114C56.3147 47.2691 56.4293 47.2486 56.5445 47.2512H68.1552C68.3812 47.2562 68.5962 47.3496 68.7543 47.5112C68.9124 47.6728 69.0009 47.8899 69.0009 48.116C69.0009 48.3421 68.9124 48.5591 68.7543 48.7208C68.5962 48.8824 68.3812 48.9757 68.1552 48.9808ZM56.5445 47.6813C56.4862 47.6795 56.4282 47.6894 56.3739 47.7104C56.3195 47.7314 56.27 47.7631 56.2282 47.8037C56.1863 47.8442 56.153 47.8928 56.1303 47.9464C56.1076 48.0001 56.0959 48.0577 56.0959 48.116C56.0959 48.1742 56.1076 48.2319 56.1303 48.2856C56.153 48.3392 56.1863 48.3877 56.2282 48.4283C56.27 48.4688 56.3195 48.5005 56.3739 48.5216C56.4282 48.5426 56.4862 48.5525 56.5445 48.5506H68.1552C68.2681 48.5471 68.3752 48.4997 68.4538 48.4186C68.5324 48.3375 68.5763 48.2289 68.5763 48.116C68.5763 48.003 68.5324 47.8945 68.4538 47.8134C68.3752 47.7322 68.2681 47.6849 68.1552 47.6813H56.5445Z" fill="#1F1F7A"/>
<path d="M57.7705 44.0391H66.9204C67.112 44.0391 67.2958 44.1152 67.4313 44.2507C67.5669 44.3862 67.643 44.57 67.643 44.7617V47.466H57.0479V44.7617C57.0479 44.6668 57.0665 44.5728 57.1029 44.4852C57.1392 44.3975 57.1924 44.3178 57.2595 44.2507C57.3266 44.1836 57.4063 44.1304 57.4939 44.0941C57.5816 44.0578 57.6756 44.0391 57.7705 44.0391Z" fill="white"/>
<path opacity="0.35" d="M66.569 44.8765H66.3191C66.2243 44.8765 66.1475 44.9533 66.1475 45.0481V46.4546C66.1475 46.5494 66.2243 46.6263 66.3191 46.6263H66.569C66.6638 46.6263 66.7406 46.5494 66.7406 46.4546V45.0481C66.7406 44.9533 66.6638 44.8765 66.569 44.8765Z" fill="#1F1F7A"/>
<path opacity="0.35" d="M64.9293 44.8765H64.6794C64.5847 44.8765 64.5078 44.9533 64.5078 45.0481V46.4546C64.5078 46.5494 64.5847 46.6263 64.6794 46.6263H64.9293C65.0241 46.6263 65.101 46.5494 65.101 46.4546V45.0481C65.101 44.9533 65.0241 44.8765 64.9293 44.8765Z" fill="#1F1F7A"/>
<path opacity="0.35" d="M63.2877 44.8765H63.0378C62.943 44.8765 62.8662 44.9533 62.8662 45.0481V46.4546C62.8662 46.5494 62.943 46.6263 63.0378 46.6263H63.2877C63.3825 46.6263 63.4594 46.5494 63.4594 46.4546V45.0481C63.4594 44.9533 63.3825 44.8765 63.2877 44.8765Z" fill="#1F1F7A"/>
<path opacity="0.35" d="M61.651 44.8765H61.4011C61.3063 44.8765 61.2295 44.9533 61.2295 45.0481V46.4546C61.2295 46.5494 61.3063 46.6263 61.4011 46.6263H61.651C61.7458 46.6263 61.8227 46.5494 61.8227 46.4546V45.0481C61.8227 44.9533 61.7458 44.8765 61.651 44.8765Z" fill="#1F1F7A"/>
<path opacity="0.35" d="M60.0114 44.8765H59.7615C59.6667 44.8765 59.5898 44.9533 59.5898 45.0481V46.4546C59.5898 46.5494 59.6667 46.6263 59.7615 46.6263H60.0114C60.1062 46.6263 60.183 46.5494 60.183 46.4546V45.0481C60.183 44.9533 60.1062 44.8765 60.0114 44.8765Z" fill="#1F1F7A"/>
<path opacity="0.35" d="M58.3678 44.8765H58.1179C58.0231 44.8765 57.9463 44.9533 57.9463 45.0481V46.4546C57.9463 46.5494 58.0231 46.6263 58.1179 46.6263H58.3678C58.4626 46.6263 58.5394 46.5494 58.5394 46.4546V45.0481C58.5394 44.9533 58.4626 44.8765 58.3678 44.8765Z" fill="#1F1F7A"/>
<path opacity="0.35" d="M67.6469 44.7617V47.4664H65.6137V44.7617C65.6137 44.6668 65.595 44.5728 65.5586 44.4851C65.5223 44.3974 65.469 44.3177 65.4019 44.2506C65.3347 44.1835 65.255 44.1302 65.1673 44.0939C65.0796 44.0577 64.9856 44.039 64.8906 44.0391H66.9243C67.116 44.0391 67.2998 44.1152 67.4353 44.2507C67.5708 44.3862 67.6469 44.57 67.6469 44.7617Z" fill="#1F1F7A"/>
<path d="M67.6435 47.6822H57.0471C56.9901 47.6822 56.9354 47.6596 56.895 47.6192C56.8547 47.5789 56.832 47.5242 56.832 47.4672V44.7629C56.8324 44.5143 56.9313 44.276 57.1071 44.1002C57.2828 43.9244 57.5211 43.8255 57.7697 43.8252H66.92C67.1686 43.8255 67.4069 43.9244 67.5827 44.1002C67.7585 44.276 67.8574 44.5143 67.8577 44.7629V47.4672C67.8577 47.5241 67.8352 47.5786 67.7951 47.6189C67.7549 47.6593 67.7004 47.682 67.6435 47.6822ZM57.263 47.2521H67.4285V44.7629C67.4282 44.6284 67.3747 44.4994 67.2796 44.4042C67.1844 44.3091 67.0555 44.2556 66.9209 44.2553H57.7706C57.636 44.2554 57.507 44.309 57.4118 44.4041C57.3167 44.4993 57.2631 44.6283 57.263 44.7629V47.2521Z" fill="#1F1F7A"/>
<path d="M12.7139 49.7466H23.0393V62.7896C23.0393 63.0136 22.9952 63.2353 22.9095 63.4421C22.8238 63.649 22.6982 63.837 22.5399 63.9953C22.3816 64.1536 22.1936 64.2792 21.9868 64.3649C21.7799 64.4506 21.5582 64.4947 21.3343 64.4947H14.4189C14.195 64.4947 13.9733 64.4506 13.7664 64.3649C13.5596 64.2792 13.3716 64.1536 13.2133 63.9953C13.0549 63.837 12.9293 63.649 12.8437 63.4421C12.758 63.2353 12.7139 63.0136 12.7139 62.7896V49.7466Z" fill="#129D88"/>
<path opacity="0.7" d="M15.0869 64.4943H14.4189C14.195 64.4943 13.9733 64.4502 13.7664 64.3645C13.5596 64.2788 13.3716 64.1532 13.2133 63.9949C13.0549 63.8365 12.9293 63.6486 12.8437 63.4417C12.758 63.2348 12.7139 63.0131 12.7139 62.7892V49.7466H13.3823V62.7892C13.3822 63.0131 13.4263 63.2348 13.5119 63.4417C13.5976 63.6485 13.7231 63.8365 13.8814 63.9948C14.0397 64.1532 14.2277 64.2788 14.4345 64.3645C14.6413 64.4502 14.863 64.4943 15.0869 64.4943Z" fill="white"/>
<path d="M23.0341 54.1185V61.7238H15.5317C15.3275 61.7236 15.1317 61.6423 14.9873 61.4979C14.843 61.3534 14.7618 61.1576 14.7617 60.9534V54.8885C14.7617 54.6841 14.8429 54.488 14.9875 54.3434C15.132 54.1989 15.3281 54.1177 15.5325 54.1177L23.0341 54.1185Z" fill="white"/>
<path d="M20.6773 58.7353H15.7815C15.7244 58.7353 15.6697 58.7127 15.6294 58.6723C15.5891 58.632 15.5664 58.5773 15.5664 58.5202C15.5664 58.4632 15.5891 58.4085 15.6294 58.3682C15.6697 58.3278 15.7244 58.3052 15.7815 58.3052H20.6773C20.7343 58.3052 20.789 58.3278 20.8294 58.3682C20.8697 58.4085 20.8924 58.4632 20.8924 58.5202C20.8924 58.5773 20.8697 58.632 20.8294 58.6723C20.789 58.7127 20.7343 58.7353 20.6773 58.7353Z" fill="#1F1F7A"/>
<path d="M18.7757 59.8286H15.7815C15.7244 59.8286 15.6697 59.8059 15.6294 59.7656C15.5891 59.7252 15.5664 59.6705 15.5664 59.6135C15.5664 59.5565 15.5891 59.5018 15.6294 59.4614C15.6697 59.4211 15.7244 59.3984 15.7815 59.3984H18.7757C18.8327 59.3984 18.8874 59.4211 18.9277 59.4614C18.9681 59.5018 18.9907 59.5565 18.9907 59.6135C18.9907 59.6705 18.9681 59.7252 18.9277 59.7656C18.8874 59.8059 18.8327 59.8286 18.7757 59.8286Z" fill="#1F1F7A"/>
<path d="M19.8218 60.9218H15.7785C15.7215 60.9218 15.6668 60.8992 15.6265 60.8588C15.5861 60.8185 15.5635 60.7638 15.5635 60.7068C15.5635 60.6497 15.5861 60.595 15.6265 60.5547C15.6668 60.5144 15.7215 60.4917 15.7785 60.4917H19.8218C19.8789 60.4917 19.9336 60.5144 19.9739 60.5547C20.0142 60.595 20.0369 60.6497 20.0369 60.7068C20.0369 60.7638 20.0142 60.8185 19.9739 60.8588C19.9336 60.8992 19.8789 60.9218 19.8218 60.9218Z" fill="#1F1F7A"/>
<path d="M16.9346 57.4961C17.6228 57.4961 18.1807 56.9382 18.1807 56.25C18.1807 55.5618 17.6228 55.0039 16.9346 55.0039C16.2464 55.0039 15.6885 55.5618 15.6885 56.25C15.6885 56.9382 16.2464 57.4961 16.9346 57.4961Z" fill="#09A8A9"/>
<path d="M17.6642 56.1086V56.3938C17.6642 56.4205 17.6536 56.4461 17.6347 56.465C17.6158 56.4838 17.5902 56.4944 17.5635 56.4944H17.1811V56.8768C17.1811 56.9035 17.1705 56.9291 17.1516 56.948C17.1328 56.9669 17.1072 56.9775 17.0805 56.9775H16.7953C16.7686 56.9775 16.743 56.9669 16.7241 56.948C16.7052 56.9291 16.6946 56.9035 16.6946 56.8768V56.4944H16.3135C16.2868 56.4944 16.2612 56.4838 16.2424 56.465C16.2235 56.4461 16.2129 56.4205 16.2129 56.3938V56.1086C16.2129 56.0819 16.2235 56.0563 16.2424 56.0374C16.2612 56.0186 16.2868 56.0079 16.3135 56.0079H16.6959V55.6256C16.6959 55.5989 16.7065 55.5733 16.7254 55.5544C16.7443 55.5355 16.7699 55.5249 16.7966 55.5249H17.0818C17.1085 55.5249 17.1341 55.5355 17.1529 55.5544C17.1718 55.5733 17.1824 55.5989 17.1824 55.6256V56.0079H17.5648C17.5913 56.0083 17.6166 56.019 17.6352 56.0379C17.6537 56.0567 17.6642 56.0821 17.6642 56.1086Z" fill="white"/>
<path opacity="0.35" d="M23.0393 49.7466V62.7892C23.0394 63.0131 22.9953 63.2349 22.9096 63.4418C22.824 63.6487 22.6984 63.8367 22.54 63.995C22.3817 64.1533 22.1937 64.2789 21.9868 64.3646C21.7799 64.4503 21.5582 64.4943 21.3343 64.4943H19.2576C19.7095 64.4939 20.1429 64.3141 20.4624 63.9944C20.7819 63.6747 20.9613 63.2412 20.9613 62.7892V51.6456C20.9613 51.5134 20.9353 51.3825 20.8847 51.2603C20.8341 51.1381 20.7599 51.0271 20.6664 50.9336C20.5729 50.8401 20.4619 50.7659 20.3397 50.7153C20.2175 50.6647 20.0866 50.6387 19.9544 50.6387H12.7139V49.7466H23.0393Z" fill="#1F1F7A"/>
<path opacity="0.7" d="M23.035 61.7244V62.2488H15.5325C15.1067 62.2488 14.7617 61.8031 14.7617 61.3782V60.9536C14.7617 61.158 14.8429 61.3541 14.9875 61.4987C15.132 61.6432 15.3281 61.7244 15.5325 61.7244H23.035Z" fill="white"/>
<path d="M23.0383 61.9406H15.5358C15.2746 61.9401 15.0243 61.8361 14.8396 61.6514C14.655 61.4667 14.5511 61.2163 14.5508 60.9551V54.8902C14.551 54.6288 14.655 54.3781 14.8398 54.1933C15.0246 54.0085 15.2753 53.9045 15.5367 53.9043H23.0383C23.0953 53.9043 23.15 53.927 23.1903 53.9673C23.2307 54.0076 23.2533 54.0623 23.2533 54.1194V61.7255C23.2533 61.7825 23.2307 61.8372 23.1903 61.8776C23.15 61.9179 23.0953 61.9406 23.0383 61.9406ZM15.5358 54.3353C15.3886 54.3356 15.2475 54.3943 15.1435 54.4985C15.0395 54.6027 14.981 54.7438 14.9809 54.891V60.956C14.9814 61.103 15.04 61.2438 15.144 61.3477C15.2479 61.4516 15.3888 61.5101 15.5358 61.5104H22.8232V54.3353H15.5358Z" fill="#1F1F7A"/>
<path d="M21.33 64.7091H14.4143C13.9052 64.7086 13.417 64.5062 13.057 64.1462C12.697 63.7862 12.4946 63.2981 12.4941 62.789V49.7463C12.4941 49.6893 12.5168 49.6346 12.5571 49.5942C12.5975 49.5539 12.6522 49.5312 12.7092 49.5312H23.0347C23.0917 49.5313 23.1464 49.5539 23.1867 49.5942C23.2271 49.6346 23.2497 49.6893 23.2497 49.7463V62.789C23.2493 63.298 23.0469 63.7861 22.687 64.146C22.3271 64.506 21.8391 64.7085 21.33 64.7091ZM12.9243 49.9614V62.789C12.9247 63.184 13.0819 63.5627 13.3612 63.842C13.6405 64.1214 14.0192 64.2785 14.4143 64.2789H21.33C21.725 64.2785 22.1037 64.1213 22.383 63.842C22.6622 63.5627 22.8193 63.1839 22.8196 62.789V49.9614H12.9243Z" fill="#1F1F7A"/>
<path d="M23.8648 46.7271H11.854C11.4951 46.7271 11.2041 47.018 11.2041 47.377V49.0648C11.2041 49.4238 11.4951 49.7148 11.854 49.7148H23.8648C24.2237 49.7148 24.5147 49.4238 24.5147 49.0648V47.377C24.5147 47.018 24.2237 46.7271 23.8648 46.7271Z" fill="white"/>
<path opacity="0.35" d="M24.5143 47.377V49.0644C24.5142 49.2368 24.4456 49.4021 24.3236 49.524C24.2017 49.6459 24.0363 49.7144 23.8639 49.7144H20.8633C21.0357 49.7144 21.2011 49.6459 21.323 49.524C21.445 49.4021 21.5135 49.2368 21.5136 49.0644V47.377C21.5136 47.2916 21.4968 47.2071 21.4641 47.1282C21.4314 47.0493 21.3835 46.9776 21.3231 46.9173C21.2627 46.8569 21.191 46.809 21.1121 46.7764C21.0332 46.7438 20.9487 46.727 20.8633 46.7271H23.8639C23.9493 46.727 24.0339 46.7438 24.1128 46.7764C24.1917 46.809 24.2634 46.8569 24.3238 46.9173C24.3842 46.9776 24.4321 47.0493 24.4648 47.1282C24.4975 47.2071 24.5143 47.2916 24.5143 47.377Z" fill="#1F1F7A"/>
<path opacity="0.35" d="M15.0615 47.4453H14.9071C14.8246 47.4453 14.7578 47.5121 14.7578 47.5946V48.848C14.7578 48.9304 14.8246 48.9972 14.9071 48.9972H15.0615C15.1439 48.9972 15.2107 48.9304 15.2107 48.848V47.5946C15.2107 47.5121 15.1439 47.4453 15.0615 47.4453Z" fill="#1F1F7A"/>
<path opacity="0.35" d="M13.6162 47.4453H13.4618C13.3793 47.4453 13.3125 47.5121 13.3125 47.5946V48.848C13.3125 48.9304 13.3793 48.9972 13.4618 48.9972H13.6162C13.6986 48.9972 13.7654 48.9304 13.7654 48.848V47.5946C13.7654 47.5121 13.6986 47.4453 13.6162 47.4453Z" fill="#1F1F7A"/>
<path opacity="0.35" d="M12.164 47.4453H12.0096C11.9272 47.4453 11.8604 47.5121 11.8604 47.5946V48.848C11.8604 48.9304 11.9272 48.9972 12.0096 48.9972H12.164C12.2465 48.9972 12.3133 48.9304 12.3133 48.848V47.5946C12.3133 47.5121 12.2465 47.4453 12.164 47.4453Z" fill="#1F1F7A"/>
<path opacity="0.35" d="M16.5117 47.4453H16.3573C16.2748 47.4453 16.208 47.5121 16.208 47.5946V48.848C16.208 48.9304 16.2748 48.9972 16.3573 48.9972H16.5117C16.5941 48.9972 16.6609 48.9304 16.6609 48.848V47.5946C16.6609 47.5121 16.5941 47.4453 16.5117 47.4453Z" fill="#1F1F7A"/>
<path opacity="0.35" d="M17.9609 47.4453H17.8065C17.7241 47.4453 17.6572 47.5121 17.6572 47.5946V48.848C17.6572 48.9304 17.7241 48.9972 17.8065 48.9972H17.9609C18.0433 48.9972 18.1102 48.9304 18.1102 48.848V47.5946C18.1102 47.5121 18.0433 47.4453 17.9609 47.4453Z" fill="#1F1F7A"/>
<path opacity="0.35" d="M19.4091 47.4453H19.2547C19.1723 47.4453 19.1055 47.5121 19.1055 47.5946V48.848C19.1055 48.9304 19.1723 48.9972 19.2547 48.9972H19.4091C19.4916 48.9972 19.5584 48.9304 19.5584 48.848V47.5946C19.5584 47.5121 19.4916 47.4453 19.4091 47.4453Z" fill="#1F1F7A"/>
<path opacity="0.35" d="M20.8574 47.4453H20.703C20.6205 47.4453 20.5537 47.5121 20.5537 47.5946V48.848C20.5537 48.9304 20.6205 48.9972 20.703 48.9972H20.8574C20.9398 48.9972 21.0066 48.9304 21.0066 48.848V47.5946C21.0066 47.5121 20.9398 47.4453 20.8574 47.4453Z" fill="#1F1F7A"/>
<path opacity="0.35" d="M22.3076 47.4453H22.1532C22.0707 47.4453 22.0039 47.5121 22.0039 47.5946V48.848C22.0039 48.9304 22.0707 48.9972 22.1532 48.9972H22.3076C22.39 48.9972 22.4568 48.9304 22.4568 48.848V47.5946C22.4568 47.5121 22.39 47.4453 22.3076 47.4453Z" fill="#1F1F7A"/>
<path opacity="0.35" d="M23.7548 47.4453H23.6004C23.518 47.4453 23.4512 47.5121 23.4512 47.5946V48.848C23.4512 48.9304 23.518 48.9972 23.6004 48.9972H23.7548C23.8373 48.9972 23.9041 48.9304 23.9041 48.848V47.5946C23.9041 47.5121 23.8373 47.4453 23.7548 47.4453Z" fill="#1F1F7A"/>
<path d="M23.8669 49.9306H11.8566C11.6273 49.9303 11.4073 49.8391 11.2451 49.677C11.0829 49.5148 10.9916 49.2949 10.9912 49.0656V47.3781C10.9916 47.1487 11.0828 46.9288 11.2451 46.7666C11.4073 46.6043 11.6272 46.513 11.8566 46.5127H23.8669C24.0964 46.513 24.3163 46.6043 24.4785 46.7666C24.6408 46.9288 24.732 47.1487 24.7324 47.3781V49.0656C24.732 49.2949 24.6407 49.5148 24.4785 49.677C24.3163 49.8391 24.0963 49.9303 23.8669 49.9306ZM11.8566 46.9428C11.7412 46.9429 11.6306 46.9888 11.549 47.0705C11.4674 47.1521 11.4215 47.2627 11.4213 47.3781V49.0656C11.4216 49.1809 11.4675 49.2914 11.5491 49.373C11.6307 49.4545 11.7413 49.5003 11.8566 49.5004H23.8669C23.9823 49.5003 24.0929 49.4545 24.1745 49.373C24.2561 49.2914 24.302 49.1809 24.3022 49.0656V47.3781C24.3021 47.2627 24.2562 47.1521 24.1746 47.0705C24.093 46.9888 23.9824 46.9429 23.8669 46.9428H11.8566Z" fill="#1F1F7A"/>
<path d="M13.8364 44.0391H21.914C22.1449 44.0391 22.3663 44.1308 22.5296 44.2941C22.6928 44.4573 22.7846 44.6788 22.7846 44.9097V46.7274H12.9658V44.9097C12.9658 44.6788 13.0575 44.4573 13.2208 44.2941C13.3841 44.1308 13.6055 44.0391 13.8364 44.0391Z" fill="white"/>
<path opacity="0.35" d="M22.7821 44.9097V46.7274H21.1161V44.9097C21.1161 44.7953 21.0936 44.6821 21.0498 44.5764C21.0061 44.4707 20.9419 44.3748 20.861 44.2939C20.7801 44.2131 20.6841 44.1489 20.5784 44.1052C20.4727 44.0615 20.3595 44.039 20.2451 44.0391H21.9115C22.1424 44.0391 22.3638 44.1308 22.5271 44.2941C22.6903 44.4573 22.7821 44.6788 22.7821 44.9097Z" fill="#1F1F7A"/>
<path d="M22.7789 46.9437H12.9602C12.9031 46.9437 12.8484 46.921 12.8081 46.8807C12.7678 46.8404 12.7451 46.7857 12.7451 46.7286V44.9109C12.7455 44.623 12.86 44.3471 13.0635 44.1436C13.267 43.94 13.543 43.8255 13.8308 43.8252H21.9083C22.1962 43.8255 22.4721 43.94 22.6756 44.1436C22.8792 44.3471 22.9937 44.623 22.994 44.9109V46.7286C22.994 46.7857 22.9713 46.8404 22.931 46.8807C22.8907 46.921 22.836 46.9437 22.7789 46.9437ZM13.1753 46.5136H22.5639V44.9109C22.5636 44.7371 22.4945 44.5705 22.3716 44.4476C22.2487 44.3247 22.0821 44.2556 21.9083 44.2553H13.8308C13.657 44.2556 13.4904 44.3247 13.3675 44.4476C13.2446 44.5705 13.1755 44.7371 13.1753 44.9109V46.5136Z" fill="#1F1F7A"/>
<path d="M37.7504 32.2682L36.4341 35.0916C36.331 35.3128 36.1853 35.5115 36.0054 35.6763C35.8254 35.8412 35.6148 35.969 35.3855 36.0525C35.1561 36.1359 34.9126 36.1734 34.6688 36.1628C34.425 36.1521 34.1857 36.0935 33.9645 35.9904C33.7433 35.8872 33.5447 35.7415 33.3798 35.5616C33.2149 35.3817 33.0871 35.171 33.0036 34.9417C32.9202 34.7124 32.8827 34.4689 32.8934 34.225C32.904 33.9812 32.9626 33.7419 33.0657 33.5207L34.3824 30.6978C34.2731 30.9317 34.9386 31.472 35.8685 31.9069C36.7985 32.3417 37.6415 32.5026 37.7504 32.2682Z" fill="#CDE1F7"/>
<path d="M39.067 29.4454L37.7508 32.2684C37.642 32.5028 36.7994 32.3407 35.869 31.9071C34.9386 31.4735 34.2736 30.932 34.3828 30.698L35.6991 27.8746C35.9095 27.4314 36.2867 27.0894 36.7483 26.9233C37.2099 26.7571 37.7184 26.7803 38.163 26.9876C38.6077 27.195 38.9522 27.5698 39.1216 28.0302C39.2909 28.4907 39.2713 28.9994 39.067 29.4454Z" fill="#25BBA4"/>
<path opacity="0.7" d="M39.2357 28.8076C39.2275 28.7826 39.2189 28.7573 39.2103 28.7327C39.1091 28.4536 38.9538 28.1973 38.7533 27.9784C38.5527 27.7595 38.3108 27.5825 38.0416 27.4574C37.7993 27.3433 37.5301 27.2986 37.2639 27.3283C37.2764 27.5701 37.1319 27.832 36.8738 27.989C36.6359 28.134 36.3636 28.1525 36.158 28.0591C36.1395 28.0918 36.1223 28.1258 36.106 28.1602L33.3028 34.1727C33.1446 34.5106 33.0922 34.8885 33.1527 35.2566C32.9977 34.9963 32.9089 34.7019 32.8939 34.3993C32.8789 34.0967 32.9382 33.795 33.0666 33.5206L35.6999 27.8738C35.7427 27.7812 35.7932 27.6924 35.8509 27.6084C36.0825 27.2706 36.4192 27.0188 36.8086 26.892C37.198 26.7653 37.6184 26.7707 38.0044 26.9074C38.3904 27.0442 38.7205 27.3046 38.9433 27.6482C39.1661 27.9918 39.2692 28.3994 39.2365 28.8076H39.2357Z" fill="white"/>
<path d="M37.4502 32.5933C37.3244 32.591 37.1991 32.5765 37.076 32.5503C36.704 32.4789 36.2424 32.3202 35.777 32.103C35.4634 31.9567 33.9119 31.1971 34.1855 30.6078L35.503 27.787C35.6181 27.5402 35.7806 27.3185 35.9814 27.1346C36.1821 26.9506 36.4171 26.808 36.6729 26.7149C36.9288 26.6218 37.2005 26.5799 37.4725 26.5918C37.7445 26.6037 38.0115 26.669 38.2583 26.7841C38.505 26.8991 38.7267 27.0617 38.9106 27.2624C39.0946 27.4632 39.2372 27.6982 39.3303 27.954C39.4234 28.2099 39.4653 28.4815 39.4534 28.7536C39.4415 29.0256 39.3762 29.2926 39.2611 29.5393L37.9449 32.3628C37.8584 32.5456 37.6464 32.5933 37.4502 32.5933ZM34.589 30.7626C34.6436 30.9011 35.0854 31.3059 35.959 31.7132C36.8326 32.1206 37.4262 32.1984 37.5677 32.1516L38.8714 29.3557C39.0556 28.9607 39.0753 28.5087 38.9263 28.0991C38.7772 27.6896 38.4715 27.356 38.0765 27.1719C37.6815 26.9877 37.2295 26.9679 36.82 27.117C36.4105 27.2661 36.0769 27.5717 35.8927 27.9667L34.589 30.7626Z" fill="#1F1F7A"/>
<path d="M34.7458 36.3807C34.4441 36.3806 34.146 36.3144 33.8726 36.1867C33.375 35.9535 32.9901 35.5325 32.8024 35.0159C32.6148 34.4993 32.6397 33.9294 32.8717 33.4312L35.5029 27.787C35.6179 27.5402 35.7805 27.3185 35.9812 27.1346C36.1819 26.9506 36.4169 26.808 36.6728 26.7149C36.9286 26.6218 37.2003 26.5799 37.4723 26.5918C37.7443 26.6037 38.0113 26.669 38.2581 26.7841C38.5049 26.8991 38.7266 27.0617 38.9105 27.2624C39.0944 27.4632 39.237 27.6982 39.3302 27.954C39.4233 28.2099 39.4651 28.4815 39.4532 28.7536C39.4414 29.0256 39.376 29.2926 39.261 29.5393L36.6281 35.1853C36.4605 35.543 36.1944 35.8454 35.861 36.0571C35.5276 36.2688 35.1408 36.3811 34.7458 36.3807ZM34.0546 35.797C34.4497 35.9805 34.9014 35.9999 35.3108 35.8509C35.7201 35.7019 36.0537 35.3966 36.2384 35.0021L38.8713 29.3552C39.0554 28.9602 39.0752 28.5082 38.9261 28.0987C38.777 27.6892 38.4714 27.3556 38.0764 27.1714C37.6814 26.9872 37.2294 26.9675 36.8198 27.1166C36.4103 27.2657 36.0767 27.5713 35.8926 27.9663L33.2588 33.6132C33.0752 34.0082 33.0558 34.46 33.2048 34.8694C33.3538 35.2788 33.6591 35.6124 34.0537 35.797H34.0546Z" fill="#1F1F7A"/>
<path opacity="0.35" d="M39.067 29.4445L36.4346 35.0909C36.2486 35.4894 35.9274 35.8091 35.528 35.9932C35.1286 36.1772 34.6768 36.2136 34.2531 36.096C33.8293 35.9783 33.461 35.7143 33.2136 35.3507C32.9662 34.9871 32.8557 34.5475 32.9019 34.1102C33.1275 34.6121 33.5263 35.016 34.0254 35.2479C34.1944 35.3266 34.3773 35.3712 34.5636 35.3792C34.7498 35.3872 34.9359 35.3584 35.111 35.2945C35.2862 35.2306 35.447 35.1328 35.5844 35.0067C35.7217 34.8806 35.8329 34.7287 35.9115 34.5597L38.7302 28.5162C38.8667 28.2246 38.9246 27.9024 38.8984 27.5815C38.9947 27.7177 39.0724 27.8661 39.1294 28.0229C39.2134 28.2522 39.2511 28.4959 39.2404 28.7399C39.2297 28.9839 39.1708 29.2234 39.067 29.4445Z" fill="#1F1F7A"/>
<path d="M46.066 17.8154L47.8528 20.3674C48.1355 20.7712 48.2462 21.2707 48.1606 21.756C48.075 22.2414 47.8001 22.6729 47.3964 22.9556C46.9927 23.2383 46.4932 23.349 46.0078 23.2634C45.5225 23.1778 45.091 22.9029 44.8083 22.4992L43.0215 19.9472C43.1699 20.1588 43.9712 19.8534 44.8121 19.2646C45.6531 18.6757 46.214 18.0271 46.066 17.8154Z" fill="#CDE1F7"/>
<path d="M44.2761 15.2641L46.0629 17.8157C46.2109 18.0273 45.6495 18.676 44.809 19.2648C43.9685 19.8537 43.1668 20.1591 43.0184 19.9475L41.2316 17.3959C40.9489 16.9922 40.8382 16.4927 40.9237 16.0073C41.0093 15.5219 41.2842 15.0904 41.688 14.8078C42.0917 14.5251 42.5912 14.4143 43.0765 14.4999C43.5619 14.5855 43.9934 14.8604 44.2761 15.2641Z" fill="#25BBA4"/>
<path opacity="0.7" d="M43.8113 14.7992C43.7855 14.7936 43.7592 14.7884 43.7334 14.7837C43.4411 14.7318 43.1415 14.7381 42.8516 14.8024C42.5618 14.8667 42.2876 14.9877 42.0447 15.1583C41.8252 15.3115 41.6523 15.5225 41.5453 15.7679C41.7604 15.878 41.9156 16.1339 41.9225 16.4363C41.9294 16.7146 41.809 16.9593 41.6253 17.091C41.6442 17.1236 41.6649 17.155 41.6868 17.1864L45.491 22.6195C45.7048 22.9254 46.006 23.1595 46.3551 23.2914C46.0519 23.2958 45.7523 23.2259 45.4823 23.0878C45.2124 22.9497 44.9804 22.7476 44.8066 22.4991L41.2339 17.3951C41.1755 17.3116 41.124 17.2236 41.0799 17.1318C40.9035 16.7624 40.8539 16.345 40.939 15.9446C41.024 15.5441 41.2389 15.1829 41.5502 14.9171C41.8615 14.6512 42.2519 14.4955 42.6607 14.4742C43.0696 14.4529 43.474 14.5671 43.8113 14.7992Z" fill="white"/>
<path d="M43.2049 20.2305C43.0642 20.2305 42.93 20.1913 42.8462 20.0713L41.0594 17.5193C40.744 17.0687 40.6205 16.5112 40.7162 15.9696C40.8118 15.428 41.1187 14.9465 41.5693 14.6311C42.0199 14.3158 42.5773 14.1923 43.119 14.2879C43.6606 14.3836 44.1421 14.6905 44.4574 15.1411L46.2442 17.6931C46.6167 18.2251 45.2209 19.2416 44.9375 19.4416C44.5168 19.7358 44.0897 19.9724 43.7357 20.1079C43.6342 20.1457 43.4126 20.2305 43.2049 20.2305ZM43.1812 19.8003C43.3288 19.8218 43.9 19.6416 44.6893 19.0889C45.4786 18.5361 45.8433 18.0608 45.8735 17.915L44.1034 15.388C43.9806 15.209 43.8235 15.0561 43.6413 14.9382C43.459 14.8203 43.2552 14.7397 43.0416 14.701C42.828 14.6623 42.6089 14.6663 42.3968 14.7128C42.1848 14.7593 41.9841 14.8473 41.8062 14.9718C41.6284 15.0963 41.4771 15.2549 41.3609 15.4382C41.2447 15.6216 41.1659 15.8261 41.1292 16.0401C41.0925 16.254 41.0986 16.4731 41.1471 16.6847C41.1956 16.8963 41.2855 17.0962 41.4116 17.2728L43.1812 19.8003Z" fill="#1F1F7A"/>
<path d="M46.3341 23.5064C46.0006 23.5073 45.6717 23.4276 45.3755 23.2741C45.0794 23.1207 44.8246 22.898 44.6329 22.625L41.0594 17.5193C40.744 17.0687 40.6205 16.5112 40.7162 15.9696C40.8118 15.428 41.1187 14.9465 41.5693 14.6311C42.0199 14.3158 42.5773 14.1923 43.119 14.2879C43.6606 14.3836 44.1421 14.6905 44.4574 15.1411L48.031 20.2446C48.3463 20.6951 48.4698 21.2524 48.3742 21.7938C48.2787 22.3353 47.9721 22.8167 47.5217 23.1322C47.1738 23.3761 46.7591 23.5068 46.3341 23.5064ZM42.7541 14.6886C42.4537 14.6892 42.1593 14.7722 41.9028 14.9285C41.6463 15.0848 41.4375 15.3084 41.2991 15.575C41.1607 15.8416 41.098 16.141 41.1179 16.4407C41.1377 16.7404 41.2393 17.0289 41.4116 17.275L44.9852 22.3786C45.2355 22.735 45.617 22.9777 46.046 23.0533C46.475 23.129 46.9164 23.0314 47.2736 22.782C47.4503 22.6583 47.601 22.5009 47.717 22.319C47.8329 22.137 47.9119 21.934 47.9494 21.7214C47.9868 21.5089 47.9821 21.2911 47.9353 21.0805C47.8886 20.8698 47.8008 20.6704 47.677 20.4937L44.1034 15.388C43.9511 15.1716 43.749 14.9949 43.5142 14.8728C43.2794 14.7507 43.0187 14.6868 42.7541 14.6864V14.6886Z" fill="#1F1F7A"/>
<path opacity="0.35" d="M44.2772 15.2635L47.8508 20.3671C48.1028 20.7274 48.2188 21.1654 48.1784 21.6032C48.138 22.041 47.9437 22.4503 47.63 22.7584C47.3163 23.0665 46.9035 23.2533 46.4651 23.2858C46.0266 23.3183 45.5908 23.1944 45.2351 22.9359C45.7831 22.9922 46.3329 22.8488 46.7836 22.532C46.9366 22.4251 47.0669 22.2891 47.1673 22.1317C47.2676 21.9744 47.3359 21.7988 47.3683 21.615C47.4007 21.4312 47.3966 21.2429 47.3561 21.0607C47.3156 20.8785 47.2396 20.7061 47.1325 20.5534L43.3072 15.0906C43.123 14.8267 42.873 14.6154 42.582 14.4777C42.9089 14.4474 43.238 14.504 43.536 14.6418C43.834 14.7795 44.0903 14.9936 44.2789 15.2622L44.2772 15.2635Z" fill="#1F1F7A"/>
<path d="M32.1085 22.4541C32.908 22.6744 33.7622 22.568 34.4832 22.1584C35.2043 21.7488 35.733 21.0696 35.9533 20.2701C36.1735 19.4706 36.0671 18.6164 35.6576 17.8954C35.248 17.1744 34.5687 16.6456 33.7693 16.4253L32.8918 16.1836L31.2314 22.2133L32.1085 22.4541Z" fill="white"/>
<path opacity="0.35" d="M32.1085 22.4541C32.908 22.6744 33.7622 22.568 34.4832 22.1584C35.2043 21.7488 35.733 21.0696 35.9533 20.2701C36.1735 19.4706 36.0671 18.6164 35.6576 17.8954C35.248 17.1744 34.5687 16.6456 33.7693 16.4253L32.8918 16.1836L31.2314 22.2133L32.1085 22.4541Z" fill="#1F1F7A"/>
<path d="M32.9428 22.7805C32.6411 22.7804 32.3407 22.7396 32.0499 22.6592L31.1728 22.4175C31.1178 22.4024 31.0711 22.3661 31.0429 22.3166C31.0146 22.2671 31.0072 22.2084 31.0223 22.1534L32.683 16.1246C32.6905 16.0973 32.7033 16.0718 32.7206 16.0495C32.7379 16.0271 32.7595 16.0084 32.7841 15.9945C32.8086 15.9805 32.8357 15.9715 32.8638 15.968C32.8918 15.9645 32.9203 15.9665 32.9476 15.974L33.8246 16.214C34.6036 16.429 35.2784 16.919 35.724 17.5932C36.1696 18.2674 36.3559 19.0802 36.2483 19.8812C36.1407 20.6822 35.7466 21.417 35.1389 21.9498C34.5311 22.4825 33.751 22.777 32.9428 22.7788V22.7805ZM32.1643 22.2446C32.5329 22.3461 32.9179 22.374 33.2973 22.3268C33.6768 22.2795 34.0432 22.158 34.3756 21.9691C34.7081 21.7802 35.0001 21.5277 35.235 21.226C35.4698 20.9243 35.643 20.5793 35.7445 20.2107C35.8461 19.842 35.874 19.457 35.8267 19.0776C35.7795 18.6982 35.6579 18.3318 35.4691 17.9993C35.2802 17.6668 35.0277 17.3748 34.726 17.14C34.4243 16.9051 34.0792 16.732 33.7106 16.6304L33.0405 16.4459L31.4945 22.06L32.1643 22.2446Z" fill="#1F1F7A"/>
<path d="M34.2743 21.4082C35.4953 20.1871 35.4953 18.2074 34.2743 16.9864C33.0532 15.7653 31.0735 15.7653 29.8525 16.9864C28.6315 18.2074 28.6315 20.1871 29.8525 21.4082C31.0735 22.6292 33.0532 22.6292 34.2743 21.4082Z" fill="white"/>
<path opacity="0.35" d="M35.076 20.0278C34.904 20.6521 34.5424 21.2076 34.0411 21.6176C33.5398 22.0276 32.9236 22.2718 32.2775 22.3165C31.6315 22.3612 30.9875 22.2042 30.4345 21.8672C29.8815 21.5302 29.4468 21.0298 29.1904 20.4351C29.6427 21.0564 30.3079 21.4894 31.0591 21.6514C31.8103 21.8134 32.5949 21.6931 33.263 21.3135C33.9311 20.9338 34.4361 20.3214 34.6814 19.5931C34.9267 18.8649 34.8952 18.0718 34.593 17.3652C34.8681 17.7443 35.0545 18.1805 35.1381 18.6414C35.2217 19.1023 35.2005 19.5762 35.076 20.0278Z" fill="#1F1F7A"/>
<path d="M32.0603 22.5393C31.3609 22.539 30.6792 22.3192 30.1113 21.9111C29.5434 21.5029 29.1179 20.9268 28.8946 20.2641C28.6713 19.6013 28.6616 18.8852 28.8668 18.2166C29.072 17.548 29.4818 16.9606 30.0384 16.5372C30.595 16.1137 31.2705 15.8756 31.9696 15.8563C32.6687 15.8369 33.3562 16.0374 33.9354 16.4295C34.5146 16.8215 34.9561 17.3854 35.198 18.0416C35.4398 18.6979 35.4696 19.4134 35.2833 20.0875C35.0913 20.7943 34.6713 21.4178 34.0884 21.8611C33.5056 22.3045 32.7926 22.5429 32.0603 22.5393ZM32.0603 16.2855C31.3211 16.2853 30.6096 16.5659 30.0695 17.0705C29.5295 17.5752 29.2013 18.2661 29.1514 19.0035C29.1016 19.741 29.3337 20.4698 29.8009 21.0425C30.2681 21.6152 30.9355 21.9891 31.6679 22.0884C32.4003 22.1876 33.1431 22.005 33.7459 21.5773C34.3487 21.1496 34.7665 20.5089 34.9148 19.7848C35.063 19.0607 34.9307 18.3073 34.5444 17.6771C34.1582 17.047 33.547 16.5871 32.8345 16.3905C32.583 16.3214 32.3233 16.2864 32.0624 16.2864L32.0603 16.2855Z" fill="#1F1F7A"/>
<path opacity="0.35" d="M31.23 22.4266C31.2107 22.4268 31.1914 22.4242 31.1728 22.4189C31.1178 22.4038 31.0711 22.3675 31.0429 22.318C31.0146 22.2685 31.0072 22.2098 31.0223 22.1548L32.683 16.126C32.69 16.0982 32.7025 16.0721 32.7197 16.0492C32.7369 16.0263 32.7585 16.0071 32.7832 15.9927C32.808 15.9782 32.8353 15.9689 32.8637 15.9652C32.8921 15.9615 32.921 15.9635 32.9486 15.9711C32.9762 15.9787 33.002 15.9917 33.0245 16.0094C33.0471 16.0271 33.0658 16.0491 33.0797 16.0742C33.0936 16.0992 33.1023 16.1268 33.1054 16.1553C33.1085 16.1837 33.1059 16.2125 33.0977 16.24L31.4373 22.2688C31.4248 22.3142 31.3978 22.3542 31.3603 22.3827C31.3229 22.4112 31.2771 22.4266 31.23 22.4266Z" fill="#1F1F7A"/>
<path d="M57.7203 28.9829C58.5197 29.2032 59.3739 29.0968 60.095 28.6872C60.816 28.2776 61.3448 27.5984 61.565 26.7989C61.7853 25.9995 61.6789 25.1452 61.2693 24.4242C60.8597 23.7032 60.1805 23.1744 59.381 22.9541L58.5035 22.7124L56.8428 28.7412L57.7203 28.9829Z" fill="white"/>
<path opacity="0.35" d="M57.7203 28.9829C58.5197 29.2032 59.3739 29.0968 60.095 28.6872C60.816 28.2776 61.3448 27.5984 61.565 26.7989C61.7853 25.9995 61.6789 25.1452 61.2693 24.4242C60.8597 23.7032 60.1805 23.1744 59.381 22.9541L58.5035 22.7124L56.8428 28.7412L57.7203 28.9829Z" fill="#1F1F7A"/>
<path d="M58.5601 29.3132C58.2584 29.3128 57.9581 29.272 57.6672 29.1919L56.7901 28.9484C56.7628 28.941 56.7373 28.9282 56.715 28.9109C56.6927 28.8935 56.674 28.8719 56.66 28.8474C56.646 28.8228 56.637 28.7957 56.6335 28.7677C56.63 28.7396 56.632 28.7112 56.6396 28.6839L58.3003 22.6551C58.3157 22.6004 58.352 22.554 58.4014 22.526C58.426 22.5121 58.4531 22.5031 58.4811 22.4997C58.5092 22.4962 58.5376 22.4983 58.5649 22.5058L59.4419 22.7476C60.2209 22.9625 60.8957 23.4525 61.3413 24.1267C61.7869 24.8009 61.9732 25.6137 61.8656 26.4147C61.758 27.2157 61.3639 27.9506 60.7562 28.4833C60.1484 29.016 59.3683 29.3105 58.5601 29.3123V29.3132ZM57.7816 28.7764C58.5261 28.9817 59.3216 28.8829 59.9932 28.5017C60.6649 28.1204 61.1576 27.488 61.3629 26.7435C61.5682 25.9991 61.4694 25.2035 61.0882 24.5319C60.707 23.8602 60.0746 23.3676 59.3301 23.1622L58.6599 22.9777L57.1114 28.5914L57.7816 28.7764Z" fill="#1F1F7A"/>
<path d="M59.8876 27.9384C61.1086 26.7174 61.1086 24.7377 59.8876 23.5167C58.6665 22.2956 56.6868 22.2956 55.4658 23.5166C54.2447 24.7377 54.2447 26.7174 55.4658 27.9384C56.6868 29.1595 58.6665 29.1595 59.8876 27.9384Z" fill="white"/>
<path opacity="0.35" d="M60.6917 26.558C60.5198 27.1825 60.1581 27.7381 59.6568 28.1482C59.1555 28.5583 58.5392 28.8026 57.893 28.8473C57.2468 28.8921 56.6027 28.735 56.0497 28.3979C55.4967 28.0607 55.062 27.5602 54.8057 26.9653C55.2574 27.5883 55.9229 28.0229 56.675 28.1859C57.4271 28.3489 58.2128 28.2288 58.8819 27.8487C59.551 27.4686 60.0565 26.8551 60.3016 26.1257C60.5467 25.3962 60.5142 24.602 60.2103 23.895C60.4853 24.2743 60.6713 24.7107 60.7546 25.1716C60.8379 25.6326 60.8164 26.1065 60.6917 26.558Z" fill="#1F1F7A"/>
<path d="M57.682 29.0704C57.3804 29.0697 57.0801 29.0283 56.7895 28.9474C56.1521 28.772 55.581 28.4115 55.1485 27.9116C54.716 27.4116 54.4415 26.7946 54.3597 26.1386C54.2779 25.4826 54.3924 24.8171 54.6889 24.2262C54.9853 23.6353 55.4504 23.1456 56.0252 22.8191C56.5999 22.4925 57.2587 22.3437 57.918 22.3916C58.5774 22.4394 59.2077 22.6817 59.7293 23.0878C60.251 23.494 60.6404 24.0457 60.8485 24.6731C61.0565 25.3006 61.0738 25.9757 60.8982 26.613C60.7039 27.3174 60.2843 27.9388 59.7035 28.3823C59.1227 28.8257 58.4127 29.0668 57.682 29.0687V29.0704ZM57.6722 22.8145C57.1296 22.8151 56.5979 22.9673 56.1372 23.254C55.6765 23.5406 55.305 23.9502 55.0646 24.4366C54.8242 24.923 54.7245 25.4669 54.7767 26.007C54.8288 26.5471 55.0308 27.0619 55.3599 27.4933C55.689 27.9247 56.132 28.2556 56.6391 28.4487C57.1461 28.6418 57.6971 28.6894 58.2297 28.5862C58.7624 28.483 59.2557 28.233 59.6539 27.8645C60.0521 27.4959 60.3394 27.0235 60.4835 26.5003C60.6021 26.0677 60.6192 25.6136 60.5335 25.1733C60.4479 24.7331 60.2618 24.3185 59.9898 23.9618C59.7178 23.6052 59.3671 23.3161 58.9651 23.1171C58.5632 22.9181 58.1207 22.8146 57.6722 22.8145Z" fill="#1F1F7A"/>
<path opacity="0.35" d="M56.8473 28.9568C56.8279 28.9562 56.8087 28.953 56.7901 28.9473C56.7628 28.9398 56.7373 28.9271 56.715 28.9097C56.6927 28.8924 56.674 28.8708 56.66 28.8462C56.646 28.8217 56.637 28.7946 56.6335 28.7665C56.63 28.7385 56.632 28.71 56.6396 28.6828L58.3003 22.654C58.3078 22.6267 58.3206 22.6013 58.338 22.579C58.3553 22.5567 58.3769 22.5381 58.4015 22.5241C58.4261 22.5102 58.4531 22.5012 58.4812 22.4977C58.5092 22.4943 58.5376 22.4963 58.5649 22.5038C58.5921 22.5114 58.6176 22.5242 58.6398 22.5415C58.6621 22.5589 58.6808 22.5805 58.6947 22.605C58.7086 22.6296 58.7176 22.6567 58.7211 22.6847C58.7246 22.7127 58.7225 22.7411 58.715 22.7684L57.0546 28.7968C57.0425 28.8425 57.0156 28.883 56.9781 28.912C56.9406 28.9409 56.8947 28.9566 56.8473 28.9568Z" fill="#1F1F7A"/>
<path d="M50.7761 29.2471L51.9504 30.9246C52.4967 31.7049 51.5426 33.3153 49.8191 34.5218C48.0955 35.7284 46.2567 36.0742 45.7104 35.2961L44.5361 33.6186C45.082 34.3984 46.9217 34.0526 48.6448 32.8443C50.3679 31.6361 51.3224 30.0269 50.7761 29.2471Z" fill="#129D88"/>
<path opacity="0.35" d="M50.7761 29.2471L51.9504 30.9246C52.4967 31.7049 51.5426 33.3153 49.8191 34.5218C48.0955 35.7284 46.2567 36.0742 45.7104 35.2961L44.5361 33.6186C45.082 34.3984 46.9217 34.0526 48.6448 32.8443C50.3679 31.6361 51.3224 30.0269 50.7761 29.2471Z" fill="#1F1F7A"/>
<path d="M46.7506 35.9213C46.2052 35.9213 45.7738 35.757 45.5351 35.4159L44.3612 33.7383C44.345 33.7152 44.3335 33.6891 44.3274 33.6615C44.3213 33.634 44.3206 33.6054 44.3255 33.5776C44.3304 33.5498 44.3407 33.5232 44.3559 33.4994C44.3711 33.4756 44.3908 33.455 44.4139 33.4387C44.437 33.4225 44.4631 33.411 44.4907 33.4049C44.5183 33.3988 44.5468 33.3981 44.5746 33.403C44.6024 33.4079 44.629 33.4183 44.6529 33.4334C44.6767 33.4486 44.6973 33.4683 44.7135 33.4914C45.1316 34.0885 46.7618 33.8992 48.5228 32.666C50.2838 31.4328 51.0176 29.9656 50.6012 29.369C50.585 29.3458 50.5735 29.3197 50.5674 29.2921C50.5613 29.2645 50.5607 29.236 50.5656 29.2081C50.5705 29.1803 50.5808 29.1537 50.596 29.1299C50.6112 29.106 50.631 29.0854 50.6541 29.0692C50.6773 29.053 50.7034 29.0415 50.731 29.0354C50.7586 29.0293 50.7872 29.0286 50.815 29.0335C50.8428 29.0385 50.8694 29.0488 50.8933 29.064C50.9171 29.0792 50.9377 29.0989 50.9539 29.1221L52.1274 30.7996C52.7515 31.6904 51.7918 33.402 49.9435 34.6962C48.8032 35.495 47.629 35.9213 46.7506 35.9213ZM45.2215 34.2184L45.8873 35.1694C46.3054 35.7664 47.9361 35.5772 49.6971 34.3444C51.4581 33.1116 52.1919 31.6436 51.7751 31.0465L51.1109 30.0959C50.9342 30.9889 50.073 32.1077 48.771 33.0209C47.469 33.934 46.1213 34.3573 45.2215 34.2184Z" fill="#1F1F7A"/>
<path d="M48.6456 32.8424C50.3687 31.6358 51.3229 30.0254 50.7768 29.2455C50.2307 28.4656 48.391 28.8114 46.6679 30.018C44.9447 31.2245 43.9906 32.8349 44.5367 33.6148C45.0828 34.3948 46.9224 34.0489 48.6456 32.8424Z" fill="#129D88"/>
<path d="M45.5751 34.2437C45.0301 34.2437 44.5986 34.0798 44.3599 33.7387C43.7362 32.8479 44.6954 31.1363 46.5437 29.8421C48.392 28.5478 50.3289 28.2316 50.9522 29.1224C51.2679 29.5728 51.1948 30.2374 50.7466 30.994C50.3289 31.699 49.6282 32.4182 48.768 33.0191C47.626 33.8174 46.4538 34.2437 45.5751 34.2437ZM49.7336 29.042C48.9972 29.042 47.9215 29.4033 46.7919 30.1943C45.0309 31.4276 44.2971 32.8948 44.7135 33.4918C45.1299 34.0888 46.7622 33.8996 48.5228 32.6663C49.3319 32.1003 49.9904 31.4284 50.378 30.7737C50.7298 30.1802 50.8111 29.6679 50.6012 29.3681C50.4502 29.1551 50.1444 29.042 49.7336 29.042Z" fill="#1F1F7A"/>
<path opacity="0.35" d="M44.5377 33.831C44.4919 33.831 44.4473 33.8165 44.4103 33.7894C44.3734 33.7624 44.346 33.7243 44.3322 33.6806C44.3184 33.6369 44.319 33.59 44.3337 33.5466C44.3485 33.5033 44.3767 33.4658 44.4142 33.4395L50.6542 29.0702C50.701 29.0375 50.7588 29.0246 50.815 29.0345C50.8711 29.0444 50.9211 29.0762 50.9538 29.1229C50.9866 29.1696 50.9994 29.2274 50.9895 29.2836C50.9797 29.3398 50.9479 29.3897 50.9011 29.4225L44.6594 33.7918C44.6239 33.8172 44.5813 33.8308 44.5377 33.831Z" fill="#1F1F7A"/>
<path d="M28.4425 28.4887L27.7423 30.4105C27.4166 31.3056 25.5486 31.4476 23.5734 30.7284C21.5982 30.0092 20.2583 28.7003 20.5839 27.8035L21.2842 25.8799C20.9586 26.7746 22.2971 28.083 24.2736 28.8027C26.2501 29.5223 28.1169 29.3834 28.4425 28.4887Z" fill="#129D88"/>
<path opacity="0.35" d="M28.4425 28.4887L27.7423 30.4105C27.4166 31.3056 25.5486 31.4476 23.5734 30.7284C21.5982 30.0092 20.2583 28.7003 20.5839 27.8035L21.2842 25.8799C20.9586 26.7746 22.2971 28.083 24.2736 28.8027C26.2501 29.5223 28.1169 29.3834 28.4425 28.4887Z" fill="#1F1F7A"/>
<path d="M25.9381 31.404C25.1961 31.404 24.3431 31.2401 23.4962 30.9309C21.3761 30.1592 20.0065 28.7544 20.3781 27.7324L21.078 25.8105C21.0975 25.7569 21.1375 25.7132 21.1892 25.6891C21.2409 25.665 21.3001 25.6624 21.3537 25.6819C21.4073 25.7014 21.451 25.7414 21.4751 25.7931C21.4992 25.8448 21.5018 25.904 21.4823 25.9576C21.358 26.3017 21.5683 26.7749 22.0626 27.2566C22.6058 27.7879 23.4158 28.2666 24.3423 28.6043C25.2688 28.9419 26.1988 29.0963 26.9562 29.0387C27.6445 28.9862 28.1099 28.7591 28.2355 28.4163C28.2451 28.3897 28.2599 28.3654 28.279 28.3445C28.2981 28.3237 28.3211 28.3068 28.3467 28.2949C28.3723 28.2829 28.4 28.2762 28.4282 28.2749C28.4564 28.2737 28.4846 28.278 28.5112 28.2877C28.5377 28.2973 28.5621 28.3121 28.5829 28.3312C28.6038 28.3503 28.6206 28.3733 28.6326 28.3989C28.6445 28.4245 28.6513 28.4522 28.6525 28.4804C28.6538 28.5087 28.6494 28.5369 28.6398 28.5634L27.9395 30.487C27.7516 31.0031 27.1653 31.3253 26.2887 31.3924C26.176 31.4002 26.0591 31.404 25.9381 31.404ZM21.1778 26.7947L20.7825 27.8803C20.5334 28.5651 21.6234 29.7923 23.6433 30.5278C24.5715 30.8655 25.4994 31.0199 26.2573 30.9618C26.9455 30.9098 27.4117 30.6823 27.5365 30.3386L27.9318 29.2529C27.6321 29.3767 27.3139 29.4494 26.9902 29.468C26.1729 29.5299 25.1806 29.3669 24.1965 29.0086C23.2123 28.6503 22.3469 28.1376 21.7615 27.5646C21.525 27.3426 21.3277 27.0823 21.1778 26.7947Z" fill="#1F1F7A"/>
<path d="M28.4413 28.4874C28.767 27.5926 27.4285 26.2841 25.4518 25.5646C23.4751 24.8452 21.6086 24.9872 21.283 25.8819C20.9573 26.7766 22.2958 28.0852 24.2725 28.8047C26.2492 29.5241 28.1157 29.3821 28.4413 28.4874Z" fill="#129D88"/>
<path d="M26.6376 29.4794C25.8956 29.4794 25.0427 29.3155 24.1957 29.0063C23.2116 28.6484 22.3461 28.1352 21.7607 27.5623C21.1323 26.9481 20.8897 26.3248 21.0776 25.8082C21.4497 24.7862 23.4004 24.5905 25.5223 25.3621C26.5064 25.7204 27.3718 26.2332 27.9573 26.8061C28.5857 27.4216 28.8287 28.044 28.6403 28.5602C28.4519 29.0764 27.8661 29.3986 26.9895 29.4635C26.8756 29.4741 26.7583 29.4794 26.6376 29.4794ZM23.0821 25.317C22.2218 25.317 21.6248 25.5634 21.482 25.9562C21.3568 26.3003 21.568 26.7734 22.0614 27.2556C22.6046 27.7868 23.415 28.2656 24.3411 28.6032C25.2672 28.9409 26.1971 29.0949 26.955 29.0377C27.6433 28.9852 28.1095 28.7581 28.2343 28.4144C28.3594 28.0703 28.1482 27.5971 27.6549 27.1145C27.1116 26.5833 26.3012 26.105 25.3751 25.7673C24.5136 25.4533 23.7234 25.317 23.0821 25.317Z" fill="#1F1F7A"/>
<path opacity="0.35" d="M28.4384 28.7044C28.4133 28.7043 28.3884 28.6999 28.3648 28.6915L21.2065 26.0857C21.179 26.0768 21.1535 26.0625 21.1317 26.0435C21.1099 26.0246 21.0921 26.0014 21.0794 25.9755C21.0667 25.9495 21.0594 25.9212 21.0579 25.8924C21.0564 25.8635 21.0607 25.8346 21.0706 25.8075C21.0805 25.7803 21.0958 25.7554 21.1155 25.7343C21.1352 25.7132 21.159 25.6963 21.1854 25.6845C21.2118 25.6728 21.2403 25.6665 21.2692 25.666C21.2981 25.6656 21.3268 25.6709 21.3536 25.6818L28.5119 28.2871C28.5595 28.3044 28.5994 28.3379 28.6247 28.3817C28.6501 28.4255 28.6591 28.4768 28.6503 28.5266C28.6416 28.5765 28.6155 28.6216 28.5767 28.6541C28.5379 28.6866 28.489 28.7044 28.4384 28.7044Z" fill="#1F1F7A"/>
<path d="M11.5588 15.7769C10.652 15.2485 9.96919 14.4073 9.63867 13.4111L10.6594 13.0752C10.9078 13.8218 11.42 14.4522 12.0999 14.8482L11.5588 15.7769Z" fill="#3499F4"/>
<path d="M64.4602 22.509C64.4172 22.509 64.3777 22.509 64.3359 22.509L64.3669 21.4336C65.1541 21.4557 65.9223 21.1899 66.5275 20.686L67.2157 21.5132C66.4417 22.1567 65.4668 22.5089 64.4602 22.509Z" fill="#F43434"/>
<path d="M71.0666 18.3966C70.8745 17.633 70.4102 16.9657 69.7607 16.5204L70.3702 15.6343C71.2352 16.2281 71.8537 17.1172 72.1097 18.1347L71.0666 18.3966Z" fill="#F43434"/>
<path d="M15.2946 20.501L14.4111 19.8885C14.8602 19.2417 15.058 18.4533 14.9673 17.6711L16.0353 17.5464C16.1565 18.5886 15.8932 19.6392 15.2946 20.501Z" fill="#129D88"/>
<path d="M8.74161 24.317L8.10156 23.4546C8.94345 22.8286 9.98485 22.5312 11.0304 22.6184L10.9418 23.6903C10.1565 23.6239 9.37403 23.8468 8.74161 24.317Z" fill="#129D88"/>
<path d="M66.0105 14.8501L65.207 14.1352C65.7307 13.5469 66.0213 12.7876 66.0243 12L67.0996 12.0052C67.0954 13.0545 66.7081 14.0662 66.0105 14.8501Z" fill="#3499F4"/>
</svg>
