<svg width="80" height="81" viewBox="0 0 80 81" fill="none" xmlns="http://www.w3.org/2000/svg">
<rect x="0.0488281" y="0.72998" width="79.834" height="79.834" rx="17.195" fill="#E1F5FE" fill-opacity="0.6"/>
<g clip-path="url(#clip0_1730_63303)">
<path d="M24.4216 47.6914L24.3982 47.6994L25.3911 50.4963L15.7608 61.0101L15.6484 60.9999L24.6657 63.7993L25.7697 67.6986L25.3412 67.8645L25.3504 67.8881L25.7759 67.7224L25.8037 67.8206L25.8278 67.8138L25.7993 67.7129L30.8127 65.7663L30.9324 66.1037L30.1487 69.5104C30.1227 69.5051 30.096 69.5039 30.0696 69.5068C30.0046 69.5149 29.945 69.5468 29.9023 69.5964C29.8596 69.646 29.8369 69.7097 29.8385 69.7751C29.8401 69.8405 29.866 69.903 29.9111 69.9504C29.9562 69.9978 30.0173 70.0268 30.0825 70.0317C30.1478 70.0366 30.2125 70.0171 30.2642 69.9769C30.3159 69.9367 30.3508 69.8788 30.3621 69.8144C30.3735 69.7499 30.3605 69.6836 30.3257 69.6282C30.2908 69.5728 30.2367 69.5323 30.1737 69.5146L30.9581 66.1054V66.1018L30.8367 65.7574L30.9024 65.7321L30.9357 65.7189L30.8088 65.6792L26.165 52.6025L30.055 45.4404L30.1038 45.3511L25.4116 50.476L24.4216 47.6914ZM25.4005 50.5238L26.1386 52.6008L23.0888 58.2148L23.0862 58.2198L24.0923 61.7726L15.7919 61.0133L25.4005 50.5238ZM15.8828 61.0469L24.0996 61.7987L24.6573 63.7705L15.8828 61.0469ZM25.7932 67.6896L24.6941 63.8079L30.7893 65.7L30.8049 65.7434L25.7932 67.6896ZM30.8613 65.7222L30.8292 65.7345L30.8202 65.7092L30.8613 65.7222ZM30.7796 65.6702L24.6863 63.7793L24.1258 61.8017L27.3479 62.0966L27.3505 62.0713L24.1187 61.7764L23.1125 58.2234L26.1483 52.6334L30.7796 65.6702ZM29.9854 45.5176L26.1548 52.5702L25.4201 50.5019L29.9854 45.5176Z" fill="#A4C2D1"/>
<path d="M57.8627 51.0483L55.8583 54.1565L51.0845 46.6783L50.7375 43.3218L50.7122 43.3244L51.054 46.6313L51.0376 46.6057L53.9466 57.1205L50.0122 63.2251L49.9775 63.2556L50.0095 63.249V68.4421H50.0346V63.2431L55.3225 62.0862L56.8171 67.4872L56.8411 67.4804L55.3464 62.0803L65.7202 59.8102L65.7412 59.806L57.8741 51.0607L57.8627 51.0483ZM57.4626 56.7166L54.5627 59.2494L53.9749 57.1241L55.8583 54.2028L57.4626 56.7166ZM51.107 46.7592L55.8439 54.1797L53.9662 57.0924L51.107 46.7592ZM53.9569 57.1528L54.5418 59.2683L50.0802 63.1654L53.9569 57.1528ZM50.0664 63.2107L54.5491 59.295L55.3147 62.0619L50.0664 63.2107ZM55.34 62.0569L54.5706 59.2766L57.4881 56.7283L57.4966 56.721L55.8745 54.1797L57.867 51.0898L65.6944 59.7908L55.34 62.0569Z" fill="#A4C2D1"/>
<path d="M72.2456 46.2678L74.8341 36.9015L74.8101 36.8951L72.2217 46.2607C72.2025 46.2561 72.1829 46.2537 72.1632 46.2534C72.1161 46.2538 72.0699 46.2667 72.0295 46.2909L64.4162 34.6906L74.4363 36.8785L74.4552 36.8826L72.0852 25.3906L72.082 25.3778L67.1911 26.6704L66.0951 14.5965C66.12 14.5931 66.1444 14.5863 66.1674 14.5762L71.6765 25.3981L71.699 25.3868L66.1891 14.5646C66.2244 14.5446 66.2547 14.5168 66.2774 14.4832C66.3002 14.4496 66.3149 14.4112 66.3203 14.371C66.3258 14.3308 66.3218 14.2899 66.3088 14.2515C66.2958 14.2131 66.2741 14.1782 66.2454 14.1495C66.2166 14.1209 66.1816 14.0993 66.1432 14.0865C66.1047 14.0736 66.0638 14.0698 66.0236 14.0754C65.9834 14.081 65.9451 14.0959 65.9116 14.1188C65.8781 14.1417 65.8503 14.172 65.8305 14.2074L49.8327 6.14289C49.8478 6.1091 49.8558 6.07254 49.8561 6.03551C49.8561 5.96549 49.8283 5.89833 49.7788 5.84882C49.7293 5.7993 49.6621 5.77148 49.5921 5.77148C49.5221 5.77148 49.4549 5.7993 49.4054 5.84882C49.3559 5.89833 49.328 5.96549 49.328 6.03551V6.0369L27.6985 7.14818C27.6947 7.10739 27.6815 7.06804 27.6599 7.03326C27.6382 6.99849 27.6087 6.96925 27.5738 6.94787C27.5388 6.9265 27.4994 6.91358 27.4586 6.91014C27.4177 6.9067 27.3767 6.91283 27.3386 6.92806C27.3006 6.94329 27.2667 6.96718 27.2395 6.99784C27.2123 7.0285 27.1927 7.06508 27.1822 7.10467C27.1716 7.14426 27.1705 7.18576 27.1788 7.22587C27.1871 7.26598 27.2047 7.30359 27.2301 7.33571L10.9074 21.4338L10.886 21.4512L16.9675 22.2587L6.52261 33.3595L6.51758 33.3649L9.52893 42.3256C9.48681 42.3418 9.44958 42.3686 9.42081 42.4034C9.39203 42.4382 9.37267 42.4798 9.36458 42.5242C9.3565 42.5686 9.35996 42.6144 9.37463 42.6571C9.3893 42.6998 9.4147 42.738 9.44838 42.768C9.48206 42.7981 9.5229 42.819 9.56698 42.8287C9.61105 42.8385 9.6569 42.8367 9.70011 42.8236C9.74332 42.8106 9.78244 42.7866 9.81374 42.7541C9.84503 42.7216 9.86745 42.6815 9.87883 42.6378L12.9179 43.2686L12.2351 47.5298C12.2256 47.5298 12.2162 47.5271 12.2062 47.5271C12.1382 47.5267 12.0727 47.5525 12.0231 47.599C11.9736 47.6456 11.9439 47.7094 11.94 47.7773C11.9362 47.8452 11.9585 47.9119 12.0025 47.9638C12.0464 48.0156 12.1086 48.0486 12.1762 48.056C12.2438 48.0633 12.3116 48.0444 12.3656 48.0032C12.4197 47.962 12.4559 47.9016 12.4667 47.8345C12.4775 47.7674 12.4621 47.6987 12.4238 47.6426C12.3854 47.5865 12.3269 47.5472 12.2605 47.533L12.9429 43.2724L16.0951 43.9264L16.0868 43.9668L22.6905 35.5831L27.3514 23.8852C27.3789 23.8951 27.4078 23.9005 27.4371 23.901C27.5066 23.901 27.5732 23.8735 27.6226 23.8246C27.6719 23.7756 27.7 23.7092 27.7006 23.6397L31.1265 23.5107L34.0357 25.2685C34.0088 25.3258 34.0054 25.3914 34.0261 25.4512C34.0468 25.511 34.0901 25.5604 34.1467 25.5888C34.2032 25.6172 34.2687 25.6223 34.329 25.6032C34.3894 25.584 34.4399 25.5421 34.4697 25.4862C34.4996 25.4304 34.5065 25.3651 34.4889 25.3043C34.4713 25.2435 34.4307 25.1919 34.3757 25.1606C34.3206 25.1293 34.2556 25.1207 34.1943 25.1367C34.133 25.1527 34.0804 25.1919 34.0477 25.2461L31.1361 23.4878L31.1328 23.4857L27.698 23.6151C27.6942 23.5691 27.6783 23.5249 27.6519 23.4871C27.6255 23.4492 27.5896 23.419 27.5478 23.3995L31.0372 14.8352C31.065 14.8455 31.0943 14.8509 31.1239 14.8512C31.1587 14.8513 31.1932 14.8446 31.2254 14.8314C31.2575 14.8182 31.2868 14.7987 31.3114 14.7742C31.3361 14.7496 31.3556 14.7204 31.3689 14.6883C31.3822 14.6562 31.3891 14.6217 31.389 14.587C31.3887 14.553 31.382 14.5194 31.3692 14.4879L49.3586 6.15764C49.3859 6.21167 49.4311 6.25457 49.4864 6.27907L46.8418 13.2538C46.8154 13.2451 46.7879 13.2404 46.7601 13.2401C46.6947 13.2399 46.6317 13.264 46.583 13.3077C46.5344 13.3514 46.5038 13.4116 46.497 13.4766C46.4902 13.5416 46.5078 13.6068 46.5463 13.6596C46.5849 13.7123 46.6416 13.7489 46.7056 13.7623C46.7696 13.7756 46.8362 13.7647 46.8927 13.7317C46.9491 13.6987 46.9912 13.6459 47.011 13.5836C47.0307 13.5213 47.0266 13.4539 46.9995 13.3945C46.9724 13.335 46.9242 13.2877 46.8642 13.2618L49.5097 6.28532C49.536 6.29418 49.5636 6.29892 49.5914 6.29937C49.5942 6.29937 49.5973 6.29937 49.6001 6.29937L51.1299 25.1334C51.0838 25.1393 51.0401 25.1573 51.0032 25.1856C50.9663 25.2139 50.9376 25.2515 50.9199 25.2945C50.9023 25.3375 50.8963 25.3844 50.9027 25.4305C50.909 25.4765 50.9274 25.5201 50.9561 25.5567C50.9847 25.5934 51.0225 25.6217 51.0657 25.639C51.1088 25.6563 51.1558 25.6618 51.2018 25.6551C51.2478 25.6483 51.2912 25.6295 51.3276 25.6005C51.3639 25.5716 51.392 25.5335 51.4089 25.4902L60.0826 28.4244C60.071 28.4636 60.0688 28.5049 60.076 28.5451C60.0833 28.5854 60.0999 28.6233 60.1245 28.656C60.1491 28.6886 60.181 28.7151 60.2176 28.7332C60.2543 28.7513 60.2947 28.7605 60.3355 28.7602C60.3427 28.7602 60.3499 28.7585 60.3572 28.7581L61.0458 33.9294L57.5811 33.1732L57.5761 33.1979L61.0494 33.9563L62.0318 41.3529L62.0566 41.3496L61.0754 33.9617L62.9489 34.3709L68.3069 46.3533L68.31 46.3606L71.899 46.5193C71.8991 46.5679 71.9125 46.6155 71.9379 46.657C71.9633 46.6984 71.9996 46.732 72.0429 46.7541C72.0862 46.7762 72.1347 46.7859 72.1831 46.7822C72.2316 46.7785 72.278 46.7614 72.3174 46.733C72.3568 46.7045 72.3876 46.6658 72.4063 46.6209C72.4251 46.5761 72.4311 46.527 72.4237 46.479C72.4163 46.431 72.3958 46.3859 72.3644 46.3488C72.3331 46.3117 72.2921 46.284 72.246 46.2687L72.2456 46.2678ZM72.0635 25.4088L74.4228 36.8502L64.3959 34.6606L60.4906 28.7078C60.5245 28.6837 60.5522 28.6518 60.5713 28.6149C60.5904 28.5779 60.6004 28.5369 60.6004 28.4953C60.6004 28.4766 60.5985 28.4579 60.5947 28.4396L67.1694 26.7016L67.7226 32.7996L67.748 32.7975L67.1928 26.695L72.0635 25.4088ZM65.8399 14.4829L56.8423 21.1617L54.7313 16.7474L65.8052 14.4034C65.8123 14.4317 65.824 14.4585 65.8399 14.4829ZM65.8559 14.5025C65.881 14.5332 65.9127 14.558 65.9485 14.5752L60.4232 28.2469C60.3953 28.2369 60.366 28.2316 60.3364 28.2315C60.3012 28.2314 60.2663 28.2382 60.2337 28.2516L56.8532 21.1859L65.8559 14.5025ZM60.4702 28.7212L64.3621 34.6523L62.9668 34.3478L60.4559 28.7302C60.4609 28.7277 60.4656 28.7249 60.4702 28.7219V28.7212ZM67.1663 26.6762L60.5866 28.4159C60.5754 28.381 60.5572 28.3487 60.533 28.3212C60.5088 28.2937 60.4792 28.2715 60.4461 28.2559L65.9724 14.5849C66.0003 14.5948 66.0296 14.6001 66.0592 14.6005C66.0628 14.6005 66.0665 14.5993 66.0701 14.5993L67.1663 26.6762ZM65.8181 14.2284C65.803 14.2624 65.7951 14.2991 65.795 14.3363C65.7951 14.3505 65.7964 14.3648 65.799 14.3788L54.7188 16.7242L49.7165 6.26676C49.7601 6.24322 49.7961 6.20786 49.8205 6.16475L65.8181 14.2284ZM21.7641 17.1978L27.3189 7.40839C27.3336 7.41543 27.3489 7.42123 27.3646 7.42574L25.3696 15.8495L27.3578 23.3859C27.3122 23.4005 27.2713 23.4271 27.2396 23.463C27.2079 23.4989 27.1865 23.5427 27.1777 23.5898L20.5985 22.7156L21.7641 17.1978ZM20.5741 22.7132L17.0191 22.241L21.7308 17.2331L20.5741 22.7132ZM27.3821 23.3794L25.3958 15.8505L27.3887 7.43389C27.4007 7.43591 27.4128 7.43695 27.4249 7.43702V23.3759C27.4106 23.3757 27.3962 23.3769 27.3821 23.3794ZM27.1758 23.6151C27.1758 23.6226 27.1732 23.6295 27.1732 23.6375C27.1734 23.672 27.1802 23.7061 27.1934 23.7379L19.6411 27.2532L20.5935 22.7403L27.1758 23.6151ZM10.9445 21.4345L27.2463 7.35496C27.2612 7.37073 27.2781 7.38454 27.2966 7.39608L21.7431 17.1844L16.9887 22.2372L10.9445 21.4345ZM20.5687 22.7378L19.6128 27.2655L6.58489 33.3285L16.9975 22.263L20.5687 22.7378ZM9.88386 42.6125C9.88647 42.599 9.88792 42.5853 9.88819 42.5716C9.88803 42.5275 9.87684 42.4841 9.85563 42.4454C9.83442 42.4067 9.80387 42.3739 9.76676 42.35L14.3347 34.4262L12.9223 43.2431L9.88386 42.6125ZM12.9469 43.2483L14.381 34.297L9.74438 42.3376C9.70729 42.3183 9.66614 42.3081 9.62434 42.3079C9.59999 42.3081 9.57579 42.3118 9.55252 42.319L6.54724 33.3743L19.6064 27.2957L16.1002 43.9026L12.9469 43.2483ZM22.6693 35.5691L16.1331 43.8676L19.6349 27.2834L27.2046 23.76C27.2316 23.8119 27.2751 23.8535 27.3283 23.8779L22.6693 35.5691ZM27.5242 23.3896C27.5002 23.381 27.4752 23.3761 27.4497 23.375V7.43615C27.482 7.43502 27.5138 7.42785 27.5434 7.41499L30.9971 14.3571C30.9545 14.3805 30.9193 14.4153 30.8953 14.4576C30.8714 14.4999 30.8596 14.5481 30.8614 14.5966C30.8632 14.6452 30.8785 14.6924 30.9055 14.7328C30.9325 14.7732 30.9703 14.8053 31.0145 14.8255L27.5242 23.3896ZM31.358 14.4648C31.3277 14.4051 31.2755 14.3593 31.2124 14.3371C31.1492 14.3148 31.0799 14.3178 31.0188 14.3453L27.5651 7.40336C27.606 7.38055 27.6402 7.34725 27.664 7.30688C27.6878 7.26652 27.7004 7.22054 27.7006 7.17368L49.3308 6.0624C49.3324 6.08745 49.3379 6.11209 49.3471 6.13543L31.358 14.4648ZM49.6261 6.29573C49.6499 6.29312 49.6732 6.28728 49.6955 6.27838L54.695 16.7292L54.3828 16.7955L54.3878 16.8196L54.7051 16.7524L56.8215 21.1774L51.3676 25.2265C51.3423 25.1952 51.3101 25.1702 51.2736 25.1535L54.6008 16.8125L54.5777 16.8031L51.2505 25.145C51.2229 25.1351 51.1939 25.1298 51.1646 25.1294C51.1617 25.1295 51.1588 25.1299 51.156 25.1304L49.6261 6.29573ZM51.4169 25.4647C51.4244 25.4415 51.4283 25.4173 51.4285 25.3929C51.4286 25.3404 51.4129 25.2891 51.3836 25.2456L56.8327 21.2005L60.212 28.2641C60.1566 28.2931 60.1135 28.3411 60.0906 28.3994L51.4169 25.4647ZM61.0718 33.9339L60.3834 28.7543C60.3999 28.7512 60.4162 28.7466 60.4318 28.7406L62.9366 34.3418L61.0718 33.9339ZM62.98 34.3763L64.3817 34.6821L72.0085 46.3049C71.9784 46.327 71.9533 46.3552 71.935 46.3877C71.9167 46.4202 71.9055 46.4563 71.9023 46.4935L68.3272 46.3355L62.98 34.3763Z" fill="#A4C2D1"/>
<path d="M66.0453 13.3823C65.8623 13.3824 65.6834 13.4366 65.5313 13.5383C65.3792 13.64 65.2606 13.7844 65.1906 13.9535C65.1206 14.1225 65.1022 14.3085 65.1379 14.4879C65.1735 14.6674 65.2616 14.8323 65.3909 14.9617C65.5202 15.0911 65.685 15.1793 65.8644 15.2151C66.0439 15.2509 66.2299 15.2327 66.399 15.1628C66.5681 15.0928 66.7126 14.9744 66.8144 14.8223C66.9162 14.6703 66.9706 14.4915 66.9707 14.3085C66.9708 14.1869 66.947 14.0665 66.9005 13.9541C66.854 13.8418 66.7859 13.7397 66.6999 13.6536C66.614 13.5676 66.5119 13.4994 66.3996 13.4528C66.2873 13.4063 66.1669 13.3823 66.0453 13.3823ZM65.4272 14.8869C65.3267 14.7734 65.4098 14.696 65.5094 14.8111C65.609 14.9261 65.5248 14.9969 65.4272 14.8869ZM66.2897 13.6961C66.2088 13.6411 66.2723 13.5258 66.3707 13.5921C66.4458 13.6434 66.3707 13.7508 66.2897 13.6961ZM66.505 13.9789C66.3155 13.7582 66.5353 13.5973 66.6873 13.8162C66.8419 14.0388 66.651 14.1484 66.505 13.9789Z" fill="url(#paint0_radial_1730_63303)"/>
<path d="M31.0511 13.665C30.8681 13.6651 30.6892 13.7194 30.5371 13.8211C30.3849 13.9228 30.2663 14.0673 30.1963 14.2364C30.1263 14.4055 30.1081 14.5916 30.1438 14.771C30.1795 14.9505 30.2677 15.1154 30.3971 15.2448C30.5265 15.3742 30.6914 15.4623 30.8709 15.4979C31.0504 15.5336 31.2365 15.5152 31.4056 15.4452C31.5746 15.3751 31.7191 15.2565 31.8208 15.1043C31.9224 14.9521 31.9766 14.7732 31.9766 14.5902C31.9766 14.4687 31.9527 14.3483 31.9062 14.2361C31.8596 14.1238 31.7915 14.0218 31.7055 13.9359C31.6196 13.85 31.5175 13.7818 31.4053 13.7354C31.293 13.6889 31.1726 13.665 31.0511 13.665ZM30.433 15.1698C30.3324 15.0565 30.4157 14.9789 30.5154 15.0934C30.6152 15.2079 30.5307 15.2792 30.433 15.1698ZM31.2955 13.9794C31.2145 13.9244 31.2782 13.8094 31.3766 13.8753C31.4517 13.9258 31.3766 14.0335 31.2955 13.9794ZM31.511 14.2613C31.3219 14.0408 31.5414 13.8796 31.6935 14.0989C31.8479 14.3213 31.6571 14.4313 31.511 14.2606V14.2613Z" fill="url(#paint1_radial_1730_63303)"/>
<path d="M9.54428 41.7153C9.36129 41.7153 9.18241 41.7696 9.03027 41.8713C8.87812 41.9729 8.75954 42.1175 8.68953 42.2865C8.61952 42.4556 8.60122 42.6416 8.63694 42.8211C8.67267 43.0006 8.76081 43.1654 8.89023 43.2948C9.01965 43.4241 9.18453 43.5122 9.36401 43.5479C9.54349 43.5835 9.72952 43.5652 9.89856 43.4951C10.0676 43.425 10.2121 43.3064 10.3137 43.1542C10.4153 43.002 10.4695 42.8231 10.4694 42.6401C10.4694 42.5187 10.4455 42.3984 10.3989 42.2862C10.3524 42.174 10.2843 42.072 10.1984 41.9861C10.1125 41.9003 10.0105 41.8321 9.89827 41.7857C9.78603 41.7392 9.66575 41.7153 9.54428 41.7153ZM8.92671 43.2195C8.82558 43.1061 8.9085 43.0277 9.00894 43.1434C9.10938 43.2591 9.0242 43.3292 8.92671 43.2195ZM9.78906 42.0285C9.70822 41.9736 9.77171 41.8584 9.87007 41.9244C9.94536 41.9757 9.87059 42.0836 9.78906 42.0285ZM10.0038 42.3105C9.81508 42.09 10.0349 41.9289 10.1867 42.1478C10.3407 42.3712 10.1499 42.4805 10.0038 42.3105Z" fill="url(#paint2_radial_1730_63303)"/>
<path d="M60.3612 27.897C60.2381 27.897 60.1178 27.9336 60.0156 28.002C59.9133 28.0704 59.8336 28.1676 59.7865 28.2813C59.7395 28.395 59.7272 28.5202 59.7513 28.6408C59.7753 28.7615 59.8346 28.8724 59.9216 28.9593C60.0087 29.0463 60.1195 29.1056 60.2402 29.1296C60.3609 29.1535 60.486 29.1412 60.5997 29.0941C60.7134 29.047 60.8106 28.9672 60.8789 28.8649C60.9473 28.7626 60.9838 28.6423 60.9838 28.5192C60.9838 28.4375 60.9678 28.3565 60.9365 28.2809C60.9052 28.2054 60.8594 28.1368 60.8015 28.079C60.7437 28.0212 60.675 27.9753 60.5995 27.9441C60.5239 27.9129 60.4429 27.8969 60.3612 27.897ZM59.9462 28.9085C59.8784 28.8325 59.9339 28.7798 60.0014 28.8575C60.0689 28.9352 60.0113 28.9822 59.9462 28.9085ZM60.5261 28.1077C60.4711 28.0704 60.5145 27.9931 60.5804 28.0384C60.6307 28.0724 60.5804 28.1442 60.5261 28.1077ZM60.6706 28.2975C60.5435 28.1494 60.6916 28.0406 60.7935 28.1881C60.897 28.3381 60.769 28.4125 60.6706 28.2975Z" fill="url(#paint3_radial_1730_63303)"/>
<path d="M72.1411 45.896C72.0181 45.8961 71.8978 45.9327 71.7956 46.0011C71.6934 46.0695 71.6137 46.1667 71.5667 46.2804C71.5197 46.3941 71.5075 46.5192 71.5316 46.6398C71.5556 46.7605 71.6149 46.8713 71.702 46.9582C71.789 47.0451 71.8999 47.1043 72.0205 47.1283C72.1412 47.1522 72.2663 47.1398 72.3799 47.0927C72.4935 47.0456 72.5907 46.9658 72.659 46.8635C72.7273 46.7612 72.7637 46.6409 72.7637 46.5179C72.7637 46.4362 72.7477 46.3552 72.7164 46.2797C72.6851 46.2042 72.6392 46.1356 72.5814 46.0778C72.5236 46.02 72.4549 45.9742 72.3794 45.943C72.3038 45.9118 72.2228 45.8959 72.1411 45.896ZM71.7261 46.9074C71.6583 46.8314 71.7138 46.7786 71.781 46.8565C71.8481 46.9344 71.7912 46.9811 71.7261 46.9074ZM72.3059 46.1066C72.2511 46.0693 72.2944 45.9919 72.36 46.0372C72.4107 46.0712 72.36 46.1432 72.3059 46.1066ZM72.4504 46.2965C72.3234 46.1482 72.4709 46.0395 72.5734 46.1869C72.6759 46.3344 72.5489 46.4105 72.4504 46.2965Z" fill="url(#paint4_radial_1730_63303)"/>
<path d="M50.7177 42.8037C50.6152 42.8038 50.5151 42.8343 50.43 42.8913C50.3449 42.9483 50.2786 43.0292 50.2395 43.1239C50.2003 43.2185 50.1902 43.3227 50.2102 43.4231C50.2303 43.5236 50.2797 43.6158 50.3522 43.6882C50.4246 43.7606 50.517 43.8099 50.6174 43.8298C50.7179 43.8497 50.822 43.8394 50.9167 43.8002C51.0113 43.7609 51.0921 43.6945 51.149 43.6093C51.2059 43.5241 51.2362 43.424 51.2362 43.3215C51.2363 43.2535 51.2229 43.186 51.1968 43.1231C51.1708 43.0602 51.1326 43.0031 51.0844 42.955C51.0363 42.9069 50.9791 42.8687 50.9161 42.8428C50.8532 42.8168 50.7857 42.8036 50.7177 42.8037ZM50.3728 43.6463C50.3162 43.5826 50.3619 43.5385 50.4184 43.6034C50.475 43.6683 50.4264 43.7072 50.3728 43.6463ZM50.8558 42.9789C50.8101 42.948 50.8462 42.884 50.9012 42.921C50.9428 42.95 50.9007 43.0095 50.8552 42.9789H50.8558ZM50.9758 43.1371C50.8702 43.0136 50.9931 42.9232 51.0776 43.0462C51.1621 43.1692 51.0568 43.2324 50.9753 43.1371H50.9758Z" fill="url(#paint5_radial_1730_63303)"/>
<path d="M49.6208 5.39746C49.4977 5.39753 49.3775 5.43408 49.2752 5.50249C49.1729 5.57091 49.0933 5.66811 49.0462 5.7818C48.9992 5.8955 48.987 6.02059 49.011 6.14124C49.0351 6.2619 49.0944 6.37271 49.1815 6.45966C49.2685 6.54662 49.3794 6.6058 49.5001 6.62974C49.6208 6.65367 49.7458 6.64128 49.8595 6.59414C49.9731 6.54699 50.0702 6.4672 50.1385 6.36486C50.2068 6.26252 50.2433 6.14223 50.2432 6.0192C50.2432 5.93749 50.2271 5.85659 50.1958 5.78111C50.1645 5.70563 50.1186 5.63706 50.0608 5.57932C50.003 5.52158 49.9344 5.47579 49.8589 5.44459C49.7834 5.41338 49.7025 5.39737 49.6208 5.39746ZM49.2044 6.40882C49.1371 6.33284 49.1928 6.28027 49.2601 6.35678C49.3274 6.43328 49.2709 6.48255 49.2051 6.40882H49.2044ZM49.785 5.60789C49.7299 5.57094 49.7732 5.49357 49.8392 5.5385C49.8905 5.57232 49.8399 5.64466 49.7857 5.60789H49.785ZM49.9297 5.79749C49.8022 5.64969 49.9497 5.54058 50.0524 5.68838C50.1551 5.83618 50.0286 5.91286 49.9304 5.79749H49.9297Z" fill="url(#paint6_radial_1730_63303)"/>
<path d="M27.4649 6.47412C27.3418 6.47416 27.2215 6.51067 27.1192 6.57905C27.0169 6.64743 26.9372 6.7446 26.8901 6.85829C26.843 6.97197 26.8307 7.09707 26.8547 7.21775C26.8787 7.33843 26.938 7.44929 27.025 7.53631C27.112 7.62333 27.2228 7.68261 27.3435 7.70664C27.4642 7.73068 27.5893 7.7184 27.703 7.67135C27.8167 7.6243 27.9138 7.5446 27.9823 7.44232C28.0507 7.34004 28.0872 7.21977 28.0873 7.09672C28.0873 7.01496 28.0713 6.934 28.04 6.85845C28.0087 6.7829 27.9629 6.71426 27.9051 6.65644C27.8473 6.59862 27.7787 6.55275 27.7031 6.52147C27.6276 6.49019 27.5466 6.4741 27.4649 6.47412ZM27.0485 7.48652C26.9809 7.40984 27.0367 7.35693 27.1035 7.43448C27.1703 7.51202 27.115 7.56042 27.0492 7.48652H27.0485ZM27.6288 6.68524C27.5743 6.64812 27.6175 6.57109 27.6834 6.61585C27.7346 6.64985 27.6841 6.72219 27.6295 6.68524H27.6288ZM27.7735 6.87467C27.6465 6.72653 27.7939 6.61811 27.8959 6.76556C28.0007 6.91596 27.872 6.98986 27.7742 6.87467H27.7735Z" fill="url(#paint7_radial_1730_63303)"/>
<path d="M27.4645 23.0493C27.3415 23.0494 27.2213 23.0859 27.119 23.1543C27.0168 23.2227 26.9371 23.3198 26.8901 23.4335C26.843 23.5472 26.8307 23.6722 26.8547 23.7928C26.8788 23.9135 26.938 24.0243 27.025 24.1113C27.112 24.1983 27.2228 24.2575 27.3434 24.2815C27.464 24.3055 27.5891 24.2932 27.7028 24.2462C27.8164 24.1992 27.9136 24.1195 27.982 24.0172C28.0503 23.915 28.0869 23.7948 28.0869 23.6717C28.087 23.59 28.0709 23.509 28.0396 23.4335C28.0084 23.358 27.9625 23.2893 27.9047 23.2315C27.8469 23.1737 27.7783 23.1279 27.7028 23.0966C27.6272 23.0653 27.5463 23.0493 27.4645 23.0493ZM27.0482 24.0614C26.9805 23.9849 27.0364 23.9323 27.1032 24.0093C27.1699 24.0864 27.1146 24.1351 27.0489 24.0614H27.0482ZM27.6284 23.2603C27.574 23.2231 27.6172 23.1461 27.6831 23.1909C27.7343 23.2256 27.6838 23.2972 27.6291 23.2603H27.6284ZM27.7731 23.4497C27.6461 23.3016 27.7936 23.1931 27.8956 23.3406C28.0004 23.491 27.8717 23.5647 27.7738 23.4497H27.7731Z" fill="url(#paint8_radial_1730_63303)"/>
<path d="M30.007 45.1359C29.9568 45.1422 29.9083 45.1582 29.8644 45.1832C29.8204 45.2082 29.7818 45.2416 29.7507 45.2815C29.7197 45.3214 29.6968 45.367 29.6834 45.4158C29.67 45.4645 29.6664 45.5155 29.6727 45.5656C29.6758 45.5916 29.6816 45.6172 29.69 45.642L24.754 47.6244C24.7294 47.5711 24.6928 47.524 24.6472 47.487C24.6016 47.4499 24.548 47.4239 24.4907 47.4107C24.4334 47.3976 24.3739 47.3979 24.3167 47.4114C24.2594 47.4249 24.2061 47.4514 24.1607 47.4887C24.1154 47.5261 24.0792 47.5734 24.0549 47.627C24.0307 47.6805 24.0191 47.7389 24.021 47.7977C24.0229 47.8564 24.0382 47.914 24.0658 47.9659C24.0935 48.0177 24.1326 48.0626 24.1803 48.097L16.0088 60.6842C15.9366 60.6416 15.8525 60.6242 15.7694 60.6345C15.7062 60.6424 15.646 60.6657 15.5941 60.7025C15.5422 60.7392 15.5002 60.7883 15.4719 60.8453C15.4436 60.9022 15.4298 60.9653 15.4318 61.0289C15.4338 61.0924 15.4516 61.1545 15.4834 61.2096C15.5153 61.2646 15.5603 61.311 15.6144 61.3444C15.6685 61.3778 15.7301 61.3973 15.7935 61.4011C15.857 61.405 15.9205 61.393 15.9782 61.3664C16.036 61.3397 16.0862 61.2991 16.1245 61.2483L25.2146 67.3515C25.1739 67.4193 25.1552 67.498 25.1608 67.5768C25.1665 67.6557 25.1963 67.7309 25.2461 67.7922C25.296 67.8535 25.3636 67.898 25.4396 67.9196C25.5157 67.9412 25.5965 67.9389 25.6712 67.9129C25.7459 67.8869 25.8107 67.8386 25.857 67.7745C25.9032 67.7104 25.9286 67.6336 25.9297 67.5545C25.9308 67.4755 25.9075 67.398 25.863 67.3327C25.8185 67.2673 25.755 67.2173 25.681 67.1893L27.2048 62.4177C27.2621 62.4389 27.3237 62.4464 27.3844 62.4394C27.4414 62.4318 27.4959 62.4114 27.544 62.3799L30.6145 65.4639C30.5715 65.5118 30.5411 65.5697 30.5263 65.6323C30.5115 65.6949 30.5126 65.7602 30.5296 65.8223C30.5466 65.8844 30.5789 65.9412 30.6236 65.9875C30.6682 66.0338 30.7238 66.0682 30.7852 66.0874C30.8466 66.1067 30.9119 66.1102 30.975 66.0977C31.0381 66.0852 31.0971 66.057 31.1465 66.0158C31.1959 65.9745 31.2341 65.9215 31.2577 65.8617C31.2813 65.8018 31.2895 65.737 31.2815 65.6731C31.2752 65.6229 31.2591 65.5744 31.2341 65.5304C31.2091 65.4864 31.1757 65.4478 31.1358 65.4167C31.0958 65.3857 31.0502 65.3628 31.0014 65.3493C30.9526 65.3359 30.9017 65.3322 30.8514 65.3385C30.7739 65.3482 30.7013 65.3815 30.6433 65.4339L27.5787 62.3554C27.6338 62.3111 27.6757 62.2524 27.6996 62.1858C27.7235 62.1192 27.7285 62.0473 27.7142 61.978C27.6998 61.9087 27.6666 61.8447 27.6182 61.7931C27.5698 61.7415 27.5081 61.7042 27.4399 61.6854L29.4869 55.2764C29.5231 55.2831 29.5601 55.2843 29.5967 55.2801C29.6893 55.2688 29.7745 55.2243 29.8367 55.1548C29.8988 55.0853 29.9336 54.9955 29.9345 54.9023C29.9354 54.8091 29.9023 54.7187 29.8415 54.648C29.7807 54.5774 29.6963 54.5312 29.604 54.5182L30.0573 45.901C30.0729 45.9019 30.0887 45.9016 30.1043 45.8999C30.1552 45.8946 30.2045 45.8791 30.2494 45.8544C30.2942 45.8298 30.3337 45.7964 30.3655 45.7563C30.3973 45.7162 30.4208 45.6702 30.4347 45.6209C30.4485 45.5716 30.4523 45.52 30.446 45.4692C30.4396 45.4184 30.4232 45.3694 30.3977 45.325C30.3722 45.2807 30.3381 45.2418 30.2974 45.2108C30.2567 45.1797 30.2102 45.1571 30.1607 45.1442C30.1112 45.1313 30.0595 45.1285 30.0089 45.1358L30.007 45.1359ZM29.1651 54.946C29.1723 55.0027 29.1924 55.057 29.2239 55.1047L23.3941 57.6653C23.3675 57.613 23.3292 57.5675 23.2823 57.5323C23.2354 57.497 23.181 57.473 23.1233 57.462L24.3756 48.17C24.4591 48.1772 24.5427 48.1561 24.6128 48.1102L29.2775 54.625C29.2354 54.6662 29.2033 54.7166 29.1838 54.7722C29.1643 54.8279 29.1579 54.8873 29.1651 54.9458V54.946ZM24.2155 48.1197C24.2523 48.1413 24.2927 48.1563 24.3347 48.164L23.082 57.4556C23.0561 57.4537 23.03 57.4543 23.0041 57.4573C22.903 57.4701 22.8111 57.5224 22.7485 57.6028C22.6859 57.6832 22.6577 57.7852 22.6702 57.8863C22.6744 57.916 22.6819 57.9451 22.6926 57.9731L16.1593 60.8434C16.1322 60.789 16.0923 60.742 16.0429 60.7064L24.2155 48.1197ZM25.6404 67.1763C25.5666 67.1566 25.4886 67.1595 25.4165 67.1847C25.3444 67.2098 25.2815 67.256 25.2359 67.3173L16.1458 61.2138C16.1899 61.1404 16.2082 61.0545 16.1979 60.9695C16.1935 60.9399 16.186 60.9108 16.1755 60.8828L22.7077 58.0139C22.734 58.0666 22.7722 58.1126 22.8192 58.1482C22.8663 58.1838 22.9209 58.2081 22.9789 58.219C23.0368 58.23 23.0965 58.2275 23.1533 58.2115C23.2102 58.1956 23.2625 58.1668 23.3063 58.1273L27.0123 61.8496C26.9822 61.8949 26.9622 61.9462 26.9536 61.9999C26.945 62.0536 26.948 62.1085 26.9624 62.161C26.9767 62.2135 27.0021 62.2623 27.0369 62.3041C27.0716 62.346 27.1149 62.3799 27.1639 62.4036L25.6404 67.1763ZM27.3962 61.6789C27.3602 61.6728 27.3236 61.6717 27.2874 61.6756C27.1894 61.6881 27.1 61.7377 27.0376 61.8143L23.3365 58.0954C23.3738 58.0547 23.4017 58.0065 23.4185 57.9539C23.4352 57.9014 23.4403 57.8458 23.4335 57.7911C23.4299 57.7611 23.4224 57.7316 23.4111 57.7035L29.2485 55.1395C29.2985 55.202 29.3668 55.2471 29.4439 55.2686L27.3962 61.6789ZM29.5611 54.5154C29.5406 54.514 29.5199 54.5144 29.4994 54.5166C29.4294 54.5254 29.3633 54.5536 29.3086 54.598L24.6466 48.0869C24.698 48.0461 24.7381 47.9928 24.7631 47.932C24.788 47.8713 24.7968 47.8052 24.7888 47.74C24.7858 47.7141 24.7799 47.6885 24.7715 47.6638L29.7079 45.6815C29.7357 45.7414 29.7785 45.7931 29.8321 45.8316C29.8857 45.8701 29.9483 45.8941 30.0139 45.9013L29.5611 54.5154Z" fill="#00ADEE"/>
<path d="M74.4348 36.5125C74.3707 36.5124 74.3076 36.5283 74.2513 36.5589C74.195 36.5894 74.1472 36.6336 74.1123 36.6874L67.6899 32.9719C67.7178 32.9183 67.7324 32.8588 67.7324 32.7985C67.7326 32.7346 67.7168 32.6718 67.6865 32.6156C67.6562 32.5594 67.6124 32.5116 67.559 32.4767L71.4852 25.7198C71.5359 25.7509 71.5931 25.7698 71.6523 25.775C71.7115 25.7803 71.7712 25.7717 71.8265 25.75C71.8819 25.7284 71.9315 25.6941 71.9714 25.6501C72.0113 25.606 72.0404 25.5533 72.0565 25.4961C72.0726 25.4388 72.0752 25.3786 72.0641 25.3202C72.053 25.2618 72.0286 25.2068 71.9926 25.1594C71.9567 25.1121 71.9103 25.0737 71.857 25.0473C71.8037 25.0209 71.745 25.0072 71.6856 25.0073C71.6122 25.0071 71.5403 25.0284 71.4788 25.0684L57.8461 9.68518C57.8885 9.64347 57.9207 9.59249 57.9401 9.53624C57.9595 9.48 57.9656 9.42003 57.9579 9.36103C57.9502 9.30204 57.9289 9.24564 57.8957 9.19626C57.8625 9.14688 57.8184 9.10586 57.7667 9.07643C57.715 9.04701 57.6571 9.02997 57.5977 9.02666C57.5383 9.02335 57.479 9.03386 57.4243 9.05737C57.3697 9.08087 57.3212 9.11673 57.2828 9.16212C57.2443 9.20751 57.2169 9.2612 57.2027 9.31897L35.4365 5.18142C35.4393 5.16467 35.4411 5.14775 35.4418 5.13077C35.442 5.06746 35.4265 5.00509 35.3968 4.94918C35.3671 4.89327 35.3241 4.84554 35.2716 4.81021C35.219 4.77488 35.1586 4.75304 35.0956 4.74662C35.0327 4.74019 34.9691 4.74939 34.9105 4.7734C34.8519 4.7974 34.8001 4.83547 34.7598 4.88423C34.7194 4.933 34.6917 4.99097 34.679 5.053C34.6664 5.11503 34.6692 5.17923 34.6873 5.2399C34.7054 5.30058 34.7381 5.35586 34.7826 5.40087L25.5958 15.4874C25.5276 15.4305 25.4417 15.3993 25.3529 15.3991C25.2769 15.3991 25.2025 15.4215 25.1392 15.4635L21.6095 10.7449C21.6686 10.6955 21.7115 10.6294 21.7325 10.5553C21.7536 10.4812 21.752 10.4025 21.7278 10.3294C21.7036 10.2562 21.658 10.192 21.5968 10.1451C21.5357 10.0982 21.4619 10.0707 21.385 10.0663C21.3081 10.0619 21.2316 10.0806 21.1655 10.1202C21.0993 10.1597 21.0466 10.2183 21.0142 10.2881C20.9817 10.358 20.971 10.436 20.9834 10.5121C20.9959 10.5881 21.0308 10.6587 21.0839 10.7146L11.1604 21.1494C11.1183 21.1136 11.0689 21.0872 11.0157 21.0722C10.9624 21.0571 10.9066 21.0538 10.8519 21.0623C10.7972 21.0708 10.7451 21.0911 10.699 21.1216C10.6528 21.1522 10.6139 21.1924 10.5847 21.2394C10.5555 21.2864 10.5369 21.3391 10.53 21.394C10.5231 21.4489 10.5281 21.5047 10.5447 21.5574C10.5614 21.6102 10.5892 21.6588 10.6263 21.6998C10.6634 21.7408 10.709 21.7733 10.7598 21.7951L6.68717 32.8987C6.651 32.887 6.6133 32.8807 6.57528 32.88C6.47449 32.8813 6.37825 32.9221 6.30721 32.9936C6.23617 33.0652 6.196 33.1617 6.19532 33.2625C6.19464 33.3633 6.2335 33.4603 6.30357 33.5328C6.37363 33.6052 6.46932 33.6473 6.57008 33.65L7.13248 47.0234C7.05157 47.0302 6.97481 47.0621 6.91297 47.1148C6.85113 47.1674 6.80731 47.238 6.78766 47.3168C6.768 47.3956 6.7735 47.4786 6.80338 47.5541C6.83326 47.6296 6.88602 47.6938 6.95426 47.7378C7.0225 47.7818 7.10281 47.8034 7.18391 47.7994C7.26501 47.7955 7.34285 47.7663 7.4065 47.7158C7.47015 47.6654 7.51643 47.5964 7.53884 47.5183C7.56126 47.4403 7.55868 47.3572 7.53147 47.2807L15.7889 43.9546C15.8182 44.017 15.8637 44.0704 15.9206 44.1092C15.9776 44.148 16.044 44.1708 16.1128 44.1752C16.1816 44.1796 16.2503 44.1654 16.3117 44.1341C16.3731 44.1029 16.4251 44.0557 16.462 43.9975C16.499 43.9393 16.5196 43.8722 16.5218 43.8034C16.524 43.7345 16.5076 43.6662 16.4744 43.6058C16.4412 43.5454 16.3923 43.495 16.333 43.46C16.2737 43.4249 16.206 43.4064 16.137 43.4064C16.1146 43.4069 16.0922 43.4092 16.0701 43.4134L14.0344 34.7034C14.1115 34.6911 14.1831 34.6556 14.2395 34.6016C14.296 34.5476 14.3346 34.4777 14.3503 34.4012L22.2954 35.54C22.2944 35.5511 22.2923 35.5624 22.2923 35.5747C22.292 35.6402 22.3084 35.7047 22.34 35.7621C22.3715 35.8195 22.4172 35.8678 22.4727 35.9027C22.5281 35.9375 22.5916 35.9576 22.657 35.961C22.7224 35.9645 22.7876 35.9513 22.8464 35.9225C22.9052 35.8938 22.9558 35.8505 22.9932 35.7968C23.0307 35.7431 23.0539 35.6807 23.0605 35.6156C23.0672 35.5504 23.0571 35.4846 23.0312 35.4245C23.0054 35.3643 22.9646 35.3117 22.9128 35.2717L30.9187 23.8223C30.9793 23.8608 31.0496 23.8812 31.1215 23.8813C31.2147 23.8814 31.3047 23.8476 31.3749 23.7863C31.445 23.7249 31.4905 23.6401 31.5028 23.5477C31.5152 23.4553 31.4935 23.3616 31.4419 23.284C31.3903 23.2064 31.3122 23.1502 31.2222 23.1258L34.9969 5.50964C35.0164 5.51323 35.0362 5.51526 35.056 5.51571C35.1189 5.51583 35.1808 5.50054 35.2364 5.47117C35.292 5.44181 35.3396 5.39926 35.3749 5.34727L54.0432 16.6261C54.0065 16.6933 53.9911 16.7701 53.9991 16.8463C54.0071 16.9225 54.0381 16.9945 54.088 17.0527L47.5566 23.1637C47.4951 23.0932 47.4085 23.0494 47.3152 23.0418C47.2219 23.0341 47.1293 23.0631 47.0571 23.1226C46.9849 23.1821 46.9387 23.2674 46.9283 23.3604C46.918 23.4534 46.9443 23.5468 47.0017 23.6207C47.0591 23.6947 47.1431 23.7433 47.2358 23.7563C47.3284 23.7693 47.4225 23.7457 47.4981 23.6904C47.5736 23.6352 47.6246 23.5526 47.6403 23.4604C47.6559 23.3681 47.635 23.2734 47.582 23.1963L54.1155 17.0834C54.187 17.1522 54.2823 17.1908 54.3815 17.1911C54.3999 17.1904 54.4183 17.1885 54.4365 17.1855L57.4803 32.4257C57.4106 32.4436 57.3473 32.4807 57.2977 32.5328C57.2481 32.5848 57.2141 32.6498 57.1995 32.7203C57.185 32.7907 57.1905 32.8638 57.2155 32.9313C57.2404 32.9988 57.2838 33.0579 57.3407 33.1019C57.3976 33.146 57.4657 33.1732 57.5372 33.1804C57.6088 33.1877 57.681 33.1747 57.7455 33.143C57.8101 33.1113 57.8645 33.062 57.9025 33.001C57.9405 32.9399 57.9605 32.8693 57.9604 32.7974C57.9604 32.7416 57.948 32.6865 57.9242 32.6361L64.0784 29.3801C64.1059 29.4262 64.1428 29.466 64.1867 29.4969C64.2306 29.5278 64.2805 29.549 64.3332 29.5593C64.3859 29.5695 64.4401 29.5686 64.4924 29.5565C64.5447 29.5443 64.5938 29.5213 64.6366 29.4889L67.0882 32.5129C67.0443 32.5522 67.0101 32.6011 66.9881 32.6557C66.9662 32.7104 66.9571 32.7694 66.9617 32.8281C66.9662 32.8868 66.9843 32.9437 67.0143 32.9943C67.0444 33.045 67.0858 33.088 67.1352 33.1201L62.5622 40.9891C62.4786 40.9564 62.3863 40.9533 62.3008 40.9804C62.2152 41.0076 62.1415 41.0632 62.092 41.138C62.0425 41.2129 62.0202 41.3025 62.0287 41.3918C62.0372 41.4812 62.0761 41.5649 62.1389 41.629C62.2017 41.6932 62.2846 41.7338 62.3737 41.7443C62.4628 41.7547 62.5529 41.7342 62.6288 41.6863C62.7047 41.6384 62.7618 41.5659 62.7908 41.481C62.8197 41.396 62.8186 41.3037 62.7877 41.2194L74.0809 37.0494C74.1073 37.109 74.1481 37.161 74.1996 37.2007L68.1301 46.019C68.0702 45.9816 68.0011 45.9616 67.9306 45.9614C67.8386 45.9606 67.7494 45.9925 67.6788 46.0515C67.6082 46.1104 67.5609 46.1925 67.5453 46.2831C67.5296 46.3737 67.5467 46.4669 67.5934 46.5461C67.6401 46.6253 67.7135 46.6853 67.8003 46.7154C67.8872 46.7455 67.9819 46.7438 68.0677 46.7105C68.1534 46.6772 68.2245 46.6146 68.2682 46.5337C68.312 46.4529 68.3257 46.3591 68.3067 46.2691C68.2878 46.1792 68.2374 46.0989 68.1647 46.0426L74.2336 37.2238C74.2842 37.2552 74.3414 37.2745 74.4008 37.2801C74.4601 37.2856 74.5199 37.2773 74.5755 37.2558C74.6311 37.2342 74.6809 37.2001 74.721 37.156C74.7611 37.112 74.7904 37.0592 74.8067 37.0018C74.8229 36.9445 74.8256 36.8842 74.8145 36.8256C74.8034 36.7671 74.7789 36.7119 74.7428 36.6644C74.7067 36.617 74.6601 36.5786 74.6067 36.5522C74.5533 36.5259 74.4944 36.5123 74.4348 36.5125ZM64.408 28.7967C64.3287 28.7971 64.2515 28.8218 64.1868 28.8675L54.6396 17.0905C54.6703 17.0627 54.6963 17.0302 54.7165 16.994L71.3553 25.1938C71.3264 25.2394 71.308 25.2908 71.3015 25.3443C71.295 25.3979 71.3006 25.4522 71.3178 25.5033L64.7376 28.985C64.7037 28.9276 64.6556 28.88 64.5978 28.8468C64.54 28.8137 64.4746 28.7961 64.408 28.7959V28.7967ZM71.4443 25.0936C71.4201 25.1129 71.3985 25.1353 71.3799 25.16L54.7359 16.9576C54.7566 16.9098 54.7672 16.8582 54.7669 16.8061C54.7669 16.7347 54.7468 16.6646 54.709 16.604C54.6711 16.5433 54.6171 16.4945 54.5529 16.463L57.4428 9.77174C57.5044 9.79513 57.5711 9.8019 57.6362 9.79137C57.7013 9.78083 57.7624 9.75336 57.8135 9.71172L71.4443 25.0936ZM25.1071 15.4898C25.0472 15.5384 25.0037 15.6042 24.9826 15.6783C24.9615 15.7524 24.9638 15.8313 24.9891 15.9041L22.1008 17.0357C22.0708 16.9674 22.0216 16.9093 21.9592 16.8685C21.8968 16.8277 21.8239 16.8059 21.7493 16.8058C21.7382 16.8058 21.7276 16.8082 21.7169 16.8089L21.4046 10.8306C21.4665 10.8251 21.5261 10.8044 21.5781 10.7703L25.1071 15.4898ZM22.4474 35.266L11.1734 21.7228C11.2124 21.687 11.2435 21.6436 11.2648 21.5952C11.2861 21.5468 11.2971 21.4945 11.2971 21.4416C11.2965 21.4006 11.2894 21.36 11.2761 21.3212L21.4013 17.3545C21.4299 17.4154 21.474 17.4676 21.5293 17.506C21.5845 17.5444 21.6488 17.5676 21.7158 17.5733L22.6364 35.1926C22.5679 35.1993 22.5025 35.2247 22.4474 35.266ZM21.3633 10.8351L21.6756 16.8136C21.6214 16.8236 21.57 16.8452 21.525 16.877C21.4801 16.9088 21.4425 16.95 21.415 16.9977C21.3875 17.0454 21.3706 17.0986 21.3657 17.1534C21.3607 17.2083 21.3677 17.2636 21.3862 17.3155L11.2621 21.2815C11.2444 21.2431 11.2206 21.2079 11.1914 21.1774L21.1152 10.742C21.1841 10.8018 21.2721 10.8348 21.3633 10.8351ZM10.7996 21.8081C10.8359 21.8199 10.8738 21.8262 10.912 21.8269C10.9345 21.8267 10.9569 21.8243 10.9789 21.8197L13.8199 33.971C13.7625 33.9959 13.712 34.0344 13.6727 34.0831C13.6334 34.1318 13.6066 34.1894 13.5944 34.2508L6.95658 33.2993C6.95831 33.2878 6.95941 33.2762 6.95987 33.2646C6.9598 33.1895 6.93777 33.1162 6.8965 33.0535C6.85522 32.9908 6.79651 32.9416 6.72759 32.9119L10.7996 21.8081ZM7.51725 47.242C7.48686 47.1763 7.43851 47.1206 7.37779 47.0813C7.31707 47.042 7.24646 47.0206 7.17412 47.0197L6.61171 33.6473C6.68687 33.6401 6.75825 33.611 6.81693 33.5635L15.8638 43.5209C15.8129 43.5715 15.7775 43.6355 15.7617 43.7054C15.7459 43.7754 15.7504 43.8484 15.7747 43.9159L7.51725 47.242ZM16.0305 43.4236C15.9814 43.438 15.9357 43.462 15.8959 43.4942L6.84902 33.5357C6.90209 33.4823 6.93829 33.4145 6.95311 33.3407L13.5911 34.2921C13.5893 34.3028 13.5882 34.3136 13.5878 34.3245C13.5879 34.4266 13.6285 34.5246 13.7007 34.5968C13.7729 34.669 13.8708 34.7096 13.9729 34.7096C13.9797 34.7096 13.9858 34.7077 13.9924 34.7077L16.0305 43.4236ZM14.3546 34.3596C14.3556 34.3478 14.3582 34.3363 14.3582 34.3249C14.3591 34.2644 14.3455 34.2045 14.3186 34.1503C14.2917 34.0961 14.2522 34.0492 14.2035 34.0133C14.1548 33.9775 14.0982 33.9538 14.0384 33.9443C13.9787 33.9347 13.9175 33.9396 13.86 33.9585L11.0194 21.8095C11.0631 21.797 11.1042 21.7767 11.1408 21.7497L22.4147 35.2923C22.3553 35.3472 22.3146 35.4195 22.2983 35.4988L14.3546 34.3596ZM22.8795 35.247C22.8188 35.2092 22.7489 35.189 22.6774 35.1886L21.758 17.5757C21.818 17.5753 21.8771 17.5607 21.9303 17.533C21.9836 17.5054 22.0295 17.4655 22.0644 17.4166C22.0992 17.3677 22.1219 17.3113 22.1307 17.2519C22.1395 17.1925 22.134 17.1319 22.1148 17.075L25.0037 15.9433C25.0268 15.994 25.0607 16.039 25.1029 16.0754C25.1451 16.1117 25.1947 16.1385 25.2483 16.1538C25.3018 16.1691 25.3581 16.1726 25.4131 16.1641C25.4682 16.1556 25.5207 16.1352 25.5671 16.1044L30.8755 23.2027C30.8314 23.2392 30.7961 23.2851 30.7721 23.337C30.7482 23.389 30.7363 23.4456 30.7372 23.5028C30.7381 23.56 30.7518 23.6163 30.7774 23.6674C30.803 23.7186 30.8398 23.7634 30.885 23.7984L22.8795 35.247ZM31.182 23.1175C31.1622 23.1141 31.1421 23.1121 31.122 23.1116C31.0459 23.1115 30.9715 23.134 30.9083 23.1763L25.5994 16.0772C25.6404 16.0434 25.674 16.0015 25.6978 15.954C25.7217 15.9065 25.7354 15.8546 25.7381 15.8015C25.7407 15.7484 25.7322 15.6954 25.7132 15.6458C25.6942 15.5962 25.665 15.5511 25.6275 15.5134L34.8132 5.42759C34.8548 5.46184 34.9032 5.48686 34.9552 5.50096L31.182 23.1175ZM35.3952 5.31084C35.4104 5.283 35.4221 5.25332 35.4299 5.22254L57.1954 9.36043C57.1926 9.37724 57.1909 9.39422 57.1904 9.41126C57.1905 9.48275 57.2106 9.55278 57.2484 9.61347C57.2862 9.67416 57.3402 9.72308 57.4043 9.75474L54.5147 16.4457C54.4343 16.4154 54.3461 16.4131 54.2642 16.4392C54.1823 16.4653 54.1117 16.5182 54.0637 16.5895L35.3952 5.31084ZM57.9048 32.6003C57.8708 32.5432 57.8225 32.4958 57.7648 32.4628C57.707 32.4299 57.6417 32.4125 57.5752 32.4123C57.5569 32.4128 57.5388 32.4148 57.5209 32.4182L54.4778 17.1781C54.5241 17.1664 54.5679 17.146 54.6067 17.1181L64.154 28.8939C64.091 28.9483 64.0476 29.0219 64.0304 29.1034C64.0133 29.1849 64.0234 29.2697 64.0591 29.3449L57.9048 32.6003ZM64.6703 29.4624C64.709 29.4265 64.7399 29.383 64.7611 29.3346C64.7823 29.2862 64.7932 29.234 64.7933 29.1812C64.7935 29.126 64.7816 29.0715 64.7586 29.0214L71.3321 25.5439C71.3585 25.6035 71.3995 25.6554 71.4514 25.6948L67.5227 32.456C67.4692 32.4279 67.4097 32.4129 67.3492 32.4123C67.2682 32.4126 67.1892 32.4386 67.1237 32.4864L64.6703 29.4624ZM62.7725 41.1809C62.7357 41.106 62.6755 41.0451 62.6011 41.0075L67.1725 33.1397C67.2567 33.1839 67.3544 33.1949 67.4464 33.1706C67.5384 33.1463 67.6179 33.0884 67.6693 33.0084L74.0922 36.7231C74.0643 36.7767 74.0494 36.8362 74.0488 36.8966C74.0496 36.9351 74.056 36.9733 74.0678 37.0099L62.7725 41.1809Z" fill="#00ADEE"/>
<path d="M65.7056 59.3677C65.63 59.3678 65.5562 59.39 65.4932 59.4317C65.4303 59.4734 65.381 59.5327 65.3515 59.6023L57.8518 56.8834C57.865 56.8325 57.8675 56.7793 57.8591 56.7273C57.8507 56.6754 57.8316 56.6257 57.8029 56.5816C57.7743 56.5374 57.7368 56.4997 57.6928 56.4707C57.6488 56.4418 57.5993 56.4224 57.5474 56.4136L57.8567 51.5022C57.8589 51.5022 57.8612 51.5022 57.8631 51.5022C57.9652 51.5022 58.0632 51.4616 58.1354 51.3894C58.2076 51.3172 58.2482 51.2192 58.2482 51.1171C58.2482 51.015 58.2076 50.917 58.1354 50.8448C58.0632 50.7726 57.9652 50.732 57.8631 50.732C57.8095 50.7319 57.7566 50.7431 57.7076 50.7649C57.6587 50.7867 57.6149 50.8186 57.5791 50.8585L51.4633 46.8776C51.512 46.7915 51.5252 46.6898 51.5001 46.5942C51.475 46.4986 51.4135 46.4165 51.3288 46.3655C51.2441 46.3144 51.1428 46.2985 51.0465 46.321C50.9503 46.3435 50.8666 46.4027 50.8133 46.486C50.7599 46.5693 50.7413 46.6701 50.7611 46.7669C50.781 46.8638 50.8379 46.9491 50.9197 47.0046C51.0016 47.0602 51.1018 47.0816 51.1992 47.0643C51.2965 47.0471 51.3833 46.9925 51.4411 46.9122L57.5524 50.8909C57.5042 50.9562 57.4781 51.0352 57.4778 51.1164C57.4781 51.141 57.4805 51.1656 57.4851 51.1898L50.3714 53.9095C50.3437 53.8469 50.2999 53.7929 50.2443 53.7529C50.1888 53.7129 50.1236 53.6885 50.0555 53.6821C49.9873 53.6757 49.9187 53.6876 49.8567 53.7165C49.7947 53.7455 49.7416 53.7904 49.7027 53.8468C49.6639 53.9031 49.6408 53.9688 49.6358 54.0371C49.6308 54.1053 49.6441 54.1737 49.6743 54.2351C49.7045 54.2965 49.7506 54.3487 49.8077 54.3864C49.8648 54.424 49.931 54.4458 49.9993 54.4494V62.9006C49.9342 62.9041 49.871 62.9242 49.8158 62.9589C49.7606 62.9935 49.7151 63.0417 49.6836 63.0989C49.6521 63.156 49.6357 63.2202 49.6359 63.2854C49.6361 63.3507 49.6529 63.4148 49.6848 63.4717C49.7166 63.5286 49.7624 63.5765 49.8178 63.6109C49.8733 63.6452 49.9365 63.6649 50.0017 63.668C50.0669 63.6712 50.1317 63.6577 50.1902 63.6288C50.2487 63.5999 50.2989 63.5567 50.336 63.503L56.4614 67.2822C56.449 67.32 56.4425 67.3595 56.442 67.3993C56.4421 67.4372 56.448 67.4748 56.4594 67.511L50.3978 68.3204C50.3789 68.2237 50.3235 68.138 50.243 68.081C50.1625 68.0241 50.0632 68.0003 49.9657 68.0147C49.8682 68.029 49.78 68.0804 49.7193 68.1581C49.6587 68.2358 49.6303 68.3338 49.64 68.4319C49.6498 68.53 49.697 68.6206 49.7717 68.6848C49.8465 68.749 49.9431 68.782 50.0416 68.7768C50.14 68.7717 50.2327 68.7288 50.3003 68.6571C50.368 68.5855 50.4054 68.4905 50.4049 68.3919C50.4049 68.3818 50.4028 68.3725 50.402 68.3624L56.4722 67.5512C56.5072 67.6327 56.5692 67.6997 56.6478 67.7407C56.7264 67.7818 56.8168 67.7944 56.9036 67.7766C56.9905 67.7587 57.0685 67.7114 57.1246 67.6427C57.1806 67.5739 57.2112 67.488 57.2112 67.3993C57.2109 67.3355 57.1944 67.2728 57.1633 67.2171L65.4294 60.0204C65.4737 60.0659 65.5286 60.0997 65.5892 60.1189C65.6498 60.138 65.7142 60.1419 65.7766 60.1301C65.839 60.1183 65.8976 60.0912 65.947 60.0513C65.9964 60.0114 66.0352 59.9599 66.0599 59.9013C66.0846 59.8428 66.0944 59.7791 66.0884 59.7158C66.0825 59.6525 66.061 59.5917 66.0258 59.5388C65.9907 59.4859 65.943 59.4425 65.887 59.4125C65.831 59.3825 65.7684 59.3668 65.7049 59.3669L65.7056 59.3677ZM56.8264 67.0152C56.7604 67.0156 56.6957 67.0331 56.6386 67.0662L50.2118 54.3993C50.2845 54.3584 50.3417 54.2946 50.3745 54.218L57.117 56.6619C57.1012 56.7035 57.093 56.7476 57.0925 56.7922C57.0926 56.8905 57.1304 56.9851 57.1982 57.0563C57.266 57.1275 57.3586 57.17 57.4568 57.1748L56.8351 67.0166C56.8323 67.0158 56.8294 67.0153 56.8264 67.0152ZM57.4967 51.2311C57.5185 51.3014 57.5601 51.3639 57.6165 51.4112C57.6729 51.4586 57.7417 51.4886 57.8147 51.4979L57.5049 56.4095C57.4962 56.4095 57.4875 56.4069 57.4782 56.4069C57.4062 56.4071 57.3357 56.4276 57.2747 56.4659C57.2137 56.5042 57.1647 56.5589 57.1333 56.6237L50.3879 54.1777C50.4127 54.1036 50.4119 54.0232 50.3857 53.9496L57.4967 51.2311ZM50.3577 63.4678C50.3895 63.4111 50.4063 63.3472 50.4063 63.2822C50.4064 63.2171 50.3898 63.1532 50.3582 63.0964C50.3265 63.0396 50.2808 62.9918 50.2255 62.9577C50.1701 62.9236 50.107 62.9042 50.042 62.9014V54.4503C50.0883 54.4481 50.1337 54.4377 50.1763 54.4194L56.6028 67.0881C56.5479 67.1278 56.5043 67.1812 56.4762 67.2428L50.3577 63.4678ZM57.1439 67.1802C57.1131 67.1363 57.0736 67.0994 57.0278 67.0716C56.982 67.0439 56.9309 67.026 56.8778 67.019L57.4988 57.1738C57.574 57.1702 57.6465 57.1444 57.7071 57.0997C57.7677 57.0549 57.8137 56.9933 57.8393 56.9224L65.339 59.6411C65.328 59.6771 65.3222 59.7145 65.3217 59.7522C65.3217 59.8378 65.3509 59.9209 65.4044 59.9877L57.1439 67.1802Z" fill="#00ADEE"/>
<path d="M71.6834 22.6411C71.1393 22.6412 70.6074 22.8027 70.155 23.105C69.7026 23.4074 69.3501 23.8371 69.1419 24.3399C68.9338 24.8426 68.8793 25.3958 68.9855 25.9294C69.0917 26.4631 69.3538 26.9533 69.7386 27.338C70.1234 27.7228 70.6136 27.9848 71.1473 28.0909C71.6809 28.197 72.2341 28.1425 72.7368 27.9343C73.2395 27.7261 73.6692 27.3735 73.9715 26.921C74.2738 26.4686 74.4352 25.9367 74.4352 25.3926C74.4353 25.0312 74.3642 24.6734 74.2259 24.3395C74.0877 24.0056 73.885 23.7022 73.6294 23.4467C73.3739 23.1912 73.0705 22.9885 72.7366 22.8503C72.4027 22.712 72.0448 22.641 71.6834 22.6411ZM69.8463 27.1154C69.5462 26.7785 69.7913 26.5452 70.0906 26.8899C70.3898 27.2346 70.1362 27.4406 69.8463 27.1154ZM72.4108 23.573C72.1693 23.4098 72.361 23.0677 72.6523 23.2651C72.8755 23.416 72.6523 23.7364 72.4108 23.573ZM73.0506 24.4118C72.489 23.7567 73.1423 23.2759 73.593 23.9288C74.0524 24.5927 73.4851 24.9185 73.0506 24.4118Z" fill="url(#paint9_radial_1730_63303)"/>
<path d="M35.0561 2.73828C34.5826 2.73828 34.1197 2.87868 33.7261 3.14174C33.3324 3.40479 33.0255 3.77867 32.8443 4.21611C32.6631 4.65355 32.6157 5.13489 32.7081 5.59927C32.8005 6.06365 33.0285 6.49021 33.3633 6.82501C33.6981 7.15981 34.1246 7.38782 34.589 7.48019C35.0534 7.57256 35.5348 7.52515 35.9722 7.34396C36.4096 7.16277 36.7835 6.85593 37.0466 6.46224C37.3096 6.06856 37.45 5.60571 37.45 5.13223C37.45 4.49732 37.1978 3.88841 36.7488 3.43945C36.2999 2.9905 35.691 2.73828 35.0561 2.73828ZM33.458 6.63088C33.1978 6.33771 33.4105 6.1344 33.6705 6.43399C33.9306 6.73358 33.7099 6.91434 33.458 6.63088ZM35.6887 3.5491C35.479 3.40703 35.6459 3.10917 35.8992 3.28126C36.0936 3.41292 35.8992 3.69118 35.6887 3.5491ZM36.2454 4.27891C35.7571 3.70887 36.3254 3.2901 36.7183 3.85893C37.1175 4.43625 36.6236 4.71971 36.2454 4.27891Z" fill="url(#paint10_radial_1730_63303)"/>
<path d="M57.5843 8.12256C57.329 8.12249 57.0793 8.19815 56.867 8.33998C56.6546 8.4818 56.4891 8.68341 56.3913 8.91931C56.2936 9.15522 56.268 9.41481 56.3177 9.66527C56.3675 9.91573 56.4905 10.1458 56.671 10.3264C56.8516 10.5069 57.0816 10.6299 57.3321 10.6797C57.5825 10.7296 57.8421 10.704 58.0781 10.6063C58.314 10.5085 58.5156 10.343 58.6575 10.1307C58.7993 9.91838 58.875 9.66874 58.875 9.41339C58.8748 9.07111 58.7388 8.74289 58.4968 8.50085C58.2548 8.2588 57.9266 8.12274 57.5843 8.12256ZM56.7216 10.2216C56.5815 10.0636 56.6966 9.95411 56.8368 10.1156C56.977 10.2771 56.8576 10.3746 56.7216 10.2218V10.2216ZM57.9255 8.55972C57.8121 8.48321 57.9016 8.32258 58.0383 8.41521C58.1431 8.48616 58.0383 8.63726 57.9255 8.55989V8.55972ZM58.2257 8.95316C57.9618 8.64576 58.2683 8.42007 58.4803 8.72677C58.6956 9.03851 58.4297 9.19116 58.2257 8.95333V8.95316Z" fill="url(#paint11_radial_1730_63303)"/>
<path d="M67.348 31.5083C67.0926 31.5082 66.843 31.5839 66.6307 31.7257C66.4183 31.8675 66.2528 32.0691 66.155 32.305C66.0572 32.5409 66.0316 32.8005 66.0814 33.051C66.1312 33.3014 66.2541 33.5315 66.4346 33.7121C66.6152 33.8926 66.8452 34.0156 67.0957 34.0655C67.3461 34.1153 67.6057 34.0898 67.8416 33.9921C68.0775 33.8944 68.2792 33.7289 68.421 33.5166C68.5629 33.3043 68.6386 33.0547 68.6386 32.7993C68.6386 32.457 68.5027 32.1286 68.2606 31.8865C68.0186 31.6444 67.6903 31.5084 67.348 31.5083ZM66.4856 33.6073C66.3451 33.449 66.4603 33.3399 66.6005 33.501C66.7407 33.6622 66.6213 33.7604 66.4856 33.6075V33.6073ZM67.6883 31.9455C67.5758 31.8686 67.6653 31.7081 67.8021 31.801C67.9068 31.8724 67.8021 32.022 67.6877 31.9456L67.6883 31.9455ZM67.9893 32.3392C67.7255 32.0315 68.032 31.806 68.244 32.1122C68.4593 32.4239 68.1925 32.5762 67.9893 32.3394V32.3392Z" fill="url(#paint12_radial_1730_63303)"/>
<path d="M21.7513 15.9014C21.496 15.9013 21.2463 15.977 21.034 16.1188C20.8216 16.2606 20.6561 16.4622 20.5583 16.6981C20.4606 16.934 20.4349 17.1936 20.4847 17.4441C20.5345 17.6945 20.6575 17.9246 20.838 18.1052C21.0186 18.2858 21.2486 18.4087 21.4991 18.4586C21.7495 18.5084 22.0091 18.4828 22.245 18.3851C22.481 18.2873 22.6826 18.1219 22.8244 17.9095C22.9663 17.6972 23.042 17.4476 23.042 17.1922C23.042 17.0227 23.0087 16.8548 22.9438 16.6982C22.879 16.5416 22.7839 16.3993 22.6641 16.2794C22.5442 16.1595 22.4019 16.0644 22.2453 15.9996C22.0887 15.9347 21.9208 15.9013 21.7513 15.9014ZM20.889 18.0004C20.7486 17.8424 20.8636 17.7324 21.0038 17.8944C21.144 18.0564 21.0248 18.1534 20.889 18.0006V18.0004ZM22.0918 16.3382C21.9791 16.2615 22.0688 16.1007 22.2055 16.1935C22.3102 16.265 22.2055 16.4149 22.0918 16.3382ZM22.3926 16.732C22.1288 16.4247 22.4355 16.1992 22.6473 16.5064C22.8628 16.817 22.5961 16.97 22.3926 16.732Z" fill="url(#paint13_radial_1730_63303)"/>
<path d="M10.914 20.1509C10.6587 20.1509 10.4091 20.2266 10.1968 20.3685C9.98448 20.5103 9.81901 20.712 9.7213 20.9479C9.62359 21.1838 9.59804 21.4434 9.64787 21.6938C9.69769 21.9442 9.82067 22.1743 10.0012 22.3548C10.1818 22.5354 10.4119 22.6583 10.6623 22.7081C10.9127 22.7579 11.1723 22.7323 11.4082 22.6346C11.6441 22.5368 11.8457 22.3713 11.9876 22.159C12.1294 21.9467 12.2051 21.697 12.205 21.4417C12.2051 21.2722 12.1717 21.1043 12.1068 20.9477C12.0419 20.791 11.9468 20.6487 11.827 20.5288C11.7071 20.409 11.5647 20.3139 11.4081 20.249C11.2515 20.1842 11.0836 20.1508 10.914 20.1509ZM10.0519 22.2499C9.91171 22.0914 10.0264 21.9823 10.1665 22.1436C10.3067 22.3049 10.1879 22.4029 10.0519 22.2501V22.2499ZM11.2549 20.588C11.1422 20.511 11.2319 20.3505 11.3682 20.4434C11.473 20.5148 11.3682 20.6645 11.2549 20.5877V20.588ZM11.5554 20.9816C11.292 20.6744 11.5984 20.4489 11.8102 20.7549C12.0253 21.0665 11.7589 21.2195 11.5554 20.9818V20.9816Z" fill="url(#paint14_radial_1730_63303)"/>
<path d="M22.6808 34.2827C22.4255 34.2827 22.1759 34.3584 21.9636 34.5002C21.7512 34.642 21.5857 34.8436 21.488 35.0795C21.3902 35.3154 21.3646 35.575 21.4144 35.8254C21.4642 36.0758 21.5871 36.3059 21.7677 36.4865C21.9482 36.667 22.1782 36.79 22.4286 36.8399C22.679 36.8897 22.9386 36.8642 23.1745 36.7665C23.4104 36.6688 23.6121 36.5034 23.754 36.2911C23.8959 36.0788 23.9716 35.8292 23.9717 35.5739C23.9717 35.4044 23.9383 35.2365 23.8734 35.0798C23.8086 34.9232 23.7135 34.7809 23.5936 34.661C23.4738 34.5411 23.3315 34.446 23.1749 34.3811C23.0182 34.3162 22.8504 34.2827 22.6808 34.2827ZM21.8187 36.3818C21.6783 36.2234 21.7933 36.1139 21.9335 36.2754C22.0737 36.4369 21.9545 36.5348 21.8187 36.3823V36.3818ZM23.0219 34.7195C22.9089 34.643 22.9985 34.4824 23.1352 34.575C23.2401 34.6463 23.1352 34.7967 23.0219 34.72V34.7195ZM23.3216 35.113C23.0585 34.8056 23.365 34.5801 23.5768 34.8874C23.7923 35.1987 23.5263 35.3513 23.3216 35.1135V35.113Z" fill="url(#paint15_radial_1730_63303)"/>
<path d="M29.3887 53.6164C29.1353 53.648 28.8971 53.7541 28.704 53.9211C28.511 54.0881 28.3718 54.3087 28.3041 54.5548C28.2363 54.801 28.2431 55.0617 28.3236 55.3039C28.404 55.5462 28.5545 55.7592 28.7559 55.916C28.9574 56.0728 29.2009 56.1663 29.4555 56.1847C29.7101 56.2031 29.9645 56.1456 30.1864 56.0195C30.4084 55.8934 30.5879 55.7043 30.7024 55.4761C30.8169 55.2479 30.8611 54.9909 30.8295 54.7376C30.7871 54.3978 30.6115 54.0888 30.3413 53.8786C30.0711 53.6683 29.7284 53.574 29.3887 53.6164ZM28.7933 55.8067C28.6339 55.6667 28.7347 55.544 28.8943 55.6865C29.0539 55.8289 28.947 55.9415 28.7933 55.8067ZM29.7821 54.0083C29.6607 53.946 29.7301 53.7756 29.8768 53.8502C29.9884 53.9082 29.9034 54.0693 29.7814 54.0083H29.7821ZM30.1291 54.3613C29.8298 54.0886 30.1058 53.8272 30.3546 54.1047C30.6049 54.3875 30.3596 54.5724 30.1277 54.3613H30.1291Z" fill="url(#paint16_radial_1730_63303)"/>
<path d="M57.4791 55.5005C57.2238 55.5006 56.9742 55.5763 56.762 55.7182C56.5497 55.8601 56.3843 56.0618 56.2866 56.2977C56.189 56.5336 56.1635 56.7932 56.2133 57.0436C56.2632 57.294 56.3862 57.524 56.5668 57.7045C56.7474 57.8851 56.9774 58.008 57.2278 58.0577C57.4783 58.1075 57.7378 58.0819 57.9737 57.9841C58.2096 57.8864 58.4112 57.7209 58.553 57.5086C58.6948 57.2962 58.7705 57.0466 58.7705 56.7913C58.7705 56.6218 58.7371 56.4539 58.6722 56.2972C58.6073 56.1406 58.5121 55.9982 58.3922 55.8784C58.2723 55.7585 58.1299 55.6634 57.9733 55.5986C57.8166 55.5338 57.6487 55.5004 57.4791 55.5005ZM56.6173 57.5995C56.4764 57.4415 56.5913 57.3319 56.7318 57.4935C56.8723 57.6552 56.7526 57.7525 56.6173 57.5997V57.5995ZM57.8205 55.9376C57.7071 55.861 57.7966 55.7003 57.9331 55.793C58.0381 55.8644 57.9331 56.0143 57.8205 55.9378V55.9376ZM58.1206 56.3311C57.8571 56.0237 58.1631 55.798 58.375 56.1045C58.5904 56.4166 58.3245 56.5691 58.1206 56.3313V56.3311Z" fill="url(#paint17_radial_1730_63303)"/>
<path d="M56.8264 66.5259C56.6369 66.5258 56.4517 66.582 56.2941 66.6873C56.1365 66.7925 56.0137 66.9422 55.9411 67.1173C55.8686 67.2923 55.8496 67.485 55.8866 67.6709C55.9235 67.8567 56.0148 68.0275 56.1488 68.1615C56.2828 68.2955 56.4535 68.3867 56.6394 68.4237C56.8253 68.4606 57.0179 68.4417 57.193 68.3691C57.3681 68.2966 57.5177 68.1738 57.623 68.0162C57.7282 67.8586 57.7844 67.6733 57.7844 67.4838C57.7844 67.358 57.7597 67.2334 57.7115 67.1172C57.6634 67.0009 57.5929 66.8953 57.5039 66.8063C57.4149 66.7174 57.3093 66.6468 57.1931 66.5987C57.0768 66.5506 56.9522 66.5258 56.8264 66.5259ZM56.1874 68.0833C56.0833 67.9662 56.1679 67.8852 56.272 68.0048C56.3761 68.1243 56.2878 68.1968 56.1874 68.0833ZM57.0804 66.8504C56.9958 66.7934 57.0631 66.674 57.164 66.7431C57.2414 66.796 57.164 66.9067 57.0804 66.8504ZM57.303 67.1426C57.1071 66.9141 57.3349 66.7467 57.4917 66.9741C57.6515 67.2057 57.4539 67.3192 57.303 67.1426Z" fill="url(#paint18_radial_1730_63303)"/>
<path d="M57.5792 31.8389C57.3897 31.8388 57.2045 31.895 57.047 32.0002C56.8894 32.1054 56.7666 32.255 56.6941 32.4301C56.6215 32.6051 56.6025 32.7977 56.6395 32.9835C56.6764 33.1693 56.7676 33.34 56.9015 33.474C57.0355 33.608 57.2062 33.6993 57.392 33.7363C57.5778 33.7733 57.7704 33.7543 57.9454 33.6819C58.1205 33.6094 58.2701 33.4866 58.3754 33.3291C58.4807 33.1716 58.5369 32.9864 58.537 32.797C58.537 32.6712 58.5123 32.5466 58.4641 32.4303C58.416 32.3141 58.3455 32.2085 58.2566 32.1195C58.1676 32.0305 58.062 31.96 57.9458 31.9118C57.8296 31.8637 57.705 31.8389 57.5792 31.8389ZM56.9399 33.3962C56.8359 33.2791 56.921 33.1982 57.0253 33.3183C57.1295 33.4383 57.0404 33.5106 56.9399 33.3962ZM57.8328 32.1634C57.7483 32.1064 57.8155 31.9874 57.9166 32.0561C57.9935 32.1093 57.9166 32.2202 57.8328 32.1634ZM58.0554 32.4556C57.8595 32.2271 58.0873 32.0602 58.2443 32.2871C58.4039 32.5184 58.2067 32.632 58.0554 32.4556Z" fill="url(#paint19_radial_1730_63303)"/>
<path d="M13.9771 33.3696C13.7877 33.3697 13.6025 33.4259 13.4451 33.5311C13.2876 33.6364 13.1649 33.786 13.0924 33.961C13.0199 34.136 13.001 34.3286 13.038 34.5143C13.0749 34.7001 13.1662 34.8708 13.3001 35.0047C13.4341 35.1386 13.6047 35.2298 13.7905 35.2667C13.9763 35.3037 14.1688 35.2847 14.3438 35.2122C14.5188 35.1397 14.6684 35.017 14.7736 34.8595C14.8789 34.702 14.935 34.5168 14.935 34.3274C14.935 34.0734 14.8341 33.8297 14.6544 33.6501C14.4748 33.4705 14.2311 33.3696 13.9771 33.3696ZM13.3375 34.9269C13.2334 34.8098 13.3188 34.7285 13.4225 34.848C13.5263 34.9675 13.4383 35.0409 13.3375 34.9269ZM14.23 33.6942C14.1463 33.637 14.2127 33.5176 14.3143 33.5863C14.3921 33.6392 14.3143 33.7506 14.23 33.6942ZM14.4528 33.9858C14.2576 33.7577 14.485 33.5905 14.6422 33.8179C14.8013 34.0491 14.6042 34.1624 14.4528 33.9858Z" fill="url(#paint20_radial_1730_63303)"/>
<path d="M7.1703 46.4468C6.98091 46.4468 6.79579 46.503 6.63834 46.6082C6.48089 46.7135 6.35818 46.863 6.28573 47.038C6.21328 47.213 6.19434 47.4055 6.23131 47.5913C6.26828 47.777 6.35949 47.9476 6.49342 48.0815C6.62735 48.2154 6.79797 48.3066 6.98372 48.3436C7.16947 48.3805 7.362 48.3615 7.53696 48.289C7.71193 48.2166 7.86147 48.0938 7.96668 47.9363C8.0719 47.7789 8.12805 47.5937 8.12805 47.4044C8.12796 47.1504 8.02702 46.9069 7.84742 46.7273C7.66782 46.5477 7.42427 46.4468 7.1703 46.4468ZM6.5307 48.0039C6.42661 47.8864 6.51144 47.8053 6.6157 47.9251C6.71996 48.045 6.63149 48.1177 6.5307 48.0039ZM7.42323 46.771C7.33944 46.7143 7.40588 46.5949 7.50753 46.6636C7.58508 46.7162 7.50753 46.8277 7.42323 46.771ZM7.64597 47.0631C7.45081 46.835 7.67771 46.6673 7.83488 46.8949C7.99465 47.1259 7.79741 47.2392 7.64597 47.0631Z" fill="url(#paint21_radial_1730_63303)"/>
<path d="M22.9375 56.8878C22.7495 56.9113 22.5728 56.9901 22.4295 57.114C22.2863 57.238 22.1831 57.4017 22.1329 57.5843C22.0827 57.7669 22.0878 57.9604 22.1475 58.1401C22.2072 58.3199 22.3189 58.4779 22.4684 58.5942C22.6179 58.7105 22.7986 58.7798 22.9875 58.7934C23.1764 58.8071 23.3651 58.7644 23.5298 58.6707C23.6945 58.5771 23.8277 58.4368 23.9126 58.2674C23.9974 58.0981 24.0302 57.9074 24.0068 57.7195C23.9912 57.5946 23.9512 57.4741 23.889 57.3647C23.8269 57.2553 23.7438 57.1593 23.6445 57.082C23.5452 57.0048 23.4316 56.9479 23.3103 56.9146C23.189 56.8812 23.0623 56.8722 22.9375 56.8878ZM22.4958 58.5121C22.3775 58.408 22.4522 58.3178 22.5702 58.4238C22.6882 58.5298 22.6099 58.6123 22.4958 58.5121ZM23.2284 57.1779C23.1385 57.1319 23.1902 57.0044 23.299 57.0616C23.3828 57.105 23.3194 57.2244 23.2284 57.1779ZM23.4862 57.4405C23.2639 57.2379 23.4688 57.0443 23.6529 57.2497C23.84 57.4596 23.6579 57.5965 23.4862 57.4405Z" fill="url(#paint22_radial_1730_63303)"/>
<path d="M54.3834 15.8496C54.1939 15.8496 54.0088 15.9058 53.8513 16.0111C53.6938 16.1164 53.5711 16.266 53.4986 16.441C53.4262 16.616 53.4072 16.8086 53.4442 16.9944C53.4812 17.1802 53.5725 17.3508 53.7064 17.4847C53.8404 17.6186 54.0111 17.7098 54.1969 17.7467C54.3826 17.7837 54.5752 17.7647 54.7502 17.6921C54.9252 17.6196 55.0748 17.4968 55.18 17.3393C55.2852 17.1818 55.3413 16.9966 55.3413 16.8072C55.3413 16.6814 55.3165 16.5568 55.2684 16.4406C55.2203 16.3244 55.1497 16.2188 55.0607 16.1299C54.9718 16.041 54.8662 15.9704 54.7499 15.9224C54.6337 15.8743 54.5091 15.8495 54.3834 15.8496ZM53.7445 17.4069C53.6395 17.2898 53.7249 17.2084 53.8289 17.328C53.933 17.4475 53.8456 17.5203 53.7448 17.4069H53.7445ZM54.6373 16.1742C54.5527 16.1169 54.62 15.9978 54.7211 16.0665C54.7987 16.1192 54.7215 16.2306 54.6377 16.1742H54.6373ZM54.8599 16.4658C54.664 16.2377 54.8918 16.0699 55.0488 16.2979C55.2088 16.5293 55.0112 16.6424 54.8602 16.4658H54.8599Z" fill="url(#paint23_radial_1730_63303)"/>
<path d="M21.3658 9.49268C21.1764 9.49271 20.9912 9.54892 20.8337 9.65418C20.6762 9.75945 20.5535 9.90905 20.481 10.0841C20.4086 10.2591 20.3897 10.4517 20.4266 10.6374C20.4636 10.8232 20.5549 10.9939 20.6888 11.1278C20.8228 11.2617 20.9935 11.3529 21.1793 11.3898C21.3651 11.4267 21.5576 11.4077 21.7326 11.3352C21.9076 11.2627 22.0572 11.1399 22.1624 10.9824C22.2676 10.8249 22.3237 10.6397 22.3237 10.4503C22.3237 10.3245 22.2989 10.1999 22.2508 10.0837C22.2026 9.96752 22.1321 9.86195 22.0431 9.77302C21.9542 9.6841 21.8486 9.61357 21.7323 9.56547C21.6161 9.51737 21.4916 9.49263 21.3658 9.49268ZM20.726 11.05C20.6219 10.9325 20.7068 10.8517 20.8112 10.9715C20.9156 11.0914 20.8268 11.1636 20.726 11.05ZM21.6189 9.8169C21.5346 9.76017 21.6015 9.64082 21.7027 9.71004C21.7807 9.76312 21.7027 9.87415 21.6189 9.8169ZM21.8416 10.109C21.6456 9.88091 21.8734 9.71368 22.0304 9.94093C22.19 10.1718 21.9925 10.2855 21.8416 10.109Z" fill="url(#paint24_radial_1730_63303)"/>
<path d="M50.0211 53.1084C49.8316 53.1084 49.6465 53.1646 49.489 53.2699C49.3315 53.3752 49.2088 53.5247 49.1363 53.6998C49.0639 53.8748 49.0449 54.0673 49.0819 54.2531C49.1189 54.4389 49.2101 54.6095 49.3441 54.7434C49.478 54.8774 49.6487 54.9686 49.8344 55.0055C50.0202 55.0425 50.2128 55.0235 50.3878 54.951C50.5628 54.8785 50.7124 54.7557 50.8176 54.5982C50.9228 54.4407 50.979 54.2556 50.979 54.0662C50.9789 53.8121 50.878 53.5685 50.6984 53.3889C50.5187 53.2093 50.2751 53.1084 50.0211 53.1084ZM49.3813 54.6657C49.2772 54.5486 49.3625 54.4674 49.4666 54.5873C49.5707 54.7071 49.4826 54.7798 49.3813 54.6657ZM50.2742 53.4331C50.1904 53.3757 50.2568 53.2564 50.3579 53.3252C50.436 53.3783 50.3586 53.4894 50.2742 53.4331ZM50.4974 53.7251C50.3021 53.4965 50.529 53.3294 50.6865 53.5567C50.8452 53.7881 50.648 53.9012 50.4974 53.7251Z" fill="url(#paint25_radial_1730_63303)"/>
<path d="M74.4356 35.9399C74.2462 35.9398 74.061 35.9959 73.9035 36.1011C73.746 36.2062 73.6231 36.3557 73.5506 36.5307C73.478 36.7057 73.459 36.8982 73.4959 37.084C73.5328 37.2698 73.6239 37.4405 73.7578 37.5745C73.8917 37.7084 74.0623 37.7997 74.2481 37.8367C74.4339 37.8737 74.6264 37.8547 74.8015 37.7823C74.9765 37.7098 75.126 37.5871 75.2313 37.4296C75.3365 37.2721 75.3927 37.0869 75.3927 36.8975C75.3927 36.6437 75.2918 36.4002 75.1124 36.2206C74.9329 36.0411 74.6895 35.9401 74.4356 35.9399ZM73.7957 37.4972C73.6916 37.3801 73.7768 37.2988 73.8809 37.4185C73.985 37.5382 73.8953 37.6109 73.7948 37.4972H73.7957ZM74.6884 36.2645C74.6046 36.2074 74.671 36.0883 74.7724 36.1568C74.8489 36.2097 74.7715 36.3209 74.6875 36.2645H74.6884ZM74.9113 36.5563C74.716 36.3282 74.9429 36.1604 75.0999 36.3882C75.259 36.6193 75.0614 36.7327 74.9104 36.5563H74.9113Z" fill="url(#paint26_radial_1730_63303)"/>
<path d="M25.3247 65.7828C24.9163 65.834 24.5321 66.0051 24.2209 66.2746C23.9097 66.5441 23.6854 66.8998 23.5763 67.2968C23.4673 67.6938 23.4784 68.1142 23.6082 68.5048C23.738 68.8955 23.9808 69.2389 24.3058 69.4916C24.6308 69.7443 25.0234 69.895 25.434 69.9246C25.8446 69.9542 26.2548 69.8614 26.6127 69.6579C26.9705 69.4544 27.26 69.1494 27.4445 68.7813C27.6291 68.4133 27.7003 67.9989 27.6493 67.5904C27.6154 67.319 27.5284 67.057 27.3932 66.8193C27.2581 66.5816 27.0774 66.3728 26.8615 66.205C26.6457 66.0371 26.3988 65.9134 26.1351 65.841C25.8715 65.7685 25.5961 65.7488 25.3247 65.7828ZM24.3644 69.3138C24.1078 69.0894 24.2702 68.8911 24.5271 69.1216C24.784 69.3522 24.6125 69.5317 24.3644 69.3138ZM25.9579 66.4139C25.7617 66.3138 25.8734 66.0395 26.1106 66.1602C26.292 66.2529 26.1547 66.5138 25.9579 66.4139ZM26.5169 66.9836C26.0339 66.545 26.4792 66.1224 26.8794 66.5703C27.2866 67.0255 26.8907 67.3236 26.5169 66.9836Z" fill="url(#paint27_radial_1730_63303)"/>
<path d="M69.3452 49.7082C68.4951 49.6182 68.3546 49.451 67.2478 49.3483C66.1411 49.2456 65.8061 49.4251 65.0086 48.7822C64.2112 48.1393 62.6922 46.4653 60.9679 43.3771C59.2435 40.2889 57.6217 39.9284 57.2096 39.2074C56.7974 38.4865 56.18 37.5605 54.7132 36.2991C53.2465 35.0378 52.9563 34.0787 52.5197 32.3035C52.083 30.5283 51.1754 29.479 49.9921 28.4492C48.8089 27.4195 46.8635 27.8832 46.8635 27.8832C45.9078 28.0856 45.2904 28.6069 45.2904 28.6069C45.2904 28.6069 45.7364 28.022 46.5395 27.6224C46.298 27.4479 45.891 27.1757 45.2165 26.7764C44.8065 26.5331 44.3809 26.3169 43.9425 26.1292C43.9425 26.1292 43.8824 26.1031 43.8529 26.0912C43.4523 25.9099 43.2752 25.725 43.2991 24.6659C43.3251 23.5333 43.8529 22.9669 44.0843 22.4007C44.3157 21.8345 44.599 21.938 44.8823 20.8567C45.1655 19.7755 45.4225 17.9743 45.4225 16.816C45.4225 15.6577 45.0491 14.8731 44.1231 13.8947C43.1971 12.9163 42.0605 12.3334 40.3055 12.3841C38.5504 12.332 37.4147 12.9168 36.489 13.8947C35.5634 14.8726 35.189 15.6577 35.189 16.816C35.189 17.9743 35.4464 19.7755 35.7294 20.8567C36.0123 21.938 36.2954 21.8346 36.5274 22.4007C36.7593 22.9667 37.2867 23.5333 37.3127 24.6659C37.3368 25.7241 37.16 25.9099 36.7588 26.0912C36.7293 26.1031 36.6691 26.1292 36.6691 26.1292C36.2306 26.3169 35.8049 26.5331 35.3946 26.7764C34.7206 27.1754 34.3133 27.4479 34.0722 27.6224C34.8747 28.0214 35.3212 28.6069 35.3212 28.6069C35.3212 28.6069 34.7036 28.0865 33.7483 27.8832C33.7483 27.8832 31.8036 27.4198 30.6195 28.4492C29.4354 29.4786 28.5288 30.5281 28.0913 32.3035C27.6538 34.0788 27.3639 35.038 25.897 36.2991C24.4301 37.5603 23.8118 38.487 23.4005 39.2074C22.9892 39.9279 21.367 40.2884 19.6427 43.3771C17.9184 46.4658 16.3987 48.1384 15.602 48.7822C14.8052 49.426 14.4693 49.2449 13.3631 49.3483C12.2568 49.4516 12.1141 49.6182 11.2654 49.7082C10.4168 49.7982 10.2614 49.7724 10.2867 50.1072C10.312 50.442 10.6475 50.7244 11.5867 50.6733C12.5259 50.6221 12.8867 50.6991 12.9766 50.789C12.98 50.7926 12.983 50.7967 12.9856 50.8009C13.8356 51.9178 15.2545 51.4327 15.2545 51.4327C14.8012 51.7991 13.6238 51.8664 12.8735 51.3502C12.7547 51.6104 12.5439 51.9643 12.1914 52.4236C11.3935 53.4662 10.8919 54.1735 10.5448 54.7402C10.1977 55.3069 10.6602 55.8081 11.1362 55.1392C11.6122 54.4703 12.0631 54.1866 12.3975 53.775C12.732 53.3633 12.758 53.2861 12.8735 53.376C12.9891 53.4659 12.8215 53.7238 12.3588 54.3544C11.8962 54.985 11.471 55.5769 11.111 56.1561C10.7511 56.7353 11.3685 57.0693 11.7154 56.5934C12.0624 56.1176 12.5903 55.5508 12.9766 54.972C13.3629 54.3931 13.6072 54.174 13.6842 54.2125C13.7612 54.251 13.6589 54.4959 13.3372 55.1905C13.0156 55.8851 12.7325 56.3617 12.5393 56.9277C12.346 57.4938 12.9001 57.6997 13.26 57.0821C13.62 56.4645 14.058 55.5902 14.2766 55.1522C14.4952 54.7142 14.6501 54.3797 14.7531 54.3927C14.8562 54.4057 14.6888 54.8689 14.4957 55.6284C14.3026 56.3879 14.1226 56.9922 14.4057 57.0439C14.6888 57.0956 14.7653 57.0821 15.0618 56.2073C15.3582 55.3324 15.4862 54.9329 15.6278 54.5213C15.7694 54.1096 16.0009 53.5949 16.3358 53.2344C16.6706 52.874 17.0179 52.4753 17.2623 51.9093C17.3653 51.6718 17.4222 51.498 17.5242 51.3253C16.4228 51.1435 15.9786 50.1978 15.9786 50.1978C15.9786 50.1978 16.5913 50.9702 17.6509 51.1439C17.8002 50.9588 18.0325 50.7522 18.4461 50.4554C19.3983 49.7729 21.4703 48.5766 23.4009 46.5303C25.3315 44.484 26.3636 42.4672 27.107 41.888C27.8503 41.3087 28.7285 40.8168 29.7709 39.9865C30.3496 39.5258 30.9699 38.8747 31.4073 38.3862C31.499 36.7476 31.6241 34.852 31.0256 34.0414C30.4726 33.2918 30.7271 32.5925 30.769 32.4907C30.7385 32.5701 30.6193 33.0166 31.3148 33.8868C31.7537 34.4348 31.8498 35.0019 31.886 35.7256C32.0292 37.188 33.4579 37.4777 34.9045 37.574C36.3511 37.6703 37.4336 37.574 37.4336 37.574C37.4336 37.574 36.005 37.9792 34.2871 37.8831C33.0913 37.8158 32.3069 37.4772 31.941 37.1145C31.9525 37.3032 31.9677 37.5006 31.9901 37.7095C31.9901 37.7095 32.0862 38.4034 32.6075 39.8323C33.1288 41.2612 32.9359 42.6122 32.6462 44.9672C32.6228 45.162 32.5975 45.3505 32.573 45.5349C33.5953 43.9485 34.7664 43.4442 34.7664 43.4442C34.7664 43.4442 32.6308 45.1077 32.0949 49.0761C32.0746 49.2922 32.0564 49.5098 32.0429 49.7353C32.0423 50.0947 32.0631 50.4539 32.1051 50.8108C32.3553 52.9007 33.3673 54.7503 34.8662 56.2106C36.3723 57.6782 38.234 58.6897 39.9951 59.8084C40.0487 59.8431 40.1022 59.8778 40.1559 59.9125C39.2592 59.4853 37.3989 58.8196 35.5242 57.5925C34.6863 58.4945 33.9839 59.512 33.5519 60.6883C33.2846 61.4169 33.1538 62.1712 33.0884 62.9412C33.0147 63.8074 33.1463 64.6789 33.3302 65.5225C33.4992 66.2987 33.8621 67.0947 34.3038 67.7515C34.8906 68.625 35.6081 69.3735 36.4417 70.0159C37.6267 70.9299 38.9617 71.6033 40.2848 72.2936C40.2656 72.2851 39.4452 71.9375 37.7851 71.4387C37.3212 71.8724 36.8769 72.3234 36.4713 72.8151C35.8224 73.6006 35.277 74.4782 34.986 75.4607C34.7258 76.3375 34.7116 77.2074 34.8164 78.109C35.0303 77.0936 35.3486 76.1506 36.0078 75.3279C36.7598 74.3911 37.7502 73.7 38.785 73.1063C39.278 72.8237 39.7812 72.5578 40.2866 72.2946C40.7919 72.5578 41.2957 72.8237 41.788 73.1063C42.8235 73.7 43.814 74.39 44.565 75.3279C45.2242 76.1506 45.5425 77.0936 45.7567 78.109C45.8608 77.2069 45.8476 76.3375 45.5873 75.4607C45.296 74.4782 44.7508 73.6006 44.1016 72.8151C42.9924 71.4718 41.6022 70.414 40.2879 69.2807C41.0339 69.7943 41.898 70.0912 42.8066 70.9174C43.2646 70.6412 43.707 70.3401 44.132 70.0154C44.9647 69.3735 45.6827 68.6244 46.269 67.751C46.7109 67.0942 47.0738 66.2981 47.2429 65.522C47.4264 64.6784 47.5585 63.8069 47.4844 62.9407C47.4193 62.1706 47.2877 61.4155 47.021 60.6878C46.2943 58.7083 44.8045 57.1784 43.1855 55.887C42.3266 55.2008 41.4209 54.577 40.541 53.9183C40.4573 53.8553 40.3728 53.792 40.2885 53.7275C41.2155 54.3617 43.3121 55.0535 45.2296 56.6502C45.3923 56.5074 45.5519 56.362 45.7075 56.2106C47.2063 54.7503 48.2185 52.9007 48.4685 50.8108C48.5105 50.4539 48.5313 50.0947 48.5306 49.7353C48.5306 49.7353 48.5372 49.1344 48.4924 48.8488C48.4853 48.7839 48.478 48.7191 48.4699 48.6544C47.8468 44.9902 45.8634 43.4447 45.8634 43.4447C45.8634 43.4447 47.0146 43.9416 48.0319 45.4957C48.0088 45.3238 47.9857 45.1488 47.964 44.9677C47.6742 42.6131 47.4811 41.2617 48.0024 39.8328C48.5237 38.4039 48.6196 37.71 48.6196 37.71C48.6413 37.5018 48.6574 37.3037 48.6689 37.115C48.303 37.4777 47.5194 37.8163 46.3228 37.8837C44.6054 37.9798 43.1765 37.5745 43.1765 37.5745C43.1765 37.5745 44.257 37.671 45.7052 37.5745C47.1534 37.4781 48.5816 37.1885 48.7245 35.7261C48.7606 35.0028 48.8569 34.4357 49.2958 33.8873C49.9921 33.0172 49.8719 32.5706 49.8416 32.4912C49.8837 32.593 50.1387 33.2923 49.5848 34.0419C48.987 34.8525 49.1114 36.7481 49.2032 38.3867C49.6396 38.8752 50.26 39.5263 50.839 39.987C51.8816 40.8173 52.7596 41.3096 53.5026 41.8885C54.2456 42.4674 55.2784 44.4849 57.2087 46.5308C59.1389 48.5768 61.2113 49.7734 62.1635 50.4559C62.5779 50.7527 62.809 50.959 62.9587 51.1444C64.0179 50.9709 64.631 50.1983 64.631 50.1983C64.631 50.1983 64.1871 51.1444 63.0853 51.3259C63.1873 51.4993 63.2449 51.6728 63.3471 51.9098C63.592 52.4758 63.9392 52.875 64.274 53.235C64.6088 53.5949 64.84 54.1101 64.9817 54.5218C65.1235 54.9335 65.2513 55.3324 65.548 56.2078C65.8446 57.0832 65.9209 57.0956 66.2044 57.0445C66.4879 56.9933 66.3071 56.388 66.114 55.6289C65.9209 54.8698 65.7537 54.4061 65.8564 54.3932C65.9591 54.3804 66.114 54.7149 66.3329 55.1527C66.5519 55.5906 66.9894 56.4654 67.3497 57.0826C67.71 57.6999 68.2634 57.4946 68.0703 56.9282C67.8772 56.3618 67.5938 55.8862 67.2723 55.1911C66.9509 54.4959 66.8478 54.2513 66.9254 54.213C67.0029 54.1747 67.2472 54.3932 67.6333 54.9725C68.0195 55.5517 68.5461 56.1174 68.894 56.594C69.2418 57.0705 69.8592 56.7355 69.4992 56.1566C69.1392 55.5777 68.7134 54.9853 68.2502 54.3549C67.787 53.7245 67.6198 53.4671 67.7355 53.3765C67.8512 53.286 67.877 53.3638 68.2117 53.7755C68.5463 54.1872 68.9961 54.4706 69.4727 55.1397C69.9492 55.8088 70.412 55.3071 70.0649 54.7407C69.7178 54.1743 69.2149 53.4667 68.4169 52.4241C68.0654 51.9648 67.8541 51.6107 67.7351 51.3507C66.9847 51.8661 65.8075 51.7996 65.3544 51.4333C65.3544 51.4333 66.7727 51.919 67.6231 50.8015C67.6258 50.7971 67.629 50.7931 67.6326 50.7895C67.7221 50.6996 68.0836 50.6224 69.022 50.6738C69.9603 50.7251 70.296 50.4424 70.3218 50.1077C70.3477 49.7731 70.1947 49.7986 69.3452 49.7082ZM23.4132 40.5073C23.4016 39.4649 24.1147 39.214 24.1147 39.214C24.1147 39.214 23.7228 39.9445 23.7735 40.6743C23.8415 41.6505 24.2752 41.9615 24.2752 41.9615C24.2752 41.9615 23.426 41.6396 23.4132 40.5073ZM28.6313 38.326C27.3575 39.2331 26.3734 39.8314 26.3734 39.8314C26.3734 39.8314 26.5853 39.6002 28.2261 38.2682C29.8668 36.9363 29.8344 36.1708 29.8344 36.1708C29.957 36.5628 29.9051 37.4189 28.6313 38.326ZM33.4019 36.5635C32.7473 36.4036 32.76 35.7364 33.5134 36.0526C34.0078 36.2604 34.0564 36.7229 33.4019 36.5635ZM40.3051 23.9361C42.4337 23.9361 43.2733 23.1544 43.2733 23.1544C43.2733 23.1544 42.6356 24.2447 40.3051 24.2447C37.9747 24.2447 37.337 23.1544 37.337 23.1544C37.337 23.1544 38.1769 23.9361 40.3051 23.9361ZM40.6868 36.5696C39.1602 33.948 41.5274 31.3633 41.5274 31.3633C41.5274 31.3633 40.926 32.205 40.5522 33.7706C40.1783 35.3362 40.6873 36.5692 40.6873 36.5692L40.6868 36.5696ZM39.4407 29.5046C39.4407 29.5046 39.4407 29.7942 40.3051 29.7942C41.1695 29.7942 41.1689 29.5046 41.1689 29.5046C41.1689 29.5046 41.2748 30.0842 40.3051 30.0842C39.3354 30.0842 39.4407 29.5046 39.4407 29.5046ZM39.7987 34.118C39.7987 34.118 39.7018 33.5393 39.3736 32.6704C39.0453 31.8015 38.5247 31.3631 38.5247 31.3631C40.0692 32.2558 39.7987 34.1179 39.7987 34.1179V34.118ZM36.2658 28.214C36.2658 28.214 37.2893 28.2397 38.1516 28.6553C38.9368 29.0342 38.8717 29.5624 38.8717 29.5624C38.8717 29.5624 38.8819 29.2481 38.0303 28.8324C37.1788 28.4168 36.2658 28.214 36.2658 28.214ZM34.9581 60.2761C35.1909 59.8008 35.7073 59.8128 35.6957 60.0898C35.6957 60.0898 35.4426 59.9644 35.1288 60.3485C34.8591 60.6798 34.9611 60.9615 34.9611 60.9615C34.9611 60.9615 34.7492 60.7024 34.9581 60.2761ZM34.1011 61.7758C34.3234 61.237 34.8663 61.2261 34.8663 61.533C34.8663 61.533 34.5954 61.4061 34.2836 61.8469C34.0154 62.2286 34.1355 62.5355 34.1355 62.5355C34.1355 62.5355 33.9013 62.2584 34.1011 61.7758ZM33.8043 63.5593C33.8643 62.9752 34.407 62.7894 34.501 63.0829C34.501 63.0829 34.1887 63.0483 34.0101 63.5687C33.8553 64.0176 34.0704 64.2721 34.0704 64.2721C34.0704 64.2721 33.7499 64.0841 33.8043 63.5593ZM34.5343 66.3734C34.5343 66.3734 34.1796 66.2593 34.1169 65.7364C34.0467 65.1527 34.535 64.8517 34.6911 65.1175C34.6911 65.1175 34.3799 65.1534 34.3202 65.7005C34.2684 66.1722 34.5343 66.3734 34.5343 66.3734ZM35.29 67.8827C35.0457 67.3645 35.4062 66.9369 35.6314 67.1341C35.6314 67.1341 35.3538 67.2628 35.4666 67.7869C35.5634 68.239 35.8708 68.3439 35.8708 68.3439C35.8708 68.3439 35.5077 68.3472 35.29 67.883V67.8827ZM43.3021 63.6618C43.431 64.4865 43.3664 65.3282 43.0231 66.0974C42.6037 67.0342 41.887 67.8134 41.1463 68.5087C40.8665 68.7719 40.5789 69.0264 40.2874 69.2777C39.9962 69.0264 39.7084 68.7715 39.4286 68.5087C39.2825 68.3713 39.1375 68.2296 38.9949 68.0851C39.5511 68.1469 40.102 68.2502 40.6429 68.3941C41.7219 68.1566 41.4488 67.3445 40.6429 67.1948C39.9285 67.3606 39.2014 67.4663 38.4694 67.5109V67.51C36.2271 67.7664 35.6673 67.2875 35.6673 67.2875C35.6673 67.2875 36.306 67.4209 38.1461 67.0989C37.9915 66.8913 37.8511 66.6735 37.7259 66.447C39.0773 66.2964 40.3357 66.4107 41.6423 66.7554C42.7209 66.5181 42.4484 65.7061 41.6423 65.5562C40.2912 65.8669 38.906 65.9854 37.498 65.823C35.2648 65.7506 34.6988 65.2524 34.6988 65.2524C34.6988 65.2524 35.398 65.4779 37.3135 65.3687C37.2835 65.2336 37.2604 65.0974 37.2442 64.9601C39.0617 64.5695 40.6595 64.6329 42.3369 65.0762C43.4162 64.8385 43.143 64.0263 42.3369 63.8766C40.6798 64.2582 38.9714 64.3509 37.2332 63.9887V63.9876C34.9711 63.7871 34.5242 63.2309 34.5242 63.2309C34.5242 63.2309 35.3231 63.6112 37.2912 63.5737C37.3153 63.4429 37.3465 63.3136 37.3847 63.1862C38.8672 62.9751 40.2265 63.0777 41.6426 63.4516C42.7213 63.2143 42.4487 62.4022 41.6426 62.2527C40.3393 62.5519 39.0042 62.6735 37.6477 62.5358C35.4308 62.4067 34.8077 61.678 34.8077 61.678C34.8077 61.678 35.9233 62.2086 37.8766 62.1536C37.9961 61.9743 38.1273 61.8031 38.2694 61.641C39.0639 61.6721 39.8447 61.7972 40.6431 62.0084C41.7221 61.7708 41.449 60.9586 40.6431 60.809C40.0367 60.9496 39.4214 61.0482 38.8014 61.104C36.8696 61.2179 35.7953 60.2055 35.7953 60.2055C35.7953 60.2055 37.2535 60.9065 38.756 60.7433C38.9884 60.7181 39.1604 60.7058 39.286 60.703C39.6102 60.4508 39.9492 60.2158 40.2879 59.9951C41.6487 60.8809 43.0375 61.9717 43.3021 63.6618ZM46.4362 52.5272C46.2895 53.0332 45.9217 53.0882 45.9217 53.0882C45.9217 53.0882 46.2166 52.9331 46.2426 52.4594C46.2721 51.9094 45.9706 51.8237 45.9706 51.8237C46.1674 51.588 46.6012 51.9634 46.4362 52.5272ZM46.8939 51.0721C46.8939 51.0721 47.1131 50.8209 46.9648 50.3697C46.7943 49.8461 46.4824 49.8751 46.4824 49.8751C46.5809 49.583 47.1209 49.7773 47.1714 50.3631C47.2171 50.8882 46.8939 51.0721 46.8939 51.0721ZM47.2113 48.3908C47.3154 48.908 47.0141 49.1262 47.0141 49.1262C47.0141 49.1262 47.2035 48.8528 47.0073 48.4205C46.7804 47.9188 46.4732 47.9816 46.4732 47.9816C46.5389 47.681 47.0963 47.8147 47.2113 48.3908ZM46.5905 46.6573C46.8016 47.1399 46.5542 47.4175 46.5542 47.4175C46.5542 47.4175 46.6814 47.1099 46.3981 46.729C46.0685 46.2878 45.7819 46.415 45.7819 46.415C45.7809 46.1074 46.3545 46.1185 46.5905 46.6573ZM45.8445 46.5596C45.8445 46.5596 44.7617 47.2882 42.4184 47.4175C41.3602 47.4548 40.3429 47.3262 39.2958 47.0497C38.2165 47.287 38.4897 48.0987 39.2958 48.2489C40.3887 47.9978 41.503 47.8718 42.6347 47.9193C42.7139 48.1328 42.7791 48.3512 42.8299 48.5732C44.8888 48.6091 46.4071 48.1426 46.4071 48.1426C46.4071 48.1426 45.1787 48.7879 42.9109 48.9879C41.4084 49.2091 40.0338 49.1078 38.6013 48.7298C37.5224 48.967 37.7958 49.7792 38.6013 49.9294C40.0237 49.6024 41.4821 49.487 42.9657 49.6895C42.9657 49.7042 42.9671 49.7188 42.9671 49.7341C42.966 49.9039 42.9533 50.0735 42.9289 50.2416C45.4433 50.4472 46.5324 49.9958 46.5324 49.9958C46.5324 49.9958 45.4915 50.6415 42.8327 50.6982C41.6232 50.7891 40.4791 50.6665 39.2958 50.3535C38.2165 50.591 38.4897 51.4034 39.2958 51.5529C40.3906 51.3016 41.5066 51.1758 42.6396 51.2233C42.5621 51.3926 42.4719 51.5558 42.3698 51.7115C44.6423 52.1995 45.8452 51.953 45.8452 51.953C45.8452 51.953 44.6583 52.4944 42.0619 52.1213C41.4653 52.0606 40.8745 51.9523 40.2951 51.7975C39.2166 52.0345 39.4889 52.8467 40.2951 52.9969C40.6705 52.9106 41.0483 52.8399 41.4285 52.785C41.0681 53.1205 40.6791 53.4301 40.2886 53.7252C39.5774 53.1874 38.8661 52.6065 38.3329 51.8917C37.8529 51.2481 37.6128 50.5111 37.6104 49.7341C37.6104 46.4975 40.1816 44.8318 40.1816 44.8318C42.3887 43.3464 43.7488 43.2633 43.7488 43.2633C43.7488 43.2633 41.83 44.0613 40.6594 45.1987C40.6605 45.2001 40.6617 45.2014 40.6632 45.2024C40.7718 45.2024 40.9347 45.2138 41.1701 45.2442C42.6677 45.438 44.2 44.9359 44.2 44.9359C44.2 44.9359 43.0136 45.7894 41.0885 45.5927C40.8252 45.5417 40.5617 45.4822 40.2951 45.4119C39.2166 45.6491 39.4889 46.4615 40.2951 46.6113C40.7781 46.4998 41.2668 46.4146 41.759 46.3562C41.9236 46.5728 42.0748 46.7994 42.2116 47.0346C44.3159 47.0967 45.844 46.5596 45.844 46.5596H45.8445ZM45.1125 45.0862C45.3241 45.5691 45.0762 45.8467 45.0762 45.8467C45.0762 45.8467 45.2034 45.5391 44.9201 45.1585C44.5905 44.7173 44.3039 44.8447 44.3039 44.8447C44.3027 44.5368 44.8769 44.5479 45.1119 45.0862H45.1125ZM44.8304 41.7034C44.8304 41.7034 43.6605 39.8765 40.3056 39.8765C36.9508 39.8765 35.7804 41.7034 35.7804 41.7034C35.7804 41.7034 36.5957 39.4644 40.3056 39.4644C44.0156 39.4644 44.8299 41.7039 44.8299 41.7039L44.8304 41.7034ZM42.5811 28.8316C41.7288 29.2479 41.7387 29.5615 41.7387 29.5615C41.7387 29.5615 41.6737 29.0333 42.459 28.6544C43.3208 28.2381 44.3452 28.2131 44.3452 28.2131C44.3452 28.2131 43.4315 28.4168 42.5806 28.8324L42.5811 28.8316ZM47.2674 36.5626C46.6132 36.7221 46.6611 36.2596 47.1562 36.0518C47.9097 35.7364 47.9214 36.4036 47.2668 36.5635L47.2674 36.5626ZM51.9793 38.3251C50.7053 37.418 50.6541 36.5619 50.7762 36.1699C50.7762 36.1699 50.7436 36.9349 52.384 38.2674C54.0244 39.5998 54.2381 39.8306 54.2381 39.8306C54.2381 39.8306 53.2528 39.2331 51.9788 38.326L51.9793 38.3251ZM56.3354 41.9607C56.3354 41.9607 56.77 41.6496 56.8369 40.6735C56.8876 39.9437 56.4966 39.2132 56.4966 39.2132C56.4966 39.2132 57.2096 39.464 57.1972 40.5064C57.1844 41.6396 56.3349 41.9615 56.3349 41.9615L56.3354 41.9607Z" fill="url(#paint28_linear_1730_63303)"/>
<path d="M46.3428 28.9774C46.3428 28.9774 47.9334 27.9044 49.5246 28.9774C51.1159 30.0503 51.2632 31.3083 51.2632 31.3083C51.2632 31.3083 50.5244 29.2919 46.3428 28.9774Z" fill="url(#paint29_linear_1730_63303)"/>
<path d="M41.3506 35.1906C41.3506 35.1906 41.3875 32.6752 43.4777 31.5459C45.5679 30.4166 47.086 31.2318 47.086 31.2318C47.086 31.2318 42.0997 32.36 41.3506 35.1906Z" fill="url(#paint30_linear_1730_63303)"/>
<path d="M52.9863 35.1924C52.9863 35.1924 54.6475 36.2924 55.6316 37.782C56.6158 39.2716 56.2041 40.3161 56.2041 40.3161C56.2041 40.3161 55.1508 37.782 52.9863 35.1924Z" fill="url(#paint31_linear_1730_63303)"/>
<path d="M57.2188 41.8129C57.2188 41.8129 58.5507 40.5365 60.1413 43.3669C61.7319 46.1973 63.4337 47.5289 63.4337 47.5289C63.4337 47.5289 61.7874 47.2883 59.9938 44.7533C58.2003 42.2183 57.2188 41.8129 57.2188 41.8129Z" fill="url(#paint32_linear_1730_63303)"/>
<path d="M65.0176 49.8023C65.0176 49.8023 65.6003 49.4694 66.9183 49.6221C68.2364 49.7747 69 49.8719 69 49.8719C69 49.8719 67.3203 50.4964 65.0176 49.8023Z" fill="url(#paint33_linear_1730_63303)"/>
<path d="M43.2637 26.4232C43.2637 26.4232 43.9576 26.3673 44.6515 26.7559C45.3454 27.1445 45.4283 27.7137 45.4283 27.7137C45.4283 27.7137 44.0264 26.7976 43.2637 26.4232Z" fill="url(#paint34_linear_1730_63303)"/>
<path d="M34.2606 28.9774C34.2606 28.9774 32.6693 27.9044 31.0788 28.9774C29.4882 30.0503 29.3398 31.3083 29.3398 31.3083C29.3398 31.3083 30.0795 29.2919 34.2606 28.9774Z" fill="url(#paint35_linear_1730_63303)"/>
<path d="M39.2565 35.1906C39.2565 35.1906 39.2196 32.6752 37.1292 31.5459C35.0388 30.4166 33.5225 31.2318 33.5225 31.2318C33.5225 31.2318 38.0684 32.3684 39.2565 35.1906Z" fill="url(#paint36_linear_1730_63303)"/>
<path d="M27.6189 35.1924C27.6189 35.1924 25.9577 36.2924 24.9741 37.782C23.9905 39.2716 24.4016 40.3161 24.4016 40.3161C24.4016 40.3161 25.455 37.782 27.6189 35.1924Z" fill="url(#paint37_linear_1730_63303)"/>
<path d="M23.3836 41.8129C23.3836 41.8129 22.0513 40.5365 20.4603 43.3669C18.8694 46.1973 17.168 47.5289 17.168 47.5289C17.168 47.5289 18.8141 47.2883 20.6087 44.7533C22.4033 42.2183 23.3836 41.8129 23.3836 41.8129Z" fill="url(#paint38_linear_1730_63303)"/>
<path d="M15.5876 49.8023C15.5876 49.8023 15.0047 49.4694 13.6863 49.6221C12.3679 49.7747 11.6055 49.8719 11.6055 49.8719C11.6055 49.8719 13.2849 50.4964 15.5876 49.8023Z" fill="url(#paint39_linear_1730_63303)"/>
<path d="M37.3414 26.4232C37.3414 26.4232 36.6475 26.3673 35.9536 26.7559C35.2597 27.1445 35.1768 27.7137 35.1768 27.7137C35.1768 27.7137 36.5783 26.7976 37.3414 26.4232Z" fill="url(#paint40_linear_1730_63303)"/>
<path d="M36.3916 14.7137C36.3916 14.7137 37.9118 12.6603 41.353 13.0483C44.7942 13.4364 44.7101 16.9057 44.7101 16.9057C44.7101 16.9057 42.8613 12.9654 36.3916 14.7137Z" fill="url(#paint41_linear_1730_63303)"/>
<path d="M35.3716 44.124C35.3716 44.124 32.6066 47.7254 33.5215 51.7449C34.4364 55.7645 37.8284 56.8255 37.8284 56.8255C37.8284 56.8255 31.5189 53.4138 35.3716 44.124Z" fill="url(#paint42_linear_1730_63303)"/>
<path d="M41.2031 56.0767C41.2031 56.0767 45.4049 58.0342 46.242 62.0735C47.0792 66.1129 44.5344 67.8207 44.5344 67.8207C44.5344 67.8207 48.6157 62.6571 41.2031 56.0767Z" fill="url(#paint43_linear_1730_63303)"/>
<path d="M37.8975 69.666C37.8975 69.666 39.3413 71.0819 41.3958 72.0811C43.4502 73.0803 44.1722 73.9689 44.1722 73.9689C44.1722 73.9689 42.4232 71.5815 37.8975 69.666Z" fill="url(#paint44_linear_1730_63303)"/>
</g>
<defs>
<radialGradient id="paint0_radial_1730_63303" cx="0" cy="0" r="1" gradientUnits="userSpaceOnUse" gradientTransform="translate(66.0574 14.0925) scale(1.15864)">
<stop stop-color="#658B9E"/>
<stop offset="0.4" stop-color="#85A7B8"/>
<stop offset="0.77" stop-color="#9CBBCA"/>
<stop offset="1" stop-color="#A4C2D1"/>
</radialGradient>
<radialGradient id="paint1_radial_1730_63303" cx="0" cy="0" r="1" gradientUnits="userSpaceOnUse" gradientTransform="translate(31.0634 14.3752) scale(1.15864)">
<stop stop-color="#658B9E"/>
<stop offset="0.4" stop-color="#85A7B8"/>
<stop offset="0.77" stop-color="#9CBBCA"/>
<stop offset="1" stop-color="#A4C2D1"/>
</radialGradient>
<radialGradient id="paint2_radial_1730_63303" cx="0" cy="0" r="1" gradientUnits="userSpaceOnUse" gradientTransform="translate(9.5566 42.4254) scale(1.15847 1.15847)">
<stop stop-color="#658B9E"/>
<stop offset="0.4" stop-color="#85A7B8"/>
<stop offset="0.77" stop-color="#9CBBCA"/>
<stop offset="1" stop-color="#A4C2D1"/>
</radialGradient>
<radialGradient id="paint3_radial_1730_63303" cx="0" cy="0" r="1" gradientUnits="userSpaceOnUse" gradientTransform="translate(60.3698 28.3745) scale(0.778902)">
<stop stop-color="#658B9E"/>
<stop offset="0.4" stop-color="#85A7B8"/>
<stop offset="0.77" stop-color="#9CBBCA"/>
<stop offset="1" stop-color="#A4C2D1"/>
</radialGradient>
<radialGradient id="paint4_radial_1730_63303" cx="0" cy="0" r="1" gradientUnits="userSpaceOnUse" gradientTransform="translate(72.1498 46.3734) scale(0.778903)">
<stop stop-color="#658B9E"/>
<stop offset="0.4" stop-color="#85A7B8"/>
<stop offset="0.77" stop-color="#9CBBCA"/>
<stop offset="1" stop-color="#A4C2D1"/>
</radialGradient>
<radialGradient id="paint5_radial_1730_63303" cx="0" cy="0" r="1" gradientUnits="userSpaceOnUse" gradientTransform="translate(50.725 43.2011) scale(0.648622)">
<stop stop-color="#658B9E"/>
<stop offset="0.4" stop-color="#85A7B8"/>
<stop offset="0.77" stop-color="#9CBBCA"/>
<stop offset="1" stop-color="#A4C2D1"/>
</radialGradient>
<radialGradient id="paint6_radial_1730_63303" cx="0" cy="0" r="1" gradientUnits="userSpaceOnUse" gradientTransform="translate(49.6293 5.87486) scale(0.778903)">
<stop stop-color="#658B9E"/>
<stop offset="0.4" stop-color="#85A7B8"/>
<stop offset="0.77" stop-color="#9CBBCA"/>
<stop offset="1" stop-color="#A4C2D1"/>
</radialGradient>
<radialGradient id="paint7_radial_1730_63303" cx="0" cy="0" r="1" gradientUnits="userSpaceOnUse" gradientTransform="translate(27.473 6.9517) scale(0.779076)">
<stop stop-color="#658B9E"/>
<stop offset="0.4" stop-color="#85A7B8"/>
<stop offset="0.77" stop-color="#9CBBCA"/>
<stop offset="1" stop-color="#A4C2D1"/>
</radialGradient>
<radialGradient id="paint8_radial_1730_63303" cx="0" cy="0" r="1" gradientUnits="userSpaceOnUse" gradientTransform="translate(27.4727 23.5267) scale(0.779076)">
<stop stop-color="#658B9E"/>
<stop offset="0.4" stop-color="#85A7B8"/>
<stop offset="0.77" stop-color="#9CBBCA"/>
<stop offset="1" stop-color="#A4C2D1"/>
</radialGradient>
<radialGradient id="paint9_radial_1730_63303" cx="0" cy="0" r="1" gradientUnits="userSpaceOnUse" gradientTransform="translate(71.72 24.7528) scale(3.44504)">
<stop stop-color="#005AA9"/>
<stop offset="0.24" stop-color="#0076C1"/>
<stop offset="0.55" stop-color="#0094D9"/>
<stop offset="0.81" stop-color="#00A6E9"/>
<stop offset="1" stop-color="#00ADEE"/>
</radialGradient>
<radialGradient id="paint10_radial_1730_63303" cx="0" cy="0" r="1" gradientUnits="userSpaceOnUse" gradientTransform="translate(35.0883 4.57555) scale(2.99712)">
<stop stop-color="#005AA9"/>
<stop offset="0.24" stop-color="#0076C1"/>
<stop offset="0.55" stop-color="#0094D9"/>
<stop offset="0.81" stop-color="#00A6E9"/>
<stop offset="1" stop-color="#00ADEE"/>
</radialGradient>
<radialGradient id="paint11_radial_1730_63303" cx="0" cy="0" r="1" gradientUnits="userSpaceOnUse" gradientTransform="translate(57.601 9.11327) scale(1.61644 1.61644)">
<stop stop-color="#129D88"/>
<stop offset="0.24" stop-color="#25BBA4"/>
<stop offset="0.55" stop-color="#00D2D3"/>
<stop offset="0.81" stop-color="#63C4D9"/>
<stop offset="1" stop-color="#25BBA4"/>
</radialGradient>
<radialGradient id="paint12_radial_1730_63303" cx="0" cy="0" r="1" gradientUnits="userSpaceOnUse" gradientTransform="translate(67.3646 32.499) scale(1.61644)">
<stop stop-color="#129D88"/>
<stop offset="0.24" stop-color="#25BBA4"/>
<stop offset="0.55" stop-color="#00D2D3"/>
<stop offset="0.81" stop-color="#63C4D9"/>
<stop offset="1" stop-color="#25BBA4"/>
</radialGradient>
<radialGradient id="paint13_radial_1730_63303" cx="0" cy="0" r="1" gradientUnits="userSpaceOnUse" gradientTransform="translate(21.768 16.8921) scale(1.61644)">
<stop stop-color="#005AA9"/>
<stop offset="0.24" stop-color="#0076C1"/>
<stop offset="0.55" stop-color="#0094D9"/>
<stop offset="0.81" stop-color="#00A6E9"/>
<stop offset="1" stop-color="#00ADEE"/>
</radialGradient>
<radialGradient id="paint14_radial_1730_63303" cx="0" cy="0" r="1" gradientUnits="userSpaceOnUse" gradientTransform="translate(10.9312 21.1416) scale(1.61644 1.61644)">
<stop stop-color="#005AA9"/>
<stop offset="0.24" stop-color="#0076C1"/>
<stop offset="0.55" stop-color="#0094D9"/>
<stop offset="0.81" stop-color="#00A6E9"/>
<stop offset="1" stop-color="#00ADEE"/>
</radialGradient>
<radialGradient id="paint15_radial_1730_63303" cx="0" cy="0" r="1" gradientUnits="userSpaceOnUse" gradientTransform="translate(22.6977 35.2734) scale(1.61644)">
<stop stop-color="#129D88"/>
<stop offset="0.24" stop-color="#25BBA4"/>
<stop offset="0.55" stop-color="#00D2D3"/>
<stop offset="0.81" stop-color="#63C4D9"/>
<stop offset="1" stop-color="#25BBA4"/>
</radialGradient>
<radialGradient id="paint16_radial_1730_63303" cx="0" cy="0" r="1" gradientUnits="userSpaceOnUse" gradientTransform="translate(29.5304 54.5953) rotate(-7.12001) scale(1.61644 1.61644)">
<stop stop-color="#005AA9"/>
<stop offset="0.24" stop-color="#0076C1"/>
<stop offset="0.55" stop-color="#0094D9"/>
<stop offset="0.81" stop-color="#00A6E9"/>
<stop offset="1" stop-color="#00ADEE"/>
</radialGradient>
<radialGradient id="paint17_radial_1730_63303" cx="0" cy="0" r="1" gradientUnits="userSpaceOnUse" gradientTransform="translate(57.4961 56.4914) scale(1.61644)">
<stop stop-color="#005AA9"/>
<stop offset="0.24" stop-color="#0076C1"/>
<stop offset="0.55" stop-color="#0094D9"/>
<stop offset="0.81" stop-color="#00A6E9"/>
<stop offset="1" stop-color="#00ADEE"/>
</radialGradient>
<radialGradient id="paint18_radial_1730_63303" cx="0" cy="0" r="1" gradientUnits="userSpaceOnUse" gradientTransform="translate(56.8395 67.2611) scale(1.19941 1.1994)">
<stop stop-color="#005AA9"/>
<stop offset="0.24" stop-color="#0076C1"/>
<stop offset="0.55" stop-color="#0094D9"/>
<stop offset="0.81" stop-color="#00A6E9"/>
<stop offset="1" stop-color="#00ADEE"/>
</radialGradient>
<radialGradient id="paint19_radial_1730_63303" cx="0" cy="0" r="1" gradientUnits="userSpaceOnUse" gradientTransform="translate(57.5919 32.5741) scale(1.19923 1.19923)">
<stop stop-color="#005AA9"/>
<stop offset="0.24" stop-color="#0076C1"/>
<stop offset="0.55" stop-color="#0094D9"/>
<stop offset="0.81" stop-color="#00A6E9"/>
<stop offset="1" stop-color="#00ADEE"/>
</radialGradient>
<radialGradient id="paint20_radial_1730_63303" cx="0" cy="0" r="1" gradientUnits="userSpaceOnUse" gradientTransform="translate(13.9896 34.1046) scale(1.19941)">
<stop stop-color="#005AA9"/>
<stop offset="0.24" stop-color="#0076C1"/>
<stop offset="0.55" stop-color="#0094D9"/>
<stop offset="0.81" stop-color="#00A6E9"/>
<stop offset="1" stop-color="#00ADEE"/>
</radialGradient>
<radialGradient id="paint21_radial_1730_63303" cx="0" cy="0" r="1" gradientUnits="userSpaceOnUse" gradientTransform="translate(7.18279 47.1816) scale(1.19923)">
<stop stop-color="#005AA9"/>
<stop offset="0.24" stop-color="#0076C1"/>
<stop offset="0.55" stop-color="#0094D9"/>
<stop offset="0.81" stop-color="#00A6E9"/>
<stop offset="1" stop-color="#00ADEE"/>
</radialGradient>
<radialGradient id="paint22_radial_1730_63303" cx="0" cy="0" r="1" gradientUnits="userSpaceOnUse" gradientTransform="translate(23.0435 57.6137) rotate(-7.11999) scale(1.19923)">
<stop stop-color="#005AA9"/>
<stop offset="0.24" stop-color="#0076C1"/>
<stop offset="0.55" stop-color="#0094D9"/>
<stop offset="0.81" stop-color="#00A6E9"/>
<stop offset="1" stop-color="#00ADEE"/>
</radialGradient>
<radialGradient id="paint23_radial_1730_63303" cx="0" cy="0" r="1" gradientUnits="userSpaceOnUse" gradientTransform="translate(54.3967 16.5846) scale(1.19906)">
<stop stop-color="#005AA9"/>
<stop offset="0.24" stop-color="#0076C1"/>
<stop offset="0.55" stop-color="#0094D9"/>
<stop offset="0.81" stop-color="#00A6E9"/>
<stop offset="1" stop-color="#00ADEE"/>
</radialGradient>
<radialGradient id="paint24_radial_1730_63303" cx="0" cy="0" r="1" gradientUnits="userSpaceOnUse" gradientTransform="translate(21.3784 10.2277) scale(1.1994)">
<stop stop-color="#005AA9"/>
<stop offset="0.24" stop-color="#0076C1"/>
<stop offset="0.55" stop-color="#0094D9"/>
<stop offset="0.81" stop-color="#00A6E9"/>
<stop offset="1" stop-color="#00ADEE"/>
</radialGradient>
<radialGradient id="paint25_radial_1730_63303" cx="0" cy="0" r="1" gradientUnits="userSpaceOnUse" gradientTransform="translate(50.0337 53.8436) scale(1.1994)">
<stop stop-color="#005AA9"/>
<stop offset="0.24" stop-color="#0076C1"/>
<stop offset="0.55" stop-color="#0094D9"/>
<stop offset="0.81" stop-color="#00A6E9"/>
<stop offset="1" stop-color="#00ADEE"/>
</radialGradient>
<radialGradient id="paint26_radial_1730_63303" cx="0" cy="0" r="1" gradientUnits="userSpaceOnUse" gradientTransform="translate(74.4469 36.675) scale(1.19906)">
<stop stop-color="#005AA9"/>
<stop offset="0.24" stop-color="#0076C1"/>
<stop offset="0.55" stop-color="#0094D9"/>
<stop offset="0.81" stop-color="#00A6E9"/>
<stop offset="1" stop-color="#00ADEE"/>
</radialGradient>
<radialGradient id="paint27_radial_1730_63303" cx="0" cy="0" r="1" gradientUnits="userSpaceOnUse" gradientTransform="translate(25.5529 67.3627) rotate(-7.11999) scale(2.60663 2.60663)">
<stop stop-color="#005AA9"/>
<stop offset="0.24" stop-color="#0076C1"/>
<stop offset="0.55" stop-color="#0094D9"/>
<stop offset="0.81" stop-color="#00A6E9"/>
<stop offset="1" stop-color="#00ADEE"/>
</radialGradient>
<linearGradient id="paint28_linear_1730_63303" x1="40.3051" y1="75.3013" x2="40.3051" y2="14.7449" gradientUnits="userSpaceOnUse">
<stop stop-color="#63C4D9"/>
<stop offset="1" stop-color="#129D88"/>
</linearGradient>
<linearGradient id="paint29_linear_1730_63303" x1="48.4651" y1="69.685" x2="48.9093" y2="17.7119" gradientUnits="userSpaceOnUse">
<stop stop-color="#A9DEEF"/>
<stop offset="1" stop-color="#00ADEE"/>
</linearGradient>
<linearGradient id="paint30_linear_1730_63303" x1="43.9064" y1="69.6433" x2="44.3508" y2="17.6711" gradientUnits="userSpaceOnUse">
<stop stop-color="#A9DEEF"/>
<stop offset="1" stop-color="#00ADEE"/>
</linearGradient>
<linearGradient id="paint31_linear_1730_63303" x1="54.3622" y1="69.7329" x2="54.8066" y2="17.763" gradientUnits="userSpaceOnUse">
<stop stop-color="#A9DEEF"/>
<stop offset="1" stop-color="#00ADEE"/>
</linearGradient>
<linearGradient id="paint32_linear_1730_63303" x1="60.1116" y1="69.7821" x2="60.5559" y2="17.8092" gradientUnits="userSpaceOnUse">
<stop stop-color="#A9DEEF"/>
<stop offset="1" stop-color="#00ADEE"/>
</linearGradient>
<linearGradient id="paint33_linear_1730_63303" x1="66.8375" y1="69.8379" x2="67.2816" y2="17.8772" gradientUnits="userSpaceOnUse">
<stop stop-color="#A9DEEF"/>
<stop offset="1" stop-color="#00ADEE"/>
</linearGradient>
<linearGradient id="paint34_linear_1730_63303" x1="43.9815" y1="69.6615" x2="44.426" y2="17.669" gradientUnits="userSpaceOnUse">
<stop stop-color="#A9DEEF"/>
<stop offset="1" stop-color="#00ADEE"/>
</linearGradient>
<linearGradient id="paint35_linear_1730_63303" x1="31.4633" y1="69.5389" x2="31.9078" y2="17.5667" gradientUnits="userSpaceOnUse">
<stop stop-color="#A9DEEF"/>
<stop offset="1" stop-color="#00ADEE"/>
</linearGradient>
<linearGradient id="paint36_linear_1730_63303" x1="36.0783" y1="69.5774" x2="36.5225" y2="17.6036" gradientUnits="userSpaceOnUse">
<stop stop-color="#A9DEEF"/>
<stop offset="1" stop-color="#00ADEE"/>
</linearGradient>
<linearGradient id="paint37_linear_1730_63303" x1="25.6935" y1="69.4882" x2="26.1378" y2="17.5176" gradientUnits="userSpaceOnUse">
<stop stop-color="#A9DEEF"/>
<stop offset="1" stop-color="#00ADEE"/>
</linearGradient>
<linearGradient id="paint38_linear_1730_63303" x1="20.064" y1="69.4397" x2="20.5082" y2="17.4671" gradientUnits="userSpaceOnUse">
<stop stop-color="#A9DEEF"/>
<stop offset="1" stop-color="#00ADEE"/>
</linearGradient>
<linearGradient id="paint39_linear_1730_63303" x1="13.4296" y1="69.3926" x2="13.874" y2="17.4018" gradientUnits="userSpaceOnUse">
<stop stop-color="#A9DEEF"/>
<stop offset="1" stop-color="#00ADEE"/>
</linearGradient>
<linearGradient id="paint40_linear_1730_63303" x1="35.8958" y1="69.5832" x2="36.3401" y2="17.602" gradientUnits="userSpaceOnUse">
<stop stop-color="#A9DEEF"/>
<stop offset="1" stop-color="#00ADEE"/>
</linearGradient>
<linearGradient id="paint41_linear_1730_63303" x1="40.091" y1="69.6105" x2="40.5352" y2="17.6395" gradientUnits="userSpaceOnUse">
<stop stop-color="#25BBA4"/>
<stop offset="1" stop-color="#00D2D3"/>
</linearGradient>
<linearGradient id="paint42_linear_1730_63303" x1="35.4442" y1="69.5719" x2="35.8884" y2="17.5999" gradientUnits="userSpaceOnUse">
<stop stop-color="#A9DEEF"/>
<stop offset="1" stop-color="#00ADEE"/>
</linearGradient>
<linearGradient id="paint43_linear_1730_63303" x1="43.7235" y1="69.6441" x2="44.1678" y2="17.6704" gradientUnits="userSpaceOnUse">
<stop stop-color="#A9DEEF"/>
<stop offset="1" stop-color="#00ADEE"/>
</linearGradient>
<linearGradient id="paint44_linear_1730_63303" x1="41.0537" y1="69.6202" x2="41.4979" y2="17.6527" gradientUnits="userSpaceOnUse">
<stop stop-color="#A9DEEF"/>
<stop offset="1" stop-color="#00ADEE"/>
</linearGradient>
<clipPath id="clip0_1730_63303">
<rect width="69.2012" height="75.3695" fill="white" transform="translate(6.19141 2.73828)"/>
</clipPath>
</defs>
</svg>
