<svg width="33" height="30" viewBox="0 0 33 30" fill="none" xmlns="http://www.w3.org/2000/svg">
<path fill-rule="evenodd" clip-rule="evenodd" d="M19.0976 2.26639C17.9429 0.266394 15.0562 0.266386 13.9015 2.26639L0.487561 25.5C-0.667141 27.5 0.776226 30 3.08563 30L29.9135 30C32.2229 30 33.6663 27.5 32.5116 25.5L19.0976 2.26639ZM15.2391 14.614L14.9705 24.2145L18.0354 24.2145L17.7599 14.614L15.2391 14.614ZM17.6704 10.7979C17.3444 10.4854 16.9541 10.3292 16.4995 10.3292C16.2057 10.3292 15.9348 10.4006 15.6868 10.5435C15.4389 10.6908 15.2391 10.8849 15.0876 11.1259C14.9315 11.3714 14.8512 11.6414 14.8466 11.936C14.8512 12.3734 15.0187 12.7483 15.3493 13.0608C15.6799 13.3732 16.0633 13.5294 16.4995 13.5294C16.9541 13.5294 17.3444 13.3732 17.6704 13.0608C17.9964 12.7483 18.1571 12.3734 18.1525 11.936C18.1571 11.4941 17.9964 11.1148 17.6704 10.7979Z" fill="#DE4646"/>
</svg>
