<svg width="32" height="35" viewBox="0 0 32 35" fill="none" xmlns="http://www.w3.org/2000/svg">
<path fill-rule="evenodd" clip-rule="evenodd" d="M25.0873 11.402C24.5194 10.7206 23.6784 10.3267 22.7913 10.3267H8.29384C7.40677 10.3267 6.56572 10.7206 5.99785 11.402C4.85195 12.7763 2.62052 15.4542 1.46625 16.8386C0.853546 17.5745 0.926472 18.6618 1.63242 19.3086C4.18426 21.6482 11.8218 28.6491 14.33 30.9481C15.0156 31.577 16.0677 31.577 16.7533 30.9481C19.2615 28.6491 26.8991 21.6482 29.4515 19.3086C30.1569 18.6618 30.2298 17.5745 29.6171 16.8386L25.0873 11.402ZM16.938 29.1572L28.351 18.6953H20.7422L16.938 29.1572ZM14.1453 29.1572L10.3412 18.6953H2.7323L14.1453 29.1572ZM13.0197 11.5222L11.5253 17.4998H19.558L18.0636 11.5222H13.0197Z" fill="#0F6C73"/>
<path fill-rule="evenodd" clip-rule="evenodd" d="M10.7871 4.52997L14.7538 1.05836C15.2057 0.664142 15.8776 0.664142 16.3295 1.05836L20.2962 4.52997L23.0651 1.76157C23.407 1.41986 23.921 1.31744 24.3682 1.50249C24.8141 1.68755 25.1058 2.12337 25.1058 2.6071V6.74033C25.1058 7.3744 24.8536 7.98265 24.4052 8.43109C23.9569 8.87924 23.3484 9.13115 22.7148 9.13115H8.36857C7.73495 9.13115 7.12643 8.87924 6.67811 8.43109C6.22979 7.98265 5.97754 7.3744 5.97754 6.74033V2.6071C5.97754 2.12337 6.26924 1.68755 6.71517 1.50249C7.1623 1.31744 7.67637 1.41986 8.01829 1.76157L10.7871 4.52997Z" fill="#0F6C73"/>
<path fill-rule="evenodd" clip-rule="evenodd" d="M13.7481 34.2375H28.095C28.4249 34.2375 28.6927 33.9697 28.6927 33.6398C28.6927 33.3098 28.4249 33.042 28.095 33.042H13.7481C13.4181 33.042 13.1504 33.3098 13.1504 33.6398C13.1504 33.9697 13.4181 34.2375 13.7481 34.2375Z" fill="#0F6C73"/>
<path fill-rule="evenodd" clip-rule="evenodd" d="M2.98838 34.2375H8.96597C9.29588 34.2375 9.56373 33.9697 9.56373 33.6398C9.56373 33.3098 9.29588 33.042 8.96597 33.042H2.98838C2.65847 33.042 2.39062 33.3098 2.39062 33.6398C2.39062 33.9697 2.65847 34.2375 2.98838 34.2375Z" fill="#0F6C73"/>
<path fill-rule="evenodd" clip-rule="evenodd" d="M30.4855 34.2375C30.1553 34.2375 29.8877 33.9699 29.8877 33.6398C29.8877 33.3096 30.1553 33.042 30.4855 33.042C30.8156 33.042 31.0832 33.3096 31.0832 33.6398C31.0832 33.9699 30.8156 34.2375 30.4855 34.2375Z" fill="#0F6C73"/>
<path fill-rule="evenodd" clip-rule="evenodd" d="M11.3575 34.2375C11.0274 34.2375 10.7598 33.9699 10.7598 33.6398C10.7598 33.3096 11.0274 33.042 11.3575 33.042C11.6877 33.042 11.9553 33.3096 11.9553 33.6398C11.9553 33.9699 11.6877 34.2375 11.3575 34.2375Z" fill="#0F6C73"/>
<path fill-rule="evenodd" clip-rule="evenodd" d="M0.597758 34.2375C0.267626 34.2375 0 33.9699 0 33.6398C0 33.3096 0.267626 33.042 0.597758 33.042C0.927891 33.042 1.19552 33.3096 1.19552 33.6398C1.19552 33.9699 0.927891 34.2375 0.597758 34.2375Z" fill="#0F6C73"/>
</svg>
