<svg width="34" height="34" viewBox="0 0 34 34" fill="none" xmlns="http://www.w3.org/2000/svg">
<path d="M31.8762 10.4009H26.4114C26.169 12.6657 25.1311 14.7711 23.4824 16.3426C22.1348 17.6517 20.4351 18.5401 18.5909 18.8992C17.9746 19.0183 17.3483 19.0786 16.7205 19.0792C14.3257 19.072 12.0174 18.1832 10.2361 16.5825C8.45485 14.9818 7.32533 12.7813 7.06313 10.4009H1.59841C1.17449 10.4009 0.767924 10.5693 0.468164 10.869C0.168403 11.1688 0 11.5754 0 11.9993V31.8162C0 32.2402 0.168403 32.6467 0.468164 32.9465C0.767924 33.2462 1.17449 33.4146 1.59841 33.4146H31.8762C32.3001 33.4146 32.7066 33.2462 33.0064 32.9465C33.3062 32.6467 33.4746 32.2402 33.4746 31.8162V11.9993C33.4746 11.5754 33.3062 11.1688 33.0064 10.869C32.7066 10.5693 32.3001 10.4009 31.8762 10.4009ZM31.0686 29.0504C31.0675 29.5794 30.8568 30.0864 30.4828 30.4605C30.1087 30.8346 29.6017 31.0452 29.0727 31.0463H4.38517C3.85616 31.0452 3.34913 30.8346 2.97506 30.4605C2.60099 30.0864 2.39035 29.5794 2.38925 29.0504V23.6568C2.39035 23.1278 2.60099 22.6208 2.97506 22.2467C3.34913 21.8726 3.85616 21.662 4.38517 21.6609H29.0727C29.6017 21.662 30.1087 21.8726 30.4828 22.2467C30.8568 22.6208 31.0675 23.1278 31.0686 23.6568V29.0504Z" fill="#0F6C73"/>
<path d="M10.1013 15.5602C10.7048 14.3132 11.6475 13.2615 12.8212 12.5256C13.995 11.7897 15.3523 11.3994 16.7376 11.3994C18.123 11.3994 19.4803 11.7897 20.654 12.5256C21.8278 13.2615 22.7704 14.3132 23.374 15.5602C24.9611 13.8844 25.8434 11.6628 25.8385 9.35481C25.8385 6.9411 24.8797 4.62625 23.1729 2.9195C21.4662 1.21275 19.1513 0.253906 16.7376 0.253906C14.3239 0.253906 12.0091 1.21275 10.3023 2.9195C8.59558 4.62625 7.63674 6.9411 7.63674 9.35481C7.63185 11.6628 8.5142 13.8844 10.1013 15.5602ZM16.7376 2.52599C17.4446 2.52517 18.1359 2.73404 18.7241 3.12619C19.3123 3.51833 19.7709 4.07613 20.042 4.72902C20.3131 5.3819 20.3845 6.10052 20.2471 6.79397C20.1097 7.48742 19.7697 8.12454 19.2701 8.6247C18.7705 9.12487 18.1338 9.46562 17.4405 9.60384C16.7472 9.74207 16.0285 9.67154 15.3753 9.4012C14.7221 9.13086 14.1638 8.67285 13.7709 8.08512C13.3781 7.49738 13.1684 6.80634 13.1684 6.0994C13.1684 5.1524 13.5443 4.24412 14.2136 3.5741C14.8828 2.90407 15.7906 2.5271 16.7376 2.52599Z" fill="#0F6C73"/>
<path d="M16.7365 9.04087C18.3611 9.04087 19.6781 7.72388 19.6781 6.09929C19.6781 4.4747 18.3611 3.15771 16.7365 3.15771C15.1119 3.15771 13.7949 4.4747 13.7949 6.09929C13.7949 7.72388 15.1119 9.04087 16.7365 9.04087Z" fill="#0F6C73"/>
<path d="M16.737 12.0245C15.429 12.0183 14.1477 12.3954 13.0516 13.1093C11.9555 13.8232 11.0926 14.8426 10.5693 16.0414C12.2481 17.5939 14.4505 18.4561 16.737 18.4561C19.0236 18.4561 21.226 17.5939 22.9047 16.0414C22.3815 14.8426 21.5185 13.8232 20.4224 13.1093C19.3263 12.3954 18.0451 12.0183 16.737 12.0245Z" fill="#0F6C73"/>
<path d="M29.0734 22.2886H4.38585C4.02296 22.2886 3.67494 22.4327 3.41834 22.6893C3.16174 22.9459 3.01758 23.294 3.01758 23.6568V29.0504C3.01758 29.4133 3.16174 29.7614 3.41834 30.018C3.67494 30.2746 4.02296 30.4187 4.38585 30.4187H29.0734C29.4362 30.4187 29.7843 30.2746 30.0409 30.018C30.2975 29.7614 30.4416 29.4133 30.4416 29.0504V23.6568C30.4416 23.294 30.2975 22.9459 30.0409 22.6893C29.7843 22.4327 29.4362 22.2886 29.0734 22.2886ZM11.4992 26.6696H10.4866L11.1896 27.3725C11.2483 27.4314 11.2813 27.5111 11.2813 27.5943C11.2813 27.6775 11.2483 27.7572 11.1896 27.8161C11.1307 27.8748 11.051 27.9078 10.9678 27.9078C10.8846 27.9078 10.8049 27.8748 10.746 27.8161L10.0431 27.1131V28.1048C10.0431 28.188 10.01 28.2678 9.95114 28.3267C9.89228 28.3855 9.81246 28.4186 9.72923 28.4186C9.646 28.4186 9.56618 28.3855 9.50732 28.3267C9.44847 28.2678 9.41541 28.188 9.41541 28.1048V27.1131L8.71244 27.8161C8.6536 27.8748 8.57384 27.9078 8.49067 27.9078C8.40751 27.9078 8.32774 27.8748 8.2689 27.8161C8.21013 27.7572 8.17712 27.6775 8.17712 27.5943C8.17712 27.5111 8.21013 27.4314 8.2689 27.3725L8.97187 26.6696H7.976C7.89239 26.6685 7.81257 26.6345 7.75383 26.5749C7.6951 26.5154 7.66217 26.4352 7.66218 26.3516C7.66328 26.269 7.69682 26.1903 7.75556 26.1323C7.81429 26.0744 7.89349 26.0419 7.976 26.0419H8.97187L8.2689 25.3348C8.23807 25.306 8.21334 25.2714 8.19619 25.2329C8.17903 25.1944 8.16981 25.1528 8.16907 25.1107C8.16832 25.0686 8.17608 25.0267 8.19186 24.9876C8.20764 24.9486 8.23114 24.9131 8.26094 24.8833C8.29074 24.8535 8.32623 24.83 8.36531 24.8142C8.40439 24.7984 8.44624 24.7906 8.48838 24.7914C8.53052 24.7921 8.57207 24.8014 8.61057 24.8185C8.64906 24.8357 8.68371 24.8604 8.71244 24.8912L9.41541 25.5942V24.6025C9.41541 24.5193 9.44847 24.4394 9.50732 24.3806C9.56618 24.3217 9.646 24.2887 9.72923 24.2887C9.81246 24.2887 9.89228 24.3217 9.95114 24.3806C10.01 24.4394 10.0431 24.5193 10.0431 24.6025V25.5942L10.746 24.8912C10.8055 24.8358 10.8842 24.8056 10.9655 24.807C11.0468 24.8085 11.1244 24.8414 11.1819 24.8989C11.2394 24.9564 11.2723 25.034 11.2737 25.1153C11.2752 25.1966 11.245 25.2753 11.1896 25.3348L10.4866 26.0419H11.4825C11.565 26.0419 11.6442 26.0744 11.7029 26.1323C11.7616 26.1903 11.7952 26.269 11.7963 26.3516C11.7963 26.4352 11.7634 26.5154 11.7046 26.5749C11.6459 26.6345 11.5661 26.6685 11.4825 26.6696H11.4992ZM18.5079 26.6696H17.4953L18.1983 27.3725C18.2571 27.4314 18.2901 27.5111 18.2901 27.5943C18.2901 27.6775 18.2571 27.7572 18.1983 27.8161C18.1395 27.8748 18.0597 27.9078 17.9765 27.9078C17.8934 27.9078 17.8136 27.8748 17.7548 27.8161L17.0518 27.1131V28.1048C17.0518 28.188 17.0187 28.2678 16.9599 28.3267C16.901 28.3855 16.8212 28.4186 16.738 28.4186C16.6547 28.4186 16.5749 28.3855 16.5161 28.3267C16.4572 28.2678 16.4241 28.188 16.4241 28.1048V27.1131L15.7212 27.8161C15.6623 27.8748 15.5826 27.9078 15.4994 27.9078C15.4162 27.9078 15.3365 27.8748 15.2776 27.8161C15.2189 27.7572 15.1859 27.6775 15.1859 27.5943C15.1859 27.5111 15.2189 27.4314 15.2776 27.3725L15.9806 26.6696H14.9847C14.9011 26.6685 14.8213 26.6345 14.7626 26.5749C14.7038 26.5154 14.6709 26.4352 14.6709 26.3516C14.672 26.269 14.7056 26.1903 14.7643 26.1323C14.823 26.0744 14.9022 26.0419 14.9847 26.0419H15.9806L15.2776 25.3348C15.2222 25.2753 15.192 25.1966 15.1935 25.1153C15.1949 25.034 15.2278 24.9564 15.2853 24.8989C15.3428 24.8414 15.4204 24.8085 15.5017 24.807C15.583 24.8056 15.6617 24.8358 15.7212 24.8912L16.4241 25.5942V24.6025C16.4241 24.5193 16.4572 24.4394 16.5161 24.3806C16.5749 24.3217 16.6547 24.2887 16.738 24.2887C16.8212 24.2887 16.901 24.3217 16.9599 24.3806C17.0187 24.4394 17.0518 24.5193 17.0518 24.6025V25.5942L17.7548 24.8912C17.8142 24.8358 17.8929 24.8056 17.9742 24.807C18.0555 24.8085 18.1331 24.8414 18.1906 24.8989C18.2481 24.9564 18.281 25.034 18.2825 25.1153C18.2839 25.1966 18.2537 25.2753 18.1983 25.3348L17.4953 26.0419H18.4912C18.5737 26.0419 18.6529 26.0744 18.7116 26.1323C18.7704 26.1903 18.8039 26.269 18.805 26.3516C18.805 26.4352 18.7721 26.5154 18.7134 26.5749C18.6546 26.6345 18.5748 26.6685 18.4912 26.6696H18.5079ZM25.5167 26.6696H24.5041L25.207 27.3725C25.2658 27.4314 25.2988 27.5111 25.2988 27.5943C25.2988 27.6775 25.2658 27.7572 25.207 27.8161C25.1482 27.8748 25.0684 27.9078 24.9853 27.9078C24.9021 27.9078 24.8223 27.8748 24.7635 27.8161L24.0605 27.1131V28.1048C24.0605 28.188 24.0275 28.2678 23.9686 28.3267C23.9098 28.3855 23.8299 28.4186 23.7467 28.4186C23.6635 28.4186 23.5837 28.3855 23.5248 28.3267C23.466 28.2678 23.4329 28.188 23.4329 28.1048V27.1131L22.7299 27.8161C22.6711 27.8748 22.5913 27.9078 22.5082 27.9078C22.425 27.9078 22.3452 27.8748 22.2864 27.8161C22.2276 27.7572 22.1946 27.6775 22.1946 27.5943C22.1946 27.5111 22.2276 27.4314 22.2864 27.3725L22.9893 26.6696H21.9935C21.9099 26.6685 21.83 26.6345 21.7713 26.5749C21.7126 26.5154 21.6796 26.4352 21.6797 26.3516C21.6808 26.269 21.7143 26.1903 21.773 26.1323C21.8318 26.0744 21.911 26.0419 21.9935 26.0419H22.9893L22.2864 25.3348C22.2555 25.306 22.2308 25.2714 22.2137 25.2329C22.1965 25.1944 22.1873 25.1528 22.1865 25.1107C22.1858 25.0686 22.1936 25.0267 22.2093 24.9876C22.2251 24.9486 22.2486 24.9131 22.2784 24.8833C22.3082 24.8535 22.3437 24.83 22.3828 24.8142C22.4219 24.7984 22.4637 24.7906 22.5059 24.7914C22.548 24.7921 22.5896 24.8014 22.628 24.8185C22.6665 24.8357 22.7012 24.8604 22.7299 24.8912L23.4329 25.5942V24.6025C23.4329 24.5193 23.466 24.4394 23.5248 24.3806C23.5837 24.3217 23.6635 24.2887 23.7467 24.2887C23.8299 24.2887 23.9098 24.3217 23.9686 24.3806C24.0275 24.4394 24.0605 24.5193 24.0605 24.6025V25.5942L24.7635 24.8912C24.7922 24.8604 24.8269 24.8357 24.8654 24.8185C24.9039 24.8014 24.9454 24.7921 24.9876 24.7914C25.0297 24.7906 25.0716 24.7984 25.1106 24.8142C25.1497 24.83 25.1852 24.8535 25.215 24.8833C25.2448 24.9131 25.2683 24.9486 25.2841 24.9876C25.2999 25.0267 25.3076 25.0686 25.3069 25.1107C25.3061 25.1528 25.2969 25.1944 25.2798 25.2329C25.2626 25.2714 25.2379 25.306 25.207 25.3348L24.5041 26.0419H25.4999C25.5825 26.0419 25.6616 26.0744 25.7204 26.1323C25.7791 26.1903 25.8127 26.269 25.8138 26.3516C25.8138 26.4352 25.7808 26.5154 25.7221 26.5749C25.6634 26.6345 25.5836 26.6685 25.4999 26.6696H25.5167Z" fill="#0F6C73"/>
</svg>
