<svg width="34" height="34" viewBox="0 0 34 34" fill="none" xmlns="http://www.w3.org/2000/svg">
<path d="M25.0108 31.0499C25.0108 26.4829 21.297 22.769 16.73 22.769C12.163 22.769 8.44922 26.4829 8.44922 31.0499V31.2334C10.9084 32.6558 13.7016 33.4745 16.73 33.4745C19.7585 33.4745 22.5517 32.6542 25.0108 31.249V31.0655V31.0499Z" fill="#0F6C73"/>
<path d="M20.4259 13.7508C20.4259 15.7927 18.7713 17.4489 16.7294 17.4489C14.6874 17.4489 13.0312 15.7927 13.0312 13.7508C13.0312 11.7088 14.6874 10.0542 16.7294 10.0542C18.7713 10.0542 20.4259 11.7088 20.4259 13.7508Z" fill="#0F6C73"/>
<path d="M33.4573 16.7295C33.4573 7.49509 25.9622 0 16.7278 0C7.49509 0 0 7.47783 0 16.7295C0 22.25 2.69282 27.1354 6.80813 30.1795C7.24255 25.0934 11.5257 21.0957 16.7278 21.0957C21.93 21.0957 26.1959 25.0934 26.6476 30.1795C30.7801 27.1354 33.4557 22.25 33.4557 16.7295H33.4573ZM16.7295 19.1212C13.7684 19.1212 11.3595 16.7122 11.3595 13.7512C11.3595 10.7902 13.7684 8.38119 16.7295 8.38119C19.6905 8.38119 22.0994 10.7902 22.0994 13.7512C22.0994 16.7122 19.6905 19.1212 16.7295 19.1212Z" fill="#0F6C73"/>
</svg>
