<svg width="81" height="80" viewBox="0 0 81 80" fill="none" xmlns="http://www.w3.org/2000/svg">
<rect x="0.483398" y="0.171387" width="79.834" height="79.834" rx="17.195" fill="#E1F5FE" fill-opacity="0.6"/>
<g clip-path="url(#clip0_1730_69887)">
<path d="M43.1113 70.1805L41.6931 48.2584H41.7412L43.3575 70.1639L43.1113 70.1805ZM38.7094 70.1653L38.5003 70.1487L40.2418 48.2501L40.3202 48.257L38.7094 70.1653ZM47.7883 69.508L43.0205 48.0688L43.1237 48.0453L47.9631 69.4679L47.7883 69.508ZM34.1039 69.4734L33.8975 69.4264L38.8607 48.0328L38.9363 48.0494L34.1039 69.4734ZM52.2302 68.1616L44.3892 47.6592L44.4456 47.6371L52.4365 68.0785L52.2302 68.1616ZM29.6373 68.0924L29.4419 68.0149L37.5291 47.608L37.6034 47.6384L29.6373 68.0924ZM56.4615 66.1426L45.6245 47.0683L45.6974 47.0254L56.6376 66.0402L56.4615 66.1426ZM25.4197 66.0499L25.2257 65.9364L36.2966 46.9991L36.3516 47.0323L25.4197 66.0499ZM60.3036 63.5397L46.8103 46.2657L46.8516 46.2325L60.4865 63.3916C60.426 63.447 60.3641 63.4912 60.3022 63.5397H60.3036ZM21.5804 63.4151C21.5116 63.3612 21.4428 63.3058 21.3768 63.2505L35.1589 46.2104L35.181 46.2297L21.5804 63.4151ZM63.7508 60.3708L47.8337 45.3192L47.8846 45.2652L63.8966 60.2103L63.7508 60.3708ZM18.1606 60.2324L18.0231 60.0829L34.0956 45.2071L34.1548 45.2708L18.1606 60.2324ZM66.6671 56.7508L48.7361 44.2039L48.7623 44.1651L66.8033 56.5446C66.7579 56.6124 66.7111 56.6788 66.6657 56.7452L66.6671 56.7508ZM15.254 56.5723L15.1247 56.3813L33.2414 44.1139L33.2744 44.1623L15.254 56.5723ZM69.0483 52.6672L49.4267 43.0235L49.4707 42.9321L69.1308 52.497L69.0483 52.6672ZM12.9155 52.515C12.8811 52.4458 12.8481 52.3766 12.815 52.306L32.5508 42.8962L32.5756 42.9474L12.9155 52.515ZM70.776 48.3345L49.9604 41.6936L49.9756 41.6424L70.8489 48.1034L70.776 48.3345ZM11.2015 48.1338C11.1794 48.0619 11.1574 47.9955 11.1368 47.9207L32.046 41.5899L32.0652 41.6549L11.2015 48.1338ZM71.849 43.7278L50.2699 40.3583L50.2823 40.278L71.8793 43.5216L71.849 43.7278ZM10.1629 43.559L10.1299 43.3348L31.7475 40.2199L31.7571 40.2836L10.1629 43.559ZM72.2232 39.1018L50.3855 38.9067V38.8153H72.2245V38.8582C72.2245 38.9399 72.2245 39.0215 72.2232 39.1018ZM31.6525 38.8804H9.81348V38.677L31.6512 38.7904L31.6525 38.8804ZM50.2864 37.4758V37.4288L71.8751 34.1229C71.8875 34.2031 71.8999 34.2834 71.9109 34.3637L50.2864 37.4758ZM31.7557 37.4426L10.1588 34.2364C10.1698 34.1603 10.1808 34.0841 10.1931 34.008L31.7722 37.3831L31.7557 37.4426ZM49.9962 36.1488L49.9604 36.0478L70.8256 29.5605L70.8792 29.7376L49.9962 36.1488ZM32.0597 36.0906L11.185 29.6394L11.2482 29.4318L32.0776 36.0201L32.0597 36.0906ZM49.4941 34.8355L49.457 34.7567L69.1116 25.1808L69.1982 25.3634L49.4941 34.8355ZM32.5632 34.7926L12.8921 25.2541L12.9801 25.0715L32.6017 34.7138L32.5632 34.7926ZM48.8077 33.6206L48.7526 33.5389L66.773 21.129L66.8803 21.2854L48.8077 33.6206ZM33.2634 33.5638L15.2182 21.1996C15.2609 21.1373 15.3021 21.0751 15.3461 21.0128L33.306 33.5099L33.2634 33.5638ZM47.8984 32.4706L47.8709 32.4402L63.854 17.4675L64.0232 17.6515L47.8984 32.4706ZM34.1424 32.4568L18.1194 17.5339L18.2721 17.3665L34.1905 32.4097L34.1424 32.4568ZM46.8846 31.5144L46.8364 31.4757L60.4425 14.2903L60.62 14.4287L46.8846 31.5144ZM35.1755 31.4909L21.5254 14.3456L21.7083 14.199L35.2208 31.4577L35.1755 31.4909ZM45.7401 30.7187L45.6768 30.6828L56.5881 11.65L56.7765 11.7593L45.7401 30.7187ZM36.3296 30.6966L25.3702 11.6929L25.5641 11.5794L36.3887 30.6592L36.3296 30.6966ZM44.48 30.0974L44.4236 30.0753L52.3787 9.6172L52.5906 9.70161L44.48 30.0974ZM37.5924 30.0836L29.5644 9.65318L29.7803 9.56877L37.646 30.0628L37.5924 30.0836ZM43.1594 29.6823L43.103 29.6698L47.897 8.2334L48.1212 8.2846L43.1594 29.6823ZM38.9088 29.6754L34.0378 8.25831L34.2662 8.20711L38.9625 29.656L38.9088 29.6754ZM41.7742 29.4678H41.7123L43.2915 7.55119C43.3672 7.55119 43.4428 7.56226 43.5171 7.5678L41.7742 29.4678ZM40.2927 29.4678L38.6475 7.55811L38.8744 7.5415L40.3546 29.4595L40.2927 29.4678Z" fill="#129D88"/>
<path d="M67.6906 47.2185H42.8266C42.6129 47.2182 42.4081 47.1326 42.257 46.9806C42.1059 46.8286 42.0209 46.6226 42.0205 46.4076V9.97635C42.0205 9.76116 42.1054 9.55476 42.2565 9.40247C42.4077 9.25017 42.6127 9.16443 42.8266 9.16406H67.6906C67.9045 9.16443 68.1096 9.25017 68.2607 9.40247C68.4118 9.55476 68.4967 9.76116 68.4967 9.97635V46.4076C68.4964 46.6226 68.4113 46.8286 68.2602 46.9806C68.1091 47.1326 67.9043 47.2182 67.6906 47.2185ZM42.8266 9.20143C42.6218 9.20179 42.4255 9.28389 42.2808 9.4297C42.1362 9.5755 42.0549 9.7731 42.0549 9.97912V46.4076C42.0553 46.6134 42.1367 46.8106 42.2813 46.9561C42.426 47.1017 42.6221 47.1836 42.8266 47.1839H67.6906C67.8953 47.1839 68.0916 47.1021 68.2363 46.9565C68.381 46.811 68.4623 46.6135 68.4623 46.4076V9.97635C68.4616 9.77081 68.38 9.57392 68.2354 9.42872C68.0908 9.28351 67.8949 9.20179 67.6906 9.20143H42.8266Z" fill="#25BBA4"/>
<path d="M39.0207 47.2185H14.1581C13.9441 47.2185 13.739 47.1331 13.5876 46.9811C13.4362 46.8291 13.351 46.6228 13.3506 46.4076V9.97635C13.3506 9.76092 13.4357 9.55431 13.5871 9.40198C13.7385 9.24964 13.9439 9.16406 14.1581 9.16406H39.0207C39.1267 9.16406 39.2316 9.18508 39.3295 9.22592C39.4274 9.26676 39.5163 9.32661 39.5912 9.40206C39.6661 9.47751 39.7254 9.56706 39.7658 9.66561C39.8063 9.76415 39.827 9.86975 39.8268 9.97635V46.4076C39.8268 46.6227 39.7419 46.8289 39.5907 46.981C39.4395 47.1331 39.2345 47.2185 39.0207 47.2185ZM14.1581 9.20143C13.953 9.20143 13.7564 9.28336 13.6114 9.42921C13.4664 9.57505 13.385 9.77286 13.385 9.97912V46.4076C13.3853 46.6136 13.467 46.8111 13.6119 46.9566C13.7568 47.1022 13.9533 47.1839 14.1581 47.1839H39.0207C39.122 47.1839 39.2224 47.1638 39.316 47.1248C39.4096 47.0858 39.4947 47.0286 39.5664 46.9565C39.638 46.8845 39.6949 46.7989 39.7337 46.7047C39.7724 46.6105 39.7924 46.5096 39.7924 46.4076V9.97635C39.7917 9.77081 39.7101 9.57392 39.5655 9.42872C39.4209 9.28351 39.225 9.20179 39.0207 9.20143H14.1581Z" fill="#25BBA4"/>
<path d="M75.4071 55.6699H6.62695V55.7045H75.4071V55.6699Z" fill="#25BBA4"/>
<path d="M15.9436 57.6465H13.7344V57.6811H15.9436V57.6465Z" fill="#25BBA4"/>
<path d="M37.4241 57.2705H30.0605V57.3051H37.4241V57.2705Z" fill="#25BBA4"/>
<path d="M21.0686 58.9316H16.082V58.9662H21.0686V58.9316Z" fill="#25BBA4"/>
<path d="M64.6121 57.2529H58.6709V57.2875H64.6121V57.2529Z" fill="#25BBA4"/>
<path d="M66.7096 57.2529H65.8389V57.2875H66.7096V57.2529Z" fill="#25BBA4"/>
<path d="M57.5371 58.1157H50.124V58.1503H57.5371V58.1157Z" fill="#25BBA4"/>
<path d="M62.571 46.9793C62.1391 45.5499 61.1087 36.4625 59.9436 35.2295C59.6143 34.8752 59.245 34.5608 58.8431 34.2927C57.7083 29.2017 55.9723 25.5969 55.0327 23.4091C53.7947 20.5308 49.9911 17.6082 45.6566 16.2037C45.6112 16.0971 45.3705 15.7304 44.0953 15.0966C43.8202 14.9582 43.3649 14.2982 42.7114 13.4997C42.058 12.7013 42.3648 11.7008 40.5201 11.6357H40.1074C38.2627 11.7022 38.5695 12.6999 37.9161 13.4997C37.2627 14.2996 36.8019 14.9638 36.5322 15.0966C35.2571 15.7276 35.0191 16.0943 34.9709 16.2037C30.6405 17.6124 26.8342 20.535 25.599 23.4133C24.6594 25.601 22.9234 29.2058 21.7885 34.2968C21.3867 34.5649 21.0174 34.8793 20.6881 35.2337C19.5229 36.4722 18.4871 45.554 18.0607 46.9835C17.6342 48.413 17.4416 49.7193 19.5436 50.5274C20.0938 50.7405 20.589 50.5675 21.0113 50.1981C21.0333 50.4056 21.0581 50.6132 21.0829 50.8249C22.6786 63.9156 37.5172 64.9147 40.1198 64.9895H40.5077C43.109 64.9147 57.949 63.9156 59.5433 50.8249C59.5694 50.6146 59.5942 50.4098 59.6162 50.1981C60.0385 50.5675 60.5282 50.7405 61.084 50.5274C63.1887 49.7193 63.0043 48.413 62.571 46.9793Z" fill="#129D88"/>
<path d="M12.1523 54.8833V57.799L14.6628 59.2561L17.1719 57.799V54.8833L14.6628 53.4248L12.1523 54.8833Z" fill="#25BBA4" stroke="#25BBA4" stroke-width="0.921162" stroke-linecap="round" stroke-linejoin="round"/>
<path d="M17.166 54.8833V57.799L19.6765 59.2561L22.187 57.799V54.8833L19.6765 53.4248L17.166 54.8833Z" fill="#25BBA4" stroke="#25BBA4" stroke-width="0.921162" stroke-linecap="round" stroke-linejoin="round"/>
<path d="M22.2246 54.8833V57.799L24.7351 59.2561L27.2442 57.799V54.8833L24.7351 53.4248L22.2246 54.8833Z" fill="#25BBA4" stroke="#25BBA4" stroke-width="0.921162" stroke-linecap="round" stroke-linejoin="round"/>
<path d="M27.2422 54.8833V57.799L29.7527 59.2561L32.2631 57.799V54.8833L29.7527 53.4248L27.2422 54.8833Z" fill="#25BBA4" stroke="#25BBA4" stroke-width="0.921162" stroke-linecap="round" stroke-linejoin="round"/>
<path d="M19.7158 50.4913V53.407L22.2263 54.8655L24.7368 53.407V50.4913L22.2263 49.0342L19.7158 50.4913Z" fill="#25BBA4" stroke="#25BBA4" stroke-width="0.921162" stroke-linecap="round" stroke-linejoin="round"/>
<path d="M32.2998 54.882L34.1844 53.7251" stroke="#25BBA4" stroke-width="0.921162" stroke-linecap="round" stroke-linejoin="round"/>
<path d="M20.5137 50.9612L22.302 49.9316" stroke="#25BBA4" stroke-width="0.921162" stroke-linecap="round" stroke-linejoin="round"/>
<path d="M17.9756 55.3206L19.7625 54.291" stroke="#25BBA4" stroke-width="0.921162" stroke-linecap="round" stroke-linejoin="round"/>
<path d="M23.0088 55.3206L24.7957 54.291" stroke="#25BBA4" stroke-width="0.921162" stroke-linecap="round" stroke-linejoin="round"/>
<path d="M28.0176 55.8096V56.853V55.8096Z" fill="#25BBA4"/>
<path d="M28.0176 55.8096V56.853" stroke="#25BBA4" stroke-width="0.921162" stroke-linecap="round" stroke-linejoin="round"/>
<path d="M17.8301 55.8096V56.853V55.8096Z" fill="#25BBA4"/>
<path d="M17.8301 55.8096V56.853" stroke="#25BBA4" stroke-width="0.921162" stroke-linecap="round" stroke-linejoin="round"/>
<path d="M52.2783 19.3119C52.1844 18.86 52.0066 18.4299 51.7542 18.0443L52.2054 17.4908L51.2425 16.5222L50.6923 16.976C50.3088 16.7224 49.8814 16.5436 49.4322 16.4488L49.3662 15.7417H48.0057L47.9397 16.4488C47.4905 16.5436 47.0631 16.7224 46.6796 16.976L46.1294 16.5222L45.1665 17.4908L45.6177 18.0443C45.3653 18.4299 45.1875 18.86 45.0936 19.3119L44.3906 19.3783V20.751L45.0936 20.8175C45.1877 21.2693 45.3655 21.6993 45.6177 22.085L45.1665 22.6386L46.1294 23.6072L46.6796 23.1533C47.0631 23.407 47.4905 23.5858 47.9397 23.6806L48.0057 24.3863H49.3703L49.4363 23.6806C49.8855 23.5858 50.3129 23.407 50.6964 23.1533L51.2466 23.6072L52.2095 22.6386L51.7583 22.085C52.0105 21.6993 52.1883 21.2693 52.2825 20.8175L52.984 20.751V19.3783L52.2783 19.3119ZM50.5341 20.0647C50.5338 20.4319 50.4253 20.7908 50.2223 21.096C50.0193 21.4012 49.7309 21.6391 49.3935 21.7794C49.0562 21.9197 48.685 21.9563 48.327 21.8845C47.969 21.8127 47.6402 21.6357 47.3822 21.376C47.1241 21.1162 46.9484 20.7853 46.8773 20.4251C46.8062 20.0649 46.8428 19.6916 46.9826 19.3523C47.1224 19.0131 47.359 18.7231 47.6625 18.5191C47.9661 18.3151 48.323 18.2062 48.688 18.2062C48.9306 18.2062 49.1707 18.2543 49.3948 18.3477C49.6188 18.4411 49.8224 18.5781 49.9939 18.7507C50.1653 18.9232 50.3012 19.1281 50.3939 19.3536C50.4866 19.5791 50.5342 19.8207 50.5341 20.0647Z" fill="#25BBA4"/>
<path d="M21.9928 26.9469C21.9319 26.6554 21.8171 26.378 21.6544 26.1291L21.946 25.7762L21.3242 25.1508L20.9735 25.4441C20.7264 25.2807 20.4511 25.1652 20.1619 25.1037L20.1192 24.6484H19.2402L19.1976 25.1037C18.9082 25.165 18.6329 25.2805 18.386 25.4441L18.0338 25.1508L17.4134 25.7762L17.7037 26.1291C17.5409 26.3778 17.4265 26.6553 17.3666 26.9469L16.9141 26.9898V27.8727L17.3666 27.9156C17.4262 28.2069 17.5406 28.484 17.7037 28.732L17.4134 29.0863L18.0338 29.7104L18.386 29.4184C18.6329 29.5821 18.9082 29.6975 19.1976 29.7588L19.2402 30.2127H20.1192L20.1619 29.7588C20.4511 29.6973 20.7264 29.5818 20.9735 29.4184L21.3242 29.7104L21.946 29.0863L21.6544 28.7334C21.8171 28.4845 21.9319 28.2071 21.9928 27.9156L22.4454 27.8727V26.9898L21.9928 26.9469ZM20.8689 27.4313C20.8689 27.668 20.7991 27.8994 20.6684 28.0963C20.5376 28.2931 20.3518 28.4465 20.1344 28.5371C19.917 28.6277 19.6777 28.6514 19.4469 28.6052C19.2161 28.5591 19.004 28.4451 18.8376 28.2777C18.6712 28.1103 18.5579 27.897 18.512 27.6648C18.4661 27.4326 18.4896 27.1919 18.5797 26.9732C18.6698 26.7545 18.8223 26.5675 19.018 26.436C19.2136 26.3045 19.4437 26.2343 19.679 26.2343C19.9946 26.2343 20.2973 26.3604 20.5204 26.5849C20.7436 26.8093 20.8689 27.1138 20.8689 27.4313Z" fill="#25BBA4"/>
<path d="M67.1821 30.2363C67.122 29.9452 67.0077 29.6682 66.845 29.4199L67.1353 29.067L66.5149 28.4374L66.1627 28.7294C65.916 28.5656 65.6406 28.4505 65.3511 28.3903L65.3085 27.9351H64.4295L64.3868 28.3903C64.0974 28.4507 63.822 28.5658 63.5752 28.7294L63.2245 28.4374L62.6027 29.0629L62.8916 29.4199C62.7291 29.6684 62.6143 29.9453 62.5532 30.2363L62.1006 30.2792V31.1635L62.5532 31.2064C62.6143 31.4974 62.7291 31.7743 62.8916 32.0228L62.5999 32.3757L63.2217 33.0011L63.5725 32.7092C63.8193 32.8728 64.0947 32.9878 64.3841 33.0482L64.4267 33.5035H65.3057L65.3484 33.0482C65.6379 32.988 65.9133 32.873 66.16 32.7092L66.5121 33.0011L67.1325 32.3757L66.8423 32.0228C67.0049 31.7745 67.1193 31.4975 67.1793 31.2064L67.6319 31.1635V30.2792L67.1821 30.2363ZM66.0554 30.722C66.0554 30.9588 65.9857 31.1902 65.8549 31.387C65.7242 31.5839 65.5383 31.7373 65.3209 31.8279C65.1035 31.9185 64.8642 31.9422 64.6334 31.896C64.4026 31.8498 64.1906 31.7358 64.0242 31.5684C63.8578 31.401 63.7444 31.1877 63.6985 30.9555C63.6526 30.7234 63.6762 30.4827 63.7662 30.264C63.8563 30.0452 64.0088 29.8583 64.2045 29.7268C64.4002 29.5952 64.6302 29.525 64.8655 29.525C65.1811 29.525 65.4838 29.6512 65.7069 29.8756C65.9301 30.1001 66.0554 30.4046 66.0554 30.722Z" fill="#25BBA4"/>
<path d="M27.0896 35.1593C26.9716 34.5883 26.7471 34.045 26.4279 33.5582L26.9974 32.8663L25.78 31.6431L25.0922 32.2146C24.6088 31.8946 24.0698 31.6693 23.5034 31.5503L23.4195 30.6592H21.6986L21.6147 31.5503C21.0482 31.6693 20.5092 31.8946 20.0258 32.2146L19.338 31.6431L18.1206 32.8663L18.6901 33.5582C18.3716 34.0449 18.1472 34.5876 18.0285 35.1579L17.1426 35.2423V36.9734L18.0285 37.0565C18.1469 37.6269 18.3714 38.1696 18.6901 38.6561L18.1206 39.348L19.338 40.5727L20.0258 39.9998C20.5092 40.3197 21.0482 40.5451 21.6147 40.664L21.6986 41.5566H23.4195L23.5034 40.664C24.0698 40.5451 24.6088 40.3197 25.0922 39.9998L25.78 40.5727L26.9974 39.348L26.4279 38.6561C26.7472 38.1699 26.9717 37.6271 27.0896 37.0565L27.9754 36.9734V35.2437L27.0896 35.1593ZM24.8886 36.1086C24.8886 36.5723 24.7519 37.0255 24.4958 37.4111C24.2397 37.7966 23.8756 38.097 23.4498 38.2744C23.0239 38.4518 22.5553 38.4981 22.1032 38.4076C21.6511 38.317 21.2359 38.0936 20.9101 37.7657C20.5842 37.4377 20.3624 37.0199 20.2727 36.5651C20.1829 36.1102 20.2292 35.6389 20.4058 35.2105C20.5824 34.7822 20.8813 34.4162 21.2647 34.1588C21.6481 33.9014 22.0988 33.7641 22.5597 33.7644C22.8656 33.7644 23.1686 33.8251 23.4512 33.9429C23.7339 34.0607 23.9907 34.2334 24.207 34.4511C24.4232 34.6688 24.5948 34.9272 24.7117 35.2116C24.8287 35.496 24.8888 35.8008 24.8886 36.1086Z" fill="#25BBA4"/>
<path d="M52.2873 59.0668C52.32 58.2916 52.2061 57.5173 51.9516 56.7849L52.9146 56.0778L51.7398 54.0976L50.6655 54.6123C50.1452 54.0385 49.5216 53.569 48.8276 53.2285L49.0092 52.0495L46.7863 51.4863L46.3832 52.6127C45.6127 52.5806 44.8431 52.6951 44.1148 52.9504L43.4119 51.9817L41.4434 53.1649L41.9551 54.2442C41.3847 54.7676 40.918 55.3949 40.5795 56.093L39.4075 55.9117L38.8477 58.1479L39.9646 58.5465C39.9327 59.3216 40.0466 60.0958 40.3003 60.8283L39.3374 61.5355L40.5135 63.5157L41.5865 63.0023C42.1071 63.5758 42.7306 64.0453 43.4243 64.3861L43.2441 65.5651L45.4671 66.1297L45.8632 65.0047C46.6338 65.0375 47.4035 64.9229 48.1316 64.667L48.8345 65.6357L50.803 64.4525L50.2927 63.3732C50.8628 62.8495 51.3295 62.2222 51.6683 61.5244L52.8485 61.7029L53.4098 59.4667L52.2873 59.0668ZM49.1344 59.5719C48.9843 60.1709 48.661 60.7117 48.2053 61.1258C47.7496 61.54 47.1821 61.8089 46.5745 61.8986C45.9669 61.9883 45.3465 61.8947 44.7918 61.6296C44.2371 61.3646 43.773 60.94 43.4581 60.4096C43.1433 59.8792 42.9919 59.2667 43.0231 58.6498C43.0543 58.0328 43.2667 57.439 43.6334 56.9435C44.0001 56.4479 44.5047 56.0729 45.0833 55.8659C45.6619 55.6588 46.2885 55.629 46.8839 55.7803C47.6821 55.983 48.3675 56.4963 48.7896 57.2073C49.2116 57.9183 49.3356 58.7689 49.1344 59.5719Z" fill="#25BBA4"/>
<path d="M38.3169 59.6522C38.2452 59.3068 38.1094 58.9782 37.9166 58.6835L38.2605 58.2684L37.5245 57.5267L37.1118 57.874C36.8191 57.6796 36.4923 57.543 36.1489 57.4713L36.098 56.9316H35.0567L35.0058 57.4713C34.6624 57.543 34.3356 57.6796 34.0429 57.874L33.6302 57.5267L32.8942 58.2684L33.2381 58.6835C33.0457 58.9783 32.9104 59.3069 32.8392 59.6522L32.3027 59.7034V60.7509L32.8392 60.8021C32.9105 61.1474 33.0458 61.476 33.2381 61.7708L32.8942 62.1859L33.6302 62.9276L34.0429 62.5803C34.3353 62.7752 34.6622 62.9119 35.0058 62.983L35.0567 63.5227H36.098L36.1489 62.983C36.4925 62.9119 36.8194 62.7752 37.1118 62.5803L37.5245 62.9276L38.2673 62.1873L37.9234 61.7722C38.1162 61.4774 38.252 61.1488 38.3237 60.8035L38.8602 60.7523V59.7103L38.3169 59.6522ZM36.9853 60.2265C36.9853 60.507 36.9026 60.7812 36.7477 61.0145C36.5927 61.2477 36.3725 61.4295 36.1149 61.5369C35.8572 61.6442 35.5737 61.6723 35.3002 61.6176C35.0267 61.5629 34.7755 61.4278 34.5783 61.2294C34.3811 61.0311 34.2468 60.7783 34.1924 60.5032C34.138 60.228 34.1659 59.9428 34.2726 59.6837C34.3793 59.4245 34.5601 59.203 34.7919 59.0471C35.0238 58.8913 35.2964 58.8081 35.5753 58.8081C35.7605 58.8081 35.9438 58.8448 36.1149 58.916C36.2859 58.9873 36.4414 59.0918 36.5723 59.2235C36.7032 59.3552 36.8071 59.5116 36.878 59.6837C36.9488 59.8558 36.9853 60.0402 36.9853 60.2265Z" fill="#25BBA4"/>
<path d="M63.2262 37.1144C63.1078 36.5414 62.8823 35.9962 62.5618 35.5078L63.134 34.8159L61.9111 33.5857L61.2233 34.1613C60.737 33.8395 60.1947 33.6127 59.6248 33.493L59.5409 32.5977H57.8091L57.7251 33.493C57.1554 33.613 56.6132 33.8398 56.1267 34.1613L55.4389 33.5857L54.2146 34.8159L54.7869 35.5078C54.4674 35.9968 54.2421 36.5418 54.1224 37.1144L53.2324 37.1988V38.9396L54.1224 39.024C54.2421 39.5966 54.4674 40.1416 54.7869 40.6306L54.2146 41.3225L55.4389 42.5527L56.1267 41.977C56.6132 42.2986 57.1554 42.5253 57.7251 42.6454L57.8091 43.5407H59.5382L59.6221 42.6454C60.1918 42.5251 60.7339 42.2984 61.2205 41.977L61.9083 42.5527L63.1313 41.3225L62.559 40.6306C62.8796 40.1422 63.105 39.597 63.2234 39.024L64.1148 38.9396V37.1988L63.2262 37.1144ZM61.0156 38.0692C61.0156 38.5345 60.8784 38.9893 60.6215 39.3761C60.3645 39.763 59.9993 40.0645 59.572 40.2426C59.1447 40.4206 58.6745 40.4672 58.2208 40.3764C57.7672 40.2857 57.3505 40.0616 57.0235 39.7326C56.6964 39.4036 56.4737 38.9845 56.3835 38.5281C56.2932 38.0718 56.3395 37.5988 56.5165 37.1689C56.6935 36.7391 56.9933 36.3717 57.3778 36.1132C57.7624 35.8547 58.2145 35.7167 58.6771 35.7167C59.2973 35.7167 59.8921 35.9646 60.3306 36.4058C60.7692 36.8469 61.0156 37.4453 61.0156 38.0692Z" fill="#25BBA4"/>
<path d="M21.6968 44.8165C21.5348 44.8303 21.3783 44.8821 21.2399 44.9679C21.1015 45.0538 20.9852 45.1711 20.9003 45.3106L20.3996 45.3521L20.1657 42.543L17.4351 42.7727H17.4159L17.4475 43.1657C17.6343 43.2815 17.7799 43.4537 17.8635 43.6577C17.9471 43.8618 17.9644 44.0872 17.9129 44.3018C17.8614 44.5163 17.7438 44.709 17.5769 44.8522C17.41 44.9955 17.2023 45.0819 16.9836 45.0993C16.7649 45.1166 16.5463 45.0639 16.3592 44.9487C16.1721 44.8335 16.0259 44.6617 15.9417 44.4579C15.8575 44.2541 15.8395 44.0287 15.8903 43.814C15.9411 43.5993 16.0581 43.4063 16.2246 43.2625L16.193 42.8751H16.1545L13.4335 43.1062L13.6674 45.9236L13.3455 45.9513C13.2028 45.7836 13.011 45.6657 12.7976 45.6143C12.5842 45.563 12.3602 45.5808 12.1575 45.6653C11.9548 45.7498 11.7839 45.8966 11.6691 46.0847C11.5544 46.2728 11.5018 46.4926 11.5187 46.7127C11.5357 46.9327 11.6214 47.1418 11.7637 47.3098C11.9059 47.4779 12.0973 47.5964 12.3105 47.6484C12.5237 47.7004 12.7478 47.6833 12.9508 47.5994C13.1537 47.5155 13.3251 47.3692 13.4404 47.1815L13.7692 47.1538L13.9948 49.8868L20.727 49.3222L20.5014 46.5878L20.9952 46.5463C21.1112 46.6822 21.26 46.7858 21.4272 46.8472C21.5945 46.9087 21.7746 46.9259 21.9503 46.8972C22.1261 46.8686 22.2916 46.795 22.431 46.6836C22.5704 46.5722 22.679 46.4266 22.7465 46.2608C22.8139 46.0951 22.8379 45.9147 22.8162 45.7369C22.7945 45.5591 22.7277 45.39 22.6224 45.2456C22.517 45.1012 22.3766 44.9864 22.2145 44.9123C22.0525 44.8381 21.8742 44.8071 21.6968 44.8221V44.8165Z" fill="#00D2D3"/>
<path d="M25.7214 59.6881C25.8396 59.7696 25.9368 59.8783 26.005 60.0051C26.0732 60.1319 26.1103 60.2733 26.1134 60.4174L26.4697 60.6623L27.8536 58.6309L25.8851 57.2734L26.0735 56.9967C26.2741 56.9922 26.4682 56.924 26.6279 56.8018C26.7876 56.6796 26.9048 56.5097 26.9627 56.3164C27.0205 56.1231 27.0161 55.9164 26.95 55.7258C26.8839 55.5352 26.7596 55.3705 26.5948 55.2553C26.43 55.1402 26.2332 55.0804 26.0325 55.0847C25.8319 55.0889 25.6378 55.1569 25.4779 55.2789C25.3181 55.4009 25.2007 55.5707 25.1426 55.7639C25.0846 55.9571 25.0888 56.1639 25.1546 56.3546L24.962 56.6313L22.9963 55.2821L21.6207 57.308L21.9811 57.5571C22.1618 57.4938 22.3578 57.4896 22.541 57.5451C22.7241 57.6007 22.8852 57.7131 23.001 57.8663C23.1168 58.0195 23.1814 58.2057 23.1857 58.3981C23.1899 58.5905 23.1335 58.7793 23.0245 58.9376C22.9156 59.0958 22.7596 59.2153 22.5791 59.2789C22.3985 59.3425 22.2025 59.347 22.0192 59.2918C21.836 59.2366 21.6747 59.1244 21.5587 58.9714C21.4426 58.8184 21.3777 58.6324 21.3731 58.44L21.0168 58.1936L19.6729 60.1669L24.5274 63.513L25.8658 61.5493L25.5054 61.3003C25.3594 61.351 25.2029 61.3632 25.0508 61.3358C24.8987 61.3085 24.7561 61.2424 24.6366 61.144C24.5171 61.0455 24.4246 60.9179 24.368 60.7733C24.3114 60.6287 24.2925 60.4719 24.3131 60.3179C24.3337 60.1639 24.3932 60.0178 24.4859 59.8934C24.5785 59.7691 24.7013 59.6706 24.8424 59.6075C24.9836 59.5444 25.1385 59.5186 25.2923 59.5328C25.4462 59.5469 25.5939 59.6004 25.7214 59.6881Z" fill="#00D2D3"/>
<path d="M43.7671 21.623H38.8066V57.2309H43.7671V21.623Z" fill="#00D2D3"/>
<path opacity="0.2" d="M43.7671 21.623H38.8066V57.2309H43.7671V21.623Z" fill="black"/>
<path d="M39.4254 20.7888C34.7167 19.7648 32.2406 22.6168 32.2406 22.6168C30.6298 22.6168 30.3684 23.9287 30.3684 23.9287C29.6191 24.2341 28.9716 24.7475 28.5012 25.409C28.0309 26.0705 27.7573 26.8529 27.7121 27.6649C27.7121 27.6649 26.232 29.295 25.7092 30.6511C25.1865 32.0073 25.7092 32.4791 25.7092 32.4791C25.7092 32.4791 23.8659 32.9815 24.7257 35.8086C24.7257 35.8086 22.4312 37.2505 23.4065 43.1939C23.4065 43.1939 23.5784 44.925 24.6115 45.7332C24.6115 45.7332 23.8082 47.694 25.6432 49.2522C25.6432 49.2522 27.254 55.5415 31.2956 56.6375C31.2956 56.6375 31.6092 58.7132 34.8721 59.1768C34.8721 59.1768 39.1172 60.0998 40.0348 58.3686C40.9523 56.6375 40.7803 49.0086 40.7803 49.0086V21.6661C40.7803 21.6661 40.2218 20.9646 39.4254 20.7888Z" fill="#00D2D3"/>
<g opacity="0.1">
<path d="M32.0781 48.3626C32.7421 48.5955 33.4252 48.7692 34.1195 48.8815C34.8172 48.9945 35.5319 48.9273 36.1967 48.6864C36.7648 48.4622 37.2518 48.0789 37.7786 47.7703C38.3055 47.4617 38.9149 47.2168 39.5146 47.3303C38.82 46.8335 37.8818 46.8183 37.0564 47.03C36.2311 47.2417 35.4704 47.6513 34.6753 47.9571C33.8802 48.2629 32.9984 48.4622 32.1772 48.2339" fill="black"/>
</g>
<g opacity="0.1">
<path d="M37.1139 56.9433C36.0135 56.4106 36.3945 54.7722 36.3945 54.7722C35.5347 55.2925 33.6722 56.2501 31.181 54.476C29.8673 53.5392 29.727 52.1457 29.7971 51.1383C28.5948 52.0336 27.7777 51.3016 26.8602 50.1115C25.9427 48.9215 25.7336 47.3439 25.6648 45.837C25.2362 45.8574 24.8097 45.7659 24.4268 45.5713C24.4853 45.6285 24.5468 45.6825 24.6111 45.7332C24.6111 45.7332 23.8077 47.694 25.6428 49.2522C25.6428 49.2522 27.2536 55.5416 31.2951 56.6375C31.2951 56.6375 31.6088 58.7132 34.8717 59.1768C34.8717 59.1768 39.1168 60.0998 40.0343 58.3687C40.3452 57.7819 40.5323 56.5144 40.641 55.0974C39.8252 55.4945 40.0426 58.3631 37.1139 56.9433Z" fill="black"/>
</g>
<path d="M40.9053 30.8312C40.0098 29.6591 38.4169 29.0738 36.9959 29.4474C36.2934 29.6492 35.6307 29.9712 35.037 30.3994C34.4249 30.8146 33.8333 31.2657 33.1951 31.6642C31.9142 32.4594 30.4929 32.9988 29.0091 33.2528C28.2773 33.4023 27.3845 33.358 26.8673 32.7367C26.6123 32.4498 26.4624 32.0838 26.4427 31.6994C26.4229 31.3151 26.5344 30.9355 26.7586 30.6236C26.5624 30.9347 26.476 31.3033 26.5134 31.6698C26.5509 32.0363 26.7099 32.3795 26.965 32.644C27.4849 33.1975 28.2732 33.1975 28.9706 33.0411C30.4154 32.7531 31.7972 32.2071 33.0506 31.429C33.6765 31.0443 34.2667 30.5904 34.8953 30.1836C35.524 29.7767 36.198 29.4031 36.9477 29.2412C37.6905 29.0809 38.4639 29.1472 39.1689 29.4317C39.874 29.7162 40.4786 30.2059 40.9053 30.8381V30.8312Z" fill="#00D2D3"/>
<path d="M31.3551 30.2448C30.4706 30.444 29.6823 29.5778 29.6163 28.7295C29.5131 27.884 29.8749 27.0537 30.3481 26.3618C30.2106 26.7534 30.073 27.1354 29.9781 27.5242C29.659 28.652 30.007 30.1202 31.3537 30.2406L31.3551 30.2448Z" fill="#00D2D3"/>
<path d="M30.6757 30.117C30.2149 29.9578 29.716 29.9485 29.2497 30.0903C28.7833 30.2321 28.3731 30.5179 28.0771 30.9071C28.3523 29.8264 29.8558 29.3697 30.6757 30.117Z" fill="#00D2D3"/>
<path d="M36.4022 29.5049C36.7763 29.0275 36.8149 28.3868 36.6305 27.8277C36.2536 26.6764 34.9798 26.1672 33.8862 25.961C33.3153 25.8641 32.6702 25.8586 32.2148 26.2793C32.5918 25.7603 33.3236 25.6815 33.9165 25.7465C34.8271 25.8544 35.79 26.1879 36.4022 26.9186C37.0047 27.6216 37.1354 28.8559 36.4022 29.5049Z" fill="#00D2D3"/>
<path d="M32.3097 24.4497C32.124 25.8224 32.0772 26.7648 33.5656 27.3003C31.9149 27.2519 31.6398 25.7076 32.3097 24.4497Z" fill="#00D2D3"/>
<path d="M40.7646 28.1953C39.9558 26.8502 37.8552 26.871 37.3174 25.3018C38.1593 26.6122 40.2639 26.5998 40.7646 28.1953Z" fill="#00D2D3"/>
<path d="M36.9812 21.7041C35.7307 22.3642 36.0182 24.152 37.3938 24.3679C37.9867 24.4938 38.6319 24.3762 39.2839 24.4703C39.9139 24.5423 40.6348 24.9768 40.6595 25.677C40.5151 25.0349 39.8562 24.7222 39.2564 24.6848C38.3581 24.6198 37.1779 24.9311 36.4295 24.1811C35.6468 23.4172 35.9302 22.0265 36.9798 21.7041H36.9812Z" fill="#00D2D3"/>
<path d="M24.7461 35.8192C25.5715 35.8497 26.0942 35.1979 26.8095 34.8617C27.1717 34.6879 27.566 34.5924 27.9671 34.5812C28.3682 34.57 28.7672 34.6434 29.1384 34.7966C28.759 34.7461 28.3747 34.7461 27.9953 34.7966C27.6252 34.8471 27.2649 34.9535 26.9264 35.1121C26.273 35.4207 25.5412 36.0946 24.7502 35.8192H24.7461Z" fill="#00D2D3"/>
<path d="M26.4864 36.4251C28.9946 37.0833 31.6595 36.7235 33.9064 35.4232C35.0137 34.7839 36.0248 33.7751 37.3798 33.67C38.7347 33.5648 39.8861 34.604 40.5547 35.6972C39.9783 34.932 39.2506 34.2304 38.3221 33.9619C36.6713 33.5039 35.37 34.8835 34.0453 35.6612C31.7921 36.9883 28.9459 37.3024 26.4795 36.4251H26.4864Z" fill="#00D2D3"/>
<path d="M38.373 38.0698C38.8476 38.5403 39.5946 38.6081 40.2219 38.723C40.4447 38.752 40.6703 38.7742 40.9097 38.8074C40.1765 39.0952 38.6633 38.9305 38.3772 38.0698H38.373Z" fill="#00D2D3"/>
<path d="M40.7451 41.7529C39.4644 42.8752 37.5152 41.4208 36.2483 42.5929C35.3693 43.3291 34.7736 44.6423 33.5507 44.9661C33.1573 45.0907 32.757 45.1515 32.3732 45.2346C31.6096 45.3779 30.8975 45.7227 30.3098 46.2337C29.1268 47.2342 28.6398 49.0566 29.3785 50.4639C29.7394 51.1794 30.363 51.7254 31.1173 51.9861C30.7273 51.8792 30.3624 51.6955 30.0436 51.4456C29.7248 51.1957 29.4585 50.8846 29.2602 50.5304C28.4156 49.076 28.8957 47.1138 30.1378 46.0386C30.7569 45.4913 31.5101 45.1205 32.3195 44.9647C32.9014 44.8416 33.4819 44.7793 33.9964 44.4887C34.8658 43.9878 35.3266 43.0371 36.119 42.4255C37.5455 41.2008 39.3558 42.7908 40.7479 41.7543L40.7451 41.7529Z" fill="#00D2D3"/>
<path d="M31.0566 50.3468C31.5425 49.772 31.8652 49.0759 31.9907 48.332C32.2658 49.0959 31.816 50.0673 31.0566 50.3468Z" fill="#00D2D3"/>
<path d="M30.8838 48.0874C32.5538 48.4569 34.2127 47.949 35.7686 47.3595C36.9406 46.9139 38.3175 46.4739 39.5171 47.0828C39.9078 47.2691 40.2292 47.5759 40.4346 47.9587C40.1929 47.6155 39.854 47.3537 39.462 47.2073C37.8251 46.5611 36.217 47.6058 34.6571 48.0279C33.4397 48.3738 32.0957 48.5371 30.8838 48.0902V48.0874Z" fill="#00D2D3"/>
<path d="M40.8901 51.4976C39.1995 52.9782 36.4167 53.0529 34.6504 51.6608C35.6215 52.1592 36.7011 52.4053 37.7909 52.3768C38.8807 52.3483 39.9461 52.046 40.8901 51.4976Z" fill="#00D2D3"/>
<path d="M31.1797 56.5523C32.9437 56.5893 34.6785 56.0959 36.1621 55.1353C35.5184 55.7759 34.7238 56.242 33.8525 56.4898C32.9811 56.7376 32.0615 56.7591 31.1797 56.5523Z" fill="#00D2D3"/>
<path d="M28.0091 54.1453C27.6583 52.8861 28.5249 51.4206 29.7974 51.1328C29.5394 51.2999 29.2988 51.4927 29.0793 51.7085C28.438 52.3613 28.0581 53.2287 28.0118 54.1453H28.0091Z" fill="#00D2D3"/>
<path d="M29.8645 46.2889C26.7817 45.085 24.611 41.8428 24.6661 38.5161C24.8465 40.137 25.4133 41.6901 26.3183 43.0434C27.2234 44.3966 28.4399 45.51 29.8645 46.2889Z" fill="#00D2D3"/>
<path d="M25.3502 41.7323C24.8316 41.8707 24.5634 42.3232 24.379 42.7937C24.313 42.9556 24.2511 43.1244 24.1631 43.2918C24.1077 42.915 24.1773 42.5303 24.3611 42.1972C24.5524 41.8707 24.9719 41.5953 25.3502 41.7323Z" fill="#00D2D3"/>
<path d="M24.5127 45.4335C24.9253 45.6518 25.3851 45.7644 25.8513 45.7613C26.3175 45.7581 26.7758 45.6394 27.1855 45.4155C26.5596 46.2458 25.151 46.2458 24.5127 45.4335Z" fill="#00D2D3"/>
<path d="M35.2676 34.896C35.9939 35.7083 36.2099 36.8555 36.2553 37.9196C36.3928 40.8117 34.1795 41.4649 31.7392 41.3237C30.6646 41.241 29.6223 40.9161 28.6895 40.3731C29.6544 40.8132 30.6944 41.0627 31.7529 41.1079C33.1877 41.1286 35.1438 40.9695 35.7752 39.4473C35.9613 38.9621 36.0515 38.4451 36.0407 37.9251C36.0407 36.8762 35.9031 35.7719 35.2676 34.8988V34.896Z" fill="#00D2D3"/>
<path d="M32.1514 36.4775C32.2786 36.9985 32.2538 37.5452 32.0799 38.0523C31.8887 38.5477 31.3921 39.021 30.835 38.9518C31.8845 38.6031 31.9781 37.413 32.1514 36.4775Z" fill="#00D2D3"/>
<path d="M33.2904 27.123C33.0416 27.879 33.062 28.6985 33.3482 29.4409C32.6962 28.8874 32.6604 27.7153 33.2904 27.123Z" fill="#00D2D3"/>
<path d="M33.2914 22.6245C33.6861 23.3197 34.3361 23.8314 35.1017 24.0498C35.3612 24.1187 35.6273 24.159 35.8954 24.1702C34.8101 24.5854 33.4647 23.78 33.29 22.6287L33.2914 22.6245Z" fill="#00D2D3"/>
<path d="M34.023 44.5308C33.4645 43.5704 32.3255 43.2563 31.2828 43.3117C30.9265 43.3227 30.5675 43.3643 30.2002 43.3947C30.8865 43.0903 31.6462 42.9941 32.386 43.1179C33.1123 43.2674 33.8538 43.7794 34.023 44.5336V44.5308Z" fill="#00D2D3"/>
<path d="M38.5851 59.2597C38.2181 58.3629 37.5277 57.6387 36.6523 57.2324C37.6758 57.2532 38.6057 58.2315 38.5851 59.2597Z" fill="#00D2D3"/>
<path d="M37.7559 57.6883C38.6005 56.7113 39.5868 55.5116 38.899 54.1665C39.4355 54.6591 39.4492 55.5337 39.1631 56.1716C38.877 56.8096 38.3377 57.316 37.7559 57.6938V57.6883Z" fill="#00D2D3"/>
<g opacity="0.3">
<path d="M40.9014 30.8312C40.0059 29.6591 38.4129 29.0738 36.9919 29.4474C36.2895 29.6492 35.6268 29.9712 35.0331 30.3994C34.4209 30.8146 33.8294 31.2657 33.1912 31.6642C31.9103 32.4594 30.489 32.9988 29.0052 33.2528C28.2734 33.4023 27.3806 33.358 26.8634 32.7367C26.6084 32.4498 26.4585 32.0838 26.4388 31.6994C26.419 31.3151 26.5305 30.9355 26.7547 30.6236C26.5585 30.9347 26.4721 31.3033 26.5095 31.6698C26.547 32.0363 26.706 32.3795 26.9611 32.644C27.481 33.1975 28.2693 33.1975 28.9667 33.0411C30.4115 32.7531 31.7933 32.2071 33.0467 31.429C33.6726 31.0443 34.2628 30.5904 34.8914 30.1836C35.5201 29.7767 36.1941 29.4031 36.9438 29.2412C37.6866 29.0809 38.46 29.1472 39.165 29.4317C39.8701 29.7162 40.4747 30.2059 40.9014 30.8381V30.8312Z" fill="black"/>
<path d="M31.3561 30.2423C30.4715 30.4416 29.6833 29.5753 29.6173 28.7271C29.5141 27.8816 29.8759 27.0513 30.3491 26.3594C30.2116 26.751 30.074 27.1329 29.9791 27.5218C29.6599 28.6496 30.008 30.1178 31.3547 30.2382L31.3561 30.2423Z" fill="black"/>
<path d="M30.6786 30.116C30.2178 29.9569 29.7189 29.9475 29.2526 30.0893C28.7862 30.2311 28.3761 30.5169 28.0801 30.9062C28.3552 29.8254 29.8587 29.3688 30.6786 30.116Z" fill="black"/>
<path d="M36.4022 29.5039C36.7763 29.0265 36.8149 28.3858 36.6305 27.8268C36.2536 26.6754 34.9798 26.1662 33.8862 25.96C33.3153 25.8632 32.6702 25.8576 32.2148 26.2783C32.5918 25.7594 33.3236 25.6805 33.9165 25.7455C34.8271 25.8535 35.79 26.187 36.4022 26.9176C37.0047 27.6206 37.1354 28.8549 36.4022 29.5039Z" fill="black"/>
<path d="M32.3117 24.4492C32.126 25.8219 32.0792 26.7643 33.5676 27.2998C31.9169 27.2514 31.6417 25.7071 32.3117 24.4492Z" fill="black"/>
<path d="M40.7646 28.1953C39.9558 26.8502 37.8552 26.871 37.3174 25.3018C38.1593 26.6122 40.2639 26.5998 40.7646 28.1953Z" fill="black"/>
<path d="M36.9812 21.7046C35.7307 22.3647 36.0182 24.1525 37.3938 24.3684C37.9867 24.4943 38.6319 24.3767 39.2839 24.4708C39.9139 24.5428 40.6348 24.9773 40.6595 25.6775C40.5151 25.0354 39.8562 24.7227 39.2564 24.6853C38.3581 24.6203 37.1779 24.9316 36.4295 24.1816C35.6468 23.4177 35.9302 22.027 36.9798 21.7046H36.9812Z" fill="black"/>
<path d="M24.7471 35.8192C25.5724 35.8497 26.0952 35.1979 26.8105 34.8617C27.1727 34.6879 27.567 34.5924 27.9681 34.5812C28.3692 34.57 28.7682 34.6434 29.1394 34.7966C28.76 34.7461 28.3756 34.7461 27.9962 34.7966C27.6262 34.8471 27.2659 34.9535 26.9274 35.1121C26.274 35.4207 25.5422 36.0946 24.7512 35.8192H24.7471Z" fill="black"/>
<path d="M26.4883 36.4256C28.9965 37.0838 31.6614 36.7239 33.9083 35.4237C35.0157 34.7844 36.0267 33.7756 37.3817 33.6704C38.7367 33.5653 39.8881 34.6045 40.5566 35.6977C39.9802 34.9325 39.2525 34.2309 38.324 33.9624C36.6733 33.5044 35.372 34.884 34.0473 35.6617C31.794 36.9888 28.9479 37.3029 26.4814 36.4256H26.4883Z" fill="black"/>
<path d="M38.3721 38.0698C38.8467 38.5403 39.5936 38.6081 40.2209 38.723C40.4437 38.752 40.6693 38.7742 40.9087 38.8074C40.1755 39.0952 38.6623 38.9305 38.3762 38.0698H38.3721Z" fill="black"/>
<path d="M40.7432 41.7529C39.4625 42.8752 37.5132 41.4208 36.2463 42.5929C35.3673 43.3291 34.7717 44.6423 33.5488 44.9661C33.1553 45.0907 32.755 45.1515 32.3712 45.2346C31.6076 45.3779 30.8955 45.7227 30.3078 46.2337C29.1248 47.2342 28.6379 49.0566 29.3766 50.4639C29.7374 51.1794 30.3611 51.7254 31.1153 51.9861C30.7254 51.8792 30.3604 51.6955 30.0417 51.4456C29.7229 51.1957 29.4566 50.8846 29.2583 50.5304C28.4136 49.076 28.8937 47.1138 30.1359 46.0386C30.7549 45.4913 31.5082 45.1205 32.3176 44.9647C32.8995 44.8416 33.48 44.7793 33.9945 44.4887C34.8638 43.9878 35.3247 43.0371 36.117 42.4255C37.5435 41.2008 39.3538 42.7908 40.7459 41.7543L40.7432 41.7529Z" fill="black"/>
<path d="M31.0527 50.3473C31.5386 49.7725 31.8612 49.0764 31.9868 48.3325C32.2619 49.0964 31.8121 50.0678 31.0527 50.3473Z" fill="black"/>
<path d="M30.8848 48.0874C32.5547 48.4569 34.2137 47.949 35.7695 47.3595C36.9415 46.9139 38.3185 46.4739 39.518 47.0828C39.9088 47.2691 40.2302 47.5759 40.4356 47.9587C40.1939 47.6155 39.8549 47.3537 39.463 47.2073C37.8261 46.5611 36.218 47.6058 34.658 48.0279C33.4406 48.3738 32.0967 48.5371 30.8848 48.0902V48.0874Z" fill="black"/>
<path d="M40.8901 51.4961C39.1995 52.9768 36.4167 53.0515 34.6504 51.6594C35.6215 52.1577 36.7011 52.4038 37.7909 52.3753C38.8807 52.3468 39.9461 52.0446 40.8901 51.4961Z" fill="black"/>
<path d="M31.1787 56.5508C32.9427 56.5879 34.6776 56.0945 36.1611 55.1338C35.5175 55.7745 34.7228 56.2405 33.8515 56.4883C32.9801 56.7361 32.0606 56.7576 31.1787 56.5508Z" fill="black"/>
<path d="M28.0101 54.1458C27.6593 52.8866 28.5259 51.4211 29.7983 51.1333C29.5403 51.3004 29.2998 51.4932 29.0803 51.709C28.439 52.3618 28.059 53.2292 28.0128 54.1458H28.0101Z" fill="black"/>
<path d="M29.8625 46.2879C26.7798 45.084 24.6091 41.8418 24.6641 38.5151C24.8445 40.136 25.4113 41.6891 26.3164 43.0424C27.2214 44.3957 28.438 45.5091 29.8625 46.2879Z" fill="black"/>
<path d="M25.3512 41.7328C24.8326 41.8712 24.5643 42.3237 24.38 42.7942C24.314 42.9561 24.2521 43.1249 24.164 43.2923C24.1086 42.9155 24.1783 42.5308 24.3621 42.1977C24.5533 41.8712 24.9729 41.5958 25.3512 41.7328Z" fill="black"/>
<path d="M24.5098 45.4335C24.9224 45.6518 25.3822 45.7644 25.8484 45.7613C26.3146 45.7581 26.7729 45.6394 27.1826 45.4155C26.5567 46.2458 25.148 46.2458 24.5098 45.4335Z" fill="black"/>
<path d="M35.2656 34.8955C35.9919 35.7078 36.2079 36.855 36.2533 37.9191C36.3909 40.8112 34.1775 41.4644 31.7372 41.3233C30.6626 41.2405 29.6203 40.9156 28.6875 40.3726C29.6524 40.8127 30.6924 41.0622 31.751 41.1074C33.1857 41.1281 35.1418 40.969 35.7732 39.4468C35.9594 38.9616 36.0496 38.4446 36.0387 37.9246C36.0387 36.8757 35.9012 35.7715 35.2656 34.8983V34.8955Z" fill="black"/>
<path d="M32.1504 36.4766C32.2777 36.9975 32.2528 37.5443 32.0789 38.0513C31.8877 38.5467 31.3911 39.02 30.834 38.9508C31.8836 38.6021 31.9771 37.412 32.1504 36.4766Z" fill="black"/>
<path d="M33.2885 27.1221C33.0396 27.878 33.06 28.6975 33.3462 29.4399C32.6942 28.8864 32.6584 27.7143 33.2885 27.1221Z" fill="black"/>
<path d="M33.2924 22.6245C33.6871 23.3197 34.3371 23.8314 35.1027 24.0498C35.3622 24.1187 35.6283 24.159 35.8964 24.1702C34.8111 24.5854 33.4657 23.78 33.291 22.6287L33.2924 22.6245Z" fill="black"/>
<path d="M34.023 44.5293C33.4645 43.569 32.3255 43.2549 31.2828 43.3102C30.9265 43.3213 30.5675 43.3628 30.2002 43.3932C30.8865 43.0889 31.6462 42.9927 32.386 43.1165C33.1123 43.2659 33.8538 43.7779 34.023 44.5321V44.5293Z" fill="black"/>
<path d="M38.5851 59.2568C38.2181 58.36 37.5277 57.6358 36.6523 57.2295C37.6758 57.2502 38.6057 58.2286 38.5851 59.2568Z" fill="black"/>
<path d="M37.7539 57.6892C38.5985 56.7123 39.5848 55.5125 38.897 54.1675C39.4335 54.6601 39.4473 55.5347 39.1611 56.1726C38.875 56.8105 38.3358 57.317 37.7539 57.6948V57.6892Z" fill="black"/>
</g>
<g opacity="0.2">
<path d="M29.7003 37.3854C29.467 37.3936 29.2359 37.4323 29.0125 37.5002C27.7566 37.7858 26.4399 37.591 25.319 36.9536L25.2158 37.1058C25.4354 39.1931 26.2354 41.1758 27.5241 42.8265C27.8556 43.2485 28.3302 43.6858 28.8515 43.5654C29.3454 43.4505 29.6012 42.8527 29.516 42.3504C29.4307 41.8481 29.1033 41.4261 28.7786 41.0344C28.454 40.6428 28.1115 40.2388 27.989 39.7434C27.9258 39.4832 27.989 39.1248 28.2545 39.086C28.52 39.0473 28.6672 39.3213 28.8859 39.4375C29.1404 39.5759 29.4678 39.4804 29.6851 39.2895C29.891 39.0851 30.0534 38.8407 30.1625 38.5713C30.3 38.2945 30.428 37.9762 30.289 37.7078C30.2271 37.6073 30.1402 37.5248 30.037 37.4683C29.9338 37.4118 29.8178 37.3832 29.7003 37.3854Z" fill="#25BBA4"/>
</g>
<g opacity="0.2">
<path d="M25.4063 35.1761C25.4706 35.1865 25.5364 35.1822 25.5987 35.1635C25.6611 35.1448 25.7185 35.1123 25.7667 35.0682L26.936 34.2753C27.0158 34.2213 27.1052 34.1493 27.101 34.0525C27.0915 33.9876 27.0593 33.9283 27.0102 33.885C26.7305 33.5781 26.3965 33.3262 26.0253 33.1419L25.9098 33.0894C25.7715 33.1583 25.6489 33.2554 25.5499 33.3745C25.451 33.4936 25.3777 33.6321 25.3348 33.7813C25.2513 34.0802 25.2101 34.3896 25.2123 34.7001C25.2082 34.8841 25.2316 35.118 25.4063 35.1761Z" fill="#25BBA4"/>
</g>
<g opacity="0.2">
<path d="M30.5872 31.1954C30.5803 30.9436 30.2956 30.7927 30.0466 30.7692C29.5844 30.7221 29.136 30.9076 28.6875 31.0321C28.2391 31.1567 27.7246 31.2065 27.3477 30.9297L27.3064 31.1221C27.2938 31.2739 27.3255 31.426 27.3976 31.56C27.4697 31.6939 27.579 31.8038 27.7122 31.8762C27.9824 32.0157 28.2855 32.0779 28.5885 32.0561C29.1337 32.0435 29.6702 31.9163 30.1635 31.6825C30.3685 31.5843 30.5927 31.4237 30.5872 31.1954Z" fill="#25BBA4"/>
</g>
<g opacity="0.2">
<path d="M31.0479 27.0545C30.9201 27.295 30.8575 27.5652 30.8664 27.8378C30.8389 28.3076 30.9058 28.7783 31.0631 29.2216C31.2242 29.6671 31.543 30.0371 31.9586 30.2608C32.1664 30.3689 32.3989 30.4196 32.6326 30.408C32.8662 30.3963 33.0926 30.3226 33.2888 30.1944C32.6698 29.9882 32.2956 29.3406 32.1525 28.7012C32.0095 28.0619 32.0411 27.3936 31.9297 26.7473L31.7316 26.7349C31.5987 26.7084 31.4609 26.7252 31.338 26.7826C31.2151 26.8401 31.1135 26.9353 31.0479 27.0545Z" fill="#25BBA4"/>
</g>
<g opacity="0.2">
<path d="M35.0135 28.8695C35.1433 28.7769 35.2506 28.6559 35.3275 28.5158C35.4045 28.3757 35.449 28.2199 35.4578 28.06C35.4578 27.6186 35.1002 27.2699 34.77 26.9779C34.6505 26.8504 34.501 26.7553 34.3354 26.7011C34.2519 26.6771 34.1627 26.6839 34.0839 26.7205C34.0051 26.7571 33.9421 26.8209 33.9062 26.9004C33.8869 26.9869 33.8897 27.0769 33.9144 27.1619C34.0446 27.8225 34.1758 28.4825 34.3078 29.1422L34.1634 29.2805C34.4658 29.1875 34.7524 29.0489 35.0135 28.8695Z" fill="#25BBA4"/>
</g>
<g opacity="0.2">
<path d="M39.212 28.0004C38.7801 27.862 38.3028 27.7983 37.9492 27.5119C37.626 27.2504 37.4623 26.8463 37.2738 26.4754C37.0336 25.954 36.6722 25.4983 36.2201 25.147C35.807 24.8608 35.3172 24.7075 34.8156 24.7075C34.314 24.7075 33.8242 24.8608 33.4111 25.147C34.4128 25.0344 35.4181 25.3254 36.2071 25.9563C36.9962 26.5872 37.5048 27.5067 37.6219 28.5138L37.6796 28.6342C38.5069 28.5595 39.3406 28.6465 40.1351 28.8902C40.0952 28.4377 39.6454 28.1401 39.212 28.0004Z" fill="#25BBA4"/>
</g>
<g opacity="0.2">
<path d="M40.3651 23.2235C40.2476 22.6705 40.0313 22.1435 39.7268 21.6681L39.4256 21.5297C39.085 21.4369 38.7264 21.4341 38.3844 21.5217C38.0424 21.6092 37.7287 21.784 37.4736 22.0293C37.2755 22.2244 37.1118 22.4845 37.1338 22.7627C37.1613 23.0976 37.4447 23.3508 37.7308 23.5238C38.3656 23.9044 39.1034 24.0744 39.8396 24.0095C40.0055 24.0116 40.1661 23.9508 40.2895 23.8393C40.4325 23.6774 40.4105 23.4324 40.3651 23.2235Z" fill="#25BBA4"/>
</g>
<g opacity="0.2">
<path d="M34.6224 22.9559C34.8081 23.0942 35.0654 23.2326 35.2483 23.0942C35.2991 23.0416 35.3389 22.9791 35.3651 22.9106C35.3913 22.8422 35.4036 22.7691 35.401 22.6957C35.4285 22.4189 35.4244 22.0827 35.1864 21.9471L34.9994 21.8765C34.8498 21.8537 34.6977 21.8537 34.5482 21.8765C34.467 21.8844 34.3896 21.9146 34.3243 21.9637C34.259 22.0128 34.2084 22.079 34.1779 22.155C34.1474 22.2311 34.1382 22.3141 34.1513 22.395C34.1645 22.476 34.1994 22.5517 34.2524 22.6141C34.3551 22.7488 34.4803 22.8644 34.6224 22.9559Z" fill="#25BBA4"/>
</g>
<g opacity="0.2">
<path d="M38.7355 30.1764C37.7822 29.7903 36.6899 30.2055 35.8371 30.7839C34.6224 31.6142 33.6609 32.7572 32.5549 33.7272C31.4489 34.6973 30.0981 35.5262 28.6303 35.4957C28.4033 35.4957 28.1557 35.4708 27.9686 35.6009C27.7815 35.731 27.7554 36.0866 27.9686 36.1544L28.142 36.2195C29.1998 36.1697 30.2631 36.1212 31.3058 35.9123C32.3485 35.7033 33.3692 35.3297 34.2097 34.6862C34.7696 34.26 35.2414 33.7176 35.8151 33.3163C36.3887 32.915 37.1191 32.6327 37.7932 32.8305C38.2691 32.9689 38.719 33.337 39.2032 33.2291C39.6874 33.1211 39.9377 32.6064 39.9639 32.122C39.9794 31.7107 39.8702 31.3043 39.6508 30.9568C39.4314 30.6094 39.1122 30.3372 38.7355 30.1764Z" fill="#25BBA4"/>
</g>
<g opacity="0.2">
<path d="M35.0054 36.7137C34.9593 36.6413 34.8989 36.5794 34.8279 36.5318C34.7568 36.4841 34.6768 36.4518 34.5927 36.4369H34.4152C34.2312 36.3904 34.0373 36.4037 33.8613 36.4751C33.6853 36.5465 33.5363 36.6721 33.4358 36.834C33.2102 37.2132 33.2983 37.6989 33.191 38.1279C33.0231 38.806 32.4027 39.2612 31.7947 39.6016C31.7148 39.6396 31.6429 39.6927 31.5829 39.758C31.5535 39.7916 31.5346 39.8331 31.5285 39.8774C31.5224 39.9216 31.5294 39.9667 31.5485 40.0071C31.5861 40.0594 31.6398 40.0978 31.7012 40.1164C32.2363 40.3309 32.8416 40.2119 33.4014 40.0735C33.9035 39.9504 34.429 39.7968 34.7963 39.4342C35.0722 39.1444 35.2462 38.7716 35.2915 38.3728C35.335 37.9764 35.3027 37.5753 35.1966 37.1911C35.1611 37.0219 35.0964 36.8603 35.0054 36.7137Z" fill="#25BBA4"/>
</g>
<g opacity="0.2">
<path d="M37.8883 34.8407C37.6463 34.7712 37.3872 34.7954 37.162 34.9085C37.0127 34.9682 36.8805 35.0646 36.7777 35.1888C36.6749 35.313 36.6046 35.4612 36.5732 35.6198C36.5237 35.9533 36.6902 36.2826 36.9048 36.54C37.1969 36.8824 37.5737 37.1412 37.9971 37.2901C38.4206 37.4391 38.8756 37.4729 39.3162 37.3882C39.4494 37.3694 39.5743 37.3117 39.6752 37.2222C39.8403 37.0478 39.8128 36.7669 39.7358 36.5303C39.5939 36.1151 39.3503 35.7426 39.0274 35.4472C38.7044 35.1519 38.3127 34.9433 37.8883 34.8407Z" fill="#25BBA4"/>
</g>
<g opacity="0.1">
<path d="M37.8535 34.835L37.8851 34.8422H37.8966L37.8535 34.835Z" fill="#25BBA4"/>
</g>
<g opacity="0.2">
<path d="M32.0336 32.9399C30.8991 33.4053 29.7093 33.7202 28.4941 33.8768C29.4887 34.3998 31.1917 34.1632 32.0336 32.9399Z" fill="#25BBA4"/>
</g>
<g opacity="0.2">
<path d="M30.2913 25.8833C30.3624 25.8108 30.4543 25.7625 30.554 25.7449C30.6035 25.7398 30.653 25.7543 30.692 25.7853C30.7311 25.8163 30.7566 25.8614 30.7631 25.911C30.7631 25.9982 30.6971 26.1116 30.7727 26.1531C30.8223 26.1794 30.8787 26.1352 30.9103 26.095C31.0217 25.9884 31.1167 25.8658 31.1923 25.7311C31.2291 25.6634 31.2506 25.5884 31.2554 25.5114C31.2601 25.4344 31.248 25.3573 31.2198 25.2855C31.1783 25.1954 31.1135 25.1182 31.0322 25.062C30.9509 25.0057 30.8561 24.9725 30.7576 24.9658C30.5783 24.9611 30.3997 24.9897 30.2307 25.0503C30.0001 25.1257 29.7889 25.2514 29.6121 25.4183C29.4352 25.5853 29.2971 25.7893 29.2075 26.016C29.118 26.2427 29.0792 26.4865 29.0939 26.73C29.1086 26.9735 29.1764 27.2107 29.2926 27.4249C29.4704 26.8247 29.8173 26.2893 30.2913 25.8833Z" fill="#25BBA4"/>
</g>
<g opacity="0.2">
<path d="M27.1812 30.0972L29.0589 29.0884C29.1084 29.0621 29.1662 29.0234 29.1621 28.9666C29.158 28.9099 29.0988 28.8808 29.0479 28.8628C28.7603 28.7615 28.4506 28.7414 28.1524 28.8047C27.5471 29.0054 27.2734 29.4164 27.1124 30.0377C27.1124 30.0612 27.1028 30.093 27.1248 30.1055C27.1468 30.1179 27.1633 30.1083 27.1812 30.0972Z" fill="#25BBA4"/>
</g>
<g opacity="0.3">
<path d="M39.428 20.7888C34.7193 19.7648 32.2432 22.6168 32.2432 22.6168C30.6324 22.6168 30.371 23.9287 30.371 23.9287C29.622 24.2343 28.9747 24.7478 28.5046 25.4093C28.0346 26.0708 27.7611 26.853 27.7161 27.6649C27.7161 27.6649 26.2346 29.295 25.7118 30.6511C25.1891 32.0073 25.7118 32.4791 25.7118 32.4791C25.7118 32.4791 23.8685 32.9815 24.7283 35.8086C24.7283 35.8086 23.9442 36.3026 23.4902 37.9009C23.8728 37.3275 24.4016 36.8682 25.0213 36.571C25.1588 36.506 25.3184 36.4327 25.3611 36.2832C25.3785 36.1469 25.3441 36.009 25.2648 35.8971C24.9429 35.2786 24.7695 34.5382 24.9979 33.8795C25.2262 33.2209 25.9471 32.7102 26.6156 32.8984C26.2816 32.4616 26.0721 31.9414 26.0097 31.3939C25.9474 30.8463 26.0344 30.292 26.2615 29.7904C26.4886 29.2889 26.8472 28.859 27.2988 28.5469C27.7504 28.2349 28.2779 28.0524 28.8248 28.0192C28.5907 27.679 28.4599 27.2777 28.4484 26.8641C28.4368 26.4505 28.5451 26.0425 28.76 25.6897C28.9748 25.3369 29.287 25.0545 29.6585 24.877C30.03 24.6994 30.4449 24.6344 30.8525 24.6897C30.7794 24.4532 30.7811 24.1997 30.8571 23.9641C30.9332 23.7285 31.08 23.5225 31.2772 23.3742C31.4745 23.226 31.7126 23.1429 31.9587 23.1364C32.2049 23.1298 32.447 23.2002 32.6517 23.3378C32.9159 22.3857 36.0261 19.4867 40.7912 21.716V21.6717C40.7912 21.6717 40.2244 20.9646 39.428 20.7888Z" fill="#25BBA4"/>
</g>
<g opacity="0.1">
<path d="M30.6182 43.188C30.8554 42.9757 31.1347 42.8165 31.4377 42.7211C31.7407 42.6257 32.0604 42.5962 32.3756 42.6345C32.6908 42.6729 32.9943 42.7782 33.2659 42.9435C33.5376 43.1088 33.7712 43.3304 33.9512 43.5934C34.2676 43.1461 34.6737 42.7706 35.1434 42.491C35.613 42.2114 36.1357 42.034 36.6777 41.9702C35.8922 42.9043 35.0957 43.8494 34.1149 44.5745C33.7641 44.0385 33.2521 43.6294 32.6537 43.4068C32.0553 43.1842 31.4018 43.1599 30.7887 43.3374" fill="black"/>
</g>
<g opacity="0.1">
<path d="M25.2734 41.7908C25.4217 42.9359 25.9425 43.9995 26.7547 44.8156C27.567 45.6316 28.6249 46.1543 29.7634 46.302C27.9366 45.1382 26.202 43.6658 25.3216 41.6787" fill="black"/>
</g>
<g opacity="0.1">
<path d="M36.6141 37.9991C36.5054 37.2422 36.2316 36.5213 35.9606 35.8086C36.0377 36.6126 36.0556 37.4207 36.0528 38.2289C36.0528 38.7824 36.0281 39.3788 35.7337 39.8534C35.4393 40.3281 34.9083 40.6187 34.3705 40.7944C33.2892 41.1528 32.1268 41.1556 30.9878 41.1348L30.2285 41.121C31.2781 41.4697 32.3634 41.7921 33.4667 41.7354C34.5699 41.6787 35.7089 41.1819 36.2674 40.2201C36.6512 39.5601 36.7227 38.7547 36.6141 37.9991Z" fill="black"/>
</g>
<g opacity="0.1">
<path d="M34.977 34.929C34.2355 35.4022 33.5312 35.9419 32.743 36.3294C31.9548 36.7168 30.3921 36.9548 29.4814 36.8386C30.4486 37.0315 31.4447 37.0232 32.4085 36.8142C33.3723 36.6053 34.2834 36.2001 35.0856 35.6236C35.8587 35.0604 36.5273 34.3367 37.3925 33.9326C36.5204 34.0364 35.717 34.4543 34.977 34.929Z" fill="black"/>
</g>
<path opacity="0.1" d="M36.2494 24.0195C36.2494 24.0195 36.0471 24.5578 37.1284 24.9716C38.2096 25.3853 38.6993 24.7654 39.5769 24.9716C40.4546 25.1778 40.2647 24.9716 40.2647 24.9716C40.2647 24.9716 39.9745 24.2714 38.7695 24.4485C37.5644 24.6256 36.2494 24.0195 36.2494 24.0195Z" fill="black"/>
<path opacity="0.1" d="M35.7881 52.2158C36.082 52.519 36.4355 52.7572 36.8261 52.9152C37.2167 53.0731 37.6357 53.1474 38.0565 53.1332C39.5215 53.1014 40.4046 51.8062 40.4046 51.8062C40.4046 51.8062 38.952 52.9312 35.7881 52.2158Z" fill="black"/>
<path d="M42.608 20.7214C47.3167 19.6974 49.7928 22.5494 49.7928 22.5494C51.4036 22.5494 51.6649 23.8613 51.6649 23.8613C52.414 24.1669 53.0613 24.6804 53.5313 25.3419C54.0014 26.0034 54.2748 26.7857 54.3199 27.5975C54.3199 27.5975 55.8014 29.2276 56.3241 30.5782C56.8468 31.9288 56.3241 32.4062 56.3241 32.4062C56.3241 32.4062 58.1674 32.9085 57.3077 35.7356C57.3077 35.7356 59.6022 37.1776 58.6269 43.121C58.6269 43.121 58.4549 44.8521 57.4218 45.6602C57.4218 45.6602 58.2252 47.6211 56.3901 49.1792C56.3901 49.1792 54.7793 55.4686 50.7378 56.5646C50.7378 56.5646 50.4242 58.6403 47.1612 59.1039C47.1612 59.1039 42.9161 60.0268 41.9986 58.2957C41.0811 56.5646 41.253 48.9357 41.253 48.9357V21.5988C41.253 21.5988 41.8115 20.8944 42.608 20.7214Z" fill="#00D2D3"/>
<g opacity="0.1">
<path d="M44.9255 56.8701C46.026 56.3373 45.6449 54.6975 45.6449 54.6975C46.5047 55.2192 48.3672 56.1754 50.8584 54.4014C52.1721 53.466 52.3125 52.0711 52.2423 51.0651C53.4446 51.9604 54.2617 51.2284 55.1792 50.0383C56.0967 48.8482 56.3058 47.2707 56.3746 45.7637C56.8031 45.7835 57.2295 45.692 57.6127 45.498C57.5541 45.5553 57.4926 45.6093 57.4283 45.66C57.4283 45.66 58.2317 47.6208 56.3966 49.179C56.3966 49.179 54.7858 55.4683 50.7443 56.5643C50.7443 56.5643 50.4306 58.64 47.1677 59.1036C47.1677 59.1036 42.9226 60.0265 42.0051 58.2954C41.6942 57.7087 41.5071 56.4411 41.3984 55.0241C42.2142 55.4268 41.9968 58.2954 44.9255 56.8701Z" fill="black"/>
</g>
<g opacity="0.2">
<path d="M56.6304 35.4802C56.5662 35.4906 56.5004 35.4863 56.438 35.4677C56.3756 35.449 56.3182 35.4164 56.27 35.3723L55.1008 34.578C55.021 34.524 54.9316 34.4535 54.9357 34.3566C54.945 34.2912 54.9772 34.2314 55.0265 34.1878C55.3056 33.881 55.6386 33.6287 56.0087 33.4433L56.1242 33.3921C56.2626 33.4609 56.3852 33.5579 56.4842 33.6771C56.5832 33.7962 56.6565 33.9348 56.6992 34.084C56.7828 34.3829 56.824 34.6923 56.8216 35.0028C56.8285 35.1883 56.8051 35.4221 56.6304 35.4802Z" fill="#25BBA4"/>
</g>
<g opacity="0.1">
<path d="M44.1837 34.7656L44.1521 34.7743H44.1406L44.1837 34.7656Z" fill="#25BBA4"/>
</g>
<g opacity="0.1">
<path d="M51.8173 24.9982L51.7965 24.9907H51.7891L51.8173 24.9982Z" fill="#25BBA4"/>
</g>
<g opacity="0.3">
<path d="M58.5521 37.8275C58.0954 36.2292 57.3141 35.7352 57.3141 35.7352C58.1738 32.9081 56.3305 32.4057 56.3305 32.4057C56.3305 32.4057 56.8519 31.9297 56.3305 30.5777C55.8091 29.2258 54.3263 27.597 54.3263 27.597C54.2812 26.7852 54.0077 26.0029 53.5377 25.3414C53.0676 24.6799 52.4204 24.1664 51.6713 23.8608C51.6713 23.8608 51.41 22.5489 49.7991 22.5489C49.7991 22.5489 47.3231 19.6969 42.6144 20.7209C41.8179 20.8939 41.2539 21.5983 41.2539 21.5983V21.6426C46.019 19.4133 49.1292 22.3123 49.3933 23.2644C49.5981 23.1268 49.8402 23.0564 50.0864 23.063C50.3325 23.0695 50.5706 23.1526 50.7679 23.3008C50.9651 23.449 51.1119 23.6551 51.188 23.8907C51.264 24.1263 51.2657 24.3798 51.1926 24.6163C51.5989 24.5624 52.0121 24.628 52.3821 24.8053C52.7521 24.9825 53.0631 25.2638 53.2776 25.6151C53.4921 25.9664 53.6008 26.3727 53.5906 26.7848C53.5805 27.197 53.4518 27.5973 53.2203 27.9375C53.7672 27.971 54.2947 28.1537 54.7462 28.4659C55.1977 28.7781 55.5563 29.2081 55.7833 29.7097C56.0104 30.2114 56.0974 30.7657 56.0351 31.3133C55.9728 31.8609 55.7634 32.3811 55.4295 32.8181C56.098 32.6299 56.8202 33.1392 57.0472 33.7992C57.2742 34.4593 57.1022 35.1982 56.7803 35.8168C56.701 35.9287 56.6666 36.0666 56.684 36.2029C56.7267 36.3509 56.8849 36.4257 57.0238 36.4907C57.6433 36.7902 58.1712 37.2519 58.5521 37.8275Z" fill="#25BBA4"/>
</g>
<g opacity="0.2">
<path d="M55.4753 30.1572C55.3555 29.8293 55.1484 29.5408 54.8767 29.3231C54.605 29.1055 54.2792 28.967 53.9347 28.9229L53.7311 28.9754C53.9362 29.5738 53.988 30.2144 53.8817 30.8382C53.7754 31.462 53.5145 32.0488 53.123 32.5443C53.4527 32.6571 53.8073 32.6743 54.1463 32.594C54.4852 32.5137 54.7949 32.339 55.0398 32.09C55.2848 31.841 55.4551 31.5277 55.5314 31.1859C55.6077 30.8441 55.5868 30.4876 55.4712 30.1572H55.4753Z" fill="#25BBA4"/>
</g>
<g opacity="0.2">
<path d="M48.7941 24.177C48.6043 23.4145 48.0403 22.7794 47.3594 22.3933C46.6644 22.0254 45.8941 21.8245 45.1089 21.8066C44.439 21.772 43.7471 21.8259 43.1459 22.1235C42.5448 22.421 42.0454 22.9994 41.9932 23.6705C42.0375 23.8931 42.1631 24.0909 42.3451 24.2251C42.5271 24.3593 42.7524 24.4201 42.9767 24.3957C43.6879 24.3195 44.4252 24.4316 45.1309 24.588C46.1062 24.8053 47.0788 25.1042 48.0774 25.0931C48.2975 25.0931 48.5397 25.0626 48.691 24.9021C48.8657 24.7181 48.8574 24.4233 48.7941 24.177Z" fill="#25BBA4"/>
</g>
<g opacity="0.2">
<path d="M49.181 27.4198C49.1439 27.1749 48.8715 27.0531 48.6308 26.9894C48.0206 26.8473 47.4008 26.751 46.7765 26.7016C45.7871 26.5692 44.7841 26.5772 43.7969 26.7251C43.4902 26.7736 43.1696 26.8483 42.9427 27.0614C42.6675 27.3188 42.5919 27.7215 42.574 28.0979C42.5379 28.5159 42.6045 28.9365 42.768 29.3225C42.852 29.5146 42.9799 29.6839 43.1412 29.8169C43.3026 29.9499 43.4928 30.0427 43.6965 30.0878C44.1821 30.1708 44.6594 29.9079 45.0803 29.6616C46.1808 29.0264 47.3198 28.4327 48.529 28.0397C48.6879 27.9991 48.8389 27.9323 48.9761 27.8419C49.0446 27.7964 49.0998 27.7332 49.1358 27.659C49.1719 27.5848 49.1875 27.5022 49.181 27.4198Z" fill="#25BBA4"/>
</g>
<path d="M41.1045 47.0912C42 48.2647 43.593 48.85 45.0139 48.475C45.7157 48.2768 46.3784 47.9584 46.9728 47.5341C47.585 47.1189 48.1751 46.6678 48.8147 46.2679C50.0959 45.4733 51.517 44.9339 53.0007 44.6793C53.7325 44.5298 54.6253 44.5741 55.1425 45.1954C55.3974 45.4827 55.5471 45.8489 55.5669 46.2334C55.5867 46.6179 55.4753 46.9977 55.2512 47.3099C55.4471 46.9984 55.5332 46.6297 55.4958 46.2631C55.4584 45.8964 55.2995 45.5531 55.0448 45.2881C54.5249 44.7346 53.7366 44.7346 53.0392 44.8924C51.5943 45.1793 50.2124 45.7249 48.9592 46.5031C48.3333 46.8878 47.7431 47.3431 47.1145 47.7485C46.4858 48.154 45.8118 48.5276 45.0621 48.6909C44.3192 48.8505 43.5459 48.7837 42.8409 48.499C42.136 48.2143 41.5314 47.7247 41.1045 47.0926V47.0912Z" fill="#00D2D3"/>
<path d="M50.6484 47.6721C51.5316 47.4742 52.3212 48.3405 52.3872 49.1943C52.4904 50.0453 52.1272 50.877 51.6554 51.5578C51.7929 51.1648 51.9305 50.7829 52.0254 50.394C52.3432 49.2662 51.9965 47.7994 50.6498 47.6776L50.6484 47.6721Z" fill="#00D2D3"/>
<path d="M51.3369 47.8088C51.7976 47.9681 52.2963 47.9777 52.7627 47.8361C53.229 47.6946 53.6393 47.4091 53.9354 47.02C53.6603 48.0994 52.1554 48.5574 51.3369 47.8088Z" fill="#00D2D3"/>
<path d="M45.6057 48.418C45.4337 48.6572 45.323 48.9354 45.2832 49.2278C45.2433 49.5203 45.2757 49.8182 45.3773 50.0951C45.7556 51.2478 47.0281 51.7557 48.1217 51.9619C48.6939 52.0587 49.3391 52.0657 49.7944 51.645C49.4175 52.1639 48.6857 52.2414 48.0928 52.1764C47.1821 52.0684 46.2192 51.7363 45.6071 51.0043C45.0032 50.3013 44.8739 49.067 45.6071 48.418H45.6057Z" fill="#00D2D3"/>
<path d="M49.6983 53.4738C49.884 52.1024 49.9308 51.1587 48.4424 50.6245C50.0931 50.6716 50.3682 52.2159 49.6983 53.4738Z" fill="#00D2D3"/>
<path d="M41.2402 52.0273C42.0491 53.3724 44.1496 53.3503 44.6875 54.9209C43.8456 53.6104 41.741 53.6215 41.2402 52.0273Z" fill="#00D2D3"/>
<path d="M57.2624 42.1032C56.4371 42.0714 55.9143 42.7245 55.199 43.0594C54.8369 43.2335 54.4426 43.3292 54.0414 43.3404C53.6403 43.3516 53.2412 43.278 52.8701 43.1244C53.2495 43.1749 53.6339 43.1749 54.0132 43.1244C54.3833 43.0735 54.7437 42.9666 55.0821 42.8075C55.7355 42.5003 56.4673 41.8264 57.2583 42.1018L57.2624 42.1032Z" fill="#00D2D3"/>
<path d="M55.2665 41.5156C52.8039 40.8712 50.1882 41.2255 47.9827 42.5023C46.8946 43.1291 45.9014 44.1199 44.5712 44.2237C43.241 44.3275 42.1103 43.3049 41.4541 42.231C42.0208 42.9811 42.7348 43.6702 43.6468 43.9331C45.2728 44.3815 46.5438 43.0267 47.8438 42.2629C50.0571 40.9607 52.8523 40.6535 55.272 41.5156H55.2665Z" fill="#00D2D3"/>
<path d="M41.2715 36.1682C42.5522 35.046 44.5014 36.5004 45.7683 35.3297C46.6473 34.5921 47.243 33.2803 48.4659 32.9551C48.8593 32.8305 49.2596 32.771 49.6434 32.688C50.4071 32.5442 51.1192 32.1989 51.7068 31.6875C52.8898 30.687 53.3754 28.8659 52.6381 27.4572C52.2773 26.7412 51.6529 26.1951 50.8979 25.9351C51.288 26.0417 51.6531 26.2252 51.9721 26.4748C52.2911 26.7245 52.5577 27.0354 52.7564 27.3894C53.6038 28.8521 53.1237 30.8088 51.8856 31.884C51.2666 32.4313 50.5133 32.802 49.7039 32.9578C49.122 33.0824 48.5402 33.1446 48.0257 33.4339C47.1577 33.9348 46.6969 34.8869 45.9045 35.4985C44.4766 36.7232 42.6677 35.1332 41.2756 36.1682H41.2715Z" fill="#00D2D3"/>
<path d="M50.95 27.5752C50.4639 28.1499 50.1412 28.846 50.016 29.59C49.7409 28.8248 50.1907 27.8547 50.95 27.5752Z" fill="#00D2D3"/>
<path d="M51.1233 29.8412C49.4533 29.4717 47.7943 29.9796 46.2385 30.5691C45.0665 31.0147 43.6895 31.4561 42.49 30.8459C42.0976 30.6618 41.7745 30.3557 41.5684 29.9727C41.81 30.3162 42.1489 30.5786 42.5409 30.7255C44.1779 31.3717 45.786 30.3269 47.3459 29.9049C48.5633 29.5575 49.9073 29.3956 51.1192 29.8412H51.1233Z" fill="#00D2D3"/>
<path d="M41.2715 26.2628C42.9635 24.7822 45.7463 24.7074 47.5112 26.0995C46.5401 25.6012 45.4605 25.3551 44.3707 25.3836C43.2809 25.4121 42.2155 25.7144 41.2715 26.2628Z" fill="#00D2D3"/>
<path d="M51.6719 32.8057C54.7546 34.0082 56.9253 37.2504 56.8703 40.5771C56.69 38.9563 56.1232 37.4034 55.2181 36.0503C54.3131 34.6972 53.0965 33.5841 51.6719 32.8057Z" fill="#00D2D3"/>
<path d="M57.5244 45.3671C56.8861 46.1822 55.4775 46.1725 54.8516 45.3491C55.2613 45.573 55.7195 45.6917 56.1857 45.6949C56.6519 45.698 57.1117 45.5854 57.5244 45.3671Z" fill="#00D2D3"/>
<path d="M46.7408 43.028C46.0145 42.2143 45.7986 41.0685 45.7532 40.0044C45.6156 37.1122 47.8289 36.4577 50.2693 36.6002C51.3438 36.6825 52.3861 37.0069 53.319 37.5495C52.3537 37.1106 51.3138 36.8617 50.2555 36.8161C48.8208 36.7953 46.8646 36.9545 46.2332 38.4767C46.0471 38.9618 45.9569 39.4789 45.9678 39.9988C45.9678 41.0478 46.1053 42.152 46.7408 43.0252V43.028Z" fill="#00D2D3"/>
<path d="M49.8599 41.4446C49.7319 40.9233 49.7568 40.3759 49.9314 39.8685C50.1226 39.3731 50.6192 38.8998 51.1763 38.9704C50.1268 39.3177 50.0332 40.5078 49.8599 41.4446Z" fill="#00D2D3"/>
<path d="M47.9883 33.3924C48.5468 34.3528 49.6858 34.6669 50.7285 34.6115C51.0848 34.5991 51.4438 34.559 51.8111 34.5271C51.1253 34.8332 50.3651 34.9295 49.6252 34.8039C48.8989 34.6558 48.1575 34.1438 47.9883 33.3896V33.3924Z" fill="#00D2D3"/>
<path d="M51.5686 23.7319C51.9193 24.9912 51.0527 26.4566 49.7803 26.7445C50.0383 26.5769 50.2789 26.3836 50.4983 26.1674C51.1393 25.5149 51.5193 24.6481 51.5658 23.7319H51.5686Z" fill="#00D2D3"/>
<path d="M50.8545 56.4844C49.9727 56.6912 49.0531 56.6697 48.1817 56.4219C47.3104 56.1741 46.5157 55.7081 45.8721 55.0674C47.3556 56.0281 49.0905 56.5215 50.8545 56.4844Z" fill="#00D2D3"/>
<g opacity="0.2">
<path d="M42.8132 32.0433C42.4652 32.5733 42.3428 33.6513 42.7334 34.1495C42.9337 34.3966 43.2043 34.5762 43.5089 34.6643C43.8136 34.7523 44.1377 34.7446 44.4378 34.6421C44.966 34.4511 45.3416 33.989 45.7501 33.6001C46.4307 32.9558 47.2547 32.4846 48.1533 32.226C48.4073 32.178 48.6505 32.0842 48.8714 31.9492C49.0805 31.7943 49.2194 31.5078 49.1162 31.2684C48.969 30.928 48.4903 30.9294 48.1285 31.011C47.2468 31.2117 46.4035 31.5576 45.5397 31.8261C44.6758 32.0945 43.7638 32.2855 42.8669 32.1623" fill="#25BBA4"/>
</g>
<g opacity="0.2">
<path d="M50.7282 37.9164C50.7062 37.8071 50.4531 37.6798 50.1986 37.6051L50.3018 37.6259C50.2316 37.6051 50.1642 37.5899 50.0872 37.576C50.023 37.5607 49.9577 37.5509 49.8919 37.547H49.907C49.4937 37.4955 49.0742 37.5432 48.6829 37.6862C48.2915 37.8293 47.9394 38.0636 47.6554 38.3699C47.3714 38.6763 47.1636 39.046 47.049 39.4487C46.9344 39.8514 46.9163 40.2757 46.9962 40.6868C47.0196 40.8787 47.1041 41.0578 47.2369 41.1974C47.3297 41.2718 47.4392 41.3219 47.5558 41.3434C47.6725 41.3649 47.7926 41.3571 47.9055 41.3206C48.4915 41.1628 48.8258 40.5554 49.0624 39.9949C49.299 39.4345 49.5493 38.8145 50.0872 38.5378C50.2358 38.4762 50.3805 38.4055 50.5205 38.3261C50.5904 38.2849 50.6472 38.2244 50.684 38.1518C50.7208 38.0792 50.7362 37.9976 50.7282 37.9164Z" fill="#25BBA4"/>
</g>
<g opacity="0.2">
<path d="M54.8912 36.8547C54.5239 36.3011 54.0053 35.8694 53.4675 35.4805C53.2625 35.3311 53.0355 35.1816 52.7797 35.1816C52.5238 35.1816 51.8814 35.547 51.9337 35.7974C53.3093 36.4463 54.4771 37.4691 55.3053 38.7505C55.4621 38.1028 55.2585 37.4096 54.8912 36.8547Z" fill="#25BBA4"/>
</g>
<g opacity="0.2">
<path d="M53.5192 39.155C53.3587 38.9775 53.1628 38.836 52.9442 38.7399C52.7736 38.6647 52.5815 38.6548 52.4041 38.7121C52.2268 38.7695 52.0764 38.8901 51.9813 39.0512C51.9538 39.0996 51.929 39.1495 51.907 39.2007C51.8561 39.311 51.8315 39.4318 51.8353 39.5534C51.8392 39.675 51.8712 39.794 51.929 39.9009C51.9903 39.9905 52.0701 40.0658 52.1629 40.1217C52.2557 40.1776 52.3594 40.2127 52.4669 40.2247C52.6827 40.246 52.9006 40.2196 53.1051 40.1472C53.427 40.0476 53.7833 39.8234 53.6856 39.4359C53.6545 39.3297 53.5972 39.2331 53.5192 39.155Z" fill="#25BBA4"/>
</g>
<g opacity="0.2">
<path d="M44.6298 36.8445C44.0521 36.6743 43.3657 36.7906 42.7673 36.8611C42.532 36.8888 42.2638 36.9608 42.162 37.1766C42.133 37.2496 42.1212 37.3283 42.1277 37.4066C42.1341 37.4849 42.1586 37.5606 42.1992 37.6278C42.2808 37.7611 42.3884 37.8764 42.5155 37.9668C42.9381 38.2997 43.4262 38.5384 43.9475 38.667C44.2227 38.7348 44.5349 38.7625 44.7495 38.5826C45.0068 38.3667 44.9916 37.9709 44.9545 37.6361C44.9215 37.3441 44.8678 37.0161 44.6298 36.8445Z" fill="#25BBA4"/>
</g>
<g opacity="0.3">
<path d="M41.1064 47.0912C42.002 48.2647 43.5949 48.85 45.0159 48.475C45.7177 48.2768 46.3803 47.9584 46.9748 47.5341C47.5869 47.1189 48.177 46.6678 48.8167 46.2679C50.0979 45.4733 51.519 44.9339 53.0026 44.6793C53.7345 44.5298 54.6272 44.5741 55.1445 45.1954C55.3994 45.4827 55.5491 45.8489 55.5689 46.2334C55.5886 46.6179 55.4772 46.9977 55.2531 47.3099C55.449 46.9984 55.5352 46.6297 55.4977 46.2631C55.4603 45.8964 55.3015 45.5531 55.0468 45.2881C54.5268 44.7346 53.7386 44.7346 53.0412 44.8924C51.5963 45.1793 50.2143 45.7249 48.9611 46.5031C48.3352 46.8878 47.7451 47.3431 47.1164 47.7485C46.4878 48.154 45.8138 48.5276 45.064 48.6909C44.3212 48.8505 43.5479 48.7837 42.8429 48.499C42.1379 48.2143 41.5334 47.7247 41.1064 47.0926V47.0912Z" fill="black"/>
<path d="M50.6504 47.6711C51.5335 47.4732 52.3231 48.3395 52.3892 49.1933C52.4923 50.0443 52.1292 50.876 51.6573 51.5568C51.7949 51.1638 51.9325 50.7819 52.0274 50.393C52.3451 49.2652 51.9985 47.7984 50.6518 47.6766L50.6504 47.6711Z" fill="black"/>
<path d="M51.3389 47.8117C51.7995 47.971 52.2983 47.9806 52.7646 47.839C53.231 47.6975 53.6412 47.412 53.9374 47.0229C53.6623 48.1023 52.1574 48.5604 51.3389 47.8117Z" fill="black"/>
<path d="M45.6067 48.4189C45.4347 48.6582 45.324 48.9363 45.2841 49.2288C45.2443 49.5213 45.2767 49.8192 45.3783 50.0961C45.7566 51.2488 47.029 51.7567 48.1226 51.9629C48.6949 52.0597 49.3401 52.0666 49.7954 51.646C49.4185 52.1649 48.6866 52.2424 48.0938 52.1773C47.1831 52.0694 46.2202 51.7373 45.608 51.0053C45.0042 50.3023 44.8748 49.0679 45.608 48.4189H45.6067Z" fill="black"/>
<path d="M49.7032 53.4738C49.8889 52.1024 49.9357 51.1587 48.4473 50.6245C50.098 50.6716 50.3731 52.2159 49.7032 53.4738Z" fill="black"/>
<path d="M41.2432 52.0273C42.052 53.3724 44.1526 53.3503 44.6904 54.9209C43.8486 53.6104 41.7439 53.6215 41.2432 52.0273Z" fill="black"/>
<path d="M57.2634 42.1047C56.438 42.0728 55.9153 42.726 55.2 43.0609C54.8379 43.2349 54.4435 43.3306 54.0424 43.3418C53.6413 43.353 53.2422 43.2795 52.8711 43.1259C53.2505 43.1764 53.6348 43.1764 54.0142 43.1259C54.3843 43.0749 54.7447 42.9681 55.0831 42.809C55.7365 42.5018 56.4683 41.8279 57.2593 42.1033L57.2634 42.1047Z" fill="black"/>
<path d="M55.2695 41.5176C52.8068 40.8731 50.1911 41.2275 47.9856 42.5042C46.8975 43.1311 45.9044 44.1219 44.5741 44.2257C43.2439 44.3294 42.1132 43.3068 41.457 42.233C42.0238 42.983 42.7377 43.6721 43.6497 43.9351C45.2757 44.3834 46.5468 43.0287 47.8467 42.2648C50.06 40.9627 52.8553 40.6555 55.275 41.5176H55.2695Z" fill="black"/>
<path d="M41.2744 36.1687C42.5551 35.0465 44.5043 36.5008 45.7713 35.3302C46.6503 34.5926 47.2459 33.2807 48.4688 32.9556C48.8622 32.831 49.2625 32.7715 49.6463 32.6885C50.4101 32.5447 51.1221 32.1994 51.7097 31.688C52.8928 30.6875 53.3783 28.8664 52.641 27.4577C52.2802 26.7417 51.6559 26.1956 50.9009 25.9355C51.2909 26.0422 51.656 26.2257 51.975 26.4753C52.2941 26.725 52.5606 27.0358 52.7593 27.3899C53.6067 28.8526 53.1266 30.8093 51.8886 31.8845C51.2695 32.4318 50.5163 32.8025 49.7069 32.9583C49.125 33.0829 48.5431 33.1451 48.0286 33.4344C47.1606 33.9353 46.6998 34.8873 45.9074 35.499C44.4796 36.7236 42.6707 35.1337 41.2785 36.1687H41.2744Z" fill="black"/>
<path d="M50.9549 27.5762C50.4688 28.1509 50.1461 28.847 50.0209 29.591C49.7457 28.8257 50.1956 27.8557 50.9549 27.5762Z" fill="black"/>
<path d="M51.1252 29.8422C49.4553 29.4727 47.7963 29.9806 46.2405 30.5701C45.0685 31.0157 43.6915 31.4571 42.492 30.8468C42.0996 30.6628 41.7765 30.3566 41.5703 29.9737C41.8119 30.3172 42.1508 30.5795 42.5429 30.7264C44.1798 31.3727 45.7879 30.3279 47.3478 29.9058C48.5652 29.5585 49.9092 29.3966 51.1211 29.8422H51.1252Z" fill="black"/>
<path d="M41.2744 26.2628C42.9664 24.7822 45.7492 24.7074 47.5141 26.0995C46.543 25.6012 45.4635 25.3551 44.3737 25.3836C43.2839 25.4121 42.2184 25.7144 41.2744 26.2628Z" fill="black"/>
<path d="M51.6729 32.8071C54.7556 34.0096 56.9263 37.2519 56.8713 40.5785C56.691 38.9578 56.1242 37.4048 55.2191 36.0518C54.314 34.6987 53.0974 33.5856 51.6729 32.8071Z" fill="black"/>
<path d="M57.7412 45.2738C57.1029 46.0889 55.6943 46.0806 55.0684 45.2559C55.4781 45.4797 55.9363 45.5985 56.4025 45.6016C56.8687 45.6047 57.3285 45.4922 57.7412 45.2738Z" fill="black"/>
<path d="M46.7408 43.027C46.0145 42.2133 45.7986 41.0675 45.7532 40.0034C45.6156 37.1113 47.8289 36.4567 50.2693 36.5992C51.3438 36.6815 52.3861 37.006 53.319 37.5485C52.3537 37.1096 51.3138 36.8607 50.2555 36.8151C48.8208 36.7944 46.8646 36.9535 46.2332 38.4757C46.0471 38.9609 45.9569 39.4779 45.9678 39.9979C45.9678 41.0468 46.1053 42.151 46.7408 43.0242V43.027Z" fill="black"/>
<path d="M49.857 41.4456C49.729 40.9243 49.7538 40.3769 49.9285 39.8695C50.1197 39.3741 50.6163 38.9008 51.1734 38.9714C50.1238 39.3187 50.0303 40.5088 49.857 41.4456Z" fill="black"/>
<path d="M47.9883 33.3939C48.5468 34.3542 49.6858 34.6684 50.7285 34.613C51.0848 34.6006 51.4438 34.5604 51.8111 34.5286C51.1253 34.8347 50.3651 34.931 49.6252 34.8054C48.8989 34.6573 48.1575 34.1453 47.9883 33.3911V33.3939Z" fill="black"/>
<path d="M51.5734 23.7329C51.9242 24.9922 51.0576 26.4576 49.7852 26.7454C50.0432 26.5779 50.2838 26.3846 50.5032 26.1684C51.1442 25.5159 51.5241 24.649 51.5707 23.7329H51.5734Z" fill="black"/>
<path d="M50.8584 56.4868C49.9766 56.6936 49.057 56.6721 48.1856 56.4243C47.3143 56.1765 46.5196 55.7105 45.876 55.0698C47.3596 56.0305 49.0944 56.5239 50.8584 56.4868Z" fill="black"/>
</g>
<g opacity="0.1">
<path d="M48.7237 46.5051C47.8915 47.0171 47.1046 47.6121 46.2284 48.0397C45.3521 48.4673 44.3603 48.7427 43.4015 48.5628L42.6436 48.3691C43.4868 48.971 44.5171 49.3377 45.5502 49.2837C46.5833 49.2298 47.5393 48.7538 48.3867 48.1684C49.2341 47.5831 49.9961 46.8815 50.8298 46.2754C51.6634 45.6693 52.5094 44.922 53.5287 44.7878C51.8064 44.6882 50.2052 45.5959 48.7237 46.5051Z" fill="black"/>
</g>
<g opacity="0.1">
<path d="M46.0467 38.3301C45.7012 38.6583 45.4349 39.0615 45.268 39.509C45.1011 39.9565 45.0381 40.4365 45.0838 40.9122C45.1828 41.8601 45.9243 42.5354 46.7345 43.0267C45.8527 41.535 45.7716 39.9436 46.0398 38.3301" fill="black"/>
</g>
<g opacity="0.1">
<path d="M49.1429 34.5111C48.6628 34.2053 48.1235 33.9451 47.986 33.3916C47.3766 33.8067 47.1235 34.1831 46.6338 34.7353C46.1441 35.2874 45.5484 35.8049 44.8221 35.9115H44.5938C45.1866 36.2616 45.9694 36.1038 46.5361 35.7095C47.1028 35.3151 47.499 34.7242 47.8732 34.1472C48.0088 34.3959 48.1952 34.613 48.4201 34.7842C48.645 34.9555 48.9034 35.0769 49.1782 35.1407C49.453 35.2045 49.7382 35.2091 50.0149 35.1542C50.2916 35.0994 50.5537 34.9863 50.784 34.8224C50.2175 34.9321 49.6307 34.8208 49.1429 34.5111Z" fill="black"/>
</g>
<g opacity="0.1">
<path d="M49.3139 29.3185C48.0132 29.3106 46.7489 29.75 45.7305 30.5639L45.8446 30.5874C47.1098 29.9253 48.5209 29.5959 49.9467 29.6298C49.9397 28.8848 50.182 28.1591 50.6345 27.5693C50.2888 27.7297 49.9875 27.9731 49.7572 28.2781C49.527 28.5831 49.3747 28.9404 49.3139 29.3185Z" fill="black"/>
</g>
<path d="M53.0377 65.2751C53.4765 64.5113 54.3954 64.2179 55.0901 64.622C55.7847 65.026 55.9911 65.9712 55.5536 66.7364C55.1162 67.5016 54.1959 67.7922 53.5012 67.3896C52.8066 66.9869 52.5988 66.039 53.0377 65.2751Z" fill="#00D2D3"/>
<path opacity="0.4" d="M53.0377 65.2751C53.4765 64.5113 54.3954 64.2179 55.0901 64.622C55.7847 65.026 55.9911 65.9712 55.5536 66.7364C55.1162 67.5016 54.1959 67.7922 53.5012 67.3896C52.8066 66.9869 52.5988 66.039 53.0377 65.2751Z" fill="black"/>
<path d="M65.0539 44.3292L67.6304 42.5635L67.5671 45.7891L55.6021 66.636L53.0889 65.1761L65.0539 44.3292Z" fill="#00D2D3"/>
<path d="M67.6167 43.4159C67.4785 43.4406 67.3361 43.4155 67.2143 43.3452C67.0926 43.2749 66.9994 43.1637 66.9509 43.0312L65.0567 44.3293C65.0567 44.3293 64.9659 44.9907 65.6564 44.7264C65.6564 44.7264 65.6908 45.4045 66.3731 45.1415C66.3731 45.1415 66.4543 45.7144 66.999 45.5055C67.0096 45.5669 67.0345 45.625 67.0719 45.6747C67.1092 45.7245 67.1578 45.7646 67.2136 45.7917C67.2695 45.8188 67.3309 45.832 67.3929 45.8304C67.4549 45.8287 67.5155 45.8122 67.5699 45.7822L67.6167 43.4159Z" fill="#25BBA4"/>
<path opacity="0.1" d="M66.3766 45.1509L54.5615 66.0767L55.1462 66.4171C55.2548 66.4448 67.0025 45.5217 67.0025 45.5217C66.466 45.7224 66.3766 45.1509 66.3766 45.1509Z" fill="#25BBA4"/>
<path opacity="0.1" d="M65.6532 44.7346C65.2722 44.8799 65.1291 44.7443 65.0782 44.5962L53.3457 65.3684L53.9303 65.7074C54.0335 65.7351 64.6875 46.766 65.7069 44.9504C65.6777 44.8818 65.6596 44.8089 65.6532 44.7346Z" fill="#25BBA4"/>
<path d="M52.8736 65.3989L55.5361 66.9453L55.77 66.5379L53.1074 64.9915L52.8736 65.3989Z" fill="#263238"/>
<path d="M63.9824 17.3915C63.0852 16.9787 62.0831 16.8551 61.1133 17.0376C60.1436 17.2202 59.2537 17.6999 58.5655 18.411C57.8774 19.1222 57.4247 20.0301 57.2695 21.0102C57.1143 21.9902 57.2642 22.9946 57.6986 23.8857C57.8156 24.1209 58.0164 24.4392 57.8362 24.8142C57.8362 24.8253 57.4331 25.7829 57.4331 25.7829L62.0331 27.8323C62.0331 27.8323 62.4871 26.8539 62.4912 26.8429C62.6412 26.5052 62.9658 26.4748 63.2244 26.407C64.1764 26.1529 65.027 25.609 65.6598 24.8498C66.2925 24.0905 66.6765 23.153 66.759 22.1657C66.8416 21.1784 66.6187 20.1896 66.1209 19.3347C65.6231 18.4798 64.8747 17.8006 63.9782 17.3902L63.9824 17.3915Z" fill="#00D2D3"/>
<path opacity="0.1" d="M63.9824 17.3915C63.0852 16.9787 62.0831 16.8551 61.1133 17.0376C60.1436 17.2202 59.2537 17.6999 58.5655 18.411C57.8774 19.1222 57.4247 20.0301 57.2695 21.0102C57.1143 21.9902 57.2642 22.9946 57.6986 23.8857C57.8156 24.1209 58.0164 24.4392 57.8362 24.8142C57.8362 24.8253 57.4331 25.7829 57.4331 25.7829L62.0331 27.8323C62.0331 27.8323 62.4871 26.8539 62.4912 26.8429C62.6412 26.5052 62.9658 26.4748 63.2244 26.407C64.1764 26.1529 65.027 25.609 65.6598 24.8498C66.2925 24.0905 66.6765 23.153 66.759 22.1657C66.8416 21.1784 66.6187 20.1896 66.1209 19.3347C65.6231 18.4798 64.8747 17.8006 63.9782 17.3902L63.9824 17.3915Z" fill="#25BBA4"/>
<path opacity="0.1" d="M65.3187 20.2541C64.9418 21.1107 63.6391 21.3612 62.4038 20.8076C61.1685 20.2541 60.4779 19.1166 60.8548 18.2601C61.2318 17.4035 62.5358 17.153 63.7711 17.7066C65.0064 18.2601 65.697 19.3962 65.3187 20.2541Z" fill="#25BBA4"/>
<path d="M57.9255 21.953C57.8341 21.1203 58.027 20.281 58.4724 19.5731C58.9179 18.8652 59.5895 18.3308 60.3768 18.0576" stroke="#25BBA4" stroke-width="0.614108" stroke-miterlimit="10"/>
<path d="M59.2461 25.4382C60.0939 24.4239 60.6923 23.2232 60.9931 21.933C61.0399 21.7255 61.0564 21.457 60.8872 21.3795C60.718 21.302 60.5529 21.4515 60.4442 21.6078C60.0618 22.1613 60.1031 22.9141 60.3177 23.5092C60.4346 23.8316 60.6093 24.1457 60.8941 24.2896C61.1788 24.4335 61.5378 24.3851 61.857 24.2467C62.1708 24.1039 62.4466 23.8884 62.6617 23.6178C62.8769 23.3472 63.0254 23.0293 63.095 22.69C63.1487 22.3994 63.0868 22.034 62.8323 21.9815C62.7482 21.9742 62.6638 21.9902 62.5881 22.0278C62.5125 22.0653 62.4485 22.123 62.4031 22.1946C62.3046 22.3442 62.2329 22.51 62.1913 22.6844C61.8259 23.9125 61.6057 25.1795 61.5351 26.4594" stroke="#263238" stroke-width="1.22822" stroke-miterlimit="10"/>
<path d="M62.4848 27.698L57.2589 25.3695C57.1477 25.3199 57.0177 25.3704 56.9685 25.4822L56.9011 25.6353C56.8518 25.7471 56.902 25.8779 57.0132 25.9274L62.2391 28.2559C62.3503 28.3055 62.4803 28.255 62.5295 28.1432L62.5969 27.9901C62.6461 27.8783 62.5959 27.7475 62.4848 27.698Z" fill="#263238"/>
<path opacity="0.1" d="M62.4848 27.698L57.2589 25.3695C57.1477 25.3199 57.0177 25.3704 56.9685 25.4822L56.9011 25.6353C56.8518 25.7471 56.902 25.8779 57.0132 25.9274L62.2391 28.2559C62.3503 28.3055 62.4803 28.255 62.5295 28.1432L62.5969 27.9901C62.6461 27.8783 62.5959 27.7475 62.4848 27.698Z" fill="#25BBA4"/>
<path d="M62.1686 28.1646L57.1251 25.9173C57.0139 25.8678 56.8839 25.9183 56.8347 26.0301L56.7751 26.1655C56.7259 26.2773 56.776 26.408 56.8872 26.4576L61.9308 28.7048C62.0419 28.7543 62.1719 28.7038 62.2211 28.592L62.2807 28.4567C62.33 28.3449 62.2798 28.2141 62.1686 28.1646Z" fill="#263238"/>
<path opacity="0.1" d="M62.1686 28.1646L57.1251 25.9173C57.0139 25.8678 56.8839 25.9183 56.8347 26.0301L56.7751 26.1655C56.7259 26.2773 56.776 26.408 56.8872 26.4576L61.9308 28.7048C62.0419 28.7543 62.1719 28.7038 62.2211 28.592L62.2807 28.4567C62.33 28.3449 62.2798 28.2141 62.1686 28.1646Z" fill="#25BBA4"/>
<path d="M57.3438 27.5825C57.4084 28.3713 57.8403 29.3635 58.5818 29.6402C59.3232 29.917 60.2614 29.6042 60.8254 29.0521L57.3438 27.5825Z" fill="#263238"/>
<path d="M61.4088 28.9912L57.0294 27.0399C56.9182 26.9903 56.7882 27.0408 56.739 27.1526L56.6794 27.288C56.6302 27.3998 56.6803 27.5306 56.7915 27.5801L61.171 29.5315C61.2821 29.581 61.4121 29.5305 61.4613 29.4187L61.5209 29.2833C61.5702 29.1715 61.52 29.0407 61.4088 28.9912Z" fill="#263238"/>
<path opacity="0.1" d="M61.4088 28.9912L57.0294 27.0399C56.9182 26.9903 56.7882 27.0408 56.739 27.1526L56.6794 27.288C56.6302 27.3998 56.6803 27.5306 56.7915 27.5801L61.171 29.5315C61.2821 29.581 61.4121 29.5305 61.4613 29.4187L61.5209 29.2833C61.5702 29.1715 61.52 29.0407 61.4088 28.9912Z" fill="#25BBA4"/>
<path d="M61.8867 28.6112L56.9903 26.4295C56.8792 26.38 56.7492 26.4305 56.6999 26.5423L56.6403 26.6777C56.5911 26.7895 56.6413 26.9202 56.7524 26.9698L61.6488 29.1515C61.76 29.201 61.89 29.1505 61.9392 29.0387L61.9988 28.9033C62.048 28.7915 61.9979 28.6607 61.8867 28.6112Z" fill="#263238"/>
<path opacity="0.1" d="M61.8867 28.6112L56.9903 26.4295C56.8792 26.38 56.7492 26.4305 56.6999 26.5423L56.6403 26.6777C56.5911 26.7895 56.6413 26.9202 56.7524 26.9698L61.6488 29.1515C61.76 29.201 61.89 29.1505 61.9392 29.0387L61.9988 28.9033C62.048 28.7915 61.9979 28.6607 61.8867 28.6112Z" fill="#25BBA4"/>
<path d="M62.2066 14.6844C62.39 15.1678 62.5734 15.6503 62.7569 16.1319C62.7816 16.1942 62.8807 16.1679 62.8573 16.1056C62.6739 15.6222 62.4905 15.1397 62.307 14.6581C62.2837 14.5959 62.1832 14.6222 62.208 14.6844H62.2066Z" fill="#263238"/>
<path d="M64.5278 16.4611C64.8029 15.8273 65.0817 15.1945 65.3642 14.5625C65.3903 14.5017 65.3023 14.4491 65.2748 14.51L64.4398 16.4085C64.4123 16.468 64.5017 16.522 64.5278 16.4611Z" fill="#263238"/>
<path d="M65.7044 17.5458L67.2602 16.9411C67.3221 16.9176 67.2946 16.8179 67.2327 16.8415L65.6769 17.4462C65.6163 17.4697 65.6425 17.5693 65.7044 17.5458Z" fill="#263238"/>
<path d="M43.7331 14.2662L43.8445 17.3396L40.7315 18.9822L38.2334 17.0518L38.0381 11.1181L39.1097 10.5742L43.7331 14.2662Z" fill="#263238"/>
<path d="M44.43 18.4941L41.3171 20.138L40.7324 18.9701L43.8454 17.3262L44.43 18.4941Z" fill="#263238"/>
<path opacity="0.3" d="M43.7331 14.2662L43.8445 17.3396L40.7315 18.9822L38.2334 17.0518L38.0381 11.1181L39.1097 10.5742L43.7331 14.2662Z" fill="#25BBA4"/>
<path d="M38.6704 10.7942L38.4443 10.9087L41.1992 16.414L41.4253 16.2995L38.6704 10.7942Z" fill="#263238"/>
<path d="M41.6256 15.7062C41.6772 15.8094 41.6971 15.9257 41.6829 16.0404C41.6687 16.155 41.6211 16.2628 41.5459 16.3502C41.4708 16.4376 41.3716 16.5006 41.2609 16.5313C41.1502 16.5619 41.0329 16.5588 40.9239 16.5224C40.8149 16.486 40.7191 16.4179 40.6486 16.3267C40.5781 16.2355 40.5361 16.1253 40.5279 16.01C40.5196 15.8948 40.5456 15.7797 40.6024 15.6793C40.6592 15.5789 40.7444 15.4977 40.8471 15.446C40.9151 15.4115 40.9893 15.3909 41.0653 15.3853C41.1413 15.3798 41.2177 15.3893 41.29 15.4135C41.3624 15.4377 41.4293 15.476 41.4868 15.5262C41.5444 15.5764 41.5916 15.6376 41.6256 15.7062Z" fill="#263238"/>
<path d="M23.3775 18.6905C23.1794 17.3122 22.979 15.9201 22.7764 14.5142" stroke="#263238" stroke-width="0.921162" stroke-miterlimit="10"/>
<path d="M24.1826 18.7776L27.6877 16.6313" stroke="#263238" stroke-width="0.921162" stroke-miterlimit="10"/>
<path d="M24.8496 20.7222L26.8993 21.7918" stroke="#263238" stroke-width="0.921162" stroke-miterlimit="10"/>
<path d="M27.634 20.9414C27.8244 21.0417 27.981 21.1965 28.084 21.3862C28.1871 21.576 28.2319 21.7921 28.213 22.0075C28.194 22.2229 28.1121 22.4277 27.9775 22.5963C27.843 22.7649 27.6618 22.8896 27.4569 22.9547C27.2519 23.0199 27.0324 23.0225 26.826 22.9622C26.6196 22.902 26.4355 22.7817 26.297 22.6163C26.1586 22.451 26.0718 22.2481 26.0478 22.0333C26.0238 21.8184 26.0636 21.6012 26.1621 21.4091C26.2281 21.281 26.3185 21.1672 26.4282 21.0743C26.5379 20.9814 26.6648 20.9113 26.8015 20.8678C26.9383 20.8243 27.0822 20.8085 27.2251 20.8211C27.3679 20.8337 27.5069 20.8746 27.634 20.9414Z" fill="#00D2D3"/>
<path opacity="0.3" d="M27.634 20.9414C27.8244 21.0417 27.981 21.1965 28.084 21.3862C28.1871 21.576 28.2319 21.7921 28.213 22.0075C28.194 22.2229 28.1121 22.4277 27.9775 22.5963C27.843 22.7649 27.6618 22.8896 27.4569 22.9547C27.2519 23.0199 27.0324 23.0225 26.826 22.9622C26.6196 22.902 26.4355 22.7817 26.297 22.6163C26.1586 22.451 26.0718 22.2481 26.0478 22.0333C26.0238 21.8184 26.0636 21.6012 26.1621 21.4091C26.2281 21.281 26.3185 21.1672 26.4282 21.0743C26.5379 20.9814 26.6648 20.9113 26.8015 20.8678C26.9383 20.8243 27.0822 20.8085 27.2251 20.8211C27.3679 20.8337 27.5069 20.8746 27.634 20.9414Z" fill="black"/>
<path d="M28.5815 15.4963C28.8242 15.6237 29.024 15.8206 29.1556 16.0621C29.2872 16.3036 29.3447 16.5789 29.3209 16.8533C29.297 17.1277 29.1929 17.3888 29.0216 17.6036C28.8503 17.8185 28.6195 17.9775 28.3585 18.0605C28.0974 18.1435 27.8178 18.1469 27.5549 18.0701C27.2919 17.9934 27.0575 17.84 26.8812 17.6293C26.7048 17.4186 26.5945 17.16 26.5642 16.8863C26.5339 16.6126 26.5848 16.336 26.7107 16.0914C26.7944 15.9285 26.9094 15.7839 27.0488 15.6658C27.1883 15.5477 27.3495 15.4585 27.5233 15.4032C27.6971 15.3479 27.88 15.3277 28.0616 15.3437C28.2432 15.3597 28.4199 15.4115 28.5815 15.4963Z" fill="#00D2D3"/>
<path d="M23.0915 13.9064C23.2253 13.9762 23.3355 14.0843 23.4082 14.2171C23.4809 14.3499 23.5128 14.5014 23.4999 14.6525C23.487 14.8035 23.4299 14.9474 23.3358 15.0658C23.2416 15.1842 23.1147 15.2718 22.9711 15.3177C22.8274 15.3635 22.6735 15.3655 22.5287 15.3233C22.3839 15.2812 22.2549 15.1968 22.1578 15.0808C22.0607 14.9649 21.9999 14.8226 21.9832 14.6719C21.9665 14.5213 21.9946 14.369 22.0639 14.2344C22.1099 14.1449 22.173 14.0655 22.2496 14.0006C22.3262 13.9357 22.4147 13.8867 22.5101 13.8562C22.6056 13.8258 22.706 13.8145 22.8058 13.8231C22.9055 13.8317 23.0026 13.86 23.0915 13.9064Z" fill="#00D2D3"/>
<path opacity="0.3" d="M23.0915 13.9064C23.2253 13.9762 23.3355 14.0843 23.4082 14.2171C23.4809 14.3499 23.5128 14.5014 23.4999 14.6525C23.487 14.8035 23.4299 14.9474 23.3358 15.0658C23.2416 15.1842 23.1147 15.2718 22.9711 15.3177C22.8274 15.3635 22.6735 15.3655 22.5287 15.3233C22.3839 15.2812 22.2549 15.1968 22.1578 15.0808C22.0607 14.9649 21.9999 14.8226 21.9832 14.6719C21.9665 14.5213 21.9946 14.369 22.0639 14.2344C22.1099 14.1449 22.173 14.0655 22.2496 14.0006C22.3262 13.9357 22.4147 13.8867 22.5101 13.8562C22.6056 13.8258 22.706 13.8145 22.8058 13.8231C22.9055 13.8317 23.0026 13.86 23.0915 13.9064Z" fill="black"/>
<path d="M23.8619 24.3818C23.6179 23.0174 23.3749 21.653 23.1328 20.2886" stroke="#263238" stroke-width="0.921162" stroke-miterlimit="10"/>
<path d="M18.3867 22.1403L22.8395 19.6523L18.5146 17.9419" stroke="#263238" stroke-width="0.921162" stroke-miterlimit="10"/>
<path d="M18.9005 17.2002C19.0445 17.2765 19.1629 17.394 19.2407 17.5378C19.3185 17.6816 19.3523 17.8454 19.3379 18.0085C19.3234 18.1717 19.2613 18.3268 19.1594 18.4545C19.0575 18.5822 18.9204 18.6768 18.7652 18.7263C18.61 18.7757 18.4437 18.7779 18.2873 18.7326C18.1309 18.6873 17.9912 18.5964 17.886 18.4715C17.7808 18.3465 17.7147 18.193 17.6959 18.0304C17.6772 17.8677 17.7067 17.7031 17.7807 17.5572C17.8825 17.3608 18.0574 17.213 18.2673 17.1461C18.4771 17.0791 18.7048 17.0986 18.9005 17.2002Z" fill="#00D2D3"/>
<path d="M24.1742 23.7774C24.3877 23.89 24.5632 24.0636 24.6787 24.2763C24.7942 24.4891 24.8445 24.7315 24.8233 24.973C24.802 25.2145 24.7101 25.4442 24.5592 25.6332C24.4083 25.8222 24.2051 25.9621 23.9753 26.0351C23.7455 26.1081 23.4994 26.111 23.2679 26.0435C23.0365 25.9759 22.8301 25.841 22.6748 25.6556C22.5195 25.4702 22.4223 25.2427 22.3953 25.0018C22.3684 24.7609 22.413 24.5174 22.5235 24.3019C22.5975 24.1583 22.699 24.0308 22.8221 23.9268C22.9451 23.8227 23.0874 23.744 23.2407 23.6953C23.3941 23.6466 23.5554 23.6288 23.7156 23.6429C23.8758 23.657 24.0316 23.7027 24.1742 23.7774Z" fill="#00D2D3"/>
<path d="M18.6132 20.9988C18.9054 21.1509 19.1461 21.3868 19.305 21.6766C19.4639 21.9664 19.5337 22.2971 19.5057 22.6269C19.4777 22.9566 19.3532 23.2706 19.1477 23.5291C18.9423 23.7876 18.6653 23.9791 18.3517 24.0792C18.0382 24.1793 17.7021 24.1836 17.3861 24.0916C17.0701 23.9995 16.7883 23.8153 16.5764 23.5621C16.3645 23.3089 16.2321 22.9982 16.1957 22.6693C16.1594 22.3404 16.2209 22.008 16.3723 21.7142C16.5756 21.3208 16.9256 21.0246 17.3457 20.8905C17.7658 20.7563 18.2216 20.7953 18.6132 20.9988Z" fill="#00D2D3"/>
<path d="M23.8469 21.855C25.1212 21.445 25.8237 20.0734 25.4161 18.7915C25.0084 17.5097 23.645 16.803 22.3707 17.2131C21.0965 17.6231 20.3939 18.9947 20.8016 20.2766C21.2092 21.5584 22.5727 22.2651 23.8469 21.855Z" fill="#00D2D3"/>
<path opacity="0.1" d="M23.8469 21.855C25.1212 21.445 25.8237 20.0734 25.4161 18.7915C25.0084 17.5097 23.645 16.803 22.3707 17.2131C21.0965 17.6231 20.3939 18.9947 20.8016 20.2766C21.2092 21.5584 22.5727 22.2651 23.8469 21.855Z" fill="#25BBA4"/>
</g>
<defs>
<clipPath id="clip0_1730_69887">
<rect width="68.7801" height="62.639" fill="white" transform="translate(6.62305 7.54053)"/>
</clipPath>
</defs>
</svg>
