<svg width="81" height="80" viewBox="0 0 81 80" fill="none" xmlns="http://www.w3.org/2000/svg">
<rect x="0.447266" y="0.171387" width="79.834" height="79.834" rx="17.195" fill="#E1F5FE" fill-opacity="0.6"/>
<g clip-path="url(#clip0_1730_70143)">
<path d="M50.7137 58.3057L50.749 17.7773L24.4257 17.7544L24.3903 58.2827L50.7137 58.3057Z" fill="#0B7464"/>
<path d="M35.574 25.0468C35.5194 25.1857 35.4293 25.4408 35.2992 25.0084C35.1904 24.6459 35.2441 23.9102 35.3746 22.585C35.6051 20.2444 32.9226 18.9285 31.6644 20.8688C30.4062 22.8091 31.6038 24.5805 30.8597 26.6926C30.1156 28.8048 29.6005 30.0034 31.3133 32.346C33.0261 34.6887 33.3575 45.1381 33.5254 49.1925C33.6933 53.2469 35.185 56.4021 38.8297 56.1067C42.3128 55.8245 42.8836 51.7149 42.8334 48.6301C42.7501 43.6337 44.8362 41.5511 44.9544 36.6979C45.0726 31.8447 44.297 30.5505 44.5338 28.0464C44.7067 26.2194 44.2221 25.5053 43.5937 25.4477C43.3347 25.424 42.828 25.5649 42.7654 26.2179C42.7162 26.7448 42.728 26.9679 42.6625 27.0836C42.6221 27.1555 42.5305 27.1206 42.5212 27.0388C42.4512 26.4173 42.7644 24.6538 42.5674 23.9619C42.3399 23.1627 41.255 23.1046 40.9684 24.1318C40.7567 24.8917 40.738 26.3016 40.4528 26.2445C40.2938 26.2125 40.311 25.8052 40.3391 25.3305C40.3972 24.3598 40.8557 22.6471 40.2854 21.9616C39.7151 21.2761 38.3456 21.4396 38.3998 23.4444C38.4549 25.5004 37.9979 25.8421 37.9979 25.8421C37.9979 25.8421 37.6532 25.9564 37.7704 24.7587C37.8876 23.5611 38.5731 20.9338 37.4316 20.3044C36.2901 19.6751 35.7607 20.5177 35.8311 22.2447C35.8976 23.8585 35.7262 24.6607 35.574 25.0468Z" fill="#6686FE"/>
<path d="M33.202 27.0386C33.9446 26.6392 33.3738 26.4107 33.202 25.9552C33.0301 25.4997 32.8735 25.349 33.3743 25.0417C34.1169 24.5852 34.1179 23.7859 32.0619 23.9553C32.0619 23.9553 31.4335 24.0691 31.9472 24.7546C32.4608 25.4401 31.3178 26.1246 31.2031 26.5811C31.0883 27.0376 32.4588 27.4375 33.202 27.0386Z" fill="#CBDAFD"/>
<path d="M32.2202 23.5396C32.463 23.7248 33.3253 23.8489 33.6621 23.5549C34.1196 23.1555 33.2061 23.0974 33.6621 22.4715C34.1181 21.8456 33.9487 21.2157 33.5493 20.873C33.15 20.5302 32.3492 21.0409 32.3492 21.8407C32.3492 22.6404 32.5767 22.5257 32.1769 22.7537C32.079 22.805 32.0038 22.8911 31.9661 22.995C31.8917 23.2112 32.038 23.4003 32.2202 23.5396Z" fill="#CBDAFD"/>
<path d="M36.3485 23.1019C36.4648 23.6761 37.3408 23.515 37.527 23.2555C37.7791 22.9034 37.1719 22.9457 37.397 22.4183C37.622 21.8909 37.4339 21.4206 37.1306 21.1936C36.8272 20.9666 36.3628 21.4398 36.4588 22.0569C36.5549 22.6739 36.6918 22.5321 36.4628 22.8172C36.4052 22.8886 36.3343 23.0314 36.3485 23.1019Z" fill="#CBDAFD"/>
<path d="M34.1095 37.5462C34.8512 37.8909 36.2222 37.3197 36.2226 36.9774C36.2231 36.6351 36.0523 36.1205 36.1104 34.9785C36.1104 34.9785 35.1397 34.7495 34.8566 31.8371C34.5734 28.9247 34.3454 28.81 34.0603 28.5244C33.7751 28.2387 33.9071 27.7118 33.7756 27.5532C33.4905 27.2085 32.7085 27.1642 31.6462 27.4931C31.1892 27.635 30.9361 28.1422 31.1232 28.583C31.1311 28.6002 31.139 28.6179 31.1479 28.6361C31.433 29.2074 30.6909 29.3207 31.0321 30.3489C31.3734 31.3772 33.4284 32.692 33.4836 34.6909C33.5387 36.6898 33.3674 37.203 34.1095 37.5462Z" fill="#CBDAFD"/>
<path d="M36.3411 28.5277C36.1121 29.0413 36.3972 29.384 36.7956 31.3263C37.194 33.2685 36.4509 36.1223 36.676 37.2072C36.901 38.2921 38.6162 38.3512 38.6162 38.3512C38.3887 37.7228 38.6187 35.6102 38.6187 35.6102C37.5353 33.9536 38.1105 29.386 38.1681 28.929C38.2257 28.472 37.7116 28.3578 37.7692 27.9579C37.8022 27.7269 37.9307 27.5915 37.9893 27.4521C38.0322 27.3502 38.1021 27.1734 37.9401 27.0444C37.655 26.8159 37.426 27.3866 36.7981 27.1576C36.1702 26.9286 36.021 27.2236 36.1126 27.5024C36.2273 27.8407 36.5701 28.0125 36.3411 28.5277Z" fill="#CBDAFD"/>
<path d="M38.9614 35.5533C38.9043 35.8384 38.6123 38.3889 38.9614 38.4095C39.9867 38.4662 40.6712 39.3807 40.6712 39.3807C40.101 38.2382 40.6712 36.4111 40.2172 35.897C39.7631 35.3829 39.8232 31.3285 40.0507 30.7577C40.2783 30.187 40.5077 30.187 40.2802 29.73C40.0527 29.273 40.0522 29.0445 40.1665 28.7593C40.2807 28.4742 40.3383 28.0743 40.1103 28.0167C39.8823 27.9591 39.8818 28.1881 39.5962 28.1305C39.3106 28.0728 39.0254 27.8448 39.0249 28.2442C39.0245 28.6436 39.1958 28.9297 38.9673 29.1577C38.7388 29.3857 38.6226 30.1284 39.023 30.6425C39.4233 31.1566 39.019 35.2677 38.9614 35.5533Z" fill="#CBDAFD"/>
<path d="M42.1007 39.436C41.9303 38.4082 42.1066 32.9267 42.1643 32.2983C42.2219 31.6699 42.5646 31.7852 42.4509 31.3853C42.3371 30.9854 42.1061 31.1563 42.28 30.6998C42.4538 30.2433 42.4523 29.6164 42.28 29.7292C42.1076 29.8419 42.1086 29.9572 41.5945 29.8429C41.0803 29.7287 41.1946 29.9567 41.1941 30.5274C41.1936 31.0982 40.7366 31.3838 41.1941 32.0122C41.6516 32.6406 41.4197 34.9817 41.0764 35.6667C40.7332 36.3517 40.387 38.064 40.6741 38.8638C40.9612 39.6635 42.1007 39.436 42.1007 39.436Z" fill="#CBDAFD"/>
<path d="M44.2742 33.1008C44.2742 32.8723 43.8177 32.8147 44.0462 32.4724C44.2747 32.1302 44.3909 31.6732 44.1043 31.5589C43.8177 31.4447 43.5331 31.6727 43.4759 31.6722C42.6767 31.5003 43.0189 32.1287 43.0184 32.4714C43.018 32.8142 42.6186 32.8708 42.9603 33.7848C43.3021 34.6988 43.1293 36.5258 42.9003 37.2108C42.6713 37.8959 42.2714 38.1239 42.4413 39.6658C42.5024 40.2212 42.6969 40.6063 42.9214 40.8718C43.1962 41.1973 43.7276 40.9703 43.6803 40.5443C43.605 39.8755 43.5597 39.0054 43.7552 38.5819C44.0999 37.8397 43.9295 35.2129 43.9305 34.5851C43.9315 33.9572 44.2742 33.3288 44.2742 33.1008Z" fill="#CBDAFD"/>
<path d="M41.0169 39.7793C40.7879 40.0644 41.1868 41.0355 40.4437 42.2342C39.7006 43.4328 39.2431 43.6032 39.7567 43.8893C40.2703 44.1754 42.3259 44.5197 42.2121 43.7204C42.0984 42.9211 42.7287 41.1512 42.7287 41.1512C42.2702 40.123 41.243 39.4941 41.0169 39.7793Z" fill="#CBDAFD"/>
<path d="M38.6624 50.5104C39.2908 50.34 39.4626 48.9512 40.2634 47.8856C41.1212 46.744 40.6652 45.7158 39.0667 45.4292C37.4682 45.1426 35.1837 45.5395 34.0963 48.2244C34.0963 48.2244 33.5812 49.7086 35.9795 49.5392C38.3777 49.3698 38.034 50.6812 38.6624 50.5104Z" fill="#CBDAFD"/>
<path d="M36.956 43.3726C35.3698 43.3726 34.543 44.0566 34.2101 44.8007C34.1108 45.0163 34.0699 45.2543 34.0916 45.4907C34.1133 45.7271 34.1968 45.9536 34.3337 46.1476C34.5262 46.4115 34.8719 46.3731 35.2403 46.0555C36.4975 44.9721 37.8109 44.8588 38.6102 44.9164C39.4094 44.974 38.783 43.3745 36.956 43.3726Z" fill="#CBDAFD"/>
<path d="M34.679 43.7126C35.1252 43.3408 36.212 42.6927 37.9854 43.201C39.8611 43.7392 39.2421 42.5169 38.7285 42.0028C38.1799 41.4532 36.7316 40.7446 36.217 40.8583C35.7476 40.9622 35.6112 41.304 34.3323 41.6226C34.198 41.6564 34.0763 41.7283 33.9819 41.8296C33.8875 41.931 33.8245 42.0575 33.8005 42.1939C33.7246 42.613 33.7128 43.2226 34.1151 43.6713C34.1854 43.75 34.2835 43.7984 34.3887 43.8061C34.4939 43.8138 34.598 43.7803 34.679 43.7126Z" fill="#CBDAFD"/>
<path d="M39.8681 44.3459C38.8831 43.9411 39.3539 44.6882 40.267 45.4293C41.18 46.1705 41.179 47.0288 40.6072 47.9409C40.0355 48.8529 39.8065 49.3139 39.5204 49.9984C39.2343 50.6829 38.663 51.2541 37.8071 50.4539C37.575 50.2265 37.2858 50.0662 36.9699 49.99C36.7559 49.9426 36.5319 49.978 36.343 50.0892C36.1541 50.2005 36.0144 50.3792 35.952 50.5893C35.7343 51.3058 35.7234 52.0692 35.9205 52.7916C36.3189 54.2768 38.8304 55.3071 40.4876 54.1665C42.1447 53.026 42.1467 50.742 41.8054 48.7987C41.4641 46.8555 42.0945 45.0871 42.1501 44.7448C42.2058 44.4026 41.1238 44.861 39.8681 44.3459Z" fill="#CBDAFD"/>
<path d="M36.101 40.5731C36.101 40.5731 36.2724 40.4594 36.101 40.0595C35.9296 39.6596 36.2162 38.8032 36.6166 38.2325C37.017 37.6617 36.1606 37.2042 35.4751 37.6607C34.7896 38.1173 33.7052 37.773 33.7022 37.9444C33.6993 38.1158 33.9874 38.6299 33.587 39.3149C33.1866 39.9999 33.1857 40.7992 33.9278 41.2567C34.6699 41.7142 36.101 40.5731 36.101 40.5731Z" fill="#CBDAFD"/>
<path d="M37.1862 38.4624C36.9005 38.5762 36.7252 38.7254 36.6016 38.9002C36.4874 39.0671 36.4176 39.2604 36.3988 39.4617C36.3799 39.663 36.4126 39.8659 36.4938 40.0511C36.6272 40.3663 36.8582 40.7139 37.2413 40.8026C37.9835 40.9745 38.6695 40.1186 38.7271 39.4336C38.7847 38.7485 37.6392 38.2817 37.1862 38.4624Z" fill="#CBDAFD"/>
<path d="M39.5292 42.4055C40.1 42.4631 40.8436 41.1502 40.8446 40.2387C40.8455 39.3271 38.9614 38.6953 38.9614 38.6953C38.9614 38.6953 39.3603 39.6664 38.3887 41.036C38.3887 41.034 38.9584 42.3479 39.5292 42.4055Z" fill="#CBDAFD"/>
<path d="M36.2875 25.841C36.0014 26.4118 36.2511 26.9594 36.7435 26.8122C37.3148 26.6418 37.5896 27.0091 37.7713 26.5846C37.9431 26.1853 37.1444 25.5564 37.1444 25.3279C37.1444 25.0994 37.4891 24.5291 37.431 24.1293C37.3729 23.7294 37.0887 23.7845 36.9174 23.9003C36.746 24.016 36.5726 23.7289 36.3466 23.8426C36.3466 23.8426 35.8896 23.9564 36.2314 24.5276C36.5731 25.0989 36.5716 25.2703 36.2875 25.841Z" fill="#CBDAFD"/>
<path d="M38.9164 24.1321C39.0326 24.7063 39.9087 24.5453 40.0948 24.2858C40.347 23.9337 39.7398 23.976 39.9648 23.4486C40.1899 22.9212 40.0018 22.4509 39.6984 22.2238C39.3951 21.9968 38.9307 22.4701 39.0267 23.0871C39.1227 23.7042 39.2596 23.5624 39.0306 23.8475C38.9725 23.9189 38.9001 24.0612 38.9164 24.1321Z" fill="#CBDAFD"/>
<path d="M38.9692 26.8713C38.6831 27.4421 38.9328 27.9897 39.4252 27.8424C39.9965 27.672 40.0433 27.9808 40.225 27.5578C40.3964 27.1584 39.8261 26.5867 39.8261 26.3582C39.8261 26.1297 40.1708 25.5594 40.1127 25.1595C40.0546 24.7596 39.7705 24.8148 39.5991 24.9305C39.4277 25.0463 39.2544 24.7592 39.0278 24.8729C39.0278 24.8729 38.5713 24.9867 38.9131 25.5579C39.2549 26.1292 39.2553 26.3006 38.9692 26.8713Z" fill="#CBDAFD"/>
<path d="M41.0849 25.7893C41.2011 26.3636 42.0772 26.2025 42.2633 25.9435C42.5155 25.5914 41.9083 25.6332 42.1333 25.1063C42.3584 24.5794 42.1702 24.1086 41.8669 23.8816C41.5635 23.6545 41.0991 24.1278 41.1952 24.7453C41.2912 25.3629 41.4281 25.2201 41.1991 25.5057C41.1415 25.5766 41.0706 25.7204 41.0849 25.7893Z" fill="#CBDAFD"/>
<path d="M41.1391 28.5292C40.8529 29.1 41.1026 29.6476 41.5951 29.5003C42.1663 29.3294 42.2131 29.6382 42.3948 29.2157C42.5662 28.8158 41.9959 28.2446 41.9959 28.0161C41.9959 27.7876 42.3407 27.2168 42.2825 26.8169C42.2244 26.417 41.9378 26.4722 41.7689 26.5884C41.6 26.7046 41.4242 26.4166 41.1982 26.5308C41.1982 26.5308 40.7412 26.6446 41.0829 27.2158C41.4247 27.7871 41.4252 27.9584 41.1391 28.5292Z" fill="#CBDAFD"/>
<path d="M43.0101 27.7171C43.0933 28.1967 43.7458 28.0569 43.8857 27.8392C44.0758 27.5438 43.6237 27.5822 43.7941 27.1385C43.9645 26.6948 43.8276 26.3037 43.603 26.1161C43.3784 25.9285 43.0303 26.3259 43.0982 26.842C43.1662 27.3581 43.2686 27.236 43.0982 27.4778C43.0534 27.5388 42.9997 27.658 43.0101 27.7171Z" fill="#CBDAFD"/>
<path d="M42.9799 30.2805C42.7337 30.8301 42.9489 31.357 43.3685 31.2162C43.856 31.0522 43.8959 31.3491 44.051 30.9424C44.1988 30.5578 43.7108 30.0067 43.7108 29.7876C43.7108 29.5684 44.0062 29.0183 43.957 28.6337C43.9077 28.2491 43.665 28.3038 43.5187 28.4136C43.3724 28.5234 43.2267 28.2481 43.0317 28.3579C43.0317 28.3579 42.6421 28.4678 42.9332 29.0174C43.2242 29.5669 43.2237 29.7314 42.9799 30.2805Z" fill="#CBDAFD"/>
<path d="M26.3821 24.7493H26.1221V19.3042H29.6889V19.5642H26.3821V24.7493Z" fill="white"/>
<path d="M49.0117 24.7493H48.7512V19.5642H45.4443V19.3042H49.0117V24.7493Z" fill="white"/>
<path d="M26.3821 51.3101H26.1221V56.7552H29.6889V56.4952H26.3821V51.3101Z" fill="white"/>
<path d="M49.0117 51.3101H48.7512V56.4952H45.4443V56.7552H49.0117V51.3101Z" fill="white"/>
<path d="M65.0261 5.08594C64.9248 5.25437 64.7817 5.3937 64.6105 5.49036C64.4394 5.58702 64.2461 5.63771 64.0496 5.63749C63.853 5.63775 63.6598 5.58709 63.4886 5.49042C63.3175 5.39376 63.1743 5.2544 63.073 5.08594L52.3896 5.08594V35.3968H76.1261V5.08594H65.0261Z" fill="#8FA5FE"/>
<path d="M19.3178 51.4616V70.7467C19.3181 70.8431 19.2993 70.9386 19.2626 71.0277C19.226 71.1168 19.1721 71.1978 19.104 71.266C19.036 71.3342 18.9552 71.3884 18.8662 71.4254C18.7773 71.4624 18.6819 71.4814 18.5855 71.4815H6.245C6.14853 71.4815 6.05301 71.4625 5.9639 71.4256C5.87478 71.3886 5.79382 71.3345 5.72563 71.2663C5.65744 71.198 5.60336 71.117 5.56649 71.0279C5.52962 70.9387 5.51068 70.8432 5.51074 70.7467V51.4616C5.51074 49.9842 6.21348 48.5856 7.42641 47.7435C7.45891 47.7199 7.48993 47.7002 7.518 47.68C7.61304 47.617 7.6909 47.5314 7.74455 47.4308C7.79819 47.3302 7.82595 47.2178 7.8253 47.1038V45.8018H17.0072V47.1038C17.0062 47.2176 17.0335 47.3298 17.0866 47.4303C17.1397 47.5309 17.217 47.6167 17.3115 47.68C17.3401 47.7002 17.3706 47.7199 17.4036 47.7435C18.6136 48.5856 19.3178 49.9842 19.3178 51.4616Z" fill="url(#paint0_linear_1730_70143)"/>
<path d="M5.51074 52.6787V70.747C5.51074 70.9417 5.58802 71.1284 5.7256 71.2662C5.86318 71.404 6.04981 71.4815 6.24451 71.4818H18.5855C18.6818 71.4816 18.7772 71.4625 18.8662 71.4255C18.9551 71.3885 19.0359 71.3344 19.1039 71.2661C19.1719 71.1979 19.2258 71.1169 19.2625 71.0278C19.2992 70.9388 19.318 70.8433 19.3178 70.747V52.6787H5.51074Z" fill="#9C9CFF"/>
<path d="M19.3173 56.1577H5.51074V62.8428H19.3173V56.1577Z" fill="url(#paint1_linear_1730_70143)"/>
<path d="M14.7099 58.6913V60.315H12.9351V62.0893H11.3114V60.315H9.53711V58.6913H11.3114V56.917H12.9351V58.6913H14.7099Z" fill="#FF0031"/>
<g style="mix-blend-mode:soft-light">
<path d="M8.36896 48.5122V70.7831H6.91178C6.82654 70.7831 6.74214 70.7664 6.66339 70.7337C6.58464 70.7011 6.51309 70.6533 6.45282 70.593C6.39255 70.5328 6.34474 70.4612 6.31212 70.3825C6.2795 70.3037 6.26272 70.2193 6.26272 70.1341V51.7555C6.26039 51.0687 6.4584 50.396 6.8325 49.82C7.20659 49.2439 7.74054 48.7895 8.36896 48.5122Z" fill="white"/>
</g>
<g style="mix-blend-mode:soft-light">
<path d="M16.2098 47.5252V45.8257H7.82617V47.0174H14.2897C14.5014 47.0174 14.7045 47.1015 14.8542 47.2512C15.0039 47.4009 15.088 47.604 15.088 47.8157V70.7835H17.6675C17.8394 70.7832 18.0043 70.7147 18.1258 70.593C18.2473 70.4713 18.3155 70.3064 18.3155 70.1344V51.7559C18.3155 50.4582 17.8452 49.1793 16.5629 48.2333C16.4528 48.151 16.3636 48.0441 16.3022 47.9212C16.2409 47.7982 16.2093 47.6626 16.2098 47.5252Z" fill="#181342"/>
</g>
<path d="M17.5519 43.2451H6.93248C6.87808 43.2451 6.83398 43.2892 6.83398 43.3436V45.7571C6.83398 45.8115 6.87808 45.8556 6.93248 45.8556H17.5519C17.6062 45.8556 17.6503 45.8115 17.6503 45.7571V43.3436C17.6503 43.2892 17.6062 43.2451 17.5519 43.2451Z" fill="#0B7464"/>
<g style="mix-blend-mode:soft-light">
<path d="M17.0634 43.2451H15.5205C15.5575 43.2451 15.5929 43.2598 15.6191 43.2859C15.6452 43.3121 15.6599 43.3475 15.6599 43.3845V45.7148C15.6599 45.7331 15.6563 45.7512 15.6493 45.7681C15.6423 45.785 15.632 45.8004 15.6191 45.8133C15.6061 45.8263 15.5907 45.8365 15.5738 45.8436C15.5569 45.8506 15.5388 45.8542 15.5205 45.8542H17.0634C17.0817 45.8542 17.0998 45.8506 17.1167 45.8436C17.1336 45.8365 17.149 45.8263 17.1619 45.8133C17.1749 45.8004 17.1851 45.785 17.1921 45.7681C17.1991 45.7512 17.2027 45.7331 17.2027 45.7148V43.3845C17.2027 43.3475 17.1881 43.3121 17.1619 43.2859C17.1358 43.2598 17.1003 43.2451 17.0634 43.2451Z" fill="#02133A"/>
</g>
<g style="mix-blend-mode:soft-light">
<path d="M7.35568 45.8556H8.89855C8.88017 45.8556 8.86197 45.8519 8.84503 45.8447C8.82808 45.8376 8.81271 45.8272 8.7998 45.8141C8.78689 45.801 8.7767 45.7855 8.76981 45.7685C8.76293 45.7514 8.75948 45.7332 8.75968 45.7148V43.3845C8.75968 43.3662 8.76328 43.3481 8.77029 43.3312C8.77729 43.3142 8.78756 43.2989 8.8005 43.2859C8.81344 43.273 8.8288 43.2627 8.84571 43.2557C8.86262 43.2487 8.88074 43.2451 8.89904 43.2451H7.35568C7.3188 43.2452 7.28348 43.26 7.25745 43.2861C7.23142 43.3122 7.2168 43.3476 7.2168 43.3845V45.7148C7.21661 45.7332 7.22005 45.7514 7.22694 45.7685C7.23383 45.7855 7.24402 45.801 7.25692 45.8141C7.26983 45.8272 7.2852 45.8376 7.30215 45.8447C7.3191 45.8519 7.33729 45.8556 7.35568 45.8556Z" fill="white"/>
</g>
<path d="M77.8226 37.3833H52.3926V71.4772H77.8226V37.3833Z" fill="#0B7464"/>
<path d="M76.0311 49.3111C75.7208 54.7346 75.4894 71.4718 75.4894 71.4718H62.9371C59.9154 64.1115 61.1554 51.1726 61.1554 51.1726C60.0227 49.8922 55.9191 47.1015 52.3926 44.5885V37.3833H68.5718C72.2002 41.8396 76.1813 46.6878 76.0311 49.3111Z" fill="#6686FE"/>
<path d="M70.704 49.4687C70.084 51.1731 68.5923 51.1923 67.5946 51.0229C66.0867 50.7639 65.8838 51.9512 64.954 51.3312C64.0243 50.7112 64.9767 48.2982 64.761 47.8003C64.2577 46.6381 56.6226 40.339 53.2197 37.3833H59.2277C61.5881 39.4625 67.0952 44.2186 68.0142 44.9337C69.4098 46.0186 71.3235 47.7638 70.704 49.4687Z" fill="#CBDAFD"/>
<path d="M67.5732 58.5516C67.39 60.7829 67.1073 68.4859 67.0005 71.4781H65.4945C65.7476 67.829 66.3194 56.7964 65.3798 56.1695C65.1303 56.0022 64.9327 55.7683 64.8095 55.4944C64.6862 55.2204 64.6422 54.9174 64.6825 54.6198C64.843 53.6575 65.5073 53.4994 66.3076 53.9904C67.1443 54.507 67.8391 55.3097 67.5732 58.5516Z" fill="#CBDAFD"/>
<path d="M71.4219 54.6199C71.4219 54.6199 71.5144 68.6845 71.4519 71.4782H67.8786C67.9126 68.9007 68.3169 56.5075 67.7028 55.0074C67.3448 54.1328 66.5741 53.6586 66.1201 53.4449C65.9935 53.3848 65.889 53.2867 65.8211 53.1641C65.7533 53.0416 65.7256 52.9009 65.7419 52.7618C65.8157 52.096 66.3101 51.834 66.7391 51.7331C67.0335 51.668 67.3389 51.6702 67.6324 51.7395C69.0231 52.0473 70.0494 51.2268 70.4887 50.7812C70.5722 50.6943 70.681 50.6358 70.7995 50.614C70.9181 50.5922 71.0405 50.6081 71.1495 50.6595C72.9076 51.5124 71.4219 54.6199 71.4219 54.6199Z" fill="#CBDAFD"/>
<path d="M71.1483 46.5933C71.1028 46.7403 71.0942 46.8964 71.1234 47.0476C71.1526 47.1988 71.2187 47.3404 71.3158 47.46C71.6846 47.9229 72.4228 49.0088 72.4977 50.3655C72.6001 52.1876 73.7864 51.4907 74.0736 50.1611C74.3607 48.8315 73.8273 46.7489 72.2943 46.2338C71.5428 45.9836 71.2527 46.2672 71.1483 46.5933Z" fill="#CBDAFD"/>
<path d="M8.94987 43.2372H10.6636L10.6661 41.0093H8.95184C8.68904 41.0091 8.43463 41.1018 8.23358 41.271C8.03252 41.4403 7.89778 41.6751 7.85317 41.9341C7.84226 41.9961 7.83682 42.0588 7.83692 42.1217C7.83659 42.2681 7.86514 42.4131 7.92093 42.5484C7.97671 42.6837 8.05864 42.8067 8.16202 42.9103C8.2654 43.0139 8.3882 43.0961 8.52339 43.1522C8.65858 43.2083 8.80351 43.2372 8.94987 43.2372Z" fill="#FBDF78"/>
<path d="M10.6621 43.2386H12.3759C12.5381 43.2388 12.6984 43.2036 12.8455 43.1354C12.9927 43.0673 13.1232 42.9678 13.228 42.8439C13.3327 42.72 13.4091 42.5748 13.4519 42.4183C13.4946 42.2619 13.5027 42.0979 13.4755 41.938C13.4314 41.6789 13.297 41.4438 13.0962 41.2742C12.8955 41.1046 12.6412 41.0114 12.3783 41.0112H10.6646L10.6621 43.2386Z" fill="#FF0031"/>
<g style="mix-blend-mode:soft-light">
<path d="M8.94987 43.2381L12.3774 43.2416C12.5396 43.2418 12.6999 43.2066 12.8471 43.1384C12.9942 43.0702 13.1248 42.9707 13.2295 42.8468C13.3342 42.723 13.4106 42.5777 13.4534 42.4213C13.4961 42.2648 13.5042 42.1009 13.477 41.941L13.4726 41.9759C13.4433 42.1664 13.3465 42.3399 13.1998 42.4648C13.0532 42.5898 12.8665 42.6578 12.6738 42.6565L8.79327 42.6521C7.94723 42.5669 7.85514 41.9513 7.85317 41.9351C7.84226 41.997 7.83682 42.0598 7.83692 42.1227C7.83659 42.269 7.86514 42.414 7.92093 42.5494C7.97671 42.6847 8.05864 42.8076 8.16202 42.9113C8.2654 43.0149 8.3882 43.0971 8.52339 43.1532C8.65858 43.2092 8.80351 43.2381 8.94987 43.2381Z" fill="#240A5B"/>
</g>
<g style="mix-blend-mode:soft-light">
<path d="M9.84638 41.6527C9.84657 41.47 9.58017 41.3215 9.25135 41.3212C8.92253 41.3208 8.65581 41.4687 8.65562 41.6515C8.65543 41.8343 8.92184 41.9827 9.25066 41.983C9.57948 41.9834 9.84619 41.8355 9.84638 41.6527Z" fill="white"/>
</g>
<path d="M12.1317 40.9381L13.4948 41.9772L14.8456 40.2044L13.4825 39.1653C13.2736 39.0058 13.0149 38.9254 12.7523 38.9384C12.4897 38.9513 12.2402 39.0569 12.048 39.2362C11.9291 39.3467 11.8357 39.4819 11.7745 39.6322C11.7133 39.7826 11.6858 39.9445 11.6937 40.1067C11.7017 40.2688 11.745 40.4272 11.8207 40.5709C11.8964 40.7145 12.0025 40.8399 12.1317 40.9381Z" fill="#FBDF78"/>
<path d="M13.4893 41.9764L14.8524 43.0155C14.9813 43.114 15.1302 43.1832 15.2887 43.2181C15.4472 43.253 15.6113 43.2528 15.7697 43.2176C15.9281 43.1823 16.0769 43.1129 16.2056 43.0141C16.3343 42.9153 16.4399 42.7896 16.5149 42.6457C16.6365 42.4127 16.6718 42.1442 16.6147 41.8877C16.5575 41.6312 16.4116 41.4031 16.2027 41.2437L14.8396 40.2051L13.4893 41.9764Z" fill="#FF0031"/>
<g style="mix-blend-mode:soft-light">
<path d="M12.1314 40.9363L14.8576 43.0145C14.9866 43.113 15.1355 43.1821 15.294 43.217C15.4524 43.2519 15.6166 43.2517 15.775 43.2165C15.9334 43.1813 16.0821 43.1118 16.2109 43.013C16.3396 42.9143 16.4452 42.7885 16.5202 42.6446L16.4956 42.6698C16.3571 42.8038 16.1749 42.8835 15.9824 42.8941C15.79 42.9048 15.6001 42.8458 15.4476 42.7279L12.3614 40.3754C11.7399 39.7953 12.0393 39.2496 12.0472 39.2354C11.9285 39.3459 11.8353 39.481 11.7743 39.6313C11.7132 39.7816 11.6857 39.9434 11.6937 40.1054C11.7018 40.2674 11.7451 40.4257 11.8207 40.5693C11.8963 40.7128 12.0023 40.838 12.1314 40.9363Z" fill="#240A5B"/>
</g>
<g style="mix-blend-mode:soft-light">
<path d="M13.8009 40.2209C13.9117 40.0756 13.7896 39.7962 13.5281 39.5968C13.2666 39.3975 12.9648 39.3537 12.854 39.499C12.7431 39.6444 12.8653 39.9238 13.1268 40.1232C13.3883 40.3225 13.6901 40.3663 13.8009 40.2209Z" fill="white"/>
</g>
<path d="M38.2295 34.2237C38.5742 34.56 38.9376 34.7541 39.0174 35.1943C39.0913 35.1987 39.9649 35.2376 40.3894 34.6748C40.6741 34.2966 40.3402 34.0425 40.3402 34.0425C40.3283 33.7741 40.1624 33.747 40.1624 33.747C40.1528 33.6689 40.1169 33.5964 40.0604 33.5416C40.004 33.4867 39.9305 33.4529 39.8521 33.4456C40.0664 33.0679 40.485 32.9039 40.6731 32.8409C41.0286 32.7217 40.9848 32.6517 40.9021 32.6158C40.8439 32.5919 40.7799 32.586 40.7184 32.5991C38.8702 32.9595 38.847 33.5313 38.6954 33.781C38.5816 33.9668 38.4209 34.1195 38.2295 34.2237Z" fill="#FEA18F"/>
<path d="M30.7897 74.72C29.3458 74.4408 29.1055 73.509 29.0868 72.6851C29.0681 71.8613 27.279 72.598 27.279 72.598C27.279 72.598 27.0899 73.1702 27.1849 75.4316C27.1898 75.5463 27.213 75.7926 27.3785 75.831C30.541 76.5697 32.2636 75.8275 32.2538 75.696C32.2351 75.3296 31.7756 74.9091 30.7897 74.72Z" fill="#010B2B"/>
<path d="M25.5383 30.6592C25.3561 31.4166 24.9356 31.4816 24.9356 31.4816V32.762C24.9356 32.762 25.0557 33.8212 24.024 33.8872C22.9923 33.9532 22.6565 32.762 22.6565 32.762L22.6323 30.4302V30.4223C21.8168 30.2017 21.577 29.1867 21.8405 28.9661C21.9164 28.9032 22.0088 28.8635 22.1068 28.8518C22.2047 28.8401 22.3039 28.8568 22.3925 28.9001C22.4394 28.6242 22.5036 28.3515 22.5846 28.0836C22.7042 27.7084 23.1844 27.1563 23.1844 27.1563L24.84 27.112C24.8307 27.0721 25.4098 28.8356 25.5408 29.9658C25.5738 30.2504 25.5787 30.4967 25.5383 30.6592Z" fill="#FEA18F"/>
<path d="M25.5398 30.6595C25.3576 31.4169 24.937 31.4819 24.937 31.4819C24.937 31.9291 24.5243 32.2063 24.0816 32.1428C22.949 31.9803 22.65 30.5285 22.6338 30.43V30.4246C22.8963 29.7928 24.9395 29.9366 25.5152 29.9657C25.5242 29.966 25.5333 29.9668 25.5422 29.9681C25.5752 30.2508 25.5802 30.497 25.5398 30.6595Z" fill="#F77969"/>
<path d="M22.2223 74.8418C20.8218 74.3951 20.6932 73.4417 20.7725 72.6213C20.8518 71.8009 18.9879 72.3229 18.9879 72.3229C18.9879 72.3229 18.7323 72.869 18.5584 75.1254C18.5496 75.2402 18.5432 75.4874 18.7032 75.545C21.7565 76.6466 23.5549 76.1143 23.5628 75.9828C23.5855 75.6179 23.1787 75.1461 22.2223 74.8418Z" fill="#010B2B"/>
<path d="M16.8613 65.8371C16.8613 65.8371 22.2336 68.194 30.3379 65.5638L23.1057 49.0054L16.8613 65.8371Z" fill="#B6CDE0"/>
<path d="M18.5518 73.1826C18.5518 73.1826 19.8198 73.9637 20.9717 73.2531L23.7418 53.0436L26.9255 73.6204C26.9255 73.6204 28.5014 73.9336 29.4228 73.1831L27.4465 49.1216L19.3796 48.8877L18.5518 73.1826Z" fill="#041247"/>
<path d="M19.2393 48.8785C19.2393 48.8785 25.267 50.5966 27.3914 49.1464L26.0426 33.4133C25.7963 33.1474 25.5575 32.9184 25.3374 32.9312L24.3032 33.203L21.9394 33.174L19.2393 48.8785Z" fill="#4B88E2"/>
<path d="M21.2103 64.7328C21.2103 64.7328 19.205 66.0723 16.8486 65.8226L18.7692 43.597C18.7692 43.597 16.9388 41.7749 16.8605 40.6551C16.7822 39.5352 19.0765 35.238 19.6606 34.1359C20.2446 33.0338 22.636 32.3325 22.636 32.3325L22.8315 33.3534L21.2103 64.7328Z" fill="#E1EDFF"/>
<path d="M39.3784 35.668C39.1665 35.0046 38.7409 34.43 38.1679 34.034C35.6027 35.668 35.2279 35.8699 32.0787 37.5886C32.0787 37.5886 31.696 37.6777 31.5439 37.5531C30.5097 36.71 26.6252 33.3899 25.5674 32.9585L27.4387 64.0774C27.4387 64.0774 28.5098 65.6902 30.3255 65.7213L28.272 40.0642C29.377 40.4631 30.4664 40.8157 31.4823 40.9506C31.8833 41.0028 32.2894 40.9025 32.6199 40.6694L39.3784 35.668Z" fill="#E1EDFF"/>
<path d="M22.6015 32.3462L24.2995 33.1558L23.8071 34.2165L21.7988 32.6697C22.0596 32.5457 22.3277 32.4377 22.6015 32.3462Z" fill="#F4F2F4"/>
<path d="M24.3037 33.1991L25.1379 34.1161L25.5944 32.9692L24.9385 32.7471L24.3037 33.1991Z" fill="#F4F2F4"/>
<path d="M25.3819 29.1296C25.3823 29.1673 25.3742 29.2045 25.3582 29.2386C25.3421 29.2727 25.3186 29.3027 25.2893 29.3263C25.26 29.35 25.2258 29.3668 25.1891 29.3754C25.1525 29.3839 25.1143 29.3841 25.0776 29.3759C24.8673 29.3291 24.6787 29.2424 24.1597 29.531C23.6505 29.8136 22.5173 28.5992 22.5739 28.1733C22.6946 28.1442 22.8522 28.0319 23.0359 27.7271C23.0447 27.7128 23.0531 27.699 23.062 27.6857C23.1891 27.4921 23.3861 27.3551 23.6118 27.3032C23.8375 27.2514 24.0746 27.2887 24.2734 27.4075C24.5856 27.5912 25.6858 27.7847 25.6858 26.4659C25.6858 25.9503 25.311 26.2655 25.311 26.2655C25.311 26.2655 25.1672 25.4342 24.2734 25.549C23.3796 25.6637 23.0053 26.294 23.0053 26.294C23.0053 26.294 22.2558 26.1222 21.8525 26.5235C21.6004 26.7742 21.6063 27.1923 21.7954 27.5552C20.873 28.1575 21.7634 29.0878 21.7634 29.0878C21.952 28.7923 22.1918 28.8317 22.3321 28.8908L22.343 28.9016C22.4868 29.0449 22.4868 29.0164 22.6311 30.4208C22.6311 30.4208 23.4057 32.0253 24.9082 31.5392C26.1477 31.1379 25.3883 29.038 25.3691 29.0164C25.3755 29.0538 25.3798 29.0917 25.3819 29.1296Z" fill="#041247"/>
<path d="M18.7704 43.5962L22.1378 46.7706C22.1378 46.7706 22.0679 48.0352 22.0763 47.9628C22.0846 47.8904 18.7275 44.0882 18.7275 44.0882L18.7704 43.5962Z" fill="#B6CDE0"/>
<path d="M22.2915 43.7777L19.9454 41.0805C19.8319 40.9501 19.7522 40.7937 19.7134 40.6252C19.6746 40.4567 19.6778 40.2813 19.7229 40.1143L20.268 38.0918L20.4157 40.0542C20.4321 40.2611 20.4945 40.4617 20.5984 40.6413L22.3028 43.596L22.2915 43.7777Z" fill="#B6CDE0"/>
<path style="mix-blend-mode:multiply" opacity="0.7" d="M31.1001 43.114C30.8364 43.3194 30.6162 43.5752 30.4525 43.8665C30.2888 44.1579 30.1847 44.479 30.1464 44.811C30.1082 45.143 30.1364 45.4793 30.2295 45.8003C30.3227 46.1213 30.4788 46.4205 30.6889 46.6804C31.5719 47.788 33.1871 47.9869 34.2966 47.1236C34.5603 46.9183 34.7805 46.6625 34.9442 46.3711C35.108 46.0798 35.212 45.7587 35.2503 45.4267C35.2886 45.0947 35.2603 44.7584 35.1672 44.4374C35.074 44.1164 34.9179 43.8172 34.7078 43.5572C33.8273 42.4512 32.2096 42.2522 31.1001 43.114Z" fill="url(#paint2_radial_1730_70143)"/>
<path style="mix-blend-mode:screen" opacity="0.6" d="M33.5283 42.9076C32.9442 42.7553 32.3243 42.8292 31.7923 43.1144C31.518 43.261 31.2757 43.461 31.0796 43.7025C30.8835 43.944 30.7376 44.2223 30.6505 44.5209C30.5633 44.8195 30.5367 45.1326 30.5721 45.4416C30.6075 45.7507 30.7042 46.0496 30.8567 46.3208C31.1499 46.8489 31.6307 47.2477 32.204 47.4382C31.8856 47.3569 31.5871 47.2114 31.3268 47.0107C31.0665 46.81 30.8499 46.5583 30.6902 46.271C30.5379 45.9998 30.4412 45.701 30.4058 45.3919C30.3704 45.0828 30.3971 44.7698 30.4842 44.4712C30.5714 44.1726 30.7172 43.8944 30.9133 43.6529C31.1093 43.4113 31.3516 43.2114 31.6259 43.0647C31.9154 42.9098 32.2336 42.8159 32.5608 42.7889C32.888 42.7619 33.2173 42.8023 33.5283 42.9076Z" fill="url(#paint3_radial_1730_70143)"/>
<path style="mix-blend-mode:screen" opacity="0.4" d="M34.4331 43.7177C34.7475 44.1078 34.9201 44.5932 34.9225 45.0943C34.9249 45.5953 34.757 46.0823 34.4464 46.4755C34.864 45.3763 34.5793 44.2594 33.9539 43.5503C33.7257 43.3014 33.4614 43.0883 33.1699 42.918C33.669 43.0348 34.114 43.3166 34.4331 43.7177Z" fill="url(#paint4_radial_1730_70143)"/>
<path d="M25.5625 47.4806L25.7211 47.9169L30.3576 46.2288L30.2537 45.9451L30.2207 45.8545L30.199 45.7925L25.6516 47.4481L25.5625 47.4806Z" fill="#041247"/>
<g style="mix-blend-mode:soft-light">
<path d="M25.6494 47.4481L25.7046 47.6003L30.2514 45.9451L30.2184 45.8545L30.1968 45.7925L25.6494 47.4481Z" fill="white"/>
</g>
<path d="M23.4697 48.1054C23.4697 48.1153 23.4714 48.1251 23.4747 48.1344L23.6933 48.7333C23.6968 48.7427 23.7021 48.7514 23.7089 48.7588C23.7157 48.7662 23.724 48.7722 23.7331 48.7764C23.7423 48.7806 23.7522 48.783 23.7622 48.7834C23.7723 48.7837 23.7824 48.7821 23.7918 48.7786L23.9346 48.7264L28.3332 47.1431C28.3524 47.1361 28.3679 47.1218 28.3765 47.1033C28.3851 47.0849 28.386 47.0637 28.379 47.0446L28.2219 46.6137L28.1944 46.5379L28.1604 46.4458C28.1572 46.4362 28.152 46.4273 28.1452 46.4197C28.1384 46.4122 28.1302 46.4061 28.1209 46.4018C28.1117 46.3976 28.1017 46.3953 28.0916 46.395C28.0814 46.3948 28.0713 46.3967 28.0619 46.4005L23.5195 48.0349C23.5052 48.0406 23.4929 48.0502 23.4841 48.0628C23.4753 48.0753 23.4703 48.0901 23.4697 48.1054Z" fill="#041247"/>
<g style="mix-blend-mode:soft-light">
<path d="M23.4697 48.1044L23.5042 48.1975C23.5076 48.207 23.5129 48.2157 23.5197 48.2232C23.5265 48.2306 23.5347 48.2366 23.5439 48.2408C23.5531 48.245 23.563 48.2474 23.5731 48.2477C23.5832 48.2481 23.5933 48.2464 23.6027 48.2428L23.7455 48.1906L28.1456 46.6078C28.1598 46.6023 28.172 46.5927 28.1808 46.5803C28.1896 46.5678 28.1944 46.5531 28.1949 46.5379L28.1609 46.4458C28.1577 46.4362 28.1525 46.4273 28.1457 46.4197C28.1389 46.4122 28.1307 46.4061 28.1214 46.4018C28.1122 46.3976 28.1022 46.3953 28.0921 46.395C28.0819 46.3948 28.0718 46.3967 28.0624 46.4005L23.52 48.035C23.5058 48.0404 23.4935 48.0499 23.4846 48.0622C23.4757 48.0746 23.4705 48.0892 23.4697 48.1044Z" fill="white"/>
</g>
<path d="M30.1685 46.0523C30.3501 46.5514 30.6755 46.9854 31.1038 47.2996C31.532 47.6137 32.0438 47.7937 32.5744 47.8169C33.105 47.8401 33.6305 47.7054 34.0846 47.4299C34.5386 47.1544 34.9007 46.7504 35.1251 46.2691C35.3495 45.7877 35.4262 45.2507 35.3453 44.7258C35.2644 44.2009 35.0297 43.7117 34.6708 43.3203C34.3119 42.9288 33.845 42.6525 33.3291 42.5265C32.8132 42.4004 32.2715 42.4301 31.7725 42.612C31.1037 42.8557 30.5591 43.355 30.2583 44.0001C29.9575 44.6452 29.9252 45.3834 30.1685 46.0523ZM30.4148 45.9632C30.2507 45.5128 30.2239 45.0239 30.3378 44.5583C30.4516 44.0926 30.7009 43.6712 31.0543 43.3474C31.4076 43.0235 31.849 42.8116 32.3228 42.7386C32.7965 42.6656 33.2813 42.7348 33.7157 42.9373C34.1501 43.1398 34.5148 43.4666 34.7635 43.8764C35.0122 44.2861 35.1338 44.7604 35.1129 45.2393C35.092 45.7182 34.9296 46.1801 34.6462 46.5666C34.3628 46.9532 33.9711 47.247 33.5207 47.411C33.2217 47.52 32.9041 47.569 32.5861 47.5552C32.2682 47.5414 31.956 47.4651 31.6675 47.3306C31.3791 47.1962 31.1199 47.0062 30.9049 46.7716C30.6898 46.5369 30.5231 46.2622 30.4143 45.9632H30.4148Z" fill="#041247"/>
<g style="mix-blend-mode:soft-light">
<path d="M30.2166 45.749C30.2383 45.8347 30.2644 45.9199 30.2949 46.0046C30.5225 46.6286 30.9848 47.139 31.5832 47.4272C32.1816 47.7153 32.8689 47.7584 33.4986 47.5473C34.1284 47.3361 34.6508 46.8874 34.9545 46.2968C35.2583 45.7061 35.3194 45.0202 35.1248 44.3851C34.9303 43.7501 34.4954 43.2161 33.9129 42.8969C33.3305 42.5778 32.6464 42.4987 32.0064 42.6765C31.3665 42.8543 30.8213 43.275 30.487 43.8489C30.1526 44.4229 30.0556 45.1046 30.2166 45.749ZM31.8614 42.8568C32.3118 42.6928 32.8007 42.666 33.2662 42.7799C33.7318 42.8937 34.1532 43.1431 34.4771 43.4964C34.8009 43.8497 35.0128 44.2911 35.0858 44.7648C35.1588 45.2385 35.0897 45.7232 34.8872 46.1577C34.6847 46.5921 34.3579 46.9567 33.9482 47.2054C33.5385 47.4542 33.0643 47.5758 32.5854 47.555C32.1066 47.5342 31.6447 47.3719 31.2581 47.0885C30.8715 46.8052 30.5776 46.4136 30.4136 45.9632C30.3825 45.8788 30.3563 45.7927 30.3353 45.7052C30.1948 45.1258 30.2727 44.515 30.5543 43.9895C30.8358 43.464 31.3012 43.0607 31.8614 42.8568Z" fill="white"/>
</g>
<g style="mix-blend-mode:soft-light" opacity="0.21">
<path d="M30.2166 45.749L30.3352 45.7037C30.196 45.131 30.2702 44.5271 30.544 44.0052C30.8178 43.4832 31.2725 43.079 31.8229 42.8681C32.3733 42.6572 32.9817 42.6541 33.5342 42.8594C34.0867 43.0648 34.5454 43.4644 34.8245 43.9836L34.9432 43.9382C34.6523 43.3867 34.1694 42.961 33.5859 42.7414C33.0023 42.5219 32.3585 42.5238 31.7762 42.7468C31.194 42.9698 30.7136 43.3985 30.4261 43.9517C30.1385 44.5049 30.0636 45.1443 30.2156 45.749H30.2166Z" fill="white"/>
</g>
<path d="M26.2538 48.3415C26.2538 48.3415 26.106 48.5739 25.8436 48.5384C25.8295 48.5372 25.8155 48.5352 25.8017 48.5325C25.8017 48.5325 25.6953 48.7556 25.3619 48.7029C25.3619 48.7029 25.1837 48.928 24.9089 48.7492C24.6454 48.5778 24.2194 48.0051 23.6777 47.8411L24.2298 46.7405C24.2298 46.7405 24.4923 46.3583 24.5499 46.3756C24.7227 46.4248 24.9015 46.902 25.3871 46.6971C26.0351 46.4238 26.8152 46.7104 26.8644 46.7597C26.9137 46.8089 26.7541 47.0478 26.5113 47.0202C26.2686 46.9926 26.1666 47.1404 26.2119 47.2344C26.2572 47.3285 26.7891 48.1174 26.6842 48.3178C26.5793 48.5183 26.3459 48.4542 26.2538 48.3415Z" fill="#FEA18F"/>
<path d="M20.6138 41.9541C19.557 42.3028 18.9813 41.9009 17.7314 42.127C19.3477 44.2884 23.6321 48.1615 23.6321 48.1615C23.6321 48.1615 24.7495 47.3396 24.9617 46.5364C24.9617 46.5369 22.2995 43.8575 20.6138 41.9541Z" fill="#E1EDFF"/>
<path d="M75.2 6.52148H53.8096V34.4695H75.2V6.52148Z" fill="#CBDAFD"/>
<path d="M74.7117 6.04492H53.3213V33.9929H74.7117V6.04492Z" fill="#FEFCFB"/>
<path d="M64.0203 8.2666C63.5807 8.2667 63.1509 8.39716 62.7854 8.64148C62.4199 8.8858 62.1351 9.23301 61.9669 9.63921C61.7987 10.0454 61.7548 10.4924 61.8406 10.9235C61.9265 11.3547 62.1382 11.7508 62.4491 12.0616C62.76 12.3724 63.1561 12.5841 63.5873 12.6698C64.0185 12.7556 64.4654 12.7115 64.8716 12.5433C65.2778 12.375 65.6249 12.0901 65.8692 11.7245C66.1134 11.359 66.2438 10.9292 66.2438 10.4896C66.2438 10.1976 66.1863 9.90849 66.0745 9.63876C65.9628 9.36902 65.799 9.12394 65.5925 8.91752C65.386 8.71109 65.1409 8.54736 64.8712 8.43567C64.6014 8.32399 64.3123 8.26654 64.0203 8.2666ZM65.5519 11.0682H64.4896V12.1304H63.554V11.0682H62.4893V10.1325H63.5515V9.06783H64.4872V10.1301H65.5494L65.5519 11.0682Z" fill="#FF0031"/>
<path d="M57.5722 16.1489C57.5436 15.9262 57.4348 15.7216 57.2662 15.5733C57.0976 15.425 56.8807 15.3432 56.6562 15.3433C56.4317 15.3433 56.2149 15.4251 56.0463 15.5734C55.8778 15.7217 55.769 15.9263 55.7402 16.1489H57.5722Z" fill="#404C7B"/>
<path d="M56.6653 15.1549C56.9697 15.1549 57.2164 14.9081 57.2164 14.6038C57.2164 14.2995 56.9697 14.0527 56.6653 14.0527C56.361 14.0527 56.1143 14.2995 56.1143 14.6038C56.1143 14.9081 56.361 15.1549 56.6653 15.1549Z" fill="#404C7B"/>
<path d="M72.2951 14.5884H58.1123V14.8464H72.2951V14.5884Z" fill="#404C7B"/>
<path d="M66.5639 15.3569H58.1123V15.615H66.5639V15.3569Z" fill="#404C7B"/>
<path d="M72.2541 18.4736H58.0713V18.7317H72.2541V18.4736Z" fill="#404C7B"/>
<path d="M66.5229 19.2412H58.0713V19.4993H66.5229V19.2412Z" fill="#404C7B"/>
<path d="M56.5817 19.7717L57.571 18.3086H57.3139L56.5708 19.4073L56.301 18.9724H56.0498L56.5457 19.7717H56.5817Z" fill="#404C7B"/>
<path d="M56.2879 19.558H55.9994V18.5165H57.0409V18.5204L57.1877 18.3032H55.7861V19.7712H56.4204L56.2879 19.558Z" fill="#404C7B"/>
<path d="M57.0438 19.2815V19.5578H56.8572L56.7129 19.771H57.2571V18.9663L57.0438 19.2815Z" fill="#404C7B"/>
<path d="M72.2541 22.4082H58.0713V22.6663H72.2541V22.4082Z" fill="#404C7B"/>
<path d="M66.5229 23.1763H58.0713V23.4343H66.5229V23.1763Z" fill="#404C7B"/>
<path d="M56.5817 23.7082L57.571 22.2451H57.3139L56.5708 23.3443L56.301 22.9094H56.0498L56.5457 23.7082H56.5817Z" fill="#404C7B"/>
<path d="M56.2879 23.4945H55.9994V22.453H57.0409V22.4569L57.1877 22.2397H55.7861V23.7078H56.4204L56.2879 23.4945Z" fill="#404C7B"/>
<path d="M57.0438 23.219V23.4953H56.8572L56.7129 23.7085H57.2571V22.9038L57.0438 23.219Z" fill="#404C7B"/>
<path d="M72.2541 26.3462H58.0713V26.6042H72.2541V26.3462Z" fill="#404C7B"/>
<path d="M66.5229 27.1138H58.0713V27.3718H66.5229V27.1138Z" fill="#404C7B"/>
<path d="M56.5817 27.6442L57.571 26.1812H57.3139L56.5708 27.2798L56.301 26.845H56.0498L56.5457 27.6442H56.5817Z" fill="#404C7B"/>
<path d="M56.2879 27.4311H55.9994V26.3895H57.0409V26.3934L57.1877 26.1763H55.7861V27.6443H56.4204L56.2879 27.4311Z" fill="#404C7B"/>
<path d="M57.0438 27.155V27.4313H56.8572L56.7129 27.6445H57.2571V26.8394L57.0438 27.155Z" fill="#404C7B"/>
<path d="M72.2541 30.2827H58.0713V30.5408H72.2541V30.2827Z" fill="#404C7B"/>
<path d="M66.5229 31.0503H58.0713V31.3083H66.5229V31.0503Z" fill="#404C7B"/>
<path d="M56.5817 31.5822L57.571 30.1191H57.3139L56.5708 31.2178L56.301 30.783H56.0498L56.5457 31.5822H56.5817Z" fill="#404C7B"/>
<path d="M56.2879 31.3681H55.9994V30.3265H57.0409V30.3305L57.1877 30.1133H55.7861V31.5813H56.4204L56.2879 31.3681Z" fill="#404C7B"/>
<path d="M57.0438 31.0915V31.3678H56.8572L56.7129 31.581H57.2571V30.7764L57.0438 31.0915Z" fill="#404C7B"/>
<path d="M45.8689 60.4421V61.821H45.14V60.9651C45.1401 60.9514 45.1375 60.9379 45.1323 60.9252C45.1271 60.9125 45.1194 60.901 45.1098 60.8913C45.1001 60.8816 45.0886 60.8739 45.076 60.8687C45.0634 60.8634 45.0498 60.8607 45.0361 60.8607H39.1345C39.1069 60.8609 39.0805 60.8719 39.061 60.8915C39.0415 60.911 39.0306 60.9375 39.0306 60.9651V61.8171H38.3018V60.4382C38.3018 60.3972 38.3098 60.3566 38.3255 60.3187C38.3412 60.2808 38.3642 60.2464 38.3932 60.2174C38.4222 60.1884 38.4566 60.1654 38.4945 60.1497C38.5324 60.134 38.573 60.126 38.614 60.126H45.5576C45.5989 60.1261 45.6397 60.1344 45.6777 60.1504C45.7158 60.1664 45.7502 60.1898 45.7792 60.2192C45.8081 60.2486 45.8309 60.2834 45.8463 60.3217C45.8617 60.3599 45.8694 60.4009 45.8689 60.4421Z" fill="#0B7464"/>
<g style="mix-blend-mode:soft-light">
<path d="M45.4591 60.1304V61.8175H45.14V60.9617C45.1401 60.948 45.1375 60.9344 45.1323 60.9217C45.1271 60.9091 45.1194 60.8976 45.1098 60.8879C45.1001 60.8782 45.0886 60.8705 45.076 60.8652C45.0634 60.86 45.0498 60.8573 45.0361 60.8573H43.5977V60.1289L45.4591 60.1304Z" fill="#02133A"/>
</g>
<g style="mix-blend-mode:soft-light">
<path d="M38.7129 60.1304V61.8175H39.032V60.9617C39.0319 60.948 39.0346 60.9344 39.0398 60.9217C39.045 60.9091 39.0526 60.8976 39.0623 60.8879C39.0719 60.8782 39.0834 60.8705 39.096 60.8652C39.1087 60.86 39.1222 60.8573 39.1359 60.8573H40.5724V60.1289L38.7129 60.1304Z" fill="white"/>
</g>
<path d="M48.0992 61.7808H36.0729C35.7133 61.7808 35.4219 62.0722 35.4219 62.4318V70.9144C35.4219 71.2739 35.7133 71.5654 36.0729 71.5654H48.0992C48.4588 71.5654 48.7503 71.2739 48.7503 70.9144V62.4318C48.7503 62.0722 48.4588 61.7808 48.0992 61.7808Z" fill="#8FA5FE"/>
<path d="M42.0845 63.6562C41.4806 63.6562 40.8903 63.8353 40.3882 64.1708C39.8861 64.5063 39.4948 64.9832 39.2637 65.5411C39.0326 66.099 38.9721 66.7129 39.0899 67.3051C39.2077 67.8974 39.4985 68.4415 39.9255 68.8685C40.3525 69.2955 40.8966 69.5863 41.4888 69.7041C42.0811 69.8219 42.695 69.7614 43.2529 69.5303C43.8108 69.2992 44.2877 68.9079 44.6232 68.4058C44.9587 67.9037 45.1377 67.3134 45.1377 66.7095C45.1377 65.8997 44.8161 65.1231 44.2435 64.5505C43.6709 63.9779 42.8943 63.6562 42.0845 63.6562ZM44.1883 67.5058H42.7291V68.9659H41.4399V67.5058H39.9812V66.2175H41.4404V64.7574H42.7291V66.2175H44.1883V67.5058Z" fill="#FF0031"/>
<path d="M44.191 66.2165V67.5053H42.7318V68.9649H41.4426V67.5053H39.9834V66.2165H41.4426V64.7563H42.7318V66.2165H44.191Z" fill="white"/>
<g style="mix-blend-mode:soft-light">
<path d="M38.8953 71.1666H36.4414C36.2881 71.1666 36.141 71.1056 36.0326 70.9972C35.9242 70.8888 35.8633 70.7417 35.8633 70.5884V62.7583C35.8633 62.6049 35.9242 62.4578 36.0326 62.3493C36.141 62.2408 36.288 62.1798 36.4414 62.1797H38.8953L38.0853 62.5658C37.8223 62.6909 37.6002 62.8881 37.4448 63.1343C37.2893 63.3805 37.2067 63.6658 37.2067 63.957V69.3932C37.2067 69.6859 37.2901 69.9726 37.4471 70.2196C37.6041 70.4667 37.8282 70.664 38.0931 70.7884L38.8953 71.1666Z" fill="white"/>
</g>
<g style="mix-blend-mode:soft-light">
<path d="M45.2773 71.1666H47.7313C47.8846 71.1666 48.0317 71.1056 48.1401 70.9972C48.2485 70.8888 48.3094 70.7417 48.3094 70.5884V62.7583C48.3094 62.6049 48.2485 62.4578 48.1401 62.3493C48.0317 62.2408 47.8846 62.1798 47.7313 62.1797H45.2773L46.0874 62.5658C46.3504 62.6909 46.5725 62.8881 46.7279 63.1343C46.8834 63.3805 46.966 63.6658 46.966 63.957V69.3932C46.966 69.6859 46.8827 69.9726 46.7257 70.2197C46.5687 70.4668 46.3446 70.664 46.0796 70.7884L45.2773 71.1666Z" fill="#181342"/>
</g>
<path d="M17.4324 28.4884C17.4159 28.4885 17.3995 28.4849 17.3846 28.4779C17.3696 28.4709 17.3563 28.4607 17.3457 28.448L17.1891 28.2614C17.1794 28.25 17.1721 28.2368 17.1675 28.2225C17.1629 28.2082 17.1611 28.1932 17.1624 28.1783C17.1636 28.1634 17.1677 28.1488 17.1745 28.1355C17.1814 28.1222 17.1908 28.1103 17.2022 28.1006C17.2136 28.0909 17.2268 28.0835 17.2411 28.0789C17.2553 28.0744 17.2704 28.0726 17.2853 28.0738C17.3002 28.075 17.3148 28.0792 17.3281 28.086C17.3414 28.0928 17.3533 28.1022 17.363 28.1136L17.4797 28.2525C17.504 28.2627 17.5241 28.2811 17.5364 28.3044C17.5487 28.3278 17.5525 28.3547 17.5472 28.3806L17.5437 28.3963C17.5393 28.4172 17.5291 28.4364 17.5143 28.4517C17.4995 28.467 17.4807 28.4779 17.46 28.483C17.4511 28.486 17.4418 28.4879 17.4324 28.4884ZM17.5427 27.9649C17.5349 27.9648 17.5272 27.964 17.5196 27.9625C17.4901 27.9562 17.4644 27.9385 17.4479 27.9134C17.4313 27.8882 17.4254 27.8575 17.4314 27.828L17.4851 27.5739C17.4913 27.5445 17.509 27.5187 17.5342 27.5022C17.5594 27.4858 17.5901 27.4801 17.6195 27.4863C17.649 27.4925 17.6748 27.5101 17.6912 27.5353C17.7077 27.5605 17.7134 27.5912 17.7072 27.6207L17.654 27.8748C17.6485 27.9003 17.6345 27.9231 17.6142 27.9395C17.594 27.9559 17.5688 27.9648 17.5427 27.9649ZM16.9424 27.9048C16.9258 27.9049 16.9093 27.9012 16.8942 27.8942C16.8792 27.8871 16.8659 27.8768 16.8552 27.864L16.6883 27.667C16.6687 27.6439 16.6591 27.614 16.6615 27.5839C16.664 27.5537 16.6783 27.5258 16.7014 27.5062C16.7244 27.4866 16.7543 27.477 16.7845 27.4794C16.8146 27.4819 16.8426 27.4962 16.8621 27.5193L17.0291 27.7162C17.0431 27.7327 17.0521 27.7529 17.055 27.7744C17.058 27.7958 17.0547 27.8177 17.0455 27.8373C17.0364 27.857 17.0218 27.8736 17.0036 27.8852C16.9853 27.8968 16.9641 27.903 16.9424 27.9029V27.9048ZM16.4426 27.3085C16.426 27.3085 16.4096 27.3049 16.3945 27.2979C16.3795 27.2909 16.3661 27.2808 16.3554 27.2681L16.1885 27.0711C16.1788 27.0597 16.1714 27.0465 16.1668 27.0322C16.1622 27.018 16.1605 27.0029 16.1617 26.988C16.1629 26.9731 16.167 26.9585 16.1739 26.9452C16.1807 26.9319 16.1901 26.92 16.2015 26.9103C16.2129 26.9006 16.2261 26.8933 16.2404 26.8887C16.2547 26.8841 16.2697 26.8823 16.2846 26.8836C16.2995 26.8848 16.3141 26.8889 16.3274 26.8957C16.3407 26.9026 16.3526 26.912 16.3623 26.9234L16.5292 27.1204C16.5433 27.1369 16.5523 27.157 16.5552 27.1785C16.5581 27.2 16.5548 27.2218 16.5457 27.2414C16.5366 27.2611 16.522 27.2777 16.5037 27.2893C16.4854 27.3009 16.4642 27.3071 16.4426 27.307V27.3085ZM17.7042 27.2026C17.6964 27.2035 17.6885 27.2035 17.6806 27.2026C17.666 27.1996 17.6522 27.1937 17.6398 27.1852C17.6275 27.1768 17.617 27.1661 17.6089 27.1536C17.6007 27.1411 17.5951 27.1271 17.5924 27.1125C17.5897 27.0978 17.5898 27.0827 17.593 27.0682L17.6461 26.8145C17.6523 26.7851 17.67 26.7593 17.6952 26.7429C17.7204 26.7264 17.7511 26.7207 17.7806 26.7269C17.81 26.7331 17.8358 26.7507 17.8523 26.776C17.8687 26.8012 17.8744 26.8319 17.8682 26.8613L17.8151 27.1149C17.8092 27.1401 17.7949 27.1625 17.7746 27.1785C17.7543 27.1944 17.7291 27.2029 17.7033 27.2026H17.7042ZM19.0127 26.819H18.9497C18.9341 26.82 18.9186 26.8178 18.9039 26.8126C18.8892 26.8073 18.8758 26.7991 18.8644 26.7885C18.8531 26.7779 18.844 26.765 18.8378 26.7507C18.8316 26.7364 18.8284 26.721 18.8284 26.7055C18.8284 26.6899 18.8316 26.6745 18.8378 26.6602C18.844 26.6459 18.8531 26.6331 18.8644 26.6224C18.8758 26.6118 18.8892 26.6036 18.9039 26.5983C18.9186 26.5931 18.9341 26.5909 18.9497 26.592H19.0127C19.07 26.5919 19.1271 26.5858 19.1831 26.5737C19.2125 26.5672 19.2433 26.5726 19.2687 26.5888C19.2941 26.6049 19.312 26.6305 19.3185 26.6599C19.3251 26.6893 19.3196 26.7201 19.3035 26.7455C19.2873 26.7709 19.2617 26.7888 19.2323 26.7953C19.1599 26.8112 19.0859 26.8191 19.0117 26.819H19.0127ZM18.4306 26.819H18.1711C18.1556 26.82 18.14 26.8178 18.1253 26.8126C18.1107 26.8073 18.0972 26.7991 18.0859 26.7885C18.0745 26.7779 18.0654 26.765 18.0592 26.7507C18.0531 26.7364 18.0499 26.721 18.0499 26.7055C18.0499 26.6899 18.0531 26.6745 18.0592 26.6602C18.0654 26.6459 18.0745 26.6331 18.0859 26.6224C18.0972 26.6118 18.1107 26.6036 18.1253 26.5983C18.14 26.5931 18.1556 26.5909 18.1711 26.592H18.4306C18.4594 26.5939 18.4864 26.6066 18.5062 26.6277C18.5259 26.6488 18.5369 26.6766 18.5369 26.7055C18.5369 26.7343 18.5259 26.7621 18.5062 26.7832C18.4864 26.8043 18.4594 26.8171 18.4306 26.819ZM15.892 26.819H15.6325C15.6169 26.82 15.6014 26.8178 15.5867 26.8126C15.572 26.8073 15.5586 26.7991 15.5472 26.7885C15.5359 26.7779 15.5268 26.765 15.5206 26.7507C15.5144 26.7364 15.5112 26.721 15.5112 26.7055C15.5112 26.6899 15.5144 26.6745 15.5206 26.6602C15.5268 26.6459 15.5359 26.6331 15.5472 26.6224C15.5586 26.6118 15.572 26.6036 15.5867 26.5983C15.6014 26.5931 15.6169 26.5909 15.6325 26.592H15.892C15.9208 26.5939 15.9478 26.6066 15.9676 26.6277C15.9873 26.6488 15.9983 26.6766 15.9983 26.7055C15.9983 26.7343 15.9873 26.7621 15.9676 26.7832C15.9478 26.8043 15.9208 26.8171 15.892 26.819ZM15.1134 26.819H14.8539C14.8384 26.82 14.8228 26.8178 14.8081 26.8126C14.7935 26.8073 14.78 26.7991 14.7687 26.7885C14.7573 26.7779 14.7482 26.765 14.742 26.7507C14.7359 26.7364 14.7327 26.721 14.7327 26.7055C14.7327 26.6899 14.7359 26.6745 14.742 26.6602C14.7482 26.6459 14.7573 26.6331 14.7687 26.6224C14.78 26.6118 14.7935 26.6036 14.8081 26.5983C14.8228 26.5931 14.8384 26.5909 14.8539 26.592H15.1129C15.1417 26.5939 15.1688 26.6066 15.1885 26.6277C15.2082 26.6488 15.2192 26.6766 15.2192 26.7055C15.2192 26.7343 15.2082 26.7621 15.1885 26.7832C15.1688 26.8043 15.1417 26.8171 15.1129 26.819H15.1134ZM14.3348 26.819H14.0753C14.0598 26.82 14.0442 26.8178 14.0295 26.8126C14.0149 26.8073 14.0015 26.7991 13.9901 26.7885C13.9787 26.7779 13.9697 26.765 13.9635 26.7507C13.9573 26.7364 13.9541 26.721 13.9541 26.7055C13.9541 26.6899 13.9573 26.6745 13.9635 26.6602C13.9697 26.6459 13.9787 26.6331 13.9901 26.6224C14.0015 26.6118 14.0149 26.6036 14.0295 26.5983C14.0442 26.5931 14.0598 26.5909 14.0753 26.592H14.3348C14.3637 26.5939 14.3907 26.6066 14.4104 26.6277C14.4301 26.6488 14.4411 26.6766 14.4411 26.7055C14.4411 26.7343 14.4301 26.7621 14.4104 26.7832C14.3907 26.8043 14.3637 26.8171 14.3348 26.819ZM13.5563 26.819H13.2958C13.2802 26.82 13.2646 26.8178 13.25 26.8126C13.2353 26.8073 13.2219 26.7991 13.2105 26.7885C13.1992 26.7779 13.1901 26.765 13.1839 26.7507C13.1777 26.7364 13.1745 26.721 13.1745 26.7055C13.1745 26.6899 13.1777 26.6745 13.1839 26.6602C13.1901 26.6459 13.1992 26.6331 13.2105 26.6224C13.2219 26.6118 13.2353 26.6036 13.25 26.5983C13.2646 26.5931 13.2802 26.5909 13.2958 26.592H13.5553C13.5841 26.5939 13.6111 26.6066 13.6308 26.6277C13.6506 26.6488 13.6616 26.6766 13.6616 26.7055C13.6616 26.7343 13.6506 26.7621 13.6308 26.7832C13.6111 26.8043 13.5841 26.8171 13.5553 26.819H13.5563ZM12.7777 26.819H12.5182C12.5026 26.82 12.4871 26.8178 12.4724 26.8126C12.4577 26.8073 12.4443 26.7991 12.4329 26.7885C12.4216 26.7779 12.4125 26.765 12.4063 26.7507C12.4001 26.7364 12.3969 26.721 12.3969 26.7055C12.3969 26.6899 12.4001 26.6745 12.4063 26.6602C12.4125 26.6459 12.4216 26.6331 12.4329 26.6224C12.4443 26.6118 12.4577 26.6036 12.4724 26.5983C12.4871 26.5931 12.5026 26.5909 12.5182 26.592H12.7777C12.8065 26.5939 12.8335 26.6066 12.8533 26.6277C12.873 26.6488 12.884 26.6766 12.884 26.7055C12.884 26.7343 12.873 26.7621 12.8533 26.7832C12.8335 26.8043 12.8065 26.8171 12.7777 26.819ZM11.9991 26.819H11.7396C11.7241 26.82 11.7085 26.8178 11.6938 26.8126C11.6792 26.8073 11.6657 26.7991 11.6544 26.7885C11.643 26.7779 11.6339 26.765 11.6277 26.7507C11.6215 26.7364 11.6184 26.721 11.6184 26.7055C11.6184 26.6899 11.6215 26.6745 11.6277 26.6602C11.6339 26.6459 11.643 26.6331 11.6544 26.6224C11.6657 26.6118 11.6792 26.6036 11.6938 26.5983C11.7085 26.5931 11.7241 26.5909 11.7396 26.592H11.9991C12.0279 26.5939 12.0549 26.6066 12.0747 26.6277C12.0944 26.6488 12.1054 26.6766 12.1054 26.7055C12.1054 26.7343 12.0944 26.7621 12.0747 26.7832C12.0549 26.8043 12.0279 26.8171 11.9991 26.819ZM11.2205 26.819H10.961C10.9455 26.82 10.9299 26.8178 10.9152 26.8126C10.9006 26.8073 10.8871 26.7991 10.8758 26.7885C10.8644 26.7779 10.8554 26.765 10.8492 26.7507C10.843 26.7364 10.8398 26.721 10.8398 26.7055C10.8398 26.6899 10.843 26.6745 10.8492 26.6602C10.8554 26.6459 10.8644 26.6331 10.8758 26.6224C10.8871 26.6118 10.9006 26.6036 10.9152 26.5983C10.9299 26.5931 10.9455 26.5909 10.961 26.592H11.2205C11.2494 26.5939 11.2764 26.6066 11.2961 26.6277C11.3158 26.6488 11.3268 26.6766 11.3268 26.7055C11.3268 26.7343 11.3158 26.7621 11.2961 26.7832C11.2764 26.8043 11.2494 26.8171 11.2205 26.819ZM10.442 26.819H10.1824C10.1669 26.82 10.1513 26.8178 10.1367 26.8126C10.122 26.8073 10.1086 26.7991 10.0972 26.7885C10.0858 26.7779 10.0768 26.765 10.0706 26.7507C10.0644 26.7364 10.0612 26.721 10.0612 26.7055C10.0612 26.6899 10.0644 26.6745 10.0706 26.6602C10.0768 26.6459 10.0858 26.6331 10.0972 26.6224C10.1086 26.6118 10.122 26.6036 10.1367 26.5983C10.1513 26.5931 10.1669 26.5909 10.1824 26.592H10.442C10.4708 26.5939 10.4978 26.6066 10.5175 26.6277C10.5373 26.6488 10.5482 26.6766 10.5482 26.7055C10.5482 26.7343 10.5373 26.7621 10.5175 26.7832C10.4978 26.8043 10.4708 26.8171 10.442 26.819ZM9.66338 26.819H9.40386C9.38832 26.82 9.37274 26.8178 9.35808 26.8126C9.34342 26.8073 9.32999 26.7991 9.31863 26.7885C9.30726 26.7779 9.2982 26.765 9.29201 26.7507C9.28582 26.7364 9.28262 26.721 9.28262 26.7055C9.28262 26.6899 9.28582 26.6745 9.29201 26.6602C9.2982 26.6459 9.30726 26.6331 9.31863 26.6224C9.32999 26.6118 9.34342 26.6036 9.35808 26.5983C9.37274 26.5931 9.38832 26.5909 9.40386 26.592H9.66338C9.6922 26.5939 9.71921 26.6066 9.73895 26.6277C9.75868 26.6488 9.76966 26.6766 9.76966 26.7055C9.76966 26.7343 9.75868 26.7621 9.73895 26.7832C9.71921 26.8043 9.6922 26.8171 9.66338 26.819ZM8.88481 26.819H8.6243C8.60876 26.82 8.59318 26.8178 8.57852 26.8126C8.56386 26.8073 8.55043 26.7991 8.53907 26.7885C8.5277 26.7779 8.51864 26.765 8.51245 26.7507C8.50625 26.7364 8.50306 26.721 8.50306 26.7055C8.50306 26.6899 8.50625 26.6745 8.51245 26.6602C8.51864 26.6459 8.5277 26.6331 8.53907 26.6224C8.55043 26.6118 8.56386 26.6036 8.57852 26.5983C8.59318 26.5931 8.60876 26.5909 8.6243 26.592H8.88382C8.91264 26.5939 8.93965 26.6066 8.95938 26.6277C8.97912 26.6488 8.9901 26.6766 8.9901 26.7055C8.9901 26.7343 8.97912 26.7621 8.95938 26.7832C8.93965 26.8043 8.91264 26.8171 8.88382 26.819H8.88481ZM8.10623 26.819H7.84572C7.83018 26.82 7.8146 26.8178 7.79994 26.8126C7.78528 26.8073 7.77186 26.7991 7.76049 26.7885C7.74912 26.7779 7.74006 26.765 7.73387 26.7507C7.72768 26.7364 7.72448 26.721 7.72448 26.7055C7.72448 26.6899 7.72768 26.6745 7.73387 26.6602C7.74006 26.6459 7.74912 26.6331 7.76049 26.6224C7.77186 26.6118 7.78528 26.6036 7.79994 26.5983C7.8146 26.5931 7.83018 26.5909 7.84572 26.592H8.10525C8.13406 26.5939 8.16107 26.6066 8.18081 26.6277C8.20054 26.6488 8.21152 26.6766 8.21152 26.7055C8.21152 26.7343 8.20054 26.7621 8.18081 26.7832C8.16107 26.8043 8.13406 26.8171 8.10525 26.819H8.10623ZM7.32765 26.819H7.06714C7.05161 26.82 7.03603 26.8178 7.02137 26.8126C7.00671 26.8073 6.99328 26.7991 6.98191 26.7885C6.97055 26.7779 6.96149 26.765 6.95529 26.7507C6.9491 26.7364 6.9459 26.721 6.9459 26.7055C6.9459 26.6899 6.9491 26.6745 6.95529 26.6602C6.96149 26.6459 6.97055 26.6331 6.98191 26.6224C6.99328 26.6118 7.00671 26.6036 7.02137 26.5983C7.03603 26.5931 7.05161 26.5909 7.06714 26.592H7.32667C7.35548 26.5939 7.38249 26.6066 7.40223 26.6277C7.42196 26.6488 7.43295 26.6766 7.43295 26.7055C7.43295 26.7343 7.42196 26.7621 7.40223 26.7832C7.38249 26.8043 7.35548 26.8171 7.32667 26.819H7.32765ZM6.54908 26.819H6.28857C6.27303 26.82 6.25745 26.8178 6.24279 26.8126C6.22813 26.8073 6.2147 26.7991 6.20334 26.7885C6.19197 26.7779 6.18291 26.765 6.17672 26.7507C6.17052 26.7364 6.16733 26.721 6.16733 26.7055C6.16733 26.6899 6.17052 26.6745 6.17672 26.6602C6.18291 26.6459 6.19197 26.6331 6.20334 26.6224C6.2147 26.6118 6.22813 26.6036 6.24279 26.5983C6.25745 26.5931 6.27303 26.5909 6.28857 26.592H6.54809C6.57691 26.5939 6.60392 26.6066 6.62365 26.6277C6.64339 26.6488 6.65437 26.6766 6.65437 26.7055C6.65437 26.7343 6.64339 26.7621 6.62365 26.7832C6.60392 26.8043 6.57691 26.8171 6.54809 26.819H6.54908ZM5.7705 26.819H5.50999C5.49445 26.82 5.47887 26.8178 5.46421 26.8126C5.44955 26.8073 5.43612 26.7991 5.42476 26.7885C5.41339 26.7779 5.40433 26.765 5.39814 26.7507C5.39195 26.7364 5.38875 26.721 5.38875 26.7055C5.38875 26.6899 5.39195 26.6745 5.39814 26.6602C5.40433 26.6459 5.41339 26.6331 5.42476 26.6224C5.43612 26.6118 5.44955 26.6036 5.46421 26.5983C5.47887 26.5931 5.49445 26.5909 5.50999 26.592H5.76952C5.79833 26.5939 5.82534 26.6066 5.84508 26.6277C5.86481 26.6488 5.87579 26.6766 5.87579 26.7055C5.87579 26.7343 5.86481 26.7621 5.84508 26.7832C5.82534 26.8043 5.79833 26.8171 5.76952 26.819H5.7705ZM4.99192 26.8042C4.98521 26.805 4.97844 26.805 4.97173 26.8042C4.87577 26.7869 4.78275 26.7561 4.69546 26.7126C4.66843 26.6991 4.64787 26.6754 4.63831 26.6467C4.62875 26.618 4.63098 26.5867 4.64449 26.5597C4.65801 26.5327 4.68172 26.5121 4.71039 26.5025C4.73907 26.493 4.77037 26.4952 4.7974 26.5087C4.86499 26.5427 4.93714 26.5668 5.01162 26.5801C5.03936 26.5854 5.06417 26.6007 5.08123 26.6232C5.09828 26.6457 5.10637 26.6737 5.10391 26.7018C5.10146 26.7299 5.08863 26.7561 5.06794 26.7753C5.04724 26.7945 5.02015 26.8053 4.99192 26.8057V26.8042ZM19.6554 26.5516C19.6329 26.5515 19.611 26.5448 19.5923 26.5323C19.5737 26.5198 19.5592 26.502 19.5506 26.4813C19.542 26.4606 19.5398 26.4377 19.5441 26.4157C19.5485 26.3937 19.5593 26.3734 19.5751 26.3575C19.6286 26.3039 19.6742 26.2428 19.7105 26.1763C19.7172 26.1624 19.7266 26.15 19.7383 26.1398C19.7499 26.1297 19.7635 26.122 19.7782 26.1173C19.7929 26.1125 19.8084 26.1108 19.8237 26.1123C19.8391 26.1137 19.854 26.1183 19.8676 26.1257C19.8811 26.1331 19.893 26.1431 19.9026 26.1553C19.9121 26.1674 19.9191 26.1814 19.923 26.1963C19.927 26.2112 19.9279 26.2268 19.9256 26.2421C19.9234 26.2573 19.9181 26.272 19.91 26.2851C19.863 26.3706 19.8043 26.449 19.7356 26.5181C19.7252 26.5288 19.7127 26.5373 19.6989 26.5431C19.6851 26.5489 19.6703 26.552 19.6554 26.5521V26.5516ZM4.37192 26.3738C4.35212 26.374 4.33262 26.369 4.31535 26.3593C4.29807 26.3496 4.28362 26.3356 4.27343 26.3186C4.22376 26.2347 4.18628 26.1442 4.16213 26.0498C4.1575 26.035 4.15592 26.0195 4.15749 26.0041C4.15906 25.9887 4.16376 25.9738 4.17128 25.9603C4.17881 25.9468 4.18901 25.9349 4.20126 25.9255C4.21351 25.9161 4.22756 25.9092 4.24254 25.9054C4.25753 25.9016 4.27313 25.9009 4.28841 25.9033C4.30368 25.9057 4.3183 25.9112 4.33138 25.9195C4.34445 25.9277 4.35571 25.9385 4.36446 25.9513C4.37321 25.964 4.37926 25.9784 4.38226 25.9936C4.4009 26.067 4.4301 26.1374 4.46893 26.2024C4.47657 26.2152 4.48161 26.2295 4.48374 26.2442C4.48587 26.259 4.48506 26.2741 4.48135 26.2885C4.47764 26.303 4.47111 26.3166 4.46214 26.3285C4.45316 26.3404 4.44191 26.3505 4.42904 26.358C4.41177 26.3683 4.39203 26.3738 4.37192 26.3738ZM19.9203 25.8444C19.8902 25.8443 19.8614 25.8322 19.8402 25.8109C19.819 25.7896 19.807 25.7607 19.807 25.7306V25.4711C19.8089 25.4423 19.8217 25.4153 19.8428 25.3956C19.8639 25.3758 19.8917 25.3648 19.9206 25.3648C19.9494 25.3648 19.9772 25.3758 19.9983 25.3956C20.0194 25.4153 20.0322 25.4423 20.0341 25.4711V25.7306C20.0341 25.7608 20.0221 25.7897 20.0007 25.8111C19.9794 25.8324 19.9505 25.8444 19.9203 25.8444ZM4.24486 25.6184C4.22995 25.6184 4.21517 25.6155 4.20137 25.6099C4.18757 25.6042 4.17502 25.5959 4.16445 25.5854C4.15388 25.5748 4.1455 25.5623 4.13977 25.5486C4.13405 25.5348 4.13111 25.52 4.13111 25.5051V25.2456C4.13008 25.23 4.13226 25.2145 4.1375 25.1998C4.14274 25.1851 4.15093 25.1717 4.16158 25.1603C4.17222 25.149 4.18508 25.1399 4.19936 25.1337C4.21364 25.1275 4.22905 25.1243 4.24462 25.1243C4.26019 25.1243 4.27559 25.1275 4.28987 25.1337C4.30416 25.1399 4.31702 25.149 4.32766 25.1603C4.3383 25.1717 4.34649 25.1851 4.35174 25.1998C4.35698 25.2145 4.35915 25.23 4.35813 25.2456V25.5051C4.35813 25.5351 4.3462 25.5639 4.32495 25.5852C4.30371 25.6064 4.2749 25.6184 4.24486 25.6184ZM19.9203 25.0658C19.8902 25.0657 19.8614 25.0537 19.8402 25.0323C19.819 25.011 19.807 24.9822 19.807 24.9521V24.6925C19.8089 24.6637 19.8217 24.6367 19.8428 24.617C19.8639 24.5972 19.8917 24.5863 19.9206 24.5863C19.9494 24.5863 19.9772 24.5972 19.9983 24.617C20.0194 24.6367 20.0322 24.6637 20.0341 24.6925V24.9521C20.0341 24.9822 20.0221 25.0112 20.0007 25.0325C19.9794 25.0538 19.9505 25.0658 19.9203 25.0658ZM4.24486 24.8398C4.22995 24.8398 4.21517 24.837 4.20137 24.8313C4.18757 24.8256 4.17502 24.8173 4.16445 24.8068C4.15388 24.7963 4.1455 24.7838 4.13977 24.77C4.13405 24.7562 4.13111 24.7414 4.13111 24.7265V24.467C4.13008 24.4515 4.13226 24.4359 4.1375 24.4212C4.14274 24.4066 4.15093 24.3931 4.16158 24.3818C4.17222 24.3704 4.18508 24.3613 4.19936 24.3551C4.21364 24.349 4.22905 24.3458 4.24462 24.3458C4.26019 24.3458 4.27559 24.349 4.28987 24.3551C4.30416 24.3613 4.31702 24.3704 4.32766 24.3818C4.3383 24.3931 4.34649 24.4066 4.35174 24.4212C4.35698 24.4359 4.35915 24.4515 4.35813 24.467V24.7265C4.35813 24.7566 4.3462 24.7854 4.32495 24.8066C4.30371 24.8279 4.2749 24.8398 4.24486 24.8398ZM19.9203 24.2872C19.8902 24.2871 19.8614 24.2751 19.8402 24.2538C19.819 24.2324 19.807 24.2036 19.807 24.1735V23.914C19.806 23.8984 19.8082 23.8828 19.8134 23.8682C19.8187 23.8535 19.8269 23.8401 19.8375 23.8287C19.8482 23.8174 19.861 23.8083 19.8753 23.8021C19.8896 23.7959 19.905 23.7927 19.9206 23.7927C19.9361 23.7927 19.9515 23.7959 19.9658 23.8021C19.9801 23.8083 19.993 23.8174 20.0036 23.8287C20.0142 23.8401 20.0224 23.8535 20.0277 23.8682C20.0329 23.8828 20.0351 23.8984 20.0341 23.914V24.1735C20.0341 24.2037 20.0221 24.2326 20.0007 24.2539C19.9794 24.2753 19.9505 24.2872 19.9203 24.2872ZM4.24486 24.0612C4.22995 24.0613 4.21517 24.0584 4.20137 24.0527C4.18757 24.0471 4.17502 24.0387 4.16445 24.0282C4.15388 24.0177 4.1455 24.0052 4.13977 23.9914C4.13405 23.9776 4.13111 23.9629 4.13111 23.9479V23.6884C4.13008 23.6729 4.13226 23.6573 4.1375 23.6426C4.14274 23.628 4.15093 23.6146 4.16158 23.6032C4.17222 23.5918 4.18508 23.5828 4.19936 23.5766C4.21364 23.5704 4.22905 23.5672 4.24462 23.5672C4.26019 23.5672 4.27559 23.5704 4.28987 23.5766C4.30416 23.5828 4.31702 23.5918 4.32766 23.6032C4.3383 23.6146 4.34649 23.628 4.35174 23.6426C4.35698 23.6573 4.35915 23.6729 4.35813 23.6884V23.9479C4.35813 23.978 4.3462 24.0068 4.32495 24.028C4.30371 24.0493 4.2749 24.0612 4.24486 24.0612ZM19.9203 23.5087C19.8902 23.5085 19.8614 23.4965 19.8402 23.4752C19.819 23.4539 19.807 23.425 19.807 23.3949V23.1354C19.806 23.1199 19.8082 23.1043 19.8134 23.0896C19.8187 23.0749 19.8269 23.0615 19.8375 23.0502C19.8482 23.0388 19.861 23.0297 19.8753 23.0235C19.8896 23.0173 19.905 23.0141 19.9206 23.0141C19.9361 23.0141 19.9515 23.0173 19.9658 23.0235C19.9801 23.0297 19.993 23.0388 20.0036 23.0502C20.0142 23.0615 20.0224 23.0749 20.0277 23.0896C20.0329 23.1043 20.0351 23.1199 20.0341 23.1354V23.3949C20.0341 23.4251 20.0221 23.454 20.0007 23.4753C19.9794 23.4967 19.9505 23.5087 19.9203 23.5087ZM4.24486 23.2826C4.22995 23.2827 4.21517 23.2798 4.20137 23.2742C4.18757 23.2685 4.17502 23.2602 4.16445 23.2496C4.15388 23.2391 4.1455 23.2266 4.13977 23.2128C4.13405 23.199 4.13111 23.1843 4.13111 23.1694V22.9098C4.13008 22.8943 4.13226 22.8787 4.1375 22.8641C4.14274 22.8494 4.15093 22.836 4.16158 22.8246C4.17222 22.8132 4.18508 22.8042 4.19936 22.798C4.21364 22.7918 4.22905 22.7886 4.24462 22.7886C4.26019 22.7886 4.27559 22.7918 4.28987 22.798C4.30416 22.8042 4.31702 22.8132 4.32766 22.8246C4.3383 22.836 4.34649 22.8494 4.35174 22.8641C4.35698 22.8787 4.35915 22.8943 4.35813 22.9098V23.1694C4.35813 23.1994 4.3462 23.2282 4.32495 23.2495C4.30371 23.2707 4.2749 23.2826 4.24486 23.2826ZM19.9203 22.7301C19.8902 22.73 19.8614 22.7179 19.8402 22.6966C19.819 22.6753 19.807 22.6464 19.807 22.6163V22.3568C19.806 22.3413 19.8082 22.3257 19.8134 22.311C19.8187 22.2964 19.8269 22.2829 19.8375 22.2716C19.8482 22.2602 19.861 22.2512 19.8753 22.245C19.8896 22.2388 19.905 22.2356 19.9206 22.2356C19.9361 22.2356 19.9515 22.2388 19.9658 22.245C19.9801 22.2512 19.993 22.2602 20.0036 22.2716C20.0142 22.2829 20.0224 22.2964 20.0277 22.311C20.0329 22.3257 20.0351 22.3413 20.0341 22.3568V22.6183C20.0336 22.6481 20.0213 22.6766 20.0001 22.6975C19.9788 22.7184 19.9501 22.7301 19.9203 22.7301ZM4.24486 22.5041C4.22995 22.5041 4.21517 22.5012 4.20137 22.4956C4.18757 22.4899 4.17502 22.4816 4.16445 22.4711C4.15388 22.4605 4.1455 22.448 4.13977 22.4342C4.13405 22.4205 4.13111 22.4057 4.13111 22.3908V22.1313C4.13008 22.1157 4.13226 22.1001 4.1375 22.0855C4.14274 22.0708 4.15093 22.0574 4.16158 22.046C4.17222 22.0347 4.18508 22.0256 4.19936 22.0194C4.21364 22.0132 4.22905 22.01 4.24462 22.01C4.26019 22.01 4.27559 22.0132 4.28987 22.0194C4.30416 22.0256 4.31702 22.0347 4.32766 22.046C4.3383 22.0574 4.34649 22.0708 4.35174 22.0855C4.35698 22.1001 4.35915 22.1157 4.35813 22.1313V22.3908C4.35813 22.4208 4.3462 22.4496 4.32495 22.4709C4.30371 22.4921 4.2749 22.5041 4.24486 22.5041ZM19.9203 21.9515C19.8902 21.9514 19.8614 21.9393 19.8402 21.918C19.819 21.8967 19.807 21.8678 19.807 21.8378V21.5782C19.806 21.5627 19.8082 21.5471 19.8134 21.5325C19.8187 21.5178 19.8269 21.5044 19.8375 21.493C19.8482 21.4816 19.861 21.4726 19.8753 21.4664C19.8896 21.4602 19.905 21.457 19.9206 21.457C19.9361 21.457 19.9515 21.4602 19.9658 21.4664C19.9801 21.4726 19.993 21.4816 20.0036 21.493C20.0142 21.5044 20.0224 21.5178 20.0277 21.5325C20.0329 21.5471 20.0351 21.5627 20.0341 21.5782V21.8378C20.0341 21.8679 20.0221 21.8969 20.0007 21.9182C19.9794 21.9395 19.9505 21.9515 19.9203 21.9515ZM4.24486 21.7255C4.22995 21.7255 4.21517 21.7227 4.20137 21.717C4.18757 21.7113 4.17502 21.703 4.16445 21.6925C4.15388 21.682 4.1455 21.6694 4.13977 21.6557C4.13405 21.6419 4.13111 21.6271 4.13111 21.6122V21.3522C4.133 21.3234 4.14579 21.2964 4.16687 21.2766C4.18795 21.2569 4.21574 21.2459 4.24462 21.2459C4.27349 21.2459 4.30129 21.2569 4.32237 21.2766C4.34345 21.2964 4.35623 21.3234 4.35813 21.3522V21.6122C4.35813 21.6423 4.3462 21.6711 4.32495 21.6923C4.30371 21.7135 4.2749 21.7255 4.24486 21.7255ZM19.8898 21.1754C19.8647 21.1754 19.8403 21.167 19.8205 21.1517C19.8006 21.1364 19.7864 21.1149 19.78 21.0907C19.7608 21.0174 19.7311 20.9472 19.6918 20.8824C19.6834 20.8696 19.6777 20.8553 19.6749 20.8402C19.6722 20.8252 19.6725 20.8097 19.6759 20.7948C19.6793 20.7799 19.6856 20.7658 19.6946 20.7534C19.7035 20.741 19.7149 20.7305 19.728 20.7226C19.7411 20.7147 19.7556 20.7095 19.7708 20.7073C19.7859 20.7051 19.8013 20.706 19.8161 20.71C19.8309 20.7139 19.8447 20.7208 19.8568 20.7302C19.8689 20.7396 19.8789 20.7513 19.8863 20.7647C19.9367 20.8483 19.9748 20.9387 19.9996 21.0331C20.0034 21.0475 20.0043 21.0625 20.0023 21.0772C20.0003 21.092 19.9954 21.1062 19.9879 21.119C19.9804 21.1319 19.9704 21.1431 19.9586 21.1521C19.9467 21.1611 19.9332 21.1677 19.9188 21.1715C19.9093 21.1739 19.8996 21.1753 19.8898 21.1754ZM4.35813 20.9666C4.33885 20.9664 4.31992 20.9615 4.30297 20.9523C4.27669 20.9376 4.25729 20.9131 4.24899 20.8841C4.24069 20.8552 4.24416 20.8241 4.25865 20.7977C4.30607 20.7126 4.36525 20.6347 4.43446 20.5662C4.45611 20.5462 4.4847 20.5353 4.51421 20.5359C4.54372 20.5365 4.57184 20.5486 4.59261 20.5696C4.61339 20.5905 4.6252 20.6188 4.62555 20.6483C4.62591 20.6778 4.61478 20.7063 4.59451 20.7278C4.5403 20.7808 4.49417 20.8415 4.45761 20.908C4.44776 20.9258 4.43335 20.9406 4.41585 20.9509C4.39836 20.9612 4.37843 20.9666 4.35813 20.9666ZM19.4126 20.5909C19.3955 20.5909 19.3787 20.587 19.3633 20.5795C19.2953 20.546 19.2228 20.5225 19.1481 20.5096C19.1194 20.5035 19.0941 20.4865 19.0776 20.4622C19.0611 20.4378 19.0547 20.4081 19.0597 20.3791C19.0646 20.3501 19.0806 20.3242 19.1043 20.3068C19.1279 20.2893 19.1574 20.2817 19.1865 20.2855C19.2826 20.3022 19.3758 20.3325 19.4633 20.3756C19.4864 20.3868 19.505 20.4055 19.5161 20.4286C19.5271 20.4517 19.5301 20.4779 19.5243 20.5029C19.5186 20.5278 19.5046 20.5501 19.4846 20.5661C19.4646 20.5821 19.4397 20.5908 19.4141 20.5909H19.4126ZM4.96484 20.5175C4.93643 20.518 4.90885 20.5079 4.88757 20.4891C4.86628 20.4702 4.85285 20.4441 4.84994 20.4158C4.84703 20.3876 4.85484 20.3593 4.87184 20.3365C4.88883 20.3137 4.91377 20.2982 4.94169 20.2929C5.01114 20.2781 5.08195 20.2707 5.15296 20.2708H5.4115C5.42703 20.2697 5.44261 20.2719 5.45727 20.2771C5.47193 20.2824 5.48536 20.2906 5.49673 20.3012C5.50809 20.3119 5.51715 20.3247 5.52335 20.339C5.52954 20.3533 5.53274 20.3687 5.53274 20.3843C5.53274 20.3998 5.52954 20.4152 5.52335 20.4295C5.51715 20.4438 5.50809 20.4567 5.49673 20.4673C5.48536 20.4779 5.47193 20.4861 5.45727 20.4914C5.44261 20.4966 5.42703 20.4988 5.4115 20.4978H5.15296C5.09768 20.4978 5.04256 20.5036 4.98848 20.515C4.98069 20.5166 4.97278 20.5174 4.96484 20.5175ZM18.6488 20.4978H18.3893C18.3737 20.4988 18.3581 20.4966 18.3435 20.4914C18.3288 20.4861 18.3154 20.4779 18.304 20.4673C18.2927 20.4567 18.2836 20.4438 18.2774 20.4295C18.2712 20.4152 18.268 20.3998 18.268 20.3843C18.268 20.3687 18.2712 20.3533 18.2774 20.339C18.2836 20.3247 18.2927 20.3119 18.304 20.3012C18.3154 20.2906 18.3288 20.2824 18.3435 20.2771C18.3581 20.2719 18.3737 20.2697 18.3893 20.2708H18.6488C18.6776 20.2727 18.7046 20.2854 18.7243 20.3065C18.7441 20.3276 18.7551 20.3554 18.7551 20.3843C18.7551 20.4131 18.7441 20.4409 18.7243 20.462C18.7046 20.4831 18.6776 20.4959 18.6488 20.4978ZM17.8702 20.4978H17.6107C17.5951 20.4988 17.5796 20.4966 17.5649 20.4914C17.5502 20.4861 17.5368 20.4779 17.5254 20.4673C17.5141 20.4567 17.505 20.4438 17.4988 20.4295C17.4926 20.4152 17.4894 20.3998 17.4894 20.3843C17.4894 20.3687 17.4926 20.3533 17.4988 20.339C17.505 20.3247 17.5141 20.3119 17.5254 20.3012C17.5368 20.2906 17.5502 20.2824 17.5649 20.2771C17.5796 20.2719 17.5951 20.2697 17.6107 20.2708H17.8707C17.8995 20.2727 17.9265 20.2854 17.9463 20.3065C17.966 20.3276 17.977 20.3554 17.977 20.3843C17.977 20.4131 17.966 20.4409 17.9463 20.462C17.9265 20.4831 17.8995 20.4959 17.8707 20.4978H17.8702ZM17.0916 20.4978H16.8321C16.8166 20.4988 16.801 20.4966 16.7863 20.4914C16.7717 20.4861 16.7582 20.4779 16.7469 20.4673C16.7355 20.4567 16.7264 20.4438 16.7203 20.4295C16.7141 20.4152 16.7109 20.3998 16.7109 20.3843C16.7109 20.3687 16.7141 20.3533 16.7203 20.339C16.7264 20.3247 16.7355 20.3119 16.7469 20.3012C16.7582 20.2906 16.7717 20.2824 16.7863 20.2771C16.801 20.2719 16.8166 20.2697 16.8321 20.2708H17.0916C17.1204 20.2727 17.1475 20.2854 17.1672 20.3065C17.1869 20.3276 17.1979 20.3554 17.1979 20.3843C17.1979 20.4131 17.1869 20.4409 17.1672 20.462C17.1475 20.4831 17.1204 20.4959 17.0916 20.4978ZM16.3131 20.4978H16.0535C16.038 20.4988 16.0224 20.4966 16.0077 20.4914C15.9931 20.4861 15.9797 20.4779 15.9683 20.4673C15.9569 20.4567 15.9479 20.4438 15.9417 20.4295C15.9355 20.4152 15.9323 20.3998 15.9323 20.3843C15.9323 20.3687 15.9355 20.3533 15.9417 20.339C15.9479 20.3247 15.9569 20.3119 15.9683 20.3012C15.9797 20.2906 15.9931 20.2824 16.0077 20.2771C16.0224 20.2719 16.038 20.2697 16.0535 20.2708H16.3131C16.3419 20.2727 16.3689 20.2854 16.3886 20.3065C16.4083 20.3276 16.4193 20.3554 16.4193 20.3843C16.4193 20.4131 16.4083 20.4409 16.3886 20.462C16.3689 20.4831 16.3419 20.4959 16.3131 20.4978ZM15.5345 20.4978H15.2745C15.2456 20.4959 15.2186 20.4831 15.1989 20.462C15.1792 20.4409 15.1682 20.4131 15.1682 20.3843C15.1682 20.3554 15.1792 20.3276 15.1989 20.3065C15.2186 20.2854 15.2456 20.2727 15.2745 20.2708H15.5345C15.5633 20.2727 15.5903 20.2854 15.61 20.3065C15.6298 20.3276 15.6408 20.3554 15.6408 20.3843C15.6408 20.4131 15.6298 20.4409 15.61 20.462C15.5903 20.4831 15.5633 20.4959 15.5345 20.4978ZM14.7554 20.4978H14.4959C14.4671 20.4959 14.4401 20.4831 14.4203 20.462C14.4006 20.4409 14.3896 20.4131 14.3896 20.3843C14.3896 20.3554 14.4006 20.3276 14.4203 20.3065C14.4401 20.2854 14.4671 20.2727 14.4959 20.2708H14.7554C14.7709 20.2697 14.7865 20.2719 14.8012 20.2771C14.8158 20.2824 14.8293 20.2906 14.8406 20.3012C14.852 20.3119 14.8611 20.3247 14.8673 20.339C14.8734 20.3533 14.8766 20.3687 14.8766 20.3843C14.8766 20.3998 14.8734 20.4152 14.8673 20.4295C14.8611 20.4438 14.852 20.4567 14.8406 20.4673C14.8293 20.4779 14.8158 20.4861 14.8012 20.4914C14.7865 20.4966 14.7709 20.4988 14.7554 20.4978ZM13.9768 20.4978H13.7173C13.6885 20.4959 13.6615 20.4831 13.6417 20.462C13.622 20.4409 13.611 20.4131 13.611 20.3843C13.611 20.3554 13.622 20.3276 13.6417 20.3065C13.6615 20.2854 13.6885 20.2727 13.7173 20.2708H13.9768C13.9924 20.2697 14.0079 20.2719 14.0226 20.2771C14.0373 20.2824 14.0507 20.2906 14.0621 20.3012C14.0734 20.3119 14.0825 20.3247 14.0887 20.339C14.0949 20.3533 14.0981 20.3687 14.0981 20.3843C14.0981 20.3998 14.0949 20.4152 14.0887 20.4295C14.0825 20.4438 14.0734 20.4567 14.0621 20.4673C14.0507 20.4779 14.0373 20.4861 14.0226 20.4914C14.0079 20.4966 13.9924 20.4988 13.9768 20.4978ZM13.1983 20.4978H12.9387C12.9099 20.4959 12.8829 20.4831 12.8632 20.462C12.8434 20.4409 12.8324 20.4131 12.8324 20.3843C12.8324 20.3554 12.8434 20.3276 12.8632 20.3065C12.8829 20.2854 12.9099 20.2727 12.9387 20.2708H13.1983C13.2138 20.2697 13.2294 20.2719 13.244 20.2771C13.2587 20.2824 13.2721 20.2906 13.2835 20.3012C13.2948 20.3119 13.3039 20.3247 13.3101 20.339C13.3163 20.3533 13.3195 20.3687 13.3195 20.3843C13.3195 20.3998 13.3163 20.4152 13.3101 20.4295C13.3039 20.4438 13.2948 20.4567 13.2835 20.4673C13.2721 20.4779 13.2587 20.4861 13.244 20.4914C13.2294 20.4966 13.2138 20.4988 13.1983 20.4978ZM12.4197 20.4978H12.1582C12.1294 20.4959 12.1024 20.4831 12.0826 20.462C12.0629 20.4409 12.0519 20.4131 12.0519 20.3843C12.0519 20.3554 12.0629 20.3276 12.0826 20.3065C12.1024 20.2854 12.1294 20.2727 12.1582 20.2708H12.4177C12.4332 20.2697 12.4488 20.2719 12.4635 20.2771C12.4781 20.2824 12.4916 20.2906 12.5029 20.3012C12.5143 20.3119 12.5234 20.3247 12.5296 20.339C12.5357 20.3533 12.5389 20.3687 12.5389 20.3843C12.5389 20.3998 12.5357 20.4152 12.5296 20.4295C12.5234 20.4438 12.5143 20.4567 12.5029 20.4673C12.4916 20.4779 12.4781 20.4861 12.4635 20.4914C12.4488 20.4966 12.4332 20.4988 12.4177 20.4978H12.4197ZM11.6411 20.4978H11.3816C11.3528 20.4959 11.3257 20.4831 11.306 20.462C11.2863 20.4409 11.2753 20.4131 11.2753 20.3843C11.2753 20.3554 11.2863 20.3276 11.306 20.3065C11.3257 20.2854 11.3528 20.2727 11.3816 20.2708H11.6411C11.6566 20.2697 11.6722 20.2719 11.6869 20.2771C11.7015 20.2824 11.715 20.2906 11.7263 20.3012C11.7377 20.3119 11.7468 20.3247 11.7529 20.339C11.7591 20.3533 11.7623 20.3687 11.7623 20.3843C11.7623 20.3998 11.7591 20.4152 11.7529 20.4295C11.7468 20.4438 11.7377 20.4567 11.7263 20.4673C11.715 20.4779 11.7015 20.4861 11.6869 20.4914C11.6722 20.4966 11.6566 20.4988 11.6411 20.4978ZM10.8625 20.4978H10.603C10.5742 20.4959 10.5472 20.4831 10.5274 20.462C10.5077 20.4409 10.4967 20.4131 10.4967 20.3843C10.4967 20.3554 10.5077 20.3276 10.5274 20.3065C10.5472 20.2854 10.5742 20.2727 10.603 20.2708H10.8625C10.8781 20.2697 10.8936 20.2719 10.9083 20.2771C10.923 20.2824 10.9364 20.2906 10.9478 20.3012C10.9591 20.3119 10.9682 20.3247 10.9744 20.339C10.9806 20.3533 10.9838 20.3687 10.9838 20.3843C10.9838 20.3998 10.9806 20.4152 10.9744 20.4295C10.9682 20.4438 10.9591 20.4567 10.9478 20.4673C10.9364 20.4779 10.923 20.4861 10.9083 20.4914C10.8936 20.4966 10.8781 20.4988 10.8625 20.4978ZM10.0839 20.4978H9.82442C9.79561 20.4959 9.76859 20.4831 9.74886 20.462C9.72912 20.4409 9.71814 20.4131 9.71814 20.3843C9.71814 20.3554 9.72912 20.3276 9.74886 20.3065C9.76859 20.2854 9.79561 20.2727 9.82442 20.2708H10.0839C10.0995 20.2697 10.1151 20.2719 10.1297 20.2771C10.1444 20.2824 10.1578 20.2906 10.1692 20.3012C10.1805 20.3119 10.1896 20.3247 10.1958 20.339C10.202 20.3533 10.2052 20.3687 10.2052 20.3843C10.2052 20.3998 10.202 20.4152 10.1958 20.4295C10.1896 20.4438 10.1805 20.4567 10.1692 20.4673C10.1578 20.4779 10.1444 20.4861 10.1297 20.4914C10.1151 20.4966 10.0995 20.4988 10.0839 20.4978ZM9.30537 20.4978H9.04584C9.01703 20.4959 8.99002 20.4831 8.97028 20.462C8.95054 20.4409 8.93956 20.4131 8.93956 20.3843C8.93956 20.3554 8.95054 20.3276 8.97028 20.3065C8.99002 20.2854 9.01703 20.2727 9.04584 20.2708H9.30537C9.3209 20.2697 9.33648 20.2719 9.35114 20.2771C9.3658 20.2824 9.37923 20.2906 9.3906 20.3012C9.40196 20.3119 9.41102 20.3247 9.41722 20.339C9.42341 20.3533 9.42661 20.3687 9.42661 20.3843C9.42661 20.3998 9.42341 20.4152 9.41722 20.4295C9.41102 20.4438 9.40196 20.4567 9.3906 20.4673C9.37923 20.4779 9.3658 20.4861 9.35114 20.4914C9.33648 20.4966 9.3209 20.4988 9.30537 20.4978ZM8.52679 20.4978H8.26776C8.23894 20.4959 8.21193 20.4831 8.1922 20.462C8.17246 20.4409 8.16148 20.4131 8.16148 20.3843C8.16148 20.3554 8.17246 20.3276 8.1922 20.3065C8.21193 20.2854 8.23894 20.2727 8.26776 20.2708H8.52728C8.54282 20.2697 8.5584 20.2719 8.57306 20.2771C8.58772 20.2824 8.60115 20.2906 8.61251 20.3012C8.62388 20.3119 8.63294 20.3247 8.63913 20.339C8.64533 20.3533 8.64852 20.3687 8.64852 20.3843C8.64852 20.3998 8.64533 20.4152 8.63913 20.4295C8.63294 20.4438 8.62388 20.4567 8.61251 20.4673C8.60115 20.4779 8.58772 20.4861 8.57306 20.4914C8.5584 20.4966 8.54282 20.4988 8.52728 20.4978H8.52679ZM7.74821 20.4978H7.48869C7.45987 20.4959 7.43286 20.4831 7.41313 20.462C7.39339 20.4409 7.38241 20.4131 7.38241 20.3843C7.38241 20.3554 7.39339 20.3276 7.41313 20.3065C7.43286 20.2854 7.45987 20.2727 7.48869 20.2708H7.74821C7.76375 20.2697 7.77933 20.2719 7.79399 20.2771C7.80865 20.2824 7.82208 20.2906 7.83344 20.3012C7.84481 20.3119 7.85387 20.3247 7.86006 20.339C7.86626 20.3533 7.86945 20.3687 7.86945 20.3843C7.86945 20.3998 7.86626 20.4152 7.86006 20.4295C7.85387 20.4438 7.84481 20.4567 7.83344 20.4673C7.82208 20.4779 7.80865 20.4861 7.79399 20.4914C7.77933 20.4966 7.76375 20.4988 7.74821 20.4978ZM6.96964 20.4978H6.71011C6.6813 20.4959 6.65428 20.4831 6.63455 20.462C6.61481 20.4409 6.60383 20.4131 6.60383 20.3843C6.60383 20.3554 6.61481 20.3276 6.63455 20.3065C6.65428 20.2854 6.6813 20.2727 6.71011 20.2708H6.96964C6.98517 20.2697 7.00075 20.2719 7.01541 20.2771C7.03007 20.2824 7.0435 20.2906 7.05487 20.3012C7.06623 20.3119 7.07529 20.3247 7.08149 20.339C7.08768 20.3533 7.09088 20.3687 7.09088 20.3843C7.09088 20.3998 7.08768 20.4152 7.08149 20.4295C7.07529 20.4438 7.06623 20.4567 7.05487 20.4673C7.0435 20.4779 7.03007 20.4861 7.01541 20.4914C7.00075 20.4966 6.98517 20.4988 6.96964 20.4978ZM6.19106 20.4978H5.93153C5.90272 20.4959 5.87571 20.4831 5.85597 20.462C5.83624 20.4409 5.82526 20.4131 5.82526 20.3843C5.82526 20.3554 5.83624 20.3276 5.85597 20.3065C5.87571 20.2854 5.90272 20.2727 5.93153 20.2708H6.19106C6.20659 20.2697 6.22218 20.2719 6.23684 20.2771C6.2515 20.2824 6.26492 20.2906 6.27629 20.3012C6.28765 20.3119 6.29671 20.3247 6.30291 20.339C6.3091 20.3533 6.3123 20.3687 6.3123 20.3843C6.3123 20.3998 6.3091 20.4152 6.30291 20.4295C6.29671 20.4438 6.28765 20.4567 6.27629 20.4673C6.26492 20.4779 6.2515 20.4861 6.23684 20.4914C6.22218 20.4966 6.20659 20.4988 6.19106 20.4978Z" fill="#0B7464"/>
<path d="M18.7313 22.1132H5.53342C5.51684 22.1118 5.5014 22.1042 5.49015 22.0919C5.4789 22.0796 5.47266 22.0636 5.47266 22.047C5.47266 22.0303 5.4789 22.0143 5.49015 22.002C5.5014 21.9897 5.51684 21.9821 5.53342 21.9807H18.7313C18.7405 21.9799 18.7497 21.981 18.7584 21.984C18.7672 21.987 18.7752 21.9917 18.782 21.998C18.7888 22.0042 18.7942 22.0118 18.7979 22.0202C18.8016 22.0286 18.8035 22.0377 18.8035 22.047C18.8035 22.0562 18.8016 22.0653 18.7979 22.0737C18.7942 22.0821 18.7888 22.0897 18.782 22.0959C18.7752 22.1022 18.7672 22.1069 18.7584 22.1099C18.7497 22.1129 18.7405 22.114 18.7313 22.1132Z" fill="#0B7464"/>
<path d="M18.7302 23.3947H5.5323C5.51467 23.3947 5.49776 23.3877 5.48529 23.3752C5.47282 23.3627 5.46582 23.3458 5.46582 23.3282C5.46582 23.3106 5.47282 23.2937 5.48529 23.2812C5.49776 23.2687 5.51467 23.2617 5.5323 23.2617H18.7302C18.7478 23.2617 18.7647 23.2687 18.7772 23.2812C18.7897 23.2937 18.7967 23.3106 18.7967 23.3282C18.7967 23.3458 18.7897 23.3627 18.7772 23.3752C18.7647 23.3877 18.7478 23.3947 18.7302 23.3947Z" fill="#0B7464"/>
<path d="M18.7313 24.6747H5.53342C5.51684 24.6733 5.5014 24.6657 5.49015 24.6534C5.4789 24.6412 5.47266 24.6251 5.47266 24.6085C5.47266 24.5918 5.4789 24.5758 5.49015 24.5635C5.5014 24.5513 5.51684 24.5437 5.53342 24.5422H18.7313C18.7405 24.5414 18.7497 24.5426 18.7584 24.5455C18.7672 24.5485 18.7752 24.5533 18.782 24.5595C18.7888 24.5657 18.7942 24.5733 18.7979 24.5817C18.8016 24.5902 18.8035 24.5993 18.8035 24.6085C18.8035 24.6177 18.8016 24.6268 18.7979 24.6352C18.7942 24.6437 18.7888 24.6512 18.782 24.6575C18.7752 24.6637 18.7672 24.6684 18.7584 24.6714C18.7497 24.6744 18.7405 24.6755 18.7313 24.6747Z" fill="#0B7464"/>
<path d="M53.9255 44.0804H53.665V38.6348H57.2324V38.8953H53.9255V44.0804Z" fill="white"/>
<path d="M76.5512 44.0804H76.2912V38.8953H72.9844V38.6348H76.5512V44.0804Z" fill="white"/>
<path d="M53.9255 64.7798H53.665V70.2249H57.2324V69.9649H53.9255V64.7798Z" fill="white"/>
<path d="M76.5512 64.7798H76.2912V69.9649H72.9844V70.2249H76.5512V64.7798Z" fill="white"/>
<path d="M10.0971 34.0964C10.097 34.3968 10.0095 34.6906 9.84544 34.9422C9.68134 35.1937 9.44766 35.3922 9.17283 35.5133C8.898 35.6345 8.59388 35.6731 8.29748 35.6246C8.00108 35.5761 7.72518 35.4424 7.50335 35.2399C7.46346 35.203 7.42505 35.1641 7.38861 35.1237C7.12777 34.8281 6.98942 34.4442 7.00173 34.0502C7.01404 33.6562 7.17609 33.2817 7.45487 33.003C7.73365 32.7242 8.1082 32.5623 8.50222 32.5501C8.89624 32.5378 9.2801 32.6763 9.57562 32.9372C9.616 32.9731 9.6549 33.0115 9.69184 33.0514C9.95308 33.3367 10.0977 33.7096 10.0971 34.0964Z" fill="#F4CA42"/>
<path d="M9.96307 34.0296C9.96358 34.3174 9.88031 34.5991 9.7234 34.8404C9.56649 35.0816 9.34273 35.272 9.07944 35.3883C8.81616 35.5045 8.52472 35.5416 8.24072 35.495C7.95671 35.4484 7.69242 35.3201 7.48009 35.1258C7.44217 35.0903 7.40573 35.0534 7.37077 35.0145C7.12038 34.7318 6.98731 34.3642 6.99873 33.9868C7.01014 33.6094 7.16518 33.2505 7.4322 32.9835C7.69922 32.7165 8.05808 32.5614 8.43553 32.55C8.81298 32.5386 9.18055 32.6716 9.46322 32.922C9.50163 32.957 9.53906 32.9934 9.57452 33.0314C9.8241 33.3039 9.9627 33.66 9.96307 34.0296Z" fill="#FBDF78"/>
<g style="mix-blend-mode:soft-light">
<path d="M9.57535 33.0297L7.47944 35.1261C7.44152 35.0907 7.40508 35.0537 7.37012 35.0148L9.46257 32.9224C9.50246 32.9554 9.53989 32.9918 9.57535 33.0297Z" fill="#190000"/>
</g>
<path d="M13.1632 34.7177C12.8986 34.8603 12.5982 34.9228 12.2986 34.8977C11.999 34.8726 11.7132 34.7608 11.4761 34.5761C11.2389 34.3913 11.0606 34.1416 10.963 33.8572C10.8653 33.5729 10.8524 33.2663 10.926 32.9748C10.9397 32.922 10.9561 32.8699 10.9752 32.8187C11.1119 32.4489 11.3845 32.1452 11.7373 31.9693C12.0902 31.7934 12.4969 31.7587 12.8744 31.8722C13.252 31.9857 13.5721 32.2389 13.7695 32.5802C13.9669 32.9215 14.0268 33.3252 13.9369 33.7091C13.9241 33.7623 13.9088 33.8145 13.8911 33.8657C13.7635 34.2307 13.5038 34.5346 13.1632 34.7177Z" fill="#F4CA42"/>
<path d="M13.1585 34.5673C12.9054 34.7033 12.6182 34.7628 12.3319 34.7386C12.0456 34.7144 11.7725 34.6074 11.5458 34.4308C11.3191 34.2542 11.1487 34.0155 11.0552 33.7438C10.9618 33.4721 10.9493 33.179 11.0193 32.9003C11.0326 32.8511 11.0479 32.8018 11.0656 32.7526C11.1964 32.3988 11.4571 32.1081 11.7948 31.9398C12.1324 31.7715 12.5215 31.7383 12.8828 31.847C13.244 31.9556 13.5503 32.1978 13.7391 32.5244C13.928 32.851 13.9852 33.2372 13.8992 33.6045C13.8869 33.6538 13.8721 33.703 13.8554 33.7523C13.7334 34.1016 13.4847 34.3925 13.1585 34.5673Z" fill="#FBDF78"/>
<g style="mix-blend-mode:soft-light">
<path d="M13.8576 33.7516L11.0215 32.8992C11.0348 32.85 11.05 32.8007 11.0678 32.7515L13.9014 33.6034C13.8891 33.6522 13.8743 33.7024 13.8576 33.7516Z" fill="#190000"/>
</g>
</g>
<defs>
<linearGradient id="paint0_linear_1730_70143" x1="12.4145" y1="56.2754" x2="12.4145" y2="45.9554" gradientUnits="userSpaceOnUse">
<stop stop-color="white"/>
<stop offset="1" stop-color="#E6E6F3"/>
</linearGradient>
<linearGradient id="paint1_linear_1730_70143" x1="5.51074" y1="59.5" x2="19.3173" y2="59.5" gradientUnits="userSpaceOnUse">
<stop stop-color="white"/>
<stop offset="1" stop-color="#E6E6F3"/>
</linearGradient>
<radialGradient id="paint2_radial_1730_70143" cx="0" cy="0" r="1" gradientUnits="userSpaceOnUse" gradientTransform="translate(32.8215 45.3378) rotate(-128.571) scale(2.56166 2.54585)">
<stop offset="0.65" stop-color="white"/>
<stop offset="0.74" stop-color="#FCFCFC"/>
<stop offset="0.81" stop-color="#F2F2F2"/>
<stop offset="0.87" stop-color="#E1E1E1"/>
<stop offset="0.93" stop-color="#CACACA"/>
<stop offset="0.99" stop-color="#ACACAC"/>
<stop offset="1" stop-color="#A4A4A4"/>
</radialGradient>
<radialGradient id="paint3_radial_1730_70143" cx="0" cy="0" r="1" gradientUnits="userSpaceOnUse" gradientTransform="translate(30.1083 44.4012) rotate(-119.11) scale(3.42003 3.43318)">
<stop stop-color="white"/>
<stop offset="1" stop-color="white"/>
</radialGradient>
<radialGradient id="paint4_radial_1730_70143" cx="0" cy="0" r="1" gradientUnits="userSpaceOnUse" gradientTransform="translate(34.6379 46.0214) rotate(-128.571) scale(2.8851 2.8673)">
<stop stop-color="white"/>
<stop offset="1" stop-color="white"/>
</radialGradient>
<clipPath id="clip0_1730_70143">
<rect width="73.693" height="71.141" fill="white" transform="translate(4.13184 5.08447)"/>
</clipPath>
</defs>
</svg>
