<svg width="18" height="20" viewBox="0 0 18 20" fill="none" xmlns="http://www.w3.org/2000/svg">
<path d="M14.6034 6.91916e-05H2.85552C2.07028 6.91916e-05 1.35508 0.273116 0.838289 0.711962C0.320467 1.15171 0 1.75727 0 2.42503V17.575C0 18.2428 0.321526 18.8492 0.838289 19.2881C1.35611 19.7279 2.0692 20 2.85552 20H15.1445C15.9308 20 16.6449 19.727 17.1617 19.2881C17.6795 18.8484 18 18.2428 18 17.575V2.88365H15.0118C14.7869 2.88365 14.6044 2.72865 14.6044 2.53761V0L14.6034 6.91916e-05ZM17.4228 2.19164L15.4183 0.48939V2.19164H17.4228ZM3.18557 10.0965C2.96061 10.0965 2.7781 9.94154 2.7781 9.75049C2.7781 9.55945 2.96061 9.40446 3.18557 9.40446H5.41078V9.0386C5.41078 8.29605 5.76838 7.62022 6.34458 7.1309C6.92078 6.64157 7.71664 6.33789 8.591 6.33789H9.40808C10.2825 6.33789 11.0783 6.64157 11.6545 7.1309C12.2307 7.62022 12.5883 8.29607 12.5883 9.0386V9.40446H14.8135C15.0385 9.40446 15.221 9.55945 15.221 9.75049C15.221 9.94154 15.0385 10.0965 14.8135 10.0965H3.18557ZM6.22563 9.40446H11.7711V9.0386C11.7711 8.48711 11.5048 7.98427 11.0761 7.62022C10.6474 7.25616 10.0553 7.02997 9.40585 7.02997H8.58878C7.93937 7.02997 7.34725 7.25615 6.91855 7.62022C6.48986 7.98428 6.22351 8.48711 6.22351 9.0386V9.40446H6.22563ZM3.18557 11.9628C2.96061 11.9628 2.7781 11.8078 2.7781 11.6168C2.7781 11.4258 2.96061 11.2708 3.18557 11.2708H14.8136C15.0386 11.2708 15.2211 11.4258 15.2211 11.6168C15.2211 11.8078 15.0386 11.9628 14.8136 11.9628H3.18557ZM3.18557 13.8291C2.96061 13.8291 2.7781 13.6741 2.7781 13.483C2.7781 13.292 2.96061 13.137 3.18557 13.137H14.8136C15.0386 13.137 15.2211 13.292 15.2211 13.483C15.2211 13.6741 15.0386 13.8291 14.8136 13.8291H3.18557ZM3.18557 15.6953C2.96061 15.6953 2.7781 15.5403 2.7781 15.3493C2.7781 15.1583 2.96061 15.0033 3.18557 15.0033H14.8136C15.0386 15.0033 15.2211 15.1583 15.2211 15.3493C15.2211 15.5403 15.0386 15.6953 14.8136 15.6953H3.18557ZM3.18557 17.5616C2.96061 17.5616 2.7781 17.4066 2.7781 17.2155C2.7781 17.0245 2.96061 16.8695 3.18557 16.8695H14.8136C15.0386 16.8695 15.2211 17.0245 15.2211 17.2155C15.2211 17.4066 15.0386 17.5616 14.8136 17.5616H3.18557ZM8.99946 2.00072C9.59475 2.00072 10.1349 2.20618 10.5254 2.5378C10.9159 2.86941 11.1567 3.3272 11.1567 3.83364C11.1567 4.33918 10.9159 4.79786 10.5254 5.12948C10.1349 5.4611 9.59581 5.66566 8.99946 5.66566C8.40416 5.66566 7.86404 5.4611 7.47354 5.12948C7.08304 4.79787 6.84111 4.34008 6.84111 3.83364C6.84111 3.3281 7.08304 2.86942 7.47354 2.5378C7.86403 2.20618 8.4031 2.00072 8.99946 2.00072ZM9.94918 3.02712C9.70618 2.82076 9.37086 2.6928 8.99946 2.6928C8.62912 2.6928 8.29273 2.82076 8.04974 3.02712C7.80674 3.23348 7.65606 3.51824 7.65606 3.83364C7.65606 4.14814 7.80674 4.43381 8.04974 4.64016C8.29274 4.84652 8.62806 4.97358 8.99946 4.97358C9.3698 4.97358 9.70619 4.84562 9.94918 4.64016C10.1922 4.4338 10.3418 4.14904 10.3418 3.83364C10.3418 3.51914 10.1911 3.23347 9.94918 3.02712Z" fill="#494949"/>
</svg>
