<svg width="21" height="20" viewBox="0 0 21 20" fill="none" xmlns="http://www.w3.org/2000/svg">
<path d="M9.76763 2.07715C13.7705 2.07715 17.0273 5.33399 17.0273 9.33687C17.0273 13.3397 13.7705 16.5966 9.76763 16.5966C5.76475 16.5966 2.50791 13.3397 2.50791 9.33687C2.50791 5.33399 5.76475 2.07715 9.76763 2.07715ZM9.76763 14.3628C12.5392 14.3628 14.7936 12.1083 14.7936 9.33687C14.7936 6.56546 12.5392 4.31091 9.76763 4.31091C6.99622 4.31091 4.74167 6.56546 4.74167 9.33687C4.74167 12.1083 6.99622 14.3628 9.76763 14.3628Z" fill="#636363"/>
<path d="M14.382 16.3212C15.3215 15.6982 16.128 14.8916 16.7511 13.9521L19.0078 16.2089L16.6388 18.5779L14.382 16.3212Z" fill="#636363"/>
</svg>
