<svg width="44" height="44" viewBox="0 0 44 44" fill="none" xmlns="http://www.w3.org/2000/svg">
<path d="M38.6967 34.8652L31.5268 27.6953L30.6459 28.5762L28.2462 26.1765C32.4368 20.9238 32.1097 13.226 27.2488 8.3651C24.7196 5.83589 21.3548 4.44336 17.7796 4.44336C14.2044 4.44336 10.8396 5.83589 8.31042 8.3651C5.7812 10.8943 4.38867 14.2558 4.38867 17.8343C4.38867 21.4128 5.7812 24.7743 8.31042 27.3035C10.9206 29.9137 14.3501 31.2187 17.7796 31.2187C20.7363 31.2187 23.6897 30.244 26.1218 28.3009L28.5215 30.7006L27.6406 31.5814L34.8105 38.7513C35.8825 39.8233 37.6247 39.8233 38.6967 38.7513C39.7686 37.6762 39.7686 35.9371 38.6967 34.8652ZM10.4348 25.1791C8.47234 23.2166 7.3907 20.6096 7.3907 17.8343C7.3907 15.059 8.47234 12.452 10.4348 10.4895C12.3973 8.52703 15.0043 7.44539 17.7796 7.44539C20.5549 7.44539 23.1619 8.52703 25.1244 10.4895C29.1757 14.5408 29.1757 21.131 25.1244 25.1791C21.0731 29.2303 14.4829 29.2303 10.4348 25.1791Z" fill="#646464"/>
<path d="M17.8863 9.05518C12.9865 9.05518 9 13.0417 9 17.9414C9 18.3171 9.30441 18.6248 9.68331 18.6248C10.0622 18.6248 10.3666 18.3203 10.3666 17.9414C10.3666 13.793 13.7411 10.4186 17.8895 10.4186C18.2652 10.4186 18.5728 10.1141 18.5728 9.73525C18.5728 9.35635 18.2619 9.05518 17.8863 9.05518Z" fill="#646464"/>
</svg>
