<svg width="34" height="34" viewBox="0 0 34 34" fill="none" xmlns="http://www.w3.org/2000/svg">
<path d="M31.7323 12.9912H30.1012C29.8046 11.8791 29.3598 10.8041 28.8037 9.80319L29.9529 8.65401C30.5831 8.02381 30.5831 6.98584 29.9529 6.35564L26.9873 3.39001C26.3571 2.75981 25.3191 2.75981 24.6889 3.39001L23.5397 4.53919C22.5388 3.98314 21.5008 3.53829 20.3517 3.24173V1.6477C20.3887 0.758009 19.6473 0.0166016 18.7576 0.0166016H14.6057C13.679 0.0166016 12.9746 0.758009 12.9746 1.6477V3.2788C11.8625 3.57536 10.7875 4.02021 9.78659 4.57626L8.6374 3.42708C8.00721 2.79688 6.96924 2.79688 6.33904 3.42708L3.37341 6.39271C2.74321 7.02291 2.74321 8.06088 3.37341 8.69108L4.52259 9.84026C3.96653 10.8412 3.52169 11.8791 3.22512 13.0283H1.6311C0.704337 12.9912 0 13.7327 0 14.6223V18.8113C0 19.701 0.741408 20.4424 1.6311 20.4424H3.2622C3.55876 21.5545 4.0036 22.6295 4.55966 23.6304L3.41048 24.7796C2.78028 25.4098 2.78028 26.4478 3.41048 27.078L6.37611 30.0436C7.00631 30.6738 8.04428 30.6738 8.67447 30.0436L9.82366 28.8944C10.8246 29.4505 11.8625 29.8953 13.0117 30.1919V31.823C13.0117 32.7127 13.7531 33.4541 14.6428 33.4541H18.8318C19.7215 33.4541 20.4629 32.7127 20.4629 31.823V30.1919C21.575 29.8953 22.65 29.4505 23.6509 28.8944L24.8001 30.0436C25.4303 30.6738 26.4683 30.6738 27.0985 30.0436L30.0641 27.078C30.6943 26.4478 30.6943 25.4098 30.0641 24.7796L28.9149 23.6304C29.471 22.6295 29.9158 21.5916 30.2124 20.4424H31.8435C32.7332 20.4424 33.4746 19.701 33.4746 18.8113V14.6223C33.3634 13.7327 32.622 12.9912 31.7323 12.9912ZM16.6817 25.9659C11.566 25.9659 7.41408 21.814 7.41408 16.6983C7.41408 11.5826 11.566 7.43068 16.6817 7.43068C21.7974 7.43068 25.9493 11.5826 25.9493 16.6983C25.9493 21.814 21.7974 25.9659 16.6817 25.9659Z" fill="#0F6C73"/>
</svg>
