<svg width="19" height="20" viewBox="0 0 19 20" fill="none" xmlns="http://www.w3.org/2000/svg">
<path fill-rule="evenodd" clip-rule="evenodd" d="M11.23 18.2609C11.0513 17.7543 10.5678 17.3913 10 17.3913H8.26087C7.54044 17.3913 6.95652 17.9752 6.95652 18.6957C6.95652 19.4161 7.54044 20 8.26087 20H10C10.5678 20 11.0513 19.637 11.23 19.1304H14.3478C16.5091 19.1304 18.2609 17.3787 18.2609 15.2174V9.12957C18.2609 6.70826 17.2991 4.38608 15.587 2.67391C13.8748 0.961736 11.5526 0 9.13131 0H9.13043C6.7087 0 4.38652 0.96174 2.67435 2.67435C0.96174 4.38652 0 6.7087 0 9.13043V14.3478C0 15.5483 0.973478 16.5217 2.17391 16.5217H3.04348C3.76391 16.5217 4.34783 15.9378 4.34783 15.2174V10C4.34783 9.27956 3.76391 8.69565 3.04348 8.69565H2.17391C1.68435 8.69565 1.23304 8.85739 0.869565 9.13043C0.869565 6.93957 1.74 4.83826 3.28913 3.28913C4.83826 1.74 6.93957 0.869565 9.13043 0.869565H9.13131C11.3222 0.869565 13.423 1.74 14.9722 3.28869C16.5209 4.83782 17.3913 6.9387 17.3913 9.12957V9.13043C17.0278 8.85739 16.5765 8.69565 16.087 8.69565H15.2174C14.497 8.69565 13.913 9.27956 13.913 10V15.2174C13.913 15.9378 14.497 16.5217 15.2174 16.5217H16.087C16.5065 16.5217 16.8978 16.403 17.23 16.1974C16.8222 17.3974 15.6861 18.2609 14.3478 18.2609H11.23Z" fill="#494949"/>
<path fill-rule="evenodd" clip-rule="evenodd" d="M10.8886 13.4965L12.5034 13.9C12.6517 13.9369 12.8086 13.8934 12.9165 13.7856C13.0243 13.6778 13.0678 13.5208 13.0308 13.3726L12.6273 11.7578C12.8934 11.2291 13.0439 10.6321 13.0439 9.99996C13.0439 7.84039 11.2904 6.08691 9.13082 6.08691C6.97125 6.08691 5.21777 7.84039 5.21777 9.99996C5.21777 12.1595 6.97125 13.913 9.13082 13.913C9.76299 13.913 10.3599 13.7626 10.8886 13.4965ZM9.13082 9.56518C9.37082 9.56518 9.5656 9.75996 9.5656 9.99996C9.5656 10.24 9.37082 10.4347 9.13082 10.4347C8.89082 10.4347 8.69603 10.24 8.69603 9.99996C8.69603 9.75996 8.89082 9.56518 9.13082 9.56518ZM10.8699 9.56518C11.1099 9.56518 11.3047 9.75996 11.3047 9.99996C11.3047 10.24 11.1099 10.4347 10.8699 10.4347C10.6299 10.4347 10.4352 10.24 10.4352 9.99996C10.4352 9.75996 10.6299 9.56518 10.8699 9.56518ZM7.39169 9.56518C7.63169 9.56518 7.82647 9.75996 7.82647 9.99996C7.82647 10.24 7.63169 10.4347 7.39169 10.4347C7.15169 10.4347 6.9569 10.24 6.9569 9.99996C6.9569 9.75996 7.15169 9.56518 7.39169 9.56518Z" fill="#494949"/>
</svg>
