<svg width="80" height="80" viewBox="0 0 80 80" fill="none" xmlns="http://www.w3.org/2000/svg">
<rect x="0.166016" y="0.171387" width="79.834" height="79.834" rx="17.195" fill="#E1F5FE" fill-opacity="0.6"/>
<g clip-path="url(#clip0_1730_71414)">
<path d="M21.8496 72.9212C21.3768 72.7335 20.9124 72.5348 20.4565 72.3252C14.385 69.5346 9.85258 64.2662 7.47016 58.9158C6.44645 56.6001 5.7374 54.1577 5.3619 51.6538C2.86923 35.4135 17.414 27.712 20.75 22.0159C24.086 16.3199 29.8863 7.50091 44.0735 6.94367C54.8607 6.51755 65.6941 10.7624 71.4482 20.079C72.0973 21.1251 72.6714 22.216 73.1661 23.3434C74.1442 25.6049 74.8331 27.9808 75.2163 30.4147C76.4201 37.8093 75.0673 44.073 70.6243 50.5498C69.5917 52.0546 68.4058 53.5699 68.4579 55.3667C68.4966 56.6734 69.1582 57.843 70.4231 56.3322C71.9131 54.5547 75.3831 56.0268 73.5609 60.3178C70.5185 67.4874 62.6412 71.175 54.4614 73.4114C44.4207 76.1559 31.6251 76.7951 21.8496 72.9212Z" fill="#129D88"/>
<path opacity="0.7" d="M21.8496 72.9212C21.3768 72.7335 20.9124 72.5348 20.4565 72.3252C14.385 69.5346 9.85258 64.2662 7.47016 58.9158C6.44645 56.6001 5.7374 54.1577 5.3619 51.6538C2.86923 35.4135 17.414 27.712 20.75 22.0159C24.086 16.3199 29.8863 7.50091 44.0735 6.94367C54.8607 6.51755 65.6941 10.7624 71.4482 20.079C72.0973 21.1251 72.6714 22.216 73.1661 23.3434C74.1442 25.6049 74.8331 27.9808 75.2163 30.4147C76.4201 37.8093 75.0673 44.073 70.6243 50.5498C69.5917 52.0546 68.4058 53.5699 68.4579 55.3667C68.4966 56.6734 69.1582 57.843 70.4231 56.3322C71.9131 54.5547 75.3831 56.0268 73.5609 60.3178C70.5185 67.4874 62.6412 71.175 54.4614 73.4114C44.4207 76.1559 31.6251 76.7951 21.8496 72.9212Z" fill="white"/>
<path d="M34.5777 43.5445C34.5777 43.5445 30.4774 44.9882 28.5971 47.2455C26.7168 49.5028 27.6942 57.3264 29.4628 58.0416C31.2313 58.7568 35.0679 58.9445 37.1747 58.4186C39.2815 57.8926 39.7329 57.5902 40.7103 56.8377C41.2837 56.4011 41.8132 55.9095 42.2912 55.3702C42.2912 55.3702 42.5549 55.7844 42.5892 54.807C42.6234 53.8296 43.0779 48.1857 43.0779 46.2294C43.0779 44.2731 40.7074 43.032 38.6766 42.9515C36.6458 42.871 34.5777 43.5445 34.5777 43.5445Z" fill="#129D88"/>
<path d="M34.9469 44.6274C34.4945 45.3124 34.3282 46.1472 34.4836 46.9532C34.7622 48.2525 36.1851 48.7173 36.1851 48.7173L34.9469 44.6274Z" fill="#00D2D3"/>
<path d="M42.5804 44.6318C42.5804 44.6318 44.4071 45.0401 45.0969 46.2097C45.7868 47.3793 46.2889 50.4843 46.5079 52.7446C46.7269 55.0048 46.1205 58.4615 46.1205 58.4615C46.1205 58.4615 46.3694 59.0336 46.1474 59.4418C45.9254 59.8501 45.6497 60.1227 45.6497 60.3135C45.6497 60.5042 45.8166 60.6666 45.6229 61.0212C45.4292 61.3758 42.9946 61.565 41.3915 61.2387C39.7883 60.9124 40.8104 58.6254 41.2812 57.7806C41.752 56.9358 42.2795 55.9584 42.3465 55.4399C42.4136 54.9214 42.6266 52.6298 42.7652 50.9954C42.9038 49.3609 42.6907 47.0813 42.8576 46.5911C43.0244 46.1009 42.5804 44.6318 42.5804 44.6318Z" fill="#129D88"/>
<path d="M46.3546 61.2579C46.3546 61.2579 45.9568 60.8109 45.6797 60.7752C45.4026 60.7394 45.0063 60.7454 44.9139 60.7454C44.8215 60.7454 44.3313 60.1494 44.0199 60.1494C43.7085 60.1494 42.7311 60.7841 42.1798 60.9942C41.6286 61.2043 41.198 61.6587 41.2293 61.9001C41.2605 62.1415 39.5114 63.688 39.6648 64.0143C39.8183 64.3406 40.891 64.1037 41.1056 64.0143C41.3201 63.9249 46.3546 61.2579 46.3546 61.2579Z" fill="white"/>
<path d="M30.2461 44.2875C30.2461 44.2875 30.5188 44.1385 31.5662 43.6424C32.6136 43.1462 33.3705 43.1954 34.5788 43.5456C35.7872 43.8957 34.2153 44.2488 34.2153 44.2488C34.2153 44.2488 33.9665 44.0015 33.3601 44.1386C32.7537 44.2756 31.8701 44.7464 31.3189 44.7464C30.7676 44.7464 30.2461 44.2875 30.2461 44.2875Z" fill="#129D88"/>
<path d="M34.4536 44.1332C34.4536 44.1332 34.2063 44.5042 33.0918 44.8439C31.9774 45.1836 30.7705 44.9929 30.5589 44.7516C30.4337 44.6124 30.3293 44.4558 30.249 44.2867C30.249 44.2867 30.8986 44.4729 31.3635 44.3493C31.8284 44.2256 33.0963 43.7607 33.4062 43.7607C33.7161 43.7607 34.4536 44.1332 34.4536 44.1332Z" fill="#129D88"/>
<path d="M35.032 42.8254C35.032 42.8254 34.6119 42.3785 34.2692 43.0355C33.9265 43.6926 34.4182 44.9054 34.5776 45.184C34.6495 45.3308 34.7558 45.4581 34.8875 45.555C34.8875 45.555 35.0723 47.8763 35.4746 48.6183C35.8768 49.3603 37.1776 50.8786 38.0745 50.9709C38.9714 51.0633 39.5644 51.032 40.6744 49.7328C41.7845 48.4336 42.3447 47.5664 42.8095 45.4626C43.2744 43.3588 36.5518 41.3146 36.0318 41.6245C35.5118 41.9345 35.032 42.8254 35.032 42.8254Z" fill="#00D2D3"/>
<path d="M41.0222 49.3201C41.2999 48.9865 41.5534 48.6335 41.7806 48.2637L41.7598 48.2488C41.7598 48.2488 40.5827 48.6824 40.1804 48.6824C39.7781 48.6824 36.9026 47.8465 36.7148 47.7229C36.5271 47.5992 36.3751 47.2282 36.3751 47.2282L35.7553 44.1634C35.7553 44.1634 35.508 43.9787 35.4767 44.1947C35.4767 44.1947 36.2217 47.0107 36.0652 47.4726C35.9088 47.9345 35.6942 48.3084 35.6004 48.2175C35.5065 48.1267 34.8896 45.5565 34.8896 45.5565C34.8896 45.5565 35.0744 47.8778 35.4767 48.6198C35.879 49.3618 37.1797 50.8801 38.0766 50.9724C38.9736 51.0648 39.5666 51.0335 40.6766 49.7343C40.7654 49.5762 40.8825 49.4357 41.0222 49.3201Z" fill="white"/>
<path d="M42.8088 38.4118C41.9095 37.8689 40.9067 37.5197 39.8647 37.3867C38.1572 37.1766 35.897 38.1228 35.2131 38.8052C34.5292 39.4875 34.556 41.6703 34.7139 42.302C34.8719 42.9338 35.6332 45.2715 36.554 45.9539C37.4748 46.6363 38.7085 46.3219 38.7085 46.3219C38.7085 46.3219 39.0243 46.5067 40.1537 46.8747C41.2831 47.2427 42.0728 46.9268 42.0728 46.9268C42.3862 47.1526 42.7637 47.2721 43.15 47.268C43.7549 47.2427 44.4909 46.8478 45.0169 45.7185C45.5428 44.5891 45.4102 41.6703 44.701 40.4351C44.2151 39.6385 43.5712 38.9499 42.8088 38.4118Z" fill="#129D88"/>
<path d="M30.259 48.5595C30.259 48.5595 31.3124 51.1177 31.2364 53.9769C31.1604 56.8361 30.3723 58.7552 30.3723 58.7552L30.785 59.0532L30.934 59.3914C30.934 59.3914 33.6814 59.8801 33.9437 60.1066C34.2059 60.333 34.3206 62.5516 33.9437 63.4917C33.5667 64.4319 28.6767 63.7182 26.8709 63.38C25.0651 63.0417 24.1249 61.8364 24.1622 60.2511C24.1994 58.6658 25.4793 53.3288 25.4793 53.3288C25.4793 53.3288 26.6459 48.5133 27.6233 47.8741C28.6007 47.235 29.0164 47.0085 29.4291 47.3467" fill="#129D88"/>
<path d="M38.4707 57.2859L39.8817 59.5968L40.3018 59.4761L38.952 57.0162L38.5318 56.8359L38.4707 57.2859Z" fill="#129D88"/>
<path d="M34.354 59.9241C34.354 59.9241 33.2261 60.1863 33.0369 61.128C32.8477 62.0696 33.5643 63.0455 34.0903 63.1587C34.6162 63.272 35.4074 63.0097 35.4074 63.0097L36.4235 62.8965C36.4235 62.8965 36.6872 63.0097 37.4769 62.9725L38.2666 62.9353C38.2666 62.9353 40.2512 63.9633 40.5656 63.9216C40.6508 63.9145 40.7315 63.88 40.7957 63.8234C40.8598 63.7668 40.904 63.6909 40.9217 63.6072C40.9217 63.6072 41.5072 63.6281 41.6115 63.336C41.7158 63.044 41.3612 62.6656 41.3612 62.6656C41.3612 62.6656 41.6964 62.457 41.7173 62.2469C41.732 62.0358 41.7108 61.8237 41.6547 61.6196C41.6115 61.493 41.5906 60.9074 41.5057 60.6348C41.4208 60.3621 41.0662 59.5918 40.6892 59.3579C40.3123 59.124 38.8983 58.5757 38.4722 58.5757C38.0461 58.5757 36.1687 59.8526 35.981 59.8943C35.7933 59.936 35.7292 59.7691 35.3537 59.8108C35.1273 59.8358 34.9032 59.8781 34.6833 59.9375L34.354 59.9241Z" fill="white"/>
<path d="M49.6597 45.4956C49.6597 45.4956 48.9222 46.2674 48.5795 48.1149C48.2368 49.9624 47.6856 55.8358 48.5184 57.3824C49.3513 58.9289 49.3915 59.1956 49.3915 59.1956L49.6597 59.8661L51.8768 59.1613C51.9398 57.2403 51.8161 55.3177 51.5073 53.4206C51.0037 50.6001 49.7268 47.9823 49.7268 47.5115C49.7268 47.0407 49.6597 45.4956 49.6597 45.4956Z" fill="#129D88"/>
<path d="M52.1793 57.9859C52.1793 57.9859 51.3747 57.1128 50.5016 57.5151C49.6285 57.9174 49.259 58.5894 49.3261 58.8918C49.3779 59.203 49.4117 59.5169 49.4274 59.832C49.4274 59.832 50.3675 59.2941 51.038 59.2613C51.7085 59.2285 51.8783 59.16 51.8783 59.16L52.1793 57.9859Z" fill="white"/>
<path d="M54.767 41.7036C54.767 41.7036 55.065 42.2072 56.2778 42.5425C57.4906 42.8777 59.2666 42.4084 61.5164 43.6837C63.7662 44.9591 63.9003 58.9273 63.799 59.6261C63.6977 60.3249 63.799 63.6877 63.799 63.6877H50.7725C50.7725 63.6877 51.3431 55.0594 50.7725 52.6755C50.2018 50.2916 48.624 47.4041 49.6639 45.491C50.7039 43.578 53.0536 42.5424 54.767 41.7036Z" fill="#129D88"/>
<path d="M52.0825 47.1762C52.0825 47.1762 53.6261 48.4858 55.9772 47.4444C57.6951 46.683 59.4294 44.3259 60.24 43.1131C58.5861 42.5633 57.2482 42.8151 56.2782 42.5425C55.0699 42.2072 54.7674 41.7036 54.7674 41.7036C53.34 42.4039 51.4702 43.2457 50.2842 44.6164L52.0825 47.1762Z" fill="#00D2D3"/>
<path d="M47.0938 44.1368C47.0938 44.1368 47.6257 45.0695 47.9594 45.135C48.2932 45.2006 48.9234 45.2021 49.0903 45.3347C49.2571 45.4673 49.6222 46.6324 49.8218 46.6652C50.0215 46.698 50.7158 47.6307 52.0836 47.6307C53.4513 47.6307 53.5809 47.364 53.9132 46.8976C54.2455 46.4313 54.7774 45.6341 54.9442 44.6701C55.1111 43.7062 54.3781 42.3086 54.3781 42.3086L54.1129 42.3414L47.0938 44.1368Z" fill="#00D2D3"/>
<path d="M54.768 44.2888C54.7054 44.703 54.2912 45.6298 54.2912 45.6298L53.1722 44.8222C53.1722 44.8222 53.2974 43.371 53.2348 42.9568C53.214 42.8183 53.2006 42.6857 53.1916 42.5694L53.0322 42.6097C53.0815 43.0969 53.0869 43.5876 53.0486 44.0758C53.0129 44.3423 52.9571 44.6058 52.8817 44.8639C52.8817 44.8639 52.0116 45.7579 51.2249 46.0023C50.6185 46.1945 49.9301 46.3852 49.6426 46.4626C49.7066 46.5744 49.7648 46.6519 49.8139 46.6593C50.0136 46.6921 50.7079 47.6248 52.0757 47.6248C53.4434 47.6248 53.573 47.3581 53.9053 46.8918C54.2376 46.4254 54.7695 45.6283 54.9363 44.6643C55.1032 43.7003 54.3702 42.3027 54.3702 42.3027C54.3702 42.3027 54.8306 43.8746 54.768 44.2888Z" fill="white"/>
<path d="M47.949 45.1367C47.949 45.1367 46.9746 44.8908 47.1191 45.016C47.2636 45.1411 47.8447 45.4093 48.6091 45.5956C49.3734 45.7818 49.0769 45.3363 49.0769 45.3363C49.3407 45.5288 49.6476 45.6536 49.9709 45.6999C50.4476 45.7416 51.1941 45.8489 51.3118 45.5345C51.4295 45.2201 50.8767 44.9951 50.8767 44.9951C50.8767 44.9951 50.7114 45.016 49.9649 45.0979C49.2184 45.1799 48.5286 45.092 47.949 45.1367Z" fill="white"/>
<path d="M46.1524 37.1853C46.1524 37.1853 44.8219 39.0551 44.5582 40.4438C44.2945 41.8324 44.5925 42.6399 44.5582 43.005C44.5239 43.37 44.4599 43.6382 44.7921 43.8706C45.1244 44.103 46.1226 44.2357 46.7216 44.1686C46.7307 44.2239 46.759 44.2742 46.8015 44.3107C46.844 44.3472 46.898 44.3676 46.954 44.3683C47.1537 44.3683 47.3831 44.3519 49.4631 43.7812C51.4879 43.227 56.1797 41.8711 56.664 41.4092C57.0946 40.998 57.6622 39.8791 57.3285 38.6484C56.9947 37.4177 53.0077 35.9531 52.4728 35.9203C51.9379 35.8875 48.4812 35.3556 47.2833 35.9531C46.0854 36.5505 46.1524 37.1853 46.1524 37.1853Z" fill="#129D88"/>
<path d="M61.4803 46.2086C61.4803 46.2086 60.1707 49.7338 60.8769 52.3859C61.5831 55.038 62.9628 58.1609 62.9628 58.1609C62.9628 58.1609 61.0483 58.7986 60.4448 59.1681C59.8414 59.5376 59.5047 59.5719 59.4704 59.9742C59.4361 60.3765 58.867 60.3437 58.9668 60.7802C59.0666 61.2168 60.9142 62.9958 61.7202 63.0628C62.5263 63.1299 66.2183 62.224 67.0244 61.9215C67.8305 61.6191 69.4754 61.8873 69.1401 60.1425C68.8049 58.3978 66.9246 50.3089 65.682 47.5853C64.4394 44.8617 62.0227 43.9931 61.6591 44.0273" fill="#129D88"/>
<path d="M58.9628 60.7729C58.9628 60.7729 56.3494 62.6055 56.2809 62.7694C56.2124 62.9333 61.7132 63.0555 61.7132 63.0555C61.7132 63.0555 59.5454 60.6761 58.9628 60.7729Z" fill="white"/>
<path d="M52.3777 59.6173C52.3777 59.6173 52.1006 59.0422 51.9308 58.8724C51.7609 58.7025 50.8163 58.6802 50.2918 58.8023C49.7674 58.9245 49.1952 59.4281 48.8481 59.9168C48.5009 60.4055 48.7304 61.3457 48.8794 61.4053C49.0284 61.4649 50.7418 60.8301 50.8163 60.6603C50.8908 60.4904 52.3777 59.6173 52.3777 59.6173Z" fill="white"/>
<path d="M50.1881 59.5522C50.1881 59.5522 49.9616 59.6223 49.9795 60.2317C49.9974 60.841 50.1017 60.9975 50.1017 60.9975" fill="white"/>
<path d="M49.6111 59.5522C49.6111 59.5522 49.1641 60.0752 49.176 60.4924C49.192 60.6296 49.2356 60.7621 49.3043 60.8819C49.3729 61.0018 49.4651 61.1065 49.5753 61.1897" fill="white"/>
<path d="M24.1475 73.7318C33.5699 76.6819 45.1855 75.9459 54.4559 73.4115C61.6195 71.4537 68.5507 68.3815 72.207 62.8329C71.5187 62.7376 70.7752 62.6288 69.9721 62.5066C64.0854 61.6127 61.4407 61.8078 60.5423 61.6127C59.6438 61.4175 55.9026 60.5697 55.7029 60.5697C55.5033 60.5697 52.361 60.0199 51.1631 60.3701C49.9652 60.7202 46.288 61.6261 46.288 61.6261C46.288 61.6261 38.5925 64.2603 36.9461 64.7103C35.2997 65.1602 32.5552 65.409 31.4571 65.409C30.3591 65.409 26.8681 64.962 26.1693 65.111C25.4706 65.26 23.8242 66.2583 24.0745 67.6052C24.228 68.3919 24.2011 71.4031 24.1475 73.7318Z" fill="#129D88"/>
<path d="M50.173 59.6187C50.173 59.6187 42.3403 63.1111 43.2388 63.9604C44.1372 64.8096 45.6331 64.7575 47.728 63.6102C49.8228 62.463 53.2974 60.24 53.2974 60.24C53.2974 60.24 51.7195 59.27 51.3694 59.27C51.0192 59.27 50.173 59.6187 50.173 59.6187Z" fill="white"/>
<path d="M43.7339 63.4496C43.5953 63.469 43.0976 63.8474 42.8786 64.0664L41.2278 67.5484C41.2278 67.5484 40.2519 67.7868 40.0135 68.2442C39.7751 68.7016 40.0537 69.1591 40.3115 69.0592C40.5692 68.9594 41.3544 67.7466 41.4259 67.6468C41.4975 67.5469 41.0683 68.9013 41.1875 69.0592C41.3067 69.2172 41.7448 68.9996 42.0815 68.721C42.4182 68.4424 42.5791 67.8464 42.4391 67.6274C42.299 67.4084 41.7627 67.2489 41.7627 67.2489C41.7627 67.2489 42.9338 63.9592 43.1334 63.8742C43.3331 63.7893 43.8739 63.4287 43.7339 63.4496ZM40.2399 68.7612C40.1207 68.7612 40.0805 68.5422 40.2802 68.2636C40.4798 67.985 41.1145 67.7064 41.0952 67.8658C41.0877 67.8658 40.3517 68.7612 40.2399 68.7612ZM42.1292 68.0848C41.9906 68.5035 41.712 68.7821 41.5123 68.7419C41.3127 68.7016 41.7522 67.6274 41.7522 67.6274C41.864 67.468 42.2618 67.6631 42.1217 68.0848H42.1292Z" fill="white"/>
<path d="M38.6071 70.4746C38.5799 70.2806 38.5426 70.0881 38.4954 69.898C38.4653 69.7553 38.386 69.6279 38.2713 69.5379C38.1565 69.448 38.0138 69.4014 37.8681 69.4063C37.5403 69.4063 36.3946 69.2707 36.3946 69.2707C36.2575 69.2424 33.744 68.8044 33.5264 68.7492C33.3089 68.6941 28.8614 65.2583 28.8614 65.2583L27.8796 68.8565C27.8796 68.8565 27.5518 69.9755 27.8527 70.0306C28.1537 70.0857 31.2081 71.2404 31.7549 71.6278C32.3017 72.0152 32.8411 73.1595 33.7961 73.596C34.7512 74.0326 36.8862 74.2099 37.3496 73.964C37.813 73.7182 38.6593 71.7813 38.7412 71.7291C38.9334 71.5567 39.0828 71.3419 39.1778 71.1018C39.2076 70.9827 38.9141 70.7145 38.6071 70.4746Z" fill="white"/>
<path d="M32.0412 37.6133C32.0412 37.6133 31.2664 38.4283 30.9819 38.5072C30.6973 38.5862 30.5557 38.5638 30.441 38.7054C30.1969 39.0954 30.006 39.5163 29.8734 39.9569C29.8167 40.2683 29.7601 40.6095 28.9645 41.0923C28.1689 41.575 27.4298 42.2008 25.8952 42.1725C24.3606 42.1442 23.9583 41.2919 23.6514 41.1489C23.3444 41.0059 22.3715 41.5467 22.3715 41.5467C22.3715 41.5467 21.0648 41.8313 20.9233 42.0026C20.7817 42.174 17.115 37.4553 17.115 37.4553L14.9844 37.3987C16.056 37.0359 17.1468 36.7325 18.2518 36.4899C19.7865 36.177 21.0365 34.9835 21.2079 34.3011C21.3792 33.6187 21.9528 32.0573 24.7584 32.0007C27.5639 31.944 32.147 35.5527 32.9143 36.2619C33.6816 36.9711 32.0412 37.6133 32.0412 37.6133Z" fill="#00D2D3"/>
<path d="M28.0012 37.8662C27.9163 37.6397 27.1489 33.3487 27.0357 32.8942C26.9925 32.7184 26.9731 32.5963 26.9493 32.4905C26.7824 32.4264 26.6185 32.3683 26.4546 32.3147C26.5775 32.4205 26.6619 32.564 26.6945 32.7229C26.7794 33.1207 27.6317 37.9526 27.6317 37.9526C27.6317 37.9526 27.4618 38.6618 27.2056 38.9747C26.9493 39.2876 26.4963 39.6854 25.8423 39.4217C25.444 39.2643 25.085 39.0217 24.7904 38.711C24.7904 38.711 25.1882 33.7942 25.3029 32.9717C25.4176 32.1493 25.6143 32.261 25.6143 32.261C25.7207 32.2095 25.8351 32.1763 25.9525 32.1627C25.8035 32.1269 25.6664 32.0942 25.5279 32.0703C25.1226 32.2953 25.0437 32.8004 25.0437 32.8004L24.3896 38.5679L23.9068 38.6812C23.9068 38.6812 23.6714 40.4155 23.5537 41.1321C23.5874 41.134 23.6205 41.141 23.652 41.153C23.9634 41.302 24.3613 42.1483 25.8959 42.1766C27.4305 42.2049 28.1695 41.5806 28.9652 41.0964C29.7608 40.6121 29.8174 40.2724 29.874 39.961C29.9262 39.7555 29.9991 39.5558 30.0916 39.3651C29.8204 39.1937 28.0802 38.0703 28.0012 37.8662Z" fill="white"/>
<path d="M7.91602 59.8715C10.3953 64.8836 14.7429 69.7051 20.4554 72.3274C20.9113 72.536 21.3756 72.7346 21.8485 72.9233C22.9901 73.3714 24.1549 73.7578 25.3379 74.081L24.7538 63.3803C24.7538 63.3803 24.5244 60.5926 24.6391 60.4004C24.7538 60.2082 22.577 46.0418 22.2716 44.5906C21.9662 43.1394 21.546 42.5658 21.546 42.5658C21.546 42.5658 21.2406 39.8169 19.025 38.245C16.8095 36.6731 14.5552 37.0992 13.4109 37.8248C12.2666 38.5504 10.2418 41.3381 9.13479 45.4235C8.02776 49.5089 8.21847 56.8037 8.21847 56.8037L7.91602 59.8715Z" fill="#129D88"/>
<path d="M14.2842 45.002C14.2842 45.002 15.05 54.7313 15.05 55.4956C15.05 56.26 14.8861 58.3936 16.1421 61.1812C17.3982 63.9689 20.1262 66.2098 20.1262 66.2098C20.1262 66.2098 22.9139 69.3238 23.7885 69.8169C24.6631 70.3101 27.0664 70.4129 28.2703 69.8706C29.4741 69.3282 30.0746 67.3019 29.9643 66.1547C29.8541 65.0074 28.3254 63.9674 27.7786 63.586C27.2318 63.2046 26.3572 61.509 25.9206 60.4705C25.4841 59.432 25.265 59.4276 25.265 58.8316C25.265 58.2356 25.3187 57.3566 25.3187 55.5537C25.3187 53.7509 22.0944 45.6069 21.8754 44.9498C21.6564 44.2928 21.5417 42.5659 21.5417 42.5659" fill="#129D88"/>
<path d="M26.9642 34.5377C26.9642 34.5377 30.9364 37.0259 32.179 37.3358L32.0404 37.6129C32.0404 37.6129 33.3188 37.6472 34.3215 37.233C35.3242 36.8187 35.9098 36.1274 35.1842 34.7448C34.7624 33.9293 34.1741 33.2116 33.4574 32.638C33.4574 32.638 32.4561 29.4242 29.5537 28.4229C26.6513 27.4217 23.0233 27.4902 20.9851 29.597C18.9468 31.7038 19.4951 33.1565 20.0911 33.7092C20.6871 34.262 21.581 34.2263 21.581 34.2263C21.581 34.2263 22.922 34.5034 23.7236 34.2263C24.5252 33.9491 24.8917 33.1565 24.8917 33.1565L26.9642 34.5377Z" fill="#129D88"/>
<path d="M26.9652 34.5382C26.9652 34.5382 26.7924 33.467 26.1696 33.2598C25.5468 33.0527 24.927 34.2626 25.0298 34.9524C25.1326 35.6423 25.1341 36.058 25.6168 36.1623C25.7424 36.1987 25.8753 36.2019 26.0025 36.1716C26.1296 36.1413 26.2468 36.0786 26.3424 35.9894" fill="#00D2D3"/>
<path d="M24.8945 33.1561C24.8945 33.1561 25.3564 32.7807 26.313 32.7285L24.8945 33.1561Z" fill="white"/>
<path d="M14.8964 37.1981C14.8964 37.1981 13.3558 36.6572 13.2128 36.8852C13.0698 37.1131 11.2446 39.2527 11.1269 39.5954C11.0092 39.9381 11.8972 40.4506 12.155 40.4789C12.4127 40.5072 14.1232 39.652 14.2081 39.2244C14.293 38.7968 13.8952 37.5124 13.8952 37.5124L14.8964 37.1981ZM13.5555 39.135C13.1845 39.649 12.1296 40.02 11.8436 39.9917C11.5575 39.9634 11.8152 39.792 12.0998 39.1931C12.3844 38.5941 13.1845 36.8822 13.2992 37.2249C13.2992 37.2279 13.9265 38.6254 13.5555 39.138V39.135Z" fill="#129D88"/>
<path d="M7.46965 58.9227C7.55905 59.1239 7.65292 59.325 7.74976 59.5262L8.17887 57.2183H7.74231C7.74231 57.2183 7.60375 57.8694 7.41602 58.7976L7.46965 58.9227Z" fill="#129D88"/>
<path d="M6.69718 57.3947C5.73766 58.1292 5.12827 60.3135 5.82109 60.8364C6.51392 61.3594 6.95345 61.3162 7.25889 60.3135C7.56432 59.3107 7.82655 57.5243 8.1752 57.2188C8.17967 57.2188 7.6567 56.6527 6.69718 57.3947ZM6.74039 60.5325C6.47965 60.8811 5.73766 60.3582 5.73766 60.0095C5.73766 59.6609 6.57202 57.8893 7.39447 57.35C7.39447 57.35 7.00262 60.1838 6.74039 60.5325Z" fill="#129D88"/>
<path d="M63.6562 36.9666C65.5768 36.9666 67.1338 35.3336 67.1338 33.3193C67.1338 31.3049 65.5768 29.6719 63.6562 29.6719C61.7356 29.6719 60.1787 31.3049 60.1787 33.3193C60.1787 35.3336 61.7356 36.9666 63.6562 36.9666Z" fill="white"/>
<path d="M61.1963 33.7293L63.5921 33.2272L62.0038 33.1587" fill="white"/>
<path d="M66.9285 20.8621C67.6007 17.8597 64.1618 14.5339 59.2475 13.4336C54.3332 12.3333 49.8044 13.8753 49.1322 16.8777C48.46 19.8801 51.8989 23.2059 56.8132 24.3062C61.7275 25.4065 66.2563 23.8645 66.9285 20.8621Z" fill="#17A8C2"/>
<path d="M56.1781 20.3159C56.1781 20.3159 54.6762 21.9906 54.773 22.5091C54.8699 23.0276 56.3315 23.7994 57.7529 23.8501C59.1743 23.9007 59.5617 23.6385 59.6183 23.0812C59.6749 22.524 58.9449 20.8299 58.9449 20.8299L56.1781 20.3159Z" fill="white"/>
<path d="M57.7991 17.2381C57.7991 17.2381 58.2461 16.5066 57.9481 15.3325C57.6501 14.1584 56.3896 13.8515 55.3124 13.9483C54.2351 14.0452 52.6558 14.6784 52.7914 15.4487C52.927 16.219 56.181 17.411 56.7397 17.5465C57.2985 17.6821 57.6248 17.5465 57.7991 17.2381Z" fill="white"/>
<path d="M60.623 14.9282C60.623 14.9282 59.142 16.7161 59.0451 17.3121C58.9483 17.9081 58.8529 18.0809 59.9495 18.2731C61.0461 18.4653 64.0677 18.2343 64.4715 17.8499C64.8753 17.4655 64.8186 16.8338 63.798 15.9637C62.7774 15.0936 61.4886 14.3128 60.623 14.9282Z" fill="white"/>
<path d="M55.8549 17.949C55.8549 17.949 51.9304 17.0639 51.2361 17.204C50.5418 17.344 50.3511 18.9353 50.7355 19.7056C51.1199 20.4759 51.4805 20.8216 52.3744 20.7054C53.2684 20.5891 55.8564 19.5521 56.1648 18.8981C56.4733 18.244 56.1052 18.0056 55.8549 17.949Z" fill="white"/>
<path d="M62.0334 19.0455C62.0334 19.0455 60.8206 18.7371 60.3393 18.9293C59.8581 19.1215 59.4931 19.5834 60.0324 20.4311C60.5718 21.2789 61.5715 22.2965 62.6681 22.666C63.7647 23.0356 64.3801 22.6273 64.9194 21.9345C65.4588 21.2417 65.6122 20.5935 64.7466 20.011C63.8809 19.4284 62.0334 19.0455 62.0334 19.0455Z" fill="white"/>
<path d="M59.1634 18.9521C59.0651 19.2948 58.5526 19.4482 58.0177 19.2948C57.4828 19.1413 57.1237 18.7405 57.228 18.4008C57.3323 18.0611 57.8389 17.9046 58.3738 18.0581C58.9087 18.2116 59.2647 18.6094 59.1634 18.9521Z" fill="white"/>
<path d="M57.9141 19.7371C57.552 19.6343 57.2064 19.7371 57.1408 19.9695L56.8682 21.9437L57.9439 22.2506L58.4475 20.3435C58.5131 20.1126 58.2747 19.8369 57.9141 19.7371Z" fill="white"/>
<path d="M57.9444 22.2506C57.8893 22.4413 57.6047 22.5262 57.3067 22.4413C57.0087 22.3563 56.8136 22.1328 56.8687 21.9436C56.9238 21.7544 57.2084 21.668 57.5049 21.7529C57.8014 21.8378 57.9981 22.0613 57.9444 22.2506Z" fill="white"/>
<path d="M42.0619 29.9687C46.9762 28.8685 50.4151 25.5426 49.7429 22.5402C49.0707 19.5378 44.5419 17.9959 39.6276 19.0961C34.7133 20.1964 31.2744 23.5223 31.9466 26.5247C32.6189 29.5271 37.1476 31.069 42.0619 29.9687Z" fill="#17A8C2"/>
<path d="M42.6941 25.9746C42.6941 25.9746 44.1944 27.6493 44.0991 28.1693C44.0037 28.6893 42.5406 29.4581 41.1192 29.5102C39.6978 29.5624 39.3104 29.2987 39.2523 28.7399C39.1942 28.1812 39.9258 26.4886 39.9258 26.4886L42.6941 25.9746Z" fill="white"/>
<path d="M41.0786 22.8963C41.0786 22.8963 40.6316 22.1647 40.9296 20.9921C41.2276 19.8196 42.4881 19.5022 43.5653 19.6065C44.6425 19.7108 46.2204 20.338 46.0863 21.1069C45.9522 21.8757 42.6996 23.0691 42.1409 23.2047C41.5822 23.3403 41.2514 23.2047 41.0786 22.8963Z" fill="white"/>
<path d="M38.2531 20.582C38.2531 20.582 39.7341 22.37 39.8309 22.9659C39.9277 23.5619 40.0231 23.7347 38.9265 23.9284C37.8299 24.1221 34.8083 23.8897 34.4045 23.5038C34.0008 23.1179 34.0574 22.4847 35.078 21.619C36.0986 20.7534 37.3859 19.9726 38.2531 20.582Z" fill="white"/>
<path d="M43.0205 23.6106C43.0205 23.6106 46.9465 22.7256 47.6393 22.8656C48.3322 23.0057 48.5244 24.5984 48.14 25.3672C47.7556 26.136 47.395 26.4832 46.501 26.3685C45.6071 26.2537 43.0175 25.2138 42.7106 24.5597C42.4037 23.9056 42.7702 23.6687 43.0205 23.6106Z" fill="white"/>
<path d="M36.8469 24.7065C36.8469 24.7065 38.0582 24.398 38.5394 24.5917C39.0207 24.7854 39.3872 25.2458 38.8479 26.0921C38.3085 26.9384 37.3087 27.959 36.2166 28.33C35.1245 28.701 34.5032 28.2913 33.9653 27.5984C33.4274 26.9056 33.2725 26.2575 34.1382 25.6749C35.0038 25.0924 36.8469 24.7065 36.8469 24.7065Z" fill="white"/>
<path d="M39.7136 24.6122C39.812 24.9549 40.3245 25.1084 40.8579 24.9549C41.3913 24.8014 41.7519 24.4007 41.6476 24.0609C41.5433 23.7212 41.0367 23.5648 40.5033 23.7183C39.9699 23.8717 39.6153 24.2695 39.7136 24.6122Z" fill="white"/>
<path d="M40.9616 25.3963C41.3222 25.2935 41.6694 25.3963 41.7349 25.6287L42.0076 27.6029L40.9318 27.9113L40.4282 26.0027C40.3612 25.7717 40.6011 25.4976 40.9616 25.3963Z" fill="white"/>
<path d="M40.934 27.9115C40.9891 28.1007 41.2737 28.1871 41.5702 28.1022C41.8667 28.0172 42.0634 27.7937 42.0098 27.603C41.9561 27.4123 41.67 27.3274 41.3735 27.4123C41.077 27.4972 40.8789 27.7207 40.934 27.9115Z" fill="white"/>
<path d="M37.8694 18.0937C43.6404 16.3172 47.6108 12.5775 46.7375 9.74072C45.8643 6.90398 40.4781 6.04449 34.7071 7.82098C28.9361 9.59747 24.9657 13.3372 25.8389 16.174C26.7122 19.0107 32.0984 19.8702 37.8694 18.0937Z" fill="#17A8C2"/>
<path d="M38.6681 14.0063C38.6681 14.0063 40.6572 15.3369 40.6051 15.8494C40.5529 16.3619 38.9036 17.3542 37.2155 17.6612C35.5273 17.9681 35.0357 17.7789 34.9001 17.2574C34.7645 16.7359 35.429 14.9912 35.429 14.9912L38.6681 14.0063Z" fill="white"/>
<path d="M36.3638 11.3585C36.3638 11.3585 35.7485 10.7387 35.9511 9.57054C36.1537 8.40243 37.6288 7.88244 38.9235 7.78261C40.2183 7.68279 42.1746 8.01057 42.112 8.76746C42.0494 9.52435 38.3156 11.2378 37.6675 11.4643C37.0194 11.6907 36.6141 11.6207 36.3638 11.3585Z" fill="white"/>
<path d="M32.7228 9.6547C32.7228 9.6547 34.7044 11.0999 34.8906 11.6512C35.0769 12.2025 35.2125 12.3515 33.9296 12.7284C32.6468 13.1054 29.0218 13.4198 28.4943 13.1233C27.9669 12.8268 27.9579 12.2129 29.068 11.2072C30.178 10.2015 31.6172 9.22113 32.7228 9.6547Z" fill="white"/>
<path d="M38.7706 11.6909C38.7706 11.6909 43.3373 10.1503 44.1791 10.1592C45.0209 10.1682 45.4426 11.6492 45.0731 12.4552C44.7036 13.2613 44.3132 13.6472 43.2449 13.6993C42.1767 13.7515 38.9584 13.2136 38.5129 12.6444C38.0674 12.0753 38.4786 11.7892 38.7706 11.6909Z" fill="white"/>
<path d="M31.5492 13.8281C31.5492 13.8281 32.9557 13.3201 33.5516 13.4184C34.1476 13.5167 34.6378 13.8937 34.0984 14.7951C33.5591 15.6965 32.4908 16.8467 31.2288 17.3891C29.9668 17.9314 29.1846 17.6558 28.4605 17.0911C27.7364 16.5264 27.4727 15.9289 28.4337 15.2257C29.3947 14.5224 31.5492 13.8281 31.5492 13.8281Z" fill="white"/>
<path d="M34.9518 13.2337C35.1097 13.5422 35.7385 13.5988 36.3553 13.3589C36.9722 13.119 37.3461 12.6735 37.1882 12.3636C37.0303 12.0537 36.4 11.9986 35.7832 12.2385C35.1664 12.4783 34.7924 12.9238 34.9518 13.2337Z" fill="white"/>
<path d="M36.5341 13.7612C36.9512 13.5987 37.3774 13.6375 37.4832 13.8461L38.0464 15.6802L36.8097 16.1644L35.9783 14.4346C35.8651 14.2245 36.1169 13.9236 36.5341 13.7612Z" fill="white"/>
<path d="M36.8103 16.1662C36.8982 16.3375 37.2468 16.3688 37.591 16.2347C37.9352 16.1006 38.1408 15.8533 38.0529 15.6819C37.965 15.5106 37.6149 15.4793 37.2722 15.6119C36.9295 15.7445 36.7164 15.9933 36.8103 16.1662Z" fill="white"/>
</g>
<defs>
<clipPath id="clip0_1730_71414">
<rect width="72.4647" height="70.6351" fill="white" transform="translate(5.07812 5.08545)"/>
</clipPath>
</defs>
</svg>
