<svg width="82" height="82" viewBox="0 0 82 82" fill="none" xmlns="http://www.w3.org/2000/svg">
<rect x="0.921875" y="0.530273" width="80.657" height="80.657" rx="16.1314" fill="white"/>
<path d="M40.1086 9.55908H42.4775C43.3448 9.68387 44.2122 9.79842 45.0795 9.90275C49.4387 10.4346 53.3899 11.7326 56.9329 13.7966C65.052 18.5343 70.4187 26.3527 72.0603 35.5426C72.2996 36.8989 72.3641 38.3257 72.5513 39.7249V42.0293C72.4694 42.7228 72.3968 43.4163 72.3334 44.1097C71.6645 51.566 68.1082 58.4516 62.7016 63.5943C57.8064 68.2563 51.8812 71.0046 44.9261 71.8392C44.0853 71.9415 43.2425 72.0468 42.3977 72.1553H40.0258C39.4837 72.0653 38.9396 71.9998 38.3934 71.9589C23.5114 70.8481 11.2561 58.424 10.1423 43.5666C10.1013 43.0143 10.0389 42.4661 9.95508 41.9219V39.8354C10.0799 38.9169 10.1944 37.9964 10.2987 37.0738C10.802 32.6327 12.2155 28.5098 14.5393 24.7049C18.4772 18.2612 23.9175 13.813 30.8604 11.3603C33.6015 10.3906 36.6843 9.79024 40.1086 9.55908ZM42.1921 30.5718L26.4633 30.5687C26.2793 30.5686 26.1025 30.6405 25.9706 30.7688C25.8388 30.8972 25.7623 31.0721 25.7575 31.256C25.7391 31.8124 25.7289 32.3791 25.7269 32.9559C25.7207 34.392 26.5768 35.4751 28.019 35.4843C28.7615 35.4884 29.5051 35.4843 30.2497 35.4721C30.3827 35.47 30.4492 35.5355 30.4492 35.6684C30.4144 38.6223 30.4216 41.5701 30.4707 44.5117C30.5351 48.2184 32.2688 52.2748 36.181 53.3733C38.7851 54.1057 41.3984 54.0054 44.0209 53.0726C44.0448 53.0639 44.0704 53.061 44.0956 53.0644C44.1208 53.0677 44.1449 53.0771 44.1659 53.0918C44.1869 53.1065 44.2042 53.1261 44.2164 53.1489C44.2285 53.1717 44.2351 53.1971 44.2357 53.223C44.2459 54.8165 44.2449 56.4939 44.2326 58.2552C44.2203 60.0441 45.2728 61.4188 47.1722 61.3758C47.8738 61.3615 48.555 61.3646 49.2158 61.385C50.1424 61.4157 50.6058 60.9667 50.6058 60.038L50.5966 35.5119C50.5966 35.3913 50.6569 35.3309 50.7776 35.3309L54.6592 35.337C54.8578 35.337 55.0495 35.2643 55.1982 35.1326C55.3469 35.0008 55.4422 34.8193 55.4662 34.6221C55.7055 32.643 55.503 30.3386 52.8703 30.4245C51.6061 30.4674 50.4012 30.4623 49.2557 30.4091C49.1683 30.4052 49.0827 30.3836 49.0041 30.3456C48.9255 30.3076 48.8555 30.2541 48.7985 30.1882C45.548 26.4549 42.4018 22.8413 39.3599 19.3474C38.3351 18.1691 36.7364 17.9697 35.2329 18.476C34.2121 18.8196 33.266 19.1255 32.3946 19.3934C32.2637 19.4334 32.1455 19.5069 32.0519 19.6068C31.9584 19.7067 31.8926 19.8293 31.8612 19.9625C31.8299 20.0957 31.834 20.2349 31.8732 20.366C31.9124 20.4971 31.9853 20.6157 32.0847 20.7098L42.2719 30.3754C42.411 30.5063 42.3844 30.5718 42.1921 30.5718Z" fill="#5F259F"/>
<path d="M42.1879 30.5731C42.3802 30.5731 42.4068 30.5076 42.2677 30.3767L32.0805 20.7111C31.9812 20.617 31.9082 20.4984 31.869 20.3673C31.8298 20.2362 31.8257 20.097 31.8571 19.9638C31.8884 19.8306 31.9542 19.708 32.0478 19.6081C32.1414 19.5082 32.2595 19.4347 32.3904 19.3947C33.2618 19.1268 34.2079 18.8209 35.2287 18.4773C36.7323 17.971 38.3309 18.1704 39.3558 19.3487C42.3976 22.8426 45.5438 26.4562 48.7943 30.1895C48.8514 30.2554 48.9213 30.3089 48.9999 30.3469C49.0785 30.3849 49.1641 30.4065 49.2515 30.4104C50.397 30.4636 51.6019 30.4687 52.8661 30.4258C55.4988 30.3399 55.7013 32.6443 55.462 34.6234C55.438 34.8206 55.3427 35.0021 55.194 35.1339C55.0454 35.2656 54.8536 35.3383 54.655 35.3384L50.7734 35.3322C50.6527 35.3322 50.5924 35.3926 50.5924 35.5133L50.6016 60.0393C50.6016 60.968 50.1383 61.417 49.2116 61.3863C48.5509 61.3659 47.8697 61.3628 47.168 61.3771C45.2687 61.4201 44.2162 60.0454 44.2284 58.2565C44.2407 56.4952 44.2417 54.8178 44.2315 53.2243C44.231 53.1984 44.2243 53.173 44.2122 53.1502C44.2001 53.1274 44.1828 53.1078 44.1618 53.0931C44.1408 53.0784 44.1166 53.069 44.0914 53.0657C44.0662 53.0623 44.0406 53.0652 44.0167 53.0739C41.3942 54.0067 38.7809 54.107 36.1769 53.3746C32.2646 52.2761 30.5309 48.2197 30.4665 44.513C30.4174 41.5714 30.4102 38.6236 30.445 35.6697C30.445 35.5368 30.3785 35.4713 30.2456 35.4734C29.501 35.4856 28.7574 35.4897 28.0148 35.4856C26.5726 35.4764 25.7166 34.3933 25.7227 32.9572C25.7247 32.3804 25.735 31.8137 25.7534 31.2573C25.7582 31.0734 25.8346 30.8985 25.9665 30.7701C26.0983 30.6418 26.2751 30.5699 26.4591 30.57L42.1879 30.5731ZM36.5788 44.1018C36.5788 46.216 37.4717 48.0693 39.8222 48.3363C41.2991 48.502 42.6953 48.3352 44.0106 47.8361C44.0767 47.8107 44.1335 47.7659 44.1735 47.7079C44.2135 47.6498 44.2348 47.5811 44.2346 47.5109L44.2438 35.5623C44.2438 35.5412 44.2351 35.5209 44.2195 35.5059C44.204 35.491 44.1829 35.4826 44.1609 35.4826H36.7353C36.6269 35.4826 36.5727 35.5368 36.5727 35.6452C36.5768 38.5336 36.5788 41.3525 36.5788 44.1018Z" fill="white"/>
<path d="M39.8256 48.3366C37.4752 48.0697 36.5823 46.2163 36.5823 44.1022C36.5823 41.3528 36.5803 38.534 36.5762 35.6455C36.5762 35.5371 36.6304 35.4829 36.7388 35.4829H44.1644C44.1864 35.4829 44.2075 35.4913 44.223 35.5063C44.2385 35.5212 44.2473 35.5415 44.2473 35.5627L44.2381 47.5112C44.2383 47.5814 44.2169 47.6501 44.1769 47.7082C44.1369 47.7663 44.0801 47.811 44.0141 47.8364C42.6987 48.3356 41.3026 48.5023 39.8256 48.3366Z" fill="#5F259F"/>
</svg>
