<svg width="104" height="104" viewBox="0 0 104 104" fill="none" xmlns="http://www.w3.org/2000/svg">
<rect x="0.179688" y="0.23877" width="102.969" height="102.969" rx="10.2969" fill="#0FB5B5" fill-opacity="0.14"/>
<path d="M25.7957 45.5764C25.7957 42.7346 28.0933 40.4229 30.9175 40.4229C33.7416 40.4229 36.039 42.7346 36.039 45.5764C36.039 48.4182 33.7415 50.7299 30.9175 50.7299C28.0935 50.7299 25.7957 48.4182 25.7957 45.5764ZM36.863 55.6336C35.0859 56.7728 33.0409 57.3726 30.9175 57.3726C28.8151 57.3726 26.7873 56.7838 25.0216 55.6649C21.0873 57.5715 18.7412 61.2195 18.4766 65.8173H43.3594C43.1012 61.1801 40.772 57.5203 36.863 55.6336ZM11.9473 73.7548H72.4202V78.4146C72.4202 79.5691 71.4879 80.5083 70.342 80.5083H14.0253C12.8794 80.5083 11.9473 79.5691 11.9473 78.4146V73.7548ZM38.5534 77.3398C38.5534 77.8237 38.9429 78.2162 39.4232 78.2162H44.9441C45.4244 78.2162 45.8139 77.8237 45.8139 77.3398C45.8139 76.8559 45.4244 76.4635 44.9441 76.4635H39.4232C38.9429 76.4635 38.5534 76.8559 38.5534 77.3398ZM33.2474 82.261V87.3393H51.1199V82.261H33.2474ZM72.42 43.218V72.0021H11.9473V36.5747C11.9473 35.4204 12.8794 34.4811 14.0253 34.4811H45.4538V40.6025C45.4538 42.0448 46.6185 43.218 48.0499 43.218H51.477V54.6202C51.477 54.96 51.672 55.2692 51.9775 55.4136C52.0953 55.4692 52.2214 55.4965 52.3467 55.4965C52.5461 55.4965 52.7437 55.4274 52.903 55.2939L67.3181 43.218H72.42ZM24.056 45.5764C24.056 49.3844 27.134 52.4826 30.9175 52.4826C34.7009 52.4826 37.7787 49.3844 37.7787 45.5764C37.7787 41.7684 34.7007 38.6702 30.9175 38.6702C27.1342 38.6702 24.056 41.7684 24.056 45.5764ZM45.1229 66.6938C45.1245 60.7407 42.2109 56.0519 37.1291 53.8299C36.8513 53.7084 36.531 53.7412 36.2833 53.9163C34.7063 55.0308 32.8508 55.6199 30.9173 55.6199C29.0024 55.6199 27.1614 55.041 25.5932 53.9456C25.3451 53.7724 25.0256 53.7407 24.7491 53.8628C19.643 56.1117 16.7134 60.7882 16.7117 66.6934C16.7117 66.9258 16.8032 67.1488 16.9664 67.3133C17.1296 67.4777 17.3508 67.5701 17.5815 67.5701H44.2532C44.7336 67.5701 45.1227 67.1777 45.1229 66.6938ZM64.9006 89.0918H19.4666C19.2864 89.0918 19.1342 89.2452 19.1342 89.4266V92.5761C19.1342 92.7577 19.2864 92.9111 19.4666 92.9111H64.9008C65.0811 92.9111 65.2333 92.7577 65.2333 92.5761V89.4266C65.2333 89.245 65.0809 89.0918 64.9006 89.0918ZM92.8517 11.3985V40.6025C92.8517 41.0782 92.4676 41.4653 91.9953 41.4653H67.0037C66.8005 41.4653 66.6038 41.537 66.4476 41.6679L53.2167 52.7518V42.3417C53.2167 41.8578 52.8272 41.4653 52.3469 41.4653H48.0499C47.5776 41.4653 47.1934 41.0783 47.1934 40.6025V11.3985C47.1934 10.9228 47.5776 10.5356 48.0499 10.5356H91.9951C92.4672 10.5356 92.8517 10.9226 92.8517 11.3985ZM64.6265 33.5836C64.6265 33.0997 64.237 32.7073 63.7566 32.7073H55.429C54.9487 32.7073 54.5592 33.0997 54.5592 33.5836C54.5592 34.0675 54.9487 34.4599 55.429 34.4599H63.7566C64.237 34.4599 64.6265 34.0675 64.6265 33.5836ZM82.8932 26.0005C82.8932 25.5166 82.5036 25.1242 82.0233 25.1242H55.429C54.9487 25.1242 54.5592 25.5166 54.5592 26.0005C54.5592 26.4844 54.9487 26.8768 55.429 26.8768H82.0233C82.5036 26.8768 82.8932 26.4844 82.8932 26.0005ZM82.8932 18.4174C82.8932 17.9335 82.5036 17.5411 82.0233 17.5411H55.429C54.9487 17.5411 54.5592 17.9335 54.5592 18.4174C54.5592 18.9013 54.9487 19.2937 55.429 19.2937H82.0233C82.5036 19.2937 82.8932 18.9013 82.8932 18.4174Z" fill="#25BBA4"/>
</svg>
