<svg width="104" height="104" viewBox="0 0 104 104" fill="none" xmlns="http://www.w3.org/2000/svg">
<rect x="0.179688" y="0.23877" width="102.969" height="102.969" rx="10.2969" fill="#0FB5B5" fill-opacity="0.14"/>
<path fill-rule="evenodd" clip-rule="evenodd" d="M36.9407 48.602C36.9728 48.2396 37.0747 47.8867 37.2408 47.5626C36.7575 47.1956 36.3583 46.73 36.0701 46.197C35.782 45.664 35.6114 45.0758 35.5698 44.4718H35.4743C35.2638 44.474 35.0566 44.42 34.8741 44.3156C34.5633 44.1285 34.3235 43.8443 34.192 43.5072C33.8851 42.8279 33.6395 40.9598 34.4171 40.43L34.2807 40.3077V40.1039C34.2807 39.7303 34.2466 39.2751 34.2329 38.8064C34.2329 37.0674 34.1715 35.8786 32.7665 35.4574L32.1663 35.274L32.5619 34.7849C33.6015 33.4765 34.7817 32.2851 36.0813 31.2322C37.2528 30.2362 38.6623 29.5577 40.1737 29.2622C40.8754 29.1493 41.5933 29.1899 42.2776 29.3811C42.9619 29.5723 43.5962 29.9095 44.1365 30.3694C44.5121 30.7033 44.8526 31.0743 45.1528 31.4767C48.188 31.7688 49.7772 34.0852 49.634 36.8228C49.5867 38.2498 48.9995 39.6062 47.9902 40.6202C48.1683 40.6244 48.3431 40.6685 48.5018 40.7492C48.7478 40.915 48.9276 41.1615 49.0099 41.4458C49.0921 41.7301 49.0716 42.0341 48.9519 42.3048C48.8019 42.7803 48.6041 43.3306 48.4267 43.7925C48.2016 44.4175 47.8811 44.5329 47.2536 44.4718C47.2195 46.0206 46.5033 46.7747 45.5416 47.6849L45.7599 48.4593C45.1528 51.3939 38.6868 51.72 36.9407 48.6224V48.602ZM52.0008 78.9669C45.5757 78.9669 49.8045 79.4696 50.6776 72.5203C51.9939 62.1201 61.9112 62.1201 63.3776 72.5203C64.3189 79.2047 68.3499 78.9669 62.0612 78.9669H59.5853C59.5853 80.672 59.3125 80.475 61.0791 81.4328C61.9862 81.9219 63.6709 82.2819 65.1101 82.8457C67.3063 80.9844 71.2009 82.214 71.6033 78.7699C71.6647 78.2468 70.4302 76.9629 70.1505 76.0119C69.8135 75.4945 69.6212 74.8968 69.5936 74.2806C69.566 73.6643 69.7041 73.052 69.9937 72.5067C70.1757 72.0235 70.2274 71.5012 70.1437 70.9919C70.1437 65.4555 79.8836 65.4487 79.8836 70.9919C79.8836 71.6712 79.7268 72.0652 80.1019 72.6086C80.743 73.5325 80.4156 75.1696 79.8768 76.0051C79.529 77.0105 78.2194 78.1993 78.3285 78.7631C79.2289 83.328 85.2242 78.5729 85.7903 85.5562H19.0092C19.7254 77.3841 28.981 82.4246 29.6563 76.7184C29.7313 76.0731 28.1966 74.3205 27.842 73.1317C27.0917 71.9361 26.8189 70.034 27.6442 68.7705C27.9716 68.2678 27.8352 67.7855 27.8352 67.0994C27.8352 60.2181 39.935 60.2181 39.935 67.0994C39.935 67.969 39.7372 68.2135 40.2078 68.8996C41.0059 70.0476 40.5966 72.072 39.9282 73.1317C39.4985 74.3748 37.882 76.0119 38.0048 76.7184C39.021 81.8539 45.8008 77.8189 47.6424 83.5114C49.1224 82.6012 51.6256 82.2683 53.1944 81.3309C54.7631 80.3934 54.4835 80.5361 54.4698 78.9873L52.0008 78.9669ZM25.9799 58.119C26.5938 50.2323 28.0807 53.1873 34.8468 48.9756C36.7088 53.7987 45.6644 54.1179 47.6287 48.9756C53.4467 52.6914 56.3592 49.8859 56.3251 58.119H34.6558C34.3966 58.119 34.1374 58.119 33.8851 58.119C33.6327 58.119 33.3803 58.119 33.128 58.119H25.9799ZM12.475 62.453H17.2972C16.93 62.3574 16.6046 62.1438 16.3716 61.8454C16.1385 61.547 16.0108 61.1803 16.0081 60.8023V25.7774C16.0117 25.3269 16.1934 24.896 16.5139 24.5781C16.8344 24.2601 17.2678 24.0809 17.7201 24.0791H50.1319V25.9608H18.1362V60.7479H26.6688C25.0561 62.2153 24.0943 64.2604 23.9951 66.4337H12.475C11.9455 66.4319 11.4383 66.2217 11.0639 65.8488C10.6895 65.4759 10.4784 64.9707 10.4766 64.4434C10.4784 63.916 10.6895 63.4108 11.0639 63.0379C11.4383 62.6651 11.9455 62.4548 12.475 62.453ZM41.1218 60.7479H86.4383V25.9608H84.5217V24.0791H86.6293C87.081 24.0809 87.5136 24.2604 87.833 24.5785C88.1524 24.8966 88.3326 25.3275 88.3344 25.7774V60.7955C88.3357 61.1735 88.2102 61.5412 87.9779 61.8402C87.7457 62.1392 87.4199 62.3525 87.0521 62.4462H92.3245C92.854 62.448 93.3613 62.6583 93.7357 63.0312C94.11 63.404 94.3212 63.9092 94.323 64.4366C94.323 64.9651 94.1126 65.472 93.7381 65.8464C93.3635 66.2207 92.8552 66.4319 92.3245 66.4337H82.2913C81.2662 65.0888 79.8524 64.0885 78.2399 63.5671C76.1405 62.8333 73.8528 62.8333 71.7534 63.5671C70.1396 64.0934 68.7244 65.0954 67.6951 66.4405H65.4375C64.5866 64.8007 63.3368 63.3994 61.8021 62.3647C60.3614 61.4032 58.6663 60.8901 56.9321 60.8906C55.1975 60.906 53.5078 61.4409 52.0826 62.4258C50.5989 63.4541 49.3925 64.8307 48.57 66.4337H43.7955C43.6933 64.2611 42.7321 62.2171 41.1218 60.7479ZM58.5418 17.8906H76.0913C77.2046 17.8942 78.2711 18.3362 79.0583 19.1202C79.8455 19.9042 80.2893 20.9664 80.2929 22.0751V33.0391C80.2893 34.1478 79.8455 35.2101 79.0583 35.9941C78.2711 36.778 77.2046 37.22 76.0913 37.2236H65.8058L59.4285 42.6581C59.3597 42.7214 59.2785 42.77 59.19 42.8007C59.1015 42.8314 59.0077 42.8436 58.9142 42.8366C58.8208 42.8296 58.7298 42.8035 58.6469 42.7599C58.5641 42.7164 58.4911 42.6562 58.4326 42.5833C58.3718 42.5152 58.3254 42.4356 58.2961 42.3493C58.2668 42.2629 58.2552 42.1716 58.2621 42.0807L58.6032 37.1965H58.5418C57.4286 37.1929 56.362 36.7509 55.5748 35.9669C54.7877 35.1829 54.3438 34.1206 54.3402 33.0119V22.0751C54.3438 20.9664 54.7877 19.9042 55.5748 19.1202C56.362 18.3362 57.4286 17.8942 58.5418 17.8906ZM65.6216 23.0398L71.0782 26.8235C71.1941 26.8955 71.2899 26.9956 71.3567 27.1143C71.4234 27.2331 71.459 27.3667 71.4601 27.5028C71.4621 27.6357 71.4315 27.767 71.3709 27.8854C71.3102 28.0038 71.2215 28.1057 71.1123 28.1821L65.6557 31.9115C65.5112 32.0343 65.3274 32.1018 65.1374 32.1017C64.9257 32.0928 64.7259 32.0019 64.5806 31.8483C64.4353 31.6948 64.3561 31.4907 64.3598 31.2797V23.6987C64.3598 23.4843 64.4453 23.2787 64.5975 23.1271C64.7497 22.9755 64.9562 22.8903 65.1715 22.8903C65.3434 22.8898 65.5108 22.9446 65.6489 23.0465L65.6216 23.0398ZM58.9988 48.3099C58.7339 48.2886 58.4868 48.1689 58.3066 47.9744C58.1265 47.7799 58.0264 47.525 58.0264 47.2604C58.0264 46.9957 58.1265 46.7408 58.3066 46.5463C58.4868 46.3519 58.7339 46.2321 58.9988 46.2108H81.0977C81.3626 46.2321 81.6097 46.3519 81.7898 46.5463C81.97 46.7408 82.0701 46.9957 82.0701 47.2604C82.0701 47.525 81.97 47.7799 81.7898 47.9744C81.6097 48.1689 81.3626 48.2886 81.0977 48.3099H58.9988ZM65.4648 55.0078C65.1999 54.9866 64.9528 54.8668 64.7726 54.6723C64.5924 54.4778 64.4924 54.2229 64.4924 53.9583C64.4924 53.6937 64.5924 53.4388 64.7726 53.2443C64.9528 53.0498 65.1999 52.93 65.4648 52.9088H81.1523C81.2978 52.8971 81.4442 52.9156 81.5821 52.963C81.7201 53.0105 81.8468 53.0859 81.954 53.1845C82.0613 53.2831 82.147 53.4027 82.2055 53.5359C82.2641 53.6691 82.2943 53.8129 82.2943 53.9583C82.2943 54.1037 82.2641 54.2475 82.2055 54.3807C82.147 54.5139 82.0613 54.6335 81.954 54.7321C81.8468 54.8307 81.7201 54.9061 81.5821 54.9536C81.4442 55.001 81.2978 55.0195 81.1523 55.0078H65.4648Z" fill="#25BBA4"/>
</svg>
