<svg width="34" height="34" viewBox="0 0 34 34" fill="none" xmlns="http://www.w3.org/2000/svg">
<path d="M16.7373 0.271484C7.51086 0.271484 0 7.78234 0 17.0088C0 20.1819 0.899629 23.2783 2.59428 25.9562C2.70586 26.1306 2.73376 26.3538 2.67099 26.549L0.369615 33.4392L7.89442 31.4586C7.95021 31.4447 8.01298 31.4377 8.07574 31.4377C8.1943 31.4377 8.31285 31.4726 8.41746 31.5284C10.942 32.9789 13.8222 33.7461 16.7373 33.7461C25.9637 33.7461 33.4746 26.2352 33.4746 17.0088C33.4746 7.78234 25.9637 0.271484 16.7373 0.271484ZM27.4003 27.351C27.3376 27.4487 27.2539 27.5254 27.1562 27.5812C26.4728 27.9787 25.6429 28.1739 24.7014 28.1739C23.1254 28.1739 21.2285 27.623 19.1363 26.5351C16.8349 25.3425 14.4778 23.5712 12.3228 21.4232C10.1749 19.2683 8.40351 16.9111 7.21098 14.6098C5.48146 11.2763 5.10487 8.43091 6.1649 6.58981C6.22069 6.49218 6.2974 6.40849 6.39504 6.34572C7.05058 5.93427 9.97263 5.62742 10.9211 6.07374C11.1094 6.17138 11.2558 6.34573 11.2977 6.54797C11.6185 7.93577 12.3019 9.51884 13.2922 11.1298C13.3968 11.3041 13.4247 11.5134 13.3619 11.7086C13.1806 12.2735 12.3507 13.3266 11.7231 13.9612C12.7273 15.4675 13.9756 16.9879 15.3704 18.3757C16.7582 19.7704 18.2785 21.0187 19.7849 22.023C20.4195 21.3953 21.4725 20.5654 22.0374 20.3841C22.2327 20.3214 22.4419 20.3493 22.6163 20.4539C24.2272 21.4442 25.8103 22.1276 27.1981 22.4484C27.4003 22.4902 27.5747 22.6367 27.6723 22.825C28.1186 23.7734 27.8118 26.6955 27.4003 27.351Z" fill="#0F6C73"/>
</svg>
