<svg width="21" height="24" viewBox="0 0 21 24" fill="none" xmlns="http://www.w3.org/2000/svg">
<path fill-rule="evenodd" clip-rule="evenodd" d="M15.3105 0.75L20.2498 5.68929L20.25 5.68946C20.6849 6.12373 21 6.88577 21 7.5V21.75C21 22.9905 19.9905 24 18.75 24H5.25C4.0095 24 3 22.9905 3 21.75C3 21.3353 3.33532 21 3.75 21C4.16468 21 4.5 21.3353 4.5 21.75C4.5 22.1632 4.83599 22.5 5.25 22.5H18.75C19.1647 22.5 19.5 22.1632 19.5 21.75V9C19.5 8.172 18.8287 7.5 18 7.5H15.1875C14.2605 7.5 13.5 6.74096 13.5 5.8125V3C13.5 2.172 12.8287 1.5 12 1.5H5.25C4.83599 1.5 4.5 1.83683 4.5 2.25V9.75C4.5 10.1647 4.16468 10.5 3.75 10.5C3.33532 10.5 3 10.1647 3 9.75V2.25C3 1.0095 4.0095 0 5.25 0H13.5C14.115 0 14.877 0.315086 15.3105 0.75ZM0.75 11.0566H17.25C17.6632 11.0566 18 11.3941 18 11.8066V19.3066C18 19.7191 17.6632 20.0566 17.25 20.0566H0.75C0.3375 20.0566 0 19.7191 0 19.3066V11.8066C0 11.3941 0.3375 11.0566 0.75 11.0566ZM5.25291 16.1993L6.357 17.6146L6.35696 17.6147C6.68107 18.0586 7.34101 17.6267 7.01087 17.1774L5.7876 15.6541C6.14756 15.1815 6.52557 14.7196 6.88483 14.2936C7.22687 13.9035 6.62084 13.3822 6.30879 13.7895L5.26547 15.0968L4.22151 13.8015C3.94545 13.3815 3.24434 13.8427 3.62151 14.2927C3.95685 14.6838 4.29272 15.1045 4.63797 15.537C4.66883 15.5757 4.69977 15.6144 4.73079 15.6533L3.5256 17.1826C3.18356 17.5905 3.86157 18.0819 4.1676 17.6446L5.25291 16.1993ZM8.13004 17.8066H10.1145L10.1145 17.8066C10.7145 17.8066 10.7018 17.0213 10.1153 17.0221H8.48412V14.0176C8.48412 13.8204 8.32206 13.6517 8.13004 13.6517C7.92011 13.6517 7.75203 13.8196 7.75203 14.0176V17.4407C7.75203 17.6573 7.92011 17.8066 8.13004 17.8066ZM11.2576 16.9194C11.1503 17.0821 11.1436 17.3454 11.3423 17.5066L11.3423 17.5066C12.1703 18.1907 14.3761 18.1547 14.418 16.6316C14.441 15.7458 13.6466 15.5259 12.9634 15.3368C12.4167 15.1854 11.9411 15.0537 12.0128 14.6163C12.1388 13.993 13.1468 14.1251 13.5908 14.407C13.9501 14.671 14.3821 14.149 13.9748 13.8197C13.1468 13.1838 11.3895 13.393 11.2516 14.5562C11.1427 15.5568 11.9584 15.7853 12.6658 15.9834C13.1626 16.1225 13.6058 16.2466 13.638 16.6127C13.5488 17.4653 12.2828 17.2133 11.7923 16.8773C11.5869 16.7101 11.4143 16.7642 11.2576 16.9194Z" fill="#6EB875"/>
</svg>
